g axe_basic_010_blade
v -0.4295824 -0.02880742 1.869858
v -0.3008535 -0.02880742 1.840122
v -0.3229979 -0.02880742 1.748042
v -0.4985391 -0.02880742 1.774582
v -0.5614169 -0.02880742 1.601976
v -0.2403585 -0.02880742 1.598716
v -0.5606786 -0.02880742 1.470885
v -0.07777464 -0.02880742 1.453308
v -0.02791541 -0.02880742 1.511037
v -0.5146883 -0.02880742 1.204521
v -0.23434 -0.02880742 1.322666
v -0.3894676 -0.02880742 0.9480492
v -0.1258795 -0.02880723 1.299923
v -0.2444085 -0.02880742 1.103481
v -0.05992033 -0.02880742 1.357093
v -0.06827279 -0.02745795 1.174834
v -1.073023E-15 -0.03294579 1.311903
v -0.3334594 -0.02880742 0.7854185
v -0.2095447 -0.02880742 0.8680393
v -0.3425977 -0.02880742 0.6692447
v -0.2364012 -0.02880742 0.6539366
v -0.3681538 -0.02880742 0.5199293
v -0.3090777 -0.02880742 0.4895262
v -0.4740225 2.139275E-15 0.3118539
v -0.5345237 2.213162E-15 1.8941
v -0.4295824 -0.02880742 1.869858
v -0.4985391 -0.02880742 1.774582
v -0.6365807 2.331815E-15 1.793571
v -0.5614169 -0.02880742 1.601976
v -0.7271035 2.450665E-15 1.637572
v -0.5606786 -0.02880742 1.470885
v -0.7602285 2.488802E-15 1.445219
v -0.7333165 2.460195E-15 1.231917
v -0.5606786 -0.02880742 1.470885
v -0.5146883 -0.02880742 1.204521
v -0.6720396 2.395886E-15 1.063028
v -0.3894676 -0.02880742 0.9480492
v -0.5196971 2.193102E-15 0.8022212
v -0.5196971 2.193102E-15 0.8022212
v -0.3334594 -0.02880742 0.7854185
v -0.3425977 -0.02880742 0.6692447
v -0.4724409 2.393767E-15 0.6717543
v -0.3681538 -0.02880742 0.5199293
v -0.4546143 2.609135E-15 0.5300985
v -0.4740225 2.139275E-15 0.3118539
v -0.4295824 0.02880742 1.869858
v -0.3229979 0.02880742 1.748042
v -0.3008535 0.02880742 1.840122
v -0.4985391 0.02880742 1.774582
v -0.5614169 0.02880742 1.601976
v -0.2403585 0.02880742 1.598716
v -0.5606786 0.02880742 1.470885
v -0.07777464 0.02880742 1.453308
v -0.02791541 0.02880742 1.511037
v -0.5146883 0.02880742 1.204521
v -0.23434 0.02880742 1.322666
v -0.1258795 0.02880762 1.299923
v -0.05992033 0.02880742 1.357093
v -0.06827279 0.0274581 1.174834
v -9.852373E-16 0.03294607 1.311903
v -0.2444085 0.02880742 1.103481
v -0.3894676 0.02880742 0.9480492
v -0.3334594 0.02880742 0.7854185
v -0.2095447 0.02880742 0.8680393
v -0.3425977 0.02880742 0.6692447
v -0.2364012 0.02880742 0.6539366
v -0.3090777 0.02880742 0.4895262
v -0.3681538 0.02880742 0.5199293
v -0.4740225 2.139275E-15 0.3118539
v -0.5345237 2.213162E-15 1.8941
v -0.4985391 0.02880742 1.774582
v -0.4295824 0.02880742 1.869858
v -0.6365807 2.331815E-15 1.793571
v -0.5614169 0.02880742 1.601976
v -0.7271035 2.450665E-15 1.637572
v -0.5606786 0.02880742 1.470885
v -0.7602285 2.488802E-15 1.445219
v -0.7333165 2.460195E-15 1.231917
v -0.5146883 0.02880742 1.204521
v -0.5606786 0.02880742 1.470885
v -0.6720396 2.395886E-15 1.063028
v -0.3894676 0.02880742 0.9480492
v -0.5196971 2.193102E-15 0.8022212
v -0.5196971 2.193102E-15 0.8022212
v -0.3334594 0.02880742 0.7854185
v -0.3425977 0.02880742 0.6692447
v -0.4724409 2.393767E-15 0.6717543
v -0.3681538 0.02880742 0.5199293
v -0.4546143 2.609135E-15 0.5300985
v -0.4740225 2.139275E-15 0.3118539
v -0.3229979 0.02880742 1.748042
v -0.3229979 -0.02880742 1.748042
v -0.3008535 -0.02880742 1.840122
v -0.3008535 0.02880742 1.840122
v -0.3008535 0.02880742 1.840122
v -0.3008535 -0.02880742 1.840122
v -0.4295824 -0.02880742 1.869858
v -0.4295824 0.02880742 1.869858
v -0.5345237 2.213162E-15 1.8941
v -0.2403585 0.02880742 1.598716
v -0.2403585 -0.02880742 1.598716
v -0.3229979 -0.02880742 1.748042
v -0.3229979 0.02880742 1.748042
v -0.2444085 0.02880742 1.103481
v -0.23434 -0.02880742 1.322666
v -0.23434 0.02880742 1.322666
v -0.2444085 -0.02880742 1.103481
v -0.2095447 0.02880742 0.8680393
v -0.2095447 -0.02880742 0.8680393
v -0.2364012 0.02880742 0.6539366
v -0.2364012 -0.02880742 0.6539366
v -0.3090777 0.02880742 0.4895262
v -0.3090777 -0.02880742 0.4895262
v -0.4740225 2.139275E-15 0.3118539
v -0.07777464 0.02880742 1.453308
v -0.07777464 -0.02880742 1.453308
v -0.02791541 -0.02880742 1.511037
v -0.02791541 0.02880742 1.511037
v -0.05992033 0.02880742 1.357093
v -0.05992033 -0.02880742 1.357093
v -0.07777464 -0.02880742 1.453308
v -0.07777464 0.02880742 1.453308
v -0.1258795 0.02880762 1.299923
v -0.1258795 -0.02880723 1.299923
v -0.06827279 -0.02745795 1.174834
v -0.06827279 0.0274581 1.174834
v -9.852373E-16 0.03294607 1.311903
v -1.073023E-15 -0.03294579 1.311903
v -0.05992033 -0.02880742 1.357093
v -0.05992033 0.02880742 1.357093
vt 0.5365219 0.4345668
vt 0.5377043 0.4334586
vt 0.5413674 0.4336492
vt 0.5403115 0.4351605
vt 0.5437137 0.4357017
vt 0.5436576 0.4329378
vt 0.5414468 0.4356954
vt 0.541143 0.4315382
vt 0.5421413 0.431109
vt 0.5368411 0.4353705
vt 0.5388841 0.432886
vt 0.5324062 0.4342215
vt 0.5384908 0.4319523
vt 0.5350939 0.4329727
vt 0.5394791 0.4313845
vt 0.5364015 0.4313784
vt 0.538663 0.430703
vt 0.5292658 0.4336628
vt 0.5265931 0.4326914
vt 0.5246925 0.4337533
vt 0.5252749 0.4330389
vt 0.5222622 0.4338439
vt 0.5216979 0.4333865
vt 0.5171431 0.4349494
vt 0.5398579 0.4465404
vt 0.5410965 0.4430599
vt 0.5439288 0.445799
vt 0.5428458 0.450158
vt 0.5493223 0.4486451
vt 0.5485473 0.454398
vt 0.5536237 0.4491528
vt 0.5536215 0.456063
vt 0.5600072 0.456127
vt 0.5536237 0.4491528
vt 0.5625166 0.4489485
vt 0.5651228 0.4551443
vt 0.5714902 0.4454386
vt 0.575721 0.450473
vt 0.575721 0.450473
vt 0.5778574 0.4439805
vt 0.5814088 0.4447851
vt 0.5798501 0.4495775
vt 0.5849602 0.4455897
vt 0.5839791 0.4486822
vt 0.5919921 0.4509084
vt 0.5365219 0.4345668
vt 0.5413674 0.4336492
vt 0.5377043 0.4334586
vt 0.5403115 0.4351605
vt 0.5437137 0.4357017
vt 0.5436576 0.4329378
vt 0.5414468 0.4356954
vt 0.541143 0.4315382
vt 0.5421413 0.431109
vt 0.5368411 0.4353705
vt 0.5388841 0.432886
vt 0.5384908 0.4319523
vt 0.5394791 0.4313845
vt 0.5364015 0.4313784
vt 0.538663 0.430703
vt 0.5350939 0.4329727
vt 0.5324062 0.4342215
vt 0.5292658 0.4336628
vt 0.5265931 0.4326914
vt 0.5246925 0.4337533
vt 0.5252749 0.4330389
vt 0.5216979 0.4333865
vt 0.5222622 0.4338439
vt 0.5171431 0.4349494
vt 0.5398579 0.4465404
vt 0.5439288 0.445799
vt 0.5410965 0.4430599
vt 0.5428458 0.450158
vt 0.5493223 0.4486451
vt 0.5485473 0.454398
vt 0.5536237 0.4491528
vt 0.5536215 0.456063
vt 0.5600072 0.456127
vt 0.5625166 0.4489485
vt 0.5536237 0.4491528
vt 0.5651228 0.4551443
vt 0.5714902 0.4454386
vt 0.575721 0.450473
vt 0.575721 0.450473
vt 0.5778574 0.4439805
vt 0.5814088 0.4447851
vt 0.5798501 0.4495775
vt 0.5849602 0.4455897
vt 0.5839791 0.4486822
vt 0.5919921 0.4509084
vt 0.5790923 0.4329238
vt 0.5790923 0.4313683
vt 0.569252 0.4313682
vt 0.569252 0.4329237
vt 0.5494047 0.4686207
vt 0.5508028 0.4686205
vt 0.5508028 0.4664548
vt 0.5494047 0.4664548
vt 0.5501037 0.4646892
vt 0.5950502 0.4329238
vt 0.5950502 0.4313683
vt 0.5790923 0.4313683
vt 0.5790923 0.4329238
vt 0.593485 0.4337287
vt 0.5951185 0.429106
vt 0.5951184 0.4337287
vt 0.593485 0.4291061
vt 0.5916511 0.4337287
vt 0.591651 0.4291061
vt 0.5903541 0.4337287
vt 0.5903541 0.4291061
vt 0.589057 0.4337287
vt 0.5890571 0.4291061
vt 0.5870346 0.4314174
vt 0.5859771 0.4384531
vt 0.5859771 0.4376572
vt 0.5861536 0.4376572
vt 0.5861536 0.4384531
vt 0.5857727 0.4384531
vt 0.5857727 0.4376572
vt 0.5859771 0.4376572
vt 0.5859771 0.4384531
vt 0.5861857 0.438767
vt 0.5861857 0.4370098
vt 0.5857062 0.4363367
vt 0.5857061 0.43944
vt 0.585735 0.4387578
vt 0.585735 0.4373524
vt 0.5857727 0.4376572
vt 0.5857727 0.4384531
vn 0 -1 0
vn 0 -1 0
vn 0 -1 0
vn 0 -1 0
vn 0 -1 0
vn 0 -1 0
vn 0 -1 0
vn 0 -1 0
vn 0 -1 0
vn 0 -1 0
vn 0 -1 0
vn 0 -1 0
vn 0 -1 0
vn 0 -1 0
vn 0 -1 0
vn -0.03229592 -0.9994609 -0.005920103
vn -0.03229592 -0.9994609 -0.005920102
vn 0 -1 0
vn 0 -1 0
vn 0 -1 0
vn 0 -1 0
vn -0.01776507 -0.9992461 -0.03451905
vn -0.01812854 -0.999215 -0.0352253
vn -0.05604045 -0.9924728 -0.1088914
vn -0.1980054 -0.964825 0.172935
vn -0.1980054 -0.964825 0.172935
vn -0.1835003 -0.9755538 0.120924
vn -0.1771447 -0.9792302 0.09862971
vn -0.1631697 -0.9855334 0.0458201
vn -0.1625642 -0.985741 0.04344427
vn -0.1553883 -0.9877309 0.01555915
vn -0.1553883 -0.9877309 0.01555915
vn -0.1406225 -0.9899042 -0.0177421
vn -0.1346495 -0.9903375 -0.03318409
vn -0.1322475 -0.9900194 -0.0487041
vn -0.1310155 -0.9897646 -0.05657839
vn -0.1574132 -0.9860437 -0.05421128
vn -0.1290177 -0.9892228 -0.06922884
vn -0.172007 -0.9843649 -0.03793779
vn -0.1725668 -0.9842908 -0.03731137
vn -0.2131112 -0.976937 -0.01333639
vn -0.2100854 -0.9775724 -0.01471634
vn -0.2746416 -0.9614532 0.01340331
vn -0.2764875 -0.9609142 0.01409361
vn -0.3130309 -0.9493349 0.02783746
vn 0 1 0
vn 0 1 0
vn 0 1 0
vn 0 1 0
vn 0 1 0
vn 0 1 0
vn 0 1 0
vn 0 1 0
vn 0 1 0
vn 0 1 0
vn 0 1 0
vn 0 1 0
vn 0 1 0
vn -0.03229521 0.9994609 -0.005919329
vn -0.03229521 0.9994609 -0.005919329
vn 0 1 0
vn 0 1 0
vn 0 1 0
vn 0 1 0
vn 0 1 0
vn 0 1 0
vn -0.01812855 0.999215 -0.03522532
vn -0.01776507 0.9992461 -0.03451906
vn -0.05604048 0.9924728 -0.1088915
vn -0.1980054 0.9648251 0.172935
vn -0.1835004 0.9755538 0.120924
vn -0.1980054 0.9648251 0.172935
vn -0.1771447 0.9792302 0.09862971
vn -0.1631698 0.9855334 0.04582011
vn -0.1625642 0.985741 0.04344427
vn -0.1553883 0.9877309 0.01555915
vn -0.1553883 0.9877309 0.01555915
vn -0.1406225 0.9899042 -0.0177421
vn -0.1322475 0.9900194 -0.0487041
vn -0.1346496 0.9903375 -0.03318409
vn -0.1310155 0.9897646 -0.05657839
vn -0.1574132 0.9860437 -0.05421127
vn -0.1290177 0.9892228 -0.06922884
vn -0.172007 0.9843649 -0.03793779
vn -0.1725668 0.9842908 -0.03731136
vn -0.2131111 0.976937 -0.01333639
vn -0.2100854 0.9775724 -0.01471634
vn -0.2746416 0.9614532 0.01340331
vn -0.2764875 0.9609142 0.01409361
vn -0.3130309 0.9493349 0.02783746
vn 0.972279 0 -0.2338241
vn 0.972279 0 -0.2338241
vn 0.972279 0 -0.2338241
vn 0.972279 0 -0.2338241
vn 0.2250707 0 0.9743424
vn 0.2250707 0 0.9743424
vn 0.2250738 0 0.9743418
vn 0.2250738 0 0.9743418
vn 0.2250828 0 0.9743397
vn 0.8749505 0 0.4842123
vn 0.8749505 0 0.4842123
vn 0.8749505 0 0.4842123
vn 0.8749505 0 0.4842123
vn 0.998516 0 0.054459
vn 0.9989466 0 -0.04588782
vn 0.9989466 0 -0.04588782
vn 0.998516 0 0.054459
vn 0.9998415 0 0.01780905
vn 0.9998415 0 0.01780905
vn 0.9671221 0 -0.2543125
vn 0.9671221 0 -0.2543125
vn 0.8559505 0 -0.5170578
vn 0.8559505 0 -0.5170578
vn 0.7328688 0 -0.68037
vn 0.7568073 0 -0.6536381
vn 0.7568073 0 -0.6536381
vn 0.7568073 0 -0.6536381
vn 0.7568073 0 -0.6536381
vn 0.9832147 0 0.1824521
vn 0.9832147 0 0.1824521
vn 0.9832147 0 0.1824521
vn 0.9832147 0 0.1824521
vn -0.9083088 0 -0.4183002
vn -0.9083088 0 -0.4183003
vn -0.9083088 0 -0.4183002
vn -0.9083088 0 -0.4183002
vn 0.6021292 0 0.7983987
vn 0.6021292 0 0.7983987
vn 0.6021292 0 0.7983986
vn 0.6021292 0 0.7983987
g axe_basic_010_blade_0
f 3/3/3 2/2/2 1/1/1
f 4/4/4 3/3/3 1/1/1
f 4/4/4 5/5/5 3/3/3
f 5/5/5 6/6/6 3/3/3
f 5/5/5 7/7/7 6/6/6
f 7/7/7 8/8/8 6/6/6
f 8/8/8 9/9/9 6/6/6
f 8/8/8 7/7/7 10/10/10
f 11/11/11 8/8/8 10/10/10
f 11/11/11 10/10/10 12/12/12
f 11/11/11 13/13/13 8/8/8
f 14/14/14 11/11/11 12/12/12
f 13/13/13 15/15/15 8/8/8
f 13/13/13 16/16/16 15/15/15
f 16/16/16 17/17/17 15/15/15
f 12/12/12 18/18/18 14/14/14
f 18/18/18 19/19/19 14/14/14
f 18/18/18 20/20/20 19/19/19
f 20/20/20 21/21/21 19/19/19
f 20/20/20 22/22/22 21/21/21
f 22/22/22 23/23/23 21/21/21
f 22/22/22 24/24/24 23/23/23
f 27/27/27 26/26/26 25/25/25
f 28/28/28 27/27/27 25/25/25
f 27/27/27 28/28/28 29/29/29
f 28/28/28 30/30/30 29/29/29
f 29/29/29 30/30/30 31/31/31
f 30/30/30 32/32/32 31/31/31
f 33/33/33 31/31/31 32/32/32
f 35/35/35 34/34/34 33/33/33
f 36/36/36 35/35/35 33/33/33
f 37/37/37 35/35/35 36/36/36
f 38/38/38 37/37/37 36/36/36
f 40/40/40 37/37/37 39/39/39
f 40/40/40 39/39/39 41/41/41
f 39/39/39 42/42/42 41/41/41
f 41/41/41 42/42/42 43/43/43
f 42/42/42 44/44/44 43/43/43
f 43/43/43 44/44/44 45/45/45
f 48/48/48 47/47/47 46/46/46
f 47/47/47 49/49/49 46/46/46
f 50/50/50 49/49/49 47/47/47
f 51/51/51 50/50/50 47/47/47
f 52/52/52 50/50/50 51/51/51
f 53/53/53 52/52/52 51/51/51
f 54/54/54 53/53/53 51/51/51
f 52/52/52 53/53/53 55/55/55
f 53/53/53 56/56/56 55/55/55
f 57/57/57 56/56/56 53/53/53
f 58/58/58 57/57/57 53/53/53
f 59/59/59 57/57/57 58/58/58
f 60/60/60 59/59/59 58/58/58
f 55/55/55 56/56/56 61/61/61
f 62/62/62 55/55/55 61/61/61
f 63/63/63 62/62/62 61/61/61
f 64/64/64 63/63/63 61/61/61
f 65/65/65 63/63/63 64/64/64
f 66/66/66 65/65/65 64/64/64
f 66/66/66 67/67/67 65/65/65
f 67/67/67 68/68/68 65/65/65
f 69/69/69 68/68/68 67/67/67
f 72/72/72 71/71/71 70/70/70
f 71/71/71 73/73/73 70/70/70
f 73/73/73 71/71/71 74/74/74
f 75/75/75 73/73/73 74/74/74
f 75/75/75 74/74/74 76/76/76
f 77/77/77 75/75/75 76/76/76
f 76/76/76 78/78/78 77/77/77
f 80/80/80 79/79/79 78/78/78
f 79/79/79 81/81/81 78/78/78
f 79/79/79 82/82/82 81/81/81
f 82/82/82 83/83/83 81/81/81
f 82/82/82 85/85/85 84/84/84
f 84/84/84 85/85/85 86/86/86
f 87/87/87 84/84/84 86/86/86
f 87/87/87 86/86/86 88/88/88
f 89/89/89 87/87/87 88/88/88
f 89/89/89 88/88/88 90/90/90
f 93/93/93 92/92/92 91/91/91
f 94/94/94 93/93/93 91/91/91
f 97/97/97 96/96/96 95/95/95
f 98/98/98 97/97/97 95/95/95
f 99/99/99 97/97/97 98/98/98
f 102/102/102 101/101/101 100/100/100
f 103/103/103 102/102/102 100/100/100
f 106/106/106 105/105/105 104/104/104
f 105/105/105 107/107/107 104/104/104
f 104/104/104 107/107/107 108/108/108
f 107/107/107 109/109/109 108/108/108
f 108/108/108 109/109/109 110/110/110
f 109/109/109 111/111/111 110/110/110
f 110/110/110 111/111/111 112/112/112
f 111/111/111 113/113/113 112/112/112
f 112/112/112 113/113/113 114/114/114
f 117/117/117 116/116/116 115/115/115
f 118/118/118 117/117/117 115/115/115
f 121/121/121 120/120/120 119/119/119
f 122/122/122 121/121/121 119/119/119
f 125/125/125 124/124/124 123/123/123
f 126/126/126 125/125/125 123/123/123
f 129/129/129 128/128/128 127/127/127
f 130/130/130 129/129/129 127/127/127
