g axe_basic_005_blade
v -0.09867859 8.4002E-06 0.5993719
v -0.1311951 -0.03831524 0.6623449
v -0.134491 -0.03831524 0.9928255
v -0.1351929 0.03833336 0.9928255
v -0.1309814 0.03833336 0.6623449
v -0.1046448 9.719612E-06 0.9928255
v -0.2455139 0.03833336 1.125171
v -0.2187042 9.719612E-06 1.125171
v -0.2319489 8.4002E-06 1.55564
v -0.2583771 0.03833336 1.512919
v -0.2187042 9.719612E-06 1.125171
v -0.2583771 -0.03831524 1.512919
v -0.2455139 -0.03831524 1.125171
v -0.134491 -0.03831524 0.9928255
v -0.1046448 9.719612E-06 0.9928255
v -0.09867859 8.4002E-06 0.5993719
v 0.09867859 8.4002E-06 0.5993719
v 0.134491 -0.03831524 0.9928255
v 0.1311951 -0.03831524 0.6623449
v 0.1351929 0.03833336 0.9928255
v 0.1309814 0.03833336 0.6623449
v 0.1046448 9.719612E-06 0.9928255
v 0.2455139 0.03833336 1.125171
v 0.2187042 9.719612E-06 1.125171
v 0.2319489 8.4002E-06 1.55564
v 0.2583771 0.03833336 1.512919
v 0.2187042 9.719612E-06 1.125171
v 0.2583771 -0.03831524 1.512919
v 0.2455139 -0.03831524 1.125171
v 0.134491 -0.03831524 0.9928255
v 0.1046448 9.719612E-06 0.9928255
v 0.09867859 8.4002E-06 0.5993719
v -0.486908 -0.03831524 1.120763
v -0.4642487 8.4002E-06 1.059138
v -0.5357361 8.4002E-06 0.9572592
v -0.486908 0.03833336 1.120763
v -0.5357361 8.4002E-06 0.9572592
v -0.5855408 -0.03831524 1.581916
v -0.486908 -0.03831524 1.120763
v -0.6983795 8.4002E-06 1.660478
v -0.5855408 0.03833336 1.581916
v -0.486908 0.03833336 1.120763
v -0.4308167 8.4002E-06 0.4531851
v -0.3653564 -0.03831524 0.8361464
v -0.3680573 -0.03831524 0.5610723
v -0.4292297 8.4002E-06 0.8581057
v -0.3653564 0.03833336 0.8361464
v -0.3680573 0.03833336 0.5610723
v -0.4292297 8.4002E-06 0.8581057
v -0.2842865 -0.03831524 0.902154
v -0.3653564 -0.03831524 0.8361464
v -0.3433685 8.4002E-06 0.9195509
v -0.3369293 8.4002E-06 0.9993181
v -0.2797699 -0.03831524 1.021054
v -0.2842865 0.03833336 0.902154
v -0.2791901 0.03833336 1.019553
v -0.3602295 -0.03831524 1.110005
v -0.4642487 8.4002E-06 1.059138
v -0.486908 -0.03831524 1.120763
v -0.3831787 8.4002E-06 1.05444
v -0.3602295 0.03833336 1.110005
v -0.486908 0.03833336 1.120763
v -0.2797699 -0.03831524 1.021054
v -0.3831787 8.4002E-06 1.05444
v -0.3602295 -0.03831524 1.110005
v -0.3369293 8.4002E-06 0.9993181
v -0.2791901 0.03833336 1.019553
v -0.3602295 0.03833336 1.110005
v -0.4292297 8.4002E-06 0.8581057
v -0.3653564 0.03833336 0.8361464
v -0.2842865 0.03833336 0.902154
v -0.3433685 8.4002E-06 0.9195509
v -0.2319489 8.4002E-06 1.55564
v -0.2583771 -0.03831524 1.512919
v -0.5855408 -0.03831524 1.581916
v -0.6983795 8.4002E-06 1.660478
v -0.5855408 0.03833336 1.581916
v -0.2583771 0.03833336 1.512919
v -0.3653564 0.03833336 0.8361464
v -0.3680573 0.03833336 0.5610723
v -0.1309814 0.03833336 0.6623449
v -0.1351929 0.03833336 0.9928255
v -0.2842865 0.03833336 0.902154
v -0.2455139 0.03833336 1.125171
v -0.2791901 0.03833336 1.019553
v -0.3602295 0.03833336 1.110005
v -0.486908 0.03833336 1.120763
v -0.5855408 0.03833336 1.581916
v -0.2583771 0.03833336 1.512919
v -0.1311951 -0.03831524 0.6623449
v -0.3680573 -0.03831524 0.5610723
v -0.3653564 -0.03831524 0.8361464
v -0.134491 -0.03831524 0.9928255
v -0.2842865 -0.03831524 0.902154
v -0.2797699 -0.03831524 1.021054
v -0.2455139 -0.03831524 1.125171
v -0.3602295 -0.03831524 1.110005
v -0.486908 -0.03831524 1.120763
v -0.5855408 -0.03831524 1.581916
v -0.2583771 -0.03831524 1.512919
v -0.09867859 8.4002E-06 0.5993719
v -0.3680573 -0.03831524 0.5610723
v -0.1311951 -0.03831524 0.6623449
v -0.4308167 8.4002E-06 0.4531851
v -0.3680573 0.03833336 0.5610723
v -0.1309814 0.03833336 0.6623449
v 0.486908 -0.03831524 1.120763
v 0.5357361 8.4002E-06 0.9572592
v 0.4642487 8.4002E-06 1.059138
v 0.486908 0.03833336 1.120763
v 0.5357361 8.4002E-06 0.9572592
v 0.486908 -0.03831524 1.120763
v 0.5855408 -0.03831524 1.581916
v 0.6983795 8.4002E-06 1.660478
v 0.5855408 0.03833336 1.581916
v 0.486908 0.03833336 1.120763
v 0.4308167 8.4002E-06 0.4531851
v 0.3680573 -0.03831524 0.5610723
v 0.3653564 -0.03831524 0.8361464
v 0.4292297 8.4002E-06 0.8581057
v 0.3653564 0.03833336 0.8361464
v 0.3680573 0.03833336 0.5610723
v 0.4292297 8.4002E-06 0.8581057
v 0.3653564 -0.03831524 0.8361464
v 0.2842865 -0.03831524 0.902154
v 0.3433685 8.4002E-06 0.9195509
v 0.2842865 0.03833336 0.902154
v 0.3653564 0.03833336 0.8361464
v 0.3369293 8.4002E-06 0.9993181
v 0.2797699 -0.03831524 1.021054
v 0.2791901 0.03833336 1.019553
v 0.3602295 -0.03831524 1.110005
v 0.486908 -0.03831524 1.120763
v 0.4642487 8.4002E-06 1.059138
v 0.3831787 8.4002E-06 1.05444
v 0.3602295 0.03833336 1.110005
v 0.486908 0.03833336 1.120763
v 0.2797699 -0.03831524 1.021054
v 0.3602295 -0.03831524 1.110005
v 0.3831787 8.4002E-06 1.05444
v 0.3369293 8.4002E-06 0.9993181
v 0.2791901 0.03833336 1.019553
v 0.3602295 0.03833336 1.110005
v 0.2319489 8.4002E-06 1.55564
v 0.5855408 -0.03831524 1.581916
v 0.2583771 -0.03831524 1.512919
v 0.6983795 8.4002E-06 1.660478
v 0.5855408 0.03833336 1.581916
v 0.2583771 0.03833336 1.512919
v 0.1309814 0.03833336 0.6623449
v 0.3680573 0.03833336 0.5610723
v 0.3653564 0.03833336 0.8361464
v 0.1351929 0.03833336 0.9928255
v 0.2842865 0.03833336 0.902154
v 0.2455139 0.03833336 1.125171
v 0.2791901 0.03833336 1.019553
v 0.3602295 0.03833336 1.110005
v 0.486908 0.03833336 1.120763
v 0.5855408 0.03833336 1.581916
v 0.2583771 0.03833336 1.512919
v 0.3653564 -0.03831524 0.8361464
v 0.3680573 -0.03831524 0.5610723
v 0.1311951 -0.03831524 0.6623449
v 0.134491 -0.03831524 0.9928255
v 0.2842865 -0.03831524 0.902154
v 0.2797699 -0.03831524 1.021054
v 0.2455139 -0.03831524 1.125171
v 0.3602295 -0.03831524 1.110005
v 0.486908 -0.03831524 1.120763
v 0.5855408 -0.03831524 1.581916
v 0.2583771 -0.03831524 1.512919
v 0.09867859 8.4002E-06 0.5993719
v 0.1311951 -0.03831524 0.6623449
v 0.3680573 -0.03831524 0.5610723
v 0.4308167 8.4002E-06 0.4531851
v 0.3680573 0.03833336 0.5610723
v 0.1309814 0.03833336 0.6623449
vt 0.04916385 0.02708773
vt 0.04916418 0.02708625
vt 0.05640531 0.02103018
vt 0.05640531 0.02103018
vt 0.04916418 0.02708625
vt 0.05640531 0.02103018
vt 0.06496405 0.0128456
vt 0.06496405 0.0128456
vt 0.05874557 0.0176435
vt 0.05874557 0.01764494
vt 0.06496405 0.0128456
vt 0.05874557 0.01764494
vt 0.06496405 0.0128456
vt 0.05640531 0.02103018
vt 0.05640531 0.02103018
vt 0.04916385 0.02708773
vt 0.04916385 0.02708773
vt 0.05640531 0.02103018
vt 0.04916418 0.02708625
vt 0.05640531 0.02103018
vt 0.04916418 0.02708625
vt 0.05640531 0.02103018
vt 0.06496405 0.0128456
vt 0.06496405 0.0128456
vt 0.05874557 0.0176435
vt 0.05874557 0.01764494
vt 0.06496405 0.0128456
vt 0.05874557 0.01764494
vt 0.06496405 0.0128456
vt 0.05640531 0.02103018
vt 0.05640531 0.02103018
vt 0.04916385 0.02708773
vt 0.5297931 0.4396644
vt 0.5334747 0.4374513
vt 0.5409904 0.4384981
vt 0.5297931 0.4396644
vt 0.541441 0.4305089
vt 0.5320445 0.4349944
vt 0.5396439 0.4306507
vt 0.5339593 0.4372867
vt 0.5320445 0.4349944
vt 0.5396439 0.4306507
vt 0.5360429 0.4359433
vt 0.5290844 0.4283102
vt 0.5340337 0.4301026
vt 0.5285769 0.4339643
vt 0.5290844 0.4283102
vt 0.5340337 0.4301026
vt 0.5481418 0.430171
vt 0.5355203 0.4257649
vt 0.5471615 0.4264344
vt 0.537728 0.4290515
vt 0.5327532 0.4313257
vt 0.5292337 0.4293268
vt 0.5355203 0.4257649
vt 0.5292923 0.4292577
vt 0.5266882 0.4323244
vt 0.5334747 0.4374513
vt 0.5297931 0.4396644
vt 0.5312237 0.4328934
vt 0.5266882 0.4323244
vt 0.5297931 0.4396644
vt 0.5292337 0.4293268
vt 0.5312237 0.4328934
vt 0.5266882 0.4323244
vt 0.5327532 0.4313257
vt 0.5292923 0.4292577
vt 0.5266882 0.4323244
vt 0.5481418 0.430171
vt 0.5471615 0.4264344
vt 0.5355203 0.4257649
vt 0.537728 0.4290515
vt 0.5554736 0.4299815
vt 0.5554736 0.4261967
vt 0.5469406 0.4318578
vt 0.5431749 0.4392695
vt 0.5469406 0.4318578
vt 0.5554736 0.4261967
vt 0.3178907 0.4138108
vt 0.3226654 0.4133948
vt 0.3193674 0.4063176
vt 0.3137559 0.407658
vt 0.3155439 0.4119598
vt 0.3122649 0.4116767
vt 0.3144551 0.4131466
vt 0.3134848 0.4142043
vt 0.3137988 0.4183767
vt 0.3064672 0.4239412
vt 0.3052965 0.4136377
vt 0.3193674 0.4063176
vt 0.3226654 0.4133948
vt 0.3178907 0.4138108
vt 0.3137559 0.407658
vt 0.3155439 0.4119598
vt 0.3144419 0.4131609
vt 0.3122649 0.4116767
vt 0.3134848 0.4142043
vt 0.3137988 0.4183767
vt 0.3064672 0.4239412
vt 0.3052965 0.4136377
vt 0.5261832 0.4372707
vt 0.5431743 0.4333316
vt 0.5242977 0.4379002
vt 0.5480239 0.4249734
vt 0.5431743 0.4333316
vt 0.5242977 0.4379002
vt 0.5304253 0.4345393
vt 0.5420008 0.4388419
vt 0.5361351 0.4363225
vt 0.5335148 0.4396644
vt 0.541441 0.4305089
vt 0.5396439 0.4306507
vt 0.5572225 0.4349944
vt 0.5591373 0.4372867
vt 0.5572225 0.4349944
vt 0.5396439 0.4306507
vt 0.5342405 0.4359433
vt 0.5368134 0.4301026
vt 0.5431511 0.4283102
vt 0.543801 0.4339643
vt 0.5431511 0.4283102
vt 0.5368134 0.4301026
vt 0.5507798 0.4346245
vt 0.5536787 0.4314303
vt 0.5505013 0.4262279
vt 0.5480325 0.4292186
vt 0.5505013 0.4262279
vt 0.5536787 0.4314303
vt 0.5423369 0.4278938
vt 0.5419083 0.4245291
vt 0.5420299 0.4245158
vt 0.5337797 0.4278032
vt 0.5304253 0.4345393
vt 0.5361351 0.4363225
vt 0.5360258 0.43131
vt 0.5323843 0.4300638
vt 0.5335148 0.4396644
vt 0.5419083 0.4245291
vt 0.5337797 0.4278032
vt 0.5360258 0.43131
vt 0.5423369 0.4278938
vt 0.5420299 0.4245158
vt 0.5323843 0.4300638
vt 0.5397698 0.4299815
vt 0.5490546 0.4318578
vt 0.5397698 0.4261967
vt 0.5452889 0.4392695
vt 0.5490546 0.4318578
vt 0.5397698 0.4261967
vt 0.3154588 0.4053767
vt 0.3191156 0.4128323
vt 0.3153301 0.4132867
vt 0.3111305 0.4068091
vt 0.3131787 0.4113416
vt 0.3104987 0.4110536
vt 0.3124701 0.4125972
vt 0.3118384 0.4137162
vt 0.3126817 0.418117
vt 0.3075661 0.4240113
vt 0.3051656 0.4131452
vt 0.3153301 0.4132867
vt 0.3191156 0.4128323
vt 0.3154588 0.4053767
vt 0.3111305 0.4068091
vt 0.3131787 0.4113416
vt 0.3124615 0.4126124
vt 0.3104987 0.4110536
vt 0.3118384 0.4137162
vt 0.3126817 0.418117
vt 0.3075661 0.4240113
vt 0.3051656 0.4131452
vt 0.5261832 0.4372707
vt 0.5242977 0.4379002
vt 0.5431743 0.4333316
vt 0.5480239 0.4249734
vt 0.5431743 0.4333316
vt 0.5242977 0.4379002
vn 0.6304389 0.1079694 -0.7686934
vn 0.4057563 -0.8612114 -0.3060666
vn 0.768671 -0.6395983 0.007665996
vn 0.7668543 0.6053571 0.2132545
vn 0.5338867 0.8165299 -0.2196448
vn 0.7740127 0.6159539 0.1466457
vn 0.8021361 0.5770515 0.1535886
vn 0.7920145 0.5724401 0.2121917
vn 0.655291 0 0.7553765
vn 0.5182436 0.7761388 0.3592107
vn 0.7928657 -0.5709482 0.2130307
vn 0.5182453 -0.7761429 0.3591993
vn 0.8027694 -0.57606 0.1540012
vn 0.7558145 -0.5742215 0.3146654
vn 0.7736062 -0.5923383 0.2250971
vn 0.7889175 -0.6143826 0.01196493
vn -0.6304389 0.1079694 -0.7686933
vn -0.7686712 -0.6395983 0.007665997
vn -0.4057564 -0.8612114 -0.3060666
vn -0.7668542 0.605357 0.2132544
vn -0.5338867 0.8165299 -0.2196448
vn -0.7740127 0.6159539 0.1466457
vn -0.8021361 0.5770514 0.1535886
vn -0.7920145 0.57244 0.2121917
vn -0.655291 0 0.7553766
vn -0.5182435 0.7761388 0.3592107
vn -0.7928657 -0.5709483 0.2130307
vn -0.5182452 -0.7761429 0.3591993
vn -0.8027692 -0.5760601 0.1540012
vn -0.7558145 -0.5742215 0.3146654
vn -0.7736062 -0.5923383 0.2250971
vn -0.7889175 -0.6143826 0.01196493
vn 0.4740809 -0.8152215 -0.3326577
vn 0.8185818 0 -0.5743899
vn 0.8185818 0 -0.5743899
vn 0.4740922 0.815212 -0.3326651
vn -0.9757366 0 -0.2189479
vn -0.2353137 -0.959487 0.1549584
vn -0.3889527 -0.9171141 -0.08727808
vn -0.9792892 0 0.2024666
vn -0.2353211 0.9594844 0.1549633
vn -0.388964 0.9171091 -0.08728059
vn -0.5164089 -0.0001518782 -0.8563422
vn -0.4921635 -0.8630869 0.1133841
vn -0.1887273 -0.954605 -0.2304586
vn -0.9827481 -0.1577654 0.09652082
vn -0.5194445 0.854498 0.003275365
vn -0.188768 0.9545741 -0.2305535
vn -0.9827481 -0.1577654 0.09652082
vn -0.4790668 -0.8476586 0.2279691
vn -0.4921635 -0.8630869 0.1133841
vn -0.7958543 -0.5104492 0.3256647
vn -0.9983406 -0.009962804 0.05671678
vn -0.5510179 -0.83394 0.03038666
vn -0.5488484 0.8353049 0.03211156
vn -0.5488485 0.8353049 0.03211157
vn -0.0406817 -0.8362463 -0.546843
vn -0.07418886 0 -0.9972442
vn -0.0406817 -0.8362463 -0.546843
vn -0.07418884 0 -0.9972442
vn -0.04068281 0.8362375 -0.5468562
vn -0.04068282 0.8362375 -0.5468563
vn -0.4261446 -0.8233699 -0.3747836
vn -0.7518597 0.001976167 -0.6593202
vn -0.4261445 -0.82337 -0.3747837
vn -0.7518253 0.01048895 -0.6592789
vn -0.4287105 0.8220021 -0.37486
vn -0.4287106 0.8220021 -0.37486
vn -0.3558204 0.810064 0.4660347
vn -0.3558204 0.8100639 0.4660346
vn -0.3558204 0.810064 0.4660346
vn -0.3558204 0.810064 0.4660345
vn 0.655291 0 0.7553765
vn 0.5182453 -0.7761429 0.3591993
vn -0.2353137 -0.959487 0.1549584
vn -0.9792892 0 0.2024666
vn -0.2353211 0.9594844 0.1549633
vn 0.5182436 0.7761388 0.3592107
vn 0 1 0
vn 0 1 0
vn 0 1 0
vn 0 1 0
vn 0 1 0
vn 0 1 0
vn 0 1 0
vn 0 1 0
vn 0 1 0
vn 0 1 0
vn 0 1 0
vn 0 -1 0
vn 0 -1 0
vn 0 -1 0
vn 0 -1 0
vn 0 -1 0
vn 0 -1 0
vn 0 -1 0
vn 0 -1 0
vn 0 -1 0
vn 0 -1 0
vn 0 -1 0
vn 0.6304389 0.1079694 -0.7686934
vn -0.1887273 -0.954605 -0.2304586
vn 0.4057563 -0.8612114 -0.3060666
vn -0.5164089 -0.0001518782 -0.8563422
vn -0.188768 0.9545741 -0.2305535
vn 0.5338867 0.8165299 -0.2196448
vn -0.4740807 -0.8152217 -0.3326575
vn -0.8185818 0 -0.5743899
vn -0.8185818 0 -0.5743899
vn -0.4740924 0.8152118 -0.3326652
vn 0.9757366 0 -0.218948
vn 0.3889527 -0.9171141 -0.08727805
vn 0.2353135 -0.959487 0.1549585
vn 0.9792892 0 0.2024666
vn 0.2353212 0.9594844 0.1549632
vn 0.388964 0.9171091 -0.0872806
vn 0.5164089 -0.0001516105 -0.8563422
vn 0.1887273 -0.954605 -0.2304586
vn 0.4921636 -0.8630869 0.1133841
vn 0.9845214 0 0.1752644
vn 0.4921762 0.8630794 0.113387
vn 0.1887679 0.9545741 -0.2305535
vn 0.9845214 0 0.1752644
vn 0.4921636 -0.8630869 0.1133841
vn 0.4790667 -0.8476586 0.2279691
vn 0.8548851 -0.0007186406 0.5188169
vn 0.4776627 0.8481909 0.2289334
vn 0.4921762 0.8630794 0.113387
vn 0.9983406 -0.009962932 0.0567168
vn 0.5510178 -0.8339401 0.03038667
vn 0.5488485 0.8353048 0.03211157
vn 0.0406817 -0.8362462 -0.5468431
vn 0.04068169 -0.8362462 -0.5468431
vn 0.07418887 0 -0.9972442
vn 0.07418885 0 -0.9972442
vn 0.04068281 0.8362375 -0.5468562
vn 0.04068282 0.8362375 -0.5468563
vn 0.4261446 -0.82337 -0.3747836
vn 0.4261446 -0.82337 -0.3747836
vn 0.7518597 0.001976231 -0.6593202
vn 0.7518255 0.01048902 -0.6592789
vn 0.4287103 0.8220021 -0.3748599
vn 0.4287105 0.8220021 -0.3748599
vn -0.655291 0 0.7553766
vn 0.2353135 -0.959487 0.1549585
vn -0.5182452 -0.7761429 0.3591993
vn 0.9792892 0 0.2024666
vn 0.2353212 0.9594844 0.1549632
vn -0.5182435 0.7761388 0.3592107
vn 0 1 0
vn 0 1 0
vn 0 1 0
vn 0 1 0
vn 0 1 0
vn 0 1 0
vn 0 1 0
vn 0 1 0
vn 0 1 0
vn 0 1 0
vn 0 1 0
vn 0 -1 0
vn 0 -1 0
vn 0 -1 0
vn 0 -1 0
vn 0 -1 0
vn 0 -1 0
vn 0 -1 0
vn 0 -1 0
vn 0 -1 0
vn 0 -1 0
vn 0 -1 0
vn -0.6304389 0.1079694 -0.7686933
vn -0.4057564 -0.8612114 -0.3060666
vn 0.1887273 -0.954605 -0.2304586
vn 0.5164089 -0.0001516105 -0.8563422
vn 0.1887679 0.9545741 -0.2305535
vn -0.5338867 0.8165299 -0.2196448
g axe_basic_005_blade_0
f 3/3/3 2/2/2 1/1/1
f 1/1/1 5/5/5 4/4/4
f 6/6/6 1/1/1 4/4/4
f 4/4/4 7/7/7 6/6/6
f 7/7/7 8/8/8 6/6/6
f 9/9/9 8/8/8 7/7/7
f 10/10/10 9/9/9 7/7/7
f 9/9/9 12/12/12 11/11/11
f 12/12/12 13/13/13 11/11/11
f 11/11/11 13/13/13 14/14/14
f 15/15/15 11/11/11 14/14/14
f 15/15/15 14/14/14 16/16/16
f 19/19/19 18/18/18 17/17/17
f 21/21/21 17/17/17 20/20/20
f 17/17/17 22/22/22 20/20/20
f 23/23/23 20/20/20 22/22/22
f 24/24/24 23/23/23 22/22/22
f 24/24/24 25/25/25 23/23/23
f 25/25/25 26/26/26 23/23/23
f 28/28/28 25/25/25 27/27/27
f 29/29/29 28/28/28 27/27/27
f 29/29/29 27/27/27 30/30/30
f 27/27/27 31/31/31 30/30/30
f 30/30/30 31/31/31 32/32/32
f 35/35/35 34/34/34 33/33/33
f 34/34/34 35/35/35 36/36/36
f 39/39/39 38/38/38 37/37/37
f 38/38/38 40/40/40 37/37/37
f 40/40/40 41/41/41 37/37/37
f 41/41/41 42/42/42 37/37/37
f 45/45/45 44/44/44 43/43/43
f 44/44/44 46/46/46 43/43/43
f 46/46/46 47/47/47 43/43/43
f 47/47/47 48/48/48 43/43/43
f 51/51/51 50/50/50 49/49/49
f 50/50/50 52/52/52 49/49/49
f 53/53/53 52/52/52 50/50/50
f 54/54/54 53/53/53 50/50/50
f 52/52/52 53/53/53 55/55/55
f 53/53/53 56/56/56 55/55/55
f 59/59/59 58/58/58 57/57/57
f 58/58/58 60/60/60 57/57/57
f 60/60/60 58/58/58 61/61/61
f 58/58/58 62/62/62 61/61/61
f 65/65/65 64/64/64 63/63/63
f 64/64/64 66/66/66 63/63/63
f 66/66/66 64/64/64 67/67/67
f 64/64/64 68/68/68 67/67/67
f 71/71/71 70/70/70 69/69/69
f 72/72/72 71/71/71 69/69/69
f 75/75/75 74/74/74 73/73/73
f 76/76/76 75/75/75 73/73/73
f 76/76/76 73/73/73 77/77/77
f 73/73/73 78/78/78 77/77/77
f 81/81/81 80/80/80 79/79/79
f 79/79/79 82/82/82 81/81/81
f 79/79/79 83/83/83 82/82/82
f 82/82/82 83/83/83 84/84/84
f 83/83/83 85/85/85 84/84/84
f 85/85/85 86/86/86 84/84/84
f 84/84/84 86/86/86 87/87/87
f 87/87/87 88/88/88 84/84/84
f 88/88/88 89/89/89 84/84/84
f 92/92/92 91/91/91 90/90/90
f 90/90/90 93/93/93 92/92/92
f 93/93/93 94/94/94 92/92/92
f 95/95/95 94/94/94 93/93/93
f 95/95/95 93/93/93 96/96/96
f 97/97/97 95/95/95 96/96/96
f 98/98/98 97/97/97 96/96/96
f 96/96/96 99/99/99 98/98/98
f 96/96/96 100/100/100 99/99/99
f 103/103/103 102/102/102 101/101/101
f 102/102/102 104/104/104 101/101/101
f 101/101/101 104/104/104 105/105/105
f 106/106/106 101/101/101 105/105/105
f 109/109/109 108/108/108 107/107/107
f 108/108/108 109/109/109 110/110/110
f 113/113/113 112/112/112 111/111/111
f 114/114/114 113/113/113 111/111/111
f 115/115/115 114/114/114 111/111/111
f 116/116/116 115/115/115 111/111/111
f 119/119/119 118/118/118 117/117/117
f 120/120/120 119/119/119 117/117/117
f 121/121/121 120/120/120 117/117/117
f 122/122/122 121/121/121 117/117/117
f 125/125/125 124/124/124 123/123/123
f 126/126/126 125/125/125 123/123/123
f 127/127/127 126/126/126 123/123/123
f 128/128/128 127/127/127 123/123/123
f 126/126/126 129/129/129 125/125/125
f 129/129/129 126/126/126 127/127/127
f 129/129/129 130/130/130 125/125/125
f 131/131/131 129/129/129 127/127/127
f 134/134/134 133/133/133 132/132/132
f 135/135/135 134/134/134 132/132/132
f 134/134/134 135/135/135 136/136/136
f 137/137/137 134/134/134 136/136/136
f 140/140/140 139/139/139 138/138/138
f 141/141/141 140/140/140 138/138/138
f 140/140/140 141/141/141 142/142/142
f 143/143/143 140/140/140 142/142/142
f 146/146/146 145/145/145 144/144/144
f 145/145/145 147/147/147 144/144/144
f 144/144/144 147/147/147 148/148/148
f 149/149/149 144/144/144 148/148/148
f 152/152/152 151/151/151 150/150/150
f 150/150/150 153/153/153 152/152/152
f 153/153/153 154/154/154 152/152/152
f 154/154/154 153/153/153 155/155/155
f 156/156/156 154/154/154 155/155/155
f 157/157/157 156/156/156 155/155/155
f 158/158/158 157/157/157 155/155/155
f 155/155/155 159/159/159 158/158/158
f 155/155/155 160/160/160 159/159/159
f 163/163/163 162/162/162 161/161/161
f 161/161/161 164/164/164 163/163/163
f 161/161/161 165/165/165 164/164/164
f 165/165/165 166/166/166 164/164/164
f 164/164/164 166/166/166 167/167/167
f 166/166/166 168/168/168 167/167/167
f 167/167/167 168/168/168 169/169/169
f 169/169/169 170/170/170 167/167/167
f 170/170/170 171/171/171 167/167/167
f 174/174/174 173/173/173 172/172/172
f 175/175/175 174/174/174 172/172/172
f 175/175/175 172/172/172 176/176/176
f 172/172/172 177/177/177 176/176/176
