g axe_basic_004_blade
v -0.03952482 1.575092E-15 2.016717
v -0.1097697 0.03090014 1.655798
v -0.1097697 -0.03090014 1.655798
v 0.03952482 1.494437E-15 2.016717
v 0.1097697 -0.03090014 1.655798
v 0.1097697 0.03090014 1.655798
v 0.3684378 1.089958E-15 0.454258
v 0.3639964 0.0231072 0.5658831
v 0.3639964 -0.0231072 0.5658831
v -0.3684378 1.989491E-15 0.454258
v -0.3639964 -0.0231072 0.5658831
v -0.3639964 0.0231072 0.5658831
v -0.1097697 -0.03090014 1.655798
v -0.1097697 0.03090014 1.655798
v -0.09578112 0.03090014 1.555914
v -0.09578112 -0.03090014 1.555914
v -0.2368694 -0.03090015 1.470653
v -0.1097697 -0.03090014 1.655798
v -0.09578112 -0.03090014 1.555914
v -0.3361691 -0.03090015 1.295645
v -0.2336598 -0.03090015 1.238353
v -0.39779 -0.03090015 1.139862
v -0.2650889 -0.03090015 1.055783
v -0.4328973 -0.02769619 0.9950601
v -0.39779 -0.03090015 1.139862
v -0.3075499 -0.03090015 0.9110687
v -0.4366969 -0.02449224 0.8502581
v -0.2607644 -0.03090015 0.7226066
v -0.4165137 -0.02379972 0.7080707
v -0.3639964 -0.0231072 0.5658831
v -0.1097697 -0.03090014 1.655798
v -0.3042868 0.001112709 1.775675
v -0.03952482 1.575092E-15 2.016717
v -0.2368694 -0.03090015 1.470653
v -0.4735363 0.0005563544 1.499004
v -0.3361691 -0.03090015 1.295645
v -0.5672684 -0.0006695827 1.249045
v -0.5164807 -0.009750201 1.198102
v -0.39779 -0.03090015 1.139862
v -0.5747787 -0.0006982369 1.223685
v -0.6193559 -7.581681E-10 1.00661
v -0.4328973 -0.02769619 0.9950601
v -0.4366969 -0.02449224 0.8502581
v -0.5920464 2.262987E-15 0.7890412
v -0.5161184 2.170053E-15 0.6216494
v -0.4165137 -0.02379972 0.7080707
v -0.3355379 0.0314565 1.296638
v -0.5164807 0.02114995 1.198102
v -0.4735363 0.0005563544 1.499004
v -0.2357398 0.03201286 1.472639
v -0.3042868 0.001112709 1.775675
v -0.1097697 0.03090014 1.655798
v -0.03952482 1.575092E-15 2.016717
v -0.39779 0.03090015 1.139862
v -0.6193559 -7.581681E-10 1.00661
v -0.4328973 0.0276962 0.9950601
v -0.4366969 0.02449224 0.8502581
v -0.5920464 2.262987E-15 0.7890412
v -0.4165137 0.02379972 0.7080707
v -0.5161184 2.170053E-15 0.6216494
v 0.1097697 -0.03090014 1.655798
v 0.03952482 1.494437E-15 2.016717
v 0.3055181 3.944475E-15 1.773689
v 0.2369711 -0.03090015 1.470653
v 0.4366635 1.876638E-15 1.545931
v 0.3954648 -0.01356721 1.420484
v 0.3362925 -0.03090015 1.295645
v 0.4699106 1.486883E-15 1.480634
v 0.5702265 8.412947E-16 1.253798
v 0.39779 -0.03090015 1.139862
v 0.4331706 -0.02769619 0.9950601
v 0.6139042 7.859097E-16 1.02142
v 0.4366969 -0.02449224 0.8502581
v 0.5920464 8.105596E-16 0.7890412
v 0.4165137 -0.02379972 0.7080707
v 0.5161176 9.064447E-16 0.6216494
v 0.3954648 0.01733294 1.420484
v 0.2369711 0.03090015 1.470653
v 0.3055181 3.944475E-15 1.773689
v 0.1097697 0.03090014 1.655798
v 0.03952482 1.494437E-15 2.016717
v 0.3362925 0.03090015 1.295645
v 0.5702265 8.412947E-16 1.253798
v 0.39779 0.03090015 1.139862
v 0.6139042 7.859097E-16 1.02142
v 0.4331706 0.02769619 0.9950601
v 0.4366969 0.02449224 0.8502581
v 0.5920464 8.105596E-16 0.7890412
v 0.5161176 9.064447E-16 0.6216494
v 0.4165137 0.02379972 0.7080707
v 0.1097697 -0.03090014 1.655798
v 0.09578112 -0.03090014 1.555914
v 0.09578112 0.03090014 1.555914
v 0.1097697 0.03090014 1.655798
v 0.2369711 0.03090015 1.470653
v 0.1097697 0.03090014 1.655798
v 0.09578112 0.03090014 1.555914
v 0.3362925 0.03090015 1.295645
v 0.2337833 0.03090015 1.238353
v 0.39779 0.03090015 1.139862
v 0.2650889 0.03090015 1.055783
v 0.4331706 0.02769619 0.9950601
v 0.39779 0.03090015 1.139862
v 0.3075491 0.03090015 0.9110687
v 0.4366969 0.02449224 0.8502581
v 0.2607644 0.03090015 0.7226066
v 0.4165137 0.02379972 0.7080707
v 0.3639964 0.0231072 0.5658831
v 0.09578112 -0.03090014 1.555914
v 0.2337833 0.03090015 1.238353
v 0.09578112 0.03090014 1.555914
v 0.2337833 -0.03090015 1.238353
v 0.2650889 -0.03090015 1.055783
v 0.2650889 0.03090015 1.055783
v 0.09578112 -0.03090014 1.555914
v 0.1097697 -0.03090014 1.655798
v 0.2369711 -0.03090015 1.470653
v 0.3362925 -0.03090015 1.295645
v 0.2337833 -0.03090015 1.238353
v 0.39779 -0.03090015 1.139862
v 0.2650889 -0.03090015 1.055783
v 0.39779 -0.03090015 1.139862
v 0.4331706 -0.02769619 0.9950601
v 0.3075491 -0.03090015 0.9110687
v 0.4366969 -0.02449224 0.8502581
v 0.2607644 -0.03090015 0.7226066
v 0.4165137 -0.02379972 0.7080707
v 0.3639964 -0.0231072 0.5658831
v -0.2336598 0.03090014 1.238353
v -0.2650889 0.03090015 1.055783
v -0.2650889 -0.03090015 1.055783
v -0.2336598 -0.03090015 1.238353
v -0.09578112 -0.03090014 1.555914
v -0.09578112 0.03090014 1.555914
v -0.5164807 0.02114995 1.198102
v -0.5672684 -0.0006695827 1.249045
v -0.5164807 -0.009750201 1.198102
v -0.5747787 -0.0006982369 1.223685
v -0.2650889 0.03090015 1.055783
v -0.39779 0.03090015 1.139862
v -0.4328973 0.0276962 0.9950601
v -0.3075499 0.03090015 0.9110687
v -0.4366969 0.02449224 0.8502581
v -0.2607644 0.03090015 0.7226066
v -0.4165137 0.02379972 0.7080707
v -0.3639964 0.0231072 0.5658831
v -0.2336598 0.03090014 1.238353
v -0.39779 0.03090015 1.139862
v -0.3355379 0.0314565 1.296638
v -0.09578112 0.03090014 1.555914
v -0.2357398 0.03201286 1.472639
v -0.1097697 0.03090014 1.655798
v 0.3954648 -0.01356721 1.420484
v 0.4366635 1.876638E-15 1.545931
v 0.3954648 0.01733294 1.420484
v 0.4699106 1.486883E-15 1.480634
v 0.3639964 0.0231072 0.5658831
v 0.2607644 0.03090015 0.7226066
v 0.2607644 -0.03090015 0.7226066
v 0.3639964 -0.0231072 0.5658831
v 0.5161176 9.064447E-16 0.6216494
v 0.3684378 1.089958E-15 0.454258
v 0.3639964 -0.0231072 0.5658831
v 0.4165137 -0.02379972 0.7080707
v 0.4165137 0.02379972 0.7080707
v 0.3639964 0.0231072 0.5658831
v 0.3684378 1.089958E-15 0.454258
v 0.5161176 9.064447E-16 0.6216494
v -0.2607644 -0.03090015 0.7226066
v -0.2607644 0.03090015 0.7226066
v -0.3639964 0.0231072 0.5658831
v -0.3639964 -0.0231072 0.5658831
v -0.5161184 2.170053E-15 0.6216494
v -0.3684378 1.989491E-15 0.454258
v -0.3639964 0.0231072 0.5658831
v -0.4165137 0.02379972 0.7080707
v -0.4165137 -0.02379972 0.7080707
v -0.3639964 -0.0231072 0.5658831
v -0.3684378 1.989491E-15 0.454258
v -0.5161184 2.170053E-15 0.6216494
vt 0.5450488 0.3188021
vt 0.5412465 0.3187249
vt 0.5412465 0.3187249
vt 0.5448859 0.3177975
vt 0.5428278 0.3177123
vt 0.5428278 0.3177123
vt 0.5281373 0.32036
vt 0.5291528 0.3190364
vt 0.5291528 0.3190364
vt 0.5281373 0.32036
vt 0.5291528 0.3190364
vt 0.5291528 0.3190364
vt 0.5394102 0.3109178
vt 0.5394102 0.3109178
vt 0.5391371 0.3087032
vt 0.5391371 0.3087032
vt 0.5400845 0.3104248
vt 0.5305318 0.309738
vt 0.5310424 0.3063467
vt 0.5464125 0.3101633
vt 0.5465751 0.3065281
vt 0.5403402 0.3099018
vt 0.5406368 0.3066892
vt 0.5356368 0.3093313
vt 0.5403402 0.3099018
vt 0.5315381 0.3068544
vt 0.5309336 0.3087608
vt 0.5216933 0.3060527
vt 0.5261356 0.3084992
vt 0.5213379 0.3082379
vt 0.5379221 0.3230686
vt 0.5432962 0.31887
vt 0.5352808 0.3200261
vt 0.5453113 0.3222973
vt 0.5515687 0.3183213
vt 0.5521074 0.3217759
vt 0.558111 0.3180995
vt 0.5584306 0.3186544
vt 0.5579149 0.3215787
vt 0.5593779 0.3180911
vt 0.5652348 0.3182306
vt 0.5631126 0.3216164
vt 0.5679401 0.3220623
vt 0.570695 0.3186755
vt 0.5743963 0.3194371
vt 0.5726367 0.3225482
vt 0.5520681 0.3217795
vt 0.5584306 0.3186544
vt 0.5515687 0.3183213
vt 0.545234 0.3223033
vt 0.5432962 0.31887
vt 0.5379221 0.3230686
vt 0.5352808 0.3200261
vt 0.5579149 0.3215787
vt 0.5652348 0.3182306
vt 0.5631126 0.3216164
vt 0.5679401 0.3220623
vt 0.570695 0.3186755
vt 0.5726367 0.3225482
vt 0.5743963 0.3194371
vt 0.5380027 0.3229795
vt 0.5353423 0.3199745
vt 0.5434173 0.3188143
vt 0.5453929 0.3222072
vt 0.5501708 0.3184099
vt 0.5516895 0.3195288
vt 0.5521892 0.3216857
vt 0.5520772 0.3183191
vt 0.5585944 0.3180914
vt 0.5579957 0.3214897
vt 0.5631958 0.3215247
vt 0.5648785 0.3181874
vt 0.5680209 0.3219733
vt 0.5707569 0.3186239
vt 0.5727175 0.3224591
vt 0.5744578 0.3193855
vt 0.5516895 0.3195288
vt 0.5453929 0.3222072
vt 0.5434173 0.3188143
vt 0.5380027 0.3229795
vt 0.5353423 0.3199745
vt 0.5521892 0.3216857
vt 0.5585944 0.3180914
vt 0.5579957 0.3214897
vt 0.5648785 0.3181874
vt 0.5631958 0.3215247
vt 0.5680209 0.3219733
vt 0.5707569 0.3186239
vt 0.5744578 0.3193855
vt 0.5727175 0.3224591
vt 0.5390409 0.3101681
vt 0.5388703 0.3087853
vt 0.5388703 0.3087853
vt 0.5390409 0.3101681
vt 0.5400845 0.3104248
vt 0.5305318 0.309738
vt 0.5310424 0.3063467
vt 0.5464125 0.3101633
vt 0.5465751 0.3065281
vt 0.5403402 0.3099018
vt 0.5406368 0.3066892
vt 0.5356368 0.3093313
vt 0.5403402 0.3099018
vt 0.5315381 0.3068544
vt 0.5309336 0.3087608
vt 0.5216933 0.3060527
vt 0.5261356 0.3084992
vt 0.5213379 0.3082379
vt 0.5335663 0.3087853
vt 0.5261084 0.3088592
vt 0.5335663 0.3087853
vt 0.5261084 0.3088592
vt 0.5231504 0.3089249
vt 0.5231504 0.3089249
vt 0.5310424 0.3063467
vt 0.5305318 0.309738
vt 0.5400845 0.3104248
vt 0.5464125 0.3101633
vt 0.5465751 0.3065281
vt 0.5403402 0.3099018
vt 0.5406368 0.3066892
vt 0.5403402 0.3099018
vt 0.5356368 0.3093313
vt 0.5315381 0.3068544
vt 0.5309336 0.3087608
vt 0.5216933 0.3060527
vt 0.5261356 0.3084992
vt 0.5213379 0.3082379
vt 0.5261084 0.3088592
vt 0.5231504 0.3089249
vt 0.5231504 0.3089249
vt 0.5261084 0.3088592
vt 0.5335663 0.3087853
vt 0.5335663 0.3087853
vt 0.5665699 0.3186544
vt 0.5657365 0.3180995
vt 0.5665699 0.3186544
vt 0.5690403 0.3180911
vt 0.5406368 0.3066892
vt 0.5403402 0.3099018
vt 0.5356368 0.3093313
vt 0.5315381 0.3068544
vt 0.5309336 0.3087608
vt 0.5216933 0.3060527
vt 0.5261356 0.3084992
vt 0.5213379 0.3082379
vt 0.5465751 0.3065281
vt 0.5403402 0.3099018
vt 0.5464125 0.3101633
vt 0.5310424 0.3063467
vt 0.5400845 0.3104248
vt 0.5305318 0.309738
vt 0.5646819 0.3216251
vt 0.5631939 0.3214293
vt 0.5646819 0.3216251
vt 0.5687747 0.3226748
vt 0.5189129 0.3095564
vt 0.5190312 0.3086654
vt 0.5190312 0.3086654
vt 0.5189129 0.3095564
vt 0.5744578 0.3193855
vt 0.5778004 0.3204476
vt 0.5770345 0.3233634
vt 0.5727175 0.3224591
vt 0.5727175 0.3224591
vt 0.5770345 0.3233634
vt 0.5778004 0.3204476
vt 0.5744578 0.3193855
vt 0.5190312 0.3086654
vt 0.5190312 0.3086654
vt 0.5189129 0.3095564
vt 0.5189129 0.3095564
vt 0.5743963 0.3194371
vt 0.5777388 0.3204993
vt 0.5769539 0.3234524
vt 0.5726367 0.3225482
vt 0.5726367 0.3225482
vt 0.5769539 0.3234524
vt 0.5777388 0.3204993
vt 0.5743963 0.3194371
vn 0.9815817 0 -0.1910431
vn 0.9974789 0 -0.07096358
vn 0.9974789 0 -0.07096358
vn -0.9815817 0 -0.1910431
vn -0.9974789 0 -0.07096358
vn -0.9974789 0 -0.07096358
vn -0.9992094 0 -0.03975744
vn -0.9992094 0 -0.03975743
vn -0.9992094 0 -0.03975743
vn 0.9992094 0 -0.03975744
vn 0.9992094 0 -0.03975743
vn 0.9992094 0 -0.03975743
vn 0.9974789 0 -0.07096358
vn 0.9974789 0 -0.07096358
vn 0.9903351 0 0.1386947
vn 0.9903351 0 0.1386947
vn -0.07517609 -0.9958705 0.05089595
vn -0.09149034 -0.9924349 0.08186983
vn 0 -1 0
vn -0.08681393 -0.9954033 0.04044096
vn 0 -1 0
vn -0.1115909 -0.9932745 0.03087749
vn 0 -1 0
vn -0.01214936 -0.9997423 -0.01917513
vn -0.01214936 -0.9997423 -0.01917513
vn -0.03600792 -0.9993167 -0.008340224
vn -0.03969367 -0.9991664 -0.009543894
vn -0.04443183 -0.9989508 -0.01109133
vn -0.04443184 -0.9989508 -0.01109133
vn -0.04357925 -0.99883 -0.02096086
vn -0.09149034 -0.9924349 0.08186983
vn -0.1093618 -0.9899999 0.0891076
vn -0.1050184 -0.99002 0.09397537
vn -0.07517609 -0.9958705 0.05089595
vn -0.1279449 -0.9893846 0.06890674
vn -0.08681393 -0.9954033 0.04044096
vn -0.9131102 -0.01845966 0.4072949
vn -0.1482842 -0.9880663 0.04167308
vn -0.1115909 -0.9932745 0.03087749
vn -0.9947378 0.01819714 0.1008241
vn -0.1483006 -0.9887717 -0.01836381
vn -0.1483006 -0.9887717 -0.01836381
vn -0.1513333 -0.9880468 -0.02935543
vn -0.15246 -0.9877433 -0.03345604
vn -0.1572583 -0.9862384 -0.05102826
vn -0.1572583 -0.9862384 -0.05102827
vn -0.08211185 0.9955701 0.04580314
vn -0.1514394 0.9876462 0.04026569
vn -0.1261505 0.9894303 0.07151069
vn -0.07093126 0.9963331 0.04784409
vn -0.1018343 0.9909812 0.08709864
vn -0.0815547 0.9934465 0.08007981
vn -0.09477948 0.9911913 0.09250151
vn -0.1146144 0.9930145 0.02803091
vn -0.1483006 0.9887717 -0.01836381
vn -0.1483006 0.9887717 -0.01836381
vn -0.1513333 0.9880468 -0.02935543
vn -0.15246 0.9877433 -0.03345605
vn -0.1572584 0.9862382 -0.05102827
vn -0.1572584 0.9862382 -0.05102827
vn 0.08771821 -0.9928831 0.08055235
vn 0.1006881 -0.9906122 0.0924627
vn 0.1065765 -0.9904134 0.0878795
vn 0.0736108 -0.9961314 0.04799643
vn 0.865131 -0.004344387 0.5015274
vn 0.1383313 -0.9879507 0.06941158
vn 0.0856544 -0.9954922 0.04072442
vn 0.9159924 0.00403443 0.4011754
vn 0.1447255 -0.9883062 0.04801274
vn 0.1125808 -0.9931387 0.03163957
vn 0.154359 -0.9877242 0.02396397
vn 0.154359 -0.9877242 0.02396397
vn 0.1536547 -0.9877421 -0.02749299
vn 0.1543667 -0.987492 -0.03209966
vn 0.1572585 -0.9862382 -0.0510287
vn 0.1572585 -0.9862382 -0.0510287
vn 0.1365358 0.9882327 0.06895006
vn 0.06966085 0.9963371 0.04959648
vn 0.1045707 0.9905538 0.0887024
vn 0.0877182 0.9928831 0.08055235
vn 0.1006881 0.9906122 0.0924627
vn 0.08712534 0.9954314 0.03905624
vn 0.1496512 0.9877429 0.04436788
vn 0.1153295 0.9928854 0.02962536
vn 0.154359 0.9877242 0.02396397
vn 0.1543589 0.9877242 0.02396397
vn 0.1536547 0.9877421 -0.027493
vn 0.1543668 0.987492 -0.03209968
vn 0.1572585 0.9862382 -0.05102871
vn 0.1572585 0.9862382 -0.05102871
vn -0.9974789 0 -0.07096358
vn -0.9903351 0 0.1386947
vn -0.9903351 0 0.1386947
vn -0.9974789 0 -0.07096358
vn 0.06966085 0.9963371 0.04959648
vn 0.0877182 0.9928831 0.08055235
vn 0 1 0
vn 0.08712534 0.9954314 0.03905624
vn 0 1 0
vn 0.1153295 0.9928854 0.02962536
vn 0 1 0
vn 0.01213679 0.9997428 -0.01915531
vn 0.01213679 0.9997428 -0.01915531
vn 0.03597891 0.9993175 -0.008358556
vn 0.03967014 0.9991672 -0.009551826
vn 0.04443173 0.9989508 -0.01109119
vn 0.04443173 0.9989508 -0.01109119
vn 0.04357925 0.99883 -0.02096086
vn -0.9171416 0 -0.3985614
vn -0.9471973 0 -0.3206514
vn -0.9171416 0 -0.3985614
vn -0.9471973 0 -0.3206514
vn -0.9856153 0 -0.1690047
vn -0.9856153 0 -0.1690047
vn 0 -1 0
vn 0.08771821 -0.9928831 0.08055235
vn 0.0736108 -0.9961314 0.04799643
vn 0.0856544 -0.9954922 0.04072442
vn 0 -1 0
vn 0.1125808 -0.9931387 0.03163957
vn 0 -1 0
vn 0.01213679 -0.9997428 -0.01915531
vn 0.01213679 -0.9997428 -0.01915531
vn 0.03597892 -0.9993175 -0.008358553
vn 0.03967015 -0.9991672 -0.009551822
vn 0.04443175 -0.9989508 -0.01109119
vn 0.04443174 -0.9989508 -0.01109118
vn 0.04357924 -0.99883 -0.02096086
vn 0.9471973 0 -0.3206514
vn 0.985504 0 -0.169652
vn 0.985504 0 -0.169652
vn 0.9471973 0 -0.3206514
vn 0.9172719 0 -0.3982615
vn 0.9172719 0 -0.3982615
vn -0.1514394 0.9876462 0.04026569
vn -0.9131102 -0.01845966 0.4072949
vn -0.1482842 -0.9880663 0.04167308
vn -0.9947378 0.01819714 0.1008241
vn 0.00117917 0.9999974 -0.001964997
vn -0.01214934 0.9997423 -0.01917513
vn -0.01214934 0.9997423 -0.01917513
vn -0.03600791 0.9993167 -0.008340225
vn -0.03969366 0.9991664 -0.009543889
vn -0.04443184 0.9989508 -0.01109132
vn -0.04443183 0.9989508 -0.01109132
vn -0.04357924 0.99883 -0.02096086
vn 0.004528578 0.9999859 -0.002783889
vn -0.1146144 0.9930145 0.02803091
vn -0.08211185 0.9955701 0.04580314
vn 0.007375528 0.9999667 -0.003479919
vn -0.07093126 0.9963331 0.04784409
vn -0.0815547 0.9934465 0.08007981
vn 0.1383313 -0.9879507 0.06941158
vn 0.865131 -0.004344387 0.5015274
vn 0.1365358 0.9882327 0.06895006
vn 0.9159924 0.00403443 0.4011754
vn -0.8351128 0 -0.5500787
vn -0.8351128 0 -0.5500788
vn -0.8351128 0 -0.5500788
vn -0.8351128 0 -0.5500787
vn 0.1946644 -0.9724744 -0.1280601
vn 0.1946644 -0.9724743 -0.1280601
vn 0.1946644 -0.9724744 -0.1280601
vn 0.1946644 -0.9724744 -0.1280601
vn 0.1946644 0.9724743 -0.1280601
vn 0.1946644 0.9724743 -0.1280601
vn 0.1946644 0.9724743 -0.1280601
vn 0.1946644 0.9724743 -0.1280602
vn 0.8351128 0 -0.5500789
vn 0.8351128 0 -0.5500789
vn 0.8351128 0 -0.5500788
vn 0.8351128 0 -0.5500788
vn -0.1946634 0.9724745 -0.12806
vn -0.1946634 0.9724745 -0.12806
vn -0.1946635 0.9724745 -0.12806
vn -0.1946635 0.9724745 -0.12806
vn -0.1946634 -0.9724746 -0.12806
vn -0.1946634 -0.9724746 -0.12806
vn -0.1946634 -0.9724746 -0.12806
vn -0.1946634 -0.9724746 -0.12806
g axe_basic_004_blade_0
f 3/3/3 2/2/2 1/1/1
f 6/6/6 5/5/5 4/4/4
f 9/9/9 8/8/8 7/7/7
f 12/12/12 11/11/11 10/10/10
f 15/15/15 14/14/14 13/13/13
f 16/16/16 15/15/15 13/13/13
f 19/19/19 18/18/18 17/17/17
f 19/19/19 17/17/17 20/20/20
f 20/20/20 21/21/21 19/19/19
f 21/21/21 20/20/20 22/22/22
f 23/23/23 21/21/21 22/22/22
f 23/23/23 25/25/25 24/24/24
f 23/23/23 24/24/24 26/26/26
f 24/24/24 27/27/27 26/26/26
f 26/26/26 27/27/27 28/28/28
f 27/27/27 29/29/29 28/28/28
f 29/29/29 30/30/30 28/28/28
f 33/33/33 32/32/32 31/31/31
f 32/32/32 34/34/34 31/31/31
f 34/34/34 32/32/32 35/35/35
f 36/36/36 34/34/34 35/35/35
f 36/36/36 35/35/35 37/37/37
f 36/36/36 37/37/37 38/38/38
f 38/38/38 39/39/39 36/36/36
f 39/39/39 38/38/38 40/40/40
f 39/39/39 40/40/40 41/41/41
f 41/41/41 42/42/42 39/39/39
f 42/42/42 41/41/41 43/43/43
f 41/41/41 44/44/44 43/43/43
f 43/43/43 44/44/44 45/45/45
f 46/46/46 43/43/43 45/45/45
f 48/48/48 37/37/37 47/47/47
f 37/37/37 49/49/49 47/47/47
f 47/47/47 49/49/49 50/50/50
f 49/49/49 51/51/51 50/50/50
f 50/50/50 51/51/51 52/52/52
f 51/51/51 53/53/53 52/52/52
f 47/47/47 54/54/54 48/48/48
f 40/40/40 48/48/48 54/54/54
f 55/55/55 40/40/40 54/54/54
f 54/54/54 56/56/56 55/55/55
f 56/56/56 57/57/57 55/55/55
f 57/57/57 58/58/58 55/55/55
f 58/58/58 57/57/57 59/59/59
f 60/60/60 58/58/58 59/59/59
f 63/63/63 62/62/62 61/61/61
f 64/64/64 63/63/63 61/61/61
f 65/65/65 63/63/63 64/64/64
f 66/66/66 65/65/65 64/64/64
f 64/64/64 67/67/67 66/66/66
f 68/68/68 66/66/66 67/67/67
f 69/69/69 68/68/68 67/67/67
f 67/67/67 70/70/70 69/69/69
f 69/69/69 70/70/70 71/71/71
f 72/72/72 69/69/69 71/71/71
f 71/71/71 73/73/73 72/72/72
f 73/73/73 74/74/74 72/72/72
f 74/74/74 73/73/73 75/75/75
f 76/76/76 74/74/74 75/75/75
f 78/78/78 65/65/65 77/77/77
f 78/78/78 79/79/79 65/65/65
f 79/79/79 78/78/78 80/80/80
f 81/81/81 79/79/79 80/80/80
f 77/77/77 82/82/82 78/78/78
f 82/82/82 77/77/77 68/68/68
f 82/82/82 68/68/68 83/83/83
f 83/83/83 84/84/84 82/82/82
f 84/84/84 83/83/83 85/85/85
f 86/86/86 84/84/84 85/85/85
f 86/86/86 85/85/85 87/87/87
f 85/85/85 88/88/88 87/87/87
f 87/87/87 88/88/88 89/89/89
f 90/90/90 87/87/87 89/89/89
f 93/93/93 92/92/92 91/91/91
f 94/94/94 93/93/93 91/91/91
f 97/97/97 96/96/96 95/95/95
f 97/97/97 95/95/95 98/98/98
f 98/98/98 99/99/99 97/97/97
f 99/99/99 98/98/98 100/100/100
f 101/101/101 99/99/99 100/100/100
f 101/101/101 103/103/103 102/102/102
f 101/101/101 102/102/102 104/104/104
f 102/102/102 105/105/105 104/104/104
f 104/104/104 105/105/105 106/106/106
f 105/105/105 107/107/107 106/106/106
f 107/107/107 108/108/108 106/106/106
f 111/111/111 110/110/110 109/109/109
f 110/110/110 112/112/112 109/109/109
f 112/112/112 110/110/110 113/113/113
f 110/110/110 114/114/114 113/113/113
f 117/117/117 116/116/116 115/115/115
f 118/118/118 117/117/117 115/115/115
f 115/115/115 119/119/119 118/118/118
f 120/120/120 118/118/118 119/119/119
f 121/121/121 120/120/120 119/119/119
f 123/123/123 122/122/122 121/121/121
f 121/121/121 124/124/124 123/123/123
f 124/124/124 125/125/125 123/123/123
f 124/124/124 126/126/126 125/125/125
f 126/126/126 127/127/127 125/125/125
f 126/126/126 128/128/128 127/127/127
f 131/131/131 130/130/130 129/129/129
f 132/132/132 131/131/131 129/129/129
f 132/132/132 129/129/129 133/133/133
f 129/129/129 134/134/134 133/133/133
f 137/137/137 136/136/136 135/135/135
f 138/138/138 137/137/137 135/135/135
f 141/141/141 140/140/140 139/139/139
f 139/139/139 142/142/142 141/141/141
f 142/142/142 143/143/143 141/141/141
f 142/142/142 144/144/144 143/143/143
f 144/144/144 145/145/145 143/143/143
f 144/144/144 146/146/146 145/145/145
f 139/139/139 148/148/148 147/147/147
f 148/148/148 149/149/149 147/147/147
f 150/150/150 147/147/147 149/149/149
f 149/149/149 151/151/151 150/150/150
f 151/151/151 152/152/152 150/150/150
f 155/155/155 154/154/154 153/153/153
f 155/155/155 153/153/153 156/156/156
f 159/159/159 158/158/158 157/157/157
f 160/160/160 159/159/159 157/157/157
f 163/163/163 162/162/162 161/161/161
f 164/164/164 163/163/163 161/161/161
f 167/167/167 166/166/166 165/165/165
f 168/168/168 167/167/167 165/165/165
f 171/171/171 170/170/170 169/169/169
f 172/172/172 171/171/171 169/169/169
f 175/175/175 174/174/174 173/173/173
f 176/176/176 175/175/175 173/173/173
f 179/179/179 178/178/178 177/177/177
f 180/180/180 179/179/179 177/177/177
