g axe_basic_007_blade
v -0.1109915 0.006225451 1.225936
v -0.06263875 -0.03525012 1.230466
v -0.1421345 0.01229751 1.18036
v -0.05961381 0.05984888 1.224899
v -0.1109915 0.006225451 1.225936
v -0.1421345 0.01229751 1.18036
v 0.291385 0.07615702 1.477462
v 0.3018212 0.08845079 1.510988
v 0.1843275 0.09521499 1.517214
v 0.2974234 0.1012085 1.48565
v 0.291385 0.07615702 1.477462
v 0.1843275 0.09521499 1.517214
v 0.125051 0.06538595 0.589401
v -0.1027348 0.05984888 0.806782
v -0.1993384 0.06538595 0.6195228
v -0.03468116 0.05984888 0.9536179
v -0.03468116 0.05984888 1.18387
v 0.1617331 0.05984514 1.491134
v -0.05961381 0.05984888 1.224899
v -0.1887368 0.05984514 1.467379
v 0.125051 -0.04078718 0.589401
v 0.125051 0.06538595 0.589401
v -0.1993384 0.06538595 0.6195228
v -0.1993384 -0.04078718 0.6195228
v -0.3731773 0.01229751 0.7974018
v 0.1617331 -0.03525012 1.491134
v 0.1617331 0.05984514 1.491134
v 0.125051 0.06538595 0.589401
v 0.125051 -0.04078718 0.589401
v -0.1028599 -0.03525012 0.8065127
v -0.2197745 0.01229751 0.8638736
v -0.1421345 0.01229751 0.9834638
v -0.03468116 -0.03525012 0.9536179
v -0.03468116 -0.03525012 1.18387
v -0.1421345 0.01229751 1.18036
v -0.06263875 -0.03525012 1.230466
v -0.1993384 -0.04078718 0.6195228
v -0.2197745 0.01229751 0.8638736
v -0.3731773 0.01229751 0.7974018
v -0.1647579 0.01229751 1.226573
v -0.1887368 -0.03525012 1.467379
v -0.3334217 0.01229751 1.402063
v -0.1421345 0.01229751 0.9834638
v -0.2197745 0.01229751 0.8638736
v -0.1027348 0.05984888 0.806782
v -0.03468116 0.05984888 0.9536179
v -0.03468116 0.05984888 1.18387
v -0.1421345 0.01229751 1.18036
v -0.05961381 0.05984888 1.224899
v -0.2197745 0.01229751 0.8638736
v -0.1993384 0.06538595 0.6195228
v -0.3731773 0.01229751 0.7974018
v -0.1887368 0.05984514 1.467379
v -0.1647579 0.01229751 1.226573
v -0.3334217 0.01229751 1.402063
v 0.1617331 -0.03525012 1.491134
v -0.06263875 -0.03525012 1.230466
v -0.1887368 -0.03525012 1.467379
v -0.03468116 -0.03525012 1.18387
v -0.03468116 -0.03525012 0.9536179
v 0.125051 -0.04078718 0.589401
v -0.1028599 -0.03525012 0.8065127
v -0.1993384 -0.04078718 0.6195228
v -0.05961381 0.05984888 1.224899
v -0.1647579 0.01229751 1.226573
v -0.06263875 -0.03525012 1.230466
v -0.1109915 0.006225451 1.225936
v 0.2888914 -0.2444575 0.7869365
v 0.2943621 -0.2090689 0.6180454
v -0.1578838 -0.1916047 0.6352838
v -0.1152758 -0.2250441 0.7814696
v -0.4601512 -0.1564107 0.8487374
v -0.399251 -0.1811629 0.9123753
v -0.5578308 -0.09719411 1.10082
v 0.2943621 -0.2090689 0.6180454
v 0.2979359 -0.06316738 0.6062404
v -0.2005239 -0.0616185 0.6271559
v -0.1578838 -0.1916047 0.6352838
v -0.457812 -0.06900374 0.8443292
v -0.4601512 -0.1564107 0.8487374
v -0.5578308 -0.09719411 1.10082
v 0.2979359 -0.06316738 0.6062404
v 0.2946735 -0.008384156 0.7678365
v -0.1548099 -0.0147181 0.7683182
v -0.2005239 -0.0616185 0.6271559
v -0.3954667 -0.03973963 0.9052426
v -0.457812 -0.06900374 0.8443292
v -0.5578308 -0.09719411 1.10082
v 0.2946735 -0.008384156 0.7678365
v 0.2796225 -0.1204273 0.879513
v -0.1285596 -0.1157208 0.8675344
v -0.1548099 -0.0147181 0.7683182
v -0.3592747 -0.1090576 0.947298
v -0.3954667 -0.03973963 0.9052426
v -0.5578308 -0.09719411 1.10082
v 0.2796225 -0.1204273 0.879513
v 0.2888914 -0.2444575 0.7869365
v -0.1152758 -0.2250441 0.7814696
v -0.1285596 -0.1157208 0.8675344
v -0.399251 -0.1811629 0.9123753
v -0.3592747 -0.1090576 0.947298
v -0.5578308 -0.09719411 1.10082
v 0.1639199 0.0005611885 0.7697417
v 0.2218603 0.0551349 0.6385274
v -0.2545649 0.06892143 0.600404
v -0.2472784 0.01448241 0.7329025
v -0.5697195 0.09774407 0.7337985
v -0.5287396 0.06586108 0.8126782
v -0.7936795 0.1341166 0.9272496
v 0.2218603 0.0551349 0.6385274
v 0.2282578 0.2059075 0.6477253
v -0.2516687 0.2148716 0.6102622
v -0.2545649 0.06892143 0.600404
v -0.5673934 0.1830522 0.7396947
v -0.5697195 0.09774407 0.7337985
v -0.7936795 0.1341166 0.9272496
v 0.2282578 0.2059075 0.6477253
v 0.1997663 0.2445173 0.7923062
v -0.2425929 0.2506343 0.7488533
v -0.2516687 0.2148716 0.6102622
v -0.524974 0.2038985 0.8222194
v -0.5673934 0.1830522 0.7396947
v -0.7936795 0.1341166 0.9272496
v 0.1997663 0.2445173 0.7923062
v 0.1694668 0.1176064 0.9046954
v -0.2398791 0.1267875 0.8246512
v -0.2425929 0.2506343 0.7488533
v -0.5010852 0.1314678 0.8673258
v -0.524974 0.2038985 0.8222194
v -0.7936795 0.1341166 0.9272496
v 0.1694668 0.1176064 0.9046954
v 0.1639199 0.0005611885 0.7697417
v -0.2472784 0.01448241 0.7329025
v -0.2398791 0.1267875 0.8246512
v -0.5287396 0.06586108 0.8126782
v -0.5010852 0.1314678 0.8673258
v -0.7936795 0.1341166 0.9272496
v 0.2557168 -0.1390363 1.355402
v -0.2400643 -0.05662766 1.549923
v 0.2948802 -0.07706241 1.522971
v -0.2177262 -0.113607 1.413135
v -0.5397764 -0.02954845 1.434
v -0.4771571 -0.06557301 1.357863
v -0.6973684 0.01160912 1.222589
v 0.1843275 0.09521499 1.517214
v 0.3018212 0.08845079 1.510988
v 0.2948802 -0.07706241 1.522971
v -0.2400643 -0.05662766 1.549923
v -0.2363651 0.09613533 1.540791
v -0.5358695 0.06684129 1.428118
v -0.5397764 -0.02954845 1.434
v -0.6973684 0.01160912 1.222589
v -0.2117402 0.1335666 1.398362
v 0.266948 0.138015 1.338494
v 0.2974234 0.1012085 1.48565
v -0.2363651 0.09613533 1.540791
v 0.1843275 0.09521499 1.517214
v -0.4708343 0.09038876 1.348345
v -0.5358695 0.06684129 1.428118
v -0.6973684 0.01160912 1.222589
v 0.266948 0.138015 1.338494
v -0.2002208 0.003939543 1.32549
v 0.2409014 -0.006109472 1.247415
v -0.2117402 0.1335666 1.398362
v -0.4345488 0.008556254 1.304924
v -0.4708343 0.09038876 1.348345
v -0.6973684 0.01160912 1.222589
v 0.2409014 -0.006109472 1.247415
v -0.2177262 -0.113607 1.413135
v 0.2557168 -0.1390363 1.355402
v -0.2002208 0.003939543 1.32549
v -0.4771571 -0.06557301 1.357863
v -0.4345488 0.008556254 1.304924
v -0.6973684 0.01160912 1.222589
v 0.3018212 0.08845079 1.510988
v 0.291385 0.07615702 1.477462
v 0.2948802 -0.07706241 1.522971
v 0.2557168 -0.1390363 1.355402
v 0.2409014 -0.006109472 1.247415
v 0.266948 0.138015 1.338494
v 0.2974234 0.1012085 1.48565
v 0.2943621 -0.2090689 0.6180454
v 0.2888914 -0.2444575 0.7869365
v 0.3003471 -0.1290995 0.7317137
v 0.2979359 -0.06316738 0.6062404
v 0.2796225 -0.1204273 0.879513
v 0.2946735 -0.008384156 0.7678365
v 0.2218603 0.0551349 0.6385274
v 0.1639199 0.0005611885 0.7697417
v 0.2030123 0.1247447 0.7565023
v 0.2282578 0.2059075 0.6477253
v 0.1694668 0.1176064 0.9046954
v 0.1997663 0.2445173 0.7923062
vt 0.5303228 0.4327686
vt 0.5299281 0.4327865
vt 0.5439309 0.4328029
vt 0.5338525 0.4327455
vt 0.5303228 0.4327686
vt 0.538403 0.4328029
vt 0.9688326 0.5133348
vt 0.9624172 0.5059941
vt 0.9703262 0.5175027
vt 0.9639486 0.5101637
vt 0.9688326 0.5133348
vt 0.9703262 0.5175027
vt 0.5458589 0.4264396
vt 0.5453237 0.4305634
vt 0.5507889 0.4308894
vt 0.5414736 0.4303337
vt 0.5372664 0.4315138
vt 0.5285244 0.4304566
vt 0.5365665 0.4325279
vt 0.5347286 0.4351906
vt 0.5882212 0.4366489
vt 0.5882212 0.4272644
vt 0.5681835 0.4272644
vt 0.5681835 0.4366489
vt 0.5570703 0.4319566
vt 0.5523926 0.4340285
vt 0.5523927 0.4261276
vt 0.5227839 0.4261276
vt 0.5227839 0.4340285
vt 0.5629929 0.4390765
vt 0.5629928 0.42758
vt 0.5526223 0.42758
vt 0.5526223 0.4390765
vt 0.5419865 0.4390765
vt 0.5419866 0.42758
vt 0.5408027 0.4390765
vt 0.5726901 0.4390765
vt 0.5629928 0.42758
vt 0.5726902 0.42758
vt 0.5386069 0.42758
vt 0.5240659 0.4390764
vt 0.5240659 0.42758
vt 0.5526223 0.42758
vt 0.5629928 0.42758
vt 0.5629929 0.4390426
vt 0.5526223 0.4390426
vt 0.5419865 0.4390426
vt 0.5419866 0.42758
vt 0.5408027 0.4390426
vt 0.5629928 0.42758
vt 0.5726901 0.4390426
vt 0.5726902 0.42758
vt 0.5240659 0.4390426
vt 0.5386069 0.42758
vt 0.5240659 0.42758
vt 0.5285244 0.4304566
vt 0.5365167 0.4326001
vt 0.5347286 0.4351906
vt 0.5372664 0.4315138
vt 0.5414736 0.4303337
vt 0.5458589 0.4264396
vt 0.5453306 0.4305638
vt 0.5507889 0.4308894
vt 0.5338525 0.4327455
vt 0.5316062 0.433663
vt 0.5309517 0.4327865
vt 0.5303228 0.4327686
vt 0.6356348 0.749045
vt 0.6237184 0.7520776
vt 0.6161681 0.7517856
vt 0.6271154 0.7486956
vt 0.610487 0.7473826
vt 0.6205571 0.7460083
vt 0.6065887 0.7423141
vt 0.6237184 0.7520776
vt 0.6146196 0.7522869
vt 0.609073 0.7519851
vt 0.6161681 0.7517856
vt 0.605841 0.7474732
vt 0.610487 0.7473826
vt 0.6065887 0.7423141
vt 0.6146196 0.7522869
vt 0.6191109 0.7493836
vt 0.612804 0.7489982
vt 0.609073 0.7519851
vt 0.6090923 0.746155
vt 0.605841 0.7474732
vt 0.6065887 0.7423141
vt 0.6191109 0.7493836
vt 0.6304983 0.74738
vt 0.6215354 0.7469028
vt 0.612804 0.7489982
vt 0.6162034 0.7452496
vt 0.6090923 0.746155
vt 0.6065887 0.7423141
vt 0.6304983 0.74738
vt 0.6356348 0.749045
vt 0.6271154 0.7486956
vt 0.6215354 0.7469028
vt 0.6205571 0.7460083
vt 0.6162034 0.7452496
vt 0.6065887 0.7423141
vt 0.5341816 0.4728569
vt 0.5304862 0.4728739
vt 0.5252303 0.4728794
vt 0.5327585 0.4728631
vt 0.5214382 0.4728643
vt 0.5283211 0.4728544
vt 0.5225796 0.4728414
vt 0.5304862 0.4728739
vt 0.5392963 0.4728727
vt 0.5312955 0.4728782
vt 0.5252303 0.4728794
vt 0.5255615 0.4728635
vt 0.5214382 0.4728643
vt 0.5225796 0.4728414
vt 0.5392963 0.4728727
vt 0.5501904 0.472855
vt 0.5411122 0.4728611
vt 0.5312955 0.4728782
vt 0.5347965 0.4728532
vt 0.5255615 0.4728635
vt 0.5225796 0.4728414
vt 0.5501904 0.472855
vt 0.5502704 0.4728413
vt 0.5419568 0.4728518
vt 0.5411122 0.4728611
vt 0.5361383 0.4728476
vt 0.5347965 0.4728532
vt 0.5225796 0.4728414
vt 0.5502704 0.4728413
vt 0.5341816 0.4728569
vt 0.5327585 0.4728631
vt 0.5419568 0.4728518
vt 0.5283211 0.4728544
vt 0.5361383 0.4728476
vt 0.5225796 0.4728414
vt 0.6225722 0.7513739
vt 0.6244982 0.7513365
vt 0.6358202 0.7513388
vt 0.6145106 0.7513644
vt 0.6179677 0.7513621
vt 0.6099214 0.7513785
vt 0.6060159 0.7514086
vt 0.6340431 0.7513406
vt 0.6359836 0.751341
vt 0.6358202 0.7513388
vt 0.6244982 0.7513365
vt 0.6245886 0.7513385
vt 0.6180597 0.7513635
vt 0.6179677 0.7513621
vt 0.6060159 0.7514086
vt 0.6146287 0.7513676
vt 0.6227854 0.7513776
vt 0.6343192 0.7513456
vt 0.6245886 0.7513385
vt 0.6340431 0.7513406
vt 0.6100415 0.7513806
vt 0.6180597 0.7513635
vt 0.6060159 0.7514086
vt 0.6227854 0.7513776
vt 0.6068475 0.7513837
vt 0.6130806 0.7513978
vt 0.6146287 0.7513676
vt 0.6048419 0.7513899
vt 0.6100415 0.7513806
vt 0.6060159 0.7514086
vt 0.6130806 0.7513978
vt 0.6145106 0.7513644
vt 0.6225722 0.7513739
vt 0.6068475 0.7513837
vt 0.6099214 0.7513785
vt 0.6048419 0.7513899
vt 0.6060159 0.7514086
vt 0.5310206 0.4730703
vt 0.5329955 0.4731793
vt 0.5310856 0.4731061
vt 0.5323696 0.473051
vt 0.5324597 0.4726707
vt 0.5330241 0.472993
vt 0.5313062 0.4730605
vt 0.532485 0.4729491
vt 0.531066 0.4729811
vt 0.5317093 0.4729082
vt 0.532621 0.4728606
vt 0.5299836 0.4729123
vt 0.5312861 0.4728378
vt 0.6309175 0.7121939
vt 0.6196072 0.7131742
vt 0.6307018 0.7121879
vt 0.6424128 0.7112552
vt 0.6303416 0.7121806
vt 0.6416468 0.7112374
vn -0.6307992 -0.6984712 0.3379798
vn -0.6307993 -0.6984712 0.3379798
vn 0 1 0
vn -0.6190507 0.6028554 0.5033304
vn -0.6190508 0.6028554 0.5033305
vn -0.6190508 0.6028554 0.5033305
vn 0.971575 0.009784753 -0.2365298
vn 0.7587475 0.4986861 -0.4190635
vn 0.0350694 0.9347102 -0.3536765
vn 0.2686038 -0.3571289 0.894601
vn 0.2686038 -0.3571289 0.894601
vn 0.2686038 -0.3571289 0.894601
vn -0.005774331 0.9997949 0.01941575
vn -0.07973085 0.9939622 0.07537862
vn -0.07334887 0.9933271 0.08900008
vn -0.07025047 0.997344 0.01923632
vn -0.05758178 0.9983386 0.002088832
vn -0.01467604 0.9998779 0.00536975
vn -0.06366543 0.996978 -0.04451535
vn -0.145187 0.9839833 -0.103429
vn -0.09245893 0 -0.9957165
vn -0.09245893 0 -0.9957165
vn -0.2589597 0 -0.9658881
vn -0.2589611 0 -0.9658878
vn -0.7151817 0 -0.6989385
vn 0.9991736 0 -0.04064594
vn 0.9991736 0 -0.04064594
vn 0.9991736 0 -0.04064593
vn 0.9991736 0 -0.04064594
vn -0.07971791 -0.9939621 0.07539443
vn -0.3247306 -0.928992 0.17755
vn -0.3710942 -0.9252455 0.0788032
vn -0.0702742 -0.9973421 0.01924364
vn -0.05800081 -0.9983149 0.001852332
vn -0.4044273 -0.9145378 -0.007693117
vn -0.06551116 -0.9967983 -0.0458403
vn -0.07328963 -0.9933329 0.08898436
vn -0.1762823 -0.9648576 0.19487
vn -0.1762824 -0.9648576 0.19487
vn -0.2985764 -0.9302205 -0.2134055
vn -0.1438963 -0.9842337 -0.1028489
vn -0.2985764 -0.9302205 -0.2134055
vn -0.3711465 0.9252267 0.07877754
vn -0.3247665 0.9289705 0.1775967
vn -0.07973085 0.9939622 0.07537862
vn -0.07025047 0.997344 0.01923632
vn -0.05758178 0.9983386 0.002088832
vn -0.4045037 0.9145164 -0.006046391
vn -0.06366543 0.996978 -0.04451535
vn -0.1764043 0.9648354 0.1948697
vn -0.07334887 0.9933271 0.08900008
vn -0.1764042 0.9648354 0.1948697
vn -0.145187 0.9839833 -0.103429
vn -0.299594 0.9298852 -0.2134406
vn -0.299594 0.9298852 -0.2134406
vn -0.01468701 -0.9998777 0.005366803
vn -0.06551116 -0.9967983 -0.0458403
vn -0.1438963 -0.9842337 -0.1028489
vn -0.05800081 -0.9983149 0.001852332
vn -0.0702742 -0.9973421 0.01924364
vn -0.01468701 -0.9998777 0.005366802
vn -0.07971791 -0.9939621 0.07539443
vn -0.07328963 -0.9933329 0.08898436
vn -0.01837798 -0.05784613 -0.9981564
vn -0.01837799 -0.05784614 -0.9981564
vn -0.01837799 -0.05784613 -0.9981564
vn -0.01837798 -0.05784614 -0.9981564
vn -0.04493382 -0.977066 -0.2081418
vn -0.04493381 -0.977066 -0.2081418
vn -0.1098917 -0.9755412 -0.190376
vn -0.1072347 -0.975691 -0.1911225
vn -0.2638625 -0.9575129 -0.1163852
vn -0.2619009 -0.9578122 -0.1183376
vn -0.4203884 -0.9059697 0.04992442
vn -0.04153254 -0.0778494 -0.9960996
vn -0.04153255 -0.07784941 -0.9960996
vn -0.311583 -0.1194422 -0.942682
vn -0.2067385 -0.1039655 -0.9728568
vn -0.693042 -0.1262969 -0.7097478
vn -0.6942858 -0.1258068 -0.7086185
vn -0.9318965 0.006649055 -0.3626634
vn -0.01193947 0.9483995 -0.316853
vn -0.01193947 0.9483995 -0.316853
vn -0.07937838 0.9528328 -0.2929313
vn -0.07901768 0.952822 -0.2930637
vn -0.2632884 0.9447693 -0.1951668
vn -0.2629121 0.9447863 -0.1955914
vn -0.3849283 0.9216551 -0.04880614
vn -0.0108642 0.7031764 0.7109325
vn -0.0108642 0.7031764 0.7109324
vn 0.07781819 0.7005555 0.7093423
vn 0.0810324 0.7003561 0.7091792
vn 0.339332 0.6639674 0.666334
vn 0.3406506 0.6637416 0.665886
vn 0.5005829 0.6248605 0.5991378
vn -0.03510729 -0.60963 0.7919083
vn -0.03510729 -0.60963 0.7919083
vn 0.03985026 -0.6029612 0.7967745
vn 0.08362836 -0.5974662 0.7975214
vn 0.3197852 -0.5701101 0.7567773
vn 0.3156288 -0.569529 0.7589566
vn 0.475017 -0.5827201 0.6593907
vn 0.0033613 -0.9243753 -0.3814695
vn 0.0033613 -0.9243753 -0.3814696
vn -0.07946955 -0.9283547 -0.3631007
vn -0.0851687 -0.9283823 -0.3617355
vn -0.2613153 -0.9205419 -0.2903739
vn -0.2581576 -0.9201487 -0.2944164
vn -0.3259589 -0.9231569 -0.2037944
vn 0.08009315 0.06138537 -0.9948954
vn 0.08009315 0.06138537 -0.9948954
vn -0.08123972 0.0664954 -0.994474
vn -0.08096533 0.06648812 -0.9944968
vn -0.4436498 0.07169495 -0.8933279
vn -0.4436601 0.07169497 -0.8933228
vn -0.6455183 0.07016543 -0.7605149
vn 0.03787196 0.9671386 -0.2514131
vn 0.03787195 0.9671386 -0.2514132
vn -0.04401475 0.970982 -0.2350672
vn -0.03852158 0.9709364 -0.2362172
vn -0.215075 0.9604501 -0.176857
vn -0.2184406 0.9603936 -0.1729962
vn -0.2847166 0.9539307 -0.0946193
vn -0.1036956 0.6042789 0.7899964
vn -0.1036956 0.6042789 0.7899964
vn -0.02892167 0.5861558 0.8096821
vn -0.03236509 0.5870705 0.8088886
vn 0.1452788 0.5398138 0.8291532
vn 0.1462532 0.5406229 0.8284545
vn 0.1709791 0.5608609 0.8100624
vn -0.1206028 -0.6944064 0.7094044
vn -0.1206028 -0.6944064 0.7094044
vn -0.05311392 -0.683259 0.7282418
vn -0.04958493 -0.6825829 0.7291241
vn 0.1150777 -0.6509002 0.7503905
vn 0.1139586 -0.6501916 0.7511753
vn 0.1434234 -0.6683912 0.7298513
vn -0.01173325 -0.9311069 0.3645576
vn -0.07729591 -0.9332216 0.3508885
vn -0.01173325 -0.9311069 0.3645576
vn -0.06785071 -0.9331751 0.3529595
vn -0.2733066 -0.9272176 0.2560685
vn -0.2554044 -0.9264488 0.276516
vn -0.3893996 -0.9141982 0.1122932
vn 0.05440994 0.06413976 0.9964566
vn 0.05440994 0.06413975 0.9964566
vn 0.05440993 0.06413975 0.9964566
vn -0.07069327 0.06622737 0.9952971
vn -0.06930937 0.06620988 0.9953956
vn -0.4579932 0.06917378 0.8862602
vn -0.4602592 0.06921253 0.8850825
vn -0.793351 0.06906507 0.604834
vn -0.03511165 0.971748 0.2333945
vn 0.01881979 0.9687309 0.2473992
vn 0.01881979 0.9687309 0.2473992
vn -0.04451913 0.9719647 0.2308742
vn 0.01881979 0.9687309 0.2473992
vn -0.212071 0.9647657 0.1557339
vn -0.2286611 0.9639357 0.136169
vn -0.3322058 0.9431765 0.007576151
vn -0.1240939 0.5146699 -0.8483605
vn -0.06919607 0.5116455 -0.8564057
vn -0.1240939 0.5146699 -0.8483606
vn -0.06404725 0.5112815 -0.8570234
vn 0.1256329 0.5068692 -0.8528188
vn 0.137846 0.5103122 -0.8488698
vn 0.2574092 0.5395095 -0.801667
vn -0.1396001 -0.6085849 -0.7811121
vn -0.08166976 -0.6092004 -0.7887997
vn -0.1396001 -0.6085849 -0.7811121
vn -0.08774827 -0.6092335 -0.788121
vn 0.1090318 -0.618526 -0.778163
vn 0.09594551 -0.6145114 -0.7830519
vn 0.2209065 -0.6477011 -0.7291664
vn 0.7587475 0.4986861 -0.4190635
vn 0.971575 0.009784753 -0.2365298
vn 0.9757877 -0.04152203 -0.2147423
vn 0.9783197 -0.04786703 -0.2014925
vn 0.9791557 -0.0513417 -0.1965147
vn 0.9789665 -0.05477791 -0.1965299
vn 0.959245 -0.1537216 -0.2371049
vn 0.9983312 -0.05626966 -0.01297861
vn 0.9948103 -0.05916525 0.08277597
vn 0.9984487 -0.02040237 0.0518063
vn 0.9998509 0.005272747 -0.01644372
vn 0.9901171 -0.01326428 0.1396144
vn 0.9967901 0.02399405 0.07637805
vn 0.958326 -0.151254 0.2423502
vn 0.9316152 -0.2669768 0.2466099
vn 0.9653 -0.1375632 0.2219735
vn 0.9799325 -0.04435578 0.1943322
vn 0.9640433 -0.1623275 0.2104053
vn 0.9768147 -0.03658291 0.2109376
g axe_basic_007_blade_0
f 3/3/3 2/2/2 1/1/1
f 6/6/6 5/5/5 4/4/4
f 9/9/9 8/8/8 7/7/7
f 12/12/12 11/11/11 10/10/10
f 15/15/15 14/14/14 13/13/13
f 14/14/14 16/16/16 13/13/13
f 16/16/16 17/17/17 13/13/13
f 17/17/17 18/18/18 13/13/13
f 17/17/17 19/19/19 18/18/18
f 19/19/19 20/20/20 18/18/18
f 23/23/23 22/22/22 21/21/21
f 24/24/24 23/23/23 21/21/21
f 24/24/24 25/25/25 23/23/23
f 28/28/28 27/27/27 26/26/26
f 29/29/29 28/28/28 26/26/26
f 32/32/32 31/31/31 30/30/30
f 33/33/33 32/32/32 30/30/30
f 33/33/33 34/34/34 32/32/32
f 34/34/34 35/35/35 32/32/32
f 35/35/35 34/34/34 36/36/36
f 30/30/30 38/38/38 37/37/37
f 38/38/38 39/39/39 37/37/37
f 36/36/36 41/41/41 40/40/40
f 41/41/41 42/42/42 40/40/40
f 45/45/45 44/44/44 43/43/43
f 46/46/46 45/45/45 43/43/43
f 46/46/46 43/43/43 47/47/47
f 43/43/43 48/48/48 47/47/47
f 47/47/47 48/48/48 49/49/49
f 45/45/45 51/51/51 50/50/50
f 51/51/51 52/52/52 50/50/50
f 49/49/49 54/54/54 53/53/53
f 54/54/54 55/55/55 53/53/53
f 58/58/58 57/57/57 56/56/56
f 57/57/57 59/59/59 56/56/56
f 56/56/56 59/59/59 60/60/60
f 61/61/61 56/56/56 60/60/60
f 60/60/60 62/62/62 61/61/61
f 62/62/62 63/63/63 61/61/61
f 66/66/66 65/65/65 64/64/64
f 67/67/67 66/66/66 64/64/64
f 70/70/70 69/69/69 68/68/68
f 71/71/71 70/70/70 68/68/68
f 72/72/72 70/70/70 71/71/71
f 73/73/73 72/72/72 71/71/71
f 74/74/74 72/72/72 73/73/73
f 77/77/77 76/76/76 75/75/75
f 78/78/78 77/77/77 75/75/75
f 79/79/79 77/77/77 78/78/78
f 80/80/80 79/79/79 78/78/78
f 81/81/81 79/79/79 80/80/80
f 84/84/84 83/83/83 82/82/82
f 85/85/85 84/84/84 82/82/82
f 86/86/86 84/84/84 85/85/85
f 87/87/87 86/86/86 85/85/85
f 88/88/88 86/86/86 87/87/87
f 91/91/91 90/90/90 89/89/89
f 92/92/92 91/91/91 89/89/89
f 93/93/93 91/91/91 92/92/92
f 94/94/94 93/93/93 92/92/92
f 95/95/95 93/93/93 94/94/94
f 98/98/98 97/97/97 96/96/96
f 99/99/99 98/98/98 96/96/96
f 100/100/100 98/98/98 99/99/99
f 101/101/101 100/100/100 99/99/99
f 102/102/102 100/100/100 101/101/101
f 105/105/105 104/104/104 103/103/103
f 106/106/106 105/105/105 103/103/103
f 107/107/107 105/105/105 106/106/106
f 108/108/108 107/107/107 106/106/106
f 109/109/109 107/107/107 108/108/108
f 112/112/112 111/111/111 110/110/110
f 113/113/113 112/112/112 110/110/110
f 114/114/114 112/112/112 113/113/113
f 115/115/115 114/114/114 113/113/113
f 116/116/116 114/114/114 115/115/115
f 119/119/119 118/118/118 117/117/117
f 120/120/120 119/119/119 117/117/117
f 121/121/121 119/119/119 120/120/120
f 122/122/122 121/121/121 120/120/120
f 123/123/123 121/121/121 122/122/122
f 126/126/126 125/125/125 124/124/124
f 127/127/127 126/126/126 124/124/124
f 128/128/128 126/126/126 127/127/127
f 129/129/129 128/128/128 127/127/127
f 130/130/130 128/128/128 129/129/129
f 133/133/133 132/132/132 131/131/131
f 134/134/134 133/133/133 131/131/131
f 135/135/135 133/133/133 134/134/134
f 136/136/136 135/135/135 134/134/134
f 137/137/137 135/135/135 136/136/136
f 140/140/140 139/139/139 138/138/138
f 139/139/139 141/141/141 138/138/138
f 139/139/139 142/142/142 141/141/141
f 142/142/142 143/143/143 141/141/141
f 142/142/142 144/144/144 143/143/143
f 147/147/147 146/146/146 145/145/145
f 145/145/145 148/148/148 147/147/147
f 145/145/145 149/149/149 148/148/148
f 149/149/149 150/150/150 148/148/148
f 150/150/150 151/151/151 148/148/148
f 150/150/150 152/152/152 151/151/151
f 155/155/155 154/154/154 153/153/153
f 153/153/153 156/156/156 155/155/155
f 156/156/156 157/157/157 155/155/155
f 153/153/153 158/158/158 156/156/156
f 158/158/158 159/159/159 156/156/156
f 158/158/158 160/160/160 159/159/159
f 163/163/163 162/162/162 161/161/161
f 162/162/162 164/164/164 161/161/161
f 162/162/162 165/165/165 164/164/164
f 165/165/165 166/166/166 164/164/164
f 165/165/165 167/167/167 166/166/166
f 170/170/170 169/169/169 168/168/168
f 169/169/169 171/171/171 168/168/168
f 169/169/169 172/172/172 171/171/171
f 172/172/172 173/173/173 171/171/171
f 172/172/172 174/174/174 173/173/173
f 177/177/177 176/176/176 175/175/175
f 178/178/178 176/176/176 177/177/177
f 179/179/179 176/176/176 178/178/178
f 180/180/180 176/176/176 179/179/179
f 181/181/181 176/176/176 180/180/180
f 184/184/184 183/183/183 182/182/182
f 184/184/184 182/182/182 185/185/185
f 184/184/184 186/186/186 183/183/183
f 184/184/184 185/185/185 187/187/187
f 184/184/184 187/187/187 186/186/186
f 190/190/190 189/189/189 188/188/188
f 190/190/190 188/188/188 191/191/191
f 190/190/190 192/192/192 189/189/189
f 190/190/190 191/191/191 193/193/193
f 190/190/190 193/193/193 192/192/192
