g axe_lightning_001_blade
v 0.611248 -0.005405426 1.461427
v 0.3947754 -0.03541946 1.420112
v 0.3947754 0.03215408 1.420112
v -0.5965408 0.00567835 1.558075
v -0.3918476 0.03569239 1.476416
v -0.3918476 -0.03187925 1.476416
v 0.1702843 -0.0343914 1.263044
v 0.205864 -0.0343914 1.392743
v 0.3947754 -0.03541946 1.420112
v 0.372612 -0.03541946 1.247476
v 0.1702843 0.03112602 1.263044
v 0.372612 0.03215408 1.247476
v 0.3947754 0.03215408 1.420112
v 0.205864 0.03112602 1.392743
v 0.1702843 0.03112602 1.263044
v 0.1702843 -0.0343914 1.263044
v 0.372612 -0.03541946 1.247476
v 0.372612 0.03215408 1.247476
v 0.5620651 -0.003465652 1.235643
v 0.3947754 0.03215408 1.420112
v 0.3947754 -0.03541946 1.420112
v 0.205864 -0.0343914 1.392743
v 0.205864 0.03112602 1.392743
v 0.372612 0.03215408 1.247476
v 0.611248 -0.005405426 1.461427
v 0.3947754 0.03215408 1.420112
v 0.5620651 -0.003465652 1.235643
v 0.3947754 -0.03541946 1.420112
v 0.372612 -0.03541946 1.247476
v 0.1495018 -0.0343914 1.131335
v 0.165947 -0.0343914 1.232747
v 0.367485 -0.03541946 1.20631
v 0.340538 -0.03541946 1.034883
v 0.1495018 0.03112602 1.131335
v 0.340538 0.03215408 1.034883
v 0.367485 0.03215408 1.20631
v 0.165947 0.03112602 1.232747
v 0.1495018 0.03112602 1.131335
v 0.1495018 -0.0343914 1.131335
v 0.340538 -0.03541946 1.034883
v 0.340538 0.03215408 1.034883
v 0.5010109 -0.00103569 0.9532673
v 0.367485 0.03215408 1.20631
v 0.165947 -0.0343914 1.232747
v 0.165947 0.03112602 1.232747
v 0.367485 -0.03541946 1.20631
v 0.5516891 -0.003044128 1.185817
v 0.340538 0.03215408 1.034883
v 0.5516891 -0.003044128 1.185817
v 0.367485 0.03215408 1.20631
v 0.5010109 -0.00103569 0.9532673
v 0.367485 -0.03541946 1.20631
v 0.340538 -0.03541946 1.034883
v 0.1211052 -0.01943207 0.9885609
v 0.1445618 -0.01943207 1.104194
v 0.3328934 -0.03541946 0.9927799
v 0.3003731 -0.03541946 0.8068115
v 0.1211052 0.01616669 0.9885609
v 0.3003731 0.03215408 0.8068115
v 0.3328934 0.03215408 0.9927799
v 0.1445618 0.01616669 1.104194
v 0.1211052 0.01616669 0.9885609
v 0.1211052 -0.01943207 0.9885609
v 0.3003731 -0.03541946 0.8068115
v 0.3003731 0.03215408 0.8068115
v 0.4175262 0.002311707 0.5589611
v 0.3328934 0.03215408 0.9927799
v 0.1445618 -0.01943207 1.104194
v 0.1445618 0.01616669 1.104194
v 0.3328934 -0.03541946 0.9927799
v 0.4883232 -0.0005626678 0.8976833
v 0.3003731 0.03215408 0.8068115
v 0.4883232 -0.0005626678 0.8976833
v 0.3328934 0.03215408 0.9927799
v 0.4175262 0.002311707 0.5589611
v 0.3328934 -0.03541946 0.9927799
v 0.3003731 -0.03541946 0.8068115
v -0.2012551 0.03466623 1.279588
v -0.2115667 0.03466623 1.413684
v -0.3918476 0.03569239 1.476416
v -0.4028591 0.03569429 1.302712
v -0.2012551 -0.03085119 1.279588
v -0.4028591 -0.03187925 1.302712
v -0.3918476 -0.03187925 1.476416
v -0.2115667 -0.0308531 1.413684
v -0.2012551 -0.03085119 1.279588
v -0.2012551 0.03466623 1.279588
v -0.4028591 0.03569429 1.302712
v -0.4028591 -0.03187925 1.302712
v -0.591114 0.003738577 1.327056
v -0.3918476 -0.03187925 1.476416
v -0.3918476 0.03569239 1.476416
v -0.2115667 0.03466623 1.413684
v -0.2115667 -0.0308531 1.413684
v -0.4028591 -0.03187925 1.302712
v -0.5965408 0.00567835 1.558075
v -0.3918476 -0.03187925 1.476416
v -0.591114 0.003738577 1.327056
v -0.3918476 0.03569239 1.476416
v -0.4028591 0.03569429 1.302712
v -0.1495018 0.03437805 1.131335
v -0.165947 0.03437805 1.232747
v -0.367485 0.03540421 1.20631
v -0.340538 0.03540611 1.034883
v -0.1495018 -0.03114128 1.131335
v -0.340538 -0.03216743 1.034883
v -0.367485 -0.03216743 1.20631
v -0.165947 -0.03114128 1.232747
v -0.1495018 -0.03114128 1.131335
v -0.1495018 0.03437805 1.131335
v -0.340538 0.03540611 1.034883
v -0.340538 -0.03216743 1.034883
v -0.5010109 0.001020432 0.9532673
v -0.367485 -0.03216743 1.20631
v -0.165947 0.03437805 1.232747
v -0.165947 -0.03114128 1.232747
v -0.367485 0.03540421 1.20631
v -0.5516891 0.00302887 1.185819
v -0.340538 -0.03216743 1.034883
v -0.5516891 0.00302887 1.185819
v -0.367485 -0.03216743 1.20631
v -0.5010109 0.001020432 0.9532673
v -0.367485 0.03540421 1.20631
v -0.340538 0.03540611 1.034883
v -0.1211052 0.01941872 0.9885609
v -0.1445618 0.01941872 1.104194
v -0.3328934 0.03540421 0.9927818
v -0.3003731 0.03540611 0.8068115
v -0.1211052 -0.01618195 0.9885609
v -0.3003731 -0.03216743 0.8068115
v -0.3328934 -0.03216743 0.9927818
v -0.1445618 -0.01618004 1.104194
v -0.1211052 -0.01618195 0.9885609
v -0.1211052 0.01941872 0.9885609
v -0.3003731 0.03540611 0.8068115
v -0.3003731 -0.03216743 0.8068115
v -0.4175262 -0.002326966 0.5589611
v -0.3328934 -0.03216743 0.9927818
v -0.1445618 0.01941872 1.104194
v -0.1445618 -0.01618004 1.104194
v -0.3328934 0.03540421 0.9927818
v -0.4883232 0.0005474086 0.8976833
v -0.3003731 -0.03216743 0.8068115
v -0.4883232 0.0005474086 0.8976833
v -0.3328934 -0.03216743 0.9927818
v -0.4175262 -0.002326966 0.5589611
v -0.3328934 0.03540421 0.9927818
v -0.3003731 0.03540611 0.8068115
v -0.2115667 -0.0308531 1.413684
v -0.2115667 0.03466623 1.413684
v -0.2012551 0.03466623 1.279588
v -0.2012551 -0.03085119 1.279588
vt 0.5306935 0.4391249
vt 0.5412412 0.4396048
vt 0.5412412 0.4396048
vt 0.5306935 0.4391249
vt 0.5412412 0.4396048
vt 0.5412412 0.4396048
vt 0.6324157 0.4315428
vt 0.6324985 0.433104
vt 0.6287366 0.4373788
vt 0.6287673 0.4353576
vt 0.6324157 0.4315428
vt 0.6287673 0.436478
vt 0.6287366 0.4384992
vt 0.6324985 0.433104
vt 0.521866 0.4304676
vt 0.521866 0.4304676
vt 0.5237008 0.427314
vt 0.5237008 0.427314
vt 0.5368286 0.4273569
vt 0.6287366 0.4352933
vt 0.6287366 0.4352933
vt 0.6324985 0.4292845
vt 0.6324985 0.4292845
vt 0.557462 0.43098
vt 0.5707651 0.4289
vt 0.5575403 0.4293799
vt 0.57059 0.4310228
vt 0.5575403 0.4293799
vt 0.557462 0.43098
vt 0.6326156 0.4296328
vt 0.6324157 0.4312029
vt 0.6289573 0.4349545
vt 0.6292427 0.4329296
vt 0.6326156 0.4296328
vt 0.6292427 0.4340501
vt 0.6289573 0.436075
vt 0.6324157 0.4312029
vt 0.525587 0.4278208
vt 0.525587 0.4278208
vt 0.5224878 0.4292359
vt 0.5224878 0.4292359
vt 0.536612 0.430041
vt 0.5337864 0.431299
vt 0.5292167 0.4308114
vt 0.5292167 0.4308114
vt 0.5337864 0.431299
vt 0.5519707 0.431374
vt 0.5562493 0.4329019
vt 0.5706046 0.431374
vt 0.5569775 0.431299
vt 0.5703732 0.4337069
vt 0.5569775 0.431299
vt 0.5562493 0.4329019
vt 0.632986 0.4275207
vt 0.6326156 0.4292645
vt 0.6294642 0.4336448
vt 0.6298711 0.4314298
vt 0.632986 0.4275207
vt 0.6298711 0.4314298
vt 0.6294642 0.4336448
vt 0.6326156 0.4292645
vt 0.5187089 0.4269544
vt 0.5187089 0.4269544
vt 0.5208848 0.4313101
vt 0.5208848 0.4313101
vt 0.53634 0.4330754
vt 0.5320607 0.4332228
vt 0.5362619 0.4336312
vt 0.5362619 0.4336312
vt 0.5320607 0.4332228
vt 0.5516385 0.4341669
vt 0.554646 0.4349761
vt 0.5703556 0.4341669
vt 0.555684 0.4332228
vt 0.5701014 0.4367414
vt 0.555684 0.4332228
vt 0.554646 0.4349761
vt 0.6324157 0.4315428
vt 0.6324985 0.433104
vt 0.6287366 0.4373788
vt 0.6287673 0.4353576
vt 0.6324157 0.4315428
vt 0.6287673 0.436478
vt 0.6287366 0.4384992
vt 0.6324985 0.433104
vt 0.521866 0.4304676
vt 0.521866 0.4304676
vt 0.5237008 0.427314
vt 0.5237008 0.427314
vt 0.5368286 0.4273569
vt 0.6287366 0.4352933
vt 0.6287366 0.4352933
vt 0.6324985 0.4292845
vt 0.6324985 0.4292845
vt 0.557462 0.43098
vt 0.5707651 0.4289
vt 0.5575403 0.4293799
vt 0.57059 0.4310228
vt 0.5575403 0.4293799
vt 0.557462 0.43098
vt 0.6326156 0.4296328
vt 0.6324157 0.4312029
vt 0.6289573 0.4349545
vt 0.6292427 0.4329296
vt 0.6326156 0.4296328
vt 0.6292427 0.4340501
vt 0.6289573 0.436075
vt 0.6324157 0.4312029
vt 0.525587 0.4278208
vt 0.525587 0.4278208
vt 0.5224878 0.4292359
vt 0.5224878 0.4292359
vt 0.536612 0.430041
vt 0.5337864 0.431299
vt 0.5292167 0.4308114
vt 0.5292167 0.4308114
vt 0.5337864 0.431299
vt 0.5519707 0.431374
vt 0.5562493 0.4329019
vt 0.5706046 0.431374
vt 0.5569775 0.431299
vt 0.5703732 0.4337069
vt 0.5569775 0.431299
vt 0.5562493 0.4329019
vt 0.632986 0.4275207
vt 0.6326156 0.4292645
vt 0.6294642 0.4336448
vt 0.6298711 0.4314298
vt 0.632986 0.4275207
vt 0.6298711 0.4314298
vt 0.6294642 0.4336448
vt 0.6326156 0.4292645
vt 0.5187089 0.4269544
vt 0.5187089 0.4269544
vt 0.5208848 0.4313101
vt 0.5208848 0.4313101
vt 0.53634 0.4330754
vt 0.5320607 0.4332228
vt 0.5362619 0.4336312
vt 0.5362619 0.4336312
vt 0.5320607 0.4332228
vt 0.5516385 0.4341669
vt 0.554646 0.4349761
vt 0.5703556 0.4341669
vt 0.555684 0.4332228
vt 0.5701014 0.4367414
vt 0.555684 0.4332228
vt 0.554646 0.4349761
vt 0.62704 0.4307428
vt 0.6283772 0.4289894
vt 0.624778 0.4262446
vt 0.6234409 0.427998
vn 0.9992317 -0.001565128 -0.03916041
vn 0.05644296 -0.9697587 0.2374494
vn 0.07420897 0.9683552 0.2382882
vn -0.9884948 0.001565874 0.1512471
vn -0.01034574 0.9697584 0.2438477
vn -0.02762178 -0.9683565 0.2480377
vn -0.04032673 -0.8857746 -0.4623604
vn -0.05155062 -0.9452341 0.3222969
vn 0.05644296 -0.9697587 0.2374494
vn 0.06111085 -0.9569032 -0.2839045
vn -0.04032673 0.8857746 -0.4623604
vn 0.07573871 0.9569374 -0.28024
vn 0.07420897 0.9683552 0.2382882
vn -0.05155062 0.9452341 0.3222969
vn -0.04032673 0.8857746 -0.4623604
vn -0.04032673 -0.8857746 -0.4623604
vn 0.06111085 -0.9569032 -0.2839045
vn 0.07573871 0.9569374 -0.28024
vn 0.9634321 0.004128779 -0.267921
vn 0.07420897 0.9683552 0.2382882
vn 0.05644296 -0.9697587 0.2374494
vn -0.05155062 -0.9452341 0.3222969
vn -0.05155062 0.9452341 0.3222969
vn 0.07573871 0.9569374 -0.28024
vn 0.9992317 -0.001565128 -0.03916041
vn 0.07420897 0.9683552 0.2382882
vn 0.9634321 0.004128779 -0.267921
vn 0.05644296 -0.9697587 0.2374494
vn 0.06111085 -0.9569032 -0.2839045
vn -0.1808231 -0.9197684 -0.3483232
vn 0.05115785 -0.9037127 0.425072
vn 0.1332689 -0.957779 0.2547523
vn -0.01344085 -0.960798 -0.2769234
vn -0.1808231 0.9197684 -0.3483231
vn -0.008977805 0.9622058 -0.2721753
vn 0.136979 0.9563189 0.2582462
vn 0.05115784 0.9037127 0.4250719
vn -0.1808231 0.9197684 -0.3483231
vn -0.1808231 -0.9197684 -0.3483232
vn -0.01344085 -0.960798 -0.2769234
vn -0.008977805 0.9622058 -0.2721753
vn 0.9518169 0.005989957 -0.3066084
vn 0.136979 0.9563189 0.2582462
vn 0.05115785 -0.9037127 0.425072
vn 0.05115784 0.9037127 0.4250719
vn 0.1332689 -0.957779 0.2547523
vn 0.9968637 -0.004999953 -0.07898057
vn -0.008977805 0.9622058 -0.2721753
vn 0.9968637 -0.004999953 -0.07898057
vn 0.136979 0.9563189 0.2582462
vn 0.9518169 0.005989957 -0.3066084
vn 0.1332689 -0.957779 0.2547523
vn -0.01344085 -0.960798 -0.2769234
vn -0.28056 -0.940182 -0.1932452
vn 0.149636 -0.9117434 0.382535
vn 0.1649853 -0.9714622 0.1704145
vn -0.0354765 -0.9850262 -0.1687153
vn -0.28056 0.940182 -0.1932452
vn -0.05110963 0.9860899 -0.1581593
vn 0.1569446 0.9715082 0.1775961
vn 0.149636 0.9117434 0.382535
vn -0.28056 0.940182 -0.1932452
vn -0.28056 -0.940182 -0.1932452
vn -0.0354765 -0.9850262 -0.1687153
vn -0.05110963 0.9860899 -0.1581593
vn 0.9467219 -0.005275731 -0.3220091
vn 0.1569446 0.9715082 0.1775961
vn 0.149636 -0.9117434 0.382535
vn 0.149636 0.9117434 0.382535
vn 0.1649853 -0.9714622 0.1704145
vn 0.9909677 -0.003122178 -0.134064
vn -0.05110963 0.9860899 -0.1581593
vn 0.9909677 -0.003122178 -0.134064
vn 0.1569446 0.9715082 0.1775961
vn 0.9467219 -0.005275731 -0.3220091
vn 0.1649853 -0.9714622 0.1704145
vn -0.0354765 -0.9850262 -0.1687153
vn -0.0481809 0.8857767 -0.4616041
vn 0.1117913 0.9452332 0.3066543
vn -0.01034574 0.9697584 0.2438477
vn -0.113897 0.9569049 -0.267134
vn -0.04818311 -0.8857721 -0.4616127
vn -0.1275574 -0.9569375 -0.2607677
vn -0.02762178 -0.9683565 0.2480377
vn 0.1117891 -0.9452368 0.3066438
vn -0.04818311 -0.8857721 -0.4616127
vn -0.0481809 0.8857767 -0.4616041
vn -0.113897 0.9569049 -0.267134
vn -0.1275574 -0.9569375 -0.2607677
vn -0.9967746 -0.004129167 -0.08014574
vn -0.02762178 -0.9683565 0.2480377
vn -0.01034574 0.9697584 0.2438477
vn 0.1117913 0.9452332 0.3066543
vn 0.1117891 -0.9452368 0.3066438
vn -0.1275574 -0.9569375 -0.2607677
vn -0.9884948 0.001565874 0.1512471
vn -0.02762178 -0.9683565 0.2480377
vn -0.9967746 -0.004129167 -0.08014574
vn -0.01034574 0.9697584 0.2438477
vn -0.113897 0.9569049 -0.267134
vn 0.1808193 0.9197692 -0.348323
vn -0.05116349 0.9037114 0.4250741
vn -0.1332745 0.9577779 0.2547534
vn 0.01343504 0.9607986 -0.2769212
vn 0.1808158 -0.9197682 -0.3483275
vn 0.008982808 -0.962205 -0.2721779
vn -0.1369766 -0.9563195 0.2582449
vn -0.05116593 -0.9037138 0.4250686
vn 0.1808158 -0.9197682 -0.3483275
vn 0.1808193 0.9197692 -0.348323
vn 0.01343504 0.9607986 -0.2769212
vn 0.008982808 -0.962205 -0.2721779
vn -0.9518207 -0.005987521 -0.3065968
vn -0.1369766 -0.9563195 0.2582449
vn -0.05116349 0.9037114 0.4250741
vn -0.05116593 -0.9037138 0.4250686
vn -0.1332745 0.9577779 0.2547534
vn -0.9968643 0.005000389 -0.07897225
vn 0.008982808 -0.962205 -0.2721779
vn -0.9968643 0.005000389 -0.07897225
vn -0.1369766 -0.9563195 0.2582449
vn -0.9518207 -0.005987521 -0.3065968
vn -0.1332745 0.9577779 0.2547534
vn 0.01343504 0.9607986 -0.2769212
vn 0.280555 0.9401838 -0.193244
vn -0.1496333 0.9117469 0.382528
vn -0.164991 0.9714612 0.1704144
vn 0.03546839 0.9850267 -0.1687141
vn 0.2805541 -0.9401843 -0.1932431
vn 0.05111827 -0.9860897 -0.1581583
vn -0.1569411 -0.9715086 0.1775965
vn -0.1496344 -0.9117458 0.3825299
vn 0.2805541 -0.9401843 -0.1932431
vn 0.280555 0.9401838 -0.193244
vn 0.03546839 0.9850267 -0.1687141
vn 0.05111827 -0.9860897 -0.1581583
vn -0.9467253 0.005285122 -0.3219988
vn -0.1569411 -0.9715086 0.1775965
vn -0.1496333 0.9117469 0.382528
vn -0.1496344 -0.9117458 0.3825299
vn -0.164991 0.9714612 0.1704144
vn -0.9909685 0.003120487 -0.1340583
vn 0.05111827 -0.9860897 -0.1581583
vn -0.9909685 0.003120487 -0.1340583
vn -0.1569411 -0.9715086 0.1775965
vn -0.9467253 0.005285122 -0.3219988
vn -0.164991 0.9714612 0.1704144
vn 0.03546839 0.9850267 -0.1687141
vn 0.9970565 0 0.07667091
vn 0.9970565 0 0.07667091
vn 0.9970565 0 0.07667091
vn 0.9970565 0 0.07667091
g axe_lightning_001_blade_0
f 3/3/3 2/2/2 1/1/1
f 6/6/6 5/5/5 4/4/4
f 9/9/9 8/8/8 7/7/7
f 10/10/10 9/9/9 7/7/7
f 13/13/13 12/12/12 11/11/11
f 14/14/14 13/13/13 11/11/11
f 17/17/17 16/16/16 15/15/15
f 18/18/18 17/17/17 15/15/15
f 18/18/18 19/19/19 17/17/17
f 22/22/22 21/21/21 20/20/20
f 23/23/23 22/22/22 20/20/20
f 26/26/26 25/25/25 24/24/24
f 25/25/25 27/27/27 24/24/24
f 27/27/27 25/25/25 28/28/28
f 29/29/29 27/27/27 28/28/28
f 32/32/32 31/31/31 30/30/30
f 33/33/33 32/32/32 30/30/30
f 36/36/36 35/35/35 34/34/34
f 37/37/37 36/36/36 34/34/34
f 40/40/40 39/39/39 38/38/38
f 41/41/41 40/40/40 38/38/38
f 41/41/41 42/42/42 40/40/40
f 45/45/45 44/44/44 43/43/43
f 44/44/44 46/46/46 43/43/43
f 43/43/43 46/46/46 47/47/47
f 50/50/50 49/49/49 48/48/48
f 49/49/49 51/51/51 48/48/48
f 51/51/51 49/49/49 52/52/52
f 53/53/53 51/51/51 52/52/52
f 56/56/56 55/55/55 54/54/54
f 57/57/57 56/56/56 54/54/54
f 60/60/60 59/59/59 58/58/58
f 61/61/61 60/60/60 58/58/58
f 64/64/64 63/63/63 62/62/62
f 65/65/65 64/64/64 62/62/62
f 65/65/65 66/66/66 64/64/64
f 69/69/69 68/68/68 67/67/67
f 68/68/68 70/70/70 67/67/67
f 67/67/67 70/70/70 71/71/71
f 74/74/74 73/73/73 72/72/72
f 73/73/73 75/75/75 72/72/72
f 75/75/75 73/73/73 76/76/76
f 77/77/77 75/75/75 76/76/76
f 80/80/80 79/79/79 78/78/78
f 81/81/81 80/80/80 78/78/78
f 84/84/84 83/83/83 82/82/82
f 85/85/85 84/84/84 82/82/82
f 88/88/88 87/87/87 86/86/86
f 89/89/89 88/88/88 86/86/86
f 89/89/89 90/90/90 88/88/88
f 93/93/93 92/92/92 91/91/91
f 94/94/94 93/93/93 91/91/91
f 97/97/97 96/96/96 95/95/95
f 96/96/96 98/98/98 95/95/95
f 98/98/98 96/96/96 99/99/99
f 100/100/100 98/98/98 99/99/99
f 103/103/103 102/102/102 101/101/101
f 104/104/104 103/103/103 101/101/101
f 107/107/107 106/106/106 105/105/105
f 108/108/108 107/107/107 105/105/105
f 111/111/111 110/110/110 109/109/109
f 112/112/112 111/111/111 109/109/109
f 112/112/112 113/113/113 111/111/111
f 116/116/116 115/115/115 114/114/114
f 115/115/115 117/117/117 114/114/114
f 114/114/114 117/117/117 118/118/118
f 121/121/121 120/120/120 119/119/119
f 120/120/120 122/122/122 119/119/119
f 122/122/122 120/120/120 123/123/123
f 124/124/124 122/122/122 123/123/123
f 127/127/127 126/126/126 125/125/125
f 128/128/128 127/127/127 125/125/125
f 131/131/131 130/130/130 129/129/129
f 132/132/132 131/131/131 129/129/129
f 135/135/135 134/134/134 133/133/133
f 136/136/136 135/135/135 133/133/133
f 136/136/136 137/137/137 135/135/135
f 140/140/140 139/139/139 138/138/138
f 139/139/139 141/141/141 138/138/138
f 138/138/138 141/141/141 142/142/142
f 145/145/145 144/144/144 143/143/143
f 144/144/144 146/146/146 143/143/143
f 146/146/146 144/144/144 147/147/147
f 148/148/148 146/146/146 147/147/147
f 151/151/151 150/150/150 149/149/149
f 152/152/152 151/151/151 149/149/149
