g axe_basic_001_blade
v -0.01082774 -0.02230453 0.626505
v 0.4005187 -0.02230453 0.5467969
v 0.4748137 -0.0006170273 0.5169317
v 0.392195 0.01956558 1.362818
v 0.4671004 -0.0006170273 1.404961
v -0.01082774 0.02106953 1.186297
v 0.4439299 -0.02080059 1.215273
v 0.4439528 0.01956558 1.215252
v 0.515837 -0.0006170273 1.242617
v 0.4963439 -0.0006170273 1.301247
v 0.4439528 0.01956558 1.215252
v 0.4439299 -0.02080059 1.215273
v -0.4138581 0.02042389 1.362818
v -0.01082774 0.02106953 1.186297
v -0.4887635 -0.0006170273 1.404961
v -0.4796006 0.02106953 0.7056314
v -0.536905 -0.0006170273 0.6507989
v -0.4796083 -0.02230453 0.7056295
v -0.4697435 -0.02230453 0.6777974
v -0.5238206 -0.0006170273 0.611416
v -0.4713456 0.02107 0.6821958
v -0.4889924 -0.0006170273 0.5169317
v -0.4221742 -0.02230453 0.5467969
v -0.01082774 -0.02230453 0.626505
v 0.4439528 0.01956558 1.215252
v 0.4963439 -0.0006170273 1.301247
v 0.4671004 -0.0006170273 1.404961
v 0.392195 0.01956558 1.362818
v 0.5418532 0.02106953 0.9360162
v 0.515837 -0.0006170273 1.242617
v 0.6177962 -0.0006170273 0.9359704
v 0.4439528 0.01956558 1.215252
v 0.392195 0.01956558 1.362818
v -0.01082774 0.02106953 1.186297
v 0.5418532 0.02106953 0.9360162
v -0.01082774 0.02107 0.6266881
v 0.4005187 0.02107 0.5467969
v -0.4713456 0.02107 0.6821958
v -0.4221742 0.02107 0.5467969
v -0.4239518 0.02106953 0.7485543
v -0.4269502 0.02106953 0.7480851
v -0.5635163 0.02106953 0.9360162
v -0.4796006 0.02106953 0.7056314
v -0.4138581 0.02042389 1.362818
v 0.4963439 -0.0006170273 1.301247
v 0.392195 -0.02080059 1.362818
v 0.4671004 -0.0006170273 1.404961
v 0.4439299 -0.02080059 1.215273
v 0.6177962 -0.0006170273 0.9359704
v 0.5418532 -0.02230453 0.9360162
v 0.515837 -0.0006170273 1.242617
v -0.01082774 -0.02230453 0.626505
v 0.5418532 -0.02230453 0.9360162
v 0.4005187 -0.02230453 0.5467969
v -0.01082774 -0.02230453 1.186615
v 0.4439299 -0.02080059 1.215273
v 0.392195 -0.02080059 1.362818
v -0.4697435 -0.02230453 0.6777974
v -0.4221742 -0.02230453 0.5467969
v -0.4240739 -0.02230453 0.7485505
v -0.5635163 -0.02230453 0.9360162
v -0.4138581 -0.0216589 1.362818
v -0.4254472 -0.02230453 0.7484227
v -0.4796083 -0.02230453 0.7056295
v 0.4005187 0.02107 0.5467969
v 0.4748137 -0.0006170273 0.5169317
v 0.6177962 -0.0006170273 0.9359704
v 0.5418532 0.02106953 0.9360162
v 0.4005187 -0.02230453 0.5467969
v 0.5418532 -0.02230453 0.9360162
v 0.6177962 -0.0006170273 0.9359704
v 0.4748137 -0.0006170273 0.5169317
v -0.6394593 -0.0006170273 0.9359704
v -0.5635163 0.02106953 0.9360162
v -0.4138581 0.02042389 1.362818
v -0.4887635 -0.0006170273 1.404961
v -0.4138581 -0.0216589 1.362818
v -0.5635163 -0.02230453 0.9360162
v -0.6394593 -0.0006170273 0.9359704
v -0.4887635 -0.0006170273 1.404961
v -0.4221742 0.02107 0.5467969
v -0.4889924 -0.0006170273 0.5169317
v -0.01082774 -0.02230453 0.626505
v -0.01082774 0.02107 0.6266881
v -0.4796006 0.02106953 0.7056314
v -0.5635163 0.02106953 0.9360162
v -0.6394593 -0.0006170273 0.9359704
v -0.536905 -0.0006170273 0.6507989
v -0.4796083 -0.02230453 0.7056295
v -0.536905 -0.0006170273 0.6507989
v -0.6394593 -0.0006170273 0.9359704
v -0.5635163 -0.02230453 0.9360162
v -0.4221742 0.02107 0.5467969
v -0.4713456 0.02107 0.6821958
v -0.5238206 -0.0006170273 0.611416
v -0.4889924 -0.0006170273 0.5169317
v -0.4221742 -0.02230453 0.5467969
v -0.4889924 -0.0006170273 0.5169317
v -0.5238206 -0.0006170273 0.611416
v -0.4697435 -0.02230453 0.6777974
v -0.4269502 0.02106953 0.7480851
v -0.4254472 -0.02230453 0.7484227
v -0.4697435 -0.02230453 0.6777974
v -0.4713456 0.02107 0.6821958
v -0.4796083 -0.02230453 0.7056295
v -0.4254472 -0.02230453 0.7484227
v -0.4269502 0.02106953 0.7480851
v -0.4796006 0.02106953 0.7056314
v 0.4005187 0.02107 0.5467969
v -0.01082774 0.02107 0.6266881
v -0.01082774 -0.02230453 0.626505
v 0.4748137 -0.0006170273 0.5169317
v -0.01082774 0.02106953 1.186297
v -0.01082774 -0.02230453 1.186615
v -0.4138581 -0.0216589 1.362818
v -0.4887635 -0.0006170273 1.404961
v 0.4671004 -0.0006170273 1.404961
v 0.392195 -0.02080059 1.362818
v -0.01082774 -0.02230453 1.186615
v -0.01082774 0.02106953 1.186297
vt 0.5179886 0.4546344
vt 0.5276707 0.4546344
vt 0.5284973 0.4487755
vt 0.5469981 0.4472883
vt 0.5505875 0.449248
vt 0.5306998 0.4472883
vt 0.5212914 0.4465898
vt 0.5199646 0.4465405
vt 0.5231052 0.4519795
vt 0.5205179 0.4519531
vt 0.5199646 0.4465405
vt 0.5212914 0.4465898
vt 0.5293637 0.4472883
vt 0.5205069 0.4472883
vt 0.5313242 0.449248
vt 0.5174022 0.4452184
vt 0.518353 0.4514318
vt 0.5174001 0.4452166
vt 0.5191135 0.4451711
vt 0.5182299 0.4514742
vt 0.5192846 0.4451768
vt 0.5297062 0.4487755
vt 0.5276707 0.4546344
vt 0.5179886 0.4546344
vt 0.5357412 0.4465405
vt 0.5354714 0.4519531
vt 0.5371669 0.4519175
vt 0.5383164 0.4463445
vt 0.5289963 0.4470539
vt 0.5342104 0.4519795
vt 0.5276155 0.4521178
vt 0.5487218 0.449939
vt 0.5506027 0.44805
vt 0.5404643 0.4423247
vt 0.5427589 0.4535124
vt 0.5304357 0.4461821
vt 0.5331107 0.45375
vt 0.5388231 0.4537459
vt 0.5355448 0.4538531
vt 0.5394024 0.4524972
vt 0.5393891 0.4525721
vt 0.5447403 0.4535453
vt 0.5393579 0.4537234
vt 0.5507095 0.4481574
vt 0.5354714 0.4519531
vt 0.5383164 0.4463445
vt 0.5371669 0.4519175
vt 0.5350945 0.4465898
vt 0.5276155 0.4521178
vt 0.5289963 0.4470539
vt 0.5342104 0.4519795
vt 0.5288371 0.4461834
vt 0.5427589 0.4535124
vt 0.5331107 0.45375
vt 0.5400948 0.4424728
vt 0.5487217 0.4499383
vt 0.5506027 0.44805
vt 0.5382785 0.4534581
vt 0.5351012 0.4533513
vt 0.5391732 0.452249
vt 0.5442961 0.4536682
vt 0.5511664 0.4486465
vt 0.5391735 0.4522784
vt 0.5389149 0.4534765
vt 0.52948 0.4450035
vt 0.5294498 0.4515696
vt 0.5217256 0.4510479
vt 0.5223117 0.4455014
vt 0.52948 0.4450035
vt 0.521746 0.4455014
vt 0.5217256 0.4510479
vt 0.5294498 0.4515696
vt 0.5711071 0.4521178
vt 0.5670794 0.4470539
vt 0.5398931 0.4463445
vt 0.5432462 0.4519175
vt 0.5398931 0.4463445
vt 0.5670794 0.4470539
vt 0.5711071 0.4521178
vt 0.5432462 0.4519175
vt 0.5276707 0.4429167
vt 0.5297062 0.4487755
vt 0.5179886 0.4546344
vt 0.5179886 0.4429167
vt 0.5271653 0.4452184
vt 0.5330041 0.4455014
vt 0.5321894 0.4510479
vt 0.525319 0.4514318
vt 0.5271116 0.4452166
vt 0.525319 0.4514318
vt 0.5321894 0.4510479
vt 0.5330041 0.4455014
vt 0.5209653 0.4450035
vt 0.5262334 0.4451768
vt 0.5242309 0.4514742
vt 0.5210292 0.4515696
vt 0.5209653 0.4450035
vt 0.5210292 0.4515696
vt 0.5242309 0.4514742
vt 0.5260623 0.4451711
vt 0.5164411 0.4451975
vt 0.5163503 0.4451944
vt 0.5191135 0.4451711
vt 0.5192846 0.4451768
vt 0.5174001 0.4452166
vt 0.5172404 0.4451944
vt 0.5172439 0.4451975
vt 0.5174022 0.4452184
vt 0.5276707 0.4429167
vt 0.5179886 0.4429167
vt 0.5179886 0.4546344
vt 0.5284973 0.4487755
vt 0.5205069 0.4472883
vt 0.5205069 0.4512077
vt 0.5293637 0.4512077
vt 0.5313242 0.449248
vt 0.5505875 0.449248
vt 0.5469981 0.4512077
vt 0.5306998 0.4512077
vt 0.5306998 0.4472883
vn -0.1558293 -0.5735918 -0.8041826
vn -0.1558293 -0.5735918 -0.8041826
vn -0.1558293 -0.5735918 -0.8041826
vn -0.3673464 0.3949409 0.8420678
vn -0.3673465 0.3949409 0.8420678
vn -0.3673465 0.3949409 0.8420678
vn -0.3556021 0.0006873778 0.9346372
vn -0.3556021 0.0006873779 0.9346372
vn -0.3556021 0.0006873778 0.9346372
vn 0.8539146 -0.0007552063 -0.5204126
vn 0.8539146 -0.0007552063 -0.5204126
vn 0.8539146 -0.0007552062 -0.5204126
vn 0.3708449 0.3784389 0.8480908
vn 0.370845 0.3784389 0.8480908
vn 0.3708449 0.3784389 0.8480908
vn 0.6913694 -8.880226E-05 -0.7225015
vn 0.6913694 -8.880226E-05 -0.7225015
vn 0.6913694 -8.880226E-05 -0.7225015
vn -0.7864353 -0.09099968 0.6109325
vn -0.7864353 -0.09099969 0.6109326
vn -0.7864353 -0.09099969 0.6109325
vn 0.1510334 -0.6080076 -0.7794329
vn 0.1510334 -0.6080076 -0.7794329
vn 0.1510334 -0.6080076 -0.7794329
vn 0.2321782 0.9697894 0.07484378
vn 0.2321783 0.9697894 0.07484379
vn 0.2321783 0.9697894 0.07484379
vn 0.2321782 0.9697894 0.07484378
vn 0.2560116 0.9624934 0.08980291
vn 0.2560116 0.9624934 0.08980291
vn 0.2560116 0.9624934 0.08980292
vn 0.001178715 0.9999977 0.001790954
vn 0.001178715 0.9999977 0.001790954
vn 0.001178715 0.9999977 0.001790954
vn 0.001178715 0.9999977 0.001790954
vn 0.001178715 0.9999977 0.001790954
vn 0 1 0
vn 0 1 0
vn 0 1 0
vn -0.0004572542 0.9999994 0.001009749
vn 0 1 0
vn -0.0004572542 0.9999994 0.001009749
vn -0.0004572542 0.9999994 0.001009749
vn -0.0004572542 0.9999994 0.001009749
vn 0.2321785 -0.9697906 0.07482899
vn 0.2321785 -0.9697906 0.07482899
vn 0.2321785 -0.9697906 0.07482899
vn 0.2321785 -0.9697906 0.07482898
vn 0.2559976 -0.9624969 0.08980493
vn 0.2559977 -0.9624969 0.08980493
vn 0.2559977 -0.9624969 0.08980493
vn 0 -1 0
vn 0 -1 0
vn 0 -1 0
vn -0.0004579792 -0.9999994 0.001010057
vn 0.001178844 -0.9999977 0.001789581
vn 0.001178844 -0.9999977 0.001789581
vn 0 -1 0
vn 0 -1 0
vn -0.0004579793 -0.9999994 0.001010057
vn -0.0004579792 -0.9999994 0.001010057
vn -0.0004579792 -0.9999994 0.001010057
vn -0.0004579793 -0.9999994 0.001010057
vn -0.0004579792 -0.9999994 0.001010057
vn 0.2594028 0.9614489 -0.09124829
vn 0.2594027 0.9614489 -0.09124828
vn 0.2594028 0.9614489 -0.0912483
vn 0.2594028 0.9614489 -0.09124828
vn 0.2594105 -0.9614465 -0.09125157
vn 0.2594105 -0.9614465 -0.09125159
vn 0.2594105 -0.9614465 -0.09125158
vn 0.2594105 -0.9614465 -0.09125159
vn -0.2496767 0.9646431 0.08441044
vn -0.2496767 0.9646431 0.08441044
vn -0.2496767 0.9646431 0.08441044
vn -0.2496767 0.9646431 0.08441044
vn -0.2496871 -0.9646401 0.08441393
vn -0.2496871 -0.9646401 0.08441392
vn -0.2496871 -0.9646401 0.08441392
vn -0.2496871 -0.9646401 0.08441392
vn 0.2082109 0.2256995 -0.9516869
vn 0.2082109 0.2256995 -0.9516869
vn 0.2082109 0.2256995 -0.9516869
vn 0.2082109 0.2256995 -0.9516869
vn -0.2712635 0.9574915 -0.09811243
vn -0.2712634 0.9574915 -0.09811244
vn -0.2712634 0.9574915 -0.09811244
vn -0.2712634 0.9574915 -0.09811243
vn -0.2712895 -0.9574838 -0.09811746
vn -0.2712895 -0.9574838 -0.09811746
vn -0.2712894 -0.9574838 -0.09811746
vn -0.2712895 -0.9574838 -0.09811746
vn -0.266495 0.9589046 -0.09737758
vn -0.266495 0.9589046 -0.09737758
vn -0.266495 0.9589046 -0.09737758
vn -0.266495 0.9589046 -0.09737759
vn -0.2665047 -0.958901 -0.09738703
vn -0.2665046 -0.958901 -0.09738705
vn -0.2665046 -0.958901 -0.09738703
vn -0.2665047 -0.958901 -0.09738705
vn -0.8366061 -0.06829306 0.5435312
vn -0.8366061 -0.06829307 0.5435313
vn -0.8366061 -0.06829307 0.5435313
vn -0.8366061 -0.06829306 0.5435313
vn 0.6237636 -0.009578309 -0.7815544
vn 0.6237636 -0.009578309 -0.7815544
vn 0.6237636 -0.009578308 -0.7815543
vn 0.6237636 -0.009578308 -0.7815543
vn -0.2070088 0.2053852 -0.9565376
vn -0.2070089 0.2053852 -0.9565376
vn -0.2070088 0.2053852 -0.9565376
vn -0.2070089 0.2053852 -0.9565376
vn 0.4086438 -0.1128635 0.9056888
vn 0.4086438 -0.1128635 0.9056888
vn 0.4086438 -0.1128635 0.9056888
vn 0.4086438 -0.1128635 0.9056888
vn -0.4085141 -0.1144481 0.9055484
vn -0.4085141 -0.1144481 0.9055484
vn -0.4085141 -0.1144481 0.9055484
vn -0.4085141 -0.1144481 0.9055484
g axe_basic_001_blade_0
f 3/3/3 2/2/2 1/1/1
f 6/6/6 5/5/5 4/4/4
f 9/9/9 8/8/8 7/7/7
f 12/12/12 11/11/11 10/10/10
f 15/15/15 14/14/14 13/13/13
f 18/18/18 17/17/17 16/16/16
f 21/21/21 20/20/20 19/19/19
f 24/24/24 23/23/23 22/22/22
f 27/27/27 26/26/26 25/25/25
f 28/28/28 27/27/27 25/25/25
f 25/25/25 30/30/30 29/29/29
f 30/30/30 31/31/31 29/29/29
f 34/34/34 33/33/33 32/32/32
f 34/34/34 32/32/32 35/35/35
f 35/35/35 36/36/36 34/34/34
f 35/35/35 37/37/37 36/36/36
f 38/38/38 34/34/34 36/36/36
f 36/36/36 39/39/39 38/38/38
f 38/38/38 40/40/40 34/34/34
f 38/38/38 41/41/41 40/40/40
f 42/42/42 34/34/34 40/40/40
f 40/40/40 43/43/43 42/42/42
f 42/42/42 44/44/44 34/34/34
f 47/47/47 46/46/46 45/45/45
f 46/46/46 48/48/48 45/45/45
f 48/48/48 50/50/50 49/49/49
f 51/51/51 48/48/48 49/49/49
f 54/54/54 53/53/53 52/52/52
f 55/55/55 52/52/52 53/53/53
f 53/53/53 56/56/56 55/55/55
f 56/56/56 57/57/57 55/55/55
f 52/52/52 55/55/55 58/58/58
f 58/58/58 59/59/59 52/52/52
f 55/55/55 60/60/60 58/58/58
f 60/60/60 55/55/55 61/61/61
f 55/55/55 62/62/62 61/61/61
f 63/63/63 60/60/60 61/61/61
f 61/61/61 64/64/64 63/63/63
f 67/67/67 66/66/66 65/65/65
f 68/68/68 67/67/67 65/65/65
f 71/71/71 70/70/70 69/69/69
f 72/72/72 71/71/71 69/69/69
f 75/75/75 74/74/74 73/73/73
f 76/76/76 75/75/75 73/73/73
f 79/79/79 78/78/78 77/77/77
f 80/80/80 79/79/79 77/77/77
f 83/83/83 82/82/82 81/81/81
f 84/84/84 83/83/83 81/81/81
f 87/87/87 86/86/86 85/85/85
f 88/88/88 87/87/87 85/85/85
f 91/91/91 90/90/90 89/89/89
f 92/92/92 91/91/91 89/89/89
f 95/95/95 94/94/94 93/93/93
f 96/96/96 95/95/95 93/93/93
f 99/99/99 98/98/98 97/97/97
f 100/100/100 99/99/99 97/97/97
f 103/103/103 102/102/102 101/101/101
f 101/101/101 104/104/104 103/103/103
f 107/107/107 106/106/106 105/105/105
f 105/105/105 108/108/108 107/107/107
f 111/111/111 110/110/110 109/109/109
f 112/112/112 111/111/111 109/109/109
f 115/115/115 114/114/114 113/113/113
f 116/116/116 115/115/115 113/113/113
f 119/119/119 118/118/118 117/117/117
f 120/120/120 119/119/119 117/117/117
