g beam_mesh
v -0.590574 0.4649803 0.3265865
v 0.7071649 1.870252 0.4835095
v 0.5674062 0.4649803 0.3440419
v -0.590574 0.4649803 0.3265865
v -0.7106423 1.870253 0.4835095
v 1.233157 8.22423 0.9863138
v -0.7106423 1.870253 0.4835095
v -1.375724 8.22423 0.9863137
v -1.267229 8.22423 -1.008299
v -0.7106423 1.870253 0.4835095
v -0.7106423 1.870253 -0.505492
v -0.590574 0.4649803 0.3265865
v -0.5737256 0.4649803 -0.3660246
v -0.7106423 1.870253 0.4835095
v -0.590574 0.4649803 0.3265865
v -1.267229 8.22423 -1.008299
v 0.5362673 0.4649803 -0.3660246
v 0.7071649 1.870252 0.4835095
v 0.5674062 0.4649803 0.3440419
v 0.6684759 1.870253 -0.505492
v 1.233157 8.22423 0.9863138
v 1.164929 8.22423 -1.008298
v -0.7106423 1.870253 -0.505492
v 0.5362673 0.4649803 -0.3660246
v -0.5737256 0.4649803 -0.3660246
v 0.6684759 1.870253 -0.505492
v -1.267229 8.22423 -1.008299
v 1.164929 8.22423 -1.008298
vt 0.770665 0.9923687
vt 0.8874894 0.7887014
vt 0.8876225 0.9923689
vt 0.770665 0.9923687
vt 0.770665 0.7887015
vt 0.8957875 0.4907232
vt 0.770665 0.7887015
vt 0.7706648 0.4907232
vt 0.8957795 0.4907232
vt 0.770665 0.7887015
vt 0.8874813 0.7887014
vt 0.770665 0.9923687
vt 0.8876144 0.9923687
vt 0.770665 0.7887015
vt 0.770665 0.9923687
vt 0.8957795 0.4907232
vt 0.770665 0.9923687
vt 0.8874894 0.7887014
vt 0.8876225 0.9923689
vt 0.770665 0.7887015
vt 0.8957875 0.4907232
vt 0.7706648 0.4907232
vt 0.8874813 0.7887014
vt 0.770665 0.9923687
vt 0.8876144 0.9923687
vt 0.770665 0.7887015
vt 0.8957795 0.4907232
vt 0.7706648 0.4907232
vn -0.6102972 -0.1013398 0.7856638
vn -0.003711128 -0.07074753 0.9974873
vn -0.006917844 -0.06371027 0.9979444
vn -0.6102972 -0.1013398 0.7856638
vn -0.5801511 -0.116482 0.8061368
vn 0 -0.0788856 0.9968836
vn -0.5192657 -0.1440621 0.8423831
vn -0.5192657 -0.1440621 0.8423831
vn -0.9875045 -0.1417497 -0.06886146
vn -0.5192657 -0.1440621 0.8423831
vn -0.9947873 -0.1017792 -0.006260855
vn -0.6102972 -0.1013398 0.7856638
vn -0.9964374 -0.08362736 -0.01090973
vn -0.5801511 -0.116482 0.8061368
vn -0.6102972 -0.1013398 0.7856638
vn -0.9920106 -0.1261552 0
vn -0.5527233 0.09444962 0.8279952
vn -0.9936944 0.1033071 0.04357727
vn -0.9951552 0.08809928 0.04364125
vn -0.5473996 0.110601 0.8295307
vn -0.9914971 0.1226493 0.04348098
vn -0.5405166 0.1307549 0.8311107
vn 0 0.06650694 0.9977859
vn -0.5527233 0.09444962 0.8279952
vn 0 0.05654105 0.9984003
vn -0.5473996 0.110601 0.8295307
vn 0 0.07888601 0.9968836
vn -0.5405166 0.1307549 0.8311107
g beam_mesh_0
f 3/3/3 2/2/2 1/1/1
f 2/2/2 5/5/5 4/4/4
f 6/6/6 5/5/5 2/2/2
f 8/8/8 7/7/7 6/6/6
f 10/10/10 8/8/8 9/9/9
f 13/13/13 12/12/12 11/11/11
f 15/15/15 14/14/14 11/11/11
f 11/11/11 14/14/14 16/16/16
f 19/19/19 18/18/18 17/17/17
f 18/18/18 20/20/20 17/17/17
f 21/21/21 20/20/20 18/18/18
f 22/22/22 20/20/20 21/21/21
f 25/25/25 24/24/24 23/23/23
f 24/24/24 26/26/26 23/23/23
f 23/23/23 26/26/26 27/27/27
f 26/26/26 28/28/28 27/27/27
