g beastman_storm_eyes
v 0.1199071 -0.3383272 -0.03216472
v 0.1131364 -0.3303388 -0.06536126
v 0.1586546 -0.3412802 -0.06794065
v 0.1148472 -0.3198082 -0.1024355
v 0.1659984 -0.3326228 -0.1021413
v 0.1205864 -0.3049824 -0.1293083
v 0.168165 -0.3167337 -0.1292465
v 0.1550267 -0.2901492 -0.1611614
v 0.162888 -0.3039737 -0.1454424
v 0.1356773 -0.2983534 -0.1444969
v 0.1387981 -0.3289087 -0.09586713
v 0.1199071 -0.3383272 0.03216472
v 0.1131364 -0.3303388 0.06536126
v 0.1586546 -0.3412802 0.06794065
v 0.1148472 -0.3198082 0.1024355
v 0.1659984 -0.3326228 0.1021413
v 0.1205864 -0.3049824 0.1293083
v 0.168165 -0.3167337 0.1292465
v 0.1550267 -0.2901492 0.1611614
v 0.162888 -0.3039737 0.1454424
v 0.1356773 -0.2983534 0.144497
v 0.1387981 -0.3289087 0.09586714
vt 0.8373462 0.3879803
vt 0.8358938 0.3866673
vt 0.8357639 0.3911538
vt 0.8340282 0.3866946
vt 0.834043 0.3917429
vt 0.8326759 0.3870508
vt 0.832679 0.3917443
vt 0.831073 0.3901467
vt 0.8318641 0.3910757
vt 0.8319116 0.3884057
vt 0.8373995 0.01794183
vt 0.8373462 0.3879803
vt 0.8358938 0.3866673
vt 0.8357639 0.3911538
vt 0.8340282 0.3866946
vt 0.834043 0.3917429
vt 0.8326759 0.3870508
vt 0.832679 0.3917443
vt 0.831073 0.3901467
vt 0.8318641 0.3910757
vt 0.8319116 0.3884057
vt 0.8373995 0.01794183
vn -0.2268005 -0.9514852 -0.2079364
vn -0.2273066 -0.9449162 -0.2355101
vn -0.2338742 -0.9395891 -0.2499504
vn -0.2305387 -0.890255 -0.3928078
vn -0.2132708 -0.8932104 -0.3958419
vn -0.1674702 -0.8426777 -0.511711
vn -0.2549829 -0.8143502 -0.5213613
vn -0.1980913 -0.8204688 -0.536275
vn -0.2897696 -0.7910944 -0.5387053
vn -0.1232881 -0.8438165 -0.5222777
vn -0.2189106 -0.8827291 -0.4157733
vn -0.2268006 -0.9514852 0.2079364
vn -0.2273067 -0.9449162 0.2355101
vn -0.2338742 -0.9395891 0.2499505
vn -0.230539 -0.890255 0.3928076
vn -0.2132704 -0.8932104 0.3958419
vn -0.1674703 -0.8426777 0.5117108
vn -0.2549822 -0.8143505 0.5213611
vn -0.1980915 -0.8204687 0.5362749
vn -0.2897693 -0.7910946 0.538705
vn -0.1232881 -0.8438165 0.5222777
vn -0.2189105 -0.8827292 0.4157732
g beastman_storm_eyes_0
f 11/11/11 3/3/3 1/1/1
f 2/2/2 11/11/11 1/1/1
f 5/5/5 3/3/3 11/11/11
f 4/4/4 11/11/11 2/2/2
f 5/5/5 11/11/11 7/7/7
f 4/4/4 6/6/6 11/11/11
f 7/7/7 11/11/11 9/9/9
f 11/11/11 6/6/6 10/10/10
f 9/9/9 11/11/11 8/8/8
f 8/8/8 11/11/11 10/10/10
f 14/14/14 22/22/22 12/12/12
f 22/22/22 13/13/13 12/12/12
f 14/14/14 16/16/16 22/22/22
f 22/22/22 15/15/15 13/13/13
f 22/22/22 16/16/16 18/18/18
f 17/17/17 15/15/15 22/22/22
f 22/22/22 18/18/18 20/20/20
f 17/17/17 22/22/22 21/21/21
f 22/22/22 20/20/20 19/19/19
f 22/22/22 19/19/19 21/21/21
