g boar_eyes
v 0.3597879 0.3747957 0.4423165
v 0.4120567 0.3263674 0.4561354
v 0.3838477 0.3528603 0.4511322
v 0.3868704 0.4266673 0.4295895
v 0.4531952 0.3371089 0.4466895
v 0.4235235 0.386914 0.4396247
v 0.4120587 0.4563437 0.3951492
v 0.4930858 0.3510311 0.4219164
v 0.448906 0.4703419 0.3415425
v 0.5209212 0.3689771 0.3731886
v 0.4713334 0.4635074 0.3147868
v 0.5291022 0.3924778 0.3284137
v 0.3507397 0.3174536 0.4563335
v 0.512675 0.4270949 0.3040999
v 0.359789 0.3747957 -0.4423161
v 0.4120579 0.3263674 -0.4561348
v 0.3880253 0.3493066 -0.4511317
v 0.3868714 0.4266673 -0.4295888
v 0.4531962 0.3371089 -0.4466888
v 0.4285836 0.3826095 -0.4396241
v 0.4120597 0.4563437 -0.3951486
v 0.4930868 0.3510311 -0.4219155
v 0.4587769 0.4078377 -0.41483
v 0.4457175 0.4713138 -0.3453467
v 0.520922 0.3689771 -0.3731877
v 0.4863543 0.4177468 -0.3809004
v 0.4713342 0.4635074 -0.3147861
v 0.529103 0.3924778 -0.3284128
v 0.5043963 0.4210409 -0.3329996
v 0.3507408 0.3174536 -0.456333
v 0.5126758 0.4270949 -0.304099
v 0.3979946 0.4397724 -0.41438
v 0.4521461 0.4114769 0.4146559
v 0.4914252 0.445715 0.3087584
v 0.4718116 0.4266374 0.3772312
v 0.4814062 0.4334835 0.3524628
v 0.5127518 0.4269329 0.3042136
v 0.3507408 0.3174536 -0.456333
v 0.3880253 0.3493066 -0.4511317
v 0.4285836 0.3826095 -0.4396241
v 0.4587769 0.4078377 -0.41483
v 0.3979946 0.4397724 -0.41438
v 0.448906 0.4703419 0.3415425
v 0.4914252 0.445715 0.3087584
v 0.4814062 0.4334835 0.3524628
vt 0.08373611 0.1467893
vt 0.08090329 0.1027011
vt 0.0821027 0.1264022
vt 0.1214437 0.1545367
vt 0.1049333 0.08899154
vt 0.1157196 0.1222481
vt 0.1545527 0.1556273
vt 0.1337948 0.07771175
vt 0.1927278 0.1474833
vt 0.1708564 0.07284804
vt 0.008762792 0.5472208
vt 0.2028896 0.07878312
vt 0.0504167 0.1278554
vt 0.2207313 0.1003959
vt 0.01852539 0.5642517
vt 0.2363199 0.1032217
vt 0.2351948 0.1269229
vt 0.009568363 0.5662135
vt 0.213779 0.0895122
vt 0.2036611 0.1227688
vt 0.1672347 0.1561479
vt 0.1867062 0.07823241
vt 0.1767182 0.1161299
vt 0.1314253 0.148004
vt 0.1519413 0.0733687
vt 0.1522196 0.108698
vt 0.1117938 0.1339148
vt 0.1218933 0.07930379
vt 0.1232882 0.1020612
vt 0.2649171 0.1283761
vt 0.1051572 0.1009165
vt 0.1845769 0.1555389
vt 0.1436364 0.119971
vt 0.2176473 0.1147799
vt 0.1713642 0.1179387
vt 0.1884224 0.1166143
vt 0.2206479 0.1002948
vt 0.02644005 0.559457
vt 0.01891339 0.559089
vt 0.01092806 0.558037
vt 0.00410524 0.556356
vt 0.006095305 0.5663355
vt 0.01844861 0.5402695
vt 0.006653078 0.5577108
vt 0.02210198 0.556677
vn -0.06673937 0.2675457 0.961231
vn 0.04801185 0.203108 0.9779785
vn -0.009430822 0.2358724 0.9717382
vn 0.2036752 0.4654703 0.8613093
vn 0.2614547 0.3033227 0.916317
vn 0.2466136 0.3545467 0.9019303
vn 0.4516556 0.6615774 0.5986006
vn 0.4950841 0.42296 0.7589444
vn 0.5977495 0.6780848 0.427664
vn 0.6799452 0.5420867 0.4937778
vn 0.6578969 0.6647874 0.3538776
vn 0.7047561 0.5841966 0.4025337
vn -0.07073081 0.2094065 0.9752671
vn 0.6614023 0.6689135 0.3392665
vn -0.03511488 0.258547 -0.9653603
vn 0.044122 0.2196716 -0.9745756
vn 0.004470315 0.2393635 -0.9709198
vn 0.2078975 0.4550995 -0.8658309
vn 0.2613155 0.3035538 -0.9162802
vn 0.2482487 0.3428279 -0.9060032
vn 0.4162876 0.6658354 -0.6191671
vn 0.5455643 0.4000607 -0.7364177
vn 0.4066509 0.5334151 -0.7416896
vn 0.5962433 0.6944858 -0.4027197
vn 0.7445096 0.4756669 -0.4684511
vn 0.6279014 0.5921977 -0.5050165
vn 0.6592247 0.6643234 -0.3522743
vn 0.7523804 0.5568732 -0.3518749
vn 0.6980909 0.6292096 -0.3417082
vn -0.05085998 0.218656 -0.9744757
vn 0.7055275 0.6254944 -0.3331481
vn 0.3083822 0.5973842 -0.7402921
vn 0.4432443 0.542009 0.7139754
vn 0.6596696 0.6668707 0.3465826
vn 0.601316 0.6160886 0.5087768
vn 0.6551292 0.6403454 0.4009534
vn 0.6842818 0.6349866 0.3585394
vn -0.05085998 0.218656 -0.9744757
vn 0.004470315 0.2393635 -0.9709198
vn 0.2482487 0.3428279 -0.9060032
vn 0.4066509 0.5334151 -0.7416896
vn 0.3083822 0.5973842 -0.7402921
vn 0.5977495 0.6780848 0.427664
vn 0.6596696 0.6668707 0.3465826
vn 0.6551292 0.6403454 0.4009534
g boar_eyes_0
f 32/32/32 21/21/21 23/23/23
f 23/23/23 21/21/21 26/26/26
f 26/26/26 21/21/21 24/24/24
f 26/26/26 22/22/22 23/23/23
f 20/20/20 23/23/23 22/22/22
f 20/20/20 22/22/22 19/19/19
f 20/20/20 19/19/19 16/16/16
f 17/17/17 20/20/20 16/16/16
f 16/16/16 30/30/30 17/17/17
f 25/25/25 22/22/22 26/26/26
f 24/24/24 29/29/29 26/26/26
f 26/26/26 29/29/29 25/25/25
f 24/24/24 27/27/27 29/29/29
f 29/29/29 28/28/28 25/25/25
f 27/27/27 31/31/31 29/29/29
f 29/29/29 31/31/31 28/28/28
f 39/39/39 38/38/38 15/15/15
f 40/40/40 39/39/39 15/15/15
f 18/18/18 40/40/40 15/15/15
f 41/41/41 40/40/40 18/18/18
f 18/18/18 42/42/42 41/41/41
f 36/36/36 9/9/9 7/7/7
f 35/35/35 36/36/36 7/7/7
f 33/33/33 35/35/35 7/7/7
f 7/7/7 4/4/4 33/33/33
f 35/35/35 10/10/10 36/36/36
f 10/10/10 35/35/35 33/33/33
f 10/10/10 12/12/12 36/36/36
f 36/36/36 12/12/12 37/37/37
f 36/36/36 37/37/37 34/34/34
f 37/37/37 14/14/14 34/34/34
f 8/8/8 10/10/10 33/33/33
f 6/6/6 33/33/33 4/4/4
f 33/33/33 6/6/6 8/8/8
f 8/8/8 6/6/6 5/5/5
f 6/6/6 4/4/4 1/1/1
f 5/5/5 6/6/6 2/2/2
f 3/3/3 6/6/6 1/1/1
f 6/6/6 3/3/3 2/2/2
f 13/13/13 3/3/3 1/1/1
f 13/13/13 2/2/2 3/3/3
f 44/44/44 11/11/11 43/43/43
f 45/45/45 44/44/44 43/43/43
