g boar_blink
v 0.3783405 0.3046387 -0.3069751
v 0.4035834 0.3331643 -0.4676328
v 0.4506646 0.3440853 -0.4544121
v 0.4042212 0.3311098 -0.462954
v 0.479564 0.3538646 -0.4534918
v 0.5173812 0.382473 -0.401953
v 0.4909469 0.3650688 -0.4269955
v 0.530066 0.4050967 -0.3613321
v 0.5201863 0.3923336 -0.3775986
v 0.5275683 0.4198335 -0.3141676
v 0.5214265 0.4114521 -0.3336307
v 0.3584669 0.3252593 -0.4547533
v 0.5170112 0.426122 -0.3000474
v 0.2568742 0.3463804 -0.6202863
v 0.3599986 0.5204098 -0.4990565
v 0.4412785 0.5538434 -0.419256
v 0.5027856 0.5537416 -0.3558286
v 0.5482051 0.5312906 -0.3084199
v 0.4714397 0.2333432 -0.4634335
v 0.5604179 0.2636455 -0.4070352
v 0.5972602 0.3187712 -0.3311894
v 0.5512764 0.3879137 -0.3013942
v 0.2877578 0.4566343 -0.5659486
v 0.3783397 0.3046387 0.3069757
v 0.4035823 0.3331643 0.4676333
v 0.4506635 0.3440853 0.4544128
v 0.4042201 0.3311098 0.4629547
v 0.4795629 0.3538646 0.4534926
v 0.5173802 0.382473 0.4019538
v 0.4909458 0.3650688 0.4269964
v 0.5300651 0.4050967 0.361333
v 0.5201855 0.3923336 0.3775995
v 0.5275676 0.4198335 0.3141685
v 0.5214257 0.4114521 0.3336316
v 0.3584659 0.3252593 0.4547538
v 0.5170105 0.426122 0.3000484
v 0.2568727 0.3463804 0.6202866
v 0.3599974 0.5204098 0.4990569
v 0.4412774 0.5538434 0.4192567
v 0.5027847 0.5537416 0.3558296
v 0.5482044 0.5312906 0.3084209
v 0.4714386 0.2333432 0.4634343
v 0.5604169 0.2636455 0.4070362
v 0.5972595 0.3187712 0.3311905
v 0.5512757 0.3879137 0.3013953
v 0.2877564 0.4566343 0.565949
v 0.3783405 0.3046387 -0.3069751
v 0.3584669 0.3252593 -0.4547533
v 0.5170112 0.426122 -0.3000474
v 0.479564 0.3538646 -0.4534918
v 0.5173812 0.382473 -0.401953
v 0.530066 0.4050967 -0.3613321
v 0.3584669 0.3252593 -0.4547533
v 0.4035834 0.3331643 -0.4676328
v 0.4042212 0.3311098 -0.462954
v 0.3584669 0.3252593 -0.4547533
v 0.5275683 0.4198335 -0.3141676
v 0.5170112 0.426122 -0.3000474
v 0.5482051 0.5312906 -0.3084199
v 0.4506646 0.3440853 -0.4544121
v 0.4909469 0.3650688 -0.4269955
v 0.5201863 0.3923336 -0.3775986
v 0.5214265 0.4114521 -0.3336307
v 0.5170112 0.426122 -0.3000474
v 0.4035834 0.3331643 -0.4676328
v 0.2568742 0.3463804 -0.6202863
v 0.530066 0.4050967 -0.3613321
v 0.5482051 0.5312906 -0.3084199
v 0.3783397 0.3046387 0.3069757
v 0.3584659 0.3252593 0.4547538
v 0.5170105 0.426122 0.3000484
v 0.4795629 0.3538646 0.4534926
v 0.5173802 0.382473 0.4019538
v 0.5300651 0.4050967 0.361333
v 0.3584659 0.3252593 0.4547538
v 0.4035823 0.3331643 0.4676333
v 0.4042201 0.3311098 0.4629547
v 0.3584659 0.3252593 0.4547538
v 0.5275676 0.4198335 0.3141685
v 0.5482044 0.5312906 0.3084209
v 0.5170105 0.426122 0.3000484
v 0.4506635 0.3440853 0.4544128
v 0.4909458 0.3650688 0.4269964
v 0.5201855 0.3923336 0.3775995
v 0.5214257 0.4114521 0.3336316
v 0.5170105 0.426122 0.3000484
v 0.4035823 0.3331643 0.4676333
v 0.2568727 0.3463804 0.6202866
v 0.5300651 0.4050967 0.361333
v 0.5482044 0.5312906 0.3084209
vt 0.1225836 0.8697323
vt 0.1246542 0.8713889
vt 0.1235863 0.8683569
vt 0.1246896 0.8692504
vt 0.1228358 0.871836
vt 0.1215001 0.8718789
vt 0.1223459 0.8676643
vt 0.120444 0.8712038
vt 0.1213017 0.8672761
vt 0.1201479 0.8703027
vt 0.1206164 0.8676655
vt 0.1257397 0.8704759
vt 0.1202111 0.8688027
vt 0.2601282 0.7927537
vt 0.2262875 0.8007062
vt 0.2096715 0.7932463
vt 0.1989529 0.7819285
vt 0.194619 0.7727261
vt 0.2476652 0.7361593
vt 0.2300853 0.7262235
vt 0.2147277 0.7306035
vt 0.2076912 0.7437707
vt 0.2425641 0.8015782
vt 0.1225836 0.8697323
vt 0.1246542 0.8713889
vt 0.1235863 0.8683569
vt 0.1246896 0.8692504
vt 0.1228358 0.871836
vt 0.1215001 0.8718789
vt 0.1223459 0.8676643
vt 0.120444 0.8712038
vt 0.1213017 0.8672761
vt 0.1201479 0.8703027
vt 0.1206164 0.8676655
vt 0.1257397 0.8704759
vt 0.1202111 0.8688027
vt 0.2601282 0.7927537
vt 0.2262875 0.8007062
vt 0.2096715 0.7932463
vt 0.1989529 0.7819285
vt 0.194619 0.7727261
vt 0.2476652 0.7361593
vt 0.2300853 0.7262235
vt 0.2147277 0.7306035
vt 0.2076912 0.7437707
vt 0.2425641 0.8015782
vt 0.1225836 0.8697323
vt 0.1257397 0.8704759
vt 0.1202111 0.8688027
vt 0.2341118 0.7591024
vt 0.2260404 0.7591024
vt 0.219108 0.7591024
vt 0.2470733 0.7591024
vt 0.2454081 0.7591024
vt 0.2390881 0.7591024
vt 0.2470733 0.7591024
vt 0.2135751 0.7591024
vt 0.2091872 0.7591024
vt 0.194619 0.7727261
vt 0.234246 0.7591024
vt 0.2250476 0.7591024
vt 0.217295 0.7591024
vt 0.2121829 0.7591024
vt 0.2091872 0.7591024
vt 0.2454081 0.7591024
vt 0.2601282 0.7927537
vt 0.219108 0.7591024
vt 0.194619 0.7727261
vt 0.1225836 0.8697323
vt 0.1257397 0.8704759
vt 0.1202111 0.8688027
vt 0.2341118 0.7591024
vt 0.2260404 0.7591024
vt 0.219108 0.7591024
vt 0.2470733 0.7591024
vt 0.2454081 0.7591024
vt 0.2390881 0.7591024
vt 0.2470733 0.7591024
vt 0.2135751 0.7591024
vt 0.194619 0.7727261
vt 0.2091872 0.7591024
vt 0.234246 0.7591024
vt 0.2250476 0.7591024
vt 0.217295 0.7591024
vt 0.2121829 0.7591024
vt 0.2091872 0.7591024
vt 0.2454081 0.7591024
vt 0.2601282 0.7927537
vt 0.219108 0.7591024
vt 0.194619 0.7727261
vn 0.4652652 -0.8691035 0.167891
vn 0.1756276 -0.9716448 -0.1583074
vn -0.3787413 0.9234713 0.06128467
vn -0.1936617 0.9720346 0.1328302
vn 0.4113436 -0.9112157 -0.02196115
vn 0.564018 -0.809687 0.1621438
vn -0.516979 0.8542333 -0.05493872
vn 0.7660701 -0.6043182 0.2189432
vn -0.5879353 0.7808273 -0.2112839
vn 0.7640604 -0.4646112 0.4476027
vn -0.6019357 0.7203371 -0.3446561
vn 0.1214153 -0.9771551 -0.1744313
vn 0.6414042 -0.397132 0.6564197
vn 0.1150338 -0.9740572 -0.194884
vn 0.6322224 0.2360779 -0.7379445
vn 0.7441296 0.2345058 -0.6255224
vn 0.7265132 0.1580938 -0.6687189
vn 0.9500335 -0.01581223 -0.311747
vn 0.1669393 0.05789184 -0.9842662
vn 0.6093832 0.2691816 -0.7457837
vn 0.7446948 0.4935628 -0.44925
vn 0.7403349 0.6344247 -0.2222826
vn 0.590284 0.05995053 -0.8049663
vn 0.4652654 -0.8691035 -0.1678905
vn 0.1756273 -0.9716448 0.1583078
vn -0.3787413 0.9234713 -0.06128529
vn -0.1936615 0.9720346 -0.1328305
vn 0.4113433 -0.9112158 0.02196214
vn 0.5640184 -0.809687 -0.1621429
vn -0.5169789 0.8542335 0.05493732
vn 0.7660705 -0.6043183 -0.2189413
vn -0.5879356 0.7808273 0.2112829
vn 0.7640606 -0.464611 -0.4476025
vn -0.6019364 0.7203368 0.3446555
vn 0.1214151 -0.9771551 0.1744316
vn 0.6414034 -0.3971307 -0.6564214
vn 0.1150336 -0.9740572 0.1948843
vn 0.6322207 0.2360781 0.7379458
vn 0.7441281 0.2345057 0.6255242
vn 0.7265116 0.1580936 0.6687207
vn 0.9500328 -0.01581255 0.3117495
vn 0.166937 0.05789227 0.9842665
vn 0.609381 0.2691819 0.7457854
vn 0.7446936 0.4935629 0.4492519
vn 0.7403344 0.6344247 0.2222842
vn 0.5902821 0.05995033 0.8049678
vn -0.4564174 0.8848888 -0.09303234
vn -0.09879515 0.9836546 0.1505428
vn -0.5969718 0.7034298 -0.3857607
vn 0.6261774 0.1434921 -0.7663628
vn 0.7275039 0.2838942 -0.6246136
vn 0.9247307 0.108542 -0.3648175
vn 0.1214153 -0.9771551 -0.1744313
vn 0.1756276 -0.9716448 -0.1583074
vn -0.005958603 0.0008072504 -0.999982
vn -0.1621822 -0.1066961 -0.9809755
vn 0.7640604 -0.4646112 0.4476027
vn 0.6414042 -0.397132 0.6564197
vn 0.9014723 -0.1870404 0.3903379
vn 0.3257374 0.1386222 -0.9352427
vn 0.6446201 0.2987296 -0.7037226
vn 0.7424002 0.488769 -0.4581994
vn 0.7425833 0.6242251 -0.2427202
vn 0.727215 0.6589427 -0.1922314
vn 0.5994725 -0.07236572 -0.7971173
vn 0.5994725 -0.07236572 -0.7971173
vn 0.9426522 -0.309763 -0.1243132
vn 0.9961725 -0.08129846 0.03210962
vn -0.4564175 0.8848888 0.09303153
vn -0.09879455 0.9836547 -0.150543
vn -0.5969726 0.7034295 0.3857597
vn 0.6261757 0.1434921 0.7663642
vn 0.7275025 0.2838943 0.6246152
vn 0.9247297 0.1085418 0.3648198
vn 0.1214151 -0.9771551 0.1744316
vn 0.1756273 -0.9716448 0.1583078
vn -0.005960676 0.000807668 0.9999819
vn -0.1621858 -0.1066967 0.9809748
vn 0.7640606 -0.464611 -0.4476025
vn 0.9014725 -0.1870405 -0.3903374
vn 0.6414034 -0.3971307 -0.6564214
vn 0.3257359 0.1386231 0.9352432
vn 0.6446181 0.2987298 0.7037244
vn 0.7423991 0.4887691 0.4582013
vn 0.7425827 0.6242252 0.2427219
vn 0.7272145 0.6589429 0.1922329
vn 0.5994705 -0.07236643 0.7971187
vn 0.5994705 -0.07236643 0.7971187
vn 0.9426519 -0.3097632 0.1243156
vn 0.9961725 -0.0812986 -0.03210834
g boar_blink_0
f 14/14/14 54/54/54 53/53/53
f 59/59/59 58/58/58 57/57/57
f 68/68/68 57/57/57 67/67/67
f 76/76/76 37/37/37 75/75/75
f 81/81/81 80/80/80 79/79/79
f 79/79/79 90/90/90 89/89/89
f 2/2/2 1/1/1 12/12/12
f 5/5/5 1/1/1 2/2/2
f 6/6/6 1/1/1 5/5/5
f 8/8/8 1/1/1 6/6/6
f 10/10/10 1/1/1 8/8/8
f 13/13/13 1/1/1 10/10/10
f 48/48/48 47/47/47 4/4/4
f 4/4/4 47/47/47 3/3/3
f 3/3/3 47/47/47 7/7/7
f 7/7/7 47/47/47 9/9/9
f 9/9/9 47/47/47 11/11/11
f 11/11/11 47/47/47 49/49/49
f 18/18/18 52/52/52 17/17/17
f 52/52/52 16/16/16 17/17/17
f 51/51/51 16/16/16 52/52/52
f 15/15/15 16/16/16 51/51/51
f 15/15/15 51/51/51 50/50/50
f 23/23/23 15/15/15 50/50/50
f 23/23/23 50/50/50 65/65/65
f 66/66/66 23/23/23 65/65/65
f 19/19/19 56/56/56 55/55/55
f 55/55/55 60/60/60 19/19/19
f 20/20/20 19/19/19 60/60/60
f 61/61/61 20/20/20 60/60/60
f 20/20/20 61/61/61 21/21/21
f 21/21/21 61/61/61 62/62/62
f 21/21/21 62/62/62 63/63/63
f 22/22/22 21/21/21 63/63/63
f 64/64/64 22/22/22 63/63/63
f 24/24/24 25/25/25 35/35/35
f 24/24/24 28/28/28 25/25/25
f 24/24/24 29/29/29 28/28/28
f 24/24/24 31/31/31 29/29/29
f 24/24/24 33/33/33 31/31/31
f 24/24/24 36/36/36 33/33/33
f 69/69/69 70/70/70 27/27/27
f 69/69/69 27/27/27 26/26/26
f 69/69/69 26/26/26 30/30/30
f 69/69/69 30/30/30 32/32/32
f 69/69/69 32/32/32 34/34/34
f 69/69/69 34/34/34 71/71/71
f 74/74/74 41/41/41 40/40/40
f 39/39/39 74/74/74 40/40/40
f 39/39/39 73/73/73 74/74/74
f 39/39/39 38/38/38 73/73/73
f 73/73/73 38/38/38 72/72/72
f 38/38/38 46/46/46 72/72/72
f 72/72/72 46/46/46 87/87/87
f 46/46/46 88/88/88 87/87/87
f 78/78/78 42/42/42 77/77/77
f 82/82/82 77/77/77 42/42/42
f 42/42/42 43/43/43 82/82/82
f 43/43/43 83/83/83 82/82/82
f 83/83/83 43/43/43 44/44/44
f 83/83/83 44/44/44 84/84/84
f 84/84/84 44/44/44 85/85/85
f 44/44/44 45/45/45 85/85/85
f 45/45/45 86/86/86 85/85/85
