g carrouselBeamBack_mesh
v -3.362343 -4.147105 -5.722046E-06
v -2.292848 6.392466 0.5902367
v -2.410842 6.392466 0.0003118515
v -3.197778 -4.147105 1.039015
v -1.950417 6.392466 1.122402
v -2.720192 -4.147105 1.97633
v -1.417066 6.392466 1.54474
v -1.976335 -4.147105 2.720182
v -0.7450052 6.392466 1.815892
v -1.039022 -4.147105 3.197771
v -2.169609E-05 6.392466 1.90933
v -1.072884E-06 -4.147105 3.362334
v 0.7449623 6.392466 1.815892
v 1.039019 -4.147105 3.197771
v 1.417022 6.392466 1.54474
v 1.976333 -4.147105 2.720188
v 1.950372 6.392466 1.122402
v 2.72019 -4.147105 1.976336
v 2.292804 6.392466 0.5902424
v 3.197775 -4.147105 1.039021
v 2.410798 6.392466 0.0003175735
v 3.36234 -4.147105 0
v -3.362343 -4.147105 -5.722046E-06
v -2.410842 6.392466 0.0003118515
v -3.292487 6.43493 0.0003118515
v -4.462683 -4.104634 -5.722046E-06
v 3.36234 -4.147105 0
v 4.46268 -4.104632 0
v 3.292442 6.434938 0.0003175735
v 2.410798 6.392466 0.0003175735
vt 0.5038971 0.9628735
vt 0.4745362 0.01655042
vt 0.4763098 0.01655084
vt 0.5007733 0.9628735
vt 0.469389 0.01655042
vt 0.4917075 0.962874
vt 0.461372 0.01655042
vt 0.4775873 0.9628735
vt 0.4512702 0.01655084
vt 0.4597948 0.962874
vt 0.4400721 0.01655042
vt 0.4400717 0.962874
vt 0.4288741 0.01655042
vt 0.4203487 0.9628735
vt 0.4187721 0.01655042
vt 0.4025561 0.9628735
vt 0.4107554 0.01655042
vt 0.3884359 0.9628735
vt 0.4056081 0.01655042
vt 0.3793701 0.962874
vt 0.4038346 0.01655042
vt 0.3762464 0.9628735
vt 0.3623888 0.9551835
vt 0.4595674 0
vt 0.4595674 0.9878787
vt 0.3623888 0.9878787
vt 0.3623888 0.9551835
vt 0.3623888 0.9878787
vt 0.4595674 0.9878787
vt 0.4595674 0
vn 0.9812844 -0.09004267 -0.1702151
vn 0.9380388 -0.09589344 -0.3329979
vn 0.9812844 -0.09004266 -0.1702151
vn 0.9372774 -0.09595342 -0.3351176
vn 0.778661 -0.1073704 -0.6181897
vn 0.7765309 -0.1075174 -0.620838
vn 0.5495529 -0.1209023 -0.8266645
vn 0.5469295 -0.1210384 -0.8283827
vn 0.2824759 -0.1313623 -0.9502375
vn 0.2807248 -0.1314115 -0.9507496
vn 0 -0.1352506 -0.9908115
vn 0 -0.1352506 -0.9908115
vn -0.2824741 -0.1313635 -0.9502379
vn -0.2807235 -0.1314127 -0.9507497
vn -0.5495514 -0.1209048 -0.8266653
vn -0.5469284 -0.1210409 -0.828383
vn -0.7786601 -0.1073737 -0.6181904
vn -0.7765301 -0.1075207 -0.6208383
vn -0.9380383 -0.09589715 -0.3329983
vn -0.937277 -0.09595709 -0.3351177
vn -0.9812842 -0.09004643 -0.1702147
vn -0.9812842 -0.09004642 -0.1702147
vn 0 3.000214E-05 -1
vn 0 3.000214E-05 -1
vn 0 3.000214E-05 -1
vn 0 3.000214E-05 -1
vn 0 3.000211E-05 -1
vn 0 3.000211E-05 -1
vn 0 3.000211E-05 -1
vn 0 3.000211E-05 -1
g carrouselBeamBack_mesh_0
f 3/3/3 2/2/2 1/1/1
f 2/2/2 4/4/4 1/1/1
f 2/2/2 5/5/5 4/4/4
f 5/5/5 6/6/6 4/4/4
f 5/5/5 7/7/7 6/6/6
f 7/7/7 8/8/8 6/6/6
f 7/7/7 9/9/9 8/8/8
f 9/9/9 10/10/10 8/8/8
f 9/9/9 11/11/11 10/10/10
f 11/11/11 12/12/12 10/10/10
f 11/11/11 13/13/13 12/12/12
f 13/13/13 14/14/14 12/12/12
f 13/13/13 15/15/15 14/14/14
f 15/15/15 16/16/16 14/14/14
f 15/15/15 17/17/17 16/16/16
f 17/17/17 18/18/18 16/16/16
f 17/17/17 19/19/19 18/18/18
f 19/19/19 20/20/20 18/18/18
f 19/19/19 21/21/21 20/20/20
f 21/21/21 22/22/22 20/20/20
f 25/25/25 24/24/24 23/23/23
f 26/26/26 25/25/25 23/23/23
f 29/29/29 28/28/28 27/27/27
f 30/30/30 29/29/29 27/27/27
