g carrouselBeamFront_mesh
v -3.197778 -4.147105 -1.039026
v -2.410842 6.392466 0.0003118515
v -3.362343 -4.147105 -5.722046E-06
v -2.292848 6.392466 -0.5895996
v -2.720192 -4.147105 -1.976343
v -1.950417 6.392466 -1.121773
v -1.976336 -4.147105 -2.720205
v -1.417066 6.392466 -1.544111
v -1.039022 -4.147105 -3.197781
v -0.7450057 6.392466 -1.81526
v -1.072884E-06 -4.147105 -3.362347
v -2.169609E-05 6.392466 -1.908701
v 1.03902 -4.147105 -3.197781
v 0.7449633 6.392466 -1.81526
v 1.976334 -4.147105 -2.720194
v 1.417024 6.392466 -1.544111
v 2.720191 -4.147105 -1.976332
v 1.950374 6.392466 -1.121773
v 3.197777 -4.147105 -1.039026
v 2.292806 6.392466 -0.5895967
v 3.36234 -4.147105 0
v 2.410798 6.392466 0.0003175735
vt 0.4581363 0.4786162
vt 0.4400299 0.005697608
vt 0.4604483 0.4786162
vt 0.4387171 0.005697489
vt 0.4514263 0.4786163
vt 0.4349075 0.005697489
vt 0.4409754 0.4786162
vt 0.4289739 0.005697489
vt 0.4278065 0.4786162
vt 0.421497 0.005697608
vt 0.4132087 0.4786163
vt 0.413209 0.005697489
vt 0.3986109 0.4786162
vt 0.4049209 0.005697489
vt 0.3854418 0.4786162
vt 0.397444 0.005697489
vt 0.374991 0.4786162
vt 0.3915105 0.005697489
vt 0.368281 0.4786163
vt 0.3877008 0.005697489
vt 0.365969 0.4786162
vt 0.3863881 0.005697489
vn -0.9372735 0.09597387 -0.3351232
vn -0.9812832 0.09005291 -0.1702163
vn -0.9812832 0.0900529 -0.1702163
vn -0.9380389 0.09591343 -0.332992
vn -0.776527 0.1075552 -0.6208364
vn -0.7786632 0.1074076 -0.6181806
vn -0.546922 0.1210888 -0.8283803
vn -0.5495507 0.1209523 -0.8266587
vn -0.280718 0.1314686 -0.9507437
vn -0.282472 0.1314193 -0.9502307
vn 0 0.1353099 -0.9908034
vn 0 0.1353099 -0.9908034
vn 0.2807209 0.1314694 -0.9507425
vn 0.2824745 0.1314202 -0.9502299
vn 0.5469242 0.1210902 -0.8283786
vn 0.5495524 0.1209537 -0.8266574
vn 0.7765258 0.1075577 -0.6208373
vn 0.7786616 0.1074102 -0.6181821
vn 0.9372735 0.09597745 -0.335122
vn 0.9380389 0.09591702 -0.332991
vn 0.9812835 0.09005672 -0.170213
vn 0.9812835 0.09005672 -0.170213
g carrouselBeamFront_mesh_0
f 3/3/3 2/2/2 1/1/1
f 2/2/2 4/4/4 1/1/1
f 1/1/1 4/4/4 5/5/5
f 4/4/4 6/6/6 5/5/5
f 5/5/5 6/6/6 7/7/7
f 6/6/6 8/8/8 7/7/7
f 7/7/7 8/8/8 9/9/9
f 8/8/8 10/10/10 9/9/9
f 9/9/9 10/10/10 11/11/11
f 10/10/10 12/12/12 11/11/11
f 11/11/11 12/12/12 13/13/13
f 12/12/12 14/14/14 13/13/13
f 13/13/13 14/14/14 15/15/15
f 14/14/14 16/16/16 15/15/15
f 15/15/15 16/16/16 17/17/17
f 16/16/16 18/18/18 17/17/17
f 17/17/17 18/18/18 19/19/19
f 18/18/18 20/20/20 19/19/19
f 19/19/19 20/20/20 21/21/21
f 20/20/20 22/22/22 21/21/21
