g checkpoint_crystal_shatter_09_mesh
v -0.8536772 -1.725163 1.326179
v -0.02585544 0.3232467 0.1600962
v 0.6389289 -1.944303 1.538085
v -0.6210112 -3.196591 0.6094053
v 0.1830182 -3.193012 0.912839
v -0.01279783 -4.572428 0.1500489
v -0.8536772 -1.725163 1.326179
v 0.6389289 -1.944303 1.538085
v 0.6389289 -1.944303 1.538085
v -0.02585544 0.3232467 0.1600962
v 0.1830182 -3.193012 0.912839
v -0.01279783 -4.572428 0.1500489
v -0.01279783 -4.572428 0.1500489
v -0.02585544 0.3232467 0.1600962
v -0.6210112 -3.196591 0.6094053
v -0.8536772 -1.725163 1.326179
vt 0.1888443 0.1964442
vt 0.1846014 0.1993929
vt 0.1890617 0.2014335
vt 0.1879797 0.1999992
vt 0.1861494 0.1977013
vt 0.1887119 0.1967757
vt 0.1861348 0.2026797
vt 0.1829181 0.1982701
vt 0.1808286 0.196393
vt 0.1846466 0.1943172
vt 0.1832237 0.192219
vt 0.185121 0.1876081
vt 0.1762709 0.1876081
vt 0.1765106 0.1943172
vt 0.1788076 0.192207
vt 0.1807287 0.1971255
vn -0.8203704 0.1415248 0.5540425
vn 0.0912946 0.9514439 -0.2939723
vn 0.7687461 -0.03584694 0.6385487
vn -0.9388899 -0.2817474 -0.1977477
vn 0.852103 -0.3613098 0.37865
vn 0.375504 -0.1957451 -0.9059142
vn -0.8203704 0.1415248 0.5540425
vn 0.7687461 -0.03584694 0.6385487
vn 0.7687461 -0.03584694 0.6385487
vn 0.0912946 0.9514439 -0.2939723
vn 0.852103 -0.3613098 0.37865
vn 0.375504 -0.1957451 -0.9059142
vn 0.375504 -0.1957451 -0.9059142
vn 0.0912946 0.9514439 -0.2939723
vn -0.9388899 -0.2817474 -0.1977477
vn -0.8203704 0.1415248 0.5540425
g checkpoint_crystal_shatter_09_mesh_0
f 3/3/3 2/2/2 1/1/1
f 6/6/6 5/5/5 4/4/4
f 7/7/7 4/4/4 5/5/5
f 8/8/8 7/7/7 5/5/5
f 11/11/11 10/10/10 9/9/9
f 12/12/12 10/10/10 11/11/11
f 15/15/15 14/14/14 13/13/13
f 16/16/16 14/14/14 15/15/15
