g chest1RewardGlow_mesh
v -1.084249 -2.664535E-15 -0.2905237
v -0.6853815 -2.664535E-15 0
v -1.123146 -2.664535E-15 1.0254E-17
v -0.6616451 -2.664535E-15 -0.1772873
v 0 -2.664535E-15 0
v -0.5935578 -2.664535E-15 -0.3426908
v 0 -2.664535E-15 0
v -0.9726733 -2.664535E-15 -0.5615732
v -0.7937254 -2.664535E-15 -0.7937254
v -0.4843578 -2.664535E-15 -0.4843578
v 0 -2.664535E-15 0
v -0.3426908 -2.664535E-15 -0.5935578
v 0 -2.664535E-15 0
v -0.5615732 -2.664535E-15 -0.9726733
v -0.2905237 -2.664535E-15 -1.084249
v -0.1772873 -2.664535E-15 -0.6616451
v 0 -2.664535E-15 0
v 9.486782E-18 -2.664535E-15 -0.6853815
v 3.150968E-18 -2.664535E-15 -1.123146
v 0.2905237 -2.664535E-15 -1.084249
v 0.1772873 -2.664535E-15 -0.6616451
v 0 -2.664535E-15 0
v 0.3426908 -2.664535E-15 -0.5935578
v 0.5615732 -2.664535E-15 -0.9726733
v 0.7937254 -2.664535E-15 -0.7937254
v 0.4843578 -2.664535E-15 -0.4843578
v 0 -2.664535E-15 0
v 0.5935578 -2.664535E-15 -0.3426908
v 0 -2.664535E-15 0
v 0.9726733 -2.664535E-15 -0.5615732
v 1.084249 -2.664535E-15 -0.2905237
v 0.6616451 -2.664535E-15 -0.1772873
v 0 -2.664535E-15 0
v 0.6853815 -2.664535E-15 0
v 1.123146 -2.664535E-15 1.0254E-17
v 0 -2.664535E-15 0
v -0.6853815 -2.664535E-15 0
v -1.084249 -2.664535E-15 0.2905237
v -1.123146 -2.664535E-15 1.0254E-17
v -0.6616451 -2.664535E-15 0.1772873
v 0 -2.664535E-15 0
v -0.5935578 -2.664535E-15 0.3426908
v 0 -2.664535E-15 0
v -0.9726733 -2.664535E-15 0.5615732
v -0.7937254 -2.664535E-15 0.7937254
v -0.4843578 -2.664535E-15 0.4843578
v 0 -2.664535E-15 0
v -0.3426908 -2.664535E-15 0.5935578
v 0 -2.664535E-15 0
v -0.5615732 -2.664535E-15 0.9726733
v -0.2905237 -2.664535E-15 1.084249
v -0.1772873 -2.664535E-15 0.6616451
v 0 -2.664535E-15 0
v 9.486782E-18 -2.664535E-15 0.6853815
v 3.150968E-18 -2.664535E-15 1.123146
v 0 -2.664535E-15 0
v 0.2905237 -2.664535E-15 1.084249
v 0.1772873 -2.664535E-15 0.6616451
v 0.3426908 -2.664535E-15 0.5935578
v 0.5615732 -2.664535E-15 0.9726733
v 0.7937254 -2.664535E-15 0.7937254
v 0.4843578 -2.664535E-15 0.4843578
v 0 -2.664535E-15 0
v 0.5935578 -2.664535E-15 0.3426908
v 0 -2.664535E-15 0
v 0.9726733 -2.664535E-15 0.5615732
v 1.084249 -2.664535E-15 0.2905237
v 0.6616451 -2.664535E-15 0.1772873
v 0 -2.664535E-15 0
v 0.6853815 -2.664535E-15 0
v 1.123146 -2.664535E-15 1.0254E-17
v 0 -2.664535E-15 0
vt 0.4435349 0.4487832
vt 0.4283271 0.2690906
vt 0.4458875 0.450216
vt 0.4271508 0.2683742
vt 0.4107668 0.1371315
vt 0.4259745 0.2676578
vt 0.4107668 0.1371315
vt 0.4411823 0.4473504
vt 0.4347547 0.4463015
vt 0.4227607 0.2671334
vt 0.4107668 0.1371315
vt 0.419547 0.266609
vt 0.4107668 0.1371315
vt 0.4283271 0.4452527
vt 0.419547 0.4448688
vt 0.4151569 0.266417
vt 0.4107668 0.1371315
vt 0.4107668 0.2662251
vt 0.4107668 0.4444849
vt 0.4019866 0.4448688
vt 0.4063767 0.266417
vt 0.4107668 0.1371315
vt 0.4019866 0.266609
vt 0.3932064 0.4452527
vt 0.386779 0.4463016
vt 0.3987729 0.2671334
vt 0.4107668 0.1371315
vt 0.3955591 0.2676578
vt 0.4107668 0.1371315
vt 0.3803515 0.4473505
vt 0.3779988 0.4487832
vt 0.3943828 0.2683742
vt 0.4107668 0.1371315
vt 0.3932065 0.2690906
vt 0.3756461 0.450216
vt 0.4107668 0.1371315
vt 0.4283271 0.2690906
vt 0.4435349 0.4516487
vt 0.4458875 0.450216
vt 0.4271508 0.269807
vt 0.4107668 0.1371315
vt 0.4259745 0.2705233
vt 0.4107668 0.1371315
vt 0.4411823 0.4530815
vt 0.4347547 0.4541303
vt 0.4227607 0.2710477
vt 0.4107668 0.1371315
vt 0.419547 0.2715721
vt 0.4107668 0.1371315
vt 0.4283271 0.4551791
vt 0.4195469 0.455563
vt 0.4151569 0.2717641
vt 0.4107668 0.1371315
vt 0.4107668 0.2719561
vt 0.4107668 0.455947
vt 0.4107668 0.1371315
vt 0.4019866 0.4555631
vt 0.4063767 0.2717642
vt 0.4019866 0.2715722
vt 0.3932064 0.4551791
vt 0.386779 0.4541303
vt 0.3987729 0.2710478
vt 0.4107668 0.1371315
vt 0.3955591 0.2705234
vt 0.4107668 0.1371315
vt 0.3803515 0.4530815
vt 0.3779988 0.4516487
vt 0.3943828 0.269807
vt 0.4107668 0.1371315
vt 0.3932065 0.2690906
vt 0.3756461 0.450216
vt 0.4107668 0.1371315
vn 0 1 0
vn 0 1 0
vn 0 1 0
vn 0 1 0
vn 0 1 0
vn 0 1 0
vn 0 1 0
vn 0 1 0
vn 0 1 0
vn 0 1 0
vn 0 1 0
vn 0 1 0
vn 0 1 0
vn 0 1 0
vn 0 1 0
vn 0 1 0
vn 0 1 0
vn 0 1 0
vn 0 1 0
vn 0 1 0
vn 0 1 0
vn 0 1 0
vn 0 1 0
vn 0 1 0
vn 0 1 0
vn 0 1 0
vn 0 1 0
vn 0 1 0
vn 0 1 0
vn 0 1 0
vn 0 1 0
vn 0 1 0
vn 0 1 0
vn 0 1 0
vn 0 1 0
vn 0 1 0
vn 0 1 0
vn 0 1 0
vn 0 1 0
vn 0 1 0
vn 0 1 0
vn 0 1 0
vn 0 1 0
vn 0 1 0
vn 0 1 0
vn 0 1 0
vn 0 1 0
vn 0 1 0
vn 0 1 0
vn 0 1 0
vn 0 1 0
vn 0 1 0
vn 0 1 0
vn 0 1 0
vn 0 1 0
vn 0 1 0
vn 0 1 0
vn 0 1 0
vn 0 1 0
vn 0 1 0
vn 0 1 0
vn 0 1 0
vn 0 1 0
vn 0 1 0
vn 0 1 0
vn 0 1 0
vn 0 1 0
vn 0 1 0
vn 0 1 0
vn 0 1 0
vn 0 1 0
vn 0 1 0
g chest1RewardGlow_mesh_0
f 3/3/3 2/2/2 1/1/1
f 2/2/2 4/4/4 1/1/1
f 4/4/4 2/2/2 5/5/5
f 1/1/1 4/4/4 6/6/6
f 7/7/7 6/6/6 4/4/4
f 8/8/8 1/1/1 6/6/6
f 8/8/8 6/6/6 9/9/9
f 6/6/6 10/10/10 9/9/9
f 10/10/10 6/6/6 11/11/11
f 9/9/9 10/10/10 12/12/12
f 13/13/13 12/12/12 10/10/10
f 14/14/14 9/9/9 12/12/12
f 14/14/14 12/12/12 15/15/15
f 12/12/12 16/16/16 15/15/15
f 16/16/16 12/12/12 17/17/17
f 17/17/17 18/18/18 16/16/16
f 15/15/15 16/16/16 18/18/18
f 19/19/19 15/15/15 18/18/18
f 19/19/19 18/18/18 20/20/20
f 18/18/18 21/21/21 20/20/20
f 21/21/21 18/18/18 22/22/22
f 22/22/22 23/23/23 21/21/21
f 20/20/20 21/21/21 23/23/23
f 24/24/24 20/20/20 23/23/23
f 24/24/24 23/23/23 25/25/25
f 23/23/23 26/26/26 25/25/25
f 26/26/26 23/23/23 27/27/27
f 25/25/25 26/26/26 28/28/28
f 29/29/29 28/28/28 26/26/26
f 30/30/30 25/25/25 28/28/28
f 30/30/30 28/28/28 31/31/31
f 28/28/28 32/32/32 31/31/31
f 32/32/32 28/28/28 33/33/33
f 31/31/31 32/32/32 34/34/34
f 35/35/35 31/31/31 34/34/34
f 36/36/36 34/34/34 32/32/32
f 39/39/39 38/38/38 37/37/37
f 38/38/38 40/40/40 37/37/37
f 41/41/41 37/37/37 40/40/40
f 42/42/42 40/40/40 38/38/38
f 40/40/40 42/42/42 43/43/43
f 44/44/44 42/42/42 38/38/38
f 44/44/44 45/45/45 42/42/42
f 45/45/45 46/46/46 42/42/42
f 47/47/47 42/42/42 46/46/46
f 48/48/48 46/46/46 45/45/45
f 46/46/46 48/48/48 49/49/49
f 50/50/50 48/48/48 45/45/45
f 50/50/50 51/51/51 48/48/48
f 51/51/51 52/52/52 48/48/48
f 53/53/53 48/48/48 52/52/52
f 54/54/54 52/52/52 51/51/51
f 55/55/55 54/54/54 51/51/51
f 52/52/52 54/54/54 56/56/56
f 55/55/55 57/57/57 54/54/54
f 56/56/56 54/54/54 58/58/58
f 57/57/57 58/58/58 54/54/54
f 58/58/58 59/59/59 56/56/56
f 59/59/59 58/58/58 57/57/57
f 60/60/60 59/59/59 57/57/57
f 60/60/60 61/61/61 59/59/59
f 61/61/61 62/62/62 59/59/59
f 63/63/63 59/59/59 62/62/62
f 64/64/64 62/62/62 61/61/61
f 62/62/62 64/64/64 65/65/65
f 66/66/66 64/64/64 61/61/61
f 66/66/66 67/67/67 64/64/64
f 67/67/67 68/68/68 64/64/64
f 69/69/69 64/64/64 68/68/68
f 70/70/70 68/68/68 67/67/67
f 71/71/71 70/70/70 67/67/67
f 68/68/68 70/70/70 72/72/72
