g dragon_blink
v 0.6627716 0.04379547 -0.5261879
v 0.7209784 -0.02581358 -0.4922283
v 0.7790531 -0.0598681 -0.4361334
v 0.7310244 0.2521679 -0.5068583
v 0.8098216 -0.07155144 -0.3704052
v 0.8960629 0.1267885 -0.2852564
v 0.8096277 -0.0927453 -0.2987545
v 0.9447122 0.07725942 -0.2255793
v 0.6121526 0.1103505 -0.5372937
v 0.7543787 -0.0688554 -0.221252
v 0.5613803 -0.0605036 -0.5468748
v 0.6712251 -0.1330937 -0.4720125
v 0.7771586 -0.1786963 -0.3710322
v 0.8098245 -0.142915 -0.2372811
v 0.8569724 0.1664135 -0.3525157
v 0.8072143 -0.1755853 -0.279417
v 0.8110947 0.2171997 -0.4366062
v 0.6627716 0.04379523 0.5261879
v 0.7209784 -0.0258131 0.4922283
v 0.7790531 -0.05986834 0.4361335
v 0.7310244 0.2521678 0.5068585
v 0.8098217 -0.0715512 0.3704052
v 0.8960629 0.1267885 0.2852566
v 0.8096278 -0.0927453 0.2987545
v 0.9447122 0.07725942 0.2255795
v 0.6121526 0.1103503 0.5372939
v 0.7543787 -0.0688554 0.221252
v 0.56138 -0.06050277 0.5468746
v 0.6712251 -0.1330942 0.4720128
v 0.7771586 -0.178696 0.3710322
v 0.8098245 -0.142915 0.2372811
v 0.8569725 0.1664135 0.3525159
v 0.8072143 -0.1755853 0.279417
v 0.8110948 0.2171997 0.4366062
v 0.8285785 0.02345276 -0.2166154
v 0.8335217 0.0572468 -0.2637553
v 0.8531918 0.1077986 -0.3132985
v 0.8285786 0.02345276 0.2166154
v 0.82716 0.04659748 0.258147
v 0.8531436 0.1021336 0.3109648
v 0.6627716 0.04379547 -0.5261879
v 0.7209784 -0.02581358 -0.4922283
v 0.6627716 0.04379523 0.5261879
v 0.7790531 -0.05986834 0.4361335
v 0.8096278 -0.0927453 0.2987545
v 0.7209784 -0.0258131 0.4922283
v 0.8098217 -0.0715512 0.3704052
v 0.82716 0.04659748 0.258147
v 0.7790531 -0.0598681 -0.4361334
v 0.8335217 0.0572468 -0.2637553
v 0.8285785 0.02345276 -0.2166154
v 0.8335217 0.0572468 -0.2637553
v 0.8096277 -0.0927453 -0.2987545
v 0.8098216 -0.07155144 -0.3704052
v 0.8335217 0.0572468 -0.2637553
v 0.8285786 0.02345276 0.2166154
v 0.82716 0.04659748 0.258147
v 0.82716 0.04659748 0.258147
vt 0.6785159 0.2693367
vt 0.6608027 0.2611278
vt 0.6339965 0.2497828
vt 0.670429 0.3272218
vt 0.6136486 0.2424573
vt 0.5936849 0.2744235
vt 0.5942844 0.2338086
vt 0.5797081 0.2505966
vt 0.6916546 0.2723437
vt 0.5838836 0.2294394
vt 0.6782847 0.2260318
vt 0.6413555 0.2128902
vt 0.6224367 0.2030499
vt 0.5928108 0.2184384
vt 0.6180002 0.2968129
vt 0.6053071 0.210381
vt 0.6457692 0.3156038
vt 0.6785159 0.2693367
vt 0.6608027 0.2611278
vt 0.6336209 0.2511604
vt 0.670429 0.3272218
vt 0.6042616 0.2412275
vt 0.5936849 0.2744235
vt 0.5937387 0.2349631
vt 0.5797081 0.2505966
vt 0.6916546 0.2723437
vt 0.5838836 0.2294394
vt 0.6782847 0.2260318
vt 0.6413555 0.2128902
vt 0.6224367 0.2030499
vt 0.5928108 0.2184384
vt 0.6180002 0.2968129
vt 0.6053071 0.210381
vt 0.6457692 0.3156038
vt 0.5817959 0.240018
vt 0.5849979 0.2469724
vt 0.5972597 0.2700803
vt 0.5817959 0.240018
vt 0.5843284 0.2454486
vt 0.595542 0.2685947
vt 0.6787938 0.2682903
vt 0.6606146 0.2621295
vt 0.6787938 0.2682903
vt 0.6339965 0.2497828
vt 0.5942844 0.2338086
vt 0.6606146 0.2621295
vt 0.6136486 0.2424573
vt 0.5843284 0.2454486
vt 0.6336209 0.2511604
vt 0.5849979 0.2469724
vt 0.5817959 0.240018
vt 0.5849979 0.2469724
vt 0.5937387 0.2349631
vt 0.6042616 0.2412275
vt 0.5849979 0.2469724
vt 0.5817959 0.240018
vt 0.5843284 0.2454486
vt 0.5843284 0.2454486
vn 0.3912904 -0.05580532 -0.9185737
vn 0.5800445 -0.1362663 -0.8031064
vn 0.7646067 -0.2310694 -0.6016508
vn 0.438154 -0.0603202 -0.8968737
vn 0.9646105 -0.1819855 -0.1908087
vn 0.5329053 -0.5360403 -0.654731
vn 0.988535 -0.02640616 0.1486649
vn 0.3841978 -0.6989475 -0.6032117
vn 0.2191852 0.003895884 -0.9756755
vn 0.9005495 0.05172161 0.4316659
vn 0.3325422 -0.1754815 -0.9266185
vn 0.4778524 -0.3853598 -0.7894017
vn 0.7945124 -0.328274 -0.5108681
vn 0.9496729 0.2441646 0.1962273
vn 0.7994199 -0.2203918 -0.5588875
vn 0.9868243 -0.1168018 -0.1119602
vn 0.661902 -0.1021221 -0.7426014
vn 0.3108796 -0.05359663 0.9489369
vn 0.5402415 -0.1492912 0.8281613
vn 0.7332232 -0.2664896 0.6255932
vn 0.44834 -0.03814473 0.8930489
vn 0.9589726 -0.1923458 0.2082659
vn 0.5452336 -0.5304181 0.6491355
vn 0.9837803 -0.04119163 -0.1745844
vn 0.3994194 -0.719528 0.5681053
vn 0.2191869 0.003893764 0.9756752
vn 0.8987299 0.04964394 -0.4356833
vn 0.3325413 -0.1754815 0.9266188
vn 0.4778525 -0.3853579 0.7894024
vn 0.794513 -0.3282743 0.5108668
vn 0.9496728 0.2441641 -0.1962279
vn 0.8004383 -0.2380897 0.5501016
vn 0.9868242 -0.1168022 0.1119602
vn 0.7109178 -0.07728828 0.6990153
vn 0.3228461 -0.7849171 -0.5288438
vn 0.3841978 -0.6989475 -0.6032117
vn 0.8394847 -0.3572614 -0.409426
vn 0.832639 -0.4037555 -0.3790697
vn 0.8761662 -0.4754353 0.07933503
vn 0.8162346 -0.3895464 0.4266317
vn 0.3912904 -0.05580532 -0.9185737
vn 0.5800445 -0.1362663 -0.8031064
vn 0.3108796 -0.05359663 0.9489369
vn 0.7332232 -0.2664896 0.6255932
vn 0.9837803 -0.04119163 -0.1745844
vn 0.5402415 -0.1492912 0.8281613
vn 0.9589726 -0.1923458 0.2082659
vn 0.9208661 -0.3142882 -0.2307131
vn 0.7646067 -0.2310694 -0.6016508
vn 0.78671 -0.5230178 -0.3279323
vn 0.8373768 -0.3999578 0.3726043
vn 0.9489259 -0.2775186 0.1500769
vn 0.988535 -0.02640616 0.1486649
vn 0.9646105 -0.1819855 -0.1908087
vn 0.91368 -0.4012912 -0.0644538
vn 0.3419932 -0.8158304 0.4663276
vn 0.3994194 -0.719528 0.5681053
vn 0.672116 -0.6231664 0.3999044
g dragon_blink_0
f 35/35/35 36/36/36 8/8/8
f 8/8/8 50/50/50 37/37/37
f 6/6/6 8/8/8 37/37/37
f 15/15/15 6/6/6 37/37/37
f 15/15/15 37/37/37 49/49/49
f 15/15/15 49/49/49 42/42/42
f 37/37/37 54/54/54 49/49/49
f 37/37/37 55/55/55 54/54/54
f 55/55/55 53/53/53 54/54/54
f 15/15/15 42/42/42 17/17/17
f 1/1/1 17/17/17 42/42/42
f 1/1/1 4/4/4 17/17/17
f 9/9/9 4/4/4 1/1/1
f 53/53/53 52/52/52 51/51/51
f 10/10/10 53/53/53 51/51/51
f 11/11/11 9/9/9 41/41/41
f 2/2/2 11/11/11 41/41/41
f 11/11/11 2/2/2 12/12/12
f 2/2/2 3/3/3 12/12/12
f 12/12/12 3/3/3 13/13/13
f 13/13/13 3/3/3 5/5/5
f 16/16/16 13/13/13 5/5/5
f 7/7/7 16/16/16 5/5/5
f 14/14/14 7/7/7 10/10/10
f 14/14/14 16/16/16 7/7/7
f 57/57/57 56/56/56 25/25/25
f 58/58/58 25/25/25 40/40/40
f 25/25/25 23/23/23 40/40/40
f 40/40/40 23/23/23 32/32/32
f 40/40/40 32/32/32 20/20/20
f 20/20/20 32/32/32 34/34/34
f 22/22/22 40/40/40 20/20/20
f 39/39/39 40/40/40 22/22/22
f 24/24/24 39/39/39 22/22/22
f 46/46/46 20/20/20 34/34/34
f 46/46/46 34/34/34 21/21/21
f 18/18/18 46/46/46 21/21/21
f 21/21/21 26/26/26 18/18/18
f 24/24/24 27/27/27 48/48/48
f 27/27/27 38/38/38 48/48/48
f 26/26/26 28/28/28 43/43/43
f 28/28/28 19/19/19 43/43/43
f 19/19/19 28/28/28 29/29/29
f 44/44/44 19/19/19 29/29/29
f 44/44/44 29/29/29 30/30/30
f 44/44/44 30/30/30 47/47/47
f 30/30/30 33/33/33 47/47/47
f 33/33/33 45/45/45 47/47/47
f 45/45/45 31/31/31 27/27/27
f 33/33/33 31/31/31 45/45/45
