g elf_eyes
v 0.1055041 -0.188031 -0.11318
v 0.07963019 -0.1890478 -0.08977798
v 0.1029776 -0.1927385 -0.09825197
v 0.09966321 -0.1989117 -0.07867299
v 0.08545281 -0.1977093 -0.057107
v 0.04797497 -0.1832062 -0.08941837
v 0.08788024 -0.181555 -0.115656
v 0.05205492 -0.183744 0.04487
v 0.04783354 -0.1822071 0.06750248
v 0.08545281 -0.1977093 0.059028
v 0.07520875 -0.1520996 0.138391
v 0.1050753 -0.1742972 0.133772
v 0.05220684 -0.1733632 0.1153767
v 0.1058596 -0.143597 0.151559
v 0.04802179 -0.1828604 0.09282538
v 0.09966321 -0.1989117 0.08059401
v 0.1055041 -0.188031 0.115102
v 0.0797544 -0.1910688 0.08715001
v 0.0811948 -0.1959553 0.06049801
v 0.05178639 -0.1840925 -0.043156
v 0.04783354 -0.1822071 -0.06558147
v 0.105248 -0.1798335 -0.124325
v 0.07520875 -0.1520996 -0.13647
v 0.1050754 -0.1742972 -0.13185
v 0.05220683 -0.1733632 -0.1134537
v 0.1058596 -0.143597 -0.149637
v 0.1035712 -0.187499 0.115112
v 0.07963019 -0.1890478 -0.08977798
v 0.08788024 -0.181555 -0.115656
v 0.105248 -0.1798335 -0.124325
v 0.08545281 -0.1977093 0.059028
v 0.0811948 -0.1959553 0.06049801
v 0.0797544 -0.1910688 0.08715001
v 0.1029776 -0.1927385 -0.09825197
v 0.09966321 -0.1989117 0.08059401
vt 0.442882 0.621596
vt 0.4585 0.618298
vt 0.447482 0.615772
vt 0.367199 0.8454086
vt 0.3818719 0.8089236
vt 0.4513641 0.8460636
vt 0.449037 0.627473
vt 0.4308969 0.778061
vt 0.4443677 0.8104384
vt 0.3812662 0.8100936
vt 0.4432672 0.9429994
vt 0.3869684 0.9341655
vt 0.4567393 0.8854714
vt 0.4098141 0.9830379
vt 0.4517811 0.8481129
vt 0.455759 0.631431
vt 0.3742179 0.9012641
vt 0.44378 0.628687
vt 0.3885642 0.8108817
vt 0.4323028 0.7776993
vt 0.4453301 0.8101153
vt 0.440241 0.62749
vt 0.4434033 0.9436957
vt 0.3867265 0.935037
vt 0.4568124 0.8857307
vt 0.409643 0.9839743
vt 0.3772142 0.9006884
vt 0.4035031 0.8573723
vt 0.4027417 0.9007253
vt 0.3814411 0.9217182
vt 0.455252 0.617279
vt 0.452662 0.616713
vt 0.4013007 0.8500227
vt 0.3704247 0.8770558
vt 0.3675258 0.8459586
vn -0.2434115 -0.8523842 -0.462809
vn -0.2267946 -0.8974811 -0.3782749
vn -0.2681664 -0.9029855 -0.3357143
vn -0.2535577 -0.9226091 -0.2906905
vn -0.3491622 -0.9366595 -0.02747597
vn -0.2333979 -0.9239316 -0.3031103
vn -0.2270248 -0.8530284 -0.469896
vn -0.3826298 -0.9239018 0
vn -0.3450905 -0.9379161 0.03501481
vn -0.3522563 -0.9326242 0.0782786
vn -0.2566715 -0.5154713 0.8175629
vn -0.246239 -0.6161163 0.7481757
vn -0.2514726 -0.7545342 0.606168
vn -0.2287919 -0.4836352 0.844838
vn -0.2490439 -0.933219 0.2589967
vn -0.2860069 -0.9267057 0.2437553
vn -0.2344169 -0.8580887 0.4568727
vn -0.2688735 -0.9397455 0.2111529
vn -0.3370839 -0.9384416 0.0755097
vn -0.3788767 -0.9254472 0
vn -0.3491622 -0.9366595 -0.02747597
vn -0.2120424 -0.7878509 -0.5782118
vn -0.2566614 -0.515493 -0.8175524
vn -0.2462958 -0.6146582 -0.7493556
vn -0.2404832 -0.7674338 -0.5943174
vn -0.2287652 -0.483639 -0.844843
vn -0.2258497 -0.8864481 0.4039822
vn -0.2267946 -0.8974811 -0.3782749
vn -0.2270248 -0.8530284 -0.469896
vn -0.2120424 -0.7878509 -0.5782118
vn -0.3522563 -0.9326242 0.0782786
vn -0.3370839 -0.9384416 0.0755097
vn -0.2688735 -0.9397455 0.2111529
vn -0.2681664 -0.9029855 -0.3357143
vn -0.2860069 -0.9267057 0.2437553
g elf_eyes_0
f 7/7/7 22/22/22 1/1/1
f 2/2/2 7/7/7 1/1/1
f 3/3/3 2/2/2 1/1/1
f 18/18/18 32/32/32 31/31/31
f 16/16/16 18/18/18 31/31/31
g elf_eyes_1
f 24/24/24 23/23/23 26/26/26
f 24/24/24 25/25/25 23/23/23
f 24/24/24 30/30/30 25/25/25
f 30/30/30 29/29/29 25/25/25
f 25/25/25 29/29/29 28/28/28
f 6/6/6 25/25/25 28/28/28
f 6/6/6 28/28/28 4/4/4
f 28/28/28 34/34/34 4/4/4
f 6/6/6 4/4/4 21/21/21
f 4/4/4 5/5/5 21/21/21
f 21/21/21 5/5/5 20/20/20
f 10/10/10 19/19/19 8/8/8
f 19/19/19 9/9/9 8/8/8
f 19/19/19 33/33/33 9/9/9
f 33/33/33 15/15/15 9/9/9
f 27/27/27 15/15/15 33/33/33
f 27/27/27 33/33/33 35/35/35
f 17/17/17 27/27/27 35/35/35
f 27/27/27 13/13/13 15/15/15
f 27/27/27 17/17/17 12/12/12
f 13/13/13 27/27/27 12/12/12
f 12/12/12 11/11/11 13/13/13
f 12/12/12 14/14/14 11/11/11
