g epic_rewardGlow_mesh
v -1.084329 -2.664535E-15 -0.290545
v -0.6853815 -2.664535E-15 0
v -1.123146 -2.664535E-15 1.0254E-17
v -0.6616937 -2.664535E-15 -0.1773003
v 0 -2.664535E-15 0
v -0.5935578 -2.664535E-15 -0.3426908
v 0 -2.664535E-15 0
v -0.9726733 -2.664535E-15 -0.5615732
v -0.7937837 -2.664535E-15 -0.7937837
v -0.4843934 -2.664535E-15 -0.4843934
v 0 -2.664535E-15 0
v -0.3426908 -2.664535E-15 -0.5935578
v 0 -2.664535E-15 0
v -0.5615732 -2.664535E-15 -0.9726733
v -0.290545 -2.664535E-15 -1.084329
v -0.1773003 -2.664535E-15 -0.6616937
v 0 -2.664535E-15 0
v 9.486782E-18 -2.664535E-15 -0.6853815
v 3.150968E-18 -2.664535E-15 -1.123146
v 0.290545 -2.664535E-15 -1.084329
v 0.1773003 -2.664535E-15 -0.6616937
v 0 -2.664535E-15 0
v 0.3426908 -2.664535E-15 -0.5935578
v 0.5615732 -2.664535E-15 -0.9726733
v 0.7937837 -2.664535E-15 -0.7937837
v 0.4843934 -2.664535E-15 -0.4843934
v 0 -2.664535E-15 0
v 0.5935578 -2.664535E-15 -0.3426908
v 0 -2.664535E-15 0
v 0.9726733 -2.664535E-15 -0.5615732
v 1.084329 -2.664535E-15 -0.290545
v 0.6616937 -2.664535E-15 -0.1773003
v 0 -2.664535E-15 0
v 0.6853815 -2.664535E-15 0
v 1.123146 -2.664535E-15 1.0254E-17
v 0 -2.664535E-15 0
v -0.6853815 -2.664535E-15 0
v -1.084329 -2.664535E-15 0.290545
v -1.123146 -2.664535E-15 1.0254E-17
v -0.6616937 -2.664535E-15 0.1773003
v 0 -2.664535E-15 0
v -0.5935578 -2.664535E-15 0.3426908
v 0 -2.664535E-15 0
v -0.9726733 -2.664535E-15 0.5615732
v -0.7937837 -2.664535E-15 0.7937837
v -0.4843934 -2.664535E-15 0.4843934
v 0 -2.664535E-15 0
v -0.3426908 -2.664535E-15 0.5935578
v 0 -2.664535E-15 0
v -0.5615732 -2.664535E-15 0.9726733
v -0.290545 -2.664535E-15 1.084329
v -0.1773003 -2.664535E-15 0.6616937
v 0 -2.664535E-15 0
v 9.486782E-18 -2.664535E-15 0.6853815
v 3.150968E-18 -2.664535E-15 1.123146
v 0.290545 -2.664535E-15 1.084329
v 0.1773003 -2.664535E-15 0.6616937
v 0 -2.664535E-15 0
v 0.3426908 -2.664535E-15 0.5935578
v 0.5615732 -2.664535E-15 0.9726733
v 0.7937837 -2.664535E-15 0.7937837
v 0.4843934 -2.664535E-15 0.4843934
v 0 -2.664535E-15 0
v 0.5935578 -2.664535E-15 0.3426908
v 0 -2.664535E-15 0
v 0.9726733 -2.664535E-15 0.5615732
v 1.084329 -2.664535E-15 0.290545
v 0.6616937 -2.664535E-15 0.1773003
v 0 -2.664535E-15 0
v 0.6853815 -2.664535E-15 0
v 1.123146 -2.664535E-15 1.0254E-17
v 0 -2.664535E-15 0
vt 0.2475772 0.4915988
vt 0.2323694 0.3466664
vt 0.2499297 0.4921263
vt 0.2311931 0.346
vt 0.2148091 0.1119139
vt 0.2300169 0.3453336
vt 0.2148091 0.1119139
vt 0.2452246 0.4910714
vt 0.2387969 0.4906852
vt 0.2268031 0.344846
vt 0.2148091 0.1119139
vt 0.2235893 0.3443581
vt 0.2148091 0.1119139
vt 0.2323695 0.4902991
vt 0.2235892 0.4901579
vt 0.2191992 0.3441795
vt 0.2148091 0.1119139
vt 0.2148091 0.3440011
vt 0.2148091 0.4900164
vt 0.2060289 0.4901578
vt 0.2104191 0.3441795
vt 0.2148091 0.1119139
vt 0.2060289 0.3443581
vt 0.1972487 0.4902991
vt 0.1908213 0.4906853
vt 0.2028152 0.3448459
vt 0.2148091 0.1119139
vt 0.1996014 0.3453337
vt 0.2148091 0.1119139
vt 0.1843938 0.4910714
vt 0.1820413 0.4915987
vt 0.1984252 0.3460001
vt 0.2148091 0.1119139
vt 0.1972488 0.3466664
vt 0.1796885 0.4921263
vt 0.2148091 0.1119139
vt 0.2323694 0.3466664
vt 0.2475772 0.4926538
vt 0.2499297 0.4921263
vt 0.2311931 0.3473327
vt 0.2148091 0.1119139
vt 0.2300169 0.347999
vt 0.2148091 0.1119139
vt 0.2452246 0.4931812
vt 0.2387968 0.4935672
vt 0.2268031 0.3484868
vt 0.2148091 0.1119139
vt 0.2235893 0.3489745
vt 0.2148091 0.1119139
vt 0.2323694 0.4939534
vt 0.2235894 0.4940948
vt 0.2191992 0.349153
vt 0.2148091 0.1119139
vt 0.2148089 0.3493316
vt 0.2148091 0.494236
vt 0.2060289 0.4940946
vt 0.2104191 0.3491531
vt 0.2148091 0.1119139
vt 0.2060289 0.3489745
vt 0.1972488 0.4939535
vt 0.1908213 0.4935673
vt 0.2028152 0.3484868
vt 0.2148091 0.1119139
vt 0.1996014 0.347999
vt 0.2148091 0.1119139
vt 0.1843938 0.4931812
vt 0.182041 0.4926536
vt 0.1984252 0.3473327
vt 0.2148091 0.1119139
vt 0.1972488 0.3466664
vt 0.1796885 0.4921263
vt 0.2148091 0.1119139
vn 0 1 0
vn 0 1 0
vn 0 1 0
vn 0 1 0
vn 0 1 0
vn 0 1 0
vn 0 1 0
vn 0 1 0
vn 0 1 0
vn 0 1 0
vn 0 1 0
vn 0 1 0
vn 0 1 0
vn 0 1 0
vn 0 1 0
vn 0 1 0
vn 0 1 0
vn 0 1 0
vn 0 1 0
vn 0 1 0
vn 0 1 0
vn 0 1 0
vn 0 1 0
vn 0 1 0
vn 0 1 0
vn 0 1 0
vn 0 1 0
vn 0 1 0
vn 0 1 0
vn 0 1 0
vn 0 1 0
vn 0 1 0
vn 0 1 0
vn 0 1 0
vn 0 1 0
vn 0 1 0
vn 0 1 0
vn 0 1 0
vn 0 1 0
vn 0 1 0
vn 0 1 0
vn 0 1 0
vn 0 1 0
vn 0 1 0
vn 0 1 0
vn 0 1 0
vn 0 1 0
vn 0 1 0
vn 0 1 0
vn 0 1 0
vn 0 1 0
vn 0 1 0
vn 0 1 0
vn 0 1 0
vn 0 1 0
vn 0 1 0
vn 0 1 0
vn 0 1 0
vn 0 1 0
vn 0 1 0
vn 0 1 0
vn 0 1 0
vn 0 1 0
vn 0 1 0
vn 0 1 0
vn 0 1 0
vn 0 1 0
vn 0 1 0
vn 0 1 0
vn 0 1 0
vn 0 1 0
vn 0 1 0
g epic_rewardGlow_mesh_0
f 3/3/3 2/2/2 1/1/1
f 2/2/2 4/4/4 1/1/1
f 4/4/4 2/2/2 5/5/5
f 1/1/1 4/4/4 6/6/6
f 7/7/7 6/6/6 4/4/4
f 8/8/8 1/1/1 6/6/6
f 8/8/8 6/6/6 9/9/9
f 6/6/6 10/10/10 9/9/9
f 10/10/10 6/6/6 11/11/11
f 9/9/9 10/10/10 12/12/12
f 13/13/13 12/12/12 10/10/10
f 14/14/14 9/9/9 12/12/12
f 14/14/14 12/12/12 15/15/15
f 12/12/12 16/16/16 15/15/15
f 16/16/16 12/12/12 17/17/17
f 17/17/17 18/18/18 16/16/16
f 15/15/15 16/16/16 18/18/18
f 19/19/19 15/15/15 18/18/18
f 19/19/19 18/18/18 20/20/20
f 18/18/18 21/21/21 20/20/20
f 21/21/21 18/18/18 22/22/22
f 22/22/22 23/23/23 21/21/21
f 20/20/20 21/21/21 23/23/23
f 24/24/24 20/20/20 23/23/23
f 24/24/24 23/23/23 25/25/25
f 23/23/23 26/26/26 25/25/25
f 26/26/26 23/23/23 27/27/27
f 25/25/25 26/26/26 28/28/28
f 29/29/29 28/28/28 26/26/26
f 30/30/30 25/25/25 28/28/28
f 30/30/30 28/28/28 31/31/31
f 28/28/28 32/32/32 31/31/31
f 32/32/32 28/28/28 33/33/33
f 31/31/31 32/32/32 34/34/34
f 35/35/35 31/31/31 34/34/34
f 36/36/36 34/34/34 32/32/32
f 39/39/39 38/38/38 37/37/37
f 38/38/38 40/40/40 37/37/37
f 41/41/41 37/37/37 40/40/40
f 42/42/42 40/40/40 38/38/38
f 40/40/40 42/42/42 43/43/43
f 44/44/44 42/42/42 38/38/38
f 44/44/44 45/45/45 42/42/42
f 45/45/45 46/46/46 42/42/42
f 47/47/47 42/42/42 46/46/46
f 48/48/48 46/46/46 45/45/45
f 46/46/46 48/48/48 49/49/49
f 50/50/50 48/48/48 45/45/45
f 50/50/50 51/51/51 48/48/48
f 51/51/51 52/52/52 48/48/48
f 53/53/53 48/48/48 52/52/52
f 52/52/52 54/54/54 53/53/53
f 54/54/54 52/52/52 51/51/51
f 55/55/55 54/54/54 51/51/51
f 55/55/55 56/56/56 54/54/54
f 56/56/56 57/57/57 54/54/54
f 58/58/58 54/54/54 57/57/57
f 57/57/57 59/59/59 58/58/58
f 59/59/59 57/57/57 56/56/56
f 60/60/60 59/59/59 56/56/56
f 60/60/60 61/61/61 59/59/59
f 61/61/61 62/62/62 59/59/59
f 63/63/63 59/59/59 62/62/62
f 64/64/64 62/62/62 61/61/61
f 62/62/62 64/64/64 65/65/65
f 66/66/66 64/64/64 61/61/61
f 66/66/66 67/67/67 64/64/64
f 67/67/67 68/68/68 64/64/64
f 69/69/69 64/64/64 68/68/68
f 70/70/70 68/68/68 67/67/67
f 71/71/71 70/70/70 67/67/67
f 68/68/68 70/70/70 72/72/72
