g face_eyes
v -0.07670617 -0.09850118 0.7273241
v -0.1189361 -0.08646226 0.699145
v -0.1255436 -0.08705336 0.7190663
v -0.09952736 -0.08605286 0.6776046
v -0.0605092 -0.08634642 0.6783486
v -0.04224062 -0.08663365 0.6970994
v -0.04112196 -0.08691654 0.709589
v 0.07670617 -0.09850118 0.7273241
v 0.1255438 -0.08705336 0.7190663
v 0.1189363 -0.08646226 0.699145
v 0.09952736 -0.08605286 0.6776046
v 0.06050944 -0.08634642 0.6783486
v 0.04224062 -0.08663365 0.6970994
v 0.04112196 -0.08691654 0.709589
v 0.07670617 0.09850118 0.7273241
v 0.1189361 0.08646226 0.699145
v 0.1255436 0.08705336 0.7190663
v 0.09952736 0.08605286 0.6776046
v 0.0605092 0.08634642 0.6783486
v 0.04224062 0.08663365 0.6970994
v 0.04112196 0.08691654 0.709589
v -0.07670617 0.09850118 0.7273241
v -0.1255438 0.08705336 0.7190663
v -0.1189363 0.08646226 0.699145
v -0.09952736 0.08605286 0.6776046
v -0.06050944 0.08634642 0.6783486
v -0.04224062 0.08663365 0.6970994
v -0.04112196 0.08691654 0.709589
vt 0.6475632 0.7623775
vt 0.672125 0.7653461
vt 0.6710462 0.7658647
vt 0.6729293 0.7630621
vt 0.6728686 0.7608331
vt 0.6712258 0.7595086
vt 0.6672206 0.7592635
vt 0.6475632 0.7623775
vt 0.6710462 0.7658647
vt 0.672125 0.7653461
vt 0.6729293 0.7630621
vt 0.6728686 0.7608331
vt 0.6712258 0.7595086
vt 0.6672206 0.7592635
vt 0.6475632 0.7623775
vt 0.672125 0.7653461
vt 0.6710462 0.7658647
vt 0.6729293 0.7630621
vt 0.6728686 0.7608331
vt 0.6712258 0.7595086
vt 0.6672206 0.7592635
vt 0.6475632 0.7623775
vt 0.6710462 0.7658647
vt 0.672125 0.7653461
vt 0.6729293 0.7630621
vt 0.6728686 0.7608331
vt 0.6712258 0.7595086
vt 0.6672206 0.7592635
vn -0.02444174 -0.981311 -0.19087
vn -0.1834131 -0.9729025 -0.1407844
vn -0.211218 -0.9724216 -0.09891018
vn -0.07439148 -0.974881 -0.2099359
vn 0.05889704 -0.9732517 -0.2220639
vn 0.1959222 -0.9680225 -0.1566745
vn 0.2877589 -0.9565272 -0.04743886
vn 0.02444176 -0.981311 -0.1908701
vn 0.2112171 -0.9724218 -0.09891061
vn 0.1834123 -0.9729027 -0.1407849
vn 0.07439206 -0.974881 -0.2099358
vn -0.05889693 -0.9732516 -0.2220642
vn -0.1959213 -0.9680225 -0.1566757
vn -0.2877589 -0.9565272 -0.04743886
vn 0.02444174 0.981311 -0.19087
vn 0.1834131 0.9729025 -0.1407844
vn 0.211218 0.9724216 -0.09891018
vn 0.07439148 0.974881 -0.2099359
vn -0.05889704 0.9732517 -0.2220639
vn -0.1959222 0.9680225 -0.1566745
vn -0.2877589 0.9565272 -0.04743886
vn -0.02444176 0.981311 -0.1908701
vn -0.2112171 0.9724218 -0.09891061
vn -0.1834123 0.9729027 -0.1407849
vn -0.07439206 0.974881 -0.2099358
vn 0.05889693 0.9732516 -0.2220642
vn 0.1959213 0.9680225 -0.1566757
vn 0.2877589 0.9565272 -0.04743886
g face_eyes_0
f 3/3/3 2/2/2 1/1/1
f 1/1/1 2/2/2 4/4/4
f 1/1/1 4/4/4 5/5/5
f 5/5/5 6/6/6 1/1/1
f 6/6/6 7/7/7 1/1/1
f 10/10/10 9/9/9 8/8/8
f 10/10/10 8/8/8 11/11/11
f 11/11/11 8/8/8 12/12/12
f 13/13/13 12/12/12 8/8/8
f 14/14/14 13/13/13 8/8/8
f 17/17/17 16/16/16 15/15/15
f 15/15/15 16/16/16 18/18/18
f 15/15/15 18/18/18 19/19/19
f 19/19/19 20/20/20 15/15/15
f 20/20/20 21/21/21 15/15/15
f 24/24/24 23/23/23 22/22/22
f 24/24/24 22/22/22 25/25/25
f 25/25/25 22/22/22 26/26/26
f 27/27/27 26/26/26 22/22/22
f 28/28/28 27/27/27 22/22/22
