g fireBlue24_mesh
v -0.09065981 1.102869 2.235174E-08
v -0.005219091 1.090897 -0.03476007
v 0.06046531 0.9907627 2.235174E-08
v -0.05373276 1.131788 -0.04326528
v -0.005219091 1.090897 -0.03476007
v -0.0282147 1.221837 -0.04876408
v -0.04967021 1.272398 2.235174E-08
v -0.0282147 1.221837 -0.04876408
v 0.01500092 1.361866 2.235174E-08
v 0.01646098 1.195606 2.235174E-08
v -0.0282147 1.221837 -0.04876408
v -0.005219091 1.090897 -0.03476007
v 0.06046531 0.9907627 2.235174E-08
v 0.3935151 0.1562347 -1.344874E-15
v 0.21763 0.1429881 -0.142108
v 0.2613817 0.1980278 -1.344874E-15
v 0.1580577 0.3336521 -0.1457685
v 0.2004893 0.3097816 -1.344874E-15
v 0.21763 0.1429881 -0.142108
v 0.1580577 0.3336521 -0.1457685
v 0.2504775 0.6417882 -0.2257994
v -0.1273562 0.2985287 -0.3233542
v 0.04497392 0.6114239 -0.142108
v 0.21763 0.1429881 -0.142108
v -0.03967564 0.04961604 -0.142108
v 0.2835748 0.4881026 -0.142108
v 0.2004893 0.3097816 -1.344874E-15
v 0.2990738 0.4573018 -1.344874E-15
v 0.496291 0.4920576 -0.142108
v 0.4413024 0.4502886 -2.689749E-15
v 0.5153821 0.344244 -1.344874E-15
v 0.568518 0.4418392 -1.344875E-15
v 0.5401974 0.5782764 -0.142108
v 0.5401974 0.5782764 -0.142108
v 0.5702772 0.5845672 -1.344874E-15
v 0.4673796 0.7393165 -0.142108
v 0.5401974 0.5782764 -0.142108
v 0.4909992 0.7598943 -1.344874E-15
v 0.3358555 0.8221591 -0.142108
v 0.355838 0.8450277 -1.344874E-15
v 0.1362729 0.7516113 -0.142108
v 0.1668734 0.9324579 -0.07835971
v 0.1881859 0.9537365 -1.344874E-15
v 0.07871649 1.059419 -0.0559625
v 0.1140288 1.082971 -1.344874E-15
v 0.1045998 0.7579499 -2.689749E-15
v 0.02786557 0.6401264 -1.344874E-15
v -0.1386821 0.5964229 -0.142108
v -0.1446212 0.6260377 -1.344874E-15
v -0.3191911 0.5097097 -0.142108
v -0.2934814 0.577641 -1.344874E-15
v -0.3894572 0.4820843 -1.344874E-15
v -0.3779854 0.3339634 -0.142108
v -0.4090342 0.3275797 -1.344874E-15
v -0.3779854 0.3339634 -0.142108
v -0.3157679 0.2281607 -0.142108
v 0.02971164 1.226168 -0.08662709
v 0.09060069 1.184358 -1.344874E-15
v 0.07856166 1.281522 -1.344874E-15
v -0.2030865 0.1196861 -0.142108
v 0.007212701 1.407204 -0.0558373
v 0.05328326 1.371036 -1.344874E-15
v 0.08545719 1.543962 -1.344874E-15
v -0.03647958 1.417593 -1.344874E-15
v -0.0747371 1.206436 -0.08662709
v -0.1224841 1.216701 -1.344874E-15
v 0.005759623 1.039202 -0.05490775
v -0.1119517 1.039785 -0.05624331
v -0.1842504 1.011798 -1.344874E-15
v -0.05545218 1.005151 -1.344874E-15
v 0.1053228 0.919565 -0.07835971
v 0.07790931 0.902788 -1.344874E-15
v 0.1045998 0.7579499 -2.689749E-15
v 0.2719929 0.1407903 0.004638412
v 0.04363067 0.24332 -0.1628747
v 0.1673677 0.2002398 0.003512611
v 0.03118089 0.0839628 2.235174E-08
v 0.07622695 0.1638632 2.235174E-08
v 0.1110327 0.1760592 -0.006260139
v 0.04363067 0.24332 -0.1628747
v 0.1723748 0.167587 -0.0002999034
v 0.2719929 0.1407903 0.004638412
v -0.005354484 0.3537802 -0.1866
v -0.005354484 0.3537802 -0.1866
v 0.09617306 0.3332858 2.235174E-08
v 0.07508816 0.4568481 -0.0001224048
v -0.02487766 0.459268 -0.1968029
v 0.1182109 0.5456436 -0.0002676845
v -0.08610407 0.5676532 2.235174E-08
v -0.1523347 0.4796926 -0.1873951
v -0.2151968 0.528263 2.235174E-08
v -0.2085241 0.417103 -0.1511819
v -0.275568 0.4338987 2.235174E-08
v -0.2835117 0.3395725 2.235174E-08
v -0.1346235 0.4147691 -0.1846669
v -0.2265914 0.2186949 2.235174E-08
v -0.1577732 0.1755042 2.235174E-08
v -0.005354484 0.3537802 -0.1866
v -0.05609987 0.1881567 2.235174E-08
v 0.04363067 0.24332 -0.1628747
v 0.01008786 0.1320174 2.235174E-08
v 0.03118089 0.0839628 2.235174E-08
v -0.4090342 0.3275797 -1.344874E-15
v -0.3779854 0.3339634 -0.142108
v -0.3397502 0.2097603 -1.344874E-15
v -0.2574127 0.1260794 -1.344874E-15
v -0.1844876 0.06494939 -1.344874E-15
v -0.09264743 0.03039375 -1.344874E-15
v 0.004165162 0.009424776 -1.344874E-15
v 0.21763 0.1429881 -0.142108
v 0.1711076 0.03846297 -1.344874E-15
v 0.3935151 0.1562347 -1.344874E-15
v 0.2195164 0.8347179 2.235174E-08
v 0.3218231 0.7085389 -0.1000248
v 0.2050471 0.7228111 4.470348E-08
v 0.3842898 0.7944266 2.235174E-08
v 0.1681829 0.6045498 3.073364E-08
v 0.4604944 0.6561163 2.235174E-08
v 0.3808423 0.6353123 -0.05056683
v 0.334753 0.5820866 2.235174E-08
v 0.4542023 0.5210018 2.235174E-08
v 0.04156173 1.884619 -3.411688E-16
v 0.07786553 1.880496 -0.02815493
v 0.06508722 1.843276 -2.274459E-16
v 0.07208119 1.776456 -2.274459E-16
v 0.01083569 1.932075 -3.411688E-16
v 0.09018706 1.833373 -2.27446E-16
v 0.04250186 1.938365 -0.03260182
v 0.02368667 2.001754 -3.411688E-16
v 0.07944822 1.987872 -0.02815493
v 0.09127741 2.063871 -3.411688E-16
v 0.1356295 1.969415 -3.411688E-16
v 0.1340336 1.895669 -3.411688E-16
v 0.1042385 1.905459 -0.03260182
vt 0.146026 0.100106
vt 0.1464559 0.0992424
vt 0.1466526 0.09762849
vt 0.1461792 0.100746
vt 0.1464559 0.0992424
vt 0.1462849 0.1027367
vt 0.1461959 0.1038541
vt 0.1462849 0.1027367
vt 0.146464 0.1058318
vt 0.1464702 0.1021561
vt 0.1462849 0.1027367
vt 0.1464559 0.0992424
vt 0.1466526 0.09762849
vt 0.4959408 0.2598649
vt 0.4962755 0.2592454
vt 0.494885 0.2593994
vt 0.4920219 0.2590615
vt 0.4920617 0.259185
vt 0.4962755 0.2592454
vt 0.4920219 0.2590615
vt 0.4836729 0.2593611
vt 0.4923455 0.2580302
vt 0.4844405 0.2586372
vt 0.4962755 0.2592454
vt 0.4986348 0.2583388
vt 0.4875556 0.259478
vt 0.4920617 0.259185
vt 0.4883342 0.2595325
vt 0.4874559 0.260227
vt 0.4885114 0.2600334
vt 0.4911909 0.2602942
vt 0.4887248 0.2604816
vt 0.4852777 0.2603817
vt 0.4852777 0.2603817
vt 0.4851187 0.2604878
vt 0.481209 0.2601252
vt 0.4852777 0.2603817
vt 0.4806888 0.2602085
vt 0.4791158 0.2596619
vt 0.4785376 0.2597321
vt 0.480898 0.2589588
vt 0.4763291 0.2590666
vt 0.475791 0.2591414
vt 0.4731212 0.258756
vt 0.4725262 0.2588805
vt 0.4807382 0.2588472
vt 0.4837152 0.2585769
vt 0.4848191 0.2579902
vt 0.484071 0.2579693
vt 0.4870102 0.257354
vt 0.4852934 0.2574446
vt 0.4877083 0.2571065
vt 0.4914507 0.2571472
vt 0.4916118 0.2570375
vt 0.4914507 0.2571472
vt 0.4941235 0.2573663
vt 0.4689084 0.2585833
vt 0.4699646 0.2587978
vt 0.4675098 0.2587554
vt 0.4968646 0.257763
vt 0.4643343 0.2585044
vt 0.4652481 0.2586664
vt 0.4608791 0.2587798
vt 0.4640715 0.2583501
vt 0.469407 0.2582154
vt 0.4691476 0.2580471
vt 0.4736323 0.258499
vt 0.4736176 0.2580841
vt 0.4743242 0.2578293
vt 0.4744927 0.2582834
vt 0.4766545 0.2588499
vt 0.4770783 0.2587529
vt 0.4807382 0.2588472
vt 0.1475296 0.07003548
vt 0.1465828 0.07245291
vt 0.1470958 0.07177607
vt 0.1465311 0.06782942
vt 0.1467179 0.07015013
vt 0.1468622 0.0705115
vt 0.1465828 0.07245291
vt 0.1471166 0.07041331
vt 0.1475296 0.07003548
vt 0.1463797 0.0756596
vt 0.1463797 0.0756596
vt 0.1468006 0.07506613
vt 0.1467133 0.07864997
vt 0.1462988 0.0787218
vt 0.1468921 0.08122852
vt 0.146045 0.08186825
vt 0.1457702 0.07932744
vt 0.1455098 0.08074351
vt 0.1455373 0.07757115
vt 0.1452593 0.07807957
vt 0.1452264 0.07549261
vt 0.1458438 0.07745273
vt 0.1454624 0.07198334
vt 0.1457477 0.07072148
vt 0.1463797 0.0756596
vt 0.1461693 0.07085956
vt 0.1465828 0.07245291
vt 0.1464438 0.06922434
vt 0.1465311 0.06782942
vt 0.4916118 0.2570375
vt 0.4914507 0.2571472
vt 0.4945887 0.2572817
vt 0.4967027 0.2575719
vt 0.4982474 0.2578286
vt 0.4991203 0.2581525
vt 0.4996501 0.2584933
vt 0.4962755 0.2592454
vt 0.4989166 0.2590814
vt 0.4959408 0.2598649
vt 0.1473121 0.09417885
vt 0.1477363 0.09138924
vt 0.147252 0.09170488
vt 0.1479952 0.09328834
vt 0.1470992 0.08909094
vt 0.1483113 0.09023124
vt 0.1479808 0.08977053
vt 0.1477899 0.08859425
vt 0.1482851 0.08724418
vt 0.4522719 0.258625
vt 0.4523761 0.2587528
vt 0.4533166 0.2587079
vt 0.4550049 0.2587326
vt 0.4510726 0.2585168
vt 0.4535667 0.2587965
vt 0.4509142 0.2586284
vt 0.4493125 0.2585621
vt 0.4496629 0.2587587
vt 0.4477431 0.2588003
vt 0.4501294 0.2589564
vt 0.4519925 0.2589507
vt 0.4517453 0.2588458
vn 0.6206479 0.2546059 0.741601
vn -0.2671393 0.2134938 0.9397112
vn -0.297499 0.2049455 0.9324654
vn 0.5917174 0.1175734 0.7975255
vn -0.2671393 0.2134938 0.9397112
vn 0.06408616 -0.2054913 0.9765584
vn 0.7021215 -0.3168067 0.6376981
vn 0.06408616 -0.2054913 0.9765584
vn -0.2653947 -0.2430094 0.9330124
vn -0.6901286 -0.08030484 0.7192174
vn 0.06408616 -0.2054913 0.9765584
vn -0.2671393 0.2134938 0.9397112
vn -0.297499 0.2049455 0.9324654
vn -0.6041738 0.3518149 0.7149827
vn -0.5543846 0.3916514 0.7343479
vn -0.7542833 -0.5458162 0.3648855
vn -0.6797683 0.1957809 0.7068132
vn -0.939081 0.1230128 0.3209278
vn -0.5543846 0.3916514 0.7343479
vn -0.6797683 0.1957809 0.7068132
vn -0.07803798 -0.118458 0.9898878
vn 0.005036436 0.08855778 0.9960583
vn 0.3707763 -0.6923493 0.6190132
vn -0.5543846 0.3916514 0.7343479
vn -0.05333162 0.7606891 0.6469218
vn -0.3762261 0.7026211 0.6039682
vn -0.939081 0.1230128 0.3209278
vn -0.4435606 0.8493789 0.2860236
vn -0.3826326 0.6199639 0.6850088
vn 0.2026578 0.9260213 0.3184561
vn 0.003195317 0.6932681 0.7206728
vn -0.8595666 0.2761724 0.4299696
vn -0.7929053 -0.1269975 0.5959638
vn -0.7929053 -0.1269975 0.5959638
vn -0.9435927 -0.1776479 0.2794176
vn -0.6358364 -0.5163651 0.5736542
vn -0.7929053 -0.1269975 0.5959638
vn -0.751321 -0.6238589 0.2152137
vn -0.2995806 -0.6993047 0.649018
vn -0.5071285 -0.8299753 0.2322963
vn 0.5697908 -0.3837585 0.7266828
vn -0.2365074 -0.5960058 0.76736
vn -0.5838376 -0.7379925 0.3383794
vn -0.3435226 -0.0978814 0.9340298
vn -0.7928067 -0.3246028 0.5158398
vn 0.9354587 -0.2540015 0.2457645
vn 0.4676444 -0.8538049 0.2287484
vn 0.1894192 -0.7726296 0.6059405
vn 0.2257677 -0.9425505 0.2462267
vn 0.5737773 -0.5253817 0.6282942
vn 0.4301539 -0.8617535 0.2689766
vn 0.9013976 -0.3199579 0.2917351
vn 0.8340189 0.03621314 0.5505462
vn 0.9552319 0.09163059 0.281311
vn 0.8340189 0.03621314 0.5505462
vn 0.6939662 0.5440864 0.4715729
vn -0.2878128 0.007296538 0.9576589
vn -0.8294929 -0.1507815 0.5377792
vn -0.809216 -0.1853991 0.5574914
vn 0.4637132 0.7154177 0.5226351
vn 0.2163973 -0.3989845 0.8910576
vn -0.7917647 -0.1253186 0.5978326
vn -0.2129304 -0.2624449 0.9411606
vn 0.7324442 -0.4025095 0.5491009
vn 0.3944702 -0.06503166 0.9166046
vn 0.7681041 -0.2575357 0.586252
vn 0.1177508 0.2796476 0.9528546
vn 0.3676503 0.2287865 0.9013823
vn 0.6940532 0.1168387 0.7103794
vn 0.3041931 0.7544509 0.5816102
vn 0.5265009 -0.02715365 0.8497408
vn 0.8462192 0.3194627 0.4264465
vn 0.9354587 -0.2540015 0.2457645
vn -0.6435906 -0.253675 0.7221081
vn -0.4991962 0.1691584 0.8498168
vn -0.712961 -0.6151463 0.3365732
vn -0.3168109 0.6899559 0.6508391
vn -0.6939818 0.5825688 0.4230875
vn -0.009408474 0.9173315 0.3980133
vn -0.4991962 0.1691584 0.8498168
vn 0.215602 0.9393175 0.2668302
vn -0.6435906 -0.253675 0.7221081
vn -0.4107328 0.2469655 0.8776711
vn -0.4107328 0.2469655 0.8776711
vn -0.8481436 -0.2639996 0.4593001
vn -0.8882645 0.03230348 0.458195
vn -0.4171034 -0.6163924 0.667896
vn -0.438355 -0.6605966 0.6094728
vn 0.01366122 -0.9056582 0.4237886
vn 0.3058009 -0.7973807 0.5202593
vn 0.4199206 -0.7971264 0.433885
vn 0.7776519 0.04609728 0.6270028
vn 0.8369873 -0.3655837 0.4071865
vn 0.6770738 0.3655848 0.638685
vn 0.3670554 0.4827846 0.7951034
vn 0.3943941 0.5366465 0.745965
vn 0.3099254 0.592156 0.7438397
vn -0.4107328 0.2469655 0.8776711
vn 0.368192 0.6609051 0.6539411
vn -0.4991962 0.1691584 0.8498168
vn 0.6891212 0.5243086 0.5002126
vn -0.3168109 0.6899559 0.6508391
vn 0.9552319 0.09163059 0.281311
vn 0.8340189 0.03621314 0.5505462
vn 0.768208 0.6032923 0.2142306
vn 0.6745005 0.7059725 0.2159906
vn 0.4173777 0.8694044 0.264446
vn 0.3351565 0.9047213 0.2629628
vn -0.1959995 0.8883533 0.4152259
vn -0.5543846 0.3916514 0.7343479
vn -0.2906739 0.8492993 0.4406807
vn -0.6041738 0.3518149 0.7149827
vn 0.2324631 -0.4814394 0.84509
vn -0.03351818 -0.1047238 0.9939364
vn 0.6335736 -0.1438151 0.7601984
vn -0.4049799 -0.5532352 0.7279574
vn 0.4091174 0.2478848 0.8781663
vn -0.5995209 -0.1480312 0.7865504
vn -0.145163 0.4317513 0.8902351
vn 0.1562585 0.6058252 0.780102
vn -0.2023699 0.2846358 0.9370319
vn 0.6015875 0.3963335 0.6935503
vn -0.009930176 0.3201909 0.947301
vn 0.8016681 0.1603744 0.5758544
vn -0.003554543 0.2614033 0.9652231
vn 0.6001395 0.03986868 0.7989011
vn -0.609088 0.3283307 0.7219493
vn 0.3931507 0.008999547 0.91943
vn 0.4726821 -0.2971582 0.8296196
vn -0.07038276 -0.2258428 0.9716178
vn -0.07403222 -0.3362844 0.9388461
vn -0.5739574 -0.1416994 0.8065321
vn -0.5795861 0.1052283 0.8080884
vn -0.3885942 0.0643435 0.9191597
g fireBlue24_mesh_0
f 3/3/3 2/2/2 1/1/1
f 5/5/5 4/4/4 1/1/1
f 4/4/4 5/5/5 6/6/6
f 1/1/1 4/4/4 7/7/7
f 4/4/4 8/8/8 7/7/7
f 9/9/9 7/7/7 6/6/6
f 9/9/9 11/11/11 10/10/10
f 10/10/10 11/11/11 12/12/12
f 13/13/13 10/10/10 12/12/12
f 16/16/16 15/15/15 14/14/14
f 18/18/18 17/17/17 16/16/16
f 20/20/20 19/19/19 16/16/16
f 22/22/22 20/20/20 21/21/21
f 22/22/22 21/21/21 23/23/23
f 20/20/20 22/22/22 24/24/24
f 24/24/24 22/22/22 25/25/25
f 26/26/26 21/21/21 20/20/20
f 26/26/26 20/20/20 27/27/27
f 28/28/28 26/26/26 27/27/27
f 29/29/29 26/26/26 28/28/28
f 29/29/29 21/21/21 26/26/26
f 30/30/30 29/29/29 28/28/28
f 31/31/31 29/29/29 30/30/30
f 32/32/32 29/29/29 31/31/31
f 33/33/33 29/29/29 32/32/32
f 34/34/34 21/21/21 29/29/29
f 35/35/35 34/34/34 32/32/32
f 36/36/36 21/21/21 34/34/34
f 36/36/36 37/37/37 35/35/35
f 38/38/38 36/36/36 35/35/35
f 39/39/39 36/36/36 38/38/38
f 39/39/39 21/21/21 36/36/36
f 40/40/40 39/39/39 38/38/38
f 41/41/41 21/21/21 39/39/39
f 23/23/23 21/21/21 41/41/41
f 42/42/42 39/39/39 40/40/40
f 39/39/39 42/42/42 41/41/41
f 43/43/43 42/42/42 40/40/40
f 44/44/44 42/42/42 43/43/43
f 45/45/45 44/44/44 43/43/43
f 23/23/23 41/41/41 46/46/46
f 47/47/47 23/23/23 46/46/46
f 48/48/48 23/23/23 47/47/47
f 49/49/49 48/48/48 47/47/47
f 48/48/48 22/22/22 23/23/23
f 50/50/50 48/48/48 49/49/49
f 50/50/50 22/22/22 48/48/48
f 51/51/51 50/50/50 49/49/49
f 52/52/52 50/50/50 51/51/51
f 53/53/53 50/50/50 52/52/52
f 54/54/54 53/53/53 52/52/52
f 55/55/55 22/22/22 50/50/50
f 56/56/56 22/22/22 55/55/55
f 57/57/57 44/44/44 45/45/45
f 58/58/58 57/57/57 45/45/45
f 59/59/59 57/57/57 58/58/58
f 60/60/60 22/22/22 56/56/56
f 25/25/25 22/22/22 60/60/60
f 61/61/61 57/57/57 59/59/59
f 62/62/62 61/61/61 59/59/59
f 63/63/63 61/61/61 62/62/62
f 64/64/64 61/61/61 63/63/63
f 65/65/65 61/61/61 64/64/64
f 57/57/57 61/61/61 65/65/65
f 66/66/66 65/65/65 64/64/64
f 67/67/67 44/44/44 57/57/57
f 57/57/57 65/65/65 67/67/67
f 68/68/68 65/65/65 66/66/66
f 65/65/65 68/68/68 67/67/67
f 69/69/69 68/68/68 66/66/66
f 67/67/67 68/68/68 69/69/69
f 70/70/70 67/67/67 69/69/69
f 44/44/44 67/67/67 71/71/71
f 71/71/71 67/67/67 70/70/70
f 42/42/42 44/44/44 71/71/71
f 72/72/72 71/71/71 70/70/70
f 42/42/42 71/71/71 41/41/41
f 41/41/41 71/71/71 72/72/72
f 73/73/73 41/41/41 72/72/72
f 76/76/76 75/75/75 74/74/74
f 78/78/78 75/75/75 77/77/77
f 80/80/80 78/78/78 79/79/79
f 79/79/79 81/81/81 80/80/80
f 80/80/80 81/81/81 82/82/82
f 83/83/83 80/80/80 76/76/76
f 85/85/85 84/84/84 76/76/76
f 85/85/85 86/86/86 84/84/84
f 86/86/86 87/87/87 84/84/84
f 88/88/88 87/87/87 86/86/86
f 89/89/89 87/87/87 88/88/88
f 90/90/90 87/87/87 89/89/89
f 90/90/90 83/83/83 87/87/87
f 91/91/91 90/90/90 89/89/89
f 92/92/92 90/90/90 91/91/91
f 93/93/93 92/92/92 91/91/91
f 94/94/94 92/92/92 93/93/93
f 92/92/92 95/95/95 90/90/90
f 95/95/95 92/92/92 94/94/94
f 90/90/90 95/95/95 83/83/83
f 96/96/96 95/95/95 94/94/94
f 83/83/83 95/95/95 96/96/96
f 97/97/97 83/83/83 96/96/96
f 80/80/80 98/98/98 97/97/97
f 99/99/99 80/80/80 97/97/97
f 99/99/99 101/101/101 100/100/100
f 102/102/102 100/100/100 101/101/101
f 56/56/56 104/104/104 103/103/103
f 105/105/105 56/56/56 103/103/103
f 60/60/60 56/56/56 105/105/105
f 106/106/106 60/60/60 105/105/105
f 107/107/107 60/60/60 106/106/106
f 25/25/25 60/60/60 107/107/107
f 108/108/108 25/25/25 107/107/107
f 109/109/109 25/25/25 108/108/108
f 110/110/110 25/25/25 109/109/109
f 111/111/111 110/110/110 109/109/109
f 112/112/112 110/110/110 111/111/111
f 115/115/115 114/114/114 113/113/113
f 113/113/113 114/114/114 116/116/116
f 117/117/117 114/114/114 115/115/115
f 116/116/116 114/114/114 118/118/118
f 119/119/119 114/114/114 117/117/117
f 118/118/118 114/114/114 119/119/119
f 120/120/120 119/119/119 117/117/117
f 118/118/118 119/119/119 121/121/121
f 121/121/121 119/119/119 120/120/120
f 124/124/124 123/123/123 122/122/122
f 125/125/125 123/123/123 124/124/124
f 122/122/122 123/123/123 126/126/126
f 127/127/127 123/123/123 125/125/125
f 123/123/123 128/128/128 126/126/126
f 126/126/126 128/128/128 129/129/129
f 128/128/128 130/130/130 129/129/129
f 128/128/128 123/123/123 130/130/130
f 129/129/129 130/130/130 131/131/131
f 131/131/131 130/130/130 132/132/132
f 132/132/132 130/130/130 133/133/133
f 134/134/134 123/123/123 127/127/127
f 133/133/133 134/134/134 127/127/127
f 123/123/123 134/134/134 130/130/130
f 130/130/130 134/134/134 133/133/133
