g fire09_mesh
v 0.04566969 0.9011639 -0.005418292
v -0.03102437 0.7223621 -0.1049119
v -0.0002872338 0.8116713 -0.01565662
v -0.03102437 0.7223621 -0.1049119
v -0.1211939 0.587373 -0.08742463
v -0.0796051 0.7187063 -0.01127877
v -0.201707 0.6949112 -0.006713344
v -0.342089 0.779379 2.235174E-08
v -0.2820515 0.599027 -0.0851756
v -0.3903511 0.619594 2.235174E-08
v -0.379798 0.4037157 2.235174E-08
v -0.292909 0.4393448 2.235174E-08
v -0.2154155 0.4193994 2.235174E-08
v -0.06331152 0.2730899 -0.0851756
v -0.1661628 0.3556606 2.235174E-08
v -0.1936864 0.2716413 2.235174E-08
v -0.2704627 0.1977622 2.235174E-08
v -0.2081725 0.1485095 2.235174E-08
v -0.09373231 0.1369206 2.235174E-08
v 0.06156415 0.08242106 2.235174E-08
v 0.08896509 0.2513503 -0.0851756
v 0.2354692 0.1544769 2.235174E-08
v 0.3496901 0.2429399 2.235174E-08
v 0.1814804 0.2990097 2.235174E-08
v 0.03520451 0.4327041 2.235174E-08
v -0.02656714 0.547188 2.235174E-08
v -0.03565101 0.6548135 2.235174E-08
v -0.03102437 0.7223621 -0.1049119
v 0.04473412 0.8384283 2.235174E-08
v 0.02642994 0.793034 2.235174E-08
v -0.03102437 0.7223621 -0.1049119
v 0.04566969 0.9011639 -0.005418292
v -0.01627751 0.7178931 2.235174E-08
v 0.07370634 2.163369 -1.570293E-15
v 0.1228078 2.182059 -0.02337176
v 0.1350685 2.179539 -1.570293E-15
v 0.08188464 2.195213 -1.570293E-15
v 0.1228078 2.182059 -0.02337176
v 0.1455411 2.194834 -1.570293E-15
v 0.1778383 2.177341 -1.570293E-15
v 0.1350685 2.179539 -1.570293E-15
v 0.1228078 2.182059 -0.02337176
v 0.1778383 2.177341 -1.570293E-15
v 0.03970993 1.012903 -0.1181877
v 0.001962259 1.142751 -0.03822466
v 0.03763659 1.0829 0.01733163
v 0.1305181 1.093821 0.01733163
v 0.2605583 1.106813 0.01733163
v 0.3139904 1.062662 0.01733163
v 0.03970993 1.012903 -0.1181877
v 0.03970993 1.012903 -0.1181877
v 0.2617024 0.9780114 0.01733163
v 0.1365779 0.9601321 0.01100647
v 0.03665026 0.9549319 0.005955034
v 0.03970993 1.012903 -0.1181877
v 0.001962259 1.142751 -0.03822466
v -0.09962174 1.292021 2.235174E-08
v -0.07154445 1.310213 -0.04322609
v -0.06104619 1.282123 2.235174E-08
v -0.09288559 1.324442 2.235174E-08
v -0.07154445 1.310213 -0.04322609
v -0.0588415 1.313681 -0.0001298233
v -0.05807477 1.336483 -0.0003030919
v -0.07824976 1.356314 2.235174E-08
v -0.07154445 1.310213 -0.04322609
v 0.1541785 1.809074 -4.013845E-16
v 0.1342688 1.799348 -0.0397442
v 0.07487793 1.801801 -0.04873236
v 0.2085882 1.697471 -3.749453E-16
v 0.07487793 1.801801 -0.04873236
v 0.09631163 1.842237 -4.013846E-16
v 0.02151864 1.79227 -0.04873236
v 0.03523991 1.859005 -6.48001E-16
v -0.01074864 1.965964 -4.013846E-16
v 0.0003852248 1.786212 -4.013845E-16
v -0.02295761 1.485421 -4.013845E-16
v 0.01950138 1.676936 -4.013845E-16
v 0.07487793 1.801801 -0.04873236
v 0.07487793 1.801801 -0.04873236
v 0.07481954 1.75993 -4.013845E-16
v 0.1342688 1.799348 -0.0397442
v 0.134579 1.765204 -4.013845E-16
v 0.2085882 1.697471 -3.749453E-16
v -0.01245171 1.271978 -4.013845E-16
v -0.06367035 1.337515 -0.0794116
v -0.02215004 1.434299 -4.013844E-16
v -0.04725178 1.226876 -0.0918352
v 0.01939269 1.179648 -7.269436E-16
v -0.0775821 1.268096 -0.08284155
v -0.1099478 1.254848 -4.013844E-16
v -0.1085826 1.325256 -4.013845E-16
v -0.06850021 1.191322 -4.013845E-16
v -0.001800084 1.149075 -0.06006584
v -0.06367035 1.337515 -0.0794116
v -0.0766365 1.381188 -7.258906E-16
v -0.02215004 1.434299 -4.013844E-16
v -0.001800084 1.149075 -0.06006584
v -0.04725178 1.226876 -0.0918352
v -0.0420412 1.079246 -4.013844E-16
v 0.1169665 1.138391 -4.013845E-16
v -0.08666704 0.7967132 -0.228683
v -0.1432723 0.8646628 -4.013845E-16
v 0.107315 1.088537 -0.1274459
v 0.220611 1.150385 -4.013845E-16
v 0.3215702 1.109617 -0.1009777
v 0.2784019 1.20391 -4.013845E-16
v 0.330666 1.284534 -4.013845E-16
v 0.4620059 1.07515 -4.013845E-16
v 0.5162533 0.8891325 -4.013845E-16
v 0.08250554 0.8309435 -0.3068039
v 0.3551903 0.9013425 -0.1794503
v 0.4966292 0.711104 -3.907985E-16
v 0.3597373 0.7550104 -0.1717903
v 0.4079034 0.6629509 -4.013845E-16
v 0.2946105 0.7088515 -0.1692693
v 0.2588741 0.6451444 -4.013845E-16
v 0.1894273 0.6750571 -0.180786
v 0.1856448 0.5108858 -4.013845E-16
v 0.102471 0.5504362 -0.2416939
v 0.2223564 0.3653261 -4.013845E-16
v -0.06285128 0.4669133 -0.3891865
v 0.1449516 0.373744 -0.2292963
v -0.1949273 0.7147067 -0.2119818
v 0.2107695 0.18356 -0.2479289
v 0.3407677 0.3092063 -4.013845E-16
v 0.3753493 0.2826986 -0.2146381
v 0.3753493 0.2826986 -0.2146381
v 0.4991399 0.3615523 -4.013845E-16
v -0.2561838 0.8137115 -4.013845E-16
v -0.3086877 0.7445415 -0.1849319
v -0.3521688 0.8619579 -4.013845E-16
v -0.3983398 0.9721379 -4.013845E-16
v -0.3341953 0.5595648 -0.2075946
v -0.3983398 0.9721379 -4.013845E-16
v -0.4819999 0.6710362 -4.013845E-16
v -0.3205668 0.3703883 -0.2179079
v -0.4933655 0.3698506 -4.013845E-16
v -0.2243481 0.2076051 -0.2196968
v -0.331527 0.09971815 -8.027689E-16
v -0.08220925 0.1453001 -0.2364072
v -0.1403332 0.01038113 -4.013845E-16
v 0.05513312 0.1341417 -0.2244233
v 0.09576789 0.006679535 -4.013845E-16
v 0.2727716 0.08667842 -4.013844E-16
v 0.3753493 0.2826986 -0.2146381
v 0.4263663 0.2294899 -4.013845E-16
v 0.4991399 0.3615523 -4.013845E-16
v 0.134579 1.765204 -4.013845E-16
v 0.2085882 1.697471 -3.749453E-16
v 0.2085882 1.697471 -1.812072E-16
v 0.1541785 1.809074 -4.013845E-16
vt 0.1468458 0.5052851
vt 0.152536 0.5049865
vt 0.1498347 0.5050673
vt 0.152536 0.5049865
vt 0.157348 0.504487
vt 0.1529325 0.5046908
vt 0.1537416 0.5041018
vt 0.1509023 0.5034304
vt 0.1569418 0.5037174
vt 0.1562045 0.5031995
vt 0.1628629 0.5032499
vt 0.1622583 0.5036655
vt 0.1629536 0.5040362
vt 0.1678675 0.5047639
vt 0.1650895 0.5042719
vt 0.1677877 0.5041401
vt 0.170268 0.503773
vt 0.1719246 0.5040709
vt 0.1723916 0.5046184
vt 0.1742576 0.5053612
vt 0.1686028 0.5054923
vt 0.1718053 0.506193
vt 0.1688299 0.5067394
vt 0.1669897 0.5059349
vt 0.162284 0.5053864
vt 0.1578498 0.5051812
vt 0.1543792 0.5051228
vt 0.152536 0.5049865
vt 0.1489477 0.5052806
vt 0.1504426 0.5051984
vt 0.152536 0.5049865
vt 0.1468458 0.5052851
vt 0.152521 0.5051249
vt 0.7718418 0.665176
vt 0.7715129 0.6652966
vt 0.7715572 0.6653269
vt 0.7712813 0.6651964
vt 0.7715129 0.6652966
vt 0.7712879 0.6653525
vt 0.7715957 0.6654316
vt 0.7715572 0.6653269
vt 0.7715129 0.6652966
vt 0.7715957 0.6654316
vt 0.139273 0.5052567
vt 0.1359613 0.5050762
vt 0.1374878 0.5052466
vt 0.1372094 0.5056911
vt 0.1368779 0.5063132
vt 0.1380039 0.5065687
vt 0.139273 0.5052567
vt 0.139273 0.5052567
vt 0.140163 0.5061435
vt 0.1404903 0.5056422
vt 0.1407517 0.505242
vt 0.139273 0.5052567
vt 0.1359613 0.5050762
vt 0.1321542 0.5045901
vt 0.1316904 0.5047244
vt 0.1324066 0.5047746
vt 0.1313274 0.5046223
vt 0.1316904 0.5047244
vt 0.1316019 0.5047852
vt 0.1310205 0.5047889
vt 0.1305145 0.5046923
vt 0.1316904 0.5047244
vt 0.7783462 0.6654147
vt 0.7784666 0.6653582
vt 0.7782315 0.6651828
vt 0.7808193 0.6656263
vt 0.7782315 0.6651828
vt 0.7775078 0.6652337
vt 0.7783738 0.665048
vt 0.777199 0.6650817
vt 0.7753164 0.6649688
vt 0.7784804 0.6649962
vt 0.7837747 0.664939
vt 0.7804038 0.665043
vt 0.7782315 0.6651828
vt 0.7782315 0.6651828
vt 0.7790397 0.6651937
vt 0.7784666 0.6653582
vt 0.7792682 0.6653899
vt 0.7808193 0.6656263
vt 0.7875316 0.6649647
vt 0.7863781 0.6648391
vt 0.7846746 0.6649409
vt 0.7883254 0.6648791
vt 0.7891567 0.6650428
vt 0.7876 0.6648048
vt 0.7878331 0.6647255
vt 0.7865939 0.6647288
vt 0.7889515 0.6648271
vt 0.789695 0.6649908
vt 0.7863781 0.6648391
vt 0.7856093 0.6648072
vt 0.7846746 0.6649409
vt 0.789695 0.6649908
vt 0.7883254 0.6648791
vt 0.7909239 0.664892
vt 0.789883 0.6652821
vt 0.7958974 0.6647825
vt 0.7947012 0.6646436
vt 0.7907606 0.6652585
vt 0.789672 0.6655366
vt 0.7903894 0.6657844
vt 0.7887296 0.6656784
vt 0.7873105 0.6658068
vt 0.7909963 0.6661289
vt 0.7942703 0.6662624
vt 0.7952945 0.6651976
vt 0.7940556 0.6658669
vt 0.797404 0.6662141
vt 0.796631 0.6658781
vt 0.7982519 0.6659963
vt 0.7974436 0.6657183
vt 0.798565 0.6656306
vt 0.7980384 0.6654601
vt 0.8009281 0.6654508
vt 0.8002319 0.6652467
vt 0.8034903 0.6655408
vt 0.8017021 0.6648411
vt 0.803342 0.665351
vt 0.7973407 0.6645169
vt 0.8066895 0.6655124
vt 0.804478 0.6658316
vt 0.8049447 0.6659164
vt 0.8049447 0.6659164
vt 0.8035566 0.6662201
vt 0.7955978 0.6643667
vt 0.7968153 0.6642376
vt 0.7947486 0.664131
vt 0.7928093 0.6640176
vt 0.8000715 0.664175
vt 0.7928093 0.6640176
vt 0.7981088 0.6638123
vt 0.803401 0.6642085
vt 0.8034105 0.6637841
vt 0.8062662 0.6644443
vt 0.8081653 0.6641814
vt 0.8073629 0.6647936
vt 0.8097382 0.6646509
vt 0.8075596 0.6651306
vt 0.8098031 0.6652303
vt 0.8083948 0.6656647
vt 0.8049447 0.6659164
vt 0.8058811 0.6660416
vt 0.8035566 0.6662201
vt 0.7792682 0.6653899
vt 0.7808193 0.6656263
vt 0.7808193 0.6656263
vt 0.7783462 0.6654147
vn -0.5001055 -0.2472855 0.8299063
vn 0.3278183 -0.4299301 0.8412462
vn 0.8163383 -0.5042775 0.2815956
vn 0.3278183 -0.4299301 0.8412462
vn -0.2553277 -0.2147047 0.942714
vn 0.6525807 -0.5607586 0.5095963
vn -0.1060072 -0.5476068 0.8299935
vn 0.09870479 -0.4627038 0.8810008
vn 0.1968235 -0.1791269 0.9639368
vn 0.6092437 -0.06492306 0.7903209
vn 0.3296857 0.2338891 0.9146602
vn -0.05517877 0.47284 0.8794189
vn 0.6890637 0.516868 0.5079752
vn 0.1347058 0.2459452 0.9598778
vn 0.7395168 0.4351429 0.5135812
vn 0.508031 -0.3838198 0.7710946
vn 0.3506468 0.08978534 0.9321938
vn 0.1831893 0.4007405 0.8976908
vn 0.1239967 0.5061605 0.8534789
vn -0.03268509 0.46573 0.8843231
vn -0.2083518 0.1689928 0.9633436
vn -0.1641262 0.41762 0.8936756
vn -0.3087705 0.04819733 0.9499146
vn -0.332134 -0.622206 0.7089053
vn -0.7014738 -0.4446272 0.5569928
vn -0.7791622 -0.2845769 0.5585
vn -0.8107586 0.3032503 0.5007092
vn 0.3278183 -0.4299301 0.8412462
vn -0.8588076 0.1078777 0.5008113
vn -0.8863859 0.4144821 0.2062148
vn 0.3278183 -0.4299301 0.8412462
vn -0.5001055 -0.2472855 0.8299063
vn -0.9022384 0.4064365 0.1441354
vn 0.339896 0.2431081 0.9084983
vn -0.1090202 -0.04379627 0.9930742
vn -0.08637217 0.9846798 0.1514777
vn 0.3663109 -0.3741324 0.8519632
vn -0.1090202 -0.04379627 0.9930742
vn -0.2200167 -0.7498981 0.6238953
vn -0.393911 -0.04744489 0.9179233
vn -0.08637217 0.9846798 0.1514777
vn -0.1090202 -0.04379627 0.9930742
vn -0.393911 -0.04744489 0.9179233
vn 0.528642 0.1297598 0.8388684
vn 0.2041361 -0.4696161 0.8589465
vn -0.4102809 -0.8128056 0.4135416
vn 0.09187103 -0.8808529 0.4643899
vn -0.2458002 -0.5618296 0.7898922
vn -0.4416152 -0.009160021 0.8971577
vn 0.528642 0.1297598 0.8388684
vn 0.528642 0.1297598 0.8388684
vn -0.4278897 0.4087012 0.8061474
vn -0.1283002 0.8807147 0.4559394
vn 0.55749 0.7468572 0.3625041
vn 0.528642 0.1297598 0.8388684
vn 0.2041361 -0.4696161 0.8589465
vn 0.6292433 0.480443 0.6109235
vn 0.1251382 0.1549725 0.9799612
vn -0.3033425 0.763656 0.5699236
vn 0.8202225 -0.2819215 0.4977504
vn 0.1251382 0.1549725 0.9799612
vn -0.9589977 0.05306148 0.2784025
vn -0.7426353 -0.4417035 0.5033794
vn 0.2152258 -0.6511245 0.727815
vn 0.1251382 0.1549725 0.9799612
vn -0.5697589 -0.6047813 0.5564299
vn -0.3585177 -0.09681702 0.9284889
vn -0.2707593 -0.04681316 0.9615082
vn -0.2924151 0.1548275 0.9436746
vn -0.2707593 -0.04681316 0.9615082
vn -0.1518739 -0.7233944 0.6735243
vn 0.3961659 0.02297049 0.9178916
vn -0.4605699 -0.5006828 0.7329339
vn 0.2669934 -0.2140277 0.939631
vn 0.9183439 -0.02762358 0.3948182
vn 0.4287779 0.08075207 0.8997937
vn -0.8140041 0.2650873 0.5168422
vn -0.2707593 -0.04681316 0.9615082
vn -0.2707593 -0.04681316 0.9615082
vn -0.3121957 0.5816127 0.7511728
vn -0.3585177 -0.09681702 0.9284889
vn 0.2392487 0.7375028 0.6315455
vn -0.2924151 0.1548275 0.9436746
vn -0.8663429 -0.1623983 0.47231
vn -0.6027484 -0.2393411 0.7611901
vn -0.7422138 -0.2751269 0.611084
vn -0.3624599 0.1244061 0.923659
vn -0.5795379 -0.6638644 0.4726731
vn 0.8365521 0.177828 0.5182255
vn 0.8849061 0.2079055 0.4167931
vn 0.8907216 -0.1937092 0.4112077
vn 0.757453 0.4195928 0.500207
vn 0.524475 -0.5307091 0.6657881
vn -0.6027484 -0.2393411 0.7611901
vn 0.6918818 -0.5789719 0.4313828
vn -0.7422138 -0.2751269 0.611084
vn 0.524475 -0.5307091 0.6657881
vn -0.3624599 0.1244061 0.923659
vn 0.8881719 -0.3333044 0.316321
vn -0.06521265 -0.9116852 0.4056813
vn 0.5691607 -0.5017722 0.6513684
vn 0.7555978 -0.5494453 0.3566256
vn 0.01964618 -0.6903154 0.7232417
vn 0.1214143 -0.8892973 0.4409182
vn -0.4079853 -0.4859149 0.772939
vn 0.5816592 -0.4554563 0.6739675
vn -0.3430092 -0.4561872 0.8211198
vn -0.6641614 -0.3010208 0.6843071
vn -0.7284571 -0.116967 0.6750326
vn 0.03380816 -0.3283367 0.9439555
vn -0.5779925 -0.1847175 0.7948611
vn -0.7143297 0.2507749 0.6533339
vn -0.6250068 0.2635206 0.7347947
vn -0.3503715 0.8272436 0.4392125
vn -0.2923324 0.7891698 0.5401415
vn -0.5902371 0.7165985 0.3716271
vn -0.6561986 0.5152997 0.5512438
vn -0.9366021 0.06063218 0.3451092
vn -0.8168111 0.06067617 0.5737056
vn -0.6967496 -0.6917555 0.1897743
vn 0.02914878 0.02796913 0.9991837
vn -0.7384574 -0.4438992 0.5075767
vn 0.2670343 -0.6908877 0.6718383
vn -0.3911083 0.6259879 0.6746654
vn -0.2170618 -0.9706048 0.1039743
vn -0.8059516 -0.0005637531 0.5919811
vn -0.8059516 -0.0005637531 0.5919811
vn -0.6093212 -0.5630715 0.5582815
vn 0.1236261 -0.8859925 0.446916
vn 0.5519854 -0.4167701 0.7222291
vn -0.6495463 -0.7172862 0.252171
vn 0.6803209 -0.2700843 0.6813355
vn 0.7146792 -0.0855252 0.6942039
vn 0.6803209 -0.2700843 0.6813355
vn 0.7750196 -0.1212914 0.6201878
vn 0.7076448 0.2147621 0.6731389
vn 0.7780552 0.1907665 0.5985302
vn 0.5318614 0.5322281 0.6586781
vn 0.5869721 0.5779866 0.5669174
vn 0.1673085 0.7226864 0.6706209
vn 0.2093768 0.8237497 0.5268755
vn -0.09849593 0.7611941 0.6410008
vn -0.1414648 0.8634995 0.4841034
vn -0.4480799 0.7872424 0.4236436
vn -0.8059516 -0.0005637531 0.5919811
vn -0.6534611 0.6632251 0.3648576
vn -0.6093212 -0.5630715 0.5582815
vn 0.2392487 0.7375028 0.6315455
vn -0.2924151 0.1548275 0.9436746
vn 0 1 0
vn -0.5697589 -0.6047813 0.5564299
g fire09_mesh_0
f 3/3/3 2/2/2 1/1/1
f 5/5/5 4/4/4 3/3/3
f 6/6/6 5/5/5 3/3/3
f 6/6/6 7/7/7 5/5/5
f 7/7/7 8/8/8 5/5/5
f 8/8/8 9/9/9 5/5/5
f 10/10/10 9/9/9 8/8/8
f 11/11/11 9/9/9 10/10/10
f 12/12/12 9/9/9 11/11/11
f 13/13/13 9/9/9 12/12/12
f 14/14/14 9/9/9 13/13/13
f 5/5/5 9/9/9 14/14/14
f 15/15/15 14/14/14 13/13/13
f 16/16/16 14/14/14 15/15/15
f 17/17/17 14/14/14 16/16/16
f 18/18/18 14/14/14 17/17/17
f 19/19/19 14/14/14 18/18/18
f 20/20/20 14/14/14 19/19/19
f 21/21/21 14/14/14 20/20/20
f 14/14/14 21/21/21 5/5/5
f 22/22/22 21/21/21 20/20/20
f 23/23/23 21/21/21 22/22/22
f 24/24/24 21/21/21 23/23/23
f 24/24/24 25/25/25 21/21/21
f 21/21/21 25/25/25 5/5/5
f 25/25/25 26/26/26 5/5/5
f 26/26/26 27/27/27 5/5/5
f 27/27/27 28/28/28 5/5/5
f 30/30/30 29/29/29 28/28/28
f 29/29/29 32/32/32 31/31/31
f 33/33/33 31/31/31 27/27/27
f 33/33/33 30/30/30 31/31/31
f 36/36/36 35/35/35 34/34/34
f 34/34/34 38/38/38 37/37/37
f 37/37/37 38/38/38 39/39/39
f 39/39/39 38/38/38 40/40/40
f 43/43/43 42/42/42 41/41/41
f 46/46/46 45/45/45 44/44/44
f 46/46/46 44/44/44 47/47/47
f 47/47/47 44/44/44 48/48/48
f 50/50/50 49/49/49 48/48/48
f 52/52/52 49/49/49 51/51/51
f 51/51/51 53/53/53 52/52/52
f 55/55/55 54/54/54 53/53/53
f 56/56/56 54/54/54 51/51/51
f 59/59/59 58/58/58 57/57/57
f 57/57/57 61/61/61 60/60/60
f 59/59/59 62/62/62 61/61/61
f 63/63/63 61/61/61 62/62/62
f 60/60/60 65/65/65 64/64/64
f 63/63/63 64/64/64 65/65/65
f 68/68/68 67/67/67 66/66/66
f 66/66/66 67/67/67 69/69/69
f 71/71/71 70/70/70 66/66/66
f 72/72/72 70/70/70 71/71/71
f 73/73/73 72/72/72 71/71/71
f 74/74/74 72/72/72 73/73/73
f 75/75/75 72/72/72 74/74/74
f 76/76/76 72/72/72 75/75/75
f 77/77/77 72/72/72 76/76/76
f 78/78/78 72/72/72 77/77/77
f 80/80/80 79/79/79 77/77/77
f 81/81/81 79/79/79 80/80/80
f 82/82/82 81/81/81 80/80/80
f 83/83/83 81/81/81 82/82/82
f 86/86/86 85/85/85 84/84/84
f 85/85/85 87/87/87 84/84/84
f 84/84/84 87/87/87 88/88/88
f 85/85/85 89/89/89 87/87/87
f 87/87/87 89/89/89 90/90/90
f 90/90/90 89/89/89 91/91/91
f 92/92/92 87/87/87 90/90/90
f 93/93/93 87/87/87 92/92/92
f 89/89/89 94/94/94 91/91/91
f 91/91/91 94/94/94 95/95/95
f 95/95/95 94/94/94 96/96/96
f 98/98/98 97/97/97 88/88/88
f 99/99/99 97/97/97 92/92/92
f 88/88/88 97/97/97 100/100/100
f 101/101/101 97/97/97 99/99/99
f 102/102/102 101/101/101 99/99/99
f 97/97/97 103/103/103 100/100/100
f 100/100/100 103/103/103 104/104/104
f 103/103/103 105/105/105 104/104/104
f 104/104/104 105/105/105 106/106/106
f 106/106/106 105/105/105 107/107/107
f 107/107/107 105/105/105 108/108/108
f 108/108/108 105/105/105 109/109/109
f 97/97/97 110/110/110 103/103/103
f 103/103/103 110/110/110 105/105/105
f 101/101/101 110/110/110 97/97/97
f 105/105/105 111/111/111 109/109/109
f 105/105/105 110/110/110 111/111/111
f 109/109/109 111/111/111 112/112/112
f 111/111/111 113/113/113 112/112/112
f 111/111/111 110/110/110 113/113/113
f 112/112/112 113/113/113 114/114/114
f 113/113/113 115/115/115 114/114/114
f 113/113/113 110/110/110 115/115/115
f 114/114/114 115/115/115 116/116/116
f 115/115/115 117/117/117 116/116/116
f 115/115/115 110/110/110 117/117/117
f 116/116/116 117/117/117 118/118/118
f 117/117/117 119/119/119 118/118/118
f 117/117/117 110/110/110 119/119/119
f 118/118/118 119/119/119 120/120/120
f 101/101/101 121/121/121 110/110/110
f 110/110/110 121/121/121 119/119/119
f 119/119/119 122/122/122 120/120/120
f 119/119/119 121/121/121 122/122/122
f 101/101/101 123/123/123 121/121/121
f 124/124/124 122/122/122 121/121/121
f 123/123/123 101/101/101 102/102/102
f 120/120/120 122/122/122 125/125/125
f 124/124/124 126/126/126 122/122/122
f 122/122/122 127/127/127 125/125/125
f 125/125/125 127/127/127 128/128/128
f 129/129/129 123/123/123 102/102/102
f 130/130/130 123/123/123 129/129/129
f 130/130/130 121/121/121 123/123/123
f 131/131/131 130/130/130 129/129/129
f 132/132/132 130/130/130 131/131/131
f 133/133/133 121/121/121 130/130/130
f 133/133/133 130/130/130 134/134/134
f 135/135/135 133/133/133 134/134/134
f 136/136/136 133/133/133 135/135/135
f 136/136/136 121/121/121 133/133/133
f 137/137/137 136/136/136 135/135/135
f 138/138/138 136/136/136 137/137/137
f 138/138/138 121/121/121 136/136/136
f 139/139/139 138/138/138 137/137/137
f 140/140/140 138/138/138 139/139/139
f 140/140/140 121/121/121 138/138/138
f 141/141/141 140/140/140 139/139/139
f 142/142/142 121/121/121 140/140/140
f 142/142/142 140/140/140 141/141/141
f 143/143/143 142/142/142 141/141/141
f 124/124/124 121/121/121 142/142/142
f 124/124/124 142/142/142 143/143/143
f 144/144/144 124/124/124 143/143/143
f 145/145/145 124/124/124 144/144/144
f 146/146/146 145/145/145 144/144/144
f 147/147/147 145/145/145 146/146/146
f 150/150/150 149/149/149 148/148/148
f 151/151/151 149/149/149 150/150/150
