g fireBlue16_mesh
v 0.02036941 0.8941224 0.00135327
v -0.04370346 0.9609709 0.00135327
v -0.01407542 0.990599 -0.08494687
v -0.01407542 0.990599 -0.08494687
v -0.1103666 1.00118 -0.0252534
v -0.05957564 1.018111 -0.09431818
v 0.003062474 1.095453 0.00135327
v -0.01407542 0.990599 -0.08494687
v 0.002854899 0.9863665 0.00135327
v -0.01407542 0.990599 -0.08494687
v 0.02036941 0.8941224 0.00135327
v -0.1676694 1.186991 -2.091838E-08
v -0.1846533 1.197604 -0.1544009
v -0.2827732 1.260491 -0.1501658
v 0.01187009 1.262745 -2.091837E-08
v -0.01639367 1.105047 -0.1512147
v -0.02867188 1.14256 -2.091838E-08
v -0.01639367 1.105047 -0.1512147
v -0.1846533 1.197604 -0.1544009
v -0.1616293 1.126725 -0.2062023
v -0.2827732 1.260491 -0.1501658
v 0.1229181 0.8852012 -0.1879375
v 0.1927854 0.9164852 -2.091838E-08
v 0.04618696 1.057993 -2.091838E-08
v 0.01187009 1.262745 -2.091837E-08
v 0.3537082 0.8400725 -2.091838E-08
v 0.3135533 0.779498 -0.24419
v 0.1669656 0.5265619 -0.3945028
v 0.4795965 0.7547578 -2.091838E-08
v 0.4180588 0.7086747 -0.24419
v 0.5363311 0.5708317 -2.091838E-08
v 0.4653952 0.5552163 -0.24419
v 0.5318478 0.3287053 -2.091838E-08
v 0.443474 0.3521477 -0.24419
v 0.464446 0.2031149 -2.091838E-08
v 0.3955915 0.2759922 -0.24419
v 0.3523479 0.2061805 -2.091838E-08
v 0.310799 0.2689205 -0.24419
v 0.2683895 0.1528843 -2.091838E-08
v 0.02316448 0.8980123 -0.2525918
v 0.2094744 0.227532 -0.2372723
v -0.06118588 0.954212 -0.2047216
v 0.2585817 0.0362646 -2.091838E-08
v 0.1602481 0.1259853 -0.19218
v 0.1603983 -0.002773345 -2.091838E-08
v -0.008789739 0.001912594 -2.091838E-08
v 0.003592724 0.08588579 -0.1742612
v -0.219064 0.07267347 -2.091838E-08
v -0.2350026 0.1914557 -0.1742612
v -0.3520549 0.1814293 -2.091838E-08
v -0.4492505 0.3669832 -2.091838E-08
v -0.340818 0.378683 -0.1920648
v -0.340818 0.378683 -0.1920648
v -0.4776678 0.4922009 -2.091838E-08
v -0.08619323 0.5482941 -0.2075128
v 0.01841975 0.7051836 -0.2075128
v -0.2550741 0.4676595 -2.091838E-08
v -0.340818 0.378683 -0.1920648
v -0.05862891 0.706241 -2.091838E-08
v 0.01841975 0.7051836 -0.2075128
v -0.1109624 0.5676237 -2.091838E-08
v -0.340818 0.378683 -0.1920648
v 0.01841975 0.7051836 -0.2075128
v -0.1188703 0.9050345 -2.091838E-08
v -0.05862891 0.706241 -2.091838E-08
v -0.2454493 0.9866827 -2.091838E-08
v -0.2619161 1.111389 -0.140183
v -0.351041 1.062421 -2.091838E-08
v -0.3887013 1.222821 -2.091838E-08
v -0.3345099 1.257106 -0.1498504
v -0.3741534 1.372039 -2.091838E-08
v -0.3486714 1.372255 -0.07986332
v -0.3765608 1.519558 -2.091838E-08
v -0.29148 1.360717 -2.091838E-08
v -0.2499893 1.256366 -4.183676E-08
v -0.1676694 1.186991 -2.091838E-08
v -0.02867188 1.14256 -2.091838E-08
v -0.1846533 1.197604 -0.1544009
v -0.1676694 1.186991 -2.091838E-08
v -0.334258 1.34142 2.235174E-08
v -0.2832226 1.14014 -0.0851756
v -0.3215412 1.240468 2.235174E-08
v -0.344405 1.189024 2.235174E-08
v -0.3120147 1.097569 2.235174E-08
v -0.2585574 1.097024 2.235174E-08
v -0.2029784 1.090355 -0.004933302
v -0.24633 1.139264 -0.006713344
v -0.2856263 1.226894 2.235174E-08
v -0.334258 1.34142 2.235174E-08
v 0.1110566 0.4885563 -0.0851756
v 0.01692643 0.8624437 0.0004970962
v 0.09929 0.7568339 -1.990159E-05
v 0.1534162 0.7097676 2.235174E-08
v 0.2546086 0.7568338 2.235174E-08
v 0.3700881 0.6936423 2.235174E-08
v 0.4091907 0.4543481 2.235174E-08
v 0.3567508 0.3278218 2.235174E-08
v 0.0007736757 0.2565783 -0.0851756
v 0.2842514 0.2918758 2.235174E-08
v 0.2129445 0.1928696 2.235174E-08
v 0.2024204 0.1277637 2.235174E-08
v 0.1453094 0.08245638 2.235174E-08
v -0.0415085 0.1044797 2.235174E-08
v -0.1834059 0.1639647 2.235174E-08
v -0.3148727 0.2859048 2.235174E-08
v -0.3615529 0.3887918 2.235174E-08
v -0.1412091 0.3681521 2.235174E-08
v -0.001448348 0.4573832 2.235174E-08
v 0.06026021 0.6433899 2.235174E-08
v 0.01692643 0.8624437 0.0004970962
v 0.1911184 1.900099 -2.091838E-08
v 0.1343611 1.875689 -0.01777775
v 0.1170167 1.882662 -2.091837E-08
v 0.07851048 1.785609 -0.01777775
v 0.05811991 1.796292 -2.091837E-08
v 0.07621311 1.713442 -2.091837E-08
v 0.09765002 1.775398 -2.091837E-08
v 0.1531725 1.867825 -4.183675E-08
v 0.1911184 1.900099 -2.091838E-08
vt 0.1465187 0.0957408
vt 0.1461689 0.09768471
vt 0.1462917 0.09833951
vt 0.1462917 0.09833951
vt 0.1458926 0.0985734
vt 0.1461032 0.09894758
vt 0.1464178 0.1006748
vt 0.1462917 0.09833951
vt 0.146362 0.09824564
vt 0.1462917 0.09833951
vt 0.1465187 0.0957408
vt 0.4698981 0.2578878
vt 0.4696297 0.2578281
vt 0.4680409 0.2574823
vt 0.4679841 0.2585204
vt 0.4719685 0.2584209
vt 0.4710209 0.2583777
vt 0.4719685 0.2584209
vt 0.4696297 0.2578281
vt 0.4714206 0.2579094
vt 0.4680409 0.2574823
vt 0.477523 0.2589116
vt 0.4767326 0.2591579
vt 0.4731571 0.2586414
vt 0.4679841 0.2585204
vt 0.4786633 0.2597249
vt 0.4801936 0.2595835
vt 0.4865841 0.2590671
vt 0.4808185 0.2601683
vt 0.4819832 0.2599515
vt 0.4854659 0.2603682
vt 0.4858604 0.2601182
vt 0.4915832 0.2603521
vt 0.4909909 0.260041
vt 0.4947566 0.260115
vt 0.4929152 0.2598724
vt 0.4946792 0.25972
vt 0.4930939 0.2595739
vt 0.4960254 0.2594243
vt 0.4771992 0.2585604
vt 0.4941395 0.2592165
vt 0.4757796 0.2582635
vt 0.4989721 0.2593896
vt 0.4967052 0.2590432
vt 0.4999586 0.2590439
vt 0.4998402 0.2584479
vt 0.497718 0.2584915
vt 0.4980518 0.2577069
vt 0.4950513 0.2576509
vt 0.4953044 0.2572384
vt 0.4906162 0.256896
vt 0.4903205 0.257278
vt 0.4903205 0.257278
vt 0.4874526 0.2567958
vt 0.4860353 0.2581754
vt 0.4820712 0.2585437
vt 0.4880721 0.25758
vt 0.4903205 0.257278
vt 0.4820449 0.2582723
vt 0.4820712 0.2585437
vt 0.4855465 0.2580879
vt 0.4903205 0.257278
vt 0.4820712 0.2585437
vt 0.4770223 0.25806
vt 0.4820449 0.2582723
vt 0.4749586 0.2576139
vt 0.4718082 0.2575558
vt 0.4730455 0.2572421
vt 0.4689928 0.2571094
vt 0.4681268 0.2573
vt 0.4652227 0.2571605
vt 0.465217 0.2572502
vt 0.461495 0.2571522
vt 0.4655083 0.2574519
vt 0.4681453 0.2575979
vt 0.4698981 0.2578878
vt 0.4710209 0.2583777
vt 0.4696297 0.2578281
vt 0.4698981 0.2578878
vt 0.1450161 0.1053795
vt 0.1452277 0.1009307
vt 0.1450687 0.1031482
vt 0.1449741 0.1020108
vt 0.1451082 0.09998933
vt 0.14533 0.09997778
vt 0.1455604 0.09982992
vt 0.1453807 0.100911
vt 0.1452177 0.1028482
vt 0.1450161 0.1053795
vt 0.1468624 0.07958028
vt 0.1465747 0.09078839
vt 0.1468136 0.08736444
vt 0.147038 0.08599959
vt 0.1474575 0.08737078
vt 0.1479363 0.08555362
vt 0.1480984 0.07861076
vt 0.1478811 0.07493778
vt 0.1464051 0.07285845
vt 0.1475804 0.07388224
vt 0.1472847 0.07100632
vt 0.1472411 0.06911705
vt 0.1470043 0.06779585
vt 0.1462297 0.06853686
vt 0.1456414 0.07026529
vt 0.1450965 0.07381494
vt 0.1449028 0.07677572
vt 0.1458164 0.07611069
vt 0.1463959 0.07868031
vt 0.1466518 0.0840737
vt 0.1465747 0.09078839
vt 0.4518806 0.2591518
vt 0.4524972 0.2589519
vt 0.4523213 0.2588909
vt 0.4547738 0.2587552
vt 0.4545038 0.2586834
vt 0.4565968 0.2587471
vt 0.4550313 0.2588227
vt 0.452696 0.2590183
vt 0.4518806 0.2591518
vn -0.1986385 0.6130717 0.7646475
vn 0.5277294 0.7312249 0.4322175
vn -0.5300838 0.2761905 0.8017043
vn -0.5300838 0.2761905 0.8017043
vn 0.3543736 0.8335099 0.4238877
vn -0.1206557 0.1354326 0.9834125
vn -0.9067808 -0.1695082 0.3860254
vn -0.5300838 0.2761905 0.8017043
vn -0.9782985 -0.08794886 0.1876087
vn -0.5300838 0.2761905 0.8017043
vn -0.1986385 0.6130717 0.7646475
vn -0.4748941 -0.8767333 0.07625213
vn -0.4822308 -0.8524017 0.2021504
vn -0.5966932 -0.7023901 0.3880793
vn -0.6147544 -0.4856993 0.6214284
vn -0.6131883 -0.656595 0.4391844
vn -0.04118332 -0.9892708 0.1401685
vn -0.6131883 -0.656595 0.4391844
vn -0.4822308 -0.8524017 0.2021504
vn 0.08797608 -0.1290668 0.9877257
vn -0.5966932 -0.7023901 0.3880793
vn -0.5024542 -0.6981332 0.510049
vn -0.5579548 -0.780109 0.2830481
vn -0.7956894 -0.5360962 0.2819207
vn -0.6147544 -0.4856993 0.6214284
vn -0.4646371 -0.8375974 0.2873028
vn -0.3343472 -0.7301458 0.5959019
vn 0.08435041 -0.01080195 0.9963775
vn -0.7894765 -0.5354655 0.300006
vn -0.7037061 -0.476121 0.5273582
vn -0.948052 -0.09650237 0.3031249
vn -0.8384964 -0.07617477 0.5395564
vn -0.9212924 0.2019501 0.3323196
vn -0.8155625 0.1899332 0.5466105
vn -0.5371943 0.7629448 0.3596354
vn -0.4514656 0.703694 0.5486287
vn -0.2202131 0.9260404 0.3065214
vn -0.1891461 0.7895533 0.5838059
vn -0.683997 0.6053981 0.4069903
vn -0.221501 -0.4399498 0.8702766
vn -0.4281087 0.6166122 0.6606909
vn 0.7828692 0.4213895 0.4577626
vn -0.707603 0.5062547 0.4929545
vn -0.329837 0.6049355 0.7247487
vn -0.1248589 0.8515165 0.5092444
vn 0.1604439 0.8546231 0.4938392
vn 0.1471059 0.6665361 0.7308143
vn 0.369001 0.8031796 0.4676973
vn 0.4075212 0.4982913 0.7652661
vn 0.7263383 0.4898823 0.4821285
vn 0.7857665 0.3720838 0.4940895
vn 0.6399703 -0.08632926 0.7635347
vn 0.6399703 -0.08632926 0.7635347
vn 0.362439 -0.666066 0.6519158
vn 0.6223766 -0.6396043 0.4511693
vn 0.8958389 0.0115866 0.4442281
vn 0.4332736 -0.8746628 0.2173454
vn 0.6399703 -0.08632926 0.7635347
vn 0.9503524 -0.02579682 0.3101043
vn 0.8958389 0.0115866 0.4442281
vn 0.7052338 -0.6850908 0.1824716
vn 0.6399703 -0.08632926 0.7635347
vn 0.8958389 0.0115866 0.4442281
vn 0.7939957 0.4742696 0.3803144
vn 0.9503524 -0.02579682 0.3101043
vn 0.575582 0.6915591 0.4364075
vn 0.6654121 0.4996764 0.554572
vn 0.7438424 0.4205579 0.5194512
vn 0.8768291 0.1848789 0.4438359
vn 0.8157666 0.1213626 0.565505
vn 0.9481524 -0.05811229 0.3124579
vn 0.2942947 -0.5825853 0.757618
vn -0.15015 -0.4930419 0.8569509
vn -0.8094102 -0.4798194 0.3385684
vn -0.7053813 -0.6905468 0.1599449
vn -0.4748941 -0.8767333 0.07625213
vn -0.04118332 -0.9892708 0.1401685
vn -0.4822308 -0.8524017 0.2021504
vn -0.4748941 -0.8767333 0.07625213
vn -0.1855335 -0.4224727 0.8871832
vn -0.03058317 0.01717432 0.9993846
vn 0.9229666 0.02653651 0.3839643
vn 0.8005919 -0.03975742 0.5978895
vn 0.6267555 0.5913537 0.5074233
vn 0.08946562 0.8988275 0.4290745
vn -0.4855022 0.4374472 0.7569199
vn -0.7827746 -0.5058858 0.3624134
vn -0.8564329 -0.37357 0.3563261
vn -0.1855335 -0.4224727 0.8871832
vn 0.0914654 -0.06116228 0.9939282
vn 0.001362733 -0.2230255 0.9748116
vn -0.3536378 -0.297047 0.886963
vn 0.00449078 -0.360071 0.9329141
vn -0.07060516 -0.2673331 0.961014
vn -0.2232271 -0.119822 0.9673739
vn -0.2736394 0.009912031 0.9617813
vn -0.2624372 0.152186 0.9528726
vn 0.04605322 0.1075747 0.9931298
vn -0.2667178 0.1830275 0.946236
vn -0.3240314 0.1660542 0.931359
vn -0.2839794 0.1783921 0.9420891
vn -0.08377285 0.3808984 0.9208141
vn 0.1148573 0.4608739 0.8800017
vn 0.2517164 0.3346014 0.9081193
vn 0.2714922 0.1716101 0.9470174
vn 0.1964997 -0.09047234 0.9763209
vn 0.04979241 -0.5652392 0.823423
vn 0.5645309 -0.2841001 0.7749787
vn 0.867259 -0.01907157 0.4974917
vn 0.001362733 -0.2230255 0.9748116
vn -0.1958068 -0.2376289 0.9514158
vn -0.05157224 -0.09402367 0.9942333
vn 0.5135368 -0.4279819 0.7437146
vn 0.08809494 0.03661576 0.9954389
vn 0.5912095 -0.2572365 0.7643956
vn 0.07662304 0.2361899 0.9686811
vn -0.5664272 0.3063038 0.7650741
vn -0.5332154 0.382206 0.7547185
vn -0.1958068 -0.2376289 0.9514158
g fireBlue16_mesh_0
f 3/3/3 2/2/2 1/1/1
f 5/5/5 2/2/2 4/4/4
f 6/6/6 5/5/5 4/4/4
f 6/6/6 8/8/8 7/7/7
f 7/7/7 10/10/10 9/9/9
f 9/9/9 10/10/10 11/11/11
f 14/14/14 13/13/13 12/12/12
f 17/17/17 16/16/16 15/15/15
f 19/19/19 18/18/18 17/17/17
f 19/19/19 20/20/20 18/18/18
f 21/21/21 20/20/20 19/19/19
f 18/18/18 20/20/20 22/22/22
f 18/18/18 22/22/22 23/23/23
f 24/24/24 18/18/18 23/23/23
f 25/25/25 18/18/18 24/24/24
f 23/23/23 22/22/22 26/26/26
f 22/22/22 27/27/27 26/26/26
f 22/22/22 28/28/28 27/27/27
f 26/26/26 27/27/27 29/29/29
f 27/27/27 30/30/30 29/29/29
f 27/27/27 28/28/28 30/30/30
f 29/29/29 30/30/30 31/31/31
f 30/30/30 32/32/32 31/31/31
f 30/30/30 28/28/28 32/32/32
f 31/31/31 32/32/32 33/33/33
f 32/32/32 34/34/34 33/33/33
f 32/32/32 28/28/28 34/34/34
f 33/33/33 34/34/34 35/35/35
f 34/34/34 36/36/36 35/35/35
f 34/34/34 28/28/28 36/36/36
f 35/35/35 36/36/36 37/37/37
f 36/36/36 38/38/38 37/37/37
f 36/36/36 28/28/28 38/38/38
f 37/37/37 38/38/38 39/39/39
f 40/40/40 28/28/28 22/22/22
f 38/38/38 28/28/28 41/41/41
f 38/38/38 41/41/41 39/39/39
f 40/40/40 42/42/42 28/28/28
f 40/40/40 22/22/22 20/20/20
f 40/40/40 20/20/20 42/42/42
f 39/39/39 41/41/41 43/43/43
f 41/41/41 44/44/44 43/43/43
f 41/41/41 28/28/28 44/44/44
f 43/43/43 44/44/44 45/45/45
f 45/45/45 44/44/44 46/46/46
f 44/44/44 47/47/47 46/46/46
f 44/44/44 28/28/28 47/47/47
f 46/46/46 47/47/47 48/48/48
f 47/47/47 49/49/49 48/48/48
f 47/47/47 28/28/28 49/49/49
f 48/48/48 49/49/49 50/50/50
f 50/50/50 49/49/49 51/51/51
f 49/49/49 52/52/52 51/51/51
f 49/49/49 28/28/28 53/53/53
f 51/51/51 53/53/53 54/54/54
f 53/53/53 28/28/28 55/55/55
f 55/55/55 28/28/28 56/56/56
f 54/54/54 58/58/58 57/57/57
f 55/55/55 60/60/60 59/59/59
f 61/61/61 55/55/55 59/59/59
f 57/57/57 62/62/62 61/61/61
f 62/62/62 55/55/55 61/61/61
f 63/63/63 28/28/28 42/42/42
f 63/63/63 42/42/42 64/64/64
f 65/65/65 63/63/63 64/64/64
f 64/64/64 42/42/42 66/66/66
f 42/42/42 67/67/67 66/66/66
f 66/66/66 67/67/67 68/68/68
f 42/42/42 20/20/20 67/67/67
f 68/68/68 67/67/67 69/69/69
f 67/67/67 20/20/20 70/70/70
f 67/67/67 70/70/70 69/69/69
f 69/69/69 70/70/70 71/71/71
f 70/70/70 20/20/20 21/21/21
f 70/70/70 72/72/72 71/71/71
f 21/21/21 72/72/72 70/70/70
f 71/71/71 72/72/72 73/73/73
f 73/73/73 72/72/72 74/74/74
f 74/74/74 72/72/72 75/75/75
f 72/72/72 21/21/21 75/75/75
f 75/75/75 21/21/21 76/76/76
f 79/79/79 78/78/78 77/77/77
f 82/82/82 81/81/81 80/80/80
f 81/81/81 82/82/82 83/83/83
f 83/83/83 84/84/84 81/81/81
f 84/84/84 85/85/85 81/81/81
f 81/81/81 85/85/85 86/86/86
f 87/87/87 81/81/81 86/86/86
f 88/88/88 81/81/81 87/87/87
f 81/81/81 88/88/88 89/89/89
f 92/92/92 91/91/91 90/90/90
f 93/93/93 92/92/92 90/90/90
f 94/94/94 93/93/93 90/90/90
f 95/95/95 94/94/94 90/90/90
f 95/95/95 90/90/90 96/96/96
f 96/96/96 90/90/90 97/97/97
f 90/90/90 98/98/98 97/97/97
f 98/98/98 99/99/99 97/97/97
f 99/99/99 98/98/98 100/100/100
f 100/100/100 98/98/98 101/101/101
f 101/101/101 98/98/98 102/102/102
f 102/102/102 98/98/98 103/103/103
f 103/103/103 98/98/98 104/104/104
f 104/104/104 98/98/98 105/105/105
f 105/105/105 98/98/98 106/106/106
f 106/106/106 98/98/98 107/107/107
f 98/98/98 108/108/108 107/107/107
f 109/109/109 108/108/108 98/98/98
f 90/90/90 109/109/109 98/98/98
f 109/109/109 90/90/90 110/110/110
f 113/113/113 112/112/112 111/111/111
f 114/114/114 112/112/112 113/113/113
f 115/115/115 114/114/114 113/113/113
f 115/115/115 116/116/116 114/114/114
f 117/117/117 114/114/114 116/116/116
f 112/112/112 114/114/114 117/117/117
f 118/118/118 112/112/112 117/117/117
f 112/112/112 118/118/118 119/119/119
