g fire20_mesh
v 0.02002412 1.035378 -3.516534E-16
v -0.1760908 0.9186038 -0.1082354
v -0.08606248 0.9699384 -3.516534E-16
v 0.290323 0.8264709 -3.516534E-16
v 0.2341397 0.9522008 -0.2034021
v 0.4271089 0.8661822 -3.516533E-16
v 0.1660225 0.7981116 -0.2087756
v 0.2341397 0.9522008 -0.2034021
v 0.2523262 0.7152315 -3.516534E-16
v 0.1686474 0.6058695 -0.1982128
v 0.3001527 0.573926 -3.516533E-16
v -0.0355654 0.7226844 -0.351605
v 0.2341397 0.9522008 -0.2034021
v 0.1105725 1.038137 -0.08606445
v 0.2694782 0.4954847 -0.1889384
v 0.3993755 0.5257097 -3.516534E-16
v 0.1722508 0.3019482 -0.3777187
v 0.346971 0.4634555 -0.1917791
v 0.5312815 0.4911918 -3.516534E-16
v 0.4195828 0.423105 -0.1884728
v 0.4150063 0.2726917 -0.2216125
v 0.5516284 0.2280089 -3.516534E-16
v 0.466698 0.06949139 -3.516534E-16
v 0.3428279 0.1466588 -0.2272965
v 0.2375126 -0.02347445 -3.516533E-16
v 0.1956738 0.09321916 -0.2288448
v -0.01312739 0.003163159 -3.516534E-16
v 0.0327529 0.08989817 -0.2366409
v -0.165976 0.05832693 -3.516533E-16
v -0.06006854 0.1637154 -0.2312495
v -0.06006854 0.1637154 -0.2312495
v -0.1977162 0.1610421 -3.516533E-16
v -0.03160993 0.2663109 -0.2323012
v -0.07285679 0.403829 -0.1967134
v -0.13736 0.3595057 -3.516534E-16
v -0.09592009 0.2368046 -3.516534E-16
v -0.2427713 0.3866088 -3.516534E-16
v -0.2911169 0.4933017 -0.1542473
v -0.3622903 0.3243483 -3.516534E-16
v -0.4244325 0.4408326 -3.516533E-16
v -0.4152576 0.5984759 -3.516534E-16
v -0.2944701 0.6249104 -0.1938855
v -0.3633273 0.7634665 -3.516534E-16
v -0.2258015 0.7623014 -0.1828291
v -0.2607047 0.8716285 -3.516534E-16
v -0.1760908 0.9186038 -0.1082354
v -0.2408164 0.993675 -3.516534E-16
v -0.08606248 0.9699384 -3.516534E-16
v 0.02002412 1.035378 -3.516534E-16
v 0.07212772 1.214792 -3.516534E-16
v 0.09278472 1.186756 -0.07115272
v 0.06125854 1.295586 -3.516534E-16
v 0.08152942 1.306031 -0.06910449
v 0.1959291 1.082892 -3.516534E-16
v 0.2992531 1.028 -3.516533E-16
v 0.2341397 0.9522008 -0.2034021
v 0.3702671 0.9667924 -3.516534E-16
v 0.1122241 1.184027 -3.516533E-16
v 0.1030805 1.336358 -3.516534E-16
v 0.05403925 1.524867 -0.06767237
v 0.1299334 1.483303 -6.967826E-16
v 0.06560875 1.656123 -3.516534E-16
v -0.007618249 1.550321 -7.045401E-16
v -0.04293486 1.471708 -3.516533E-16
v 0.02629634 1.38653 -0.09679066
v -0.03118934 1.363104 -3.516534E-16
v 0.4271089 0.8661822 -3.516533E-16
v 0.08152942 1.306031 -0.06910449
v 0.007943166 1.418042 -0.006513223
v 0.01236879 1.472029 -0.01207331
v 0.03624205 1.437233 -0.05948948
v 0.03624205 1.437233 -0.05948948
v 0.05268885 1.396429 -0.0009531369
v 0.04932884 1.519069 -0.0009531369
v 0.03624205 1.437233 -0.05948948
v 0.03624205 1.437233 -0.05948948
v -0.09592009 0.2368046 -3.516534E-16
v -0.06006854 0.1637154 -0.2312495
v -0.1977162 0.1610421 -3.516533E-16
v 0.04285594 0.8283784 -0.0851756
v 0.2056186 1.026006 2.235174E-08
v 0.3168954 0.9146339 2.235174E-08
v 0.1349991 1.047787 2.235174E-08
v 0.2127388 0.8414606 2.235174E-08
v 0.08094845 0.9568957 2.235174E-08
v 0.147626 0.7225286 2.235174E-08
v 0.03137542 0.8863646 2.235174E-08
v 0.1181165 0.5709222 2.235174E-08
v -0.06037603 0.8604882 2.235174E-08
v -0.1102324 0.5924674 -0.1279339
v -0.1736751 0.8972517 2.235174E-08
v -0.2659102 0.7867811 2.235174E-08
v -0.3128835 0.6265712 2.235174E-08
v -0.3498255 0.5238604 2.235174E-08
v -0.3122023 0.4295864 2.235174E-08
v -0.1859724 0.4771617 2.235174E-08
v -0.06183013 0.403918 2.235174E-08
v 0.09639766 0.333636 -0.1249027
v 0.2193089 0.4179569 2.235174E-08
v -0.04230331 0.2531222 2.235174E-08
v 0.4763959 0.3910507 2.235174E-08
v -0.09085837 0.09093016 2.235174E-08
v 0.45017 0.2503439 2.235174E-08
v 0.0750493 0.0576933 2.235174E-08
v 0.3668835 0.1476367 2.235174E-08
v 0.233839 0.07196674 2.235174E-08
v -0.4097206 1.652875 0
v -0.3361615 1.628524 -0.04855978
v -0.3634881 1.602497 0
v -0.4318858 1.710171 0
v -0.303339 1.560361 0
v -0.2193723 1.52132 0
v -0.2797644 1.637861 0
v -0.3550702 1.683542 0
v -0.3361615 1.628524 -0.04855978
vt 0.7916962 0.6650444
vt 0.7937515 0.6645632
vt 0.7928481 0.6647841
vt 0.7953732 0.6657078
vt 0.7931601 0.6655697
vt 0.7946743 0.6660435
vt 0.7958723 0.6654026
vt 0.7931601 0.6655697
vt 0.7973313 0.6656145
vt 0.7992563 0.6654091
vt 0.7998185 0.665732
vt 0.7972002 0.6649079
vt 0.7931601 0.6655697
vt 0.7916476 0.6652665
vt 0.8011991 0.6656567
vt 0.8006675 0.6659755
vt 0.8046057 0.6654179
vt 0.8017628 0.6658469
vt 0.8012749 0.6662991
vt 0.8024734 0.6660249
vt 0.8051211 0.6660137
vt 0.8059072 0.666349
vt 0.8086973 0.6661406
vt 0.8073391 0.6658366
vt 0.8103337 0.665578
vt 0.8082796 0.6654754
vt 0.809865 0.664963
vt 0.8083383 0.6650757
vt 0.8088937 0.6645879
vt 0.8070389 0.6648477
vt 0.8070389 0.6648477
vt 0.8070857 0.66451
vt 0.8052329 0.6649177
vt 0.8028127 0.6648164
vt 0.8035925 0.6646583
vt 0.8057525 0.6647598
vt 0.8031157 0.6643993
vt 0.8012376 0.6642807
vt 0.8042115 0.6641061
vt 0.8021612 0.6639535
vt 0.7993864 0.6639761
vt 0.798921 0.6642725
vt 0.7964824 0.6641034
vt 0.7965028 0.664441
vt 0.7945784 0.6643554
vt 0.7937515 0.6645632
vt 0.7924304 0.6644042
vt 0.7928481 0.6647841
vt 0.7916962 0.6650444
vt 0.7885385 0.6651723
vt 0.7890319 0.6652229
vt 0.7871162 0.6651455
vt 0.7869324 0.6651953
vt 0.79086 0.6654761
vt 0.7918261 0.6657298
vt 0.7931601 0.6655697
vt 0.7929035 0.6659039
vt 0.7890797 0.6652707
vt 0.7863985 0.6652483
vt 0.7830803 0.6651278
vt 0.7838122 0.6653141
vt 0.7807701 0.6651562
vt 0.7826325 0.6649765
vt 0.7840161 0.6648899
vt 0.7855155 0.6650597
vt 0.7859276 0.6649188
vt 0.7946743 0.6660435
vt 0.7869324 0.6651953
vt 0.129713 0.5051388
vt 0.1282007 0.5051621
vt 0.1291756 0.5052874
vt 0.1291756 0.5052874
vt 0.1303178 0.5053738
vt 0.1268836 0.5053561
vt 0.1291756 0.5052874
vt 0.1291756 0.5052874
vt 0.8057525 0.6647598
vt 0.8070389 0.6648477
vt 0.8070857 0.66451
vt 0.1493396 0.5052718
vt 0.1427169 0.5060503
vt 0.1464344 0.5065826
vt 0.1424781 0.5056528
vt 0.1488979 0.5060843
vt 0.143923 0.5054938
vt 0.152883 0.5057728
vt 0.1473982 0.5052167
vt 0.1579585 0.5056318
vt 0.1482753 0.5047779
vt 0.1572476 0.5045394
vt 0.1470447 0.504236
vt 0.1507314 0.5037947
vt 0.1560065 0.50357
vt 0.1590918 0.5033932
vt 0.1618915 0.5035732
vt 0.1610892 0.504177
vt 0.163562 0.5047711
vt 0.165902 0.5055279
vt 0.1630607 0.5061157
vt 0.1686092 0.5048644
vt 0.1639178 0.5073456
vt 0.1740409 0.5046321
vt 0.168588 0.5072201
vt 0.1748888 0.5054257
vt 0.1719688 0.5068217
vt 0.1745244 0.5061853
vt 0.780827 0.6639895
vt 0.7812557 0.6641701
vt 0.781714 0.6641032
vt 0.7798187 0.6639355
vt 0.7824558 0.664251
vt 0.7831429 0.6644568
vt 0.7810917 0.6643085
vt 0.7802875 0.6641237
vt 0.7812557 0.6641701
vn 0.5857203 -0.7204657 0.3712963
vn 0.4178009 -0.6744498 0.6087362
vn 0.3257321 -0.9039193 0.2771797
vn -0.7426512 0.420959 0.520829
vn -0.2945416 -0.493959 0.8180769
vn -0.597151 0.3578776 0.7178679
vn -0.7746894 0.1766609 0.6071633
vn -0.2945416 -0.493959 0.8180769
vn -0.8917887 -0.07953124 0.4454075
vn -0.7533078 -0.2679391 0.6006129
vn -0.6658937 -0.6000253 0.4433456
vn 0.1281006 -0.2351602 0.963478
vn -0.2945416 -0.493959 0.8180769
vn 0.1323106 -0.7364346 0.6634439
vn -0.5637558 -0.5876034 0.5804323
vn -0.3419987 -0.844372 0.412399
vn -0.007592938 0.08341473 0.9964861
vn -0.3344184 -0.7638104 0.552049
vn -0.7704796 -0.3300659 0.5453601
vn -0.7172079 -0.3323289 0.6125115
vn -0.7563885 0.1196952 0.6430782
vn -0.8227033 0.160681 0.5452898
vn -0.5604703 0.6382351 0.5277584
vn -0.4909026 0.6261711 0.605743
vn -0.1528627 0.8829395 0.4439042
vn -0.1316162 0.8266036 0.5471779
vn 0.2146047 0.8746669 0.4346291
vn 0.1938302 0.8072751 0.5574377
vn 0.5606345 0.6665465 0.4913295
vn 0.7176071 0.2618645 0.6453425
vn 0.7176071 0.2618645 0.6453425
vn 0.8731432 -0.2567872 0.4143443
vn 0.8150578 -0.1200651 0.5668025
vn 0.6244973 0.3942267 0.6742318
vn 0.6763327 0.626819 0.3868746
vn 0.9240954 -0.1802582 0.3369787
vn 0.1911505 0.8654488 0.4630982
vn 0.543933 0.4319574 0.7194093
vn 0.2224542 0.6045715 0.7648578
vn 0.7560573 0.164725 0.6334375
vn 0.8105606 -0.1256301 0.5720215
vn 0.7204705 -0.1009518 0.6860985
vn 0.7655863 -0.4048104 0.5000064
vn 0.6697892 -0.4339385 0.602561
vn 0.7293834 -0.4906962 0.476673
vn 0.4178009 -0.6744498 0.6087362
vn 0.3898984 -0.6309177 0.6707622
vn 0.3257321 -0.9039193 0.2771797
vn 0.5857203 -0.7204657 0.3712963
vn 0.8851038 -0.02352456 0.4647987
vn 0.09310222 -0.2728653 0.9575368
vn 0.8006639 0.4642766 0.3786615
vn -0.417433 0.3261006 0.8481793
vn -0.4137782 -0.7346708 0.5376304
vn -0.370838 -0.7962342 0.4780067
vn -0.2945416 -0.493959 0.8180769
vn -0.696481 -0.5119177 0.5028463
vn -0.8447123 -0.2375335 0.4796238
vn -0.8623412 -0.0234117 0.505786
vn -0.1668911 -0.2370925 0.9570446
vn -0.7996933 -0.06040709 0.5973621
vn -0.1802362 -0.4381521 0.8806461
vn 0.6183617 -0.3597518 0.6987184
vn 0.7418656 -0.1437651 0.6549557
vn 0.5149611 0.1483889 0.8442723
vn 0.7620558 0.2011076 0.6154891
vn -0.597151 0.3578776 0.7178679
vn -0.417433 0.3261006 0.8481793
vn 0.671679 0.5052422 0.5418281
vn 0.6677963 -0.3985169 0.6286752
vn -0.7051027 0.02966048 0.7084845
vn -0.7051027 0.02966048 0.7084845
vn -0.8244129 0.3287004 0.4607596
vn -0.7455025 -0.3047645 0.5927432
vn -0.7051027 0.02966048 0.7084845
vn -0.7051027 0.02966048 0.7084845
vn 0.9240954 -0.1802582 0.3369787
vn 0.7176071 0.2618645 0.6453425
vn 0.8731432 -0.2567872 0.4143443
vn -0.0997681 -0.2362946 0.9665459
vn -0.1919523 -0.2508382 0.9488068
vn -0.255824 -0.1328009 0.9575584
vn -0.006878742 -0.3593719 0.9331691
vn -0.4271356 0.4534256 0.782279
vn 0.7899128 -0.4838296 0.3767584
vn -0.5188976 0.1618298 0.8393785
vn 0.5094652 -0.6778103 0.5301118
vn -0.8444493 -0.1547334 0.5127992
vn 0.1526279 -0.4780059 0.8649942
vn 0.1405644 -0.01124056 0.9900078
vn 0.1127751 -0.3645199 0.9243414
vn 0.4162562 -0.2433151 0.8760871
vn 0.5069103 -0.1630762 0.8464326
vn 0.4631899 0.03385587 0.8856122
vn 0.2842826 0.3488977 0.8930026
vn 0.01189151 0.7392535 0.6733223
vn 0.6174788 0.4498868 0.6452301
vn -0.04958117 0.07389669 0.9960327
vn -0.2714125 -0.6524578 0.7075549
vn 0.6983143 -0.1044481 0.7081298
vn -0.2951622 -0.1109395 0.9489846
vn 0.2262757 0.3019976 0.9260652
vn -0.3042619 0.1240087 0.9444821
vn 0.02485474 0.4106399 0.9114588
vn -0.2416122 0.2737921 0.9309466
vn -0.1256694 0.372827 0.9193516
vn 0.5928398 0.3025456 0.7463291
vn -0.121324 -0.1129221 0.9861689
vn 0.5213064 0.5946403 0.6120806
vn 0.2286339 -0.2854875 0.9307112
vn 0.3302833 0.6479769 0.6863227
vn -0.3254001 0.07255688 0.9427885
vn -0.5596899 -0.3984448 0.7266286
vn -0.2934081 -0.6873118 0.6644654
vn -0.121324 -0.1129221 0.9861689
g fire20_mesh_0
f 3/3/3 2/2/2 1/1/1
f 6/6/6 5/5/5 4/4/4
f 8/8/8 7/7/7 4/4/4
f 4/4/4 7/7/7 9/9/9
f 7/7/7 10/10/10 9/9/9
f 9/9/9 10/10/10 11/11/11
f 7/7/7 12/12/12 10/10/10
f 7/7/7 13/13/13 12/12/12
f 14/14/14 12/12/12 13/13/13
f 10/10/10 15/15/15 11/11/11
f 11/11/11 15/15/15 16/16/16
f 10/10/10 17/17/17 15/15/15
f 12/12/12 17/17/17 10/10/10
f 15/15/15 18/18/18 16/16/16
f 15/15/15 17/17/17 18/18/18
f 16/16/16 18/18/18 19/19/19
f 18/18/18 17/17/17 20/20/20
f 18/18/18 20/20/20 19/19/19
f 20/20/20 17/17/17 21/21/21
f 19/19/19 20/20/20 22/22/22
f 20/20/20 21/21/21 22/22/22
f 22/22/22 21/21/21 23/23/23
f 21/21/21 24/24/24 23/23/23
f 21/21/21 17/17/17 24/24/24
f 23/23/23 24/24/24 25/25/25
f 24/24/24 26/26/26 25/25/25
f 24/24/24 17/17/17 26/26/26
f 25/25/25 26/26/26 27/27/27
f 26/26/26 28/28/28 27/27/27
f 26/26/26 17/17/17 28/28/28
f 27/27/27 28/28/28 29/29/29
f 28/28/28 30/30/30 29/29/29
f 28/28/28 17/17/17 31/31/31
f 29/29/29 31/31/31 32/32/32
f 31/31/31 17/17/17 33/33/33
f 33/33/33 17/17/17 34/34/34
f 12/12/12 34/34/34 17/17/17
f 33/33/33 34/34/34 35/35/35
f 36/36/36 33/33/33 35/35/35
f 35/35/35 34/34/34 37/37/37
f 34/34/34 38/38/38 37/37/37
f 34/34/34 12/12/12 38/38/38
f 37/37/37 38/38/38 39/39/39
f 39/39/39 38/38/38 40/40/40
f 40/40/40 38/38/38 41/41/41
f 38/38/38 42/42/42 41/41/41
f 38/38/38 12/12/12 42/42/42
f 41/41/41 42/42/42 43/43/43
f 42/42/42 44/44/44 43/43/43
f 42/42/42 12/12/12 44/44/44
f 43/43/43 44/44/44 45/45/45
f 44/44/44 12/12/12 46/46/46
f 44/44/44 46/46/46 45/45/45
f 45/45/45 46/46/46 47/47/47
f 47/47/47 46/46/46 48/48/48
f 46/46/46 12/12/12 14/14/14
f 46/46/46 14/14/14 49/49/49
f 49/49/49 14/14/14 50/50/50
f 14/14/14 51/51/51 50/50/50
f 50/50/50 51/51/51 52/52/52
f 51/51/51 53/53/53 52/52/52
f 51/51/51 14/14/14 54/54/54
f 54/54/54 14/14/14 55/55/55
f 14/14/14 56/56/56 55/55/55
f 55/55/55 56/56/56 57/57/57
f 58/58/58 51/51/51 54/54/54
f 53/53/53 51/51/51 58/58/58
f 59/59/59 53/53/53 58/58/58
f 60/60/60 53/53/53 59/59/59
f 61/61/61 60/60/60 59/59/59
f 62/62/62 60/60/60 61/61/61
f 63/63/63 60/60/60 62/62/62
f 64/64/64 60/60/60 63/63/63
f 65/65/65 53/53/53 60/60/60
f 65/65/65 60/60/60 64/64/64
f 53/53/53 65/65/65 66/66/66
f 66/66/66 65/65/65 64/64/64
f 57/57/57 13/13/13 67/67/67
f 52/52/52 68/68/68 66/66/66
f 71/71/71 70/70/70 69/69/69
f 73/73/73 72/72/72 69/69/69
f 70/70/70 75/75/75 74/74/74
f 74/74/74 76/76/76 73/73/73
f 79/79/79 78/78/78 77/77/77
f 78/78/78 33/33/33 77/77/77
f 82/82/82 81/81/81 80/80/80
f 83/83/83 80/80/80 81/81/81
f 84/84/84 82/82/82 80/80/80
f 80/80/80 83/83/83 85/85/85
f 86/86/86 84/84/84 80/80/80
f 87/87/87 80/80/80 85/85/85
f 86/86/86 80/80/80 88/88/88
f 80/80/80 87/87/87 89/89/89
f 90/90/90 80/80/80 89/89/89
f 91/91/91 90/90/90 89/89/89
f 92/92/92 90/90/90 91/91/91
f 93/93/93 90/90/90 92/92/92
f 94/94/94 90/90/90 93/93/93
f 95/95/95 90/90/90 94/94/94
f 95/95/95 96/96/96 90/90/90
f 97/97/97 90/90/90 96/96/96
f 98/98/98 88/88/88 80/80/80
f 90/90/90 98/98/98 80/80/80
f 90/90/90 97/97/97 98/98/98
f 98/98/98 99/99/99 88/88/88
f 97/97/97 100/100/100 98/98/98
f 99/99/99 98/98/98 101/101/101
f 100/100/100 102/102/102 98/98/98
f 98/98/98 103/103/103 101/101/101
f 104/104/104 98/98/98 102/102/102
f 105/105/105 103/103/103 98/98/98
f 106/106/106 98/98/98 104/104/104
f 105/105/105 98/98/98 106/106/106
f 109/109/109 108/108/108 107/107/107
f 107/107/107 108/108/108 110/110/110
f 111/111/111 108/108/108 109/109/109
f 112/112/112 108/108/108 111/111/111
f 113/113/113 108/108/108 112/112/112
f 110/110/110 115/115/115 114/114/114
f 114/114/114 115/115/115 113/113/113
