g fireBlue14_mesh
v -0.2356557 0.6561321 -2.910383E-11
v -0.05819616 0.4493442 -0.129375
v -0.1328635 0.5356117 -2.910383E-11
v -0.3032879 1.207012 2.235174E-08
v -0.2971608 1.039626 -0.0851756
v -0.3295398 1.136546 2.235174E-08
v -0.3187765 1.034119 2.235174E-08
v -0.3403097 0.9814771 2.235174E-08
v -0.2918054 0.8530658 -0.08630012
v -0.3812844 0.9424042 2.235174E-08
v -0.3733062 0.8575691 2.235174E-08
v -0.3098908 0.7782238 2.235174E-08
v -0.207697 0.7717007 2.235174E-08
v -0.1969943 0.7945906 -0.05831745
v -0.08810839 0.6977732 2.235174E-08
v -0.08354538 0.7290591 -0.07358169
v 0.01784771 0.6725887 -0.0851756
v -0.01971885 0.574747 2.235174E-08
v -0.01398014 0.4405731 2.235174E-08
v 0.09739587 0.1798939 -0.0851756
v -0.04509505 0.3207824 2.235174E-08
v -0.1244416 0.2335249 2.235174E-08
v -0.3097124 0.1750183 2.235174E-08
v -0.03904131 0.06204182 2.235174E-08
v 0.1667948 0.07192197 2.235174E-08
v 0.3233763 0.2459931 2.235174E-08
v 0.3875971 0.4287756 2.235174E-08
v 0.2036109 0.4019483 2.235174E-08
v 0.1007024 0.4981454 2.235174E-08
v 0.01784771 0.6725887 -0.0851756
v 0.0760939 0.6211882 2.235174E-08
v 0.1074139 0.730808 2.235174E-08
v 0.1463813 0.8191662 2.235174E-08
v 0.01336037 0.7565989 2.235174E-08
v 0.06938244 0.8270051 2.235174E-08
v 0.01784771 0.6725887 -0.0851756
v 0.1199733 0.8661137 2.235174E-08
v -0.09787098 0.7732133 2.235174E-08
v -0.1969943 0.7945906 -0.05831745
v -0.08354538 0.7290591 -0.07358169
v 0.01784771 0.6725887 -0.0851756
v -0.278912 1.058439 -0.006713344
v -0.2971608 1.039626 -0.0851756
v -0.3032879 1.207012 2.235174E-08
v -0.2401038 0.965758 -0.01127877
v -0.1838284 0.8234367 -0.09567143
v -0.1969943 0.7945906 -0.05831745
v -0.09787098 0.7732133 2.235174E-08
v -0.1328635 0.5356117 -2.910383E-11
v -0.05819616 0.4493442 -0.129375
v -0.1529192 0.3742343 -2.910383E-11
v -0.05819616 0.4493442 -0.129375
v -0.2496724 0.1876293 -0.1124099
v -0.2552925 0.2773821 -2.910383E-11
v -0.4148816 0.2709484 -2.910383E-11
v -0.3578912 0.151078 -2.910383E-11
v 0.1806173 0.5326172 -0.388089
v -0.1209281 0.701966 -0.2087843
v -0.1015892 0.1458353 -0.2653857
v -0.2356557 0.6561321 -2.910383E-11
v -0.2003632 0.03733756 -2.910383E-11
v -0.3640008 0.7160749 -2.910383E-11
v 0.01787176 0.1126454 -0.2867045
v -0.04991845 0.0004234237 -2.910383E-11
v 0.2072605 0.1556542 -0.2793508
v 0.1527799 -0.004646321 -2.910383E-11
v 0.2918994 0.05784092 -2.910383E-11
v 0.3655902 0.3252498 -0.2076856
v 0.4207518 0.1902199 -2.910383E-11
v 0.4838356 0.3640834 -2.910383E-11
v 0.3508765 0.5703143 -0.1976522
v 0.4603641 0.6429458 -2.910383E-11
v 0.2910796 0.758823 -0.2351179
v 0.330017 0.7996312 -2.910383E-11
v 0.09778513 0.7216635 -0.3062533
v -0.1937254 0.9468928 -0.2776246
v 0.1541275 0.9159026 -0.1978561
v 0.2338352 0.9614157 -2.910383E-11
v 0.1293331 1.123003 -2.910383E-11
v 0.0932695 1.020079 -2.910383E-11
v -0.04706791 0.9434654 -0.2658165
v -0.03850498 0.9777285 -2.910383E-11
v -0.180918 1.069902 -0.2117714
v -0.1574463 1.100381 -2.910383E-11
v -0.2976666 1.197331 -0.1549041
v -0.2388426 1.162624 -2.910383E-11
v -0.3411736 1.342638 -2.910383E-11
v -0.3457614 1.219501 -2.910383E-11
v -0.3395009 1.051119 -0.190427
v -0.3913235 1.101098 -2.910383E-11
v -0.3608793 0.9170837 -0.1592216
v -0.4361432 0.961886 -2.910383E-11
v -0.4254524 0.8159003 -2.910383E-11
v -0.2816154 0.8055001 -0.1704455
v 0.02174935 1.566422 -0.05945015
v 0.147083 1.58408 -0.06528959
v 0.153486 1.564362 -7.450581E-09
v 0.2310188 1.630032 -7.450581E-09
v 0.02174935 1.566422 -0.05945015
v 0.05856307 1.537064 -7.450581E-09
v -0.006057026 1.456691 -7.450581E-09
v 0.001340082 1.582107 -7.450581E-09
v 0.03064524 1.757031 -7.450581E-09
v 0.05147822 1.678282 -7.450581E-09
v 0.07816532 1.635675 -7.450581E-09
v 0.1284727 1.607636 -7.450581E-09
v 0.2310188 1.630032 -7.450581E-09
v 0.147083 1.58408 -0.06528959
v 0.02174935 1.566422 -0.05945015
vt 0.4833103 0.2576483
vt 0.4885355 0.2582736
vt 0.4863556 0.2580109
vt 0.1451444 0.1005195
vt 0.1451699 0.09566329
vt 0.1450356 0.09847643
vt 0.1450802 0.09550852
vt 0.1449909 0.09398535
vt 0.145192 0.0902613
vt 0.1448211 0.09286088
vt 0.1448542 0.09042817
vt 0.145117 0.08815761
vt 0.1455408 0.08789317
vt 0.1455852 0.0885518
vt 0.1460365 0.08573192
vt 0.1460556 0.08663999
vt 0.1464759 0.08499619
vt 0.1463202 0.08215982
vt 0.146344 0.0782672
vt 0.1468056 0.07069959
vt 0.1462149 0.07479385
vt 0.145886 0.07227831
vt 0.1451177 0.07067694
vt 0.14624 0.067345
vt 0.1470934 0.0675631
vt 0.1477427 0.07262533
vt 0.1480089 0.07793137
vt 0.1472461 0.07714672
vt 0.1468194 0.079933
vt 0.1464759 0.08499619
vt 0.1467173 0.08350325
vt 0.1468473 0.08668462
vt 0.147009 0.08924976
vt 0.1464573 0.08743278
vt 0.1466896 0.08947723
vt 0.1464759 0.08499619
vt 0.1468993 0.09061154
vt 0.1459961 0.08792087
vt 0.1455852 0.0885518
vt 0.1460556 0.08663999
vt 0.1464759 0.08499619
vt 0.1452455 0.09620823
vt 0.1451699 0.09566329
vt 0.1451444 0.1005195
vt 0.1453426 0.09345003
vt 0.1456397 0.08938583
vt 0.1455852 0.0885518
vt 0.1459961 0.08792087
vt 0.4863556 0.2580109
vt 0.4885355 0.2582736
vt 0.4904328 0.2579402
vt 0.4885355 0.2582736
vt 0.4951476 0.257599
vt 0.4928799 0.2575793
vt 0.4930429 0.257017
vt 0.4960713 0.2572176
vt 0.4864313 0.2591149
vt 0.4821526 0.2580527
vt 0.4962039 0.2581209
vt 0.4833103 0.2576483
vt 0.4989448 0.2577729
vt 0.4817957 0.2571962
vt 0.4970425 0.2585417
vt 0.4998779 0.258303
vt 0.4959556 0.2592088
vt 0.5000054 0.2590172
vt 0.4984271 0.2595071
vt 0.4916708 0.2597668
vt 0.4950826 0.2599609
vt 0.4906892 0.260183
vt 0.4854788 0.2597148
vt 0.4836437 0.2601005
vt 0.4807161 0.2595043
vt 0.4796851 0.2596415
vt 0.4816551 0.2588232
vt 0.4769214 0.2575541
vt 0.4767475 0.2590218
vt 0.4755974 0.2593026
vt 0.4715154 0.2589344
vt 0.4741154 0.2588073
vt 0.4760508 0.2583129
vt 0.4751852 0.2583431
vt 0.4728564 0.2578415
vt 0.4720863 0.2579241
vt 0.4696369 0.25743
vt 0.4705138 0.2576373
vt 0.4659654 0.2572767
vt 0.4690765 0.2572604
vt 0.473331 0.2572825
vt 0.4720682 0.2571003
vt 0.4767174 0.2572075
vt 0.4755853 0.256942
vt 0.4792736 0.2569797
vt 0.4795367 0.2574862
vt 0.4603112 0.2585552
vt 0.4598648 0.2589972
vt 0.4603633 0.2590196
vt 0.4587043 0.2592926
vt 0.4603112 0.2585552
vt 0.461053 0.258685
vt 0.4630838 0.2584577
vt 0.4599154 0.2584835
vt 0.4554955 0.2585866
vt 0.4574853 0.2586601
vt 0.4585611 0.2587541
vt 0.4592701 0.2589314
vt 0.4587043 0.2592926
vt 0.4598648 0.2589972
vt 0.4603112 0.2585552
vn 0.6402581 0.6095408 0.4674715
vn 0.8081521 -0.09665304 0.5809891
vn 0.8229196 0.3766961 0.4253274
vn -0.2913039 -0.4422975 0.8482423
vn -0.4438016 -0.1984933 0.8738654
vn 0.8323152 -0.1820517 0.5235537
vn 0.9673697 -0.08030292 0.2403069
vn 0.8121242 -0.1394503 0.5665755
vn 0.1392437 0.003884261 0.9902506
vn 0.5478724 -0.2286164 0.8047176
vn 0.70933 0.2566569 0.6564893
vn 0.3112515 0.6847008 0.6590201
vn 0.3254167 0.8021547 0.5006514
vn 0.2477519 0.7571776 0.6044015
vn 0.5733961 0.632111 0.5212029
vn 0.01267775 -0.4013887 0.9158201
vn -0.04336187 -0.1111247 0.99286
vn 0.8239011 0.1575748 0.544387
vn 0.7449542 0.0956989 0.6602159
vn -0.04497372 0.1910095 0.9805574
vn 0.3677214 -0.1797019 0.9124079
vn 0.2111507 -0.4794212 0.8518044
vn 0.2004297 0.1573606 0.9669878
vn 0.1442349 0.4645047 0.8737458
vn -0.2674958 0.4849164 0.8326476
vn -0.393752 0.1862171 0.900157
vn -0.1653207 -0.141276 0.9760687
vn -0.06871227 -0.3284698 0.9420118
vn -0.7491472 -0.1658916 0.6412944
vn -0.04336187 -0.1111247 0.99286
vn -0.8324222 -0.02603414 0.55353
vn -0.7519186 0.2921416 0.590992
vn -0.4640512 -0.1042378 0.879654
vn 0.07997152 -0.7614212 0.6433057
vn 0.474298 -0.5412708 0.6943107
vn -0.04336187 -0.1111247 0.99286
vn -0.1584534 -0.3265015 0.9318204
vn -0.3044694 -0.7625313 0.5708278
vn 0.2477519 0.7571776 0.6044015
vn 0.01267775 -0.4013887 0.9158201
vn -0.04336187 -0.1111247 0.99286
vn -0.8952509 -0.1548122 0.4178028
vn -0.4438016 -0.1984933 0.8738654
vn -0.2913039 -0.4422975 0.8482423
vn -0.7640772 -0.2239115 0.6050204
vn -0.002203802 0.06739238 0.9977241
vn 0.2477519 0.7571776 0.6044015
vn -0.3044694 -0.7625313 0.5708278
vn 0.8229196 0.3766961 0.4253274
vn 0.8081521 -0.09665304 0.5809891
vn 0.7656176 -0.517686 0.3818779
vn 0.8081521 -0.09665304 0.5809891
vn 0.7418459 0.06483316 0.6674289
vn 0.6026649 -0.670561 0.4326003
vn 0.4353575 -0.2876598 0.8530626
vn 0.6051812 0.5163456 0.6059232
vn 0.002403499 -0.03700999 0.9993119
vn 0.5791312 0.4309505 0.6920179
vn 0.5465435 0.3346785 0.7676461
vn 0.6402581 0.6095408 0.4674715
vn 0.430965 0.7516808 0.4992446
vn 0.5801537 0.6108912 0.5387334
vn 0.04477148 0.7347423 0.6768672
vn 0.068139 0.9020036 0.4263176
vn -0.388975 0.6161588 0.6848699
vn -0.1549459 0.8961202 0.415885
vn -0.6190894 0.6396499 0.4556054
vn -0.7717869 0.2219773 0.5958784
vn -0.7279525 0.5093705 0.458941
vn -0.8694613 0.005211429 0.4939736
vn -0.8285868 -0.171323 0.5330032
vn -0.8573464 -0.2351151 0.4579061
vn -0.7053479 -0.4581098 0.5409434
vn -0.7885208 -0.5008382 0.3569261
vn 0.06217021 -0.2493226 0.9664228
vn 0.288682 0.04118503 0.9565388
vn -0.4403507 -0.7332307 0.5181353
vn -0.7527019 -0.5559679 0.3526178
vn -0.2834292 -0.6799825 0.6762335
vn 0.2272512 -0.9041913 0.361656
vn -0.3308744 -0.7445166 0.5798424
vn -0.3777059 -0.8974345 0.2279247
vn -0.5984853 -0.7311257 0.3275219
vn -0.6729512 -0.7259091 0.1421006
vn 0.1130733 -0.8329939 0.5416046
vn -0.7222087 -0.6723108 0.1625203
vn -0.3601659 -0.7287351 0.5824308
vn 0.9140899 -0.2470603 0.3215602
vn 0.7679754 -0.2260991 0.5992436
vn 0.8987384 -0.2617204 0.351812
vn 0.8011485 0.1307685 0.5840039
vn 0.9141957 -0.112783 0.3892636
vn 0.7611053 0.3596938 0.5397583
vn 0.5499203 0.5438603 0.6338797
vn 0.317841 0.1837616 0.930166
vn -0.2740324 0.1916156 0.9424382
vn -0.3115816 0.8694596 0.3833497
vn -0.4636764 -0.3244614 0.8244569
vn 0.317841 0.1837616 0.930166
vn -0.3122609 0.8120335 0.4930463
vn 0.1619074 0.4380428 0.8842537
vn 0.9288545 -0.119891 0.3505075
vn 0.3682605 -0.2924445 0.8825306
vn -0.6532363 -0.212605 0.7266921
vn -0.1680233 -0.6931885 0.7008978
vn 0.03465652 -0.835924 0.5477499
vn -0.4636764 -0.3244614 0.8244569
vn -0.2740324 0.1916156 0.9424382
vn 0.317841 0.1837616 0.930166
g fireBlue14_mesh_0
f 3/3/3 2/2/2 1/1/1
f 6/6/6 5/5/5 4/4/4
f 7/7/7 5/5/5 6/6/6
f 8/8/8 5/5/5 7/7/7
f 5/5/5 8/8/8 9/9/9
f 9/9/9 8/8/8 10/10/10
f 11/11/11 9/9/9 10/10/10
f 12/12/12 9/9/9 11/11/11
f 13/13/13 9/9/9 12/12/12
f 14/14/14 9/9/9 13/13/13
f 14/14/14 13/13/13 15/15/15
f 16/16/16 14/14/14 15/15/15
f 17/17/17 16/16/16 15/15/15
f 18/18/18 17/17/17 15/15/15
f 19/19/19 17/17/17 18/18/18
f 20/20/20 17/17/17 19/19/19
f 21/21/21 20/20/20 19/19/19
f 22/22/22 20/20/20 21/21/21
f 23/23/23 20/20/20 22/22/22
f 24/24/24 20/20/20 23/23/23
f 25/25/25 20/20/20 24/24/24
f 26/26/26 20/20/20 25/25/25
f 20/20/20 26/26/26 27/27/27
f 28/28/28 20/20/20 27/27/27
f 28/28/28 29/29/29 20/20/20
f 29/29/29 30/30/30 20/20/20
f 29/29/29 31/31/31 30/30/30
f 31/31/31 32/32/32 30/30/30
f 32/32/32 33/33/33 30/30/30
f 17/17/17 35/35/35 34/34/34
f 33/33/33 37/37/37 36/36/36
f 36/36/36 37/37/37 35/35/35
f 36/36/36 34/34/34 38/38/38
f 40/40/40 38/38/38 39/39/39
f 40/40/40 41/41/41 38/38/38
f 44/44/44 43/43/43 42/42/42
f 43/43/43 9/9/9 42/42/42
f 9/9/9 45/45/45 42/42/42
f 9/9/9 46/46/46 45/45/45
f 47/47/47 46/46/46 9/9/9
f 47/47/47 48/48/48 46/46/46
f 51/51/51 50/50/50 49/49/49
f 53/53/53 52/52/52 51/51/51
f 54/54/54 53/53/53 51/51/51
f 55/55/55 53/53/53 54/54/54
f 56/56/56 53/53/53 55/55/55
f 53/53/53 57/57/57 50/50/50
f 50/50/50 57/57/57 58/58/58
f 59/59/59 57/57/57 53/53/53
f 59/59/59 53/53/53 56/56/56
f 50/50/50 58/58/58 60/60/60
f 61/61/61 59/59/59 56/56/56
f 60/60/60 58/58/58 62/62/62
f 63/63/63 59/59/59 61/61/61
f 63/63/63 57/57/57 59/59/59
f 64/64/64 63/63/63 61/61/61
f 65/65/65 63/63/63 64/64/64
f 65/65/65 57/57/57 63/63/63
f 66/66/66 65/65/65 64/64/64
f 67/67/67 65/65/65 66/66/66
f 68/68/68 65/65/65 67/67/67
f 68/68/68 57/57/57 65/65/65
f 69/69/69 68/68/68 67/67/67
f 70/70/70 68/68/68 69/69/69
f 71/71/71 68/68/68 70/70/70
f 71/71/71 57/57/57 68/68/68
f 72/72/72 71/71/71 70/70/70
f 73/73/73 71/71/71 72/72/72
f 73/73/73 57/57/57 71/71/71
f 74/74/74 73/73/73 72/72/72
f 75/75/75 57/57/57 73/73/73
f 58/58/58 57/57/57 75/75/75
f 76/76/76 58/58/58 75/75/75
f 77/77/77 73/73/73 74/74/74
f 77/77/77 75/75/75 73/73/73
f 78/78/78 77/77/77 74/74/74
f 79/79/79 77/77/77 78/78/78
f 80/80/80 77/77/77 79/79/79
f 81/81/81 75/75/75 77/77/77
f 81/81/81 77/77/77 80/80/80
f 76/76/76 75/75/75 81/81/81
f 82/82/82 81/81/81 80/80/80
f 83/83/83 81/81/81 82/82/82
f 83/83/83 76/76/76 81/81/81
f 84/84/84 83/83/83 82/82/82
f 85/85/85 83/83/83 84/84/84
f 85/85/85 76/76/76 83/83/83
f 86/86/86 85/85/85 84/84/84
f 87/87/87 85/85/85 86/86/86
f 88/88/88 85/85/85 87/87/87
f 89/89/89 85/85/85 88/88/88
f 89/89/89 76/76/76 85/85/85
f 90/90/90 89/89/89 88/88/88
f 91/91/91 89/89/89 90/90/90
f 91/91/91 76/76/76 89/89/89
f 92/92/92 91/91/91 90/90/90
f 93/93/93 91/91/91 92/92/92
f 94/94/94 76/76/76 91/91/91
f 94/94/94 91/91/91 93/93/93
f 58/58/58 76/76/76 94/94/94
f 62/62/62 94/94/94 93/93/93
f 58/58/58 94/94/94 62/62/62
f 97/97/97 96/96/96 95/95/95
f 98/98/98 96/96/96 97/97/97
f 100/100/100 97/97/97 99/99/99
f 100/100/100 99/99/99 101/101/101
f 101/101/101 99/99/99 102/102/102
f 102/102/102 99/99/99 103/103/103
f 103/103/103 99/99/99 104/104/104
f 104/104/104 99/99/99 105/105/105
f 106/106/106 105/105/105 99/99/99
f 106/106/106 108/108/108 107/107/107
f 108/108/108 106/106/106 109/109/109
