g fire12_mesh
v 0.2547955 1.33893 2.235174E-08
v 0.2727939 1.316034 2.235174E-08
v 0.1474813 1.321254 -0.0470698
v 0.2218693 1.358022 0.01458834
v 0.1474813 1.321254 -0.0470698
v 0.1351412 1.346677 2.235174E-08
v 0.05999326 1.302942 -0.06825883
v 0.0548812 1.364971 2.235174E-08
v 0.01051674 1.388249 0.001966842
v 0.005490769 1.325998 -0.001310796
v 0.02052968 1.266697 -6.125733E-05
v 0.05999326 1.302942 -0.06825883
v 0.03867855 1.223208 0.001034495
v 0.05999326 1.302942 -0.06825883
v 0.08231485 1.261429 2.235174E-08
v 0.1528086 1.285307 -0.0003815647
v 0.2689323 1.292819 2.235174E-08
v 0.1474813 1.321254 -0.0470698
v -0.02532978 1.562712 -8.403303E-16
v -0.01870573 1.456442 -0.1064927
v -0.04637335 1.495809 -8.403304E-16
v -0.04232635 1.417715 -8.403303E-16
v -0.003941637 1.370691 -0.1206458
v -0.02767114 1.346366 -1.680661E-15
v -0.02767114 1.346366 -1.680661E-15
v -0.003941637 1.370691 -0.1206458
v -0.04233724 1.165861 -0.112649
v -0.04233724 1.165861 -0.112649
v -0.04609721 1.233525 -8.403303E-16
v -0.135147 1.087843 -8.403303E-16
v -0.1908196 0.9578171 -0.1376418
v -0.2307534 1.021966 -8.403304E-16
v -0.4046738 1.074617 -0.0908073
v -0.3507596 1.094675 -8.403303E-16
v -0.3838986 1.236691 -8.403303E-16
v -0.4738446 1.018506 -8.403303E-16
v -0.4427647 0.8609641 -0.1988644
v -0.2835486 0.7469729 -0.3267238
v -0.1908196 0.9578171 -0.1376418
v -0.5058646 0.8687181 -8.403304E-16
v -0.4356188 0.6875906 -0.2186341
v -0.5111048 0.6562465 -8.403304E-16
v -0.3639928 0.5701429 -0.2302438
v -0.4437829 0.4585685 -8.403304E-16
v -0.1619029 0.5199577 -0.2612561
v -0.3009024 0.4233268 -8.403305E-16
v -0.103089 0.3669406 -0.2313293
v -0.2042955 0.3437476 -8.403303E-16
v 0.1247509 0.3335768 -0.403388
v -0.0961533 0.276433 -0.2303165
v -0.1606689 0.2627247 -8.403305E-16
v -0.1619554 0.1174484 -0.1064778
v 0.01829773 0.1037273 -0.2093142
v 0.0711838 0.673935 -0.27
v -0.1009035 0.7789109 -0.27
v 0.09832478 0.7346197 -8.403303E-16
v -0.02556748 0.8093091 -8.403304E-16
v -0.09249282 0.9477164 -8.403304E-16
v 0.2506811 0.7609423 -8.403304E-16
v 0.2951401 0.7197319 -0.1800959
v 0.3754855 0.861117 -8.403304E-16
v 0.4045022 0.5702954 -0.252525
v 0.4871363 0.6074979 -8.403304E-16
v 0.3754855 0.861117 -8.403304E-16
v 0.5110129 0.3096778 -8.403304E-16
v 0.3776285 0.3526721 -0.2378335
v 0.4126395 0.1298586 -8.403304E-16
v 0.300253 0.220817 -0.2297612
v 0.1891136 0.00369966 -8.403303E-16
v 0.1694756 0.1451811 -0.2217343
v -0.00424432 -0.0004655123 -8.403303E-16
v -0.1224182 0.02205992 -8.403303E-16
v -0.1619554 0.1174484 -0.1064778
v -0.2823822 0.1401519 -8.403303E-16
v -0.2063668 0.1671188 -8.403304E-16
v -0.1619554 0.1174484 -0.1064778
v -0.2823822 0.1401519 -8.403303E-16
v -0.1606689 0.2627247 -8.403305E-16
v -0.1908196 0.9578171 -0.1376418
v -0.04233724 1.165861 -0.112649
v -0.01035197 1.134009 -8.403304E-16
v 0.1156531 1.283276 -0.1417333
v 0.1158817 1.257939 -8.403304E-16
v 0.2444658 1.293409 -0.1158435
v 0.2806262 1.257295 -8.403304E-16
v 0.3289069 1.37276 -0.1003683
v 0.3667408 1.348809 -8.403303E-16
v 0.1156531 1.283276 -0.1417333
v 0.3289069 1.37276 -0.1003683
v 0.3490338 1.514321 -8.403303E-16
v -0.04233724 1.165861 -0.112649
v 0.3289069 1.37276 -0.1003683
v 0.2979997 1.391145 -8.403304E-16
v 0.1350828 1.343931 -0.09513049
v 0.1156531 1.283276 -0.1417333
v 0.138474 1.359871 -8.403304E-16
v 0.01502534 1.413507 -1.68066E-15
v -0.01870573 1.456442 -0.1064927
v -0.02532978 1.562712 -8.403303E-16
v 0.07598598 2.049321 -3.308722E-24
v 0.08337741 2.059879 -0.04129966
v 0.1015612 2.012782 -3.308722E-24
v 0.03502635 2.065704 -3.308722E-24
v 0.03477634 2.101586 -0.03989985
v -0.003306495 2.031316 -3.308722E-24
v -0.02917526 2.077937 -0.04890855
v -0.03749576 1.961142 -3.308722E-24
v -0.04821827 2.081954 -3.308722E-24
v -0.03509766 2.141263 -3.308722E-24
v -0.004098714 2.131345 -3.308722E-24
v 0.04285383 2.131327 -3.308722E-24
v 0.03477634 2.101586 -0.03989985
v -0.02917526 2.077937 -0.04890855
v 0.08334887 2.092506 -3.308722E-24
v 0.08337741 2.059879 -0.04129966
v 0.09028446 2.062669 -3.308722E-24
v 0.1015612 2.012782 -3.308722E-24
v -0.4277898 0.8477013 2.235174E-08
v -0.2977763 0.7644712 -0.08630012
v -0.3465202 0.7614079 2.235174E-08
v -0.404096 0.9575039 2.235174E-08
v -0.3528683 1.055301 2.235174E-08
v -0.3140978 0.95275 -0.006713344
v -0.2429904 0.9176249 -0.01127877
v -0.1819464 0.9577931 -0.09567143
v -0.1584341 0.8186093 2.235174E-08
v -0.1208124 0.6987662 2.235174E-08
v -0.3400205 0.6617543 2.235174E-08
v -0.006138129 0.6002244 2.235174E-08
v 0.0781102 0.4932629 -0.0851756
v 0.163732 0.5908069 2.235174E-08
v 0.3073502 0.6519861 2.235174E-08
v 0.3863941 0.5732755 2.235174E-08
v 0.3840407 0.44855 2.235174E-08
v 0.2310755 0.4014837 2.235174E-08
v 0.1863625 0.3379443 2.235174E-08
v 0.05222376 0.2414585 -0.0851756
v 0.2899083 0.1732125 2.235174E-08
v 0.1234377 0.08525097 2.235174E-08
v -0.01445197 0.08416909 2.235174E-08
v -0.1465886 0.1265901 2.235174E-08
v -0.07742766 0.2912589 2.235174E-08
v -0.1185949 0.4411076 2.235174E-08
v -0.2017873 0.6310913 -0.0851756
v -0.2399373 0.5379349 2.235174E-08
v -0.4175745 0.5955328 2.235174E-08
v -0.3841003 0.5134499 2.235174E-08
vt 0.130959 0.5062855
vt 0.1315422 0.5063717
vt 0.131409 0.5057722
vt 0.1304711 0.506128
vt 0.131409 0.5057722
vt 0.130761 0.5057131
vt 0.131876 0.5053537
vt 0.1302942 0.5053291
vt 0.1297002 0.5051169
vt 0.1312879 0.5050929
vt 0.1328004 0.5051648
vt 0.131876 0.5053537
vt 0.1338696 0.5052895
vt 0.131876 0.5053537
vt 0.1329352 0.5054604
vt 0.1320848 0.5057976
vt 0.1321339 0.5063532
vt 0.131409 0.5057722
vt 0.7824143 0.6649331
vt 0.7842848 0.6649494
vt 0.7835917 0.6648814
vt 0.7849666 0.6648914
vt 0.7857941 0.6649856
vt 0.7862225 0.6649272
vt 0.7862225 0.6649272
vt 0.7857941 0.6649856
vt 0.7893995 0.6648913
vt 0.7893995 0.6648913
vt 0.7882084 0.6648819
vt 0.7907727 0.6646637
vt 0.7930615 0.664527
vt 0.7919323 0.6644288
vt 0.7910055 0.6640021
vt 0.7906526 0.6641344
vt 0.7881529 0.664053
vt 0.7919931 0.6638324
vt 0.7947662 0.6639087
vt 0.7967726 0.6642993
vt 0.7930615 0.664527
vt 0.7946296 0.6637536
vt 0.7978178 0.6639261
vt 0.7983695 0.6637409
vt 0.7998853 0.664102
vt 0.8018491 0.663906
vt 0.8007683 0.6645978
vt 0.8024693 0.6642567
vt 0.8034617 0.6647424
vt 0.8038698 0.6644939
vt 0.804049 0.6653013
vt 0.8050549 0.6647592
vt 0.8052961 0.664601
vt 0.8078533 0.6645977
vt 0.8080948 0.6650402
vt 0.798058 0.6651698
vt 0.7962106 0.6647476
vt 0.7969901 0.6652366
vt 0.7956754 0.6649326
vt 0.7932391 0.6647682
vt 0.7965267 0.6656104
vt 0.7972521 0.6657197
vt 0.7947636 0.6659168
vt 0.7998825 0.665988
vt 0.7992278 0.6661908
vt 0.7947636 0.6659168
vt 0.8044696 0.6662493
vt 0.8037129 0.665922
vt 0.8076349 0.6660079
vt 0.8060339 0.6657323
vt 0.8098553 0.6654593
vt 0.8073652 0.6654111
vt 0.8099285 0.6649849
vt 0.8095322 0.6646948
vt 0.8078533 0.6645977
vt 0.8074537 0.6643021
vt 0.8069785 0.6644887
vt 0.8078533 0.6645977
vt 0.8074537 0.6643021
vt 0.8052961 0.664601
vt 0.7930615 0.664527
vt 0.7893995 0.6648913
vt 0.7899603 0.6649698
vt 0.787333 0.6652791
vt 0.7877787 0.6652797
vt 0.7871546 0.6655951
vt 0.7877898 0.665684
vt 0.7857578 0.6658024
vt 0.7861793 0.6658953
vt 0.787333 0.6652791
vt 0.7857578 0.6658024
vt 0.7832661 0.6658518
vt 0.7893995 0.6648913
vt 0.7857578 0.6658024
vt 0.7854342 0.6657267
vt 0.7862652 0.6653268
vt 0.787333 0.6652791
vt 0.7859846 0.6653351
vt 0.7850406 0.6650321
vt 0.7842848 0.6649494
vt 0.7824143 0.6649331
vt 0.7743214 0.6653159
vt 0.7741245 0.6653244
vt 0.7751917 0.6654015
vt 0.7736457 0.6651552
vt 0.7729833 0.6651274
vt 0.7741991 0.6650162
vt 0.7733564 0.6649333
vt 0.7759452 0.6649249
vt 0.7732746 0.6648769
vt 0.7722312 0.6649096
vt 0.7724144 0.6649928
vt 0.7724416 0.6651317
vt 0.7729833 0.6651274
vt 0.7733564 0.6649333
vt 0.7731841 0.6652826
vt 0.7741245 0.6653244
vt 0.774083 0.6653482
vt 0.7751917 0.6654015
vt 0.1487029 0.5029333
vt 0.1514349 0.5036414
vt 0.1515424 0.5033821
vt 0.1461544 0.5030008
vt 0.1436891 0.5030658
vt 0.1465304 0.5035204
vt 0.146703 0.5039091
vt 0.144959 0.5041963
vt 0.149616 0.5043089
vt 0.1536293 0.5044887
vt 0.1548232 0.5034402
vt 0.1569388 0.5050372
vt 0.1605276 0.5054405
vt 0.1572545 0.5058499
vt 0.1551882 0.506537
vt 0.1577985 0.5069151
vt 0.1619733 0.5069038
vt 0.1635953 0.5061721
vt 0.1657252 0.5059582
vt 0.1689534 0.5053164
vt 0.1712112 0.5064534
vt 0.1741859 0.5056571
vt 0.1742138 0.5049976
vt 0.1727552 0.5043654
vt 0.1672856 0.5046964
vt 0.1622681 0.5044994
vt 0.1559052 0.5041015
vt 0.1590116 0.5039189
vt 0.1568253 0.5030692
vt 0.15937 0.5032293
vn -0.2821743 -0.4873721 0.826345
vn -0.2042864 0.4847754 0.8504469
vn -0.1894789 0.02537268 0.9815569
vn -0.1048165 -0.7934154 0.5995877
vn -0.1894789 0.02537268 0.9815569
vn -0.03239635 -0.8327497 0.552701
vn 0.08483494 0.01423549 0.9962934
vn -0.2484834 -0.7260503 0.6411763
vn 0.3548893 -0.4628544 0.8122926
vn 0.7788505 0.02091361 0.6268608
vn 0.763536 0.2712924 0.5860146
vn 0.08483494 0.01423549 0.9962934
vn 0.07052059 0.6435192 0.7621745
vn 0.08483494 0.01423549 0.9962934
vn -0.3899924 0.7246002 0.5682081
vn -0.2088255 0.6754125 0.7072551
vn -0.1584913 0.6092377 0.7769878
vn -0.1894789 0.02537268 0.9815569
vn -0.8316661 -0.4000471 0.3850895
vn -0.7429993 -0.3153408 0.5903494
vn 0.9431436 -0.1455278 0.298834
vn 0.9613257 0.1328416 0.2412591
vn 0.3525305 -0.5024315 0.789484
vn 0.9812425 -0.07865815 0.1760002
vn 0.9812425 -0.07865815 0.1760002
vn 0.3525305 -0.5024315 0.789484
vn -0.3202831 0.4534886 0.8317252
vn -0.3202831 0.4534886 0.8317252
vn 0.9506912 -0.2461571 0.1886611
vn 0.7376279 -0.6017684 0.306235
vn -0.5253304 -0.5516356 0.6478627
vn -0.2266812 -0.8859927 0.4045152
vn 0.3370654 -0.6673425 0.6641091
vn -0.5488665 -0.7328337 0.4021199
vn 0.2568857 -0.4972411 0.8287104
vn 0.8835353 -0.2881939 0.3692015
vn 0.794655 -0.2234934 0.5644237
vn 0.1041713 -0.2483277 0.9630585
vn -0.5253304 -0.5516356 0.6478627
vn 0.9331592 -0.1254759 0.3368528
vn 0.8580933 0.1604168 0.4877933
vn 0.9105167 0.1860532 0.3692471
vn 0.5188563 0.621662 0.5867917
vn 0.5587138 0.6782335 0.4773239
vn 0.5401753 0.5898965 0.600194
vn 0.4373558 0.7548584 0.4887829
vn 0.7266347 0.3917158 0.5644119
vn 0.7746261 0.4555775 0.4386384
vn -0.0968526 0.02967153 0.9948564
vn 0.7530054 0.2175574 0.6210085
vn 0.9390606 -0.01015265 0.3436015
vn 0.6805709 0.4285257 0.5942971
vn 0.1477167 0.7480893 0.6469484
vn -0.2765747 -0.6381771 0.7184959
vn -0.4833752 -0.6914694 0.5368598
vn -0.2003859 -0.9490995 0.2430135
vn -0.6331934 -0.7161576 0.2935716
vn -0.8762775 -0.1446779 0.4595716
vn 0.2432239 -0.9369613 0.2508895
vn -0.3451163 -0.7224451 0.5991392
vn -0.5827823 -0.6210654 0.5240634
vn -0.7138042 -0.2464767 0.6555401
vn -0.8620989 -0.2248522 0.4541222
vn -0.5827823 -0.6210654 0.5240634
vn -0.8632488 0.200897 0.4630788
vn -0.7944353 0.1940982 0.5754985
vn -0.5933688 0.6098887 0.5253086
vn -0.5560008 0.5884309 0.5870367
vn -0.270868 0.8171575 0.5088065
vn -0.2744619 0.7708969 0.5747944
vn 0.06112664 0.8605446 0.5056942
vn 0.3163156 0.8080025 0.4970677
vn 0.6805709 0.4285257 0.5942971
vn 0.6550382 0.3607058 0.66394
vn 0.8560881 -0.3589312 0.3718622
vn 0.6805709 0.4285257 0.5942971
vn 0.6550382 0.3607058 0.66394
vn 0.9390606 -0.01015265 0.3436015
vn -0.5253304 -0.5516356 0.6478627
vn -0.3202831 0.4534886 0.8317252
vn -0.7235418 0.5703391 0.3888453
vn -0.2394714 0.491143 0.8375154
vn -0.3932501 0.8834587 0.2546665
vn -0.2633517 0.6535514 0.7095889
vn -0.3675365 0.866038 0.3389621
vn -0.5165809 -0.3545471 0.7793847
vn -0.8219668 0.3992605 0.4061547
vn -0.2394714 0.491143 0.8375154
vn -0.5165809 -0.3545471 0.7793847
vn -0.3169112 -0.5181751 0.794394
vn -0.3202831 0.4534886 0.8317252
vn -0.5165809 -0.3545471 0.7793847
vn 0.385272 -0.8875654 0.252573
vn -0.0274685 -0.7400199 0.6720238
vn -0.2394714 0.491143 0.8375154
vn -0.05118339 -0.9694433 0.2399167
vn -0.7163523 -0.6416911 0.2739926
vn -0.7429993 -0.3153408 0.5903494
vn -0.8316661 -0.4000471 0.3850895
vn 0.581614 0.6967097 0.4199058
vn -0.1656769 0.2172673 0.9619491
vn -0.4094227 0.5070391 0.7584751
vn -0.07629672 0.7357315 0.6729622
vn -0.2397371 -0.2332693 0.9423968
vn -0.5482855 0.4758338 0.6877246
vn 0.2364854 0.1265651 0.9633566
vn 0.209119 0.3650045 0.9072161
vn 0.9312554 -0.01685194 0.3639773
vn 0.3439284 -0.5536093 0.7584392
vn 0.03641308 -0.7220227 0.6909106
vn -0.2051986 -0.737487 0.6434333
vn -0.2397371 -0.2332693 0.9423968
vn 0.2364854 0.1265651 0.9633566
vn -0.6089662 -0.6031989 0.5150836
vn -0.1656769 0.2172673 0.9619491
vn -0.9597728 -0.2193043 0.1753335
vn -0.4094227 0.5070391 0.7584751
vn 0.5540463 0.002283773 0.8324828
vn 0.01229144 -0.08427884 0.9963664
vn 0.7898742 0.405005 0.4605102
vn 0.407416 -0.1762161 0.8960805
vn 0.2406856 -0.233931 0.9419908
vn -0.5451653 -0.3660593 0.7541853
vn 0.4955034 -0.5185807 0.6968144
vn -0.01762488 0.0589433 0.9981058
vn -0.5635561 0.1579688 0.810833
vn -0.5422534 -0.6579328 0.5225761
vn 0.5662542 -0.07473627 0.8208354
vn -0.4809875 -0.7138103 0.5090441
vn -0.01642142 -0.07392669 0.9971284
vn 0.1953111 -0.7367253 0.6473712
vn -0.1650556 -0.2705771 0.9484433
vn -0.2460097 -0.08039515 0.9659274
vn -0.2530646 0.1013096 0.9621302
vn -0.2181112 0.4433395 0.8694122
vn -0.4670722 -0.04446593 0.8831003
vn 0.002553497 0.09034037 0.9959077
vn -0.3142912 0.08541714 0.9454761
vn -0.1372544 0.4252354 0.894615
vn 0.08010611 0.4481837 0.8903451
vn 0.3219213 0.1374222 0.93674
vn 0.5428731 -0.02252486 0.8395127
vn 0.3461507 0.3500764 0.8704172
vn 0.2222788 0.3315286 0.9168864
vn 0.2029029 0.5491875 0.8106933
vn 0.3686982 -0.01099133 0.9294842
vn 0.2403266 0.2967248 0.9242281
g fire12_mesh_0
f 3/3/3 2/2/2 1/1/1
f 5/5/5 1/1/1 4/4/4
f 6/6/6 5/5/5 4/4/4
f 7/7/7 5/5/5 6/6/6
f 8/8/8 7/7/7 6/6/6
f 8/8/8 9/9/9 7/7/7
f 9/9/9 10/10/10 7/7/7
f 10/10/10 11/11/11 7/7/7
f 11/11/11 13/13/13 12/12/12
f 15/15/15 14/14/14 13/13/13
f 15/15/15 16/16/16 14/14/14
f 16/16/16 17/17/17 2/2/2
f 14/14/14 16/16/16 18/18/18
f 18/18/18 16/16/16 2/2/2
f 21/21/21 20/20/20 19/19/19
f 22/22/22 20/20/20 21/21/21
f 23/23/23 20/20/20 22/22/22
f 24/24/24 23/23/23 22/22/22
f 27/27/27 26/26/26 25/25/25
f 29/29/29 28/28/28 25/25/25
f 30/30/30 28/28/28 29/29/29
f 31/31/31 28/28/28 30/30/30
f 32/32/32 31/31/31 30/30/30
f 33/33/33 31/31/31 32/32/32
f 34/34/34 33/33/33 32/32/32
f 35/35/35 33/33/33 34/34/34
f 36/36/36 33/33/33 35/35/35
f 37/37/37 33/33/33 36/36/36
f 37/37/37 38/38/38 33/33/33
f 33/33/33 38/38/38 39/39/39
f 40/40/40 37/37/37 36/36/36
f 41/41/41 37/37/37 40/40/40
f 41/41/41 38/38/38 37/37/37
f 42/42/42 41/41/41 40/40/40
f 43/43/43 41/41/41 42/42/42
f 43/43/43 38/38/38 41/41/41
f 44/44/44 43/43/43 42/42/42
f 45/45/45 43/43/43 44/44/44
f 45/45/45 38/38/38 43/43/43
f 46/46/46 45/45/45 44/44/44
f 47/47/47 45/45/45 46/46/46
f 48/48/48 47/47/47 46/46/46
f 47/47/47 49/49/49 45/45/45
f 38/38/38 45/45/45 49/49/49
f 50/50/50 47/47/47 48/48/48
f 50/50/50 49/49/49 47/47/47
f 51/51/51 50/50/50 48/48/48
f 52/52/52 49/49/49 50/50/50
f 53/53/53 49/49/49 52/52/52
f 38/38/38 49/49/49 54/54/54
f 55/55/55 38/38/38 54/54/54
f 39/39/39 38/38/38 55/55/55
f 55/55/55 54/54/54 56/56/56
f 57/57/57 55/55/55 56/56/56
f 31/31/31 55/55/55 57/57/57
f 58/58/58 39/39/39 57/57/57
f 56/56/56 54/54/54 59/59/59
f 54/54/54 60/60/60 59/59/59
f 54/54/54 49/49/49 60/60/60
f 59/59/59 60/60/60 61/61/61
f 60/60/60 49/49/49 62/62/62
f 60/60/60 62/62/62 63/63/63
f 64/64/64 60/60/60 63/63/63
f 63/63/63 62/62/62 65/65/65
f 62/62/62 66/66/66 65/65/65
f 62/62/62 49/49/49 66/66/66
f 65/65/65 66/66/66 67/67/67
f 66/66/66 68/68/68 67/67/67
f 66/66/66 49/49/49 68/68/68
f 67/67/67 68/68/68 69/69/69
f 68/68/68 49/49/49 70/70/70
f 68/68/68 70/70/70 69/69/69
f 69/69/69 70/70/70 71/71/71
f 70/70/70 49/49/49 53/53/53
f 70/70/70 53/53/53 71/71/71
f 71/71/71 53/53/53 72/72/72
f 53/53/53 73/73/73 72/72/72
f 72/72/72 73/73/73 74/74/74
f 77/77/77 76/76/76 75/75/75
f 75/75/75 76/76/76 78/78/78
f 76/76/76 50/50/50 78/78/78
f 80/80/80 79/79/79 58/58/58
f 81/81/81 80/80/80 58/58/58
f 82/82/82 80/80/80 81/81/81
f 83/83/83 82/82/82 81/81/81
f 84/84/84 82/82/82 83/83/83
f 85/85/85 84/84/84 83/83/83
f 86/86/86 84/84/84 85/85/85
f 87/87/87 86/86/86 85/85/85
f 84/84/84 89/89/89 88/88/88
f 90/90/90 89/89/89 87/87/87
f 26/26/26 91/91/91 88/88/88
f 93/93/93 92/92/92 90/90/90
f 94/94/94 92/92/92 93/93/93
f 92/92/92 94/94/94 95/95/95
f 94/94/94 26/26/26 95/95/95
f 96/96/96 94/94/94 93/93/93
f 26/26/26 94/94/94 96/96/96
f 97/97/97 26/26/26 96/96/96
f 98/98/98 26/26/26 97/97/97
f 99/99/99 98/98/98 97/97/97
f 102/102/102 101/101/101 100/100/100
f 100/100/100 101/101/101 103/103/103
f 101/101/101 104/104/104 103/103/103
f 103/103/103 104/104/104 105/105/105
f 104/104/104 106/106/106 105/105/105
f 105/105/105 106/106/106 107/107/107
f 107/107/107 106/106/106 108/108/108
f 108/108/108 106/106/106 109/109/109
f 109/109/109 106/106/106 110/110/110
f 110/110/110 106/106/106 111/111/111
f 113/113/113 112/112/112 111/111/111
f 111/111/111 112/112/112 114/114/114
f 112/112/112 115/115/115 114/114/114
f 114/114/114 115/115/115 116/116/116
f 116/116/116 115/115/115 117/117/117
f 120/120/120 119/119/119 118/118/118
f 121/121/121 118/118/118 119/119/119
f 121/121/121 119/119/119 122/122/122
f 123/123/123 122/122/122 119/119/119
f 124/124/124 123/123/123 119/119/119
f 119/119/119 125/125/125 124/124/124
f 126/126/126 125/125/125 119/119/119
f 127/127/127 126/126/126 119/119/119
f 128/128/128 119/119/119 120/120/120
f 129/129/129 127/127/127 119/119/119
f 130/130/130 129/129/129 119/119/119
f 131/131/131 129/129/129 130/130/130
f 132/132/132 131/131/131 130/130/130
f 133/133/133 132/132/132 130/130/130
f 133/133/133 130/130/130 134/134/134
f 134/134/134 130/130/130 135/135/135
f 135/135/135 130/130/130 136/136/136
f 136/136/136 130/130/130 137/137/137
f 138/138/138 136/136/136 137/137/137
f 138/138/138 137/137/137 139/139/139
f 137/137/137 140/140/140 139/139/139
f 140/140/140 137/137/137 141/141/141
f 141/141/141 137/137/137 142/142/142
f 142/142/142 137/137/137 143/143/143
f 143/143/143 137/137/137 130/130/130
f 144/144/144 130/130/130 119/119/119
f 143/143/143 130/130/130 144/144/144
f 144/144/144 119/119/119 128/128/128
f 145/145/145 143/143/143 144/144/144
f 146/146/146 144/144/144 128/128/128
f 145/145/145 144/144/144 147/147/147
f 147/147/147 144/144/144 146/146/146
