g fireBlue02_mesh
v 0.1288543 0.3428508 -0.1709869
v 0.2232208 0.321145 -0.1447932
v 0.2296122 0.2912061 2.235174E-08
v 0.3090948 0.3328332 2.235174E-08
v 0.2296122 0.2912061 2.235174E-08
v 0.2232208 0.321145 -0.1447932
v 0.5273055 0.3745827 -3.663897E-16
v 0.3108878 0.3298884 -0.1963549
v 0.3893293 0.3382118 -3.663897E-16
v -0.1183144 0.2205889 -3.663897E-16
v -0.0570563 0.1139189 -0.1905664
v -0.1522664 0.1056779 -3.663897E-16
v 0.1288543 0.3428508 -0.1709869
v 0.2296122 0.2912061 2.235174E-08
v 0.1412098 0.2875285 2.235174E-08
v 0.02946191 0.238531 -0.1703512
v 0.0900614 0.2465865 2.235174E-08
v 0.03936218 0.08860552 2.235174E-08
v 0.3090948 0.3328332 2.235174E-08
v 0.2232208 0.321145 -0.1447932
v 0.1903894 0.3564366 2.235174E-08
v 0.02961037 0.4190525 -0.1866
v 0.09729306 0.4466285 2.235174E-08
v 0.09073038 0.555241 -0.0001224048
v 0.02856476 0.6406235 -0.1968029
v 0.1478723 0.6746426 -0.0002676845
v 0.02946191 0.238531 -0.1703512
v 0.02961037 0.4190525 -0.1866
v 0.02856476 0.6406235 -0.1968029
v -0.01589863 0.715723 2.235174E-08
v -0.1594318 0.5346751 -0.1866467
v 0.02856476 0.6406235 -0.1968029
v -0.1459757 0.6765465 2.235174E-08
v -0.2636291 0.5749525 2.235174E-08
v -0.2997031 0.4352018 2.235174E-08
v -0.1843287 0.4312173 2.235174E-08
v 0.02961037 0.4190525 -0.1866
v -0.06227953 0.3695515 2.235174E-08
v 0.02946191 0.238531 -0.1703512
v -0.0367965 0.2345317 2.235174E-08
v 0.03936218 0.08860552 2.235174E-08
v 0.3338527 0.9531543 2.235174E-08
v 0.302781 0.8850428 -0.1313252
v 0.2273097 1.006097 2.235174E-08
v 0.4307166 0.8216485 2.235174E-08
v 0.347093 0.8413978 -0.09305058
v 0.4450592 0.722614 2.235174E-08
v 0.3501786 0.771111 2.235174E-08
v 0.2112445 0.7599657 3.073364E-08
v 0.302781 0.8850428 -0.1313252
v 0.2412886 0.8813564 4.470348E-08
v 0.302781 0.8850428 -0.1313252
v 0.2273097 1.006097 2.235174E-08
v -0.02675728 1.379626 2.235174E-08
v -0.02275698 1.425431 -0.08620367
v 0.03146527 1.359757 2.235174E-08
v -0.06327167 1.409521 2.235174E-08
v -0.04143745 1.50734 2.235174E-08
v 0.007060491 1.545827 2.235174E-08
v 0.03146527 1.359757 2.235174E-08
v -0.02275698 1.425431 -0.08620367
v 0.001624525 1.424071 2.235174E-08
v 0.007060491 1.545827 2.235174E-08
v 0.2217308 0.664286 -1.099169E-15
v 0.1214013 0.6938126 -0.1592801
v 0.3149856 0.7269891 -0.1611911
v 0.3728191 0.6855488 -3.663896E-16
v 0.4190567 0.7133561 -0.1394083
v 0.2329553 0.4492123 -3.663897E-16
v 0.1214013 0.6938126 -0.1592801
v 0.1562253 0.446072 -0.22922
v 0.3893293 0.3382118 -3.663897E-16
v -0.09655178 0.5556874 -0.3491532
v 0.1340428 0.258478 -0.3550657
v 0.3108878 0.3298884 -0.1963549
v 0.3728521 0.2865752 -0.176302
v 0.5273055 0.3745827 -3.663897E-16
v 0.4020978 0.135168 -3.663897E-16
v 0.3387242 0.192281 -0.1883137
v 0.1711076 0.03846297 -3.663897E-16
v 0.2310145 0.1078773 -0.2592454
v 0.004165162 0.009424776 -3.663897E-16
v 0.03127528 0.07463634 -0.1969469
v -0.1522664 0.1056779 -3.663897E-16
v -0.0570563 0.1139189 -0.1905664
v -0.0570563 0.1139189 -0.1905664
v -0.05655849 0.2353159 -0.198247
v -0.1183144 0.2205889 -3.663897E-16
v -0.126828 0.3340806 -0.2231513
v -0.2113809 0.2789078 -3.663897E-16
v -0.1183144 0.2205889 -3.663897E-16
v -0.3129124 0.2749996 -3.663896E-16
v -0.2207564 0.3982347 -0.2048233
v -0.3956991 0.3977516 -3.663897E-16
v -0.2850526 0.4589272 -0.2191792
v -0.3510194 0.6334676 -3.663897E-16
v -0.2877977 0.5985062 -0.2461886
v -0.226579 0.7616957 -3.663897E-16
v -0.1807661 0.6850365 -0.2190464
v -0.06209514 0.7901497 -3.663897E-16
v -0.06117787 0.7256672 -0.2106024
v 0.08883706 0.7819037 -3.663896E-16
v 0.1835774 0.9053762 -1.099169E-15
v 0.2164259 0.887539 -0.1684111
v 0.1793314 1.034155 -3.663896E-16
v 0.2829885 0.7837457 -0.2229325
v 0.2037076 1.036245 -0.07554223
v 0.3135653 0.9311579 -0.1482352
v 0.3595459 0.9920904 -3.663897E-16
v 0.2242141 1.05909 -3.663897E-16
v 0.1559633 1.166119 -0.0755422
v 0.174492 1.165325 -3.663896E-16
v 0.125635 1.269711 -3.663897E-16
v 0.09167545 1.275841 -0.09774189
v 0.4855416 0.8214673 -3.663897E-16
v 0.403921 0.8140118 -0.1341276
v 0.52065 0.5896958 -3.663897E-16
v 0.4190567 0.7133561 -0.1394083
v 0.4190567 0.7133561 -0.1394083
v 0.1214013 0.6938126 -0.1592801
v 0.52065 0.5896958 -3.663897E-16
v 0.09167545 1.275841 -0.09774189
v 0.04825912 1.54891 -0.1227752
v 0.07872541 1.548642 -3.663897E-16
v -0.003142213 1.359678 -0.09774189
v 0.0603751 1.679725 -0.09963895
v 0.1352174 1.851887 -3.663897E-16
v -0.03152238 1.491618 -0.1227752
v -0.08918239 1.369309 -0.09774189
v 0.01675014 1.667293 -3.663896E-16
v 0.1352174 1.851887 -3.663897E-16
v -0.05870257 1.504316 -3.663897E-16
v -0.08918239 1.369309 -0.09774189
v -0.1342042 1.344162 -3.663897E-16
v -0.1342042 1.344162 -3.663897E-16
v -0.08918239 1.369309 -0.09774189
v -0.01475867 1.330791 -3.663896E-16
v 0.09167545 1.275841 -0.09774189
v 0.09167545 1.275841 -0.09774189
v 0.06454227 1.270103 -3.663897E-16
v 0.1559633 1.166119 -0.0755422
v 0.13946 1.159976 -3.663896E-16
v 0.2037076 1.036245 -0.07554223
v 0.2037076 1.036245 -0.07554223
vt 0.1469361 0.0753115
vt 0.1473274 0.07470278
vt 0.1473539 0.07389143
vt 0.1476834 0.07508246
vt 0.1473539 0.07389143
vt 0.1473274 0.07470278
vt 0.4904243 0.2603364
vt 0.4915531 0.2595738
vt 0.4913433 0.2598501
vt 0.4943151 0.2580618
vt 0.4970099 0.2582778
vt 0.4972181 0.2579422
vt 0.1469361 0.0753115
vt 0.1473539 0.07389143
vt 0.1469873 0.07371001
vt 0.146524 0.07228263
vt 0.1467753 0.07251702
vt 0.1465651 0.06793181
vt 0.1476834 0.07508246
vt 0.1473274 0.07470278
vt 0.1471913 0.07571498
vt 0.1465247 0.07751969
vt 0.1468053 0.07832041
vt 0.1467782 0.0814737
vt 0.1465204 0.08394817
vt 0.147015 0.08493963
vt 0.146524 0.07228263
vt 0.1465247 0.07751969
vt 0.1465204 0.08394817
vt 0.146336 0.0861301
vt 0.1457409 0.08088487
vt 0.1465204 0.08394817
vt 0.1457967 0.08499745
vt 0.1453089 0.08207565
vt 0.1451593 0.07811566
vt 0.1456377 0.07789899
vt 0.1465247 0.07751969
vt 0.1461437 0.07608908
vt 0.146524 0.07228263
vt 0.1462494 0.07216939
vt 0.1465651 0.06793181
vt 0.1477862 0.09679664
vt 0.1476573 0.09529112
vt 0.1473444 0.09796748
vt 0.1481877 0.09389038
vt 0.1478409 0.0943265
vt 0.1482472 0.09170084
vt 0.1478538 0.09277263
vt 0.1472777 0.0925263
vt 0.1476573 0.09529112
vt 0.1474022 0.09521011
vt 0.1476573 0.09529112
vt 0.1473444 0.09796748
vt 0.1462909 0.1062239
vt 0.1463075 0.1072369
vt 0.1465323 0.1057849
vt 0.1461395 0.1068851
vt 0.1462301 0.1090474
vt 0.1464312 0.1098984
vt 0.1465323 0.1057849
vt 0.1463075 0.1072369
vt 0.1464087 0.107207
vt 0.1464312 0.1098984
vt 0.4831046 0.2592598
vt 0.4823582 0.2589062
vt 0.4815202 0.2595884
vt 0.4825675 0.2597921
vt 0.4818647 0.259955
vt 0.4885384 0.2592994
vt 0.4823582 0.2589062
vt 0.4886178 0.259029
vt 0.4913433 0.2598501
vt 0.4858487 0.2581387
vt 0.4933579 0.2589507
vt 0.4915531 0.2595738
vt 0.4926475 0.259792
vt 0.4904243 0.2603364
vt 0.4964732 0.2598952
vt 0.49503 0.2596722
vt 0.4989166 0.2590814
vt 0.4971625 0.2592925
vt 0.4996501 0.2584933
vt 0.4980025 0.258589
vt 0.4972181 0.2579422
vt 0.4970099 0.2582778
vt 0.4970099 0.2582778
vt 0.4939431 0.2582797
vt 0.4943151 0.2580618
vt 0.4914472 0.2580321
vt 0.4928415 0.2577339
vt 0.4943151 0.2580618
vt 0.4929399 0.2573764
vt 0.4898264 0.2577009
vt 0.4898393 0.2570846
vt 0.4882933 0.2574743
vt 0.4838831 0.2572418
vt 0.4847666 0.2574649
vt 0.4806436 0.2576805
vt 0.4825804 0.2578417
vt 0.4799244 0.25826
vt 0.4815536 0.2582632
vt 0.4801331 0.2587918
vt 0.4770132 0.2591254
vt 0.4774638 0.2592411
vt 0.4737596 0.2591105
vt 0.4800863 0.2594758
vt 0.4737067 0.2591963
vt 0.4763617 0.2595834
vt 0.4748227 0.2597454
vt 0.4731297 0.2592685
vt 0.4704256 0.2590283
vt 0.4704453 0.2590933
vt 0.4678081 0.2589214
vt 0.4676533 0.2588016
vt 0.4791334 0.2601893
vt 0.4793214 0.2599016
vt 0.4849891 0.260313
vt 0.4818647 0.259955
vt 0.4818647 0.259955
vt 0.4823582 0.2589062
vt 0.4849891 0.260313
vt 0.4676533 0.2588016
vt 0.4607536 0.2586486
vt 0.4607607 0.2587562
vt 0.465535 0.2584677
vt 0.4574488 0.2586913
vt 0.4530985 0.258955
vt 0.4622015 0.2583675
vt 0.4652918 0.2581645
vt 0.457763 0.2585378
vt 0.4530985 0.258955
vt 0.4618806 0.2582719
vt 0.4652918 0.2581645
vt 0.4659272 0.2580062
vt 0.4659272 0.2580062
vt 0.4652918 0.2581645
vt 0.4662646 0.2584267
vt 0.4676533 0.2588016
vt 0.4676533 0.2588016
vt 0.4677982 0.2587061
vt 0.4704256 0.2590283
vt 0.4705804 0.25897
vt 0.4737067 0.2591963
vt 0.4737067 0.2591963
vn -0.7609016 -0.1787368 0.6237642
vn -0.4721087 -0.3389579 0.8137697
vn -0.1016587 0.9637319 0.2467515
vn -0.5245317 -0.7819729 0.3367265
vn -0.1016587 0.9637319 0.2467515
vn -0.4721087 -0.3389579 0.8137697
vn -0.8236915 -0.03721271 0.5658158
vn -0.526576 -0.7437798 0.4117151
vn -0.3926549 -0.8803518 0.2660881
vn 0.8563275 0.339981 0.3887367
vn 0.722093 0.466986 0.5103976
vn 0.8222706 0.4095147 0.395182
vn -0.7609016 -0.1787368 0.6237642
vn -0.1016587 0.9637319 0.2467515
vn -0.3856753 0.8826729 0.268595
vn 0.4879103 0.5196761 0.7013417
vn -0.7832313 0.5581144 0.2739652
vn -0.05880089 0.7476815 0.661449
vn -0.5245317 -0.7819729 0.3367265
vn -0.4721087 -0.3389579 0.8137697
vn -0.4490728 -0.8560705 0.2558847
vn -0.0909615 0.2291034 0.9691427
vn -0.8812581 -0.3274859 0.3407891
vn -0.9333712 0.08087116 0.3496831
vn -0.2520991 -0.5973098 0.7613587
vn -0.7380103 -0.4275867 0.5220252
vn 0.4879103 0.5196761 0.7013417
vn -0.0909615 0.2291034 0.9691427
vn -0.2520991 -0.5973098 0.7613587
vn 0.2291897 -0.8623295 0.4515084
vn 0.5678161 -0.006792533 0.8231274
vn -0.2520991 -0.5973098 0.7613587
vn 0.4210387 -0.7704122 0.4787394
vn 0.7359781 -0.448029 0.5075492
vn 0.651555 0.346988 0.6745927
vn 0.3456725 0.8116195 0.4709398
vn -0.0909615 0.2291034 0.9691427
vn 0.7029766 0.525283 0.4794806
vn 0.4879103 0.5196761 0.7013417
vn 0.8962817 0.198496 0.3965835
vn -0.05880089 0.7476815 0.661449
vn -0.5974585 -0.6281534 0.4984642
vn -0.154464 -0.3614706 0.9194998
vn 0.3872145 -0.5562602 0.7352819
vn -0.7562085 -0.3279151 0.5662335
vn -0.6350949 -0.05632688 0.7703777
vn -0.3225633 0.4043842 0.8558191
vn 0.1450533 0.7918103 0.5932925
vn 0.5503461 0.4158401 0.7240139
vn -0.154464 -0.3614706 0.9194998
vn 0.9044564 -0.06421969 0.4217041
vn -0.154464 -0.3614706 0.9194998
vn 0.3872145 -0.5562602 0.7352819
vn 0.3987761 0.8020251 0.444672
vn -0.1637177 -0.03447008 0.9859049
vn -0.5441973 0.4662175 0.6974888
vn 0.891869 0.1082536 0.4391477
vn 0.6668845 -0.4626649 0.5841286
vn -0.4879881 -0.4250144 0.7623845
vn -0.5441973 0.4662175 0.6974888
vn -0.1637177 -0.03447008 0.9859049
vn -0.9541131 -0.1341006 0.2677413
vn -0.4879881 -0.4250144 0.7623845
vn -0.7888277 0.3975645 0.4687145
vn -0.4551371 -0.4290636 0.7802274
vn -0.02580442 0.9208554 0.3890493
vn 0.1202553 0.9464808 0.299521
vn -0.5286377 0.4583801 0.7144438
vn -0.8033618 -0.4865537 0.34333
vn -0.4551371 -0.4290636 0.7802274
vn -0.6845731 -0.4236114 0.5932226
vn -0.3926549 -0.8803518 0.2660881
vn -0.0140905 -0.1541704 0.9879438
vn -0.09329136 0.07506857 0.9928048
vn -0.526576 -0.7437798 0.4117151
vn -0.7831872 -0.05228668 0.6195837
vn -0.8236915 -0.03721271 0.5658158
vn -0.6732987 0.6485278 0.3550783
vn -0.6674689 0.5975615 0.4443032
vn -0.2852163 0.9235105 0.2564762
vn -0.3407311 0.8024307 0.4899055
vn 0.1355318 0.9466798 0.2922817
vn 0.1201745 0.8959811 0.427523
vn 0.8222706 0.4095147 0.395182
vn 0.722093 0.466986 0.5103976
vn 0.722093 0.466986 0.5103976
vn 0.7558261 0.3472146 0.5551296
vn 0.8563275 0.339981 0.3887367
vn 0.5045759 0.5830715 0.6367345
vn 0.4495811 0.7892454 0.4182924
vn 0.8563275 0.339981 0.3887367
vn 0.5080324 0.6826612 0.5252398
vn 0.4712935 0.6341941 0.6129276
vn 0.8610232 0.2109018 0.4627736
vn 0.823375 0.186143 0.536101
vn 0.8474635 -0.3945765 0.3551269
vn 0.7945901 -0.3490187 0.4968023
vn 0.4498532 -0.8298645 0.3300864
vn 0.4153143 -0.7952223 0.4417413
vn 0.02041936 -0.9360254 0.3513396
vn -0.03215132 -0.8591107 0.510779
vn 0.3801361 -0.8316988 0.4046895
vn 0.8988764 -0.3240035 0.2950303
vn 0.7067163 -0.4183054 0.5705898
vn 0.9625585 0.1133041 0.2462584
vn -0.02996726 0.01181865 0.999481
vn 0.3852501 -0.6193897 0.6840605
vn -0.5256053 -0.5953568 0.6076919
vn -0.6170977 -0.644904 0.4508762
vn -0.6234168 -0.6753407 0.3940388
vn 0.04263315 0.09779372 0.9942932
vn -0.8781185 -0.3983813 0.2649533
vn -0.9358622 -0.2286389 0.2681156
vn -0.6469333 0.1526357 0.7471142
vn -0.8079302 -0.3204848 0.4945081
vn -0.7558124 -0.3377635 0.5609487
vn -0.5839683 0.4406057 0.6817973
vn -0.5286377 0.4583801 0.7144438
vn -0.5286377 0.4583801 0.7144438
vn -0.4551371 -0.4290636 0.7802274
vn -0.5839683 0.4406057 0.6817973
vn -0.6469333 0.1526357 0.7471142
vn -0.58382 0.03470535 0.811141
vn -0.951649 -0.02436652 0.3062197
vn 0.1713417 0.3845362 0.9070688
vn -0.4244531 -0.2298197 0.8757981
vn -0.7695835 -0.1316379 0.6248302
vn 0.4866753 -0.1566519 0.8594227
vn 0.5827045 0.1255203 0.8029323
vn 0.8477186 -0.4515408 0.2783596
vn -0.7695835 -0.1316379 0.6248302
vn 0.8697419 -0.412441 0.2710007
vn 0.5827045 0.1255203 0.8029323
vn 0.8924685 0.1693303 0.4181237
vn 0.8924685 0.1693303 0.4181237
vn 0.5827045 0.1255203 0.8029323
vn 0.3871113 0.8771684 0.2841134
vn -0.6469333 0.1526357 0.7471142
vn -0.6469333 0.1526357 0.7471142
vn 0.7130875 0.6548332 0.250399
vn 0.04263315 0.09779372 0.9942932
vn 0.8640516 0.4349693 0.2534098
vn 0.3852501 -0.6193897 0.6840605
vn 0.3852501 -0.6193897 0.6840605
g fireBlue02_mesh_0
f 3/3/3 2/2/2 1/1/1
f 6/6/6 5/5/5 4/4/4
f 9/9/9 8/8/8 7/7/7
f 12/12/12 11/11/11 10/10/10
f 15/15/15 14/14/14 13/13/13
f 13/13/13 16/16/16 15/15/15
f 16/16/16 17/17/17 15/15/15
f 17/17/17 16/16/16 18/18/18
f 13/13/13 20/20/20 19/19/19
f 21/21/21 13/13/13 19/19/19
f 22/22/22 13/13/13 21/21/21
f 23/23/23 22/22/22 21/21/21
f 23/23/23 24/24/24 22/22/22
f 24/24/24 25/25/25 22/22/22
f 26/26/26 25/25/25 24/24/24
f 13/13/13 28/28/28 27/27/27
f 30/30/30 29/29/29 26/26/26
f 31/31/31 28/28/28 29/29/29
f 31/31/31 32/32/32 30/30/30
f 33/33/33 31/31/31 30/30/30
f 34/34/34 31/31/31 33/33/33
f 35/35/35 31/31/31 34/34/34
f 36/36/36 31/31/31 35/35/35
f 37/37/37 31/31/31 36/36/36
f 38/38/38 37/37/37 36/36/36
f 37/37/37 38/38/38 39/39/39
f 38/38/38 40/40/40 39/39/39
f 41/41/41 39/39/39 40/40/40
f 44/44/44 43/43/43 42/42/42
f 45/45/45 42/42/42 43/43/43
f 46/46/46 45/45/45 43/43/43
f 45/45/45 46/46/46 47/47/47
f 47/47/47 46/46/46 48/48/48
f 48/48/48 46/46/46 49/49/49
f 46/46/46 50/50/50 49/49/49
f 49/49/49 52/52/52 51/51/51
f 51/51/51 52/52/52 53/53/53
f 56/56/56 55/55/55 54/54/54
f 54/54/54 55/55/55 57/57/57
f 57/57/57 55/55/55 58/58/58
f 58/58/58 55/55/55 59/59/59
f 62/62/62 61/61/61 60/60/60
f 63/63/63 61/61/61 62/62/62
f 66/66/66 65/65/65 64/64/64
f 67/67/67 66/66/66 64/64/64
f 68/68/68 66/66/66 67/67/67
f 64/64/64 70/70/70 69/69/69
f 70/70/70 71/71/71 69/69/69
f 69/69/69 71/71/71 72/72/72
f 70/70/70 73/73/73 71/71/71
f 73/73/73 74/74/74 71/71/71
f 71/71/71 75/75/75 72/72/72
f 71/71/71 74/74/74 75/75/75
f 75/75/75 74/74/74 76/76/76
f 75/75/75 76/76/76 77/77/77
f 77/77/77 76/76/76 78/78/78
f 76/76/76 79/79/79 78/78/78
f 76/76/76 74/74/74 79/79/79
f 78/78/78 79/79/79 80/80/80
f 79/79/79 81/81/81 80/80/80
f 79/79/79 74/74/74 81/81/81
f 80/80/80 81/81/81 82/82/82
f 81/81/81 83/83/83 82/82/82
f 81/81/81 74/74/74 83/83/83
f 82/82/82 83/83/83 84/84/84
f 83/83/83 85/85/85 84/84/84
f 83/83/83 74/74/74 86/86/86
f 86/86/86 74/74/74 87/87/87
f 86/86/86 87/87/87 88/88/88
f 87/87/87 74/74/74 89/89/89
f 73/73/73 89/89/89 74/74/74
f 87/87/87 89/89/89 90/90/90
f 91/91/91 87/87/87 90/90/90
f 90/90/90 89/89/89 92/92/92
f 89/89/89 93/93/93 92/92/92
f 89/89/89 73/73/73 93/93/93
f 92/92/92 93/93/93 94/94/94
f 93/93/93 95/95/95 94/94/94
f 93/93/93 73/73/73 95/95/95
f 94/94/94 95/95/95 96/96/96
f 95/95/95 97/97/97 96/96/96
f 95/95/95 73/73/73 97/97/97
f 96/96/96 97/97/97 98/98/98
f 97/97/97 99/99/99 98/98/98
f 97/97/97 73/73/73 99/99/99
f 98/98/98 99/99/99 100/100/100
f 99/99/99 73/73/73 101/101/101
f 99/99/99 101/101/101 100/100/100
f 100/100/100 101/101/101 102/102/102
f 101/101/101 73/73/73 70/70/70
f 101/101/101 70/70/70 102/102/102
f 102/102/102 70/70/70 103/103/103
f 70/70/70 104/104/104 103/103/103
f 103/103/103 104/104/104 105/105/105
f 70/70/70 106/106/106 104/104/104
f 104/104/104 107/107/107 105/105/105
f 104/104/104 106/106/106 108/108/108
f 108/108/108 107/107/107 104/104/104
f 107/107/107 108/108/108 109/109/109
f 110/110/110 107/107/107 109/109/109
f 111/111/111 107/107/107 110/110/110
f 112/112/112 111/111/111 110/110/110
f 112/112/112 113/113/113 111/111/111
f 113/113/113 114/114/114 111/111/111
f 109/109/109 108/108/108 115/115/115
f 108/108/108 116/116/116 115/115/115
f 108/108/108 106/106/106 116/116/116
f 115/115/115 116/116/116 117/117/117
f 116/116/116 118/118/118 117/117/117
f 116/116/116 106/106/106 119/119/119
f 119/119/119 106/106/106 66/66/66
f 66/66/66 106/106/106 120/120/120
f 121/121/121 119/119/119 67/67/67
f 123/123/123 122/122/122 113/113/113
f 124/124/124 123/123/123 113/113/113
f 122/122/122 123/123/123 125/125/125
f 126/126/126 123/123/123 124/124/124
f 127/127/127 126/126/126 124/124/124
f 123/123/123 126/126/126 128/128/128
f 128/128/128 125/125/125 123/123/123
f 128/128/128 129/129/129 125/125/125
f 128/128/128 126/126/126 130/130/130
f 130/130/130 126/126/126 131/131/131
f 132/132/132 128/128/128 130/130/130
f 133/133/133 128/128/128 132/132/132
f 134/134/134 133/133/133 132/132/132
f 125/125/125 136/136/136 135/135/135
f 137/137/137 125/125/125 135/135/135
f 138/138/138 125/125/125 137/137/137
f 140/140/140 139/139/139 137/137/137
f 141/141/141 138/138/138 140/140/140
f 142/142/142 141/141/141 140/140/140
f 143/143/143 141/141/141 142/142/142
f 105/105/105 144/144/144 142/142/142
