g fireBlue21_mesh
v 0.05785596 1.515233 -0.005054418
v 0.04183976 1.568581 -0.03303976
v 0.05458393 1.634662 -0.005054418
v 0.04183976 1.568581 -0.03303976
v 0.0185915 1.588854 -0.01382541
v 0.0237346 1.550459 -0.009439914
v 0.04183976 1.568581 -0.03303976
v 0.05785596 1.515233 -0.005054418
v 0.2516281 0.9428417 -3.70583E-16
v 0.1984342 0.9750901 -0.1435984
v 0.333315 0.9732741 -3.70583E-16
v 0.1932965 0.8524051 -3.70583E-16
v 0.1984342 0.9750901 -0.1435984
v 0.1377398 0.8337374 -0.1960684
v 0.2072657 0.7138692 -3.70583E-16
v -0.08205088 0.8834935 -0.2398223
v 0.1521058 0.6490335 -0.2296831
v 0.1285869 1.040929 -0.1798247
v 0.3203304 0.6508735 -3.705831E-16
v 0.2962236 1.061049 -3.705831E-16
v 0.333315 0.9732741 -3.70583E-16
v 0.2090503 1.127875 -3.705831E-16
v 0.09200323 1.111856 -0.1904518
v 0.1369644 1.175188 -3.70583E-16
v 0.08498451 1.227999 -0.04706663
v 0.1071068 1.241206 -3.70583E-16
v 0.08343473 1.413321 -3.70583E-16
v 0.2749702 0.5386009 -0.2411258
v 0.4534809 0.6394858 -3.70583E-16
v 0.3241562 0.4571859 -0.2169976
v 0.5357783 0.4177212 -3.70583E-16
v 0.09360372 0.4112912 -0.3887507
v 0.37269 0.3512079 -0.2184106
v 0.5169856 0.19191 -3.70583E-16
v 0.4172584 0.2323385 -0.2433892
v -0.01986408 0.6326908 -0.2772612
v -0.04169136 0.436301 -0.27
v -0.1304353 0.6268534 -0.2238787
v -0.1658016 0.2185869 -0.1799883
v -0.3419527 0.6814443 -0.1137941
v -0.06663886 0.09042284 -0.2474639
v 0.06349635 0.101826 -0.23507
v -0.1070745 0.0003576279 -3.70583E-16
v -0.2421825 0.04383829 -3.70583E-16
v -0.1658016 0.2185869 -0.1799883
v -0.3256422 0.1734363 -3.70583E-16
v -0.3055145 0.2761967 -3.705831E-16
v 0.0805112 -0.007198036 -3.70583E-16
v 0.1339162 0.1277522 -0.2489999
v 0.1483878 0.08056706 -3.70583E-16
v 0.2049957 0.1960182 -0.2161329
v 0.2639621 0.1190918 -3.70583E-16
v 0.2863263 0.2152746 -0.2133524
v 0.4172584 0.2323385 -0.2433892
v 0.3752116 0.1010291 -3.70583E-16
v 0.4172584 0.2323385 -0.2433892
v 0.5169856 0.19191 -3.70583E-16
v -0.1666073 0.2874507 -3.70583E-16
v -0.1658016 0.2185869 -0.1799883
v -0.07568333 0.4380436 -3.70583E-16
v -0.04169136 0.436301 -0.27
v 0.06190277 1.412194 -3.70583E-16
v 0.05547357 1.464476 -0.04363309
v 0.08498451 1.227999 -0.04706663
v -0.4200338 0.5732961 -3.70583E-16
v -0.3419527 0.6814443 -0.1137941
v -0.3029933 0.6142088 -3.705831E-16
v -0.3419527 0.6814443 -0.1137941
v -0.1467177 0.5886365 -3.70583E-16
v -0.04169136 0.436301 -0.27
v -0.07568333 0.4380436 -3.70583E-16
v 0.5169856 0.19191 -3.70583E-16
v 0.4172584 0.2323385 -0.2433892
v -0.05099781 1.610799 -3.705829E-16
v 0.05547357 1.464476 -0.04363309
v 0.008726358 1.517558 -3.70583E-16
v 0.06190277 1.412194 -3.70583E-16
v 0.07362016 1.266026 -3.705831E-16
v 0.1430517 1.531489 -3.705831E-16
v 0.02390205 1.089346 -0.1846244
v 0.005200787 1.168269 -3.70583E-16
v -0.1313735 1.030735 -0.09651192
v -0.3419527 0.6814443 -0.1137941
v -0.1116918 1.119311 -3.70583E-16
v -0.1660112 1.151204 -3.70583E-16
v -0.1850274 0.9907173 -3.705831E-16
v -0.3419527 0.6814443 -0.1137941
v -0.3491589 0.8126877 -3.70583E-16
v -0.4200338 0.5732961 -3.70583E-16
v 0.05797164 1.693061 -0.04329417
v 0.1191084 1.644932 -7.411661E-16
v 0.06184119 1.788511 -3.705831E-16
v 0.0006545782 1.677523 -7.41166E-16
v 0.009187337 1.599561 -0.07926863
v -0.05099781 1.610799 -3.705829E-16
v -0.4157904 1.72018 -4.135903E-25
v -0.3356461 1.676996 -0.04995828
v -0.3935624 1.677669 -4.135903E-25
v -0.353851 1.706261 -4.135903E-25
v -0.3356461 1.676996 -0.04995828
v -0.2914105 1.677428 -4.135903E-25
v -0.3356461 1.676996 -0.04995828
v -0.2343211 1.592305 -4.135903E-25
v -0.3356461 1.676996 -0.04995828
v -0.3380931 1.652501 -4.135903E-25
v -0.2944381 1.630437 -4.135903E-25
v -0.2343211 1.592305 -4.135903E-25
v -0.02834959 0.8127218 -0.1065548
v 0.1910239 1.040601 2.235174E-08
v 0.2153226 0.9649351 2.235174E-08
v 0.1403291 1.066124 2.235174E-08
v 0.09673359 0.849429 2.235174E-08
v 0.06396393 0.9933118 2.235174E-08
v 0.0611174 0.7393265 2.235174E-08
v -0.02036742 0.978242 2.235174E-08
v -0.1055848 1.02793 2.235174E-08
v -0.1579328 0.9288226 2.235174E-08
v -0.2487471 0.8407396 2.235174E-08
v -0.2998903 0.7775558 2.235174E-08
v -0.3347474 0.6820669 2.235174E-08
v -0.2283205 0.6857859 2.235174E-08
v -0.08933048 0.6407554 2.235174E-08
v 0.1095927 0.589861 2.235174E-08
v 0.01114341 0.4101729 2.235174E-08
v 0.1714562 0.2544075 -0.1249027
v 0.2267882 0.5301112 2.235174E-08
v -0.06829312 0.2693543 2.235174E-08
v 0.3849948 0.5324365 2.235174E-08
v -0.2818093 0.177983 2.235174E-08
v 0.4422381 0.3864963 2.235174E-08
v -0.09085836 0.0615077 2.235174E-08
v 0.4342273 0.2376082 2.235174E-08
v 0.04233212 0.05301943 2.235174E-08
v 0.3532563 0.155311 2.235174E-08
v 0.1652661 0.1706463 2.235174E-08
vt 0.1467417 0.1082352
vt 0.1466669 0.1092261
vt 0.1467264 0.111212
vt 0.1466669 0.1092261
vt 0.1465581 0.1100699
vt 0.1465822 0.1091132
vt 0.1466669 0.1092261
vt 0.1467417 0.1082352
vt 0.4760666 0.2593651
vt 0.475252 0.2591777
vt 0.4752975 0.2596529
vt 0.4783516 0.2591596
vt 0.475252 0.2591777
vt 0.4788231 0.2589641
vt 0.4818517 0.2592089
vt 0.4775664 0.2581899
vt 0.4834901 0.2590145
vt 0.4735886 0.2589316
vt 0.4834436 0.2596068
vt 0.4730801 0.2595223
vt 0.4752975 0.2596529
vt 0.4713918 0.2592151
vt 0.4717968 0.2588028
vt 0.4701962 0.2589613
vt 0.4688618 0.2587781
vt 0.4685284 0.2588559
vt 0.4641798 0.2587725
vt 0.4862802 0.2594473
vt 0.4837313 0.2600762
vt 0.4883371 0.2596207
vt 0.4893342 0.2603662
vt 0.4894964 0.2588086
vt 0.4910149 0.2597916
vt 0.4950395 0.2603
vt 0.494018 0.2599487
vt 0.483903 0.2584089
vt 0.4888648 0.2583319
vt 0.4840504 0.2580197
vt 0.4943655 0.2578945
vt 0.4826709 0.2572739
vt 0.4976034 0.2582442
vt 0.4973154 0.2587025
vt 0.4998791 0.2581016
vt 0.4987811 0.2576255
vt 0.4943655 0.2578945
vt 0.4955062 0.2573315
vt 0.4929101 0.2574021
vt 0.5000699 0.2587622
vt 0.4966607 0.2589505
vt 0.4978526 0.2590017
vt 0.4949358 0.2592008
vt 0.4968793 0.2594087
vt 0.4944492 0.2594874
vt 0.494018 0.2599487
vt 0.4973357 0.2598004
vt 0.494018 0.2599487
vt 0.4950395 0.2603
vt 0.4926256 0.257892
vt 0.4943655 0.2578945
vt 0.4888206 0.2582121
vt 0.4888648 0.2583319
vt 0.4642084 0.2586968
vt 0.4628871 0.2586741
vt 0.4688618 0.2587781
vt 0.4854032 0.2569988
vt 0.4826709 0.2572739
vt 0.4843699 0.2574112
vt 0.4826709 0.2572739
vt 0.4850158 0.257962
vt 0.4888648 0.2583319
vt 0.4888206 0.2582121
vt 0.4950395 0.2603
vt 0.494018 0.2599487
vt 0.4591902 0.2582991
vt 0.4628871 0.2586741
vt 0.4615458 0.2585093
vt 0.4642084 0.2586968
vt 0.4679013 0.2587379
vt 0.4611939 0.2589828
vt 0.4723649 0.2585628
vt 0.4703713 0.258497
vt 0.4738459 0.2580159
vt 0.4826709 0.2572739
vt 0.4716079 0.2580855
vt 0.4708023 0.2578938
vt 0.4748569 0.2578268
vt 0.4826709 0.2572739
vt 0.4793551 0.2572488
vt 0.4854032 0.2569988
vt 0.4571118 0.258683
vt 0.4583278 0.2588981
vt 0.4547001 0.2586966
vt 0.4575045 0.2584809
vt 0.4594739 0.2585108
vt 0.4591902 0.2582991
vt 0.4564264 0.2570139
vt 0.4575181 0.2572964
vt 0.4575005 0.2570922
vt 0.4567783 0.2572321
vt 0.4575181 0.2572964
vt 0.4575064 0.257452
vt 0.4575181 0.2572964
vt 0.4596573 0.2576532
vt 0.4575181 0.2572964
vt 0.4581364 0.2572875
vt 0.4586944 0.2574415
vt 0.4596573 0.2576532
vt 0.1462844 0.08916545
vt 0.1471939 0.09578221
vt 0.1472946 0.0935894
vt 0.1469491 0.09694806
vt 0.1468031 0.09022772
vt 0.1466671 0.09440932
vt 0.1466553 0.08703195
vt 0.1463175 0.09396742
vt 0.1459641 0.09541111
vt 0.145747 0.09254554
vt 0.1453705 0.09009287
vt 0.1451585 0.0883356
vt 0.145014 0.08556423
vt 0.1454552 0.08552749
vt 0.1460316 0.08418574
vt 0.1468564 0.08269359
vt 0.1464481 0.07749359
vt 0.1471129 0.0729598
vt 0.1473422 0.08096027
vt 0.1461188 0.07343142
vt 0.1479981 0.08104064
vt 0.1452335 0.07073851
vt 0.1482355 0.07683852
vt 0.1460252 0.06733331
vt 0.1482022 0.07268278
vt 0.1465774 0.06714528
vt 0.1478665 0.0704606
vt 0.1470871 0.07056896
vn -0.6089075 0.2173795 0.7628747
vn -0.5506182 0.0003696552 0.834757
vn -0.5366771 -0.2391849 0.8091774
vn -0.5506182 0.0003696552 0.834757
vn 0.4423293 -0.295363 0.8468208
vn 0.5316867 0.4237634 0.7333034
vn -0.5506182 0.0003696552 0.834757
vn -0.6089075 0.2173795 0.7628747
vn -0.7789872 0.539625 0.319349
vn -0.7336484 -0.05915531 0.6769496
vn -0.7225865 0.1228557 0.6802758
vn -0.9509555 0.106083 0.2905688
vn -0.7336484 -0.05915531 0.6769496
vn -0.7306126 -0.09807868 0.6757113
vn -0.8117157 -0.4600367 0.3598386
vn 0.3712204 -0.2971095 0.879728
vn -0.5547004 -0.494417 0.6692229
vn -0.5387791 -0.2963841 0.7885895
vn -0.4870548 -0.7228265 0.4902035
vn -0.6253306 -0.4661611 0.625824
vn -0.7225865 0.1228557 0.6802758
vn -0.6272283 -0.5527778 0.5486541
vn -0.4220771 -0.5398492 0.7282951
vn -0.7293358 -0.5324127 0.429658
vn 0.01333727 -0.7497343 0.6616046
vn -0.8651495 -0.2772142 0.4179338
vn -0.8643309 -0.05425102 0.4999889
vn -0.4864926 -0.602884 0.6323416
vn -0.6208858 -0.4474505 0.6436527
vn -0.6243379 -0.3690834 0.6884618
vn -0.7831472 -0.2095035 0.5854816
vn 0.08309109 -0.07195595 0.9939407
vn -0.7373809 -0.2336281 0.6337881
vn -0.7424881 0.3772047 0.5535594
vn -0.66271 0.3821265 0.6440457
vn 0.08675691 -0.232425 0.9687373
vn 0.8961628 -0.03783917 0.4421091
vn 0.7211121 0.3888089 0.5734327
vn 0.8320711 -0.0281201 0.5539557
vn 0.7169459 0.1937992 0.6696495
vn 0.3220424 0.6616284 0.6771532
vn -0.205863 0.8000798 0.563465
vn 0.3107924 0.8135082 0.4915409
vn 0.6073774 0.5510288 0.572241
vn 0.8320711 -0.0281201 0.5539557
vn 0.7058156 0.2047334 0.6781656
vn 0.5539387 -0.5655361 0.6109998
vn -0.2128235 0.9068977 0.3636518
vn -0.4890386 0.6853812 0.5395311
vn -0.5514922 0.7822675 0.2896793
vn -0.3783877 0.7470844 0.5465232
vn -0.2567965 0.8931761 0.3691774
vn -0.1116179 0.8325486 0.5425904
vn -0.66271 0.3821265 0.6440457
vn -0.2129826 0.8840014 0.4161487
vn -0.66271 0.3821265 0.6440457
vn -0.7424881 0.3772047 0.5535594
vn 0.7779338 -0.5976393 0.1940263
vn 0.8320711 -0.0281201 0.5539557
vn 0.9878919 -0.04917947 0.1471427
vn 0.8961628 -0.03783917 0.4421091
vn 0.9858286 0.1353357 0.09912729
vn -0.08791509 0.2336892 0.9683285
vn 0.01333727 -0.7497343 0.6616046
vn 0.6839076 0.2335065 0.691191
vn 0.7169459 0.1937992 0.6696495
vn 0.1993217 0.9251386 0.3230937
vn 0.7169459 0.1937992 0.6696495
vn 0.7091817 0.6762195 0.1994706
vn 0.8961628 -0.03783917 0.4421091
vn 0.9878919 -0.04917947 0.1471427
vn -0.7424881 0.3772047 0.5535594
vn -0.66271 0.3821265 0.6440457
vn 0.8080758 -0.02852099 0.5883875
vn -0.08791509 0.2336892 0.9683285
vn 0.7830602 0.4318179 0.4476048
vn 0.9858286 0.1353357 0.09912729
vn 0.9411212 -0.2383374 0.2397624
vn -0.5115864 -0.006186788 0.8592097
vn 0.4586683 -0.6240299 0.6326217
vn 0.5535415 -0.7096434 0.4358879
vn 0.6291417 -0.5436128 0.5555769
vn 0.7169459 0.1937992 0.6696495
vn 0.3598382 -0.7849607 0.5043343
vn 0.56088 -0.4133888 0.7173029
vn 0.7509336 -0.487607 0.4453515
vn 0.7169459 0.1937992 0.6696495
vn 0.7514457 -0.4985301 0.4322004
vn 0.6839076 0.2335065 0.691191
vn -0.1704038 -0.2960714 0.9398426
vn -0.5202769 -0.05343546 0.8523242
vn -0.0906921 -0.4083218 0.9083217
vn 0.6266464 -0.4928727 0.6036479
vn 0.3954876 0.03463059 0.9178182
vn 0.8080758 -0.02852099 0.5883875
vn 0.3886518 -0.290334 0.874446
vn -0.191568 -0.22413 0.9555456
vn 0.572792 0.4895771 0.6574371
vn -0.2686962 -0.8706225 0.4120909
vn -0.191568 -0.22413 0.9555456
vn -0.6237853 -0.548241 0.5570671
vn -0.191568 -0.22413 0.9555456
vn -0.480578 -0.05882914 0.8749765
vn -0.191568 -0.22413 0.9555456
vn 0.3919362 0.8183119 0.4204183
vn 0.4892562 0.801634 0.3435276
vn -0.480578 -0.05882914 0.8749765
vn 0.01157458 -0.005841359 0.999916
vn -0.2524806 -0.199652 0.9467801
vn -0.4065094 0.01122719 0.9135776
vn -0.04317424 -0.3627031 0.9309042
vn -0.6385779 0.5143281 0.5724376
vn 0.4403636 -0.6124563 0.6564884
vn -0.7957497 -0.1037533 0.5966721
vn -0.1203042 -0.5332534 0.8373576
vn 0.1687644 -0.3880445 0.9060575
vn 0.4181145 -0.3152285 0.8519456
vn 0.3748971 -0.3363851 0.8638849
vn 0.3791882 -0.174533 0.9087104
vn 0.2981998 0.07662107 0.9514232
vn 0.0504315 0.594322 0.8026444
vn 0.4566399 0.3459395 0.8196377
vn -0.7685748 -0.3403756 0.5416984
vn 0.6834696 0.1465705 0.7151128
vn 0.0511435 0.1189011 0.9915881
vn -0.08436827 -0.397091 0.9138932
vn 0.3539975 -0.5629283 0.7468583
vn -0.1973256 -0.2716146 0.9419597
vn 0.2415295 0.1374631 0.9606078
vn -0.3845906 -0.08108388 0.9195191
vn 0.1749186 0.3564177 0.9178072
vn -0.4199335 0.1199557 0.8995925
vn -0.07640251 0.5604475 0.8246583
vn -0.2674191 0.5265447 0.8069929
vn -0.3101031 0.7966301 0.5188607
g fireBlue21_mesh_0
f 3/3/3 2/2/2 1/1/1
f 5/5/5 4/4/4 3/3/3
f 7/7/7 5/5/5 6/6/6
f 8/8/8 7/7/7 6/6/6
f 11/11/11 10/10/10 9/9/9
f 9/9/9 13/13/13 12/12/12
f 13/13/13 14/14/14 12/12/12
f 12/12/12 14/14/14 15/15/15
f 13/13/13 16/16/16 14/14/14
f 14/14/14 16/16/16 17/17/17
f 14/14/14 17/17/17 15/15/15
f 18/18/18 16/16/16 13/13/13
f 15/15/15 17/17/17 19/19/19
f 18/18/18 13/13/13 20/20/20
f 20/20/20 13/13/13 21/21/21
f 22/22/22 18/18/18 20/20/20
f 23/23/23 18/18/18 22/22/22
f 23/23/23 16/16/16 18/18/18
f 24/24/24 23/23/23 22/22/22
f 25/25/25 23/23/23 24/24/24
f 26/26/26 25/25/25 24/24/24
f 26/26/26 27/27/27 25/25/25
f 17/17/17 28/28/28 19/19/19
f 19/19/19 28/28/28 29/29/29
f 28/28/28 30/30/30 29/29/29
f 29/29/29 30/30/30 31/31/31
f 17/17/17 32/32/32 28/28/28
f 28/28/28 32/32/32 30/30/30
f 30/30/30 33/33/33 31/31/31
f 30/30/30 32/32/32 33/33/33
f 31/31/31 33/33/33 34/34/34
f 33/33/33 32/32/32 35/35/35
f 36/36/36 32/32/32 17/17/17
f 32/32/32 36/36/36 37/37/37
f 36/36/36 17/17/17 16/16/16
f 37/37/37 36/36/36 38/38/38
f 36/36/36 16/16/16 38/38/38
f 39/39/39 32/32/32 37/37/37
f 38/38/38 16/16/16 40/40/40
f 41/41/41 32/32/32 39/39/39
f 42/42/42 32/32/32 41/41/41
f 42/42/42 41/41/41 43/43/43
f 43/43/43 41/41/41 44/44/44
f 41/41/41 45/45/45 44/44/44
f 44/44/44 45/45/45 46/46/46
f 46/46/46 39/39/39 47/47/47
f 48/48/48 42/42/42 43/43/43
f 49/49/49 42/42/42 48/48/48
f 49/49/49 32/32/32 42/42/42
f 50/50/50 49/49/49 48/48/48
f 51/51/51 49/49/49 50/50/50
f 51/51/51 32/32/32 49/49/49
f 52/52/52 51/51/51 50/50/50
f 53/53/53 32/32/32 51/51/51
f 53/53/53 51/51/51 52/52/52
f 54/54/54 32/32/32 53/53/53
f 55/55/55 53/53/53 52/52/52
f 54/54/54 53/53/53 55/55/55
f 57/57/57 56/56/56 55/55/55
f 47/47/47 59/59/59 58/58/58
f 58/58/58 59/59/59 60/60/60
f 59/59/59 61/61/61 60/60/60
f 64/64/64 63/63/63 62/62/62
f 67/67/67 66/66/66 65/65/65
f 38/38/38 68/68/68 67/67/67
f 69/69/69 38/38/38 67/67/67
f 70/70/70 38/38/38 69/69/69
f 71/71/71 70/70/70 69/69/69
f 33/33/33 73/73/73 72/72/72
f 76/76/76 75/75/75 74/74/74
f 77/77/77 75/75/75 76/76/76
f 78/78/78 25/25/25 77/77/77
f 27/27/27 75/75/75 25/25/25
f 79/79/79 75/75/75 27/27/27
f 80/80/80 25/25/25 78/78/78
f 23/23/23 25/25/25 80/80/80
f 81/81/81 80/80/80 78/78/78
f 80/80/80 16/16/16 23/23/23
f 82/82/82 80/80/80 81/81/81
f 82/82/82 16/16/16 80/80/80
f 83/83/83 16/16/16 82/82/82
f 84/84/84 82/82/82 81/81/81
f 85/85/85 82/82/82 84/84/84
f 86/86/86 82/82/82 85/85/85
f 87/87/87 82/82/82 86/86/86
f 88/88/88 87/87/87 86/86/86
f 89/89/89 87/87/87 88/88/88
f 90/90/90 75/75/75 79/79/79
f 91/91/91 90/90/90 79/79/79
f 92/92/92 90/90/90 91/91/91
f 93/93/93 90/90/90 92/92/92
f 90/90/90 94/94/94 75/75/75
f 94/94/94 90/90/90 93/93/93
f 75/75/75 94/94/94 95/95/95
f 95/95/95 94/94/94 93/93/93
f 98/98/98 97/97/97 96/96/96
f 96/96/96 100/100/100 99/99/99
f 99/99/99 102/102/102 101/101/101
f 101/101/101 100/100/100 103/103/103
f 105/105/105 104/104/104 98/98/98
f 106/106/106 104/104/104 105/105/105
f 107/107/107 104/104/104 106/106/106
f 110/110/110 109/109/109 108/108/108
f 111/111/111 108/108/108 109/109/109
f 112/112/112 110/110/110 108/108/108
f 108/108/108 111/111/111 113/113/113
f 114/114/114 112/112/112 108/108/108
f 115/115/115 108/108/108 113/113/113
f 108/108/108 115/115/115 116/116/116
f 117/117/117 108/108/108 116/116/116
f 118/118/118 108/108/108 117/117/117
f 119/119/119 108/108/108 118/118/118
f 120/120/120 108/108/108 119/119/119
f 121/121/121 108/108/108 120/120/120
f 121/121/121 122/122/122 108/108/108
f 114/114/114 108/108/108 123/123/123
f 124/124/124 108/108/108 122/122/122
f 125/125/125 123/123/123 108/108/108
f 108/108/108 124/124/124 125/125/125
f 125/125/125 126/126/126 123/123/123
f 124/124/124 127/127/127 125/125/125
f 125/125/125 128/128/128 126/126/126
f 127/127/127 129/129/129 125/125/125
f 128/128/128 125/125/125 130/130/130
f 129/129/129 131/131/131 125/125/125
f 125/125/125 132/132/132 130/130/130
f 133/133/133 125/125/125 131/131/131
f 134/134/134 132/132/132 125/125/125
f 135/135/135 125/125/125 133/133/133
f 134/134/134 125/125/125 135/135/135
