g fireBlue11_mesh
v -0.1006598 0.1284488 -4.153794E-16
v -0.008511186 0.1325408 -0.2318027
v -0.1254899 0.03395262 -4.153794E-16
v 0.007430285 0.857569 -4.153795E-16
v -0.05269276 0.8965642 -0.2119026
v 0.1310192 1.174507 -0.0976572
v 0.1310192 1.174507 -0.0976572
v 0.1282416 1.051959 -4.153794E-16
v 0.3016934 1.169956 -0.1020781
v 0.2938532 1.083826 -1.296041E-16
v 0.3789127 1.159865 -1.56933E-16
v 0.3032611 1.299102 -0.08879922
v 0.3950878 1.31164 -1.77375E-16
v 0.3536634 1.441097 -1.825496E-16
v 0.2638803 1.337471 -1.511089E-16
v 0.1310192 1.174507 -0.0976572
v 0.1310192 1.174507 -0.0976572
v 0.1429912 1.283104 -4.153794E-16
v -0.009047175 1.27908 -0.05367033
v 0.03074871 1.345907 -1.002799E-16
v 0.0173582 1.069955 -0.1028302
v -0.05269276 0.8965642 -0.2119026
v -0.02967519 1.449389 -0.06640649
v -0.01656787 1.508705 -4.153794E-16
v -0.04421805 1.36723 -0.06971017
v -0.02169827 1.226959 -4.153794E-16
v -0.07604938 1.325115 -8.23432E-16
v -0.01320949 1.079287 -4.153793E-16
v -0.07356682 1.403531 -4.153793E-16
v -0.04862964 1.468209 -4.153793E-16
v -0.01656787 1.508705 -4.153794E-16
v -0.02967519 1.449389 -0.06640649
v -0.09788227 0.9526895 -4.153793E-16
v -0.2365101 0.8492824 -0.1896202
v -0.2310345 0.9345762 -4.153794E-16
v -0.3844885 0.9636564 -0.1289318
v -0.329715 0.9865324 -4.153794E-16
v -0.3692479 1.110924 -4.153794E-16
v -0.4543214 0.9099382 -4.153794E-16
v -0.3662035 0.7485835 -0.2135233
v -0.4864869 0.7652883 -4.153793E-16
v -0.2014722 0.6055827 -0.3429883
v -0.05269276 0.8965642 -0.2119026
v -0.3668835 0.5594935 -0.2105518
v -0.0007377807 0.6331092 -0.27
v -0.487294 0.5710225 -4.153793E-16
v 0.02786902 0.648752 -4.153794E-16
v 0.1718986 0.5351137 -4.153793E-16
v -0.3282381 0.4221789 -0.21081
v -0.4402416 0.3793971 -4.153794E-16
v 0.1635932 0.5034533 -0.27
v 0.389161 0.5690384 -4.153793E-16
v 0.2536518 0.3423271 -0.3858481
v 0.4389715 0.544381 -0.1454641
v 0.5029783 0.7256512 -4.153794E-16
v 0.5397596 0.5754516 -4.153794E-16
v 0.5162539 0.3711106 -4.153794E-16
v -0.2638325 0.3342275 -0.2133676
v -0.3134482 0.1941347 -4.153794E-16
v 0.4229422 0.3726276 -0.2225999
v 0.4456463 0.1371934 -4.153794E-16
v -0.1849153 0.2983649 -0.2128145
v -0.2057553 0.2027916 -4.153794E-16
v 0.3642045 0.2353171 -0.2173276
v 0.225788 0.007367164 -4.153794E-16
v -0.06041294 0.2608905 -0.2411689
v -0.1006598 0.1284488 -4.153794E-16
v 0.2521146 0.1457975 -0.2146196
v -0.00424432 -0.0004655123 -4.153793E-16
v 0.1107208 0.1178781 -0.2181328
v -0.1254899 0.03395262 -4.153794E-16
v -0.008511186 0.1325408 -0.2318027
v -0.1006598 0.1284488 -4.153794E-16
v -0.281002 0.7292799 -0.0851756
v -0.2038032 0.8307471 -0.01127877
v -0.129545 0.8803972 -0.09567143
v -0.2904745 0.8406305 -0.006713344
v -0.3514689 0.9093131 2.235174E-08
v -0.4182557 0.7539628 2.235174E-08
v -0.3305008 0.6739129 2.235174E-08
v -0.2768955 0.5619392 2.235174E-08
v -0.1658515 0.4428922 -0.0851756
v -0.3395021 0.3717252 2.235174E-08
v -0.3065251 0.314982 2.235174E-08
v -0.1960202 0.3390549 2.235174E-08
v 0.06075136 0.2592475 -0.0851756
v -0.112743 0.304356 2.235174E-08
v -0.04161028 0.2401631 2.235174E-08
v -0.03293556 0.08054835 2.235174E-08
v 0.1557695 0.0531936 2.235174E-08
v 0.2475486 0.1120264 2.235174E-08
v 0.1527034 0.2991512 -0.0851756
v 0.2381354 0.2391052 2.235174E-08
v 0.3973303 0.2575125 2.235174E-08
v 0.4441738 0.5108142 2.235174E-08
v 0.2186312 0.4327418 2.235174E-08
v 0.04513688 0.4830552 2.235174E-08
v -0.1492252 0.5973719 -0.08742463
v -0.0642324 0.6046079 2.235174E-08
v -0.1143406 0.7460788 2.235174E-08
v -0.129545 0.8803972 -0.09567143
v 0.008439798 1.95951 -4.153793E-16
v -0.022509 2.032045 -0.04269205
v 0.06081908 2.054599 -0.06992136
v -0.00668996 1.788397 -4.153794E-16
v -0.03380142 1.974486 -4.153794E-16
v -0.02672221 2.086487 -4.153793E-16
v -0.01501136 2.1608 -8.334914E-16
v 0.01424788 2.117638 -4.153793E-16
v 0.08390262 2.08453 -4.153793E-16
v 0.06081908 2.054599 -0.06992136
v -0.022509 2.032045 -0.04269205
v 0.1197354 2.00975 -8.23759E-16
v 0.06081908 2.054599 -0.06992136
v 0.09996852 2.011555 -0.04645336
v 0.1296994 1.923817 -4.153793E-16
v 0.09996852 2.011555 -0.04645336
v 0.06081908 2.054599 -0.06992136
v 0.05159526 2.017592 -4.153793E-16
v 0.09996852 2.011555 -0.04645336
v 0.09378274 1.984516 -4.153794E-16
v 0.1711101 1.261913 2.235174E-08
v 0.09991437 1.203071 -0.04024421
v 0.117019 1.249476 2.235174E-08
v 0.2402719 1.279905 2.235174E-08
v 0.07248925 1.270392 2.235174E-08
v 0.3108144 1.255662 2.235174E-08
v 0.03167439 1.294114 2.235174E-08
v 0.3028156 1.185668 2.235174E-08
v 0.01368352 1.245744 -0.01865716
v 0.2064955 1.153916 2.235174E-08
v 0.05501369 1.125805 -0.0078283
v 0.1240452 1.134429 2.235174E-08
vt 0.496643 0.2581245
vt 0.4965395 0.2584488
vt 0.4990304 0.2580366
vt 0.478221 0.258505
vt 0.4772359 0.2582933
vt 0.4702135 0.2589402
vt 0.4702135 0.2589402
vt 0.4733101 0.2589304
vt 0.4703284 0.2595417
vt 0.4725046 0.2595139
vt 0.4705834 0.2598135
vt 0.4670658 0.2595471
vt 0.4667484 0.2598705
vt 0.463478 0.2597247
vt 0.4660961 0.2594084
vt 0.4702135 0.2589402
vt 0.4702135 0.2589402
vt 0.4674698 0.2589825
vt 0.4675715 0.2584471
vt 0.4658829 0.2585869
vt 0.4728552 0.2585397
vt 0.4772359 0.2582933
vt 0.4632683 0.2583741
vt 0.4617697 0.2584202
vt 0.4653442 0.2583228
vt 0.4688883 0.2584023
vt 0.4664083 0.2582109
vt 0.4726192 0.2584323
vt 0.4644268 0.2582197
vt 0.4627928 0.2583075
vt 0.4617697 0.2584202
vt 0.4632683 0.2583741
vt 0.475818 0.2581339
vt 0.4784306 0.2576455
vt 0.4762751 0.2576648
vt 0.4755406 0.2571243
vt 0.4749627 0.2573172
vt 0.4718199 0.2571781
vt 0.4768978 0.2568781
vt 0.4809747 0.2571886
vt 0.4805528 0.2567649
vt 0.4845873 0.2577686
vt 0.4772359 0.2582933
vt 0.4857522 0.2571862
vt 0.4838926 0.2584763
vt 0.485461 0.2567618
vt 0.4834972 0.2585771
vt 0.4863686 0.2590842
vt 0.4892213 0.2573223
vt 0.4903026 0.2569277
vt 0.487168 0.259055
vt 0.4855112 0.2598495
vt 0.4912389 0.2593722
vt 0.4861339 0.2600251
vt 0.4815541 0.2602506
vt 0.4853489 0.2603803
vt 0.4905119 0.2602973
vt 0.4914441 0.257549
vt 0.494983 0.2573744
vt 0.4904739 0.2599685
vt 0.4964219 0.2600487
vt 0.4923501 0.2578274
vt 0.4947643 0.2577536
vt 0.4939428 0.2597618
vt 0.4997019 0.2592742
vt 0.4932964 0.2582657
vt 0.496643 0.2581245
vt 0.4962047 0.259367
vt 0.4998997 0.258464
vt 0.4969103 0.2588688
vt 0.4990304 0.2580366
vt 0.4965395 0.2584488
vt 0.496643 0.2581245
vt 0.1452367 0.08655422
vt 0.1455526 0.08931833
vt 0.1458451 0.09076416
vt 0.1451927 0.08909906
vt 0.1449441 0.09174196
vt 0.1446678 0.08731969
vt 0.1450316 0.0849894
vt 0.1452539 0.08173893
vt 0.1457143 0.07827521
vt 0.1449944 0.07647208
vt 0.145131 0.07495115
vt 0.1455892 0.07527821
vt 0.1466539 0.07294305
vt 0.1459345 0.07425414
vt 0.1462294 0.07238481
vt 0.1462654 0.06775375
vt 0.1470477 0.06714907
vt 0.1474283 0.0688682
vt 0.1470351 0.07411819
vt 0.1473892 0.072556
vt 0.1480494 0.0731772
vt 0.1482436 0.08029363
vt 0.1473085 0.07799757
vt 0.1465891 0.07945936
vt 0.1457265 0.08273562
vt 0.1460374 0.08314943
vt 0.1457954 0.08700369
vt 0.1458451 0.09076416
vt 0.4505158 0.2585232
vt 0.448584 0.2584033
vt 0.4481936 0.2587166
vt 0.4547033 0.258455
vt 0.4500013 0.2583599
vt 0.4471713 0.2583848
vt 0.4452938 0.2584257
vt 0.4463844 0.2585288
vt 0.4474043 0.2587945
vt 0.4481936 0.2587166
vt 0.448584 0.2584033
vt 0.449896 0.2589869
vt 0.4481936 0.2587166
vt 0.4497322 0.2589046
vt 0.4523411 0.2590523
vt 0.4497322 0.2589046
vt 0.4481936 0.2587166
vt 0.4493989 0.258714
vt 0.4497322 0.2589046
vt 0.4506212 0.2589052
vt 0.1471114 0.103622
vt 0.1468161 0.1023212
vt 0.146887 0.1033471
vt 0.1473981 0.1040198
vt 0.1467024 0.10381
vt 0.1476385 0.1040261
vt 0.1465333 0.104334
vt 0.1476854 0.1027493
vt 0.1464586 0.1032648
vt 0.1472211 0.1018785
vt 0.14663 0.100613
vt 0.1469163 0.1013277
vn 0.7727475 0.4549147 0.4426218
vn 0.4925645 0.5569234 0.6687427
vn 0.5677602 0.6411085 0.5163605
vn -0.9567028 0.09562092 0.2749117
vn -0.6664672 -0.3834847 0.639344
vn -0.3541475 0.1799856 0.9177063
vn -0.3541475 0.1799856 0.9177063
vn -0.6912494 0.5307081 0.4904317
vn -0.3414312 0.3707241 0.8637062
vn -0.1267496 0.6997879 0.703016
vn -0.7402256 0.1603786 0.6529509
vn -0.1839752 -0.4091862 0.8937113
vn -0.7254825 -0.06066473 0.6855618
vn -0.2012409 -0.4670318 0.8610363
vn 0.4651752 -0.6617013 0.5880165
vn -0.3541475 0.1799856 0.9177063
vn -0.3541475 0.1799856 0.9177063
vn 0.1120059 -0.6842592 0.7205859
vn 0.2046411 -0.2475323 0.9470215
vn -0.5882616 -0.4014274 0.7020003
vn 0.7516715 -0.444901 0.4868811
vn -0.6664672 -0.3834847 0.639344
vn -0.5329246 -0.2930179 0.7938085
vn -0.7592357 -0.243618 0.6034995
vn 0.6615978 0.09349512 0.7440075
vn 0.9341348 0.1182781 0.3367527
vn 0.7752488 0.322071 0.5433778
vn 0.8935816 -0.3283985 0.3060494
vn 0.8912774 -0.1931846 0.4102491
vn 0.8486561 -0.3395886 0.4055396
vn -0.7592357 -0.243618 0.6034995
vn -0.5329246 -0.2930179 0.7938085
vn 0.4970755 -0.7953751 0.346835
vn 0.1095827 -0.7254001 0.6795485
vn -0.08441651 -0.9238412 0.3733514
vn 0.4601402 -0.5900242 0.6634323
vn -0.5818813 -0.7124031 0.3922957
vn 0.3507247 -0.6371561 0.6863121
vn 0.8766168 -0.1846568 0.4443476
vn 0.7278904 -0.1576222 0.6673312
vn 0.8729044 -0.06329422 0.4837683
vn 0.1946895 -0.04167389 0.9799793
vn -0.6664672 -0.3834847 0.639344
vn 0.8088223 0.1052517 0.5785573
vn -0.7239279 -0.4934554 0.4821102
vn 0.8651497 0.09603761 0.4922323
vn -0.8575118 -0.4915628 0.1517881
vn -0.2715486 -0.9525192 0.1377261
vn 0.7371265 0.3466856 0.5800464
vn 0.7930413 0.3599787 0.4914273
vn -0.3268157 -0.8314226 0.4493639
vn 0.2447813 -0.9502112 0.1928233
vn -0.1107305 0.007149626 0.9938247
vn -0.4495237 -0.7154037 0.5349075
vn -0.08988996 -0.6038361 0.7920239
vn -0.8603347 -0.06066046 0.5061073
vn -0.8820519 0.1620099 0.4424221
vn 0.5021859 0.5919634 0.6303877
vn 0.5206476 0.6759508 0.5215521
vn -0.8343102 0.1117788 0.5398443
vn -0.6849883 0.5646062 0.4604464
vn 0.3127995 0.693931 0.6485493
vn 0.3124641 0.8227432 0.4748259
vn -0.6869485 0.5197688 0.5078802
vn -0.2628443 0.8318167 0.48887
vn 0.4463819 0.4271586 0.786307
vn 0.7727475 0.4549147 0.4426218
vn -0.3195392 0.7741655 0.5464087
vn 0.03860988 0.8697081 0.492054
vn -0.02943775 0.8149664 0.57876
vn 0.5677602 0.6411085 0.5163605
vn 0.4925645 0.5569234 0.6687427
vn 0.7727475 0.4549147 0.4426218
vn 0.2049566 -0.01740245 0.9786163
vn 0.5379809 -0.7238824 0.4319386
vn -0.1587219 0.2258352 0.9611481
vn -0.3115267 -0.564909 0.764087
vn 0.3584122 -0.2809216 0.8902941
vn 0.5205621 -0.04718997 0.8525187
vn 0.6201426 0.4423129 0.6479062
vn 0.6938272 0.1544478 0.7033846
vn 0.2054678 0.1478838 0.9674261
vn 0.4465459 -0.0189448 0.8945602
vn 0.2005175 0.3806071 0.9027353
vn 0.2695646 0.6245073 0.733025
vn 0.08073504 0.1755218 0.9811596
vn 0.4172692 0.5836605 0.6965823
vn 0.5941613 0.2397871 0.7677723
vn 0.19341 0.3376733 0.9211782
vn -0.06151696 0.3569319 0.9321027
vn -0.2793236 0.2587503 0.9246765
vn -0.1694546 -0.05077559 0.9842291
vn -0.435772 0.4693749 0.7679778
vn -0.310367 0.1084666 0.9444085
vn -0.2358273 -0.06542808 0.9695899
vn 0.07745831 -0.5628921 0.8228929
vn -0.5186524 -0.5853105 0.6232265
vn -0.222707 -0.1812489 0.9578885
vn -0.6345156 -0.4161547 0.6513104
vn -0.5086177 0.04310504 0.8599128
vn -0.1587219 0.2258352 0.9611481
vn -0.6302474 0.2902938 0.7200817
vn 0.1978342 0.02472582 0.9799237
vn -0.2268325 -0.2469545 0.9421043
vn -0.07740057 0.1671952 0.9828808
vn 0.9158494 0.1073022 0.3869189
vn 0.9592921 -0.1245334 0.2534763
vn -0.07653706 -0.3097864 0.9477206
vn -0.08218581 -0.6013489 0.7947484
vn -0.2993879 -0.6887237 0.6603229
vn -0.2268325 -0.2469545 0.9421043
vn 0.1978342 0.02472582 0.9799237
vn -0.8594825 -0.3163813 0.4014882
vn -0.2268325 -0.2469545 0.9421043
vn -0.4858289 0.1427632 0.8623161
vn -0.3409933 0.347023 0.8736697
vn -0.4858289 0.1427632 0.8623161
vn -0.2268325 -0.2469545 0.9421043
vn 0.009858268 0.7415234 0.6708546
vn -0.4858289 0.1427632 0.8623161
vn 0.6548688 0.618737 0.4339485
vn 0.1768275 -0.6923907 0.6995192
vn 0.03246688 0.09645744 0.9948074
vn -0.03303562 -0.6478429 0.7610573
vn -0.08795204 -0.3313689 0.9393929
vn -0.3175669 -0.5785111 0.7513162
vn -0.1734857 -0.05666789 0.9832047
vn -0.04168499 -0.4299185 0.9019049
vn -0.1870516 0.08276185 0.9788576
vn 0.1841845 -0.1212312 0.9753866
vn -0.1350517 0.4357305 0.8898877
vn 0.1328083 0.3168247 0.93914
vn -0.129334 0.4672938 0.8745909
g fireBlue11_mesh_0
f 3/3/3 2/2/2 1/1/1
f 6/6/6 5/5/5 4/4/4
f 8/8/8 7/7/7 4/4/4
f 9/9/9 7/7/7 8/8/8
f 10/10/10 9/9/9 8/8/8
f 11/11/11 9/9/9 10/10/10
f 12/12/12 9/9/9 11/11/11
f 13/13/13 12/12/12 11/11/11
f 14/14/14 12/12/12 13/13/13
f 15/15/15 12/12/12 14/14/14
f 16/16/16 12/12/12 15/15/15
f 9/9/9 12/12/12 17/17/17
f 18/18/18 17/17/17 15/15/15
f 19/19/19 17/17/17 18/18/18
f 20/20/20 19/19/19 18/18/18
f 21/21/21 17/17/17 19/19/19
f 21/21/21 22/22/22 17/17/17
f 23/23/23 19/19/19 20/20/20
f 24/24/24 23/23/23 20/20/20
f 25/25/25 19/19/19 23/23/23
f 21/21/21 19/19/19 26/26/26
f 26/26/26 19/19/19 27/27/27
f 19/19/19 25/25/25 27/27/27
f 28/28/28 21/21/21 26/26/26
f 22/22/22 21/21/21 28/28/28
f 27/27/27 25/25/25 29/29/29
f 29/29/29 25/25/25 30/30/30
f 30/30/30 23/23/23 31/31/31
f 25/25/25 32/32/32 30/30/30
f 33/33/33 22/22/22 28/28/28
f 34/34/34 22/22/22 33/33/33
f 35/35/35 34/34/34 33/33/33
f 36/36/36 34/34/34 35/35/35
f 37/37/37 36/36/36 35/35/35
f 38/38/38 36/36/36 37/37/37
f 39/39/39 36/36/36 38/38/38
f 40/40/40 36/36/36 39/39/39
f 34/34/34 36/36/36 40/40/40
f 41/41/41 40/40/40 39/39/39
f 40/40/40 42/42/42 34/34/34
f 34/34/34 42/42/42 43/43/43
f 44/44/44 42/42/42 40/40/40
f 44/44/44 40/40/40 41/41/41
f 43/43/43 42/42/42 45/45/45
f 46/46/46 44/44/44 41/41/41
f 22/22/22 45/45/45 47/47/47
f 4/4/4 43/43/43 47/47/47
f 47/47/47 45/45/45 48/48/48
f 49/49/49 44/44/44 46/46/46
f 49/49/49 42/42/42 44/44/44
f 50/50/50 49/49/49 46/46/46
f 45/45/45 51/51/51 48/48/48
f 45/45/45 42/42/42 51/51/51
f 48/48/48 51/51/51 52/52/52
f 53/53/53 51/51/51 42/42/42
f 51/51/51 53/53/53 54/54/54
f 51/51/51 54/54/54 52/52/52
f 52/52/52 54/54/54 55/55/55
f 55/55/55 54/54/54 56/56/56
f 56/56/56 54/54/54 57/57/57
f 58/58/58 49/49/49 50/50/50
f 58/58/58 42/42/42 49/49/49
f 59/59/59 58/58/58 50/50/50
f 54/54/54 60/60/60 57/57/57
f 54/54/54 53/53/53 60/60/60
f 57/57/57 60/60/60 61/61/61
f 62/62/62 58/58/58 59/59/59
f 62/62/62 42/42/42 58/58/58
f 63/63/63 62/62/62 59/59/59
f 60/60/60 64/64/64 61/61/61
f 60/60/60 53/53/53 64/64/64
f 61/61/61 64/64/64 65/65/65
f 66/66/66 42/42/42 62/62/62
f 66/66/66 62/62/62 63/63/63
f 53/53/53 42/42/42 66/66/66
f 67/67/67 66/66/66 63/63/63
f 64/64/64 68/68/68 65/65/65
f 64/64/64 53/53/53 68/68/68
f 65/65/65 68/68/68 69/69/69
f 68/68/68 70/70/70 69/69/69
f 68/68/68 53/53/53 70/70/70
f 69/69/69 70/70/70 71/71/71
f 70/70/70 72/72/72 71/71/71
f 70/70/70 53/53/53 72/72/72
f 72/72/72 53/53/53 66/66/66
f 72/72/72 66/66/66 73/73/73
f 76/76/76 75/75/75 74/74/74
f 74/74/74 75/75/75 77/77/77
f 78/78/78 74/74/74 77/77/77
f 79/79/79 74/74/74 78/78/78
f 80/80/80 74/74/74 79/79/79
f 81/81/81 74/74/74 80/80/80
f 82/82/82 74/74/74 81/81/81
f 83/83/83 82/82/82 81/81/81
f 84/84/84 82/82/82 83/83/83
f 85/85/85 82/82/82 84/84/84
f 86/86/86 82/82/82 85/85/85
f 87/87/87 86/86/86 85/85/85
f 88/88/88 86/86/86 87/87/87
f 89/89/89 86/86/86 88/88/88
f 90/90/90 86/86/86 89/89/89
f 90/90/90 91/91/91 86/86/86
f 92/92/92 86/86/86 91/91/91
f 93/93/93 92/92/92 91/91/91
f 93/93/93 94/94/94 92/92/92
f 95/95/95 92/92/92 94/94/94
f 96/96/96 92/92/92 95/95/95
f 96/96/96 97/97/97 92/92/92
f 82/82/82 86/86/86 98/98/98
f 86/86/86 92/92/92 98/98/98
f 97/97/97 98/98/98 92/92/92
f 97/97/97 99/99/99 98/98/98
f 98/98/98 74/74/74 82/82/82
f 99/99/99 100/100/100 98/98/98
f 100/100/100 74/74/74 98/98/98
f 101/101/101 74/74/74 100/100/100
f 104/104/104 103/103/103 102/102/102
f 102/102/102 103/103/103 105/105/105
f 105/105/105 103/103/103 106/106/106
f 106/106/106 103/103/103 107/107/107
f 107/107/107 103/103/103 108/108/108
f 108/108/108 103/103/103 109/109/109
f 109/109/109 103/103/103 110/110/110
f 112/112/112 111/111/111 110/110/110
f 110/110/110 114/114/114 113/113/113
f 111/111/111 115/115/115 113/113/113
f 113/113/113 117/117/117 116/116/116
f 119/119/119 118/118/118 102/102/102
f 120/120/120 118/118/118 119/119/119
f 116/116/116 120/120/120 121/121/121
f 121/121/121 120/120/120 119/119/119
f 124/124/124 123/123/123 122/122/122
f 123/123/123 125/125/125 122/122/122
f 126/126/126 123/123/123 124/124/124
f 127/127/127 125/125/125 123/123/123
f 126/126/126 128/128/128 123/123/123
f 129/129/129 127/127/127 123/123/123
f 128/128/128 130/130/130 123/123/123
f 131/131/131 129/129/129 123/123/123
f 130/130/130 132/132/132 123/123/123
f 133/133/133 131/131/131 123/123/123
f 133/133/133 123/123/123 132/132/132
