g fire22_mesh
v 0.2670056 0.0726524 -3.273491E-16
v 0.1140225 0.1357984 -0.202526
v 0.1567741 0.163941 -3.273491E-16
v 0.5115746 0.2906843 -3.273491E-16
v 0.4498629 0.3608323 -0.2364053
v 0.4425511 0.4652836 -0.2131793
v 0.5115746 0.2906843 -3.273491E-16
v 0.5518911 0.4343171 -3.273491E-16
v 0.4158466 0.5512062 -0.2085415
v 0.516884 0.5548182 -3.273491E-16
v 0.2756979 0.5304614 -0.3456421
v 0.4498629 0.3608323 -0.2364053
v 0.3989524 0.3181858 -0.2434299
v 0.3952244 0.6400876 -0.2385128
v 0.3156958 0.6646122 -0.2156249
v 0.4435126 0.6774846 -3.273491E-16
v 0.3527998 0.7586516 -3.273491E-16
v 0.2185906 0.6715595 -0.2096096
v 0.2368485 0.7456502 -3.27349E-16
v 0.06675192 0.7210732 -0.1118383
v 0.06675192 0.7210732 -0.1118383
v 0.1176559 0.8006615 -3.273491E-16
v -0.0364023 0.8822743 -0.1117443
v 0.08471364 0.9499548 -3.273491E-16
v 0.04552242 1.033713 -0.1030067
v 0.1582893 1.04831 -3.273491E-16
v 0.07477048 1.130952 -0.1165719
v 0.1267511 1.132774 -3.273491E-16
v -0.02264116 0.9885352 -0.1726422
v 0.08641299 1.287922 -0.04621978
v 0.1198012 1.269481 -3.273491E-16
v 0.07516918 1.455608 -3.273491E-16
v 0.05665953 1.316534 -3.273491E-16
v 0.009077426 1.180856 -0.1218119
v 0.003289953 1.22144 -3.273491E-16
v -0.05734699 1.116938 -0.1275286
v -0.09981938 1.166037 -3.273491E-16
v -0.1183427 1.017456 -0.1251956
v -0.2220265 0.9475033 -3.27349E-16
v -0.1480235 0.9056126 -0.1366476
v -0.3103374 0.7565888 -3.273491E-16
v -0.1547753 0.7576529 -9.820475E-16
v 0.06675192 0.7210732 -0.1118383
v -0.03562088 0.6827007 -3.273491E-16
v -0.03562088 0.6827007 -3.273491E-16
v 0.007933179 0.5220926 -0.27
v -0.08006813 0.2831808 -0.3456421
v -0.1160081 0.4009896 -0.27
v -0.02281984 0.5339872 -3.273491E-16
v -0.1268281 0.4323609 -3.273491E-16
v -0.2411686 0.3970982 -0.2477351
v -0.2839449 0.3280695 -0.2289227
v 0.1688638 0.3228201 -0.234153
v -0.2804891 0.4492644 -3.273491E-16
v -0.2839449 0.3280695 -0.2289227
v -0.3782906 0.367473 -3.273491E-16
v 0.3081119 0.356868 -0.2288509
v 0.324687 0.3134851 -3.273491E-16
v 0.1987369 0.3166737 -3.273491E-16
v 0.4179166 0.2477506 -9.820474E-16
v 0.4498629 0.3608323 -0.2364053
v 0.5115746 0.2906843 -3.273491E-16
v 0.1567741 0.163941 -3.273491E-16
v 0.1140225 0.1357984 -0.202526
v -0.01281989 0.1040481 -0.2228211
v 0.004165162 0.009424776 -3.273491E-16
v 0.1707758 0.03837451 -3.273491E-16
v 0.2670056 0.0726524 -3.273491E-16
v -0.1416235 0.01173621 -3.273491E-16
v -0.1092084 0.1036534 -0.219248
v -0.2521385 0.05321714 -3.273491E-16
v -0.2017139 0.1139863 -0.2335982
v -0.339189 0.1267723 -3.273491E-16
v -0.2260569 0.1873229 -0.2025775
v -0.3843851 0.2250649 -3.273491E-16
v -0.2541805 0.2514111 -0.2022228
v -0.3782906 0.367473 -3.273491E-16
v -0.2839449 0.3280695 -0.2289227
v -0.3782906 0.367473 -3.273491E-16
v -0.03562088 0.6827007 -3.273491E-16
v -0.02281984 0.5339872 -3.273491E-16
v 0.06384671 1.664648 -0.002700665
v 0.050567 1.697594 -0.0320469
v 0.06113371 1.763672 -0.002700665
v 0.03129093 1.72569 -0.01087819
v 0.0355553 1.693855 -0.006789429
v 0.06384671 1.664648 -0.002700665
v -0.0850672 0.8080437 2.235174E-08
v -0.07703859 0.9417224 -0.1065548
v 0.02995224 0.7791941 -0.07360394
v -0.1451634 0.8270936 2.235174E-08
v -0.2374302 0.8291526 2.235174E-08
v -0.1865555 0.9410168 2.235174E-08
v -0.1209347 1.06831 2.235174E-08
v -0.07881841 1.118588 2.235174E-08
v -0.04713762 1.103825 2.235174E-08
v -0.006188387 1.110307 2.235174E-08
v 0.04152016 1.152658 2.235174E-08
v 0.09641504 1.102302 2.235174E-08
v 0.118657 1.051317 2.235174E-08
v 0.05310106 0.9312424 2.235174E-08
v 0.05231331 0.7950577 2.235174E-08
v 0.02995224 0.7791941 -0.07360394
v 0.1262864 0.7064495 2.235174E-08
v 0.02995224 0.7791941 -0.07360394
v 0.00815316 0.7651379 2.235174E-08
v 0.07099517 0.6561847 2.235174E-08
v 0.1629379 0.5142067 -0.1249027
v 0.02995224 0.7791941 -0.07360394
v 0.06893682 0.4551814 2.235174E-08
v 0.2087542 0.7010649 2.235175E-08
v 0.2957292 0.6881885 2.235174E-08
v 0.4113922 0.5233778 2.235174E-08
v 0.4271642 0.3503855 2.235174E-08
v 0.2460008 0.3921552 2.235174E-08
v -0.09568678 0.3256415 2.235174E-08
v -0.02560282 0.2163666 -0.110802
v -0.2846237 0.3635405 2.235174E-08
v 0.1493766 0.3616423 2.235174E-08
v -0.3134414 0.2416171 2.235174E-08
v 0.07987507 0.2124682 2.235174E-08
v -0.2200854 0.1409661 2.235174E-08
v 0.1550952 0.1028399 2.235174E-08
v 0.04233212 0.05301943 2.235174E-08
v -0.4067263 1.723796 0
v -0.3122411 1.6916 -0.04312427
v -0.3856121 1.693448 0
v -0.3580215 1.719157 0
v -0.3122411 1.6916 -0.04312427
v -0.3074881 1.703163 0
v -0.3122411 1.6916 -0.04312427
v -0.2555909 1.643615 0
v -0.3122411 1.6916 -0.04312427
v -0.3407638 1.679581 0
v -0.3052489 1.666943 0
v -0.2555909 1.643615 0
v 0.02773562 1.64065 -3.555978E-16
v 0.08397411 1.610796 -0.04741709
v 0.06447641 1.587234 -2.666982E-16
v 0.07524914 1.505341 -2.222487E-16
v 0.09884773 1.579482 -2.000238E-16
v 0.0487529 1.671962 -0.0434934
v 0.08853883 1.799605 -0.0484935
v -0.03855102 1.680356 -5.333967E-16
v 0.1114471 1.663198 -0.06184583
v 0.1404135 1.653511 -1.889113E-16
v 0.1544976 1.758113 -1.833551E-16
v 0.09639776 1.913829 -1.805772E-16
v 0.02544792 1.792085 -5.333967E-16
v 0.002104079 1.699905 -0.0434934
vt 0.8086419 0.6656505
vt 0.80753 0.665275
vt 0.8070349 0.66538
vt 0.804804 0.6662506
vt 0.8035694 0.6660994
vt 0.8017309 0.6660814
vt 0.804804 0.6662506
vt 0.8022759 0.6663499
vt 0.8002185 0.6660159
vt 0.8001549 0.6662637
vt 0.8005837 0.6656717
vt 0.8035694 0.6660994
vt 0.8043201 0.6659744
vt 0.798654 0.6659652
vt 0.7982225 0.6657702
vt 0.7979957 0.6660838
vt 0.796567 0.6658611
vt 0.7981001 0.6655316
vt 0.7967958 0.6655766
vt 0.7972286 0.665159
vt 0.7972286 0.665159
vt 0.7958277 0.665284
vt 0.7942363 0.6649191
vt 0.7932 0.6652032
vt 0.7917258 0.6651069
vt 0.7914684 0.6653836
vt 0.7900141 0.6651787
vt 0.7899818 0.6653063
vt 0.7925168 0.66494
vt 0.7872511 0.6652073
vt 0.7875757 0.6652892
vt 0.7842997 0.6651798
vt 0.7867475 0.6651344
vt 0.7891358 0.6650177
vt 0.7884212 0.6650034
vt 0.7902606 0.6648546
vt 0.7893965 0.6647503
vt 0.7918947 0.6647149
vt 0.7926645 0.6644995
vt 0.7936127 0.6646633
vt 0.7955065 0.6643265
vt 0.7958585 0.664677
vt 0.7972286 0.665159
vt 0.7977975 0.6649168
vt 0.7977975 0.6649168
vt 0.8007307 0.6650147
vt 0.8049363 0.6647987
vt 0.8028626 0.6647104
vt 0.8005217 0.6649392
vt 0.8023105 0.6646841
vt 0.802931 0.6644033
vt 0.8041459 0.6642984
vt 0.8042383 0.6654096
vt 0.8020129 0.6643069
vt 0.8041459 0.6642984
vt 0.8034522 0.6640667
vt 0.8036392 0.6657515
vt 0.8044028 0.6657921
vt 0.8043466 0.6654829
vt 0.8055599 0.6660208
vt 0.8035694 0.6660994
vt 0.804804 0.6662506
vt 0.8070349 0.66538
vt 0.80753 0.665275
vt 0.8080895 0.6649638
vt 0.8097546 0.6650054
vt 0.8092451 0.6654144
vt 0.8086419 0.6656505
vt 0.8097137 0.6646478
vt 0.8080961 0.6647273
vt 0.808984 0.6643763
vt 0.8079142 0.6645001
vt 0.807689 0.6641627
vt 0.8066233 0.6644404
vt 0.8059593 0.6640518
vt 0.805495 0.6643714
vt 0.8034522 0.6640667
vt 0.8041459 0.6642984
vt 0.8034522 0.6640667
vt 0.7977975 0.6649168
vt 0.8005217 0.6649392
vt 0.1235615 0.5055575
vt 0.1224193 0.5054713
vt 0.1201275 0.5055398
vt 0.1214446 0.5053458
vt 0.1225488 0.5053735
vt 0.1235615 0.5055575
vt 0.1486399 0.5048048
vt 0.1445002 0.5047987
vt 0.1504411 0.5052437
vt 0.1479973 0.5044467
vt 0.1478482 0.5039179
vt 0.1442814 0.5042323
vt 0.1404712 0.5044827
vt 0.1389165 0.5045518
vt 0.1395487 0.5047626
vt 0.1395929 0.5050382
vt 0.1381806 0.5052653
vt 0.1398703 0.5055279
vt 0.1415761 0.5056344
vt 0.1455626 0.5053255
vt 0.150132 0.5053205
vt 0.1504411 0.5052437
vt 0.1531182 0.5056708
vt 0.1504411 0.5052437
vt 0.150746 0.5051616
vt 0.1548103 0.5054063
vt 0.1595545 0.5058462
vt 0.1504411 0.5052437
vt 0.1615385 0.5053965
vt 0.1532987 0.5060652
vt 0.1537206 0.5064813
vt 0.1589993 0.5070346
vt 0.1642644 0.5071101
vt 0.1636029 0.5062435
vt 0.1658731 0.5046091
vt 0.1695367 0.5049442
vt 0.1647348 0.5035756
vt 0.1646528 0.5057812
vt 0.1687733 0.5034378
vt 0.1696405 0.5054488
vt 0.1721501 0.5038843
vt 0.1733154 0.5058085
vt 0.1750077 0.5052692
vt 0.779579 0.6639969
vt 0.7801456 0.664229
vt 0.7801132 0.6640489
vt 0.7796606 0.6641166
vt 0.7801456 0.664229
vt 0.7799422 0.6642405
vt 0.7801456 0.664229
vt 0.7809902 0.6643679
vt 0.7801456 0.664229
vt 0.7803571 0.6641588
vt 0.7805796 0.6642461
vt 0.7809902 0.6643679
vt 0.7810425 0.6650633
vt 0.7815679 0.6652014
vt 0.7819828 0.6651535
vt 0.7834243 0.6651798
vt 0.7821193 0.6652378
vt 0.7804913 0.6651148
vt 0.7782444 0.6652124
vt 0.7803435 0.6649007
vt 0.7806454 0.6652687
vt 0.7808161 0.6653398
vt 0.7789749 0.6653744
vt 0.776234 0.6652318
vt 0.7783769 0.6650577
vt 0.7799995 0.6650004
vn -0.7953884 0.0162464 0.6058823
vn -0.6291513 0.5746779 0.5233679
vn -0.9815642 0.01498639 0.1905441
vn -0.8151486 0.4334037 0.3843097
vn -0.7833179 0.350568 0.5133374
vn -0.8652328 -0.118445 0.4871788
vn -0.8151486 0.4334037 0.3843097
vn -0.9164771 -0.0577611 0.3958955
vn -0.8500269 -0.2713971 0.4514397
vn -0.8756524 -0.3050901 0.37437
vn -0.05730206 -0.1887799 0.9803462
vn -0.7833179 0.350568 0.5133374
vn 0.03075757 0.8922669 0.4504595
vn -0.6794667 -0.56476 0.4683707
vn -0.1821988 -0.8739496 0.4505726
vn -0.7239122 -0.5984766 0.3431864
vn -0.2257136 -0.9066733 0.3563662
vn 0.04967204 -0.8319347 0.5526458
vn -0.07187348 -0.9077066 0.4134041
vn 0.3485075 -0.4855346 0.8017473
vn 0.3485075 -0.4855346 0.8017473
vn -0.4774882 -0.6026767 0.6393634
vn -0.2092224 0.3645445 0.9073771
vn -0.7220846 0.1095732 0.6830721
vn -0.7443677 0.3090263 0.5919624
vn -0.7572414 0.2371687 0.6085527
vn -0.697444 -0.09449892 0.7103815
vn -0.8481705 -0.03077834 0.5288284
vn -0.240536 0.1536352 0.9584043
vn -0.3196883 -0.5136786 0.7961994
vn -0.8767797 -0.1138031 0.4672326
vn -0.1678842 -0.2723986 0.9474249
vn 0.7609824 -0.4394961 0.4772305
vn 0.3085123 -0.6506722 0.693863
vn 0.6122276 -0.6891943 0.3875417
vn 0.6483002 -0.5242841 0.5521168
vn 0.7066762 -0.5756551 0.4113758
vn 0.7418859 -0.3868722 0.5476634
vn 0.7886377 -0.3622567 0.4968107
vn 0.5013059 0.19517 0.8429716
vn 0.4213414 0.3345374 0.8429449
vn 0.1861454 0.601135 0.7771657
vn 0.3485075 -0.4855346 0.8017473
vn 0.8017833 0.07339068 0.5930915
vn 0.8017833 0.07339068 0.5930915
vn 0.5431126 -0.5876993 0.5996984
vn -0.01046153 0.1500296 0.9886262
vn 0.4144312 -0.8382701 0.3543305
vn 0.8284104 -0.52055 0.2067945
vn 0.3935158 -0.9082204 0.1424113
vn 0.2999338 -0.8770548 0.3752529
vn 0.8283665 -0.1857813 0.528483
vn -0.5570822 0.6285169 0.5427945
vn 0.3271766 -0.9107798 0.2518641
vn 0.8283665 -0.1857813 0.528483
vn 0.8722273 -0.2425277 0.4247352
vn 0.1438678 0.907249 0.395223
vn 0.1932172 0.9696732 0.14967
vn -0.671654 0.7241788 0.1563522
vn 0.02015501 0.9600817 0.2789927
vn -0.7833179 0.350568 0.5133374
vn -0.8151486 0.4334037 0.3843097
vn -0.9815642 0.01498639 0.1905441
vn -0.6291513 0.5746779 0.5233679
vn -0.1247694 0.8214428 0.5564749
vn -0.1133914 0.9021919 0.4161636
vn -0.2351525 0.863342 0.4464793
vn -0.7953884 0.0162464 0.6058823
vn 0.1090169 0.9225148 0.3702454
vn 0.07374816 0.8630949 0.4996283
vn 0.5088508 0.757417 0.4091339
vn 0.4694649 0.6987768 0.5397348
vn 0.769551 0.4169017 0.483719
vn 0.7580437 0.3445436 0.5537683
vn 0.8362167 0.2387343 0.4937078
vn 0.7806622 0.2730407 0.5621524
vn 0.8722273 -0.2425277 0.4247352
vn 0.8283665 -0.1857813 0.528483
vn 0.8722273 -0.2425277 0.4247352
vn 0.8017833 0.07339068 0.5930915
vn 0.8284104 -0.52055 0.2067945
vn -0.7781444 0.2127388 0.5909598
vn -0.6386929 0.04936813 0.7678764
vn -0.5593771 -0.2600929 0.7870507
vn 0.4283478 -0.3376341 0.8381655
vn 0.733113 0.4572887 0.5034206
vn -0.7781444 0.2127388 0.5909598
vn 0.4659453 0.6170002 0.6341969
vn 0.1366179 0.08782975 0.9867225
vn -0.2466541 -0.03931855 0.9683056
vn 0.07550314 0.6544578 0.7523193
vn 0.4427558 0.1971208 0.874706
vn 0.6621265 -0.3183193 0.6784256
vn 0.591957 -0.3889334 0.7059162
vn 0.1760132 -0.5066893 0.8439699
vn -0.05842174 -0.540801 0.8391191
vn 0.4144605 -0.6042867 0.6804852
vn -0.1699204 -0.3665778 0.9147391
vn -0.3235613 -0.2551144 0.9111667
vn -0.4892039 0.02593483 0.8717837
vn -0.6157637 0.1718605 0.7689597
vn -0.7488511 -0.4064507 0.523469
vn -0.2466541 -0.03931855 0.9683056
vn -0.620234 -0.5351498 0.5735193
vn -0.2466541 -0.03931855 0.9683056
vn 0.6039187 0.5878001 0.5383059
vn 0.8937842 0.3018084 0.3317553
vn 0.01629995 -0.09986976 0.994867
vn -0.2466541 -0.03931855 0.9683056
vn 0.6880651 -0.4371395 0.5792024
vn -0.06032085 -0.5444412 0.8366272
vn -0.3365469 -0.3660065 0.8676264
vn -0.4402639 -0.1436069 0.8863096
vn -0.3339373 0.1684862 0.9274149
vn 0.06940498 0.7361793 0.6732184
vn 0.4292116 -0.6402644 0.6370549
vn 0.05588514 0.09684697 0.9937291
vn 0.2644936 -0.2380809 0.9345376
vn -0.6590906 0.4607308 0.5944129
vn 0.3624932 0.04792705 0.9307534
vn -0.7485634 0.2548336 0.6121377
vn 0.3028637 0.4518772 0.8390952
vn -0.3954492 0.2367296 0.8874565
vn 0.01153891 0.5646053 0.8252804
vn 0.3741136 -0.1316716 0.9179878
vn -0.3782524 -0.2799994 0.8823409
vn 0.4601659 0.453106 0.7635066
vn -0.1323568 -0.8930146 0.4301239
vn -0.3782524 -0.2799994 0.8823409
vn -0.5641244 -0.7798542 0.2712769
vn -0.3782524 -0.2799994 0.8823409
vn -0.5947811 0.02004205 0.8036379
vn -0.3782524 -0.2799994 0.8823409
vn 0.2786378 0.8615332 0.4244072
vn 0.361017 0.8335879 0.4180885
vn -0.5947811 0.02004205 0.8036379
vn 0.5672812 0.5398645 0.6218829
vn -0.01760539 0.3736399 0.9274068
vn 0.8041832 0.2942041 0.5164622
vn 0.08038804 0.4032269 0.9115624
vn -0.7987123 0.381909 0.4649777
vn 0.3110979 0.1823167 0.9327265
vn -0.1022213 -0.2680278 0.9579728
vn 0.6612378 -0.02747452 0.749673
vn -0.318229 0.05968079 0.9461334
vn -0.7906073 0.1158573 0.6012629
vn -0.7524961 -0.1039286 0.6503448
vn -0.08447322 -0.3844602 0.9192685
vn 0.6417313 -0.4260432 0.6377053
vn 0.5028815 -0.0826516 0.8603947
g fire22_mesh_0
f 3/3/3 2/2/2 1/1/1
f 6/6/6 5/5/5 4/4/4
f 8/8/8 6/6/6 7/7/7
f 9/9/9 6/6/6 8/8/8
f 10/10/10 9/9/9 8/8/8
f 9/9/9 11/11/11 6/6/6
f 6/6/6 11/11/11 12/12/12
f 12/12/12 11/11/11 13/13/13
f 14/14/14 11/11/11 9/9/9
f 14/14/14 9/9/9 10/10/10
f 15/15/15 11/11/11 14/14/14
f 16/16/16 14/14/14 10/10/10
f 15/15/15 14/14/14 16/16/16
f 17/17/17 15/15/15 16/16/16
f 18/18/18 15/15/15 17/17/17
f 18/18/18 11/11/11 15/15/15
f 19/19/19 18/18/18 17/17/17
f 20/20/20 18/18/18 19/19/19
f 11/11/11 18/18/18 21/21/21
f 22/22/22 21/21/21 19/19/19
f 23/23/23 21/21/21 22/22/22
f 24/24/24 23/23/23 22/22/22
f 25/25/25 23/23/23 24/24/24
f 26/26/26 25/25/25 24/24/24
f 27/27/27 25/25/25 26/26/26
f 28/28/28 27/27/27 26/26/26
f 25/25/25 29/29/29 23/23/23
f 27/27/27 29/29/29 25/25/25
f 30/30/30 27/27/27 28/28/28
f 31/31/31 30/30/30 28/28/28
f 32/32/32 30/30/30 31/31/31
f 33/33/33 30/30/30 32/32/32
f 27/27/27 30/30/30 34/34/34
f 34/34/34 30/30/30 33/33/33
f 27/27/27 34/34/34 29/29/29
f 35/35/35 34/34/34 33/33/33
f 36/36/36 34/34/34 35/35/35
f 36/36/36 29/29/29 34/34/34
f 37/37/37 36/36/36 35/35/35
f 38/38/38 36/36/36 37/37/37
f 38/38/38 29/29/29 36/36/36
f 39/39/39 38/38/38 37/37/37
f 40/40/40 29/29/29 38/38/38
f 40/40/40 38/38/38 39/39/39
f 23/23/23 29/29/29 40/40/40
f 41/41/41 40/40/40 39/39/39
f 23/23/23 40/40/40 41/41/41
f 42/42/42 23/23/23 41/41/41
f 21/21/21 23/23/23 42/42/42
f 44/44/44 43/43/43 42/42/42
f 46/46/46 21/21/21 45/45/45
f 11/11/11 21/21/21 46/46/46
f 47/47/47 11/11/11 46/46/46
f 48/48/48 47/47/47 46/46/46
f 48/48/48 46/46/46 49/49/49
f 50/50/50 48/48/48 49/49/49
f 51/51/51 47/47/47 48/48/48
f 51/51/51 48/48/48 50/50/50
f 52/52/52 47/47/47 51/51/51
f 47/47/47 53/53/53 11/11/11
f 54/54/54 51/51/51 50/50/50
f 55/55/55 51/51/51 54/54/54
f 56/56/56 55/55/55 54/54/54
f 57/57/57 11/11/11 53/53/53
f 13/13/13 11/11/11 57/57/57
f 13/13/13 57/57/57 58/58/58
f 58/58/58 57/57/57 59/59/59
f 57/57/57 53/53/53 59/59/59
f 60/60/60 13/13/13 58/58/58
f 61/61/61 13/13/13 60/60/60
f 62/62/62 61/61/61 60/60/60
f 59/59/59 53/53/53 63/63/63
f 53/53/53 64/64/64 63/63/63
f 53/53/53 47/47/47 64/64/64
f 64/64/64 47/47/47 65/65/65
f 64/64/64 65/65/65 66/66/66
f 67/67/67 64/64/64 66/66/66
f 68/68/68 64/64/64 67/67/67
f 66/66/66 65/65/65 69/69/69
f 65/65/65 70/70/70 69/69/69
f 65/65/65 47/47/47 70/70/70
f 69/69/69 70/70/70 71/71/71
f 70/70/70 72/72/72 71/71/71
f 70/70/70 47/47/47 72/72/72
f 71/71/71 72/72/72 73/73/73
f 72/72/72 74/74/74 73/73/73
f 72/72/72 47/47/47 74/74/74
f 73/73/73 74/74/74 75/75/75
f 74/74/74 47/47/47 76/76/76
f 74/74/74 76/76/76 75/75/75
f 75/75/75 76/76/76 77/77/77
f 76/76/76 47/47/47 78/78/78
f 76/76/76 78/78/78 79/79/79
f 81/81/81 46/46/46 80/80/80
f 84/84/84 83/83/83 82/82/82
f 85/85/85 83/83/83 84/84/84
f 83/83/83 85/85/85 86/86/86
f 87/87/87 83/83/83 86/86/86
f 90/90/90 89/89/89 88/88/88
f 91/91/91 88/88/88 89/89/89
f 91/91/91 89/89/89 92/92/92
f 92/92/92 89/89/89 93/93/93
f 93/93/93 89/89/89 94/94/94
f 94/94/94 89/89/89 95/95/95
f 89/89/89 96/96/96 95/95/95
f 96/96/96 89/89/89 97/97/97
f 89/89/89 98/98/98 97/97/97
f 98/98/98 89/89/89 99/99/99
f 100/100/100 99/99/99 89/89/89
f 101/101/101 100/100/100 89/89/89
f 102/102/102 101/101/101 89/89/89
f 102/102/102 89/89/89 103/103/103
f 102/102/102 103/103/103 104/104/104
f 106/106/106 105/105/105 88/88/88
f 106/106/106 107/107/107 105/105/105
f 105/105/105 107/107/107 108/108/108
f 109/109/109 108/108/108 104/104/104
f 107/107/107 110/110/110 108/108/108
f 108/108/108 111/111/111 104/104/104
f 108/108/108 112/112/112 111/111/111
f 108/108/108 113/113/113 112/112/112
f 113/113/113 108/108/108 114/114/114
f 108/108/108 115/115/115 114/114/114
f 110/110/110 116/116/116 108/108/108
f 116/116/116 117/117/117 108/108/108
f 116/116/116 118/118/118 117/117/117
f 119/119/119 115/115/115 108/108/108
f 119/119/119 108/108/108 117/117/117
f 118/118/118 120/120/120 117/117/117
f 121/121/121 119/119/119 117/117/117
f 120/120/120 122/122/122 117/117/117
f 121/121/121 117/117/117 123/123/123
f 117/117/117 122/122/122 124/124/124
f 117/117/117 124/124/124 123/123/123
f 127/127/127 126/126/126 125/125/125
f 125/125/125 129/129/129 128/128/128
f 128/128/128 131/131/131 130/130/130
f 130/130/130 131/131/131 132/132/132
f 134/134/134 133/133/133 127/127/127
f 135/135/135 133/133/133 134/134/134
f 136/136/136 133/133/133 135/135/135
f 139/139/139 138/138/138 137/137/137
f 140/140/140 138/138/138 139/139/139
f 141/141/141 138/138/138 140/140/140
f 138/138/138 142/142/142 137/137/137
f 143/143/143 142/142/142 138/138/138
f 137/137/137 142/142/142 144/144/144
f 145/145/145 138/138/138 141/141/141
f 138/138/138 145/145/145 143/143/143
f 146/146/146 145/145/145 141/141/141
f 143/143/143 145/145/145 146/146/146
f 147/147/147 143/143/143 146/146/146
f 148/148/148 143/143/143 147/147/147
f 149/149/149 143/143/143 148/148/148
f 144/144/144 150/150/150 149/149/149
f 142/142/142 150/150/150 144/144/144
f 143/143/143 150/150/150 142/142/142
f 150/150/150 143/143/143 149/149/149
