g fireBlue07_mesh
v 0.4099434 1.02578 -3.089479E-16
v 0.2824822 0.7984146 -0.2092964
v 0.3390258 0.904765 -3.08948E-16
v 0.3027974 1.390804 -3.089479E-16
v 0.2879836 1.442794 -0.07068765
v 0.3434516 1.316624 -3.08948E-16
v 0.2249039 1.426297 -3.08948E-16
v 0.2879836 1.442794 -0.07068765
v 0.1936473 1.473166 -0.05607849
v 0.1038371 1.360584 -3.089479E-16
v 0.1936473 1.473166 -0.05607849
v 0.08918569 1.393336 -0.05214009
v 0.0138159 1.266185 -3.08642E-16
v 0.08633672 1.554263 -0.0757557
v 0.06375533 1.658996 -3.089479E-16
v 0.06262296 1.407438 -3.08948E-16
v 0.008245163 1.265792 -0.01613763
v 0.2040531 1.531633 -1.455223E-11
v 0.2804481 1.473515 -3.08948E-16
v 0.119957 1.571834 -4.727249E-16
v 0.06375533 1.658996 -3.089479E-16
v -0.03483815 1.077805 -5.627721E-16
v 0.008245163 1.265792 -0.01613763
v -0.06042575 1.050453 -0.1687089
v 0.008245163 1.265792 -0.01613763
v 0.08918569 1.393336 -0.05214009
v 0.2879836 1.442794 -0.07068765
v 0.1936473 1.473166 -0.05607849
v 0.3238333 1.409445 -4.45484E-16
v 0.3434516 1.316624 -3.08948E-16
v 0.2879836 1.442794 -0.07068765
v 0.06262296 1.407438 -3.08948E-16
v 0.008245163 1.265792 -0.01613763
v 0.009003079 1.269213 -3.08948E-16
v -0.2467459 1.091335 -3.08948E-16
v -0.1835493 1.084638 -0.1216025
v -0.09791732 0.9986081 -0.1770544
v -0.2467459 1.091335 -3.08948E-16
v -0.2396626 0.9806983 -3.08948E-16
v -0.1573643 0.8877887 -3.08948E-16
v 0.002325364 0.8376052 -0.2703398
v -0.1259617 0.779126 -3.08948E-16
v -0.06350534 0.5680578 -0.3424458
v -0.1553371 0.63917 -3.08948E-16
v -0.06042575 1.050453 -0.1687089
v 0.189849 0.8013042 -0.27
v 0.2242094 0.6087182 -0.3355218
v 0.1832355 0.3080431 -0.3461646
v -0.1852705 0.4911984 -0.2230728
v -0.2740295 0.5650706 -3.08948E-16
v -0.09001908 0.3157075 -0.35435
v -0.241928 0.4625396 -0.2164688
v -0.3826446 0.6171737 -3.08948E-16
v -0.2899194 0.416708 -0.2301474
v -0.4009213 0.4893671 -3.08948E-16
v -0.2739764 0.3025765 -0.2336412
v -0.3928328 0.3197657 -3.08948E-16
v -0.1884331 0.1954725 -0.2259756
v -0.2692107 0.1125325 -3.08948E-16
v -0.08677302 0.1137806 -0.2364871
v -0.1063449 0.006679982 -3.08948E-16
v 0.01891484 0.1251099 -0.2730115
v 0.1104863 0.01042333 -3.08948E-16
v 0.1369627 0.1519027 -0.2687124
v 0.2158436 0.07355702 -0.1688697
v 0.2341307 0.04959971 -3.08948E-16
v 0.2807481 0.07506853 -3.08948E-16
v 0.1937601 0.1516659 -3.08948E-16
v 0.2330019 0.2191793 -3.08948E-16
v 0.2816504 0.231285 -3.08948E-16
v 0.3587815 0.2928866 -0.2354741
v 0.3364356 0.2183907 -3.08948E-16
v 0.3834281 0.2137921 -3.08948E-16
v 0.4118749 0.2460949 -3.08948E-16
v 0.4357242 0.5512516 -0.2065642
v 0.5633484 0.53855 -6.178959E-16
v 0.4278139 0.6676379 -0.2054486
v 0.5497141 0.7089356 -3.089479E-16
v 0.388431 0.7671111 -0.2005647
v 0.4828773 0.8935408 -3.08948E-16
v 0.3289014 0.8166834 -0.1906097
v 0.4099434 1.02578 -3.089479E-16
v 0.2824822 0.7984146 -0.2092964
v 0.3390258 0.904765 -3.08948E-16
v 0.1865876 0.8637684 -3.08948E-16
v 0.002325364 0.8376052 -0.2703398
v 0.04504324 0.9218571 -3.08948E-16
v -0.03483815 1.077805 -5.627721E-16
v -0.1236117 1.154933 -0.1145584
v -0.1835493 1.084638 -0.1216025
v 0.009003079 1.269213 -3.08948E-16
v 0.008245163 1.265792 -0.01613763
v -0.1800708 1.172835 -3.08948E-16
v -0.1835493 1.084638 -0.1216025
v -0.2467459 1.091335 -3.08948E-16
v 0.3520747 0.8137938 2.235174E-08
v 0.04071701 0.672964 -0.15789
v 0.1353079 0.7314723 2.235174E-08
v 0.04071701 0.672964 -0.15789
v 0.04065728 0.7389604 2.235174E-08
v 0.04071701 0.672964 -0.15789
v -0.03691565 0.8473898 -0.04555508
v -0.05584022 0.6222463 -0.01865716
v -0.03691565 0.8473898 -0.04555508
v -0.1769954 0.4973053 2.235174E-08
v -0.1342908 0.3810191 -0.1703512
v -0.3023387 0.5073328 2.235174E-08
v -0.287801 0.3375392 2.235174E-08
v -0.2131857 0.1865733 2.235174E-08
v -0.0874123 0.09400606 2.235174E-08
v 0.04416626 0.08119684 2.235174E-08
v 0.1330835 0.1028609 2.235174E-08
v 0.06955301 0.2275046 2.235174E-08
v 0.104583 0.3025193 2.235174E-08
v 0.2395593 0.3276525 2.235174E-08
v 0.1270467 0.3656759 2.235174E-08
v 0.07503916 0.4485313 2.235174E-08
v 0.06392251 0.534831 2.235174E-08
v 0.1247939 0.6423243 2.235174E-08
v 0.2929476 0.7252967 2.235174E-08
v 0.3520747 0.8137938 2.235174E-08
v -0.1712145 0.9797494 2.235174E-08
v -0.1255073 0.9956815 -0.08928542
v -0.0841493 0.916354 -0.02878733
v -0.1585754 1.035589 -0.05737083
v -0.2025098 1.039478 2.235174E-08
v -0.1276215 1.096103 -0.08729495
v -0.1598213 1.120572 2.235174E-08
v -0.1306402 1.144498 2.235174E-08
v -0.09463926 1.147482 -0.0003030919
v -0.1276215 1.096103 -0.08729495
v -0.1072165 1.05456 -0.0001298233
v -0.1276215 1.096103 -0.08729495
v -0.1255073 0.9956815 -0.08928542
v -0.09069038 0.9857426 2.235174E-08
v -0.0841493 0.916354 -0.02878733
v 0.2807481 0.07506853 -3.08948E-16
v 0.2158436 0.07355702 -0.1688697
v 0.2358503 0.09289098 -3.08948E-16
v 0.1369627 0.1519027 -0.2687124
v 0.1937601 0.1516659 -3.08948E-16
v 0.2258147 2.16012 -3.08948E-16
v 0.08286532 2.11756 -0.05113766
v 0.06907254 2.148808 -3.08948E-16
v 0.03580488 2.074978 -0.05113763
v 0.008486809 2.088505 -3.08948E-16
v 0.03580488 2.074978 -0.05113763
v -0.02128812 1.985508 -3.089479E-16
v 0.03580488 2.074978 -0.05113763
v 0.08286532 2.11756 -0.05113766
v 0.09365422 2.088067 -3.08948E-16
v 0.2258147 2.16012 -3.08948E-16
v 0.1700703 1.522834 -0.001016717
v 0.1795203 1.467672 -0.001016717
v 0.1484783 1.499878 -0.03210184
v 0.1103088 1.554459 -0.001016717
v 0.1264364 1.475639 -0.001016709
vt 0.4751992 0.2599584
vt 0.480615 0.2595001
vt 0.4785257 0.2597162
vt 0.4647486 0.2595457
vt 0.4634348 0.2594935
vt 0.4666228 0.2596889
vt 0.4638515 0.2592711
vt 0.4634348 0.2594935
vt 0.4626675 0.2591609
vt 0.4655122 0.2588445
vt 0.4626675 0.2591609
vt 0.4646847 0.258793
vt 0.467897 0.2585275
vt 0.4606182 0.2587827
vt 0.4579724 0.2587034
vt 0.4643286 0.2586994
vt 0.4679069 0.2585078
vt 0.4615756 0.2591769
vt 0.4626589 0.2594669
vt 0.4601746 0.2589014
vt 0.4579724 0.2587034
vt 0.4729782 0.2583652
vt 0.4679069 0.2585078
vt 0.4735349 0.2582713
vt 0.4679069 0.2585078
vt 0.4646847 0.258793
vt 0.4634348 0.2594935
vt 0.4626675 0.2591609
vt 0.4642775 0.2596195
vt 0.4666228 0.2596889
vt 0.4634348 0.2594935
vt 0.4643286 0.2586994
vt 0.4679069 0.2585078
vt 0.4678201 0.2585107
vt 0.4723149 0.2576094
vt 0.4724842 0.2578319
vt 0.474782 0.2581376
vt 0.4723149 0.2576094
vt 0.4751102 0.2576344
vt 0.4774577 0.2579246
vt 0.4791907 0.2585001
vt 0.4802032 0.2580352
vt 0.4855359 0.2582552
vt 0.4837391 0.2579315
vt 0.4735349 0.2582713
vt 0.4803676 0.2591684
vt 0.4846264 0.2592717
vt 0.4921054 0.2591242
vt 0.4874775 0.2578261
vt 0.4856114 0.2575134
vt 0.4919121 0.2581615
vt 0.4882019 0.2576265
vt 0.4842947 0.2571306
vt 0.4893596 0.2574574
vt 0.4875242 0.2570661
vt 0.4922435 0.2575132
vt 0.4918087 0.2570952
vt 0.4949495 0.257815
vt 0.4970447 0.2575302
vt 0.4970134 0.258173
vt 0.4997195 0.2581041
vt 0.4967272 0.2585453
vt 0.4996251 0.258868
vt 0.4960502 0.2589613
vt 0.4980299 0.2592392
vt 0.4986351 0.2593035
vt 0.4979915 0.2594678
vt 0.4960565 0.2591615
vt 0.4943505 0.2592993
vt 0.4940449 0.2594711
vt 0.4924887 0.2597429
vt 0.4943707 0.2596638
vt 0.494487 0.2598294
vt 0.4936706 0.2599297
vt 0.4860481 0.2600162
vt 0.4862874 0.2604636
vt 0.4834281 0.2599976
vt 0.4822898 0.2604245
vt 0.4812945 0.2598698
vt 0.4782315 0.2602065
vt 0.4802753 0.2596668
vt 0.4751992 0.2599584
vt 0.480615 0.2595001
vt 0.4785257 0.2597162
vt 0.4795616 0.2591792
vt 0.4791907 0.2585001
vt 0.4777834 0.2586715
vt 0.4729782 0.2583652
vt 0.4707081 0.2580434
vt 0.4724842 0.2578319
vt 0.4678201 0.2585107
vt 0.4679069 0.2585078
vt 0.4702558 0.2578443
vt 0.4724842 0.2578319
vt 0.4723149 0.2576094
vt 0.1478617 0.08899022
vt 0.1465707 0.08485877
vt 0.146963 0.08656926
vt 0.1465707 0.08485877
vt 0.1465705 0.08677389
vt 0.1465707 0.08485877
vt 0.1462488 0.08992264
vt 0.1461703 0.08339018
vt 0.1462488 0.08992264
vt 0.1456681 0.07975456
vt 0.1458451 0.0763789
vt 0.1451484 0.08005818
vt 0.1452086 0.07513212
vt 0.1455179 0.0707516
vt 0.1460394 0.06805113
vt 0.146585 0.06776825
vt 0.1469537 0.06842522
vt 0.1466903 0.07204449
vt 0.1468356 0.07418644
vt 0.1473951 0.07497095
vt 0.1469287 0.07600825
vt 0.146713 0.07837506
vt 0.1466669 0.08086404
vt 0.1469195 0.08398549
vt 0.1476165 0.08642212
vt 0.1478617 0.08899022
vt 0.1456921 0.0973849
vt 0.1458816 0.09770966
vt 0.146053 0.09598334
vt 0.1457445 0.09865848
vt 0.1455622 0.09870549
vt 0.1458728 0.09992225
vt 0.1457394 0.1004979
vt 0.1458603 0.1010266
vt 0.1460095 0.1010923
vt 0.1458728 0.09992225
vt 0.1459574 0.09903806
vt 0.1458728 0.09992225
vt 0.1458816 0.09770966
vt 0.146026 0.09751719
vt 0.146053 0.09598334
vt 0.4979915 0.2594678
vt 0.4980299 0.2592392
vt 0.4975411 0.2593095
vt 0.4960502 0.2589613
vt 0.4960565 0.2591615
vt 0.445311 0.259274
vt 0.4463863 0.2587707
vt 0.445597 0.2587218
vt 0.4474621 0.2586048
vt 0.4471202 0.2585087
vt 0.4474621 0.2586048
vt 0.4497225 0.2584038
vt 0.4474621 0.2586048
vt 0.4463863 0.2587707
vt 0.4471321 0.2588087
vt 0.445311 0.259274
vt 0.1469799 0.1091355
vt 0.1469899 0.1078991
vt 0.1468791 0.1086915
vt 0.1467506 0.1099947
vt 0.1467758 0.1082213
vn -0.2686821 -0.6618775 0.6998057
vn 0.07693711 -0.8814666 0.465937
vn 0.4180761 -0.8526354 0.3134089
vn 0.6164443 0.694503 0.3710282
vn -0.1216471 0.1751309 0.9770011
vn -0.3932396 0.3117308 0.8649778
vn -0.01394131 0.7869928 0.6168047
vn -0.1216471 0.1751309 0.9770011
vn -0.3507641 -0.01646033 0.9363192
vn -0.5117629 0.6290989 0.5850926
vn -0.3507641 -0.01646033 0.9363192
vn 0.4145897 0.3411445 0.8436444
vn -0.9140863 0.3364278 0.2264124
vn 0.6404283 -0.2051175 0.7401205
vn 0.812545 -0.1542945 0.5621065
vn 0.9292965 -0.07217439 0.3622138
vn -0.5872269 -0.4469759 0.6748164
vn -0.4384653 -0.7096407 0.5515054
vn -0.4554085 -0.7469296 0.4844575
vn -0.5696337 -0.6294005 0.528557
vn 0.812545 -0.1542945 0.5621065
vn -0.9556357 -0.2032113 0.213227
vn -0.5872269 -0.4469759 0.6748164
vn -0.7730009 -0.4119433 0.4824649
vn -0.5872269 -0.4469759 0.6748164
vn 0.4145897 0.3411445 0.8436444
vn -0.1216471 0.1751309 0.9770011
vn -0.3507641 -0.01646033 0.9363192
vn -0.9011443 -0.2946125 0.3180289
vn -0.3932396 0.3117308 0.8649778
vn -0.1216471 0.1751309 0.9770011
vn 0.9292965 -0.07217439 0.3622138
vn -0.5872269 -0.4469759 0.6748164
vn 0.5968051 -0.7127225 0.3685788
vn 0.8298495 -0.09821357 0.5492756
vn 0.7398279 -0.1275646 0.6605922
vn 0.7623957 0.1512574 0.6291851
vn 0.8298495 -0.09821357 0.5492756
vn 0.748879 0.3451309 0.5657429
vn 0.8189662 0.3160464 0.4789668
vn 0.3452619 -0.5487581 0.7613533
vn 0.9179494 -0.1031305 0.3830575
vn 0.3714871 -0.2489404 0.8944417
vn 0.8243539 -0.4385039 0.3579875
vn -0.7730009 -0.4119433 0.4824649
vn -0.1382716 -0.663332 0.7354398
vn -0.1556415 -0.1274979 0.979551
vn -0.264948 0.2218328 0.938399
vn 0.5454066 -0.6651798 0.5099681
vn 0.3497583 -0.8373423 0.4201512
vn 0.1266247 0.06583448 0.9897636
vn 0.3869982 -0.6464462 0.6575255
vn 0.4835131 -0.6352504 0.6022226
vn 0.8070322 -0.1015952 0.5817021
vn 0.8438767 -0.1287749 0.5208545
vn 0.7860432 0.3374964 0.5179116
vn 0.8516426 0.3010956 0.4290062
vn 0.6307634 0.5966298 0.4961557
vn 0.6616507 0.6246642 0.4147446
vn 0.2653304 0.8250546 0.4988834
vn 0.2598105 0.8672053 0.4247982
vn -0.009317213 0.8144191 0.5802023
vn -0.03200754 0.9338935 0.3561158
vn -0.6968891 0.4356102 0.5697274
vn -0.5825094 0.6627383 0.4705961
vn -0.1164679 0.9469896 0.2994092
vn -0.9325519 0.04668453 0.3580049
vn -0.9717495 0.07585226 0.2234933
vn -0.806269 0.5416273 0.2378449
vn -0.04173548 0.965629 0.2565514
vn -0.6395179 0.52851 0.5582957
vn 0.0107404 0.9654123 0.2605068
vn -0.3182203 0.8881227 0.331623
vn -0.8493642 0.3570331 0.3887258
vn -0.7986939 0.1676361 0.5779154
vn -0.8717555 0.2012622 0.4466944
vn -0.7577252 -0.1751128 0.6286398
vn -0.8216342 -0.1934051 0.5362011
vn -0.6513858 -0.3690706 0.6629355
vn -0.6845227 -0.3940158 0.6133352
vn -0.07683277 -0.6969893 0.7129534
vn -0.2686821 -0.6618775 0.6998057
vn 0.07693711 -0.8814666 0.465937
vn 0.4180761 -0.8526354 0.3134089
vn -0.1416576 -0.9448735 0.2952071
vn 0.3452619 -0.5487581 0.7613533
vn -0.6235877 -0.7301334 0.279363
vn -0.9556357 -0.2032113 0.213227
vn 0.3109971 -0.6624054 0.6815423
vn 0.7398279 -0.1275646 0.6605922
vn 0.5968051 -0.7127225 0.3685788
vn -0.5872269 -0.4469759 0.6748164
vn 0.5904788 -0.7122362 0.3795449
vn 0.7398279 -0.1275646 0.6605922
vn 0.8298495 -0.09821357 0.5492756
vn -0.2202347 -0.4708543 0.8542792
vn -0.06208684 -0.05713794 0.9964339
vn 0.2803453 -0.9426135 0.1813456
vn -0.06208684 -0.05713794 0.9964339
vn -0.5894966 -0.7453635 0.3113311
vn -0.06208684 -0.05713794 0.9964339
vn 0.2619963 -0.4374146 0.8602479
vn 0.8162051 -0.3941154 0.4224716
vn 0.2619963 -0.4374146 0.8602479
vn 0.520791 -0.6535006 0.5492849
vn 0.2908059 0.01057079 0.9567237
vn 0.5531658 -0.3079812 0.7740512
vn 0.7031498 0.19569 0.6835831
vn 0.4863369 0.4557785 0.7454813
vn 0.1596867 0.5230078 0.8372354
vn -0.04301812 0.4740683 0.8794365
vn -0.3261823 0.2455253 0.9128649
vn -0.7076712 -0.1821503 0.6826586
vn -0.2933573 0.6428504 0.7075909
vn -0.3742951 0.2384591 0.8961253
vn -0.3996569 -0.7356779 0.5468567
vn -0.5734199 -0.2160662 0.7902563
vn -0.7514674 0.3423224 0.5640143
vn -0.5513552 0.7136571 0.432089
vn -0.5315142 0.5009009 0.6830746
vn -0.2202347 -0.4708543 0.8542792
vn 0.6979133 0.534608 0.4765618
vn -0.657993 0.1831911 0.7304015
vn -0.1163765 0.5632173 0.8180726
vn 0.8166948 -0.09581392 0.56906
vn 0.7888463 -0.07920133 0.6094658
vn -0.4638168 -0.4185358 0.7808341
vn 0.7907799 -0.417908 0.4472362
vn 0.6332709 -0.6106182 0.4755138
vn -0.8296781 -0.2825584 0.4814509
vn -0.4638168 -0.4185358 0.7808341
vn -0.9605407 -0.05234763 0.2731693
vn -0.4638168 -0.4185358 0.7808341
vn -0.657993 0.1831911 0.7304015
vn -0.9466935 -0.1439849 0.288166
vn -0.1163765 0.5632173 0.8180726
vn -0.9325519 0.04668453 0.3580049
vn -0.5825094 0.6627383 0.4705961
vn -0.7353597 -0.6570683 0.1658538
vn -0.6968891 0.4356102 0.5697274
vn -0.9717495 0.07585226 0.2234933
vn -0.2996228 -0.1293863 0.9452435
vn -0.1632955 -0.02276842 0.9863144
vn 0.3311212 -0.7700927 0.545267
vn -0.140342 0.3416329 0.929296
vn 0.7127575 -0.4687572 0.5217695
vn -0.140342 0.3416329 0.929296
vn -0.1764902 0.568581 0.8034716
vn -0.140342 0.3416329 0.929296
vn -0.1632955 -0.02276842 0.9863144
vn -0.5193526 0.6899894 0.5041702
vn -0.2996228 -0.1293863 0.9452435
vn -0.5283201 -0.4650105 0.7103825
vn -0.4071629 0.4000588 0.8210794
vn 0.07132343 0.01435094 0.99735
vn 0.2906389 -0.3119206 0.9045632
vn 0.537944 0.4360373 0.7214484
g fireBlue07_mesh_0
f 3/3/3 2/2/2 1/1/1
f 6/6/6 5/5/5 4/4/4
f 4/4/4 8/8/8 7/7/7
f 8/8/8 9/9/9 7/7/7
f 7/7/7 11/11/11 10/10/10
f 9/9/9 12/12/12 10/10/10
f 10/10/10 12/12/12 13/13/13
f 11/11/11 14/14/14 12/12/12
f 12/12/12 14/14/14 15/15/15
f 16/16/16 12/12/12 15/15/15
f 17/17/17 12/12/12 16/16/16
f 14/14/14 11/11/11 18/18/18
f 18/18/18 11/11/11 19/19/19
f 20/20/20 14/14/14 18/18/18
f 21/21/21 14/14/14 20/20/20
f 13/13/13 23/23/23 22/22/22
f 25/25/25 24/24/24 22/22/22
f 26/26/26 25/25/25 13/13/13
f 28/28/28 27/27/27 19/19/19
f 19/19/19 27/27/27 29/29/29
f 29/29/29 31/31/31 30/30/30
f 34/34/34 33/33/33 32/32/32
f 37/37/37 36/36/36 35/35/35
f 39/39/39 37/37/37 38/38/38
f 40/40/40 37/37/37 39/39/39
f 41/41/41 37/37/37 40/40/40
f 42/42/42 41/41/41 40/40/40
f 43/43/43 41/41/41 42/42/42
f 44/44/44 43/43/43 42/42/42
f 41/41/41 45/45/45 37/37/37
f 41/41/41 43/43/43 46/46/46
f 43/43/43 47/47/47 46/46/46
f 47/47/47 43/43/43 48/48/48
f 49/49/49 43/43/43 44/44/44
f 50/50/50 49/49/49 44/44/44
f 49/49/49 51/51/51 43/43/43
f 43/43/43 51/51/51 48/48/48
f 52/52/52 51/51/51 49/49/49
f 52/52/52 49/49/49 50/50/50
f 53/53/53 52/52/52 50/50/50
f 54/54/54 52/52/52 53/53/53
f 54/54/54 51/51/51 52/52/52
f 55/55/55 54/54/54 53/53/53
f 56/56/56 54/54/54 55/55/55
f 56/56/56 51/51/51 54/54/54
f 57/57/57 56/56/56 55/55/55
f 58/58/58 56/56/56 57/57/57
f 58/58/58 51/51/51 56/56/56
f 59/59/59 58/58/58 57/57/57
f 60/60/60 58/58/58 59/59/59
f 60/60/60 51/51/51 58/58/58
f 61/61/61 60/60/60 59/59/59
f 62/62/62 60/60/60 61/61/61
f 60/60/60 62/62/62 51/51/51
f 63/63/63 62/62/62 61/61/61
f 62/62/62 64/64/64 51/51/51
f 48/48/48 51/51/51 64/64/64
f 65/65/65 62/62/62 63/63/63
f 62/62/62 65/65/65 64/64/64
f 66/66/66 65/65/65 63/63/63
f 67/67/67 65/65/65 66/66/66
f 48/48/48 64/64/64 68/68/68
f 69/69/69 48/48/48 68/68/68
f 70/70/70 48/48/48 69/69/69
f 71/71/71 48/48/48 70/70/70
f 72/72/72 71/71/71 70/70/70
f 73/73/73 71/71/71 72/72/72
f 74/74/74 71/71/71 73/73/73
f 71/71/71 47/47/47 48/48/48
f 75/75/75 71/71/71 74/74/74
f 75/75/75 47/47/47 71/71/71
f 76/76/76 75/75/75 74/74/74
f 77/77/77 75/75/75 76/76/76
f 77/77/77 47/47/47 75/75/75
f 78/78/78 77/77/77 76/76/76
f 79/79/79 77/77/77 78/78/78
f 79/79/79 47/47/47 77/77/77
f 80/80/80 79/79/79 78/78/78
f 81/81/81 79/79/79 80/80/80
f 81/81/81 47/47/47 79/79/79
f 82/82/82 81/81/81 80/80/80
f 83/83/83 81/81/81 82/82/82
f 83/83/83 47/47/47 81/81/81
f 46/46/46 47/47/47 83/83/83
f 46/46/46 83/83/83 84/84/84
f 85/85/85 46/46/46 84/84/84
f 86/86/86 46/46/46 85/85/85
f 87/87/87 86/86/86 85/85/85
f 45/45/45 86/86/86 87/87/87
f 88/88/88 45/45/45 87/87/87
f 45/45/45 17/17/17 89/89/89
f 45/45/45 89/89/89 37/37/37
f 89/89/89 90/90/90 37/37/37
f 89/89/89 92/92/92 91/91/91
f 93/93/93 89/89/89 91/91/91
f 94/94/94 89/89/89 93/93/93
f 95/95/95 94/94/94 93/93/93
f 98/98/98 97/97/97 96/96/96
f 100/100/100 99/99/99 98/98/98
f 100/100/100 102/102/102 101/101/101
f 104/104/104 103/103/103 97/97/97
f 103/103/103 105/105/105 97/97/97
f 97/97/97 105/105/105 106/106/106
f 107/107/107 106/106/106 105/105/105
f 108/108/108 106/106/106 107/107/107
f 109/109/109 106/106/106 108/108/108
f 110/110/110 106/106/106 109/109/109
f 111/111/111 106/106/106 110/110/110
f 112/112/112 106/106/106 111/111/111
f 113/113/113 106/106/106 112/112/112
f 113/113/113 114/114/114 106/106/106
f 114/114/114 115/115/115 106/106/106
f 115/115/115 116/116/116 106/106/106
f 116/116/116 117/117/117 106/106/106
f 117/117/117 118/118/118 106/106/106
f 106/106/106 118/118/118 101/101/101
f 101/101/101 118/118/118 119/119/119
f 119/119/119 120/120/120 101/101/101
f 101/101/101 120/120/120 121/121/121
f 124/124/124 123/123/123 122/122/122
f 123/123/123 125/125/125 122/122/122
f 122/122/122 125/125/125 126/126/126
f 125/125/125 123/123/123 127/127/127
f 126/126/126 125/125/125 128/128/128
f 127/127/127 129/129/129 125/125/125
f 129/129/129 128/128/128 125/125/125
f 129/129/129 131/131/131 130/130/130
f 130/130/130 133/133/133 132/132/132
f 132/132/132 133/133/133 134/134/134
f 135/135/135 132/132/132 134/134/134
f 135/135/135 134/134/134 136/136/136
f 139/139/139 138/138/138 137/137/137
f 140/140/140 138/138/138 139/139/139
f 141/141/141 140/140/140 139/139/139
f 144/144/144 143/143/143 142/142/142
f 145/145/145 143/143/143 144/144/144
f 146/146/146 145/145/145 144/144/144
f 148/148/148 147/147/147 146/146/146
f 150/150/150 149/149/149 148/148/148
f 151/151/151 150/150/150 148/148/148
f 152/152/152 150/150/150 151/151/151
f 155/155/155 154/154/154 153/153/153
f 156/156/156 155/155/155 153/153/153
f 157/157/157 154/154/154 155/155/155
f 156/156/156 157/157/157 155/155/155
