g fireBlue22_mesh
v 0.2670056 0.0726524 -3.273491E-16
v 0.1140225 0.1357984 -0.202526
v 0.1567741 0.163941 -3.273491E-16
v 0.5115746 0.2906843 -3.273491E-16
v 0.4498629 0.3608323 -0.2364053
v 0.4425511 0.4652836 -0.2131793
v 0.5115746 0.2906843 -3.273491E-16
v 0.5518911 0.4343171 -3.273491E-16
v 0.4158466 0.5512062 -0.2085415
v 0.516884 0.5548182 -3.273491E-16
v 0.2756979 0.5304614 -0.3456421
v 0.4498629 0.3608323 -0.2364053
v 0.3989524 0.3181858 -0.2434299
v 0.3952244 0.6400876 -0.2385128
v 0.3156958 0.6646122 -0.2156249
v 0.4435126 0.6774846 -3.273491E-16
v 0.3527998 0.7586516 -3.273491E-16
v 0.2185906 0.6715595 -0.2096096
v 0.2368485 0.7456502 -3.27349E-16
v 0.06675192 0.7210732 -0.1118383
v 0.06675192 0.7210732 -0.1118383
v 0.1176559 0.8006615 -3.273491E-16
v -0.0364023 0.8822743 -0.1117443
v 0.08471364 0.9499548 -3.273491E-16
v 0.04552242 1.033713 -0.1030067
v 0.1582893 1.04831 -3.273491E-16
v 0.07477048 1.130952 -0.1165719
v 0.1267511 1.132774 -3.273491E-16
v -0.02264116 0.9885352 -0.1726422
v 0.08641299 1.287922 -0.04621978
v 0.1198012 1.269481 -3.273491E-16
v 0.07516918 1.455608 -3.273491E-16
v 0.05665953 1.316534 -3.273491E-16
v 0.009077426 1.180856 -0.1218119
v 0.003289953 1.22144 -3.273491E-16
v -0.05734699 1.116938 -0.1275286
v -0.09981938 1.166037 -3.273491E-16
v -0.1183427 1.017456 -0.1251956
v -0.2220265 0.9475033 -3.27349E-16
v -0.1480235 0.9056126 -0.1366476
v -0.3103374 0.7565888 -3.273491E-16
v -0.1547753 0.7576529 -9.820475E-16
v 0.06675192 0.7210732 -0.1118383
v -0.03562088 0.6827007 -3.273491E-16
v -0.03562088 0.6827007 -3.273491E-16
v 0.007933179 0.5220926 -0.27
v -0.08006813 0.2831808 -0.3456421
v -0.1160081 0.4009896 -0.27
v -0.02281984 0.5339872 -3.273491E-16
v -0.1268281 0.4323609 -3.273491E-16
v -0.2411686 0.3970982 -0.2477351
v -0.2839449 0.3280695 -0.2289227
v 0.1688638 0.3228201 -0.234153
v -0.2804891 0.4492644 -3.273491E-16
v -0.2839449 0.3280695 -0.2289227
v -0.3782906 0.367473 -3.273491E-16
v 0.3081119 0.356868 -0.2288509
v 0.324687 0.3134851 -3.273491E-16
v 0.1987369 0.3166737 -3.273491E-16
v 0.4179166 0.2477506 -9.820474E-16
v 0.4498629 0.3608323 -0.2364053
v 0.5115746 0.2906843 -3.273491E-16
v 0.1567741 0.163941 -3.273491E-16
v 0.1140225 0.1357984 -0.202526
v -0.01281989 0.1040481 -0.2228211
v 0.004165162 0.009424776 -3.273491E-16
v 0.1707758 0.03837451 -3.273491E-16
v 0.2670056 0.0726524 -3.273491E-16
v -0.1416235 0.01173621 -3.273491E-16
v -0.1092084 0.1036534 -0.219248
v -0.2521385 0.05321714 -3.273491E-16
v -0.2017139 0.1139863 -0.2335982
v -0.339189 0.1267723 -3.273491E-16
v -0.2260569 0.1873229 -0.2025775
v -0.3843851 0.2250649 -3.273491E-16
v -0.2541805 0.2514111 -0.2022228
v -0.3782906 0.367473 -3.273491E-16
v -0.2839449 0.3280695 -0.2289227
v -0.3782906 0.367473 -3.273491E-16
v -0.03562088 0.6827007 -3.273491E-16
v -0.02281984 0.5339872 -3.273491E-16
v 0.06384671 1.664648 -0.002700665
v 0.050567 1.697594 -0.0320469
v 0.06113371 1.763672 -0.002700665
v 0.03129093 1.72569 -0.01087819
v 0.0355553 1.693855 -0.006789429
v 0.050567 1.697594 -0.0320469
v 0.06384671 1.664648 -0.002700665
v 0.1629379 0.5142067 -0.1249027
v -0.09568678 0.3256415 2.235174E-08
v 0.06893682 0.4551814 2.235174E-08
v 0.1629379 0.5142067 -0.1249027
v 0.07099517 0.6561847 2.235174E-08
v 0.02995224 0.7791941 -0.07360394
v 0.00815316 0.7651379 2.235174E-08
v -0.0850672 0.8080437 2.235174E-08
v -0.07703859 0.9417224 -0.1065548
v -0.1451634 0.8270936 2.235174E-08
v -0.2374302 0.8291526 2.235174E-08
v -0.1865555 0.9410168 2.235174E-08
v -0.1209347 1.06831 2.235174E-08
v -0.07881841 1.118588 2.235174E-08
v -0.04713762 1.103825 2.235174E-08
v -0.006188387 1.110307 2.235174E-08
v 0.04152016 1.152658 2.235174E-08
v 0.09641504 1.102302 2.235174E-08
v 0.118657 1.051317 2.235174E-08
v 0.05310106 0.9312424 2.235174E-08
v 0.05231331 0.7950577 2.235174E-08
v 0.02995224 0.7791941 -0.07360394
v 0.1262864 0.7064495 2.235174E-08
v 0.2087542 0.7010649 2.235175E-08
v 0.2957292 0.6881885 2.235174E-08
v 0.4113922 0.5233778 2.235174E-08
v 0.4271642 0.3503855 2.235174E-08
v 0.2460008 0.3921552 2.235174E-08
v 0.1493766 0.3616423 2.235174E-08
v -0.02560282 0.2163666 -0.110802
v 0.07987507 0.2124682 2.235174E-08
v -0.09568678 0.3256415 2.235174E-08
v 0.1550952 0.1028399 2.235174E-08
v -0.2846237 0.3635405 2.235174E-08
v 0.04233212 0.05301943 2.235174E-08
v -0.3134414 0.2416171 2.235174E-08
v -0.2200854 0.1409661 2.235174E-08
v -0.4067263 1.723796 0
v -0.3122411 1.6916 -0.04312427
v -0.3856121 1.693448 0
v -0.3580215 1.719157 0
v -0.3122411 1.6916 -0.04312427
v -0.3074881 1.703163 0
v -0.3122411 1.6916 -0.04312427
v -0.2555909 1.643615 0
v -0.3122411 1.6916 -0.04312427
v -0.3407638 1.679581 0
v -0.3052489 1.666943 0
v -0.2555909 1.643615 0
v 0.02773562 1.64065 -3.555978E-16
v 0.08397411 1.610796 -0.04741709
v 0.06447641 1.587234 -2.666982E-16
v 0.07524914 1.505341 -2.222487E-16
v 0.09884773 1.579482 -2.000238E-16
v 0.0487529 1.671962 -0.0434934
v 0.08853883 1.799605 -0.0484935
v -0.03855102 1.680356 -5.333967E-16
v 0.1114471 1.663198 -0.06184583
v 0.1404135 1.653511 -1.889113E-16
v 0.1544976 1.758113 -1.833551E-16
v 0.09639776 1.913829 -1.805772E-16
v 0.02544792 1.792085 -5.333967E-16
v 0.002104079 1.699905 -0.0434934
vt 0.4980529 0.2594192
vt 0.4964569 0.2588804
vt 0.4957461 0.2590311
vt 0.4925438 0.2602807
vt 0.4907717 0.2600636
vt 0.4881326 0.2600378
vt 0.4925438 0.2602807
vt 0.488915 0.2604232
vt 0.4859618 0.2599437
vt 0.4858704 0.2602994
vt 0.4864859 0.2594497
vt 0.4907717 0.2600636
vt 0.4918492 0.2598842
vt 0.483716 0.259871
vt 0.4830967 0.2595911
vt 0.4827712 0.2600412
vt 0.4807203 0.2597215
vt 0.4829209 0.2592487
vt 0.4810487 0.2593131
vt 0.48167 0.2587137
vt 0.48167 0.2587137
vt 0.479659 0.2588933
vt 0.4773748 0.2583694
vt 0.4758871 0.2587771
vt 0.473771 0.258639
vt 0.4734016 0.2590362
vt 0.4713141 0.2587421
vt 0.4712677 0.2589252
vt 0.4749066 0.2583995
vt 0.4673479 0.2587831
vt 0.467814 0.2589008
vt 0.4631115 0.2587436
vt 0.4666251 0.2586784
vt 0.4700533 0.2585108
vt 0.4690276 0.2584904
vt 0.4716679 0.2582768
vt 0.4704276 0.2581271
vt 0.4740136 0.2580763
vt 0.4751186 0.2577672
vt 0.4764796 0.2580022
vt 0.479198 0.2575188
vt 0.4797033 0.258022
vt 0.48167 0.2587137
vt 0.4824866 0.2583661
vt 0.4824866 0.2583661
vt 0.486697 0.2585068
vt 0.4927338 0.2581966
vt 0.4897572 0.2580699
vt 0.486397 0.2583983
vt 0.4889646 0.2580321
vt 0.4898553 0.257629
vt 0.4915993 0.2574785
vt 0.4917319 0.2590735
vt 0.4885374 0.2574906
vt 0.4915993 0.2574785
vt 0.4906034 0.2571459
vt 0.4908719 0.2595643
vt 0.491968 0.2596226
vt 0.4918872 0.2591788
vt 0.4936289 0.2599509
vt 0.4907717 0.2600636
vt 0.4925438 0.2602807
vt 0.4957461 0.2590311
vt 0.4964569 0.2588804
vt 0.4972599 0.2584337
vt 0.4996501 0.2584933
vt 0.4989187 0.2590804
vt 0.4980529 0.2594192
vt 0.4995914 0.25798
vt 0.4972695 0.2580942
vt 0.4985439 0.2575903
vt 0.4970083 0.257768
vt 0.4966851 0.2572837
vt 0.4951554 0.2576823
vt 0.4942023 0.2571245
vt 0.4935357 0.2575831
vt 0.4906034 0.2571459
vt 0.4915993 0.2574785
vt 0.4906034 0.2571459
vt 0.4824866 0.2583661
vt 0.486397 0.2583983
vt 0.1468273 0.1117354
vt 0.1467526 0.1127254
vt 0.146812 0.1147118
vt 0.1466438 0.1135703
vt 0.1466678 0.1126132
vt 0.1467526 0.1127254
vt 0.1468273 0.1117354
vt 0.1470775 0.08053908
vt 0.1460053 0.07506252
vt 0.1466877 0.07881953
vt 0.1470775 0.08053908
vt 0.1466962 0.08465102
vt 0.1465553 0.08843798
vt 0.1464842 0.08817371
vt 0.1461749 0.0899991
vt 0.1461695 0.09358715
vt 0.1458646 0.09055612
vt 0.1454062 0.09068537
vt 0.1456787 0.09377684
vt 0.1458957 0.09707922
vt 0.1459556 0.09842673
vt 0.1461383 0.09787876
vt 0.1463772 0.09784047
vt 0.146574 0.0990646
vt 0.1468016 0.0976001
vt 0.1468939 0.09612153
vt 0.1466262 0.0926664
vt 0.1466218 0.08870592
vt 0.1465553 0.08843798
vt 0.1469255 0.08611769
vt 0.1472674 0.08596116
vt 0.147628 0.08559557
vt 0.1481075 0.08102028
vt 0.148173 0.07645689
vt 0.1474219 0.07703016
vt 0.1470212 0.07612024
vt 0.1462957 0.07188722
vt 0.146733 0.07179725
vt 0.1460053 0.07506252
vt 0.1470449 0.0686121
vt 0.1451095 0.07604913
vt 0.1465774 0.06714528
vt 0.14499 0.07254884
vt 0.1453771 0.06962207
vt 0.4563353 0.2570457
vt 0.4571486 0.2573788
vt 0.4571021 0.2571203
vt 0.4564524 0.2572175
vt 0.4571486 0.2573788
vt 0.4568566 0.2573953
vt 0.4571486 0.2573788
vt 0.458361 0.2575783
vt 0.4571486 0.2573788
vt 0.4574521 0.257278
vt 0.4577716 0.2574034
vt 0.458361 0.2575783
vt 0.4584361 0.2585764
vt 0.4591902 0.2587748
vt 0.4597857 0.2587059
vt 0.461855 0.2587438
vt 0.4599817 0.2588269
vt 0.4576448 0.2586503
vt 0.4544196 0.2587905
vt 0.4574327 0.258343
vt 0.457866 0.2588713
vt 0.4581111 0.2589734
vt 0.4554681 0.259023
vt 0.4515338 0.2588183
vt 0.4546098 0.2585683
vt 0.4569389 0.2584862
vn -0.7953884 0.0162464 0.6058823
vn -0.6291513 0.5746779 0.5233679
vn -0.9815642 0.01498639 0.1905441
vn -0.8151486 0.4334037 0.3843097
vn -0.7833179 0.350568 0.5133374
vn -0.8652328 -0.118445 0.4871788
vn -0.8151486 0.4334037 0.3843097
vn -0.9164771 -0.0577611 0.3958955
vn -0.8500269 -0.2713971 0.4514397
vn -0.8756524 -0.3050901 0.37437
vn -0.05730206 -0.1887799 0.9803462
vn -0.7833179 0.350568 0.5133374
vn 0.03075757 0.8922669 0.4504595
vn -0.6794667 -0.56476 0.4683707
vn -0.1821988 -0.8739496 0.4505726
vn -0.7239122 -0.5984766 0.3431864
vn -0.2257136 -0.9066733 0.3563662
vn 0.04967204 -0.8319347 0.5526458
vn -0.07187348 -0.9077066 0.4134041
vn 0.3485075 -0.4855346 0.8017473
vn 0.3485075 -0.4855346 0.8017473
vn -0.4774882 -0.6026767 0.6393634
vn -0.2092224 0.3645445 0.9073771
vn -0.7220846 0.1095732 0.6830721
vn -0.7443677 0.3090263 0.5919624
vn -0.7572414 0.2371687 0.6085527
vn -0.697444 -0.09449892 0.7103815
vn -0.8481705 -0.03077834 0.5288284
vn -0.240536 0.1536352 0.9584043
vn -0.3196883 -0.5136786 0.7961994
vn -0.8767797 -0.1138031 0.4672326
vn -0.1678842 -0.2723986 0.9474249
vn 0.7609824 -0.4394961 0.4772305
vn 0.3085123 -0.6506722 0.693863
vn 0.6122276 -0.6891943 0.3875417
vn 0.6483002 -0.5242841 0.5521168
vn 0.7066762 -0.5756551 0.4113758
vn 0.7418859 -0.3868722 0.5476634
vn 0.7886377 -0.3622567 0.4968107
vn 0.5013059 0.19517 0.8429716
vn 0.4213414 0.3345374 0.8429449
vn 0.1861454 0.601135 0.7771657
vn 0.3485075 -0.4855346 0.8017473
vn 0.8017833 0.07339068 0.5930915
vn 0.8017833 0.07339068 0.5930915
vn 0.5431126 -0.5876993 0.5996984
vn -0.01046153 0.1500296 0.9886262
vn 0.4144312 -0.8382701 0.3543305
vn 0.8284104 -0.52055 0.2067945
vn 0.3935158 -0.9082204 0.1424113
vn 0.2999338 -0.8770548 0.3752529
vn 0.8283665 -0.1857813 0.528483
vn -0.5570822 0.6285169 0.5427945
vn 0.3271766 -0.9107798 0.2518641
vn 0.8283665 -0.1857813 0.528483
vn 0.8722273 -0.2425277 0.4247352
vn 0.1438678 0.907249 0.395223
vn 0.1932172 0.9696732 0.14967
vn -0.671654 0.7241788 0.1563522
vn 0.02015501 0.9600817 0.2789927
vn -0.7833179 0.350568 0.5133374
vn -0.8151486 0.4334037 0.3843097
vn -0.9815642 0.01498639 0.1905441
vn -0.6291513 0.5746779 0.5233679
vn -0.1247694 0.8214428 0.5564749
vn -0.1133914 0.9021919 0.4161636
vn -0.2351525 0.863342 0.4464793
vn -0.7953884 0.0162464 0.6058823
vn 0.1090169 0.9225148 0.3702454
vn 0.07374816 0.8630949 0.4996283
vn 0.5088508 0.757417 0.4091339
vn 0.4694649 0.6987768 0.5397348
vn 0.769551 0.4169017 0.483719
vn 0.7580437 0.3445436 0.5537683
vn 0.8362167 0.2387343 0.4937078
vn 0.7806622 0.2730407 0.5621524
vn 0.8722273 -0.2425277 0.4247352
vn 0.8283665 -0.1857813 0.528483
vn 0.8722273 -0.2425277 0.4247352
vn 0.8017833 0.07339068 0.5930915
vn 0.8284104 -0.52055 0.2067945
vn -0.7781444 0.2127388 0.5909598
vn -0.6386929 0.04936813 0.7678764
vn -0.5593771 -0.2600929 0.7870507
vn 0.4283478 -0.3376341 0.8381655
vn 0.733113 0.4572887 0.5034206
vn -0.6386929 0.04936813 0.7678764
vn -0.7781444 0.2127388 0.5909598
vn 0.01629995 -0.09986976 0.994867
vn 0.4292116 -0.6402644 0.6370549
vn 0.6880651 -0.4371395 0.5792024
vn 0.01629995 -0.09986976 0.994867
vn 0.8937842 0.3018084 0.3317553
vn -0.2466541 -0.03931855 0.9683056
vn 0.6039187 0.5878001 0.5383059
vn 0.4659453 0.6170002 0.6341969
vn 0.1366179 0.08782975 0.9867225
vn 0.07550314 0.6544578 0.7523193
vn 0.4427558 0.1971208 0.874706
vn 0.6621265 -0.3183193 0.6784256
vn 0.591957 -0.3889334 0.7059162
vn 0.1760132 -0.5066893 0.8439699
vn -0.05842174 -0.540801 0.8391191
vn 0.4144605 -0.6042867 0.6804852
vn -0.1699204 -0.3665778 0.9147391
vn -0.3235613 -0.2551144 0.9111667
vn -0.4892039 0.02593483 0.8717837
vn -0.6157637 0.1718605 0.7689597
vn -0.7488511 -0.4064507 0.523469
vn -0.2466541 -0.03931855 0.9683056
vn -0.620234 -0.5351498 0.5735194
vn -0.06032085 -0.5444412 0.8366272
vn -0.3365469 -0.3660065 0.8676264
vn -0.4402639 -0.1436069 0.8863096
vn -0.3339373 0.1684862 0.9274149
vn 0.06940498 0.7361793 0.6732184
vn -0.6590906 0.4607308 0.5944129
vn 0.05588514 0.09684698 0.9937291
vn -0.7485634 0.2548336 0.6121377
vn 0.4292116 -0.6402644 0.6370549
vn -0.3954492 0.2367296 0.8874565
vn 0.2644936 -0.2380809 0.9345376
vn 0.01153891 0.5646053 0.8252804
vn 0.3624932 0.04792705 0.9307534
vn 0.3028637 0.4518772 0.8390952
vn 0.3741136 -0.1316716 0.9179878
vn -0.3782524 -0.2799994 0.8823409
vn 0.4601659 0.453106 0.7635066
vn -0.1323568 -0.8930146 0.4301239
vn -0.3782524 -0.2799994 0.8823409
vn -0.5641244 -0.7798542 0.2712769
vn -0.3782524 -0.2799994 0.8823409
vn -0.5947811 0.02004205 0.8036379
vn -0.3782524 -0.2799994 0.8823409
vn 0.2786378 0.8615332 0.4244072
vn 0.361017 0.8335879 0.4180885
vn -0.5947811 0.02004205 0.8036379
vn 0.5672812 0.5398645 0.6218829
vn -0.01760539 0.3736399 0.9274068
vn 0.8041832 0.2942041 0.5164622
vn 0.08038804 0.4032269 0.9115624
vn -0.7987123 0.381909 0.4649777
vn 0.3110979 0.1823167 0.9327265
vn -0.1022213 -0.2680278 0.9579728
vn 0.6612378 -0.02747452 0.749673
vn -0.318229 0.05968079 0.9461334
vn -0.7906073 0.1158573 0.6012629
vn -0.7524961 -0.1039286 0.6503448
vn -0.08447322 -0.3844602 0.9192685
vn 0.6417313 -0.4260432 0.6377053
vn 0.5028815 -0.08265158 0.8603947
g fireBlue22_mesh_0
f 3/3/3 2/2/2 1/1/1
f 6/6/6 5/5/5 4/4/4
f 8/8/8 6/6/6 7/7/7
f 9/9/9 6/6/6 8/8/8
f 10/10/10 9/9/9 8/8/8
f 9/9/9 11/11/11 6/6/6
f 6/6/6 11/11/11 12/12/12
f 12/12/12 11/11/11 13/13/13
f 14/14/14 11/11/11 9/9/9
f 14/14/14 9/9/9 10/10/10
f 15/15/15 11/11/11 14/14/14
f 16/16/16 14/14/14 10/10/10
f 15/15/15 14/14/14 16/16/16
f 17/17/17 15/15/15 16/16/16
f 18/18/18 15/15/15 17/17/17
f 18/18/18 11/11/11 15/15/15
f 19/19/19 18/18/18 17/17/17
f 20/20/20 18/18/18 19/19/19
f 11/11/11 18/18/18 21/21/21
f 22/22/22 21/21/21 19/19/19
f 23/23/23 21/21/21 22/22/22
f 24/24/24 23/23/23 22/22/22
f 25/25/25 23/23/23 24/24/24
f 26/26/26 25/25/25 24/24/24
f 27/27/27 25/25/25 26/26/26
f 28/28/28 27/27/27 26/26/26
f 25/25/25 29/29/29 23/23/23
f 27/27/27 29/29/29 25/25/25
f 30/30/30 27/27/27 28/28/28
f 31/31/31 30/30/30 28/28/28
f 32/32/32 30/30/30 31/31/31
f 33/33/33 30/30/30 32/32/32
f 27/27/27 30/30/30 34/34/34
f 34/34/34 30/30/30 33/33/33
f 27/27/27 34/34/34 29/29/29
f 35/35/35 34/34/34 33/33/33
f 36/36/36 34/34/34 35/35/35
f 36/36/36 29/29/29 34/34/34
f 37/37/37 36/36/36 35/35/35
f 38/38/38 36/36/36 37/37/37
f 38/38/38 29/29/29 36/36/36
f 39/39/39 38/38/38 37/37/37
f 40/40/40 29/29/29 38/38/38
f 40/40/40 38/38/38 39/39/39
f 23/23/23 29/29/29 40/40/40
f 41/41/41 40/40/40 39/39/39
f 23/23/23 40/40/40 41/41/41
f 42/42/42 23/23/23 41/41/41
f 21/21/21 23/23/23 42/42/42
f 44/44/44 43/43/43 42/42/42
f 46/46/46 21/21/21 45/45/45
f 11/11/11 21/21/21 46/46/46
f 47/47/47 11/11/11 46/46/46
f 48/48/48 47/47/47 46/46/46
f 48/48/48 46/46/46 49/49/49
f 50/50/50 48/48/48 49/49/49
f 51/51/51 47/47/47 48/48/48
f 51/51/51 48/48/48 50/50/50
f 52/52/52 47/47/47 51/51/51
f 47/47/47 53/53/53 11/11/11
f 54/54/54 51/51/51 50/50/50
f 55/55/55 51/51/51 54/54/54
f 56/56/56 55/55/55 54/54/54
f 57/57/57 11/11/11 53/53/53
f 13/13/13 11/11/11 57/57/57
f 13/13/13 57/57/57 58/58/58
f 58/58/58 57/57/57 59/59/59
f 57/57/57 53/53/53 59/59/59
f 60/60/60 13/13/13 58/58/58
f 61/61/61 13/13/13 60/60/60
f 62/62/62 61/61/61 60/60/60
f 59/59/59 53/53/53 63/63/63
f 53/53/53 64/64/64 63/63/63
f 53/53/53 47/47/47 64/64/64
f 64/64/64 47/47/47 65/65/65
f 64/64/64 65/65/65 66/66/66
f 67/67/67 64/64/64 66/66/66
f 68/68/68 64/64/64 67/67/67
f 66/66/66 65/65/65 69/69/69
f 65/65/65 70/70/70 69/69/69
f 65/65/65 47/47/47 70/70/70
f 69/69/69 70/70/70 71/71/71
f 70/70/70 72/72/72 71/71/71
f 70/70/70 47/47/47 72/72/72
f 71/71/71 72/72/72 73/73/73
f 72/72/72 74/74/74 73/73/73
f 72/72/72 47/47/47 74/74/74
f 73/73/73 74/74/74 75/75/75
f 74/74/74 47/47/47 76/76/76
f 74/74/74 76/76/76 75/75/75
f 75/75/75 76/76/76 77/77/77
f 76/76/76 47/47/47 78/78/78
f 76/76/76 78/78/78 79/79/79
f 81/81/81 46/46/46 80/80/80
f 84/84/84 83/83/83 82/82/82
f 85/85/85 83/83/83 84/84/84
f 87/87/87 85/85/85 86/86/86
f 88/88/88 87/87/87 86/86/86
f 91/91/91 90/90/90 89/89/89
f 93/93/93 91/91/91 92/92/92
f 94/94/94 93/93/93 89/89/89
f 95/95/95 93/93/93 94/94/94
f 95/95/95 94/94/94 96/96/96
f 94/94/94 97/97/97 96/96/96
f 98/98/98 96/96/96 97/97/97
f 98/98/98 97/97/97 99/99/99
f 99/99/99 97/97/97 100/100/100
f 100/100/100 97/97/97 101/101/101
f 101/101/101 97/97/97 102/102/102
f 97/97/97 103/103/103 102/102/102
f 103/103/103 97/97/97 104/104/104
f 97/97/97 105/105/105 104/104/104
f 105/105/105 97/97/97 106/106/106
f 107/107/107 106/106/106 97/97/97
f 108/108/108 107/107/107 97/97/97
f 109/109/109 108/108/108 97/97/97
f 109/109/109 97/97/97 110/110/110
f 109/109/109 110/110/110 111/111/111
f 110/110/110 92/92/92 111/111/111
f 92/92/92 112/112/112 111/111/111
f 92/92/92 113/113/113 112/112/112
f 92/92/92 114/114/114 113/113/113
f 114/114/114 92/92/92 115/115/115
f 92/92/92 116/116/116 115/115/115
f 117/117/117 116/116/116 92/92/92
f 117/117/117 92/92/92 118/118/118
f 119/119/119 117/117/117 118/118/118
f 120/120/120 118/118/118 92/92/92
f 119/119/119 118/118/118 121/121/121
f 120/120/120 122/122/122 118/118/118
f 118/118/118 123/123/123 121/121/121
f 122/122/122 124/124/124 118/118/118
f 118/118/118 125/125/125 123/123/123
f 124/124/124 125/125/125 118/118/118
f 128/128/128 127/127/127 126/126/126
f 126/126/126 130/130/130 129/129/129
f 129/129/129 132/132/132 131/131/131
f 131/131/131 132/132/132 133/133/133
f 135/135/135 134/134/134 128/128/128
f 136/136/136 134/134/134 135/135/135
f 137/137/137 134/134/134 136/136/136
f 140/140/140 139/139/139 138/138/138
f 141/141/141 139/139/139 140/140/140
f 142/142/142 139/139/139 141/141/141
f 139/139/139 143/143/143 138/138/138
f 144/144/144 143/143/143 139/139/139
f 138/138/138 143/143/143 145/145/145
f 146/146/146 139/139/139 142/142/142
f 139/139/139 146/146/146 144/144/144
f 147/147/147 146/146/146 142/142/142
f 144/144/144 146/146/146 147/147/147
f 148/148/148 144/144/144 147/147/147
f 149/149/149 144/144/144 148/148/148
f 150/150/150 144/144/144 149/149/149
f 145/145/145 151/151/151 150/150/150
f 143/143/143 151/151/151 145/145/145
f 144/144/144 151/151/151 143/143/143
f 151/151/151 144/144/144 150/150/150
