g fireBlue18_mesh
v 0.05592149 1.090564 2.235174E-08
v 0.02199718 1.164643 -0.05853632
v 0.02348766 1.298735 2.235174E-08
v -0.04019697 1.208484 -0.005560063
v -0.005410107 1.212584 -0.01112015
v 0.02199718 1.164643 -0.05853632
v 0.02199718 1.164643 -0.05853632
v 0.05592149 1.090564 2.235174E-08
v 0.02348766 1.298735 2.235174E-08
v 0.09143472 0.8865298 2.235174E-08
v 0.06785556 1.029785 2.235174E-08
v 0.1134994 0.9061753 -0.07976779
v 0.1566426 0.6788555 -0.0851756
v 0.07106286 0.6820104 2.235174E-08
v -0.09901515 0.3668323 -0.0851756
v 0.1847074 0.4385185 2.235174E-08
v -0.02773125 0.5650609 2.235174E-08
v -0.1752349 0.5172538 2.235174E-08
v -0.3190038 0.5828179 2.235174E-08
v -0.3467066 0.4401043 2.235174E-08
v -0.3163152 0.275579 2.235174E-08
v -0.2137518 0.1380115 2.235174E-08
v -0.1072253 0.1879458 2.235174E-08
v 0.02593284 0.1513274 2.235174E-08
v 0.1441107 0.034814 2.235174E-08
v 0.2869631 0.05971226 2.235174E-08
v 0.3860081 0.1343198 2.235174E-08
v 0.1967118 0.2739182 2.235174E-08
v 0.2447469 0.5587417 2.235174E-08
v 0.378405 0.6055191 2.235174E-08
v 0.4245869 0.7095697 2.235174E-08
v 0.3476282 0.8376372 2.235174E-08
v 0.2113632 0.9445363 2.235174E-08
v 0.1371645 0.9376417 2.235174E-08
v 0.1134994 0.9061753 -0.07976779
v 0.06785556 1.029785 2.235174E-08
v -0.05169002 1.253796 -3.464869E-16
v 0.01581653 1.175477 -0.08376037
v -0.1391313 1.283506 -3.464868E-16
v -0.01231565 1.485613 -6.929737E-16
v 0.0683489 1.329223 -3.464869E-16
v 0.08104973 1.213445 -6.929738E-16
v 0.1068477 1.113565 -3.464869E-16
v 0.0678899 1.058854 -0.1008834
v 0.1946897 1.030102 -3.464869E-16
v 0.2201946 0.9507338 -0.2094445
v 0.3149512 0.9856168 -3.464869E-16
v 0.3244906 0.9012883 -0.2260349
v 0.4455419 0.8910605 -3.464869E-16
v 0.2512054 0.8298603 -0.3052696
v 0.07253763 0.8320816 -0.210865
v 0.3989284 0.8283823 -0.228311
v 0.5196744 0.7259831 -3.464869E-16
v 0.001699053 1.059826 -3.464869E-16
v 0.4323905 0.7261787 -0.2209008
v 0.5485223 0.5185778 -3.464869E-16
v 0.4234256 0.634307 -0.2191435
v 0.4294997 0.4941629 -3.464869E-16
v 0.3359958 0.5837273 -0.2325995
v 0.3532031 0.3965034 -3.464869E-16
v 0.2296839 0.4382727 -0.2480243
v 0.3617979 0.2693496 -3.464868E-16
v 0.01816905 0.864186 -3.464869E-16
v 0.008488823 0.6354373 -0.2291598
v -0.06097547 0.7043155 -3.464869E-16
v 0.02599528 0.3749392 -0.3673724
v 0.2461557 0.3267165 -0.249149
v 0.2772621 0.2076807 -0.2083401
v -0.3130122 0.4321138 -0.2084765
v -0.3345231 0.5723799 -0.08288875
v -0.2585141 0.6443883 -3.464868E-16
v -0.3788702 0.7322637 -3.464869E-16
v -0.4106037 0.5622211 -3.464869E-16
v -0.4400897 0.4536344 -3.464868E-16
v -0.2526603 0.3102336 -0.204052
v -0.4108472 0.2902406 -3.464869E-16
v -0.2321861 0.1922069 -0.2289344
v -0.3303939 0.1225685 -3.464868E-16
v -0.129425 0.1744957 -0.2111878
v -0.1998029 0.04219207 -3.464869E-16
v -0.04071683 0.1696416 -0.2043267
v -0.09597204 0.07762006 -3.464869E-16
v -0.02507622 0.05887514 -3.464868E-16
v 0.04833477 0.10172 -0.2336815
v 0.05028031 -0.01334155 -3.464869E-16
v 0.1946633 0.09329009 -0.2140976
v 0.2375126 -0.02347445 -3.464868E-16
v 0.3493458 0.006937981 -3.464868E-16
v 0.4458236 0.08209866 -3.464869E-16
v 0.5027444 0.1889768 -3.464869E-16
v 0.2772621 0.2076807 -0.2083401
v -0.1391313 1.283506 -3.464868E-16
v -0.04380989 1.16225 -3.464869E-16
v 0.0678899 1.058854 -0.1008834
v -0.3005363 1.501176 -0.0121777
v -0.2993048 1.475806 -0.03524643
v -0.3377296 1.534429 -0.0121777
v -0.2776292 1.467432 -0.0121777
v -0.2993048 1.475806 -0.03524643
v -0.2582936 1.410903 -0.01400851
v -0.2914227 1.436396 -0.0121777
v -0.3263992 1.485659 -0.0121777
v -0.2993048 1.475806 -0.03524643
v -0.3101425 1.457579 -0.0121777
v -0.4095381 1.654682 0
v -0.3166201 1.504278 -0.06272405
v -0.3783875 1.512369 0
v -0.2964496 1.560004 0
v -0.3327125 1.441287 0
v -0.261955 1.503163 0
v -0.2085232 1.355325 0
vt 0.1466337 0.0998345
vt 0.1464932 0.101472
vt 0.1464992 0.1044358
vt 0.1462352 0.1024409
vt 0.1463795 0.1025318
vt 0.1464932 0.101472
vt 0.1464932 0.101472
vt 0.1466337 0.0998345
vt 0.1464992 0.1044358
vt 0.1467811 0.09128813
vt 0.1466832 0.09544554
vt 0.1468725 0.09185741
vt 0.1470513 0.08526065
vt 0.1466964 0.08535623
vt 0.1459914 0.07624545
vt 0.1471677 0.07828683
vt 0.146287 0.08197366
vt 0.1456754 0.08060874
vt 0.1450793 0.08253141
vt 0.1449644 0.07843871
vt 0.1450905 0.07448199
vt 0.1455155 0.07048347
vt 0.1459574 0.07122341
vt 0.1465094 0.07013367
vt 0.1469994 0.06674288
vt 0.1475916 0.06729315
vt 0.1480024 0.06946881
vt 0.1472175 0.07351153
vt 0.1474167 0.08177831
vt 0.1479709 0.0831667
vt 0.1481623 0.08618673
vt 0.1478432 0.08988347
vt 0.1472782 0.09297
vt 0.1469705 0.09276932
vt 0.1468725 0.09185741
vt 0.1466832 0.09544554
vt 0.4682101 0.2582966
vt 0.4701892 0.2585342
vt 0.4674595 0.2579887
vt 0.4623531 0.2584357
vt 0.4663044 0.2587194
vt 0.4692296 0.2587643
vt 0.4717532 0.2588553
vt 0.4731359 0.2587179
vt 0.4738617 0.2591645
vt 0.4758674 0.2592545
vt 0.4749857 0.2595882
vt 0.4771162 0.259622
vt 0.4773751 0.2600485
vt 0.4789208 0.2593637
vt 0.4788651 0.2587341
vt 0.4789588 0.2598841
vt 0.4815458 0.2603096
vt 0.473111 0.2584848
vt 0.4815406 0.2600019
vt 0.4867862 0.2604113
vt 0.4838625 0.2599707
vt 0.487403 0.2599918
vt 0.4851403 0.2596625
vt 0.4898708 0.2597228
vt 0.4888149 0.2592878
vt 0.4930833 0.2597532
vt 0.4780542 0.2585427
vt 0.4838333 0.2585084
vt 0.4820931 0.2582638
vt 0.4904153 0.2585702
vt 0.4916334 0.2593458
vt 0.4946409 0.2594554
vt 0.4889703 0.2573762
vt 0.4854269 0.2573001
vt 0.4836074 0.2575679
vt 0.4813867 0.257144
vt 0.4856832 0.2570319
vt 0.488427 0.2569284
vt 0.4920501 0.2575883
vt 0.4925555 0.2570312
vt 0.4950321 0.2576607
vt 0.4967915 0.2573147
vt 0.4954797 0.258023
vt 0.4988225 0.2577749
vt 0.4956021 0.2583355
vt 0.4979273 0.2581407
vt 0.4984009 0.2583904
vt 0.4973181 0.258649
vt 0.5002254 0.2586559
vt 0.497531 0.2591643
vt 0.5004814 0.2593153
vt 0.4997132 0.2597094
vt 0.4978142 0.2600493
vt 0.4951135 0.2602497
vt 0.4946409 0.2594554
vt 0.4674595 0.2579887
vt 0.470523 0.2583246
vt 0.4731359 0.2587179
vt 0.1451558 0.1087309
vt 0.145161 0.1081702
vt 0.1450015 0.1094665
vt 0.1452508 0.1079857
vt 0.145161 0.1081702
vt 0.145331 0.1067361
vt 0.1451936 0.1072994
vt 0.1450486 0.1083882
vt 0.145161 0.1081702
vt 0.145116 0.1077681
vt 0.4580814 0.2570359
vt 0.4618814 0.2573633
vt 0.461677 0.2571456
vt 0.4604733 0.2574344
vt 0.4634733 0.2573067
vt 0.4619097 0.257556
vt 0.4656448 0.2577441
vn -0.5947267 0.3128288 0.7405663
vn -0.5089335 0.2157011 0.8333425
vn -0.7042271 -0.2774568 0.653515
vn 0.7407883 0.3900682 0.5468816
vn 0.5421402 -0.4135403 0.7314837
vn -0.5089335 0.2157011 0.8333425
vn -0.5089335 0.2157011 0.8333425
vn -0.5947267 0.3128288 0.7405663
vn -0.7042271 -0.2774568 0.653515
vn 0.9062866 0.1118666 0.407591
vn 0.3654924 -0.405667 0.8377647
vn -0.03017165 -0.1523134 0.9878716
vn 0.01352 -0.07892709 0.9967887
vn 0.6327102 -0.4011665 0.662377
vn -0.02970646 0.05145806 0.9982332
vn -0.3279033 0.1674089 0.92976
vn 0.5384573 -0.4929309 0.6834347
vn -0.0810724 -0.5219043 0.8491426
vn 0.2105092 -0.1655427 0.9634737
vn 0.3227844 -0.009031717 0.9464294
vn 0.3114279 0.1362206 0.9404556
vn 0.1659106 0.2698731 0.9484946
vn -0.0337831 0.430917 0.9017589
vn 0.4315636 0.5367666 0.7250065
vn -0.01501816 0.238132 0.9711167
vn -0.08560004 0.1649272 0.9825842
vn -0.1378647 0.07422164 0.9876661
vn -0.3650333 -0.08422652 0.9271767
vn -0.3312958 0.3719022 0.86714
vn -0.2796309 0.2354701 0.9307848
vn -0.2978018 -0.04627075 0.9535058
vn -0.2411986 -0.2172627 0.9458436
vn -0.1253259 -0.2793819 0.951966
vn -0.4933003 -0.3965803 0.7741957
vn -0.03017165 -0.1523134 0.9878716
vn 0.3654924 -0.405667 0.8377647
vn 0.5306575 -0.3621603 0.7663176
vn 0.1307441 -0.02066788 0.9912007
vn 0.5018585 0.05031913 0.8634848
vn 0.06196149 -0.2549915 0.964956
vn -0.5518177 -0.2456398 0.7969682
vn -0.7619215 -0.2254757 0.6071544
vn -0.6143776 -0.6290998 0.4762075
vn 0.4809138 -0.481801 0.7325228
vn -0.4185089 -0.8421174 0.3401301
vn -0.2580946 -0.8335102 0.4885161
vn -0.4728988 -0.8280666 0.3011185
vn -0.488824 -0.7770765 0.3964888
vn -0.7653451 -0.5640925 0.3099138
vn 0.05721236 -0.2245913 0.972772
vn 0.7463224 -0.3087944 0.5896175
vn -0.7539343 -0.4993196 0.4269228
vn -0.9065474 -0.1904944 0.3766745
vn 0.9002777 0.06217819 0.4308526
vn -0.8546116 -0.1744065 0.4891027
vn -0.7388454 0.3973664 0.5442493
vn -0.6966056 0.3249562 0.6396438
vn -0.562179 0.6562252 0.5033123
vn -0.5163282 0.4796683 0.709453
vn -0.846992 0.2530013 0.4675414
vn -0.68506 0.1831955 0.7050762
vn -0.7956694 -0.4017938 0.4532902
vn 0.9100302 -0.2217409 0.3502512
vn 0.5432926 -0.5029469 0.6722183
vn 0.6148708 -0.6860394 0.3889524
vn 0.08536724 -0.09180595 0.9921108
vn -0.7763048 -0.02642905 0.6298034
vn -0.6225145 0.2380397 0.7455285
vn 0.6295981 -0.1467841 0.7629291
vn 0.4960346 -0.6194087 0.6085085
vn 0.2378758 -0.8627132 0.4462522
vn 0.1418795 -0.4242993 0.894338
vn 0.7698039 -0.2657249 0.5803381
vn 0.8191225 0.03285813 0.5726767
vn 0.7082815 0.2009972 0.6767107
vn 0.8033928 0.2499893 0.5404308
vn 0.5702824 0.4827568 0.6646231
vn 0.6388591 0.5323088 0.5554338
vn 0.06195905 0.807923 0.5860218
vn 0.1513601 0.8622727 0.483297
vn 0.3161772 0.7488627 0.5824401
vn -0.07449339 0.8940618 0.4417061
vn 0.5787325 0.7330205 0.3574208
vn 0.2415433 0.7438635 0.6231564
vn 0.2406995 0.8664341 0.4374421
vn -0.2467903 0.6788309 0.6915803
vn -0.04961161 0.8793843 0.4735206
vn -0.4978312 0.5732505 0.6508056
vn -0.577113 0.4443103 0.6852218
vn -0.6774962 -0.1524472 0.7195545
vn -0.6225145 0.2380397 0.7455285
vn 0.5018585 0.05031913 0.8634848
vn 0.7316861 0.3973161 0.553873
vn 0.4809138 -0.481801 0.7325228
vn -0.5734503 -0.5662099 0.5920822
vn -0.116284 -0.1011984 0.988047
vn 0.2177288 -0.2304955 0.9484017
vn -0.7452694 -0.3245713 0.582432
vn -0.116284 -0.1011984 0.988047
vn -0.1997771 0.1884076 0.9615569
vn 0.4590811 0.5153834 0.7236191
vn 0.6767526 0.2065165 0.7066518
vn -0.116284 -0.1011984 0.988047
vn 0.6140209 0.4529677 0.6463735
vn 0.1785844 -0.2827035 0.9424365
vn 0.005232229 0.004985252 0.9999739
vn 0.7086124 0.2249001 0.6687962
vn -0.5263198 -0.5445439 0.6530385
vn 0.4716712 0.5587497 0.6821474
vn -0.7223852 -0.2973747 0.624282
vn -0.1788136 0.2687849 0.9464567
g fireBlue18_mesh_0
f 3/3/3 2/2/2 1/1/1
f 6/6/6 5/5/5 4/4/4
f 8/8/8 7/7/7 4/4/4
f 5/5/5 7/7/7 9/9/9
f 12/12/12 11/11/11 10/10/10
f 13/13/13 12/12/12 10/10/10
f 14/14/14 13/13/13 10/10/10
f 13/13/13 14/14/14 15/15/15
f 13/13/13 15/15/15 16/16/16
f 14/14/14 17/17/17 15/15/15
f 15/15/15 17/17/17 18/18/18
f 19/19/19 15/15/15 18/18/18
f 20/20/20 15/15/15 19/19/19
f 21/21/21 15/15/15 20/20/20
f 22/22/22 15/15/15 21/21/21
f 22/22/22 23/23/23 15/15/15
f 24/24/24 15/15/15 23/23/23
f 25/25/25 15/15/15 24/24/24
f 26/26/26 15/15/15 25/25/25
f 27/27/27 15/15/15 26/26/26
f 27/27/27 28/28/28 15/15/15
f 15/15/15 28/28/28 16/16/16
f 29/29/29 13/13/13 16/16/16
f 30/30/30 13/13/13 29/29/29
f 31/31/31 13/13/13 30/30/30
f 31/31/31 32/32/32 13/13/13
f 32/32/32 33/33/33 13/13/13
f 33/33/33 34/34/34 13/13/13
f 34/34/34 35/35/35 13/13/13
f 36/36/36 35/35/35 34/34/34
f 39/39/39 38/38/38 37/37/37
f 37/37/37 38/38/38 40/40/40
f 40/40/40 38/38/38 41/41/41
f 41/41/41 38/38/38 42/42/42
f 42/42/42 38/38/38 43/43/43
f 38/38/38 44/44/44 43/43/43
f 43/43/43 44/44/44 45/45/45
f 44/44/44 46/46/46 45/45/45
f 45/45/45 46/46/46 47/47/47
f 46/46/46 48/48/48 47/47/47
f 47/47/47 48/48/48 49/49/49
f 44/44/44 50/50/50 46/46/46
f 46/46/46 50/50/50 48/48/48
f 51/51/51 50/50/50 44/44/44
f 48/48/48 50/50/50 52/52/52
f 48/48/48 52/52/52 49/49/49
f 49/49/49 52/52/52 53/53/53
f 51/51/51 44/44/44 54/54/54
f 52/52/52 55/55/55 53/53/53
f 52/52/52 50/50/50 55/55/55
f 53/53/53 55/55/55 56/56/56
f 55/55/55 57/57/57 56/56/56
f 55/55/55 50/50/50 57/57/57
f 56/56/56 57/57/57 58/58/58
f 57/57/57 59/59/59 58/58/58
f 57/57/57 50/50/50 59/59/59
f 58/58/58 59/59/59 60/60/60
f 59/59/59 61/61/61 60/60/60
f 59/59/59 50/50/50 61/61/61
f 60/60/60 61/61/61 62/62/62
f 63/63/63 51/51/51 54/54/54
f 64/64/64 51/51/51 63/63/63
f 64/64/64 50/50/50 51/51/51
f 65/65/65 64/64/64 63/63/63
f 50/50/50 66/66/66 61/61/61
f 50/50/50 64/64/64 66/66/66
f 61/61/61 66/66/66 67/67/67
f 61/61/61 67/67/67 62/62/62
f 67/67/67 66/66/66 68/68/68
f 67/67/67 68/68/68 62/62/62
f 64/64/64 69/69/69 66/66/66
f 70/70/70 64/64/64 65/65/65
f 64/64/64 70/70/70 69/69/69
f 71/71/71 70/70/70 65/65/65
f 72/72/72 70/70/70 71/71/71
f 73/73/73 70/70/70 72/72/72
f 69/69/69 70/70/70 73/73/73
f 74/74/74 69/69/69 73/73/73
f 75/75/75 69/69/69 74/74/74
f 75/75/75 66/66/66 69/69/69
f 76/76/76 75/75/75 74/74/74
f 77/77/77 75/75/75 76/76/76
f 77/77/77 66/66/66 75/75/75
f 78/78/78 77/77/77 76/76/76
f 79/79/79 77/77/77 78/78/78
f 79/79/79 66/66/66 77/77/77
f 80/80/80 79/79/79 78/78/78
f 81/81/81 79/79/79 80/80/80
f 81/81/81 66/66/66 79/79/79
f 82/82/82 81/81/81 80/80/80
f 83/83/83 81/81/81 82/82/82
f 84/84/84 81/81/81 83/83/83
f 84/84/84 66/66/66 81/81/81
f 85/85/85 84/84/84 83/83/83
f 86/86/86 66/66/66 84/84/84
f 86/86/86 84/84/84 85/85/85
f 87/87/87 86/86/86 85/85/85
f 88/88/88 86/86/86 87/87/87
f 68/68/68 66/66/66 86/86/86
f 68/68/68 86/86/86 88/88/88
f 89/89/89 68/68/68 88/88/88
f 90/90/90 68/68/68 89/89/89
f 62/62/62 91/91/91 90/90/90
f 93/93/93 38/38/38 92/92/92
f 94/94/94 38/38/38 93/93/93
f 54/54/54 94/94/94 93/93/93
f 97/97/97 96/96/96 95/95/95
f 99/99/99 98/98/98 95/95/95
f 100/100/100 98/98/98 99/99/99
f 100/100/100 96/96/96 101/101/101
f 103/103/103 97/97/97 102/102/102
f 104/104/104 101/101/101 103/103/103
f 102/102/102 104/104/104 103/103/103
f 107/107/107 106/106/106 105/105/105
f 105/105/105 106/106/106 108/108/108
f 109/109/109 106/106/106 107/107/107
f 108/108/108 106/106/106 110/110/110
f 111/111/111 106/106/106 109/109/109
f 110/110/110 106/106/106 111/111/111
