g fire10_mesh
v -0.1096111 0.6704566 -0.08742463
v -0.3504302 0.8508631 2.235174E-08
v -0.2321644 0.7589111 -0.006713344
v 0.1074229 1.139081 -0.09023064
v 0.1552637 1.165381 2.235174E-08
v 0.222956 1.178961 2.235174E-08
v 0.2773568 1.189951 2.235174E-08
v 0.1074229 1.139081 -0.09023064
v 0.1074229 1.139081 -0.09023064
v 0.09228513 1.18583 2.235174E-08
v 0.02239097 1.196753 -0.04555508
v 0.1074229 1.139081 -0.09023064
v 0.3028891 1.139101 2.235174E-08
v 0.03374566 1.105925 -0.01865716
v 0.2733435 1.070359 2.235174E-08
v 0.03369303 1.030115 -0.0078283
v 0.1315755 1.033394 2.235174E-08
v -0.06993792 1.367338 2.235174E-08
v -0.06293539 1.346881 -0.05030491
v -0.08411967 1.343164 -0.02878733
v -0.05421325 1.360959 -0.0003030919
v -0.05454691 1.345743 -0.0001298233
v -0.06293539 1.346881 -0.05030491
v -0.06293539 1.346881 -0.05030491
v -0.06189974 1.319195 2.235174E-08
v -0.08411967 1.343164 -0.02878733
v -0.1096111 0.6704566 -0.08742463
v -0.2321644 0.7589111 -0.006713344
v -0.1273492 0.7658509 -0.01127877
v -0.03140604 0.8404534 -0.09567143
v -0.05222536 0.7138026 2.235174E-08
v -0.04502808 0.5923566 2.235174E-08
v -0.01895381 0.5004046 2.235174E-08
v -0.04203813 0.4120679 -0.08655605
v -0.1282142 0.3499081 -0.0851756
v -0.2140524 0.6344323 -0.0851756
v 0.1083314 0.2652319 -0.0851756
v 0.06248631 0.4032478 2.235174E-08
v -0.3504302 0.8508631 2.235174E-08
v 0.2064866 0.3407898 2.235174E-08
v -0.3990086 0.7155375 2.235174E-08
v 0.389703 0.3313622 2.235174E-08
v -0.412464 0.5753682 2.235174E-08
v 0.2354692 0.1544769 2.235174E-08
v -0.3428817 0.5740516 2.235174E-08
v -0.2514618 0.4727485 2.235174E-08
v -0.255168 0.3726808 2.235174E-08
v -0.3208652 0.2863355 2.235174E-08
v -0.2685958 0.2281265 2.235174E-08
v 0.07279805 0.0848898 2.235174E-08
v -0.1400878 0.2499121 2.235174E-08
v 0.01451187 0.2394315 -0.0851756
v -0.02275045 0.2050052 2.235174E-08
v 0.4539075 0.2684224 0
v 0.4451438 0.3705087 -0.1108887
v 0.5278258 0.5315399 0
v 0.3722013 0.1501125 0
v 0.2934875 0.2005954 -0.201331
v 0.183686 0.02036714 0
v 0.1698663 0.1132561 -0.1962368
v -0.00424432 -0.0004654725 0
v 0.04374332 0.09207546 -0.206612
v -0.1157918 0.1093566 0
v 0.1150182 0.2394951 -0.3579581
v -0.1308312 0.2380198 -0.2678622
v -0.2354307 0.08305723 0
v -0.2407879 0.523513 -0.3436105
v -0.2263248 0.2001424 -0.243685
v 0.004151031 0.4345048 -0.2939142
v -0.4138069 0.2419887 0
v 0.2372824 0.3449272 -0.2254873
v 0.4451438 0.3705087 -0.1108887
v -0.3211112 0.3175261 -0.2056842
v -0.4763172 0.4096299 0
v -0.3883091 0.4321843 -0.2090265
v -0.4962068 0.5971606 0
v -0.4017449 0.5790266 -0.2264364
v -0.4479034 0.8557257 0
v -0.3985237 0.8096739 -0.2017408
v -0.3774061 1.07076 0
v -0.3397225 0.9419549 0
v -0.1079162 0.9069713 -0.2460553
v -0.2435071 0.8830395 0
v -0.1141751 0.9293712 0
v -0.05446382 1.073251 0
v -0.06260582 0.7354146 -0.2907299
v 0.00213444 1.071708 -0.1294075
v 0.1358847 1.117851 -0.174906
v -0.0491061 1.209462 0
v -0.01513792 1.252067 -0.06294994
v 0.1115168 0.9594836 -0.20819
v 0.09635148 0.4797715 0
v 0.2606203 0.396661 0
v 0.06252798 0.7056812 0
v 0.426505 0.4293166 0
v 0.4451438 0.3705087 -0.1108887
v 0.5278258 0.5315399 0
v 0.1329152 0.8595408 0
v 0.2211709 1.018256 -0.1301521
v 0.2952207 0.8857523 0
v 0.3515663 1.056872 -0.1423595
v 0.4453009 0.9476434 0
v 0.4839212 1.096254 0
v 0.2891822 1.25827 -0.09105108
v 0.3602952 1.386795 0
v 0.1394631 1.201551 -0.1202763
v 0.2641118 1.283236 0
v 0.3602952 1.386795 0
v 0.1323744 1.231834 0
v -0.01513792 1.252067 -0.06294994
v 0.01078538 1.304847 0
v -0.02912163 1.418099 -0.04903905
v -0.002718496 1.473302 0
v -0.07647534 1.333558 -0.07859634
v -0.1040499 1.369454 0
v -0.1077989 1.301189 0
v -0.07647534 1.333558 -0.07859634
v -0.01513792 1.252067 -0.06294994
v -0.002718496 1.473302 0
v -0.05618973 1.427016 0
v -0.07647534 1.333558 -0.07859634
v 0.07640777 1.90861 -3.308722E-24
v 0.07436626 1.953018 -0.03989985
v 0.1322572 1.88664 -0.04129966
v 0.1247365 1.875571 -3.308722E-24
v 0.1522161 1.809714 -3.308722E-24
v 0.03087438 1.841508 -3.308722E-24
v 0.07436626 1.953018 -0.03989985
v -0.001221415 1.91403 -0.04890855
v -0.004500628 1.68288 -3.308722E-24
v -0.02405306 1.921147 -3.308722E-24
v -0.01175309 2.094523 -3.308722E-24
v 0.02318989 1.997928 -3.308722E-24
v 0.07951859 1.995906 -3.308722E-24
v 0.1305202 1.946304 -3.308722E-24
v 0.1322572 1.88664 -0.04129966
v 0.1406473 1.892422 -3.308722E-24
v 0.1522161 1.809714 -3.308722E-24
vt 0.154587 0.5045424
vt 0.1485306 0.5033903
vt 0.1516166 0.503956
vt 0.1360548 0.5055807
vt 0.134719 0.5058821
vt 0.1350376 0.5061333
vt 0.135423 0.5063935
vt 0.1360548 0.5055807
vt 0.1360548 0.5055807
vt 0.1348624 0.5055082
vt 0.1345838 0.5051737
vt 0.1360548 0.5055807
vt 0.1367197 0.5065157
vt 0.1369011 0.5052281
vt 0.1384726 0.5064709
vt 0.138834 0.5052279
vt 0.138299 0.5056869
vt 0.1302336 0.5047321
vt 0.1307547 0.5047656
vt 0.1308503 0.5046643
vt 0.130396 0.5048074
vt 0.1307835 0.5048057
vt 0.1307547 0.5047656
vt 0.1307547 0.5047656
vt 0.1314612 0.5047706
vt 0.1308503 0.5046643
vt 0.154587 0.5045424
vt 0.1516166 0.503956
vt 0.1513933 0.5044576
vt 0.1488967 0.5049164
vt 0.1531375 0.5048168
vt 0.1572027 0.5048512
vt 0.1602831 0.504976
vt 0.1632385 0.5048656
vt 0.1653082 0.5044534
vt 0.155784 0.5040427
vt 0.1681575 0.505585
vt 0.1635354 0.5053657
vt 0.1485306 0.5033903
vt 0.1656144 0.5060545
vt 0.1530282 0.503158
vt 0.1658938 0.506931
vt 0.1576631 0.5030937
vt 0.1718285 0.506193
vt 0.1577846 0.5034266
vt 0.1611842 0.5038638
vt 0.1644857 0.5038461
vt 0.1671458 0.5035318
vt 0.1689525 0.5037818
vt 0.174195 0.5054149
vt 0.1686336 0.5043966
vt 0.1690194 0.5051361
vt 0.1701657 0.5049579
vt 0.805196 0.6661092
vt 0.8033991 0.6660877
vt 0.8005647 0.6662906
vt 0.8072785 0.6659086
vt 0.8063897 0.6657156
vt 0.8095621 0.665446
vt 0.8079269 0.6654123
vt 0.8099285 0.6649849
vt 0.8083001 0.6651025
vt 0.8079958 0.6647111
vt 0.8057051 0.6652775
vt 0.8057312 0.6646742
vt 0.8084584 0.6644174
vt 0.800706 0.6644042
vt 0.8063978 0.6644398
vt 0.8022724 0.6650055
vt 0.8056612 0.6639796
vt 0.8038493 0.6655776
vt 0.8033991 0.6660877
vt 0.8043317 0.6642072
vt 0.8027104 0.6638262
vt 0.8023136 0.6640424
vt 0.7994098 0.6637775
vt 0.7997286 0.6640092
vt 0.7948585 0.663896
vt 0.795669 0.6640171
vt 0.7910739 0.664069
vt 0.7933409 0.6641614
vt 0.7939563 0.6647303
vt 0.7943775 0.6643977
vt 0.7935624 0.664715
vt 0.7910295 0.6648616
vt 0.7969761 0.6648416
vt 0.7910565 0.6650005
vt 0.7902447 0.6653287
vt 0.7886324 0.6648746
vt 0.7878821 0.6649581
vt 0.7930322 0.665269
vt 0.8014758 0.6652316
vt 0.8029386 0.6656348
vt 0.7974994 0.6651486
vt 0.802364 0.6660419
vt 0.8033991 0.6660877
vt 0.8005647 0.6662906
vt 0.794791 0.6653214
vt 0.7919977 0.665538
vt 0.7943298 0.66572
vt 0.7913181 0.665858
vt 0.7932405 0.6660882
vt 0.7906249 0.6661829
vt 0.7877731 0.6657051
vt 0.7855108 0.6658795
vt 0.7887715 0.6653373
vt 0.7873337 0.6656435
vt 0.7855108 0.6658795
vt 0.7882383 0.6653202
vt 0.7878821 0.6649581
vt 0.7869532 0.6650216
vt 0.7849598 0.6649237
vt 0.7839879 0.6649885
vt 0.7864478 0.6648076
vt 0.7858159 0.66474
vt 0.7870178 0.6647307
vt 0.7864478 0.6648076
vt 0.7878821 0.6649581
vt 0.7839879 0.6649885
vt 0.7848029 0.6648573
vt 0.7864478 0.6648076
vt 0.7766875 0.6652145
vt 0.7756471 0.6651867
vt 0.7774391 0.6653838
vt 0.7777488 0.6653753
vt 0.7791157 0.6654609
vt 0.7775574 0.6650754
vt 0.7756471 0.6651867
vt 0.7762335 0.6649926
vt 0.7802993 0.6649842
vt 0.7761049 0.6649362
vt 0.7730532 0.6649665
vt 0.774754 0.6650521
vt 0.7747972 0.665191
vt 0.775963 0.665342
vt 0.7774391 0.6653838
vt 0.7773748 0.6654075
vt 0.7791157 0.6654609
vn -0.3177831 -0.2180408 0.9227525
vn 0.2261918 -0.2748818 0.9344931
vn -0.0836074 -0.5497718 0.8311201
vn -0.05998327 0.1643059 0.984584
vn 0.01607975 -0.9621849 0.2719222
vn 0.1945708 -0.9647402 0.1772529
vn -0.3700409 -0.3144379 0.8741845
vn -0.05998327 0.1643059 0.984584
vn -0.05998327 0.1643059 0.984584
vn -0.3354993 -0.8582569 0.3883753
vn 0.2262221 -0.3657972 0.9027823
vn -0.05998327 0.1643059 0.984584
vn -0.4190483 0.01832343 0.907779
vn 0.6401516 0.1863662 0.745301
vn -0.3221145 0.3677053 0.8723733
vn 0.122923 0.5443406 0.8298091
vn -0.1325185 0.625887 0.7685729
vn -0.02664382 -0.9272898 0.3733947
vn -0.1246547 0.1084057 0.9862604
vn 0.6981484 0.1133787 0.7069187
vn -0.7448745 -0.5969498 0.2980151
vn -0.9695135 0.1800866 0.1661698
vn -0.1246547 0.1084057 0.9862604
vn -0.1246547 0.1084057 0.9862604
vn -0.7283887 0.5938169 0.341806
vn 0.6981484 0.1133787 0.7069187
vn -0.3177831 -0.2180408 0.9227525
vn -0.0836074 -0.5497718 0.8311201
vn 0.4917121 -0.4855397 0.7228212
vn 0.00209064 0.04749475 0.9988692
vn -0.8617821 0.244826 0.4442881
vn -0.8609118 -0.2076822 0.4644339
vn -0.7788699 -0.3441963 0.5243001
vn -0.3504891 -0.2341349 0.9068287
vn 0.3191612 0.2227283 0.9211559
vn 0.2136929 -0.1197648 0.9695317
vn -0.241333 0.1108379 0.964092
vn -0.5124356 -0.5450259 0.6635935
vn 0.2261918 -0.2748818 0.9344931
vn -0.109618 -0.677493 0.7273151
vn 0.3828133 -0.09234543 0.9191987
vn -0.3054793 0.07738242 0.9490492
vn 0.3840336 0.04017739 0.9224446
vn -0.2634316 0.3670143 0.8921346
vn 0.2612477 0.5558379 0.7891729
vn 0.620096 0.172558 0.7653135
vn 0.6235276 0.007479926 0.7817656
vn 0.390782 0.0474125 0.9192615
vn 0.186263 0.4098253 0.8929442
vn -0.08370379 0.4756541 0.8756409
vn 0.2317065 0.679455 0.6961702
vn 0.08967821 0.3739494 0.9231033
vn 0.4810795 0.6325425 0.607003
vn -0.7894593 0.4424323 0.4254498
vn -0.6375396 -0.3747754 0.6731172
vn -0.6749086 -0.1508639 0.7223147
vn -0.6472357 0.6319943 0.4262267
vn -0.6282918 0.5240705 0.5749778
vn -0.338501 0.8477709 0.4082911
vn -0.3520188 0.8104896 0.4681766
vn 0.3050272 0.8561413 0.4171099
vn 0.2612666 0.8275588 0.4968763
vn 0.3130737 0.8475806 0.4284764
vn -0.1320552 0.187747 0.9732998
vn 0.2689824 0.6159446 0.7404463
vn 0.3431154 0.8125336 0.4712335
vn 0.1994377 -0.04674688 0.9787949
vn 0.3460354 0.7341394 0.5842078
vn -0.6768978 -0.4363856 0.5927706
vn 0.7380439 0.5197549 0.4302858
vn -0.4311697 -0.7497905 0.5019032
vn -0.6375396 -0.3747754 0.6731172
vn 0.7124801 0.4661357 0.5244898
vn 0.8760182 0.2415271 0.4174408
vn 0.8199779 0.2467269 0.51649
vn 0.9343907 -0.02516635 0.3553602
vn 0.8566315 -0.01714091 0.515644
vn 0.9307427 -0.1788577 0.3189482
vn 0.6495673 -0.4488745 0.6136562
vn 0.4060202 -0.5791038 0.7069557
vn -0.2296785 -0.8990059 0.3728755
vn 0.2893055 -0.6103197 0.7374362
vn 0.1618676 -0.9603941 0.2268088
vn 0.7068425 -0.6902118 0.1548588
vn 0.8856468 -0.3853104 0.2591633
vn -0.7363869 -0.03372859 0.6757194
vn 0.7471104 -0.4931948 0.4456288
vn -0.01307367 -0.3235822 0.9461097
vn 0.877867 0.08693172 0.4709483
vn 0.3600429 -0.3674478 0.8575261
vn -0.6374713 0.356277 0.6831523
vn -0.7852633 -0.5168059 0.3409885
vn -0.2463107 -0.9262117 0.2854171
vn -0.9251585 0.08488823 0.3699672
vn 0.1949543 -0.9139309 0.3559819
vn -0.6375396 -0.3747754 0.6731172
vn -0.6749086 -0.1508639 0.7223147
vn -0.7168459 0.5411999 0.4395846
vn -0.30995 0.6059126 0.7326671
vn -0.2904281 0.6865953 0.6665123
vn -0.464435 0.1024309 0.8796636
vn -0.3852212 0.5581114 0.7349259
vn -0.6438034 -0.2064603 0.7368116
vn -0.3847993 -0.4854453 0.7850302
vn -0.53174 -0.3587751 0.767159
vn 0.07634235 -0.7965781 0.5996959
vn 0.4277488 -0.8480465 0.3128068
vn -0.53174 -0.3587751 0.767159
vn 0.01438728 -0.9287828 0.3703451
vn 0.3600429 -0.3674478 0.8575261
vn -0.6619809 -0.5403517 0.5194238
vn -0.5162143 -0.3650838 0.7747495
vn -0.7825542 -0.2144642 0.5844776
vn 0.4912509 0.05093219 0.8695278
vn 0.7643998 -0.4449913 0.4665572
vn 0.7281994 0.4147928 0.5455939
vn 0.4912509 0.05093219 0.8695278
vn 0.3600429 -0.3674478 0.8575261
vn -0.7825542 -0.2144642 0.5844776
vn 0.6609027 -0.5784703 0.4780999
vn 0.4912509 0.05093219 0.8695278
vn -0.09841128 0.6097734 0.7864424
vn -0.2312463 -0.2202278 0.9476417
vn -0.06778732 0.2568047 0.964083
vn 0.7158133 0.5620123 0.4144315
vn -0.3608222 0.3667501 0.8574973
vn -0.6308107 0.2592165 0.7313581
vn -0.2312463 -0.2202278 0.9476417
vn 0.3382247 0.09910082 0.9358328
vn 0.1156541 0.2040446 0.9721059
vn 0.9066423 0.01004133 0.4217807
vn 0.190522 -0.2463781 0.9502627
vn -0.2933066 -0.4538988 0.841396
vn -0.1535386 -0.5897849 0.7928302
vn -0.5763902 -0.4970832 0.6486005
vn -0.06778732 0.2568047 0.964083
vn -0.9637628 -0.1545519 0.217428
vn -0.3608222 0.3667501 0.8574973
g fire10_mesh_0
f 3/3/3 2/2/2 1/1/1
f 6/6/6 5/5/5 4/4/4
f 8/8/8 7/7/7 6/6/6
f 10/10/10 9/9/9 5/5/5
f 10/10/10 11/11/11 9/9/9
f 13/13/13 7/7/7 12/12/12
f 11/11/11 14/14/14 12/12/12
f 15/15/15 13/13/13 12/12/12
f 14/14/14 16/16/16 12/12/12
f 17/17/17 15/15/15 12/12/12
f 17/17/17 12/12/12 16/16/16
f 20/20/20 19/19/19 18/18/18
f 21/21/21 18/18/18 19/19/19
f 21/21/21 23/23/23 22/22/22
f 25/25/25 22/22/22 24/24/24
f 25/25/25 24/24/24 26/26/26
f 29/29/29 28/28/28 27/27/27
f 27/27/27 30/30/30 29/29/29
f 31/31/31 30/30/30 27/27/27
f 32/32/32 31/31/31 27/27/27
f 33/33/33 32/32/32 27/27/27
f 34/34/34 33/33/33 27/27/27
f 35/35/35 34/34/34 27/27/27
f 27/27/27 36/36/36 35/35/35
f 37/37/37 34/34/34 35/35/35
f 38/38/38 33/33/33 34/34/34
f 37/37/37 38/38/38 34/34/34
f 39/39/39 36/36/36 27/27/27
f 40/40/40 38/38/38 37/37/37
f 41/41/41 36/36/36 39/39/39
f 40/40/40 37/37/37 42/42/42
f 43/43/43 36/36/36 41/41/41
f 42/42/42 37/37/37 44/44/44
f 45/45/45 36/36/36 43/43/43
f 46/46/46 36/36/36 45/45/45
f 36/36/36 46/46/46 47/47/47
f 35/35/35 36/36/36 47/47/47
f 48/48/48 35/35/35 47/47/47
f 49/49/49 35/35/35 48/48/48
f 44/44/44 37/37/37 50/50/50
f 51/51/51 35/35/35 49/49/49
f 37/37/37 52/52/52 50/50/50
f 52/52/52 37/37/37 35/35/35
f 52/52/52 35/35/35 51/51/51
f 50/50/50 52/52/52 53/53/53
f 53/53/53 52/52/52 51/51/51
f 56/56/56 55/55/55 54/54/54
f 54/54/54 55/55/55 57/57/57
f 55/55/55 58/58/58 57/57/57
f 57/57/57 58/58/58 59/59/59
f 58/58/58 60/60/60 59/59/59
f 59/59/59 60/60/60 61/61/61
f 60/60/60 62/62/62 61/61/61
f 61/61/61 62/62/62 63/63/63
f 58/58/58 64/64/64 60/60/60
f 60/60/60 64/64/64 62/62/62
f 62/62/62 65/65/65 63/63/63
f 62/62/62 64/64/64 65/65/65
f 63/63/63 65/65/65 66/66/66
f 67/67/67 65/65/65 64/64/64
f 65/65/65 67/67/67 68/68/68
f 65/65/65 68/68/68 66/66/66
f 67/67/67 64/64/64 69/69/69
f 66/66/66 68/68/68 70/70/70
f 71/71/71 64/64/64 58/58/58
f 69/69/69 64/64/64 71/71/71
f 58/58/58 72/72/72 71/71/71
f 68/68/68 73/73/73 70/70/70
f 68/68/68 67/67/67 73/73/73
f 70/70/70 73/73/73 74/74/74
f 73/73/73 75/75/75 74/74/74
f 73/73/73 67/67/67 75/75/75
f 74/74/74 75/75/75 76/76/76
f 75/75/75 77/77/77 76/76/76
f 75/75/75 67/67/67 77/77/77
f 76/76/76 77/77/77 78/78/78
f 77/77/77 79/79/79 78/78/78
f 77/77/77 67/67/67 79/79/79
f 78/78/78 79/79/79 80/80/80
f 80/80/80 79/79/79 81/81/81
f 79/79/79 67/67/67 82/82/82
f 79/79/79 82/82/82 83/83/83
f 81/81/81 79/79/79 83/83/83
f 83/83/83 82/82/82 84/84/84
f 84/84/84 82/82/82 85/85/85
f 82/82/82 67/67/67 86/86/86
f 86/86/86 67/67/67 69/69/69
f 82/82/82 87/87/87 85/85/85
f 82/82/82 88/88/88 87/87/87
f 85/85/85 87/87/87 89/89/89
f 87/87/87 90/90/90 89/89/89
f 87/87/87 88/88/88 90/90/90
f 86/86/86 91/91/91 82/82/82
f 91/91/91 88/88/88 82/82/82
f 86/86/86 69/69/69 92/92/92
f 92/92/92 69/69/69 93/93/93
f 94/94/94 86/86/86 92/92/92
f 91/91/91 86/86/86 94/94/94
f 69/69/69 71/71/71 93/93/93
f 93/93/93 71/71/71 95/95/95
f 71/71/71 96/96/96 95/95/95
f 95/95/95 96/96/96 97/97/97
f 98/98/98 91/91/91 94/94/94
f 99/99/99 91/91/91 98/98/98
f 99/99/99 88/88/88 91/91/91
f 100/100/100 99/99/99 98/98/98
f 101/101/101 99/99/99 100/100/100
f 101/101/101 88/88/88 99/99/99
f 102/102/102 101/101/101 100/100/100
f 103/103/103 101/101/101 102/102/102
f 104/104/104 101/101/101 103/103/103
f 104/104/104 88/88/88 101/101/101
f 105/105/105 104/104/104 103/103/103
f 106/106/106 88/88/88 104/104/104
f 90/90/90 88/88/88 106/106/106
f 106/106/106 104/104/104 107/107/107
f 107/107/107 104/104/104 108/108/108
f 109/109/109 106/106/106 107/107/107
f 110/110/110 106/106/106 109/109/109
f 111/111/111 110/110/110 109/109/109
f 112/112/112 90/90/90 111/111/111
f 113/113/113 112/112/112 111/111/111
f 112/112/112 114/114/114 90/90/90
f 116/116/116 114/114/114 115/115/115
f 118/118/118 117/117/117 116/116/116
f 89/89/89 118/118/118 116/116/116
f 120/120/120 112/112/112 119/119/119
f 115/115/115 121/121/121 120/120/120
f 121/121/121 112/112/112 120/120/120
f 124/124/124 123/123/123 122/122/122
f 125/125/125 124/124/124 122/122/122
f 126/126/126 124/124/124 125/125/125
f 122/122/122 128/128/128 127/127/127
f 128/128/128 129/129/129 127/127/127
f 127/127/127 129/129/129 130/130/130
f 130/130/130 129/129/129 131/131/131
f 131/131/131 129/129/129 132/132/132
f 132/132/132 129/129/129 133/133/133
f 133/133/133 129/129/129 134/134/134
f 129/129/129 128/128/128 134/134/134
f 134/134/134 128/128/128 135/135/135
f 128/128/128 136/136/136 135/135/135
f 135/135/135 136/136/136 137/137/137
f 137/137/137 136/136/136 138/138/138
