g fireBlue12_mesh
v -0.2977763 0.7644712 -0.08630012
v -0.1819464 0.9577931 -0.09567143
v -0.1584341 0.8186093 2.235174E-08
v -0.1208124 0.6987662 2.235174E-08
v -0.006138129 0.6002244 2.235174E-08
v 0.0781102 0.4932629 -0.0851756
v 0.163732 0.5908069 2.235174E-08
v 0.3073502 0.6519861 2.235174E-08
v 0.3863941 0.5732755 2.235174E-08
v 0.3840407 0.44855 2.235174E-08
v 0.2310755 0.4014837 2.235174E-08
v 0.1863625 0.3379443 2.235174E-08
v 0.05222376 0.2414585 -0.0851756
v 0.2899083 0.1732125 2.235174E-08
v 0.1234377 0.08525097 2.235174E-08
v -0.01445197 0.08416909 2.235174E-08
v -0.1465886 0.1265901 2.235174E-08
v -0.07742766 0.2912589 2.235174E-08
v -0.1185949 0.4411076 2.235174E-08
v -0.2017873 0.6310913 -0.0851756
v -0.2399373 0.5379349 2.235174E-08
v -0.3841003 0.5134499 2.235174E-08
v -0.4175745 0.5955328 2.235174E-08
v -0.3400205 0.6617543 2.235174E-08
v -0.3465202 0.7614079 2.235174E-08
v -0.2977763 0.7644712 -0.08630012
v -0.4277898 0.8477013 2.235174E-08
v -0.404096 0.9575039 2.235174E-08
v -0.3528683 1.055301 2.235174E-08
v -0.3140978 0.95275 -0.006713344
v -0.2429904 0.9176249 -0.01127877
v -0.1819464 0.9577931 -0.09567143
v 0.03867855 1.223208 0.001034495
v 0.05999326 1.302942 -0.06825883
v 0.08231485 1.261429 2.235174E-08
v 0.1528086 1.285307 -0.0003815647
v 0.1474813 1.321254 -0.0470698
v 0.2727939 1.316034 2.235174E-08
v 0.2689323 1.292819 2.235174E-08
v 0.2547955 1.33893 2.235174E-08
v 0.2218693 1.358022 0.01458834
v 0.1351412 1.346677 2.235174E-08
v 0.0548812 1.364971 2.235174E-08
v 0.01051674 1.388249 0.001966842
v 0.005490769 1.325998 -0.001310796
v 0.02052968 1.266697 -6.125733E-05
v 0.03867855 1.223208 0.001034495
v -0.02532978 1.562712 -8.403303E-16
v -0.01870573 1.456442 -0.1064927
v -0.04637335 1.495809 -8.403304E-16
v -0.04232635 1.417715 -8.403303E-16
v -0.003941637 1.370691 -0.1206458
v -0.02767114 1.346366 -1.680661E-15
v -0.02767114 1.346366 -1.680661E-15
v -0.003941637 1.370691 -0.1206458
v -0.04233724 1.165861 -0.112649
v -0.04233724 1.165861 -0.112649
v -0.04609721 1.233525 -8.403303E-16
v -0.135147 1.087843 -8.403303E-16
v -0.1908196 0.9578171 -0.1376418
v -0.2307534 1.021966 -8.403304E-16
v -0.4046738 1.074617 -0.0908073
v -0.3507596 1.094675 -8.403303E-16
v -0.3838986 1.236691 -8.403303E-16
v -0.4738446 1.018506 -8.403303E-16
v -0.4427647 0.8609641 -0.1988644
v -0.2835486 0.7469729 -0.3267238
v -0.1908196 0.9578171 -0.1376418
v -0.5058646 0.8687181 -8.403304E-16
v -0.4356188 0.6875906 -0.2186341
v -0.5111048 0.6562465 -8.403304E-16
v -0.3639928 0.5701429 -0.2302438
v -0.4437829 0.4585685 -8.403304E-16
v -0.1619029 0.5199577 -0.2612561
v -0.3009024 0.4233268 -8.403305E-16
v -0.103089 0.3669406 -0.2313293
v -0.2042955 0.3437476 -8.403303E-16
v 0.1247509 0.3335768 -0.403388
v -0.0961533 0.276433 -0.2303165
v -0.1606689 0.2627247 -8.403305E-16
v -0.1619554 0.1174484 -0.1064778
v 0.01829773 0.1037273 -0.2093142
v 0.0711838 0.673935 -0.27
v -0.1009035 0.7789109 -0.27
v 0.09832478 0.7346197 -8.403303E-16
v -0.02556748 0.8093091 -8.403304E-16
v -0.09249282 0.9477164 -8.403304E-16
v 0.2506811 0.7609423 -8.403304E-16
v 0.2951401 0.7197319 -0.1800959
v 0.3754855 0.861117 -8.403304E-16
v 0.4045022 0.5702954 -0.252525
v 0.4871363 0.6074979 -8.403304E-16
v 0.3754855 0.861117 -8.403304E-16
v 0.5110129 0.3096778 -8.403304E-16
v 0.3776285 0.3526721 -0.2378335
v 0.4126395 0.1298586 -8.403304E-16
v 0.300253 0.220817 -0.2297612
v 0.1891136 0.00369966 -8.403303E-16
v 0.1694756 0.1451811 -0.2217343
v -0.00424432 -0.0004655123 -8.403303E-16
v -0.1224182 0.02205992 -8.403303E-16
v -0.1619554 0.1174484 -0.1064778
v -0.2823822 0.1401519 -8.403303E-16
v -0.2063668 0.1671188 -8.403304E-16
v -0.1619554 0.1174484 -0.1064778
v -0.2823822 0.1401519 -8.403303E-16
v -0.1606689 0.2627247 -8.403305E-16
v -0.1908196 0.9578171 -0.1376418
v -0.04233724 1.165861 -0.112649
v -0.01035197 1.134009 -8.403304E-16
v 0.1156531 1.283276 -0.1417333
v 0.1158817 1.257939 -8.403304E-16
v 0.2444658 1.293409 -0.1158435
v 0.2806262 1.257295 -8.403304E-16
v 0.3289069 1.37276 -0.1003683
v 0.3667408 1.348809 -8.403303E-16
v 0.1156531 1.283276 -0.1417333
v 0.3289069 1.37276 -0.1003683
v 0.3490338 1.514321 -8.403303E-16
v -0.04233724 1.165861 -0.112649
v 0.3289069 1.37276 -0.1003683
v 0.2979997 1.391145 -8.403304E-16
v 0.1350828 1.343931 -0.09513049
v 0.1156531 1.283276 -0.1417333
v 0.138474 1.359871 -8.403304E-16
v 0.01502534 1.413507 -1.68066E-15
v -0.01870573 1.456442 -0.1064927
v -0.02532978 1.562712 -8.403303E-16
v 0.07598598 2.049321 -3.308722E-24
v 0.08337741 2.059879 -0.04129966
v 0.1015612 2.012782 -3.308722E-24
v 0.03502635 2.065704 -3.308722E-24
v 0.03477634 2.101586 -0.03989985
v -0.003306495 2.031316 -3.308722E-24
v -0.02917526 2.077937 -0.04890855
v -0.03749576 1.961142 -3.308722E-24
v -0.04821827 2.081954 -3.308722E-24
v -0.03509766 2.141263 -3.308722E-24
v -0.004098714 2.131345 -3.308722E-24
v 0.04285383 2.131327 -3.308722E-24
v 0.03477634 2.101586 -0.03989985
v -0.02917526 2.077937 -0.04890855
v 0.08334887 2.092506 -3.308722E-24
v 0.08337741 2.059879 -0.04129966
v 0.09028446 2.062669 -3.308722E-24
v 0.1015612 2.012782 -3.308722E-24
vt 0.1451666 0.08757666
vt 0.1456475 0.09318952
vt 0.1457451 0.08915316
vt 0.1459009 0.0856747
vt 0.1463763 0.08280621
vt 0.1467258 0.07969565
vt 0.1470807 0.08253253
vt 0.1476762 0.08432355
vt 0.1480039 0.08206109
vt 0.1479941 0.07844261
vt 0.14736 0.07703683
vt 0.1471746 0.07519075
vt 0.1466183 0.07239272
vt 0.1476038 0.07043589
vt 0.1469136 0.06785762
vt 0.146342 0.06783336
vt 0.1457941 0.06909765
vt 0.146081 0.07383829
vt 0.1459102 0.07818712
vt 0.1455653 0.08370211
vt 0.1454071 0.08100966
vt 0.1448094 0.08069901
vt 0.1446706 0.08290456
vt 0.1449922 0.08463991
vt 0.1449418 0.08748347
vt 0.1451666 0.08757666
vt 0.1445528 0.08994455
vt 0.1446113 0.09215343
vt 0.1446676 0.09429019
vt 0.1450617 0.09182751
vt 0.1453986 0.09167794
vt 0.1456475 0.09318952
vt 0.146595 0.1028011
vt 0.1466506 0.104529
vt 0.1467431 0.103611
vt 0.1470354 0.104348
vt 0.1470133 0.1049337
vt 0.1475329 0.1048183
vt 0.147517 0.1043055
vt 0.1474583 0.1053238
vt 0.1473218 0.1057466
vt 0.1469622 0.1054954
vt 0.1466294 0.1059
vt 0.1464455 0.1064148
vt 0.1464246 0.1050387
vt 0.1464869 0.1037278
vt 0.146595 0.1028011
vt 0.4604051 0.2583895
vt 0.4630902 0.2584128
vt 0.4620952 0.2583153
vt 0.4640687 0.2583296
vt 0.4652565 0.2584648
vt 0.4658715 0.2583811
vt 0.4658715 0.2583811
vt 0.4652565 0.2584648
vt 0.4704319 0.2583295
vt 0.4704319 0.2583295
vt 0.4687222 0.258316
vt 0.472403 0.2580028
vt 0.4756884 0.2578065
vt 0.4740676 0.2576656
vt 0.4727372 0.2570531
vt 0.4722306 0.257243
vt 0.4686425 0.2571261
vt 0.4741547 0.2568095
vt 0.4781353 0.2569191
vt 0.4810154 0.2574798
vt 0.4756884 0.2578065
vt 0.4779392 0.2566965
vt 0.4825157 0.2569441
vt 0.4833077 0.2566781
vt 0.4854835 0.2571964
vt 0.4883023 0.2569151
vt 0.486751 0.2579082
vt 0.4891926 0.2574186
vt 0.4906171 0.2581158
vt 0.4912029 0.2577591
vt 0.4914601 0.258918
vt 0.492904 0.2581398
vt 0.4932502 0.2579129
vt 0.4969209 0.2579081
vt 0.4972676 0.2585433
vt 0.4828605 0.2587293
vt 0.4802088 0.2581232
vt 0.4813276 0.2588252
vt 0.4794405 0.2583888
vt 0.4759434 0.2581528
vt 0.4806624 0.2593617
vt 0.4817036 0.2595186
vt 0.4781316 0.2598015
vt 0.4854794 0.2599038
vt 0.4845397 0.2601948
vt 0.4781316 0.2598015
vt 0.4920639 0.2602789
vt 0.4909777 0.259809
vt 0.4966075 0.2599324
vt 0.4943093 0.2595367
vt 0.4997946 0.2591448
vt 0.4962202 0.2590756
vt 0.4998997 0.258464
vt 0.4993308 0.2580476
vt 0.4969209 0.2579081
vt 0.4963473 0.2574837
vt 0.4956653 0.2577516
vt 0.4969209 0.2579081
vt 0.4963473 0.2574837
vt 0.4932502 0.2579129
vt 0.4756884 0.2578065
vt 0.4704319 0.2583295
vt 0.4712368 0.2584422
vt 0.4674655 0.2588861
vt 0.4681054 0.2588871
vt 0.4672094 0.2593398
vt 0.4681213 0.2594675
vt 0.4652044 0.2596374
vt 0.4658095 0.2597708
vt 0.4674655 0.2588861
vt 0.4652044 0.2596374
vt 0.4616279 0.2597082
vt 0.4704319 0.2583295
vt 0.4652044 0.2596374
vt 0.4647401 0.2595286
vt 0.4659328 0.2589548
vt 0.4674655 0.2588861
vt 0.4655301 0.2589664
vt 0.464175 0.2585317
vt 0.4630902 0.2584128
vt 0.4604051 0.2583895
vt 0.4487883 0.258939
vt 0.4485058 0.2589513
vt 0.4500377 0.2590619
vt 0.4478185 0.2587084
vt 0.4468676 0.2586684
vt 0.4486129 0.2585089
vt 0.4474032 0.2583898
vt 0.4511192 0.2583778
vt 0.4472858 0.2583089
vt 0.4457881 0.2583559
vt 0.446051 0.2584753
vt 0.44609 0.2586746
vt 0.4468676 0.2586684
vt 0.4474032 0.2583898
vt 0.4471558 0.2588912
vt 0.4485058 0.2589513
vt 0.4484462 0.2589853
vt 0.4500377 0.2590619
vn 0.01229144 -0.08427884 0.9963664
vn -0.01762488 0.0589433 0.9981058
vn -0.5635561 0.1579688 0.810833
vn -0.5422534 -0.6579328 0.5225761
vn -0.4809875 -0.7138103 0.5090441
vn -0.01642142 -0.07392669 0.9971284
vn 0.1953111 -0.7367253 0.6473712
vn -0.1650556 -0.2705771 0.9484433
vn -0.2460097 -0.08039515 0.9659274
vn -0.2530646 0.1013096 0.9621302
vn -0.2181112 0.4433395 0.8694122
vn -0.4670722 -0.04446593 0.8831003
vn 0.002553497 0.09034037 0.9959077
vn -0.3142912 0.08541714 0.9454761
vn -0.1372544 0.4252354 0.894615
vn 0.08010611 0.4481837 0.8903451
vn 0.3219213 0.1374222 0.93674
vn 0.5428731 -0.02252486 0.8395127
vn 0.3461507 0.3500764 0.8704172
vn 0.2222788 0.3315286 0.9168864
vn 0.2029029 0.5491875 0.8106933
vn 0.2403266 0.2967248 0.9242281
vn 0.3686982 -0.01099133 0.9294842
vn 0.5662542 -0.07473627 0.8208354
vn 0.7898742 0.405005 0.4605102
vn 0.01229144 -0.08427884 0.9963664
vn 0.5540463 0.002283773 0.8324828
vn 0.407416 -0.1762161 0.8960805
vn 0.2406856 -0.233931 0.9419908
vn -0.5451653 -0.3660593 0.7541853
vn 0.4955034 -0.5185807 0.6968144
vn -0.01762488 0.0589433 0.9981058
vn 0.07052059 0.6435192 0.7621745
vn 0.08483494 0.01423549 0.9962934
vn -0.3899924 0.7246002 0.5682081
vn -0.2088255 0.6754125 0.7072551
vn -0.1894789 0.02537268 0.9815569
vn -0.2042864 0.4847754 0.8504469
vn -0.1584913 0.6092377 0.7769878
vn -0.2821743 -0.4873721 0.826345
vn -0.1048165 -0.7934154 0.5995877
vn -0.03239635 -0.8327497 0.552701
vn -0.2484834 -0.7260503 0.6411763
vn 0.3548893 -0.4628544 0.8122926
vn 0.7788505 0.02091361 0.6268608
vn 0.763536 0.2712924 0.5860146
vn 0.07052059 0.6435192 0.7621745
vn -0.8316661 -0.4000471 0.3850895
vn -0.7429993 -0.3153408 0.5903494
vn 0.9431436 -0.1455278 0.298834
vn 0.9613257 0.1328416 0.2412591
vn 0.3525305 -0.5024315 0.789484
vn 0.9812425 -0.07865815 0.1760002
vn 0.9812425 -0.07865815 0.1760002
vn 0.3525305 -0.5024315 0.789484
vn -0.3202831 0.4534886 0.8317252
vn -0.3202831 0.4534886 0.8317252
vn 0.9506912 -0.2461571 0.1886611
vn 0.7376279 -0.6017684 0.306235
vn -0.5253304 -0.5516356 0.6478627
vn -0.2266812 -0.8859927 0.4045152
vn 0.3370654 -0.6673425 0.6641091
vn -0.5488665 -0.7328337 0.4021199
vn 0.2568857 -0.4972411 0.8287104
vn 0.8835353 -0.2881939 0.3692015
vn 0.794655 -0.2234934 0.5644237
vn 0.1041713 -0.2483277 0.9630585
vn -0.5253304 -0.5516356 0.6478627
vn 0.9331592 -0.1254759 0.3368528
vn 0.8580933 0.1604168 0.4877933
vn 0.9105167 0.1860532 0.3692471
vn 0.5188563 0.621662 0.5867917
vn 0.5587138 0.6782335 0.4773239
vn 0.5401753 0.5898965 0.600194
vn 0.4373558 0.7548584 0.4887829
vn 0.7266347 0.3917158 0.5644119
vn 0.7746261 0.4555775 0.4386384
vn -0.0968526 0.02967153 0.9948564
vn 0.7530054 0.2175574 0.6210085
vn 0.9390606 -0.01015265 0.3436015
vn 0.6805709 0.4285257 0.5942971
vn 0.1477167 0.7480893 0.6469484
vn -0.2765747 -0.6381771 0.7184959
vn -0.4833752 -0.6914694 0.5368598
vn -0.2003859 -0.9490995 0.2430135
vn -0.6331934 -0.7161576 0.2935716
vn -0.8762775 -0.1446779 0.4595716
vn 0.2432239 -0.9369613 0.2508895
vn -0.3451163 -0.7224451 0.5991392
vn -0.5827823 -0.6210654 0.5240634
vn -0.7138042 -0.2464767 0.6555401
vn -0.8620989 -0.2248522 0.4541222
vn -0.5827823 -0.6210654 0.5240634
vn -0.8632488 0.200897 0.4630788
vn -0.7944353 0.1940982 0.5754985
vn -0.5933688 0.6098887 0.5253086
vn -0.5560008 0.5884309 0.5870367
vn -0.270868 0.8171575 0.5088065
vn -0.2744619 0.7708969 0.5747944
vn 0.06112664 0.8605446 0.5056942
vn 0.3163156 0.8080025 0.4970677
vn 0.6805709 0.4285257 0.5942971
vn 0.6550382 0.3607058 0.66394
vn 0.8560881 -0.3589312 0.3718622
vn 0.6805709 0.4285257 0.5942971
vn 0.6550382 0.3607058 0.66394
vn 0.9390606 -0.01015265 0.3436015
vn -0.5253304 -0.5516356 0.6478627
vn -0.3202831 0.4534886 0.8317252
vn -0.7235418 0.5703391 0.3888453
vn -0.2394714 0.491143 0.8375154
vn -0.3932501 0.8834587 0.2546665
vn -0.2633517 0.6535514 0.7095889
vn -0.3675365 0.866038 0.3389621
vn -0.5165809 -0.3545471 0.7793847
vn -0.8219668 0.3992605 0.4061547
vn -0.2394714 0.491143 0.8375154
vn -0.5165809 -0.3545471 0.7793847
vn -0.3169112 -0.5181751 0.794394
vn -0.3202831 0.4534886 0.8317252
vn -0.5165809 -0.3545471 0.7793847
vn 0.385272 -0.8875654 0.252573
vn -0.0274685 -0.7400199 0.6720238
vn -0.2394714 0.491143 0.8375154
vn -0.05118339 -0.9694433 0.2399167
vn -0.7163523 -0.6416911 0.2739926
vn -0.7429993 -0.3153408 0.5903494
vn -0.8316661 -0.4000471 0.3850895
vn 0.581614 0.6967097 0.4199058
vn -0.1656769 0.2172673 0.9619491
vn -0.4094227 0.5070391 0.7584751
vn -0.07629672 0.7357315 0.6729622
vn -0.2397371 -0.2332693 0.9423968
vn -0.5482855 0.4758338 0.6877246
vn 0.2364854 0.1265651 0.9633566
vn 0.209119 0.3650045 0.9072161
vn 0.9312554 -0.01685194 0.3639773
vn 0.3439284 -0.5536093 0.7584392
vn 0.03641308 -0.7220227 0.6909106
vn -0.2051986 -0.737487 0.6434333
vn -0.2397371 -0.2332693 0.9423968
vn 0.2364854 0.1265651 0.9633566
vn -0.6089662 -0.6031989 0.5150836
vn -0.1656769 0.2172673 0.9619491
vn -0.9597728 -0.2193043 0.1753335
vn -0.4094227 0.5070391 0.7584751
g fireBlue12_mesh_0
f 3/3/3 2/2/2 1/1/1
f 4/4/4 3/3/3 1/1/1
f 5/5/5 4/4/4 1/1/1
f 6/6/6 5/5/5 1/1/1
f 7/7/7 5/5/5 6/6/6
f 8/8/8 7/7/7 6/6/6
f 9/9/9 8/8/8 6/6/6
f 9/9/9 6/6/6 10/10/10
f 10/10/10 6/6/6 11/11/11
f 11/11/11 6/6/6 12/12/12
f 12/12/12 6/6/6 13/13/13
f 14/14/14 12/12/12 13/13/13
f 14/14/14 13/13/13 15/15/15
f 13/13/13 16/16/16 15/15/15
f 16/16/16 13/13/13 17/17/17
f 17/17/17 13/13/13 18/18/18
f 18/18/18 13/13/13 19/19/19
f 19/19/19 13/13/13 6/6/6
f 19/19/19 6/6/6 20/20/20
f 21/21/21 19/19/19 20/20/20
f 21/21/21 20/20/20 22/22/22
f 22/22/22 20/20/20 23/23/23
f 23/23/23 20/20/20 24/24/24
f 20/20/20 6/6/6 1/1/1
f 20/20/20 1/1/1 24/24/24
f 24/24/24 26/26/26 25/25/25
f 25/25/25 26/26/26 27/27/27
f 28/28/28 27/27/27 1/1/1
f 28/28/28 1/1/1 29/29/29
f 30/30/30 29/29/29 1/1/1
f 31/31/31 30/30/30 1/1/1
f 26/26/26 32/32/32 31/31/31
f 35/35/35 34/34/34 33/33/33
f 35/35/35 36/36/36 34/34/34
f 34/34/34 36/36/36 37/37/37
f 37/37/37 36/36/36 38/38/38
f 36/36/36 39/39/39 38/38/38
f 37/37/37 38/38/38 40/40/40
f 37/37/37 40/40/40 41/41/41
f 42/42/42 37/37/37 41/41/41
f 34/34/34 37/37/37 42/42/42
f 43/43/43 34/34/34 42/42/42
f 43/43/43 44/44/44 34/34/34
f 44/44/44 45/45/45 34/34/34
f 45/45/45 46/46/46 34/34/34
f 46/46/46 47/47/47 34/34/34
f 50/50/50 49/49/49 48/48/48
f 51/51/51 49/49/49 50/50/50
f 52/52/52 49/49/49 51/51/51
f 53/53/53 52/52/52 51/51/51
f 56/56/56 55/55/55 54/54/54
f 58/58/58 57/57/57 54/54/54
f 59/59/59 57/57/57 58/58/58
f 60/60/60 57/57/57 59/59/59
f 61/61/61 60/60/60 59/59/59
f 62/62/62 60/60/60 61/61/61
f 63/63/63 62/62/62 61/61/61
f 64/64/64 62/62/62 63/63/63
f 65/65/65 62/62/62 64/64/64
f 66/66/66 62/62/62 65/65/65
f 66/66/66 67/67/67 62/62/62
f 62/62/62 67/67/67 68/68/68
f 69/69/69 66/66/66 65/65/65
f 70/70/70 66/66/66 69/69/69
f 70/70/70 67/67/67 66/66/66
f 71/71/71 70/70/70 69/69/69
f 72/72/72 70/70/70 71/71/71
f 72/72/72 67/67/67 70/70/70
f 73/73/73 72/72/72 71/71/71
f 74/74/74 72/72/72 73/73/73
f 74/74/74 67/67/67 72/72/72
f 75/75/75 74/74/74 73/73/73
f 76/76/76 74/74/74 75/75/75
f 77/77/77 76/76/76 75/75/75
f 76/76/76 78/78/78 74/74/74
f 67/67/67 74/74/74 78/78/78
f 79/79/79 76/76/76 77/77/77
f 79/79/79 78/78/78 76/76/76
f 80/80/80 79/79/79 77/77/77
f 81/81/81 78/78/78 79/79/79
f 82/82/82 78/78/78 81/81/81
f 67/67/67 78/78/78 83/83/83
f 84/84/84 67/67/67 83/83/83
f 68/68/68 67/67/67 84/84/84
f 84/84/84 83/83/83 85/85/85
f 86/86/86 84/84/84 85/85/85
f 60/60/60 84/84/84 86/86/86
f 87/87/87 68/68/68 86/86/86
f 85/85/85 83/83/83 88/88/88
f 83/83/83 89/89/89 88/88/88
f 83/83/83 78/78/78 89/89/89
f 88/88/88 89/89/89 90/90/90
f 89/89/89 78/78/78 91/91/91
f 89/89/89 91/91/91 92/92/92
f 93/93/93 89/89/89 92/92/92
f 92/92/92 91/91/91 94/94/94
f 91/91/91 95/95/95 94/94/94
f 91/91/91 78/78/78 95/95/95
f 94/94/94 95/95/95 96/96/96
f 95/95/95 97/97/97 96/96/96
f 95/95/95 78/78/78 97/97/97
f 96/96/96 97/97/97 98/98/98
f 97/97/97 78/78/78 99/99/99
f 97/97/97 99/99/99 98/98/98
f 98/98/98 99/99/99 100/100/100
f 99/99/99 78/78/78 82/82/82
f 99/99/99 82/82/82 100/100/100
f 100/100/100 82/82/82 101/101/101
f 82/82/82 102/102/102 101/101/101
f 101/101/101 102/102/102 103/103/103
f 106/106/106 105/105/105 104/104/104
f 104/104/104 105/105/105 107/107/107
f 105/105/105 79/79/79 107/107/107
f 109/109/109 108/108/108 87/87/87
f 110/110/110 109/109/109 87/87/87
f 111/111/111 109/109/109 110/110/110
f 112/112/112 111/111/111 110/110/110
f 113/113/113 111/111/111 112/112/112
f 114/114/114 113/113/113 112/112/112
f 115/115/115 113/113/113 114/114/114
f 116/116/116 115/115/115 114/114/114
f 113/113/113 118/118/118 117/117/117
f 119/119/119 118/118/118 116/116/116
f 55/55/55 120/120/120 117/117/117
f 122/122/122 121/121/121 119/119/119
f 123/123/123 121/121/121 122/122/122
f 121/121/121 123/123/123 124/124/124
f 123/123/123 55/55/55 124/124/124
f 125/125/125 123/123/123 122/122/122
f 55/55/55 123/123/123 125/125/125
f 126/126/126 55/55/55 125/125/125
f 127/127/127 55/55/55 126/126/126
f 128/128/128 127/127/127 126/126/126
f 131/131/131 130/130/130 129/129/129
f 129/129/129 130/130/130 132/132/132
f 130/130/130 133/133/133 132/132/132
f 132/132/132 133/133/133 134/134/134
f 133/133/133 135/135/135 134/134/134
f 134/134/134 135/135/135 136/136/136
f 136/136/136 135/135/135 137/137/137
f 137/137/137 135/135/135 138/138/138
f 138/138/138 135/135/135 139/139/139
f 139/139/139 135/135/135 140/140/140
f 142/142/142 141/141/141 140/140/140
f 140/140/140 141/141/141 143/143/143
f 141/141/141 144/144/144 143/143/143
f 143/143/143 144/144/144 145/145/145
f 145/145/145 144/144/144 146/146/146
