g fireBlue15_mesh
v -0.320379 1.133234 2.235174E-08
v -0.3237938 1.242508 2.235174E-08
v -0.2750011 1.029285 -0.0851756
v -0.3579422 1.075181 2.235174E-08
v -0.2617494 0.912196 -0.08630012
v -0.3884263 1.049396 2.235174E-08
v -0.2617494 0.912196 -0.08630012
v -0.3487696 0.9288728 2.235174E-08
v -0.3119286 0.8586543 2.235174E-08
v -0.2352127 0.8635808 2.235174E-08
v -0.1698145 0.864285 -0.02502087
v -0.2617494 0.912196 -0.08630012
v -0.2339511 0.9231439 -0.01127877
v -0.2611843 1.077644 -0.006713344
v -0.2750011 1.029285 -0.0851756
v -0.3237938 1.242508 2.235174E-08
v -0.01620727 0.7735839 -0.0851756
v 0.01121678 0.9097793 6.705523E-08
v 0.0540922 0.9175752 6.705523E-08
v -0.01620727 0.7735839 -0.0851756
v -0.0577449 0.8557808 -0.09567146
v 0.0228971 0.8093702 6.705523E-08
v 0.04637796 0.6741723 6.705523E-08
v 0.04891039 0.6050596 -0.0851756
v 0.1454452 0.5428882 6.705523E-08
v 0.1611052 0.3146998 -0.0851756
v 0.04891039 0.6050596 -0.0851756
v 0.3736337 0.618951 6.705523E-08
v 0.3989432 0.4151094 6.705523E-08
v 0.3358874 0.219419 6.705523E-08
v 0.2393855 0.2186819 6.705523E-08
v 0.1497255 0.1723206 6.705523E-08
v 0.120628 0.08895871 6.705523E-08
v -0.02097786 0.08823639 6.705523E-08
v -0.2291664 0.1679572 6.705523E-08
v -0.3429944 0.2678558 6.705523E-08
v -0.05935355 0.331883 6.705523E-08
v -0.008527696 0.4810703 6.705523E-08
v 0.04891039 0.6050596 -0.0851756
v -0.006680313 0.6636938 7.450581E-09
v 0.04891039 0.6050596 -0.0851756
v -0.01620727 0.7735839 -0.0851756
v -0.07031281 0.7902501 7.450581E-09
v -0.1192405 0.8474271 -0.02820559
v -0.0577449 0.8557808 -0.09567146
v -0.1196506 0.1655348 -0.2137354
v -0.2659378 0.1991933 -0.1772071
v -0.3298201 0.2804825 -0.1394323
v -0.1410758 0.322595 -0.2229031
v 0.1968579 0.3836342 -0.3735999
v -0.05898638 0.4574571 -0.219374
v 0.09641905 0.1184939 -0.1803993
v -0.03574082 0.6273122 -0.2377623
v 0.0394099 0.8020426 -0.3024459
v -0.1440323 0.4808701 -1.240776E-14
v -0.1320368 0.6259212 -1.240775E-14
v -0.2203294 0.3719666 -1.240776E-14
v -0.3298201 0.2804825 -0.1394323
v -0.3317062 0.3429616 -1.240775E-14
v -0.451383 0.3398677 -1.240775E-14
v -0.1954127 0.7358805 -1.240776E-14
v -0.1466017 0.8044419 -0.2400025
v -0.3380746 0.8015029 -1.240776E-14
v -0.2613045 1.0714 -0.1719762
v -0.2782874 0.9017588 -0.1901276
v -0.4221328 0.93635 -1.240775E-14
v -0.3331666 1.006047 -0.1552835
v -0.4277675 1.124079 -1.240776E-14
v -0.3518478 1.109725 -0.1656919
v -0.3749682 1.276196 -1.240775E-14
v -0.3243212 1.233514 -0.1467008
v -0.372957 1.445725 -1.240775E-14
v -0.2843609 1.256874 -2.481551E-14
v -0.2118715 1.105466 -1.240775E-14
v -0.06458732 1.06365 -1.240775E-14
v -0.07667613 0.9940715 -0.2313087
v 0.04564435 1.10811 -1.240775E-14
v 0.05163847 1.014392 -0.1709889
v 0.08264339 1.222806 -1.240775E-14
v 0.1303049 0.8669027 -0.2306692
v 0.2581199 0.7368652 -0.2542334
v 0.2092382 0.9069731 -1.240776E-14
v 0.1267485 1.038734 -1.240775E-14
v 0.08264339 1.222806 -1.240775E-14
v 0.3420112 0.8137543 -1.240775E-14
v 0.462051 0.710894 -1.240776E-14
v 0.3585038 0.6266012 -0.2501466
v 0.5421795 0.5386649 -1.240775E-14
v 0.4289606 0.4917847 -0.253037
v 0.5318478 0.3287053 -1.240776E-14
v 0.4229239 0.3617222 -0.253847
v 0.4702945 0.1621754 -1.240775E-14
v 0.3701287 0.2251956 -0.2432946
v 0.3747179 0.09603617 -1.240775E-14
v 0.2388441 0.2235693 -0.2454942
v 0.2838213 0.1162656 -1.240775E-14
v 0.209606 0.09079173 -1.240776E-14
v 0.1821165 0.002041459 -1.240776E-14
v -0.006714589 -0.0009914637 -1.240775E-14
v -0.2233011 0.07475436 -1.240776E-14
v -0.362259 0.183023 -1.240776E-14
v -0.2659378 0.1991933 -0.1772071
v -0.415155 0.2682765 -1.240776E-14
v -0.2659378 0.1991933 -0.1772071
v -0.3298201 0.2804825 -0.1394323
v -0.451383 0.3398677 -1.240775E-14
v 0.09431319 1.713592 -0.03354557
v 0.1009073 1.72678 -1.240775E-14
v 0.1721807 1.688678 -1.240775E-14
v 0.05624126 1.752707 -0.03354557
v 0.09373757 1.758785 -1.240776E-14
v 0.1012979 1.869792 -2.477714E-14
v 0.02956184 1.762834 -1.240775E-14
v 0.008766811 1.60846 -1.240775E-14
v 0.06303959 1.715175 -1.240775E-14
v 0.09431319 1.713592 -0.03354557
v 0.08451167 1.69058 -1.240775E-14
v 0.1721807 1.688678 -1.240775E-14
v 0.04142069 2.150733 -1.102908E-24
v 0.07074371 2.146246 -0.04129966
v 0.1020147 2.135356 -1.102908E-24
v 0.03480273 2.155822 -0.03989985
v -0.0241647 2.156679 -0.04890855
v -0.03174235 2.143067 -1.102908E-24
v -0.04710426 2.160195 -1.102908E-24
v 0.1020147 2.135356 -1.102908E-24
v 0.07074371 2.146246 -0.04129966
v 0.09261245 2.153354 -1.102908E-24
v 0.03480273 2.155822 -0.03989985
v 0.03620738 2.171095 -1.102908E-24
v -0.0241647 2.156679 -0.04890855
v -0.03036644 2.179278 -1.102908E-24
v -0.04710426 2.160195 -1.102908E-24
vt 0.1450735 0.1007773
vt 0.1450594 0.1031932
vt 0.1452618 0.09847957
vt 0.1449178 0.09949394
vt 0.1453166 0.09589159
vt 0.1447914 0.09892425
vt 0.1453166 0.09589159
vt 0.1449558 0.09625988
vt 0.1451087 0.09470776
vt 0.1454266 0.09481756
vt 0.1456978 0.09483235
vt 0.1453166 0.09589159
vt 0.145432 0.09613406
vt 0.145319 0.09954847
vt 0.1452618 0.09847957
vt 0.1450594 0.1031932
vt 0.1463348 0.08779787
vt 0.1464485 0.09175027
vt 0.1466261 0.09197897
vt 0.1463348 0.08779787
vt 0.1461624 0.09018508
vt 0.1464969 0.08883774
vt 0.1465942 0.08491597
vt 0.1466045 0.08291069
vt 0.1470049 0.08111094
vt 0.1470698 0.07448969
vt 0.1466045 0.08291069
vt 0.147951 0.08333105
vt 0.148056 0.07744575
vt 0.1477945 0.07184066
vt 0.1473944 0.07171892
vt 0.1470226 0.07035904
vt 0.146902 0.06793985
vt 0.1463149 0.06792393
vt 0.1454518 0.07028199
vt 0.1449799 0.07317956
vt 0.1461559 0.07498157
vt 0.1463666 0.07931159
vt 0.1466045 0.08291069
vt 0.1463742 0.08460937
vt 0.1466045 0.08291069
vt 0.1463348 0.08779787
vt 0.1461104 0.08828463
vt 0.1459074 0.08994646
vt 0.1461624 0.09018508
vt 0.4957062 0.2580574
vt 0.4948553 0.2575417
vt 0.4928018 0.2573168
vt 0.4917378 0.2579818
vt 0.4901955 0.2591722
vt 0.4883302 0.2582709
vt 0.4968947 0.2588184
vt 0.4840387 0.2583528
vt 0.4796239 0.2586175
vt 0.4877385 0.2579713
vt 0.484074 0.2580136
vt 0.4904902 0.2577025
vt 0.4928018 0.2573168
vt 0.4912233 0.2573104
vt 0.4913013 0.2568889
vt 0.4812959 0.2577903
vt 0.4795636 0.2579622
vt 0.4796372 0.2572877
vt 0.4728182 0.257558
vt 0.4771045 0.2574983
vt 0.4762305 0.2569916
vt 0.4744699 0.2573053
vt 0.4714876 0.2569716
vt 0.4718501 0.2572391
vt 0.4676442 0.257158
vt 0.4687226 0.2573363
vt 0.4633608 0.257165
vt 0.4681324 0.2574768
vt 0.4719578 0.2577324
vt 0.4730141 0.2582517
vt 0.4747724 0.2582086
vt 0.4718908 0.2586393
vt 0.4742589 0.2586606
vt 0.4689932 0.2587698
vt 0.4779853 0.2589377
vt 0.4812708 0.2593879
vt 0.4769728 0.2592158
vt 0.473644 0.2589252
vt 0.4689932 0.2587698
vt 0.4793283 0.2596835
vt 0.4819271 0.2601066
vt 0.4840567 0.2597418
vt 0.4862783 0.2603889
vt 0.4874626 0.2599897
vt 0.4915832 0.2603521
vt 0.4907491 0.2599685
vt 0.4957908 0.2601354
vt 0.4941989 0.2597826
vt 0.4974617 0.2597988
vt 0.4942397 0.25932
vt 0.4969508 0.2594788
vt 0.4975942 0.2592171
vt 0.4998366 0.2591202
vt 0.4999132 0.2584553
vt 0.4979995 0.2576919
vt 0.4952643 0.2572026
vt 0.4948553 0.2575417
vt 0.49311 0.2570159
vt 0.4948553 0.2575417
vt 0.4928018 0.2573168
vt 0.4913013 0.2568889
vt 0.4565932 0.258811
vt 0.45626 0.2588342
vt 0.4572224 0.2590851
vt 0.4556049 0.2586769
vt 0.4554513 0.258809
vt 0.4526468 0.2588356
vt 0.4553489 0.2585829
vt 0.4592492 0.2585094
vt 0.4565533 0.2587008
vt 0.4565932 0.258811
vt 0.4571743 0.2587764
vt 0.4572224 0.2590851
vt 0.4455485 0.2586244
vt 0.4456611 0.2587278
vt 0.445937 0.2588379
vt 0.4454198 0.2586011
vt 0.4453978 0.2583938
vt 0.4457419 0.2583669
vt 0.445309 0.2583128
vt 0.445937 0.2588379
vt 0.4456611 0.2587278
vt 0.4454824 0.2588048
vt 0.4454198 0.2586011
vt 0.4450338 0.2586062
vt 0.4453978 0.2583938
vt 0.4448269 0.2583718
vt 0.445309 0.2583128
vn 0.8323655 -0.085355 0.5476152
vn -0.1544744 -0.3967932 0.9048164
vn -0.5365854 -0.1953043 0.8209338
vn 0.5147253 -0.2590125 0.8172945
vn -0.4300571 0.1388635 0.8920581
vn 0.4843842 -0.0994904 0.8691799
vn -0.4300571 0.1388635 0.8920581
vn 0.7039938 0.2662137 0.6584245
vn 0.4295347 0.6339867 0.643087
vn -0.2929837 0.5884441 0.7535875
vn -0.4823403 0.1728309 0.8587649
vn -0.4300571 0.1388635 0.8920581
vn -0.8870283 -0.08141465 0.4544804
vn -0.9025959 -0.2598091 0.3432489
vn -0.5365854 -0.1953043 0.8209338
vn -0.1544744 -0.3967932 0.9048164
vn 0.03854362 0.3256754 0.9446957
vn -0.2109126 -0.4874296 0.8473065
vn -0.4673865 -0.2698089 0.8418746
vn 0.03854362 0.3256754 0.9446957
vn 0.1694049 0.3655447 0.9152482
vn -0.9180565 0.07804143 0.3886924
vn -0.8545554 -0.3799757 0.3540528
vn 0.09108584 -0.1440977 0.9853625
vn -0.2632401 -0.3740064 0.8892828
vn -0.02569174 0.03737254 0.9989711
vn 0.09108584 -0.1440977 0.9853625
vn -0.1155891 -0.192084 0.9745476
vn -0.3395755 0.006487764 0.9405564
vn -0.3452812 0.1884897 0.9193762
vn -0.1213994 0.601477 0.7896123
vn -0.651612 0.4271028 0.6268851
vn -0.04688711 0.3599826 0.93178
vn 0.0832325 0.2914929 0.952945
vn 0.1363207 0.2005626 0.9701502
vn 0.1611274 0.05754115 0.9852548
vn 0.2565469 -0.5716704 0.7793437
vn 0.5634887 0.09146808 0.8210446
vn 0.09108584 -0.1440977 0.9853625
vn 0.8671919 0.2318204 0.440724
vn 0.09108584 -0.1440977 0.9853625
vn 0.03854362 0.3256754 0.9446957
vn 0.7236252 0.5115101 0.4633832
vn 0.6707706 0.5678607 0.4770754
vn 0.1694049 0.3655447 0.9152482
vn 0.2672951 0.6290761 0.7299427
vn 0.4976757 0.5113773 0.70058
vn 0.6127991 -0.3993981 0.6818786
vn 0.5568182 -0.3222771 0.7655658
vn 0.01383155 0.1048625 0.9943905
vn 0.7484803 -0.2289737 0.622373
vn -0.03925 0.7753698 0.6302866
vn 0.7501705 0.1613315 0.6412616
vn 0.06855182 -0.1674184 0.9834998
vn 0.8763378 -0.2942825 0.3813528
vn 0.9021097 0.2408025 0.3580673
vn 0.5694693 -0.7314714 0.375039
vn 0.6127991 -0.3993981 0.6818786
vn 0.2422461 -0.9006349 0.3607956
vn 0.5221103 -0.5194551 0.6764372
vn 0.6889203 0.6210833 0.37369
vn 0.6047093 0.3908096 0.6939701
vn 0.6355623 0.6110953 0.4718296
vn -0.3908923 -0.7033821 0.5936806
vn 0.6076883 0.4890987 0.6256975
vn 0.8246883 0.2609986 0.5017658
vn 0.7916726 0.2004437 0.5771281
vn 0.8910403 -0.09178976 0.4445468
vn 0.8103848 -0.08430694 0.5798008
vn 0.9099684 -0.1722727 0.3771998
vn -0.1174097 -0.6531035 0.7481115
vn -0.1110994 -0.5822297 0.8053976
vn -0.8627551 -0.400597 0.3085052
vn -0.5617455 -0.7639807 0.3174514
vn -0.09555326 -0.9406338 0.3256955
vn -0.07003406 -0.7533618 0.6538663
vn 0.5032074 -0.7898816 0.3505272
vn -0.4259659 -0.7327415 0.5307006
vn -0.5104129 -0.4987784 0.7004989
vn -0.5880119 -0.6269942 0.5109994
vn -0.5056385 -0.5437065 0.6698604
vn -0.6644613 -0.6455657 0.3764786
vn -0.8135831 -0.4263429 0.395366
vn -0.5104129 -0.4987784 0.7004989
vn -0.608226 -0.6820889 0.4059749
vn -0.7268824 -0.5197355 0.4489064
vn -0.6408953 -0.4538791 0.6190695
vn -0.8773581 -0.1971946 0.4374436
vn -0.7993999 -0.1694483 0.5764087
vn -0.8901487 0.1895289 0.4143842
vn -0.8122399 0.1730214 0.5570726
vn -0.6555443 0.5902868 0.470981
vn -0.5771651 0.585373 0.5694023
vn -0.176088 0.87723 0.4466102
vn -0.1974503 0.7690996 0.6078644
vn -0.2014319 0.8912526 0.4063174
vn -0.4834259 0.7502168 0.4510812
vn -0.3063172 0.7268432 0.6147103
vn 0.1533911 0.8264946 0.5416437
vn 0.30638 0.8101885 0.4997258
vn 0.5988329 0.6484677 0.4699883
vn 0.4976757 0.5113773 0.70058
vn 0.7677426 0.4164242 0.4869929
vn 0.4976757 0.5113773 0.70058
vn 0.6127991 -0.3993981 0.6818786
vn 0.5221103 -0.5194551 0.6764372
vn -0.09038038 0.2361382 0.9675072
vn -0.5993683 -0.6082989 0.5203173
vn -0.3182762 0.2400609 0.9170993
vn 0.2494135 -0.125765 0.9601958
vn -0.6983109 -0.1357604 0.7028024
vn -0.08217207 -0.2451424 0.9659984
vn 0.7180666 -0.2542858 0.6478574
vn 0.2547712 0.1387072 0.9570016
vn -0.2214689 0.619119 0.7534208
vn -0.09038038 0.2361382 0.9675072
vn 0.3245145 0.7404594 0.5885661
vn -0.3182762 0.2400609 0.9170993
vn 0.08077633 0.9858593 0.1468217
vn -0.04596833 0.3236387 0.9450634
vn 0.03237369 0.9700642 0.240681
vn -0.223725 0.07037737 0.9721081
vn -0.1140572 0.07609619 0.9905556
vn 0.07235378 0.9701553 0.2314382
vn 0.9014882 -0.06673262 0.4276279
vn 0.03237369 0.9700642 0.240681
vn -0.04596833 0.3236387 0.9450634
vn -0.4114546 -0.8266222 0.3839284
vn -0.223725 0.07037737 0.9721081
vn -0.1608702 -0.9173934 0.3640193
vn -0.1140572 0.07609619 0.9905556
vn 0.04464231 -0.9132161 0.4050227
vn 0.9014882 -0.06673262 0.4276279
g fireBlue15_mesh_0
f 3/3/3 2/2/2 1/1/1
f 4/4/4 3/3/3 1/1/1
f 3/3/3 4/4/4 5/5/5
f 7/7/7 4/4/4 6/6/6
f 8/8/8 5/5/5 6/6/6
f 9/9/9 5/5/5 8/8/8
f 10/10/10 7/7/7 9/9/9
f 10/10/10 11/11/11 7/7/7
f 11/11/11 13/13/13 12/12/12
f 12/12/12 13/13/13 14/14/14
f 15/15/15 12/12/12 14/14/14
f 16/16/16 15/15/15 14/14/14
f 19/19/19 18/18/18 17/17/17
f 21/21/21 20/20/20 18/18/18
f 20/20/20 22/22/22 19/19/19
f 23/23/23 22/22/22 20/20/20
f 24/24/24 23/23/23 20/20/20
f 24/24/24 25/25/25 23/23/23
f 25/25/25 27/27/27 26/26/26
f 25/25/25 26/26/26 28/28/28
f 28/28/28 26/26/26 29/29/29
f 26/26/26 30/30/30 29/29/29
f 30/30/30 26/26/26 31/31/31
f 31/31/31 26/26/26 32/32/32
f 32/32/32 26/26/26 33/33/33
f 33/33/33 26/26/26 34/34/34
f 34/34/34 26/26/26 35/35/35
f 35/35/35 26/26/26 36/36/36
f 36/36/36 26/26/26 37/37/37
f 37/37/37 26/26/26 38/38/38
f 26/26/26 39/39/39 38/38/38
f 41/41/41 40/40/40 38/38/38
f 41/41/41 42/42/42 40/40/40
f 40/40/40 42/42/42 43/43/43
f 43/43/43 42/42/42 44/44/44
f 42/42/42 45/45/45 44/44/44
f 48/48/48 47/47/47 46/46/46
f 49/49/49 48/48/48 46/46/46
f 46/46/46 50/50/50 49/49/49
f 49/49/49 50/50/50 51/51/51
f 52/52/52 50/50/50 46/46/46
f 51/51/51 50/50/50 53/53/53
f 54/54/54 53/53/53 50/50/50
f 49/49/49 51/51/51 55/55/55
f 55/55/55 51/51/51 56/56/56
f 51/51/51 53/53/53 56/56/56
f 57/57/57 49/49/49 55/55/55
f 58/58/58 49/49/49 57/57/57
f 59/59/59 58/58/58 57/57/57
f 60/60/60 58/58/58 59/59/59
f 56/56/56 53/53/53 61/61/61
f 53/53/53 62/62/62 61/61/61
f 53/53/53 54/54/54 62/62/62
f 61/61/61 62/62/62 63/63/63
f 64/64/64 62/62/62 54/54/54
f 62/62/62 64/64/64 65/65/65
f 62/62/62 65/65/65 63/63/63
f 63/63/63 65/65/65 66/66/66
f 65/65/65 67/67/67 66/66/66
f 65/65/65 64/64/64 67/67/67
f 66/66/66 67/67/67 68/68/68
f 67/67/67 69/69/69 68/68/68
f 67/67/67 64/64/64 69/69/69
f 68/68/68 69/69/69 70/70/70
f 69/69/69 71/71/71 70/70/70
f 69/69/69 64/64/64 71/71/71
f 70/70/70 71/71/71 72/72/72
f 72/72/72 71/71/71 73/73/73
f 73/73/73 71/71/71 74/74/74
f 71/71/71 64/64/64 74/74/74
f 74/74/74 64/64/64 75/75/75
f 64/64/64 76/76/76 75/75/75
f 64/64/64 54/54/54 76/76/76
f 75/75/75 76/76/76 77/77/77
f 76/76/76 78/78/78 77/77/77
f 76/76/76 54/54/54 78/78/78
f 77/77/77 78/78/78 79/79/79
f 78/78/78 54/54/54 80/80/80
f 80/80/80 54/54/54 81/81/81
f 54/54/54 50/50/50 81/81/81
f 78/78/78 80/80/80 82/82/82
f 83/83/83 78/78/78 82/82/82
f 84/84/84 78/78/78 83/83/83
f 82/82/82 80/80/80 85/85/85
f 80/80/80 81/81/81 85/85/85
f 85/85/85 81/81/81 86/86/86
f 81/81/81 87/87/87 86/86/86
f 81/81/81 50/50/50 87/87/87
f 86/86/86 87/87/87 88/88/88
f 87/87/87 89/89/89 88/88/88
f 87/87/87 50/50/50 89/89/89
f 88/88/88 89/89/89 90/90/90
f 89/89/89 91/91/91 90/90/90
f 89/89/89 50/50/50 91/91/91
f 90/90/90 91/91/91 92/92/92
f 91/91/91 93/93/93 92/92/92
f 91/91/91 50/50/50 93/93/93
f 92/92/92 93/93/93 94/94/94
f 93/93/93 50/50/50 95/95/95
f 93/93/93 95/95/95 94/94/94
f 94/94/94 95/95/95 96/96/96
f 96/96/96 95/95/95 97/97/97
f 95/95/95 50/50/50 52/52/52
f 95/95/95 52/52/52 97/97/97
f 97/97/97 52/52/52 98/98/98
f 98/98/98 52/52/52 99/99/99
f 99/99/99 52/52/52 100/100/100
f 52/52/52 46/46/46 100/100/100
f 100/100/100 46/46/46 101/101/101
f 46/46/46 102/102/102 101/101/101
f 101/101/101 104/104/104 103/103/103
f 104/104/104 105/105/105 103/103/103
f 103/103/103 105/105/105 106/106/106
f 109/109/109 108/108/108 107/107/107
f 110/110/110 107/107/107 108/108/108
f 111/111/111 110/110/110 108/108/108
f 112/112/112 110/110/110 111/111/111
f 113/113/113 110/110/110 112/112/112
f 114/114/114 110/110/110 113/113/113
f 115/115/115 110/110/110 114/114/114
f 116/116/116 110/110/110 115/115/115
f 117/117/117 116/116/116 115/115/115
f 117/117/117 118/118/118 116/116/116
f 121/121/121 120/120/120 119/119/119
f 120/120/120 122/122/122 119/119/119
f 119/119/119 122/122/122 123/123/123
f 124/124/124 119/119/119 123/123/123
f 124/124/124 123/123/123 125/125/125
f 128/128/128 127/127/127 126/126/126
f 129/129/129 127/127/127 128/128/128
f 130/130/130 129/129/129 128/128/128
f 129/129/129 130/130/130 131/131/131
f 130/130/130 132/132/132 131/131/131
f 133/133/133 131/131/131 132/132/132
