g fireBlue19_mesh
v -0.2997068 1.567102 -0.0121777
v -0.2990868 1.553508 -0.02755518
v -0.3195803 1.584975 -0.0121777
v -0.2874875 1.548988 -0.0121777
v -0.2990868 1.553508 -0.02755518
v -0.2772176 1.518673 -0.01400851
v -0.294926 1.532383 -0.0121777
v -0.2990868 1.553508 -0.02755518
v -0.2772176 1.518673 -0.01400851
v -0.2990868 1.553508 -0.02755518
v -0.3049216 1.54376 -0.0121777
v -0.3135868 1.558829 -0.0121777
v -0.3195803 1.584975 -0.0121777
v 0.05962677 1.325049 2.235174E-08
v 0.03385242 1.381931 -0.05853632
v 0.04925755 1.474959 2.235174E-08
v 0.04925755 1.474959 2.235174E-08
v 0.03385242 1.381931 -0.05853632
v 0.01691644 1.416441 -0.01112015
v -0.001092509 1.358232 -0.005560063
v 0.05962677 1.325049 2.235174E-08
v 0.4665639 0.06581652 -3.510265E-16
v 0.4219395 0.2891157 -0.1586724
v 0.548193 0.165944 -3.510265E-16
v 0.4219395 0.2891157 -0.1586724
v 0.5422789 0.3619007 -3.510264E-16
v 0.3902042 0.146553 -0.27
v 0.3902042 0.146553 -0.27
v 0.2576175 0.2536647 -0.3500074
v 0.2210489 0.08042669 -0.27
v 0.294567 0.3421973 -0.1729212
v 0.2154587 0.5768223 -0.2024812
v 0.3272098 0.4448717 -3.510265E-16
v 0.4137482 0.3800163 -3.510265E-16
v 0.4219395 0.2891157 -0.1586724
v 0.01670911 0.08137396 -0.1920778
v 0.04783452 -0.02039897 -3.510264E-16
v 0.237005 -0.0239228 -3.510265E-16
v 0.3902042 0.146553 -0.27
v -0.06546049 -0.005233526 -3.510265E-16
v -0.1085711 0.08128187 -3.510265E-16
v -0.0921546 0.1778114 -3.510265E-16
v 0.005110475 0.2090176 -0.2156971
v -0.1458926 0.2409925 -3.510264E-16
v -0.05807264 0.3508233 -0.241156
v -0.2314571 0.2299271 -3.510265E-16
v 0.0348906 0.6026987 -0.3661274
v 0.2154587 0.5768223 -0.2024812
v -0.3156657 0.3662772 -0.176351
v -0.2924514 0.1716804 -3.510264E-16
v -0.4042442 0.3292657 -3.510264E-16
v -0.4303833 0.5284809 -3.510265E-16
v -0.3140689 0.567276 -0.2071396
v -0.3145696 0.7837182 -3.510264E-16
v -0.2094837 0.7737095 -0.1731985
v -0.2915108 0.8970817 -3.510265E-16
v -0.1903984 0.8393129 -3.510264E-16
v -0.05377846 0.8727549 -3.510265E-16
v -0.00376498 0.797026 -0.2422317
v 0.03650251 0.9928315 -3.510264E-16
v 0.1156282 1.020244 -0.06744681
v 0.03313553 1.256697 -3.510265E-16
v 0.1639634 0.9096017 -0.2413607
v 0.06804018 1.297265 -0.08815522
v -0.03488154 1.357026 -3.510264E-16
v -0.00343274 1.400179 -0.08307325
v -0.03205376 1.442224 -3.510265E-16
v 0.001597334 1.508481 -7.020529E-16
v 0.05028623 1.486967 -0.08307329
v 0.06165221 1.586157 -3.510265E-16
v 0.103705 1.450819 -7.020528E-16
v 0.1030805 1.331872 -3.510264E-16
v 0.1403005 1.174587 -3.510265E-16
v 0.2713987 1.025807 -3.510265E-16
v 0.378221 0.9308451 -3.510265E-16
v 0.2868582 0.8646914 -0.1657636
v 0.4598524 0.8259437 -3.510264E-16
v 0.3630449 0.7583965 -0.1413877
v 0.5034655 0.6981868 -3.510264E-16
v 0.3651038 0.6730726 -3.510264E-16
v 0.309416 0.5691582 -3.510264E-16
v 0.2154587 0.5768223 -0.2024812
v 0.1316873 0.7878666 -0.0851756
v 0.2292939 0.9731919 2.235174E-08
v 0.2843159 0.9261978 2.235174E-08
v 0.1225289 1.071483 2.235174E-08
v 0.3536914 0.825643 2.235174E-08
v 0.1092948 0.9191238 2.235174E-08
v 0.3363767 0.770839 2.235174E-08
v 0.07872591 0.7898424 2.235174E-08
v 0.2078404 0.7201217 2.235174E-08
v 0.008828545 0.7275425 2.235174E-08
v 0.1135174 0.5620595 2.235174E-08
v -0.05602858 0.5426825 -0.1279339
v -0.1081129 0.7078496 2.235174E-08
v -0.2294867 0.7612846 2.235174E-08
v -0.3128835 0.5646513 2.235174E-08
v -0.3352561 0.3635971 2.235174E-08
v -0.2976329 0.2693231 2.235174E-08
v -0.1969088 0.330839 2.235174E-08
v -0.1122409 0.3173796 2.235174E-08
v 0.06163701 0.2555784 -0.1249027
v 0.1745075 0.3878579 2.235174E-08
v -0.04230331 0.2531222 2.235174E-08
v 0.45017 0.2503439 2.235174E-08
v -0.05261374 0.08364546 2.235174E-08
v 0.3668835 0.1476367 2.235174E-08
v 0.0750493 0.0576933 2.235174E-08
v 0.233839 0.07196674 2.235174E-08
v -0.3983179 1.620731 0
v -0.3246955 1.580622 -0.05681096
v -0.3628551 1.558944 0
v -0.4013895 1.692061 0
v -0.3085859 1.506598 0
v -0.3262486 1.641216 0
v -0.2253209 1.466634 0
v -0.2571748 1.565134 0
vt 0.1451593 0.1102839
vt 0.1451618 0.1099834
vt 0.1450769 0.110678
vt 0.14521 0.1098833
vt 0.1451618 0.1099834
vt 0.1452526 0.1092133
vt 0.145179 0.1095157
vt 0.1451618 0.1099834
vt 0.1452526 0.1092133
vt 0.1451618 0.1099834
vt 0.1451377 0.1097677
vt 0.1451017 0.1101007
vt 0.1450769 0.110678
vt 0.1466351 0.1052013
vt 0.1465401 0.1063193
vt 0.146597 0.1081478
vt 0.146597 0.1081478
vt 0.1465401 0.1063193
vt 0.1464777 0.1069974
vt 0.1464113 0.1058539
vt 0.1466351 0.1052013
vt 0.4982255 0.2601224
vt 0.4925839 0.2599651
vt 0.4956957 0.2604101
vt 0.4925839 0.2599651
vt 0.4907443 0.2603889
vt 0.4961856 0.2598534
vt 0.4961856 0.2598534
vt 0.4934795 0.2593862
vt 0.4978561 0.2592576
vt 0.4912425 0.2595166
vt 0.4853142 0.2592378
vt 0.488648 0.2596314
vt 0.4902867 0.2599361
vt 0.4925839 0.2599651
vt 0.4978324 0.2585374
vt 0.5004032 0.2586473
vt 0.5004928 0.2593137
vt 0.4961856 0.2598534
vt 0.5000204 0.2582481
vt 0.4978345 0.2580966
vt 0.4953955 0.2581542
vt 0.4946073 0.258497
vt 0.4937994 0.2579648
vt 0.4910246 0.2582741
vt 0.4940789 0.2576632
vt 0.4846605 0.2586015
vt 0.4853142 0.2592378
vt 0.4906339 0.2573667
vt 0.4955508 0.2574482
vt 0.4915689 0.2570543
vt 0.4865358 0.2569625
vt 0.4855554 0.2573723
vt 0.4800872 0.2573705
vt 0.4803402 0.2577406
vt 0.4772224 0.2574518
vt 0.4786825 0.2578077
vt 0.4778373 0.2582892
vt 0.4797509 0.2584655
vt 0.4748036 0.2586071
vt 0.4741111 0.2588861
vt 0.468137 0.2585955
vt 0.4769063 0.2590566
vt 0.4671118 0.2587185
vt 0.4656021 0.2583559
vt 0.4645119 0.2584667
vt 0.4634496 0.2583658
vt 0.4617756 0.2584844
vt 0.4623188 0.2586559
vt 0.4598128 0.2586958
vt 0.4632323 0.258844
vt 0.4662375 0.2588419
vt 0.4702111 0.2589729
vt 0.4739704 0.2594349
vt 0.4763697 0.2598109
vt 0.4780411 0.2594894
vt 0.4790202 0.2600987
vt 0.4807267 0.2597575
vt 0.482248 0.2602524
vt 0.4828828 0.2597649
vt 0.485508 0.2595687
vt 0.4853142 0.2592378
vt 0.1469479 0.08826217
vt 0.1473524 0.09364364
vt 0.1475806 0.09229013
vt 0.1469099 0.09649058
vt 0.1478683 0.08938798
vt 0.1468551 0.09207021
vt 0.1477966 0.08779971
vt 0.1467282 0.08832105
vt 0.1472636 0.08630153
vt 0.1464386 0.08651144
vt 0.1468727 0.08170985
vt 0.1461697 0.08114832
vt 0.1459536 0.08594266
vt 0.1454504 0.08750302
vt 0.1451046 0.08195234
vt 0.1450119 0.07653034
vt 0.1451678 0.07411867
vt 0.1455855 0.07503943
vt 0.1459366 0.07461006
vt 0.1466575 0.07281684
vt 0.1471255 0.07665729
vt 0.1462265 0.07274015
vt 0.1482683 0.07273176
vt 0.1461838 0.06782223
vt 0.147923 0.0697792
vt 0.146713 0.06724838
vt 0.1473714 0.06756415
vt 0.4589391 0.2570754
vt 0.4599531 0.2573348
vt 0.4605004 0.2572004
vt 0.4571369 0.2570648
vt 0.461823 0.2573915
vt 0.4584223 0.2573295
vt 0.4628327 0.2576846
vt 0.460344 0.2575727
vn -0.6189667 -0.6006719 0.5060372
vn -0.1422306 -0.1240924 0.9820242
vn 0.2484018 -0.2899018 0.9242584
vn -0.7934547 -0.3555332 0.4939896
vn -0.1422306 -0.1240924 0.9820242
vn -0.2410416 0.2165653 0.9460436
vn 0.5272859 0.5654774 0.6341962
vn -0.1422306 -0.1240924 0.9820242
vn -0.2410416 0.2165653 0.9460436
vn -0.1422306 -0.1240924 0.9820242
vn 0.6680005 0.4873314 0.5623909
vn 0.7465312 0.2294561 0.6245328
vn 0.2484018 -0.2899018 0.9242584
vn -0.7180299 0.3139167 0.6211998
vn -0.6567753 0.02404985 0.7537027
vn -0.7789081 -0.2364966 0.5808368
vn -0.7789081 -0.2364966 0.5808368
vn -0.6567753 0.02404985 0.7537027
vn 0.7387606 -0.3913533 0.5487034
vn 0.6239164 0.4721259 0.6227563
vn -0.7180299 0.3139167 0.6211998
vn -0.5979673 0.6628435 0.450637
vn -0.7561229 -0.2842797 0.58946
vn -0.8440531 0.1273321 0.520923
vn -0.7561229 -0.2842797 0.58946
vn -0.6602955 -0.3531715 0.6627818
vn -0.5740023 0.6016799 0.5554299
vn -0.5740023 0.6016799 0.5554299
vn -0.1932106 0.008797768 0.9811179
vn -0.09301995 0.8334582 0.544697
vn -0.769382 -0.4793392 0.4222383
vn -0.8099511 -0.03784712 0.5852749
vn -0.8179852 -0.3961239 0.4171161
vn -0.3621661 -0.796252 0.4845806
vn -0.7561229 -0.2842797 0.58946
vn 0.4278362 0.6702126 0.6064414
vn 0.09396355 0.9087567 0.4066105
vn -0.1487812 0.9110869 0.3844277
vn -0.5740023 0.6016799 0.5554299
vn 0.4832711 0.701911 0.5232305
vn 0.8598958 0.1294407 0.4937857
vn 0.8317673 0.2802579 0.4791853
vn 0.6603934 0.3050011 0.6861887
vn 0.3774162 0.765727 0.5207871
vn 0.3729084 0.4717556 0.7989906
vn -0.006106446 0.831284 0.5558145
vn 0.02562629 -0.08348679 0.9961793
vn -0.8099511 -0.03784712 0.5852749
vn 0.5713584 0.4217708 0.7040305
vn 0.2865365 0.6619008 0.6926645
vn 0.8422566 0.2261189 0.489361
vn 0.8655164 -0.1574399 0.4754936
vn 0.7052109 -0.1755008 0.686933
vn 0.8095703 -0.377569 0.449486
vn 0.5331064 -0.6077328 0.5886072
vn 0.3764433 -0.6610022 0.6491275
vn 0.07792144 -0.9338114 0.3491769
vn 0.4639819 -0.8049027 0.3699358
vn 0.3926568 -0.6565921 0.6439778
vn 0.7643198 -0.4266774 0.4834892
vn 0.3185612 -0.5784804 0.7509189
vn 0.7768891 0.1966204 0.5981503
vn -0.2131318 -0.5412792 0.8133829
vn -0.152726 0.1047482 0.9827017
vn 0.7690809 0.4049669 0.4944859
vn 0.6657116 0.08323815 0.7415521
vn 0.8037258 -0.3476684 0.4828577
vn 0.7226497 -0.4584054 0.5173412
vn -0.3697455 -0.3803023 0.8477372
vn -0.2872522 -0.5954565 0.7502784
vn -0.8848965 -0.09853441 0.4552463
vn -0.8718764 -0.0990634 0.4796019
vn -0.7098889 -0.3453304 0.613844
vn -0.4265906 -0.6481138 0.6308478
vn -0.6157456 -0.5360215 0.5775278
vn -0.5873771 -0.4145232 0.6950961
vn -0.6951233 -0.3794906 0.6105657
vn -0.7327445 0.04416792 0.6790689
vn -0.6063936 0.307626 0.7332482
vn -0.6962275 0.5916331 0.4064941
vn -0.9148601 0.1275207 0.3831052
vn -0.8099511 -0.03784712 0.5852749
vn -0.09698542 -0.0553315 0.9937466
vn -0.2591581 -0.2873104 0.9221116
vn -0.2922581 -0.246493 0.9240273
vn -0.1059618 -0.2891462 0.9514025
vn -0.3385446 -0.115882 0.9337874
vn 0.9103628 -0.1045167 0.4003946
vn -0.3467261 0.2915239 0.8915126
vn 0.7572644 -0.4416875 0.4811058
vn -0.430839 0.4780397 0.7654122
vn 0.4993557 -0.6111115 0.6141552
vn -0.6061471 0.04858163 0.7938674
vn -0.004070124 -0.08168453 0.9966499
vn -0.1252618 -0.6319245 0.7648404
vn 0.3104766 -0.2844619 0.9070203
vn 0.435732 -0.1086906 0.8934897
vn 0.3898033 0.04915201 0.9195854
vn 0.2219988 0.2454259 0.9436539
vn -0.2405022 0.6139603 0.7518055
vn 0.4795509 0.3716944 0.7949052
vn -0.0119551 0.03056508 0.9994612
vn -0.4065651 -0.4194641 0.811637
vn 0.7454715 0.2318392 0.6249182
vn -0.3051425 -0.1261404 0.9439156
vn 0.3799709 0.3649657 0.8499541
vn -0.2730614 0.2894043 0.9174327
vn 0.01628532 0.5344751 0.8450274
vn -0.1673471 0.4424009 0.8810655
vn 0.6452585 0.1145529 0.755327
vn -0.1021529 -0.07917773 0.9916127
vn 0.628562 0.4856346 0.6075103
vn 0.1847617 -0.3424577 0.9211872
vn 0.3580744 0.6162569 0.7014344
vn -0.4881004 -0.6035815 0.6304342
vn -0.265458 0.2346394 0.9351344
vn -0.6528113 -0.3089584 0.6916516
g fireBlue19_mesh_0
f 3/3/3 2/2/2 1/1/1
f 5/5/5 4/4/4 1/1/1
f 6/6/6 4/4/4 5/5/5
f 9/9/9 8/8/8 7/7/7
f 11/11/11 7/7/7 10/10/10
f 12/12/12 11/11/11 10/10/10
f 10/10/10 13/13/13 12/12/12
f 16/16/16 15/15/15 14/14/14
f 19/19/19 18/18/18 17/17/17
f 18/18/18 19/19/19 20/20/20
f 21/21/21 18/18/18 20/20/20
f 24/24/24 23/23/23 22/22/22
f 26/26/26 25/25/25 24/24/24
f 25/25/25 27/27/27 22/22/22
f 25/25/25 29/29/29 28/28/28
f 27/27/27 29/29/29 30/30/30
f 31/31/31 29/29/29 25/25/25
f 32/32/32 29/29/29 31/31/31
f 32/32/32 31/31/31 33/33/33
f 33/33/33 31/31/31 34/34/34
f 34/34/34 35/35/35 26/26/26
f 31/31/31 35/35/35 34/34/34
f 30/30/30 29/29/29 36/36/36
f 30/30/30 36/36/36 37/37/37
f 38/38/38 30/30/30 37/37/37
f 22/22/22 39/39/39 38/38/38
f 39/39/39 30/30/30 38/38/38
f 37/37/37 36/36/36 40/40/40
f 40/40/40 36/36/36 41/41/41
f 41/41/41 36/36/36 42/42/42
f 36/36/36 43/43/43 42/42/42
f 36/36/36 29/29/29 43/43/43
f 42/42/42 43/43/43 44/44/44
f 43/43/43 45/45/45 44/44/44
f 43/43/43 29/29/29 45/45/45
f 44/44/44 45/45/45 46/46/46
f 47/47/47 45/45/45 29/29/29
f 47/47/47 29/29/29 48/48/48
f 45/45/45 47/47/47 49/49/49
f 45/45/45 49/49/49 46/46/46
f 46/46/46 49/49/49 50/50/50
f 50/50/50 49/49/49 51/51/51
f 51/51/51 49/49/49 52/52/52
f 49/49/49 53/53/53 52/52/52
f 49/49/49 47/47/47 53/53/53
f 52/52/52 53/53/53 54/54/54
f 53/53/53 55/55/55 54/54/54
f 53/53/53 47/47/47 55/55/55
f 54/54/54 55/55/55 56/56/56
f 56/56/56 55/55/55 57/57/57
f 57/57/57 55/55/55 58/58/58
f 55/55/55 59/59/59 58/58/58
f 55/55/55 47/47/47 59/59/59
f 58/58/58 59/59/59 60/60/60
f 59/59/59 61/61/61 60/60/60
f 60/60/60 61/61/61 62/62/62
f 63/63/63 59/59/59 47/47/47
f 63/63/63 61/61/61 59/59/59
f 61/61/61 64/64/64 62/62/62
f 62/62/62 64/64/64 65/65/65
f 64/64/64 66/66/66 65/65/65
f 65/65/65 66/66/66 67/67/67
f 67/67/67 66/66/66 68/68/68
f 66/66/66 69/69/69 68/68/68
f 66/66/66 64/64/64 69/69/69
f 68/68/68 69/69/69 70/70/70
f 70/70/70 69/69/69 71/71/71
f 71/71/71 69/69/69 72/72/72
f 69/69/69 64/64/64 72/72/72
f 72/72/72 64/64/64 73/73/73
f 64/64/64 61/61/61 73/73/73
f 73/73/73 61/61/61 74/74/74
f 61/61/61 63/63/63 74/74/74
f 74/74/74 63/63/63 75/75/75
f 63/63/63 76/76/76 75/75/75
f 75/75/75 76/76/76 77/77/77
f 63/63/63 47/47/47 76/76/76
f 76/76/76 78/78/78 77/77/77
f 76/76/76 47/47/47 78/78/78
f 77/77/77 78/78/78 79/79/79
f 78/78/78 47/47/47 48/48/48
f 79/79/79 78/78/78 80/80/80
f 80/80/80 78/78/78 81/81/81
f 81/81/81 48/48/48 33/33/33
f 78/78/78 82/82/82 81/81/81
f 85/85/85 84/84/84 83/83/83
f 86/86/86 83/83/83 84/84/84
f 87/87/87 85/85/85 83/83/83
f 83/83/83 86/86/86 88/88/88
f 89/89/89 87/87/87 83/83/83
f 90/90/90 83/83/83 88/88/88
f 89/89/89 83/83/83 91/91/91
f 83/83/83 90/90/90 92/92/92
f 91/91/91 83/83/83 93/93/93
f 94/94/94 83/83/83 92/92/92
f 93/93/93 83/83/83 94/94/94
f 95/95/95 94/94/94 92/92/92
f 96/96/96 94/94/94 95/95/95
f 97/97/97 94/94/94 96/96/96
f 98/98/98 94/94/94 97/97/97
f 99/99/99 94/94/94 98/98/98
f 99/99/99 100/100/100 94/94/94
f 101/101/101 94/94/94 100/100/100
f 93/93/93 94/94/94 102/102/102
f 94/94/94 101/101/101 102/102/102
f 93/93/93 102/102/102 103/103/103
f 101/101/101 104/104/104 102/102/102
f 102/102/102 105/105/105 103/103/103
f 104/104/104 106/106/106 102/102/102
f 107/107/107 105/105/105 102/102/102
f 108/108/108 102/102/102 106/106/106
f 107/107/107 102/102/102 109/109/109
f 109/109/109 102/102/102 108/108/108
f 112/112/112 111/111/111 110/110/110
f 110/110/110 111/111/111 113/113/113
f 114/114/114 111/111/111 112/112/112
f 113/113/113 111/111/111 115/115/115
f 116/116/116 111/111/111 114/114/114
f 115/115/115 111/111/111 117/117/117
f 117/117/117 111/111/111 116/116/116
