g fire05_mesh
v 0.003464896 0.5125591 -0.1523259
v 0.3721117 0.5845448 2.235174E-08
v 0.2208777 0.5173613 2.235174E-08
v 0.1382334 0.4235584 2.235174E-08
v 0.003464896 0.5125591 -0.1523259
v -0.03025902 0.30357 -0.1703512
v 0.1446627 0.2775404 2.235174E-08
v 0.229837 0.1627531 2.235174E-08
v -0.0532191 0.5205225 2.235174E-08
v -0.1048484 0.3795896 2.235174E-08
v -0.04191216 0.6192012 2.235174E-08
v -0.01364208 0.6329631 -0.1366653
v -0.03025902 0.30357 -0.1703512
v -0.2678021 0.3413309 2.235174E-08
v -0.2327927 0.2582482 2.235174E-08
v -0.1605921 0.1714294 2.235174E-08
v -0.05474245 0.1141664 2.235174E-08
v 0.08754728 0.09681401 2.235174E-08
v 0.1066349 0.147136 2.235174E-08
v 0.1569569 0.1644884 2.235174E-08
v 0.229837 0.1627531 2.235174E-08
v -0.01364208 0.6329631 -0.1366653
v 0.006531897 0.6460169 2.235174E-08
v 0.0570839 0.581606 2.235174E-08
v 0.2039619 0.5756517 2.235174E-08
v 0.003464896 0.5125591 -0.1523259
v 0.3721117 0.5845448 2.235174E-08
v -0.01364208 0.6329631 -0.1366653
v -0.08734483 0.7798085 -0.08636203
v -0.06671975 0.7925332 2.235174E-08
v -0.1183743 0.8336952 -0.1685903
v -0.1183743 0.8336952 -0.1685903
v -0.06531248 0.855037 2.235174E-08
v -0.007696021 0.9763392 -0.0001298233
v -0.06947199 1.013557 -0.1767098
v -0.06947199 1.013557 -0.1767098
v -0.002067644 1.044212 -0.0003030919
v -0.1935442 0.8626022 -0.1408512
v -0.1935442 0.8626022 -0.1408512
v -0.08734483 0.7798085 -0.08636203
v -0.1856167 0.772409 2.235174E-08
v -0.2665419 0.7946104 2.235174E-08
v -0.1039619 0.7705264 2.235174E-08
v -0.01364208 0.6329631 -0.1366653
v 0.2534384 1.288336 -0.05523489
v 0.2982875 1.219042 2.235174E-08
v 0.2120288 1.254249 3.073364E-08
v 0.2534384 1.288336 -0.05523489
v 0.2101153 1.354479 2.235174E-08
v 0.2682854 1.304826 2.235174E-08
v 0.2982875 1.219042 2.235174E-08
v 0.1150692 2.044631 -0.05847046
v 0.004685145 1.881504 -0.05847046
v -0.0224257 1.978297 -0.06675056
v -0.05435762 1.995158 -4.015713E-16
v -0.0224257 1.978297 -0.06675056
v -0.05435762 1.995158 -4.015713E-16
v -0.04098494 1.867596 -4.015713E-16
v 0.01487262 1.688591 -4.015713E-16
v 0.04151499 1.899583 -4.015713E-16
v 0.04190692 1.900719 -4.015713E-16
v 0.1150692 2.044631 -0.05847046
v 0.2387873 2.108955 -4.015713E-16
v 0.0185962 0.9110403 -7.53841E-16
v -0.007442711 0.9085361 -0.1912645
v 0.05481721 1.103331 -0.06057569
v 0.05481721 1.103331 -0.06057569
v 0.08564554 1.092789 -4.015713E-16
v 0.05481721 1.103331 -0.06057569
v 0.2222287 1.21274 -0.08424934
v 0.2455691 1.192745 -4.015713E-16
v 0.3605774 1.176614 -0.09926072
v 0.333417 1.162947 -4.015713E-16
v 0.3605774 1.176614 -0.09926072
v 0.4102345 1.051344 -4.015713E-16
v 0.3605774 1.176614 -0.09926072
v 0.3933567 1.182621 -4.015713E-16
v 0.3605774 1.176614 -0.09926072
v 0.2977088 1.263123 -0.09926072
v 0.3417525 1.254075 -8.031427E-16
v 0.3002808 1.31004 -4.015713E-16
v 0.2202445 1.325968 -0.09926072
v 0.2606468 1.346463 -4.015713E-16
v 0.1698258 1.434911 -4.015713E-16
v 0.1830501 1.29707 -7.854892E-16
v 0.2222287 1.21274 -0.08424934
v 0.3605774 1.176614 -0.09926072
v 0.1743887 1.216794 -4.015713E-16
v 0.2222287 1.21274 -0.08424934
v 0.05481721 1.103331 -0.06057569
v 0.09282846 1.161537 -4.015713E-16
v 0.05481721 1.103331 -0.06057569
v -0.04993279 1.066914 -0.1649415
v -0.0431053 1.138731 -4.015713E-16
v -0.1606171 0.9739359 -0.176053
v -0.09367365 0.8825573 -0.315381
v 0.05481721 1.103331 -0.06057569
v -0.1901231 1.044212 -4.015713E-16
v -0.2254219 0.8592759 -0.1727627
v -0.3263399 0.8465648 -4.015713E-16
v -0.2212467 0.7438141 -0.1776035
v -0.3436137 0.7189536 -4.015713E-16
v -0.241221 0.6674416 -4.015713E-16
v -0.1568721 0.5739248 -0.1982305
v -0.1924287 0.5641639 -4.015713E-16
v 0.02441751 0.5726283 -0.3445007
v 0.1089022 0.3285674 -0.3800609
v -0.1563303 0.4036382 -0.1904692
v -0.1924287 0.5641639 -4.015713E-16
v 0.05092228 0.7318266 -0.2074502
v -0.007442711 0.9085361 -0.1912645
v 0.05481721 1.103331 -0.06057569
v 0.2085223 0.5580812 -0.1871333
v 0.2731211 0.6618403 -4.015713E-16
v 0.1219783 0.7347621 -4.015713E-16
v -0.007442711 0.9085361 -0.1912645
v 0.0185962 0.9110403 -7.53841E-16
v 0.4132146 0.6868238 -4.015714E-16
v 0.3976132 0.5748209 -0.1977025
v 0.5086336 0.7595399 -4.015713E-16
v -0.1803339 0.3346384 -0.2268996
v 0.374848 0.3920778 -0.1871396
v -0.2292394 0.2474618 -0.186297
v 0.3619242 0.2700769 -0.1899271
v -0.2421222 0.406256 -4.015713E-16
v -0.1924287 0.5641639 -4.015713E-16
v -0.3507169 0.3847803 -4.015713E-16
v -0.3355729 0.2351967 -4.015712E-16
v -0.140965 0.1613498 -0.1907283
v -0.2198036 0.09947908 -4.015713E-16
v -0.03846364 0.1067826 -0.1910128
v -0.1092485 0.03646883 -4.015713E-16
v 0.1174957 0.08396509 -0.192543
v 0.1463213 0.01575339 -4.015713E-16
v 0.1676773 0.1486006 -0.1946551
v 0.1692382 0.06459343 -4.015713E-16
v 0.2226233 0.08839738 -4.015713E-16
v 0.244272 0.1340917 -0.1923785
v 0.2650722 0.07034785 -4.015713E-16
v 0.3192355 0.1661736 -0.1935314
v 0.3528897 0.1260763 -4.015713E-16
v 0.4524407 0.247263 -4.015713E-16
v 0.5360645 0.4651172 -4.015713E-16
v 0.5086336 0.7595399 -4.015713E-16
v 0.04151499 1.899583 -4.015713E-16
v 0.004685145 1.881504 -0.05847046
v 0.04190692 1.900719 -4.015713E-16
v -0.2514446 0.8563986 2.235174E-08
v -0.1935442 0.8626022 -0.1408512
v -0.2665419 0.7946104 2.235174E-08
v -0.1914763 0.9680636 2.235174E-08
v -0.09428643 1.042507 2.235174E-08
v -0.06947199 1.013557 -0.1767098
v -0.002067644 1.044212 -0.0003030919
v 0.07492079 2.064903 -4.015713E-16
v -0.0224257 1.978297 -0.06675056
v -0.05435762 1.995158 -4.015713E-16
v 0.1150692 2.044631 -0.05847046
v 0.2387873 2.108955 -4.015713E-16
v -0.009708397 1.966385 -0.02834499
v -0.02620769 1.943184 2.235174E-08
v -0.02998159 1.975073 2.235174E-08
v 0.006703235 1.947077 2.235174E-08
v 0.02135947 1.987312 2.235174E-08
vt 0.1599665 0.5050833
vt 0.1575056 0.5068467
vt 0.1597867 0.5061232
vt 0.1629342 0.5057279
vt 0.1599665 0.5050833
vt 0.1669627 0.5049221
vt 0.1678109 0.5057588
vt 0.1715623 0.506166
vt 0.1597003 0.5048122
vt 0.1644109 0.5045653
vt 0.1563947 0.5048662
vt 0.1559354 0.5050014
vt 0.1669627 0.5049221
vt 0.1656417 0.5037856
vt 0.1684252 0.5039532
vt 0.1713162 0.5042984
vt 0.1732213 0.5048048
vt 0.173891 0.5054854
vt 0.1722059 0.5055768
vt 0.1716106 0.5058175
vt 0.1715623 0.506166
vt 0.1559354 0.5050014
vt 0.1554981 0.505098
vt 0.1576509 0.5053399
vt 0.1578329 0.5060424
vt 0.1599665 0.5050833
vt 0.1575056 0.5068467
vt 0.1559354 0.5050014
vt 0.1510177 0.5046489
vt 0.150589 0.5047475
vt 0.1492107 0.5045004
vt 0.1492107 0.5045004
vt 0.1484973 0.5047541
vt 0.1444348 0.5050299
vt 0.1431913 0.5047343
vt 0.1431913 0.5047343
vt 0.1421624 0.5050569
vt 0.1482348 0.5041409
vt 0.1482348 0.5041409
vt 0.1510177 0.5046489
vt 0.1511749 0.5041788
vt 0.1504043 0.5037917
vt 0.1513275 0.5045694
vt 0.1559354 0.5050014
vt 0.1322477 0.506279
vt 0.1340153 0.5064935
vt 0.1331179 0.5060809
vt 0.1322477 0.506279
vt 0.1305615 0.5060717
vt 0.1318283 0.50635
vt 0.1340153 0.5064935
vt 0.7739316 0.6652775
vt 0.776803 0.6650068
vt 0.7750991 0.6649404
vt 0.7748024 0.6648618
vt 0.7750991 0.6649404
vt 0.7748024 0.6648618
vt 0.7770477 0.6648946
vt 0.7801985 0.6650318
vt 0.7764848 0.6650969
vt 0.7764647 0.6650981
vt 0.7739316 0.6652775
vt 0.7727993 0.6655812
vt 0.7938848 0.6650408
vt 0.7939288 0.6649771
vt 0.7905003 0.6651297
vt 0.7905003 0.6651297
vt 0.7906858 0.6652053
vt 0.7905003 0.6651297
vt 0.7885743 0.6655407
vt 0.7889265 0.6655979
vt 0.7892104 0.6658802
vt 0.7894505 0.6658133
vt 0.7892104 0.6658802
vt 0.7914152 0.666002
vt 0.7892104 0.6658802
vt 0.7891043 0.6659606
vt 0.7892104 0.6658802
vt 0.7876875 0.665726
vt 0.7878467 0.665834
vt 0.7868618 0.6657323
vt 0.7865812 0.6655357
vt 0.7862206 0.6656349
vt 0.7846637 0.6654121
vt 0.7870899 0.6654444
vt 0.7885743 0.6655407
vt 0.7892104 0.6658802
vt 0.7885029 0.6654233
vt 0.7885743 0.6655407
vt 0.7905003 0.6651297
vt 0.7894756 0.6652231
vt 0.7905003 0.6651297
vt 0.7911412 0.6648728
vt 0.7898773 0.6648895
vt 0.7927777 0.6646011
vt 0.7943863 0.6647654
vt 0.7905003 0.6651297
vt 0.7915409 0.6645285
vt 0.794796 0.6644421
vt 0.7950194 0.6641942
vt 0.7968282 0.6644521
vt 0.7972659 0.6641517
vt 0.7981727 0.6644031
vt 0.7998185 0.6646103
vt 0.7999907 0.6645229
vt 0.7998413 0.6650552
vt 0.8041373 0.6652625
vt 0.8028157 0.6646116
vt 0.7999907 0.6645229
vt 0.7970393 0.6651202
vt 0.7939288 0.6649771
vt 0.7905003 0.6651297
vt 0.8000976 0.665507
vt 0.7982709 0.6656655
vt 0.7969875 0.6652945
vt 0.7939288 0.6649771
vt 0.7938848 0.6650408
vt 0.7978315 0.6660092
vt 0.7998029 0.665971
vt 0.7965512 0.6662437
vt 0.8040304 0.6645526
vt 0.8030193 0.6659152
vt 0.8055647 0.6644325
vt 0.8051666 0.6658835
vt 0.8027698 0.664401
vt 0.7999907 0.6645229
vt 0.8031479 0.6641345
vt 0.8057805 0.6641715
vt 0.8070807 0.6646494
vt 0.8081696 0.6644559
vt 0.8080409 0.6649009
vt 0.8092787 0.6647271
vt 0.8084428 0.6652837
vt 0.8096433 0.6653545
vt 0.807305 0.6654067
vt 0.8087835 0.6654105
vt 0.8083647 0.6655416
vt 0.8075603 0.6655947
vt 0.8086822 0.6656458
vt 0.8069954 0.6657787
vt 0.8077015 0.6658613
vt 0.8055683 0.6661055
vt 0.8017336 0.6663107
vt 0.7965512 0.6662437
vt 0.7764848 0.6650969
vt 0.776803 0.6650068
vt 0.7764647 0.6650981
vt 0.1484053 0.5038639
vt 0.1482348 0.5041409
vt 0.1504043 0.5037917
vt 0.1447052 0.5041506
vt 0.14222 0.5046157
vt 0.1431913 0.5047343
vt 0.1421624 0.5050569
vt 0.7735749 0.6651791
vt 0.7750991 0.6649404
vt 0.7748024 0.6648618
vt 0.7739316 0.6652775
vt 0.7727993 0.6655812
vt 0.1149555 0.5050201
vt 0.115547 0.5049412
vt 0.1147338 0.5049233
vt 0.1154474 0.5050989
vt 0.1144214 0.5051687
vn 0.3541602 -0.2702717 0.8952787
vn -0.3777515 -0.0241008 0.9255933
vn -0.4093758 0.7190163 0.5616289
vn -0.661857 0.1799541 0.72771
vn 0.3541602 -0.2702717 0.8952787
vn 0.228682 -0.03464843 0.9728844
vn -0.6897241 -0.2883878 0.6641635
vn -0.5658684 -0.04957015 0.8230041
vn 0.9131239 -0.1567426 0.3763464
vn 0.7174099 -0.4997995 0.4853076
vn 0.9539872 0.140997 0.2646285
vn -0.1464858 -0.5051561 0.8505052
vn 0.228682 -0.03464843 0.9728844
vn 0.5153319 -0.3286868 0.7914531
vn 0.5615909 0.3346514 0.7567193
vn 0.4310354 0.5228938 0.7353847
vn 0.1817013 0.6445021 0.7426989
vn -0.1148516 0.5918845 0.7977982
vn -0.4472432 0.4502158 0.7728385
vn -0.05057072 0.745681 0.6643813
vn -0.5658684 -0.04957015 0.8230041
vn -0.1464858 -0.5051561 0.8505052
vn -0.8708448 -0.4160738 0.2617476
vn -0.5519485 -0.7139721 0.4308094
vn 0.03212958 -0.9376541 0.3460816
vn 0.3541602 -0.2702717 0.8952787
vn -0.3777515 -0.0241008 0.9255933
vn -0.1464858 -0.5051561 0.8505052
vn -0.4670447 0.525407 0.7112079
vn -0.9121093 -0.3320971 0.2403502
vn -0.4807649 0.6266402 0.613341
vn -0.4807649 0.6266402 0.613341
vn -0.9152173 0.2576103 0.3098618
vn -0.9037248 0.2860705 0.3185046
vn -0.2996788 -0.43407 0.8495739
vn -0.2996788 -0.43407 0.8495739
vn -0.6181747 -0.6998731 0.3578235
vn 0.7831678 0.004046808 0.6217973
vn 0.7831678 0.004046808 0.6217973
vn -0.4670447 0.525407 0.7112079
vn 0.300116 0.85532 0.4223244
vn 0.6017476 0.55124 0.577957
vn 0.5224466 0.77228 0.3614319
vn -0.1464858 -0.5051561 0.8505052
vn 0.0755334 0.03780974 0.9964262
vn -0.2443186 0.5027992 0.829157
vn 0.5898531 0.4103722 0.6954623
vn 0.0755334 0.03780974 0.9964262
vn 0.4676432 -0.3657029 0.8047181
vn -0.7728583 -0.5204253 0.3631083
vn -0.2443186 0.5027992 0.829157
vn -0.494899 0.1137035 0.8614793
vn -0.0959952 0.4111468 0.9065006
vn 0.5120319 -0.3183621 0.79779
vn 0.693605 -0.4375049 0.5722775
vn 0.5120319 -0.3183621 0.79779
vn 0.693605 -0.4375049 0.5722775
vn 0.7943723 0.1999257 0.5735872
vn -0.03436494 0.2882273 0.9569452
vn -0.8559723 0.1096773 0.5052545
vn -0.6595023 0.5451586 0.5175508
vn -0.494899 0.1137035 0.8614793
vn -0.637035 0.3133014 0.7042931
vn -0.9581847 -0.1656145 0.2333537
vn -0.8975393 -0.2345567 0.3733715
vn -0.7666259 -0.1850082 0.614863
vn -0.7666259 -0.1850082 0.614863
vn -0.8061315 0.5129875 0.2949507
vn -0.7666259 -0.1850082 0.614863
vn 0.3232742 0.5186339 0.7915256
vn -0.1237537 0.9483083 0.2922265
vn -0.4435267 0.3189011 0.8376073
vn 0.4885752 0.8417459 0.2296912
vn -0.4435267 0.3189011 0.8376073
vn -0.197681 0.559455 0.8049424
vn -0.4435267 0.3189011 0.8376073
vn -0.8691886 -0.3843426 0.311114
vn -0.4435267 0.3189011 0.8376073
vn -0.3727351 -0.3271599 0.8683519
vn -0.7735819 -0.5630248 0.2908163
vn -0.6420068 -0.6801935 0.3537852
vn 0.2891399 -0.4111482 0.8644971
vn -0.6173774 -0.6879842 0.3814745
vn 0.3334417 -0.5459676 0.7685935
vn 0.9142378 0.03222516 0.4038947
vn 0.3232742 0.5186339 0.7915256
vn -0.4435267 0.3189011 0.8376073
vn 0.7513315 -0.5054396 0.4243015
vn 0.3232742 0.5186339 0.7915256
vn -0.7666259 -0.1850082 0.614863
vn 0.3619112 -0.8285397 0.4272496
vn -0.7666259 -0.1850082 0.614863
vn 0.2043152 -0.7875156 0.5814416
vn 0.3437653 -0.8361745 0.4273612
vn 0.6704028 -0.5954667 0.4426959
vn 0.1106602 -0.215802 0.9701464
vn -0.7666259 -0.1850082 0.614863
vn 0.6716771 -0.6416627 0.3702958
vn 0.8128865 -0.3035583 0.4970594
vn 0.8370264 -0.2852803 0.4669069
vn 0.8233676 0.1756391 0.539645
vn 0.8121234 0.1897676 0.5517642
vn 0.8293234 0.4886011 0.2710936
vn 0.7795538 0.1067521 0.6171709
vn 0.9594041 0.09077074 0.2670292
vn -0.004336562 -0.1836 0.9829914
vn -0.01389709 -0.01539042 0.999785
vn 0.7241241 -0.213931 0.6556507
vn 0.9594041 0.09077074 0.2670292
vn -0.7413527 -0.4725827 0.47651
vn -0.8975393 -0.2345567 0.3733715
vn -0.7666259 -0.1850082 0.614863
vn -0.3641894 -0.6686731 0.6482611
vn -0.2294011 -0.8557075 0.4638317
vn -0.7302541 -0.5985868 0.3292761
vn -0.8975393 -0.2345567 0.3733715
vn -0.9581847 -0.1656145 0.2333537
vn 0.2739085 -0.8519894 0.446193
vn -0.571704 -0.3519213 0.7411518
vn -0.7295206 -0.1441446 0.6685971
vn 0.6300861 -0.2759214 0.7258505
vn -0.7557671 0.1140949 0.6448243
vn 0.7277184 0.2992533 0.6171494
vn -0.7610925 0.2766456 0.5866902
vn 0.7979066 -0.480169 0.3643938
vn 0.9594041 0.09077074 0.2670292
vn 0.775268 -0.3124367 0.5489469
vn 0.796288 0.2835543 0.5343429
vn 0.4923225 0.6090411 0.6218421
vn 0.573777 0.6855855 0.4480543
vn 0.2101072 0.8098032 0.5477898
vn 0.2548704 0.8816504 0.3971572
vn -0.1095829 0.8484982 0.5177281
vn -0.1218653 0.9236529 0.3633376
vn -0.3190863 0.7676818 0.5557414
vn -0.7208475 0.6232896 0.303132
vn 0.08296115 0.9518107 0.2952523
vn -0.16111 0.8583238 0.487159
vn -0.2017473 0.9344258 0.293507
vn -0.6297057 0.5786918 0.5182532
vn -0.6761721 0.6589445 0.32952
vn -0.8238471 0.3339355 0.457999
vn -0.8239768 0.06965891 0.5623254
vn -0.7295206 -0.1441446 0.6685971
vn -0.8559723 0.1096773 0.5052545
vn -0.0959952 0.4111468 0.9065006
vn -0.6595023 0.5451586 0.5175508
vn 0.8677306 -0.3618322 0.3407654
vn 0.7831678 0.004046808 0.6217973
vn 0.6017476 0.55124 0.577957
vn 0.7236654 -0.6106769 0.3215308
vn 0.5851827 -0.7523778 0.3024713
vn -0.2996788 -0.43407 0.8495739
vn -0.6181747 -0.6998731 0.3578235
vn 0.355753 -0.812641 0.4615783
vn 0.5120319 -0.3183621 0.79779
vn 0.693605 -0.4375049 0.5722775
vn -0.494899 0.1137035 0.8614793
vn -0.637035 0.3133014 0.7042931
vn -0.008273275 -0.2041947 0.9788954
vn 0.41257 0.5723673 0.7086478
vn 0.5904025 -0.5498648 0.5908245
vn -0.5130444 0.5415679 0.6659502
vn -0.4426387 -0.4176346 0.7935064
g fire05_mesh_0
f 3/3/3 2/2/2 1/1/1
f 5/5/5 4/4/4 3/3/3
f 6/6/6 4/4/4 5/5/5
f 7/7/7 4/4/4 6/6/6
f 8/8/8 7/7/7 6/6/6
f 5/5/5 9/9/9 6/6/6
f 9/9/9 10/10/10 6/6/6
f 11/11/11 9/9/9 5/5/5
f 12/12/12 11/11/11 5/5/5
f 14/14/14 13/13/13 10/10/10
f 15/15/15 6/6/6 14/14/14
f 16/16/16 6/6/6 15/15/15
f 17/17/17 6/6/6 16/16/16
f 18/18/18 6/6/6 17/17/17
f 19/19/19 6/6/6 18/18/18
f 20/20/20 6/6/6 19/19/19
f 20/20/20 21/21/21 6/6/6
f 23/23/23 22/22/22 5/5/5
f 24/24/24 23/23/23 5/5/5
f 24/24/24 26/26/26 25/25/25
f 26/26/26 27/27/27 25/25/25
f 29/29/29 28/28/28 23/23/23
f 30/30/30 29/29/29 23/23/23
f 31/31/31 29/29/29 30/30/30
f 33/33/33 32/32/32 30/30/30
f 33/33/33 34/34/34 32/32/32
f 34/34/34 35/35/35 32/32/32
f 37/37/37 36/36/36 34/34/34
f 38/38/38 32/32/32 36/36/36
f 40/40/40 32/32/32 39/39/39
f 39/39/39 41/41/41 40/40/40
f 41/41/41 39/39/39 42/42/42
f 41/41/41 43/43/43 40/40/40
f 11/11/11 40/40/40 43/43/43
f 40/40/40 11/11/11 44/44/44
f 47/47/47 46/46/46 45/45/45
f 49/49/49 47/47/47 48/48/48
f 49/49/49 48/48/48 50/50/50
f 48/48/48 51/51/51 50/50/50
f 54/54/54 53/53/53 52/52/52
f 53/53/53 56/56/56 55/55/55
f 58/58/58 53/53/53 57/57/57
f 59/59/59 53/53/53 58/58/58
f 60/60/60 53/53/53 59/59/59
f 62/62/62 53/53/53 61/61/61
f 63/63/63 62/62/62 61/61/61
f 66/66/66 65/65/65 64/64/64
f 68/68/68 67/67/67 64/64/64
f 70/70/70 69/69/69 68/68/68
f 71/71/71 70/70/70 68/68/68
f 72/72/72 70/70/70 71/71/71
f 73/73/73 72/72/72 71/71/71
f 75/75/75 74/74/74 73/73/73
f 77/77/77 76/76/76 75/75/75
f 79/79/79 78/78/78 77/77/77
f 80/80/80 79/79/79 77/77/77
f 81/81/81 79/79/79 80/80/80
f 82/82/82 79/79/79 81/81/81
f 83/83/83 82/82/82 81/81/81
f 84/84/84 82/82/82 83/83/83
f 85/85/85 82/82/82 84/84/84
f 79/79/79 82/82/82 86/86/86
f 86/86/86 82/82/82 85/85/85
f 87/87/87 79/79/79 86/86/86
f 88/88/88 86/86/86 85/85/85
f 90/90/90 89/89/89 88/88/88
f 91/91/91 90/90/90 88/88/88
f 93/93/93 92/92/92 91/91/91
f 94/94/94 93/93/93 91/91/91
f 95/95/95 93/93/93 94/94/94
f 95/95/95 96/96/96 93/93/93
f 93/93/93 96/96/96 97/97/97
f 98/98/98 95/95/95 94/94/94
f 99/99/99 95/95/95 98/98/98
f 99/99/99 96/96/96 95/95/95
f 100/100/100 99/99/99 98/98/98
f 101/101/101 99/99/99 100/100/100
f 101/101/101 96/96/96 99/99/99
f 102/102/102 101/101/101 100/100/100
f 103/103/103 101/101/101 102/102/102
f 104/104/104 101/101/101 103/103/103
f 104/104/104 96/96/96 101/101/101
f 105/105/105 104/104/104 103/103/103
f 106/106/106 96/96/96 104/104/104
f 106/106/106 104/104/104 107/107/107
f 104/104/104 108/108/108 107/107/107
f 108/108/108 104/104/104 109/109/109
f 110/110/110 96/96/96 106/106/106
f 111/111/111 96/96/96 110/110/110
f 112/112/112 96/96/96 111/111/111
f 106/106/106 107/107/107 113/113/113
f 110/110/110 106/106/106 113/113/113
f 110/110/110 113/113/113 114/114/114
f 115/115/115 110/110/110 114/114/114
f 116/116/116 110/110/110 115/115/115
f 117/117/117 116/116/116 115/115/115
f 114/114/114 113/113/113 118/118/118
f 113/113/113 119/119/119 118/118/118
f 113/113/113 107/107/107 119/119/119
f 118/118/118 119/119/119 120/120/120
f 121/121/121 107/107/107 108/108/108
f 119/119/119 107/107/107 122/122/122
f 123/123/123 107/107/107 121/121/121
f 122/122/122 107/107/107 124/124/124
f 121/121/121 108/108/108 125/125/125
f 125/125/125 108/108/108 126/126/126
f 127/127/127 121/121/121 125/125/125
f 123/123/123 121/121/121 127/127/127
f 128/128/128 123/123/123 127/127/127
f 129/129/129 123/123/123 128/128/128
f 129/129/129 107/107/107 123/123/123
f 130/130/130 129/129/129 128/128/128
f 131/131/131 129/129/129 130/130/130
f 131/131/131 107/107/107 129/129/129
f 132/132/132 131/131/131 130/130/130
f 133/133/133 131/131/131 132/132/132
f 133/133/133 107/107/107 131/131/131
f 134/134/134 133/133/133 132/132/132
f 135/135/135 133/133/133 134/134/134
f 135/135/135 107/107/107 133/133/133
f 136/136/136 135/135/135 134/134/134
f 137/137/137 135/135/135 136/136/136
f 138/138/138 135/135/135 137/137/137
f 138/138/138 107/107/107 135/135/135
f 139/139/139 138/138/138 137/137/137
f 140/140/140 107/107/107 138/138/138
f 140/140/140 138/138/138 139/139/139
f 141/141/141 140/140/140 139/139/139
f 124/124/124 107/107/107 140/140/140
f 124/124/124 140/140/140 141/141/141
f 142/142/142 124/124/124 141/141/141
f 122/122/122 124/124/124 142/142/142
f 143/143/143 122/122/122 142/142/142
f 119/119/119 122/122/122 143/143/143
f 144/144/144 119/119/119 143/143/143
f 147/147/147 146/146/146 145/145/145
f 150/150/150 149/149/149 148/148/148
f 148/148/148 149/149/149 151/151/151
f 151/151/151 149/149/149 152/152/152
f 149/149/149 153/153/153 152/152/152
f 152/152/152 153/153/153 154/154/154
f 157/157/157 156/156/156 155/155/155
f 156/156/156 158/158/158 155/155/155
f 155/155/155 158/158/158 159/159/159
f 162/162/162 161/161/161 160/160/160
f 163/163/163 160/160/160 161/161/161
f 160/160/160 164/164/164 162/162/162
f 164/164/164 160/160/160 163/163/163
