g fire04_mesh
v -0.007867534 0.8991031 -0.1395455
v -0.05762167 0.6899114 -0.1685903
v -0.169811 0.7530314 -0.1408512
v -0.002690311 0.6031091 -0.1694152
v -0.04573448 0.5273018 2.235174E-08
v -0.1975626 0.6893527 2.235174E-08
v -0.169811 0.7530314 -0.1408512
v -0.2819135 0.7127153 2.235174E-08
v -0.01366577 0.3076738 -0.1703512
v -0.08195098 0.3517992 2.235174E-08
v -0.002690311 0.6031091 -0.1694152
v 0.1139236 0.5216905 -0.15789
v -0.01366577 0.3076738 -0.1703512
v -0.1930526 0.2514493 2.235174E-08
v -0.1930526 0.2514493 2.235174E-08
v -0.04969566 0.120636 2.235174E-08
v 0.1644298 0.1171246 2.235174E-08
v 0.101035 0.2454501 2.235174E-08
v 0.1151172 0.3886189 2.235174E-08
v 0.1139236 0.5216905 -0.15789
v -0.01366577 0.3076738 -0.1703512
v 0.1946258 0.4549254 2.235174E-08
v 0.3439524 0.4860205 2.235174E-08
v 0.3111787 0.9579412 -3.398463E-16
v 0.4074394 0.9722149 -0.1875382
v 0.4750154 0.8750742 -3.398463E-16
v 0.1359625 0.8438373 -6.117916E-16
v 0.2768101 0.9736427 -0.19258
v 0.1071814 0.8373019 -0.2446475
v 0.2768101 0.9736427 -0.19258
v 0.4074394 0.9722149 -0.1875382
v 0.1542079 1.927338 -3.398464E-16
v 0.1084203 1.931302 -0.05911208
v 0.2413721 2.025164 -3.398464E-16
v 0.08242523 1.77758 -3.398463E-16
v 0.1084203 1.931302 -0.05911208
v 0.04056948 1.736791 -0.06423649
v 0.07267264 1.537964 -3.398463E-16
v -0.005378019 1.731359 -3.398463E-16
v -0.07024556 1.808221 -3.398464E-16
v -0.02976682 1.806772 -0.07435602
v -0.02976682 1.806772 -0.07435602
v 0.1084203 1.931302 -0.05911208
v 0.05692005 1.938701 -3.398464E-16
v -0.02976682 1.806772 -0.07435602
v -0.07024556 1.808221 -3.398464E-16
v 0.2413721 2.025164 -3.398464E-16
v 0.1084203 1.931302 -0.05911208
v 0.2128961 1.040998 3.073364E-08
v 0.2773452 1.106791 -0.1121879
v 0.280922 1.045973 2.235174E-08
v 0.3676773 1.00018 2.235174E-08
v 0.2190264 1.21193 2.235174E-08
v 0.2377581 1.136318 4.470348E-08
v 0.2773452 1.106791 -0.1121879
v 0.2128961 1.040998 3.073364E-08
v 0.3676773 1.00018 2.235174E-08
v 0.3491178 1.085225 2.235174E-08
v 0.2913563 1.165438 2.235174E-08
v 0.2190264 1.21193 2.235174E-08
v -0.2530221 0.7793645 2.235174E-08
v -0.169811 0.7530314 -0.1408512
v -0.2819135 0.7127153 2.235174E-08
v -0.154419 0.9067762 2.235174E-08
v -0.02454446 0.9391069 2.235174E-08
v -0.007867534 0.8991031 -0.1395455
v 0.07780097 0.8601825 -0.0003030919
v 0.2691314 0.5492936 2.235174E-08
v 0.3439524 0.4860205 2.235174E-08
v 0.1139236 0.5216905 -0.15789
v 0.1183539 0.5823454 2.235174E-08
v 0.03019971 0.6243909 2.235174E-08
v -0.002690311 0.6031091 -0.1694152
v -0.05762167 0.6899114 -0.1685903
v 0.01860073 0.7150988 2.235174E-08
v 0.0285412 0.8098971 -0.0001298233
v -0.007867534 0.8991031 -0.1395455
v 0.07780097 0.8601825 -0.0003030919
v 0.5310544 0.3618787 -3.398463E-16
v 0.3426743 0.3361989 -0.198287
v 0.4169098 0.4728081 -0.1631502
v 0.3907218 0.1441242 -3.398464E-16
v 0.2628536 0.2471768 -0.2019042
v 0.2681408 0.05425951 -3.398464E-16
v 0.1286573 0.3476321 -0.3749903
v 0.4169098 0.4728081 -0.1631502
v 0.5226622 0.6730559 -3.398465E-16
v 0.3400439 0.5580511 -3.398463E-16
v 0.16502 0.6062707 -0.2700118
v 0.4169098 0.4728081 -0.1631502
v 0.1906434 0.6276006 -3.398464E-16
v 0.2042729 0.1777085 -0.2137109
v -0.07572995 0.7036203 -0.3457059
v -0.1100393 0.4971423 -0.2389333
v 0.1071814 0.8373019 -0.2446475
v 0.0718722 0.903424 -0.229096
v 0.1359625 0.8438373 -6.117916E-16
v 0.2768101 0.9736427 -0.19258
v 0.1260216 0.007473052 -3.398464E-16
v 0.1962929 1.023536 -0.1867162
v 0.1187007 0.1430655 -0.2151079
v -1.746226E-10 0.009424776 -3.398464E-16
v 0.02944157 0.1322864 -0.2194444
v -0.1245858 0.04545873 -3.398463E-16
v -0.0641628 0.1315952 -0.1969432
v -0.2419919 0.155091 -3.398463E-16
v -0.1040368 0.2243673 -0.2136327
v -0.3090106 0.3074234 -3.398463E-16
v -0.1250018 0.3035564 -0.2118191
v -0.3090106 0.3074234 -3.398463E-16
v -0.1070326 0.3696893 -0.2171954
v -0.1996544 0.3462734 -3.398463E-16
v -0.3090106 0.3074234 -3.398463E-16
v -0.1904843 0.4810651 -3.398464E-16
v -0.253484 0.5558862 -3.398463E-16
v -0.1821726 0.594062 -0.2077872
v -0.3430617 0.5773323 -3.398464E-16
v -0.2255234 0.6578956 -0.2032882
v -0.3251272 0.7684073 -3.398463E-16
v -0.2208563 0.7542504 -0.2061856
v -0.2599887 0.9063182 -3.398464E-16
v -0.1739338 0.8310193 -0.2020365
v -0.1477564 0.9875478 -3.398464E-16
v -0.1034283 0.8766987 -0.199907
v -0.01113906 1.01486 -3.398464E-16
v -0.02291385 0.8874155 -0.2011779
v 0.09294128 0.9736127 -6.069362E-16
v 0.1803357 1.037425 -3.398464E-16
v 0.1956414 1.177592 -3.398464E-16
v 0.2364868 1.183327 -0.1230747
v 0.1739308 1.278958 -5.550529E-16
v 0.3324361 1.070009 -0.182964
v 0.2768101 0.9736427 -0.19258
v 0.4074394 0.9722149 -0.1875382
v 0.450614 1.008597 -3.398463E-16
v 0.4074394 0.9722149 -0.1875382
v 0.4750154 0.8750742 -3.398463E-16
v 0.3762678 1.136863 -3.398464E-16
v 0.2364868 1.183327 -0.1230747
v 0.2794476 1.227262 -3.398463E-16
v 0.1739308 1.278958 -5.550529E-16
v 0.01681586 1.794095 -0.03507853
v 0.005411264 1.745662 0.0003730107
v -0.03712251 1.803375 -0.000641851
v 0.05203114 1.775787 0.0008485054
v 0.02662509 1.87904 -0.0002267587
vt 0.1424397 0.505029
vt 0.148781 0.5047911
vt 0.1468675 0.5042544
vt 0.1514119 0.5050537
vt 0.1537098 0.5048479
vt 0.1487981 0.5041217
vt 0.1468675 0.5042544
vt 0.1480898 0.5037181
vt 0.1603673 0.5050013
vt 0.1590299 0.5046747
vt 0.1514119 0.5050537
vt 0.1538796 0.5056117
vt 0.1603673 0.5050013
vt 0.1620711 0.5041434
vt 0.1620711 0.5041434
vt 0.1660363 0.5048289
vt 0.1661442 0.5058532
vt 0.1622538 0.5055501
vt 0.1579142 0.5056174
vt 0.1538796 0.5056117
vt 0.1603673 0.5050013
vt 0.1559041 0.5059977
vt 0.1549618 0.506712
vt 0.7930591 0.6657591
vt 0.7928078 0.6659954
vt 0.7945177 0.6661612
vt 0.7950675 0.6653289
vt 0.7927828 0.6656746
vt 0.7951825 0.6652582
vt 0.7927828 0.6656746
vt 0.7928078 0.6659954
vt 0.7759962 0.6653737
vt 0.7759265 0.6652611
vt 0.7742743 0.6655876
vt 0.7786323 0.6651976
vt 0.7759265 0.6652611
vt 0.7793503 0.6650948
vt 0.78285 0.6651735
vt 0.7794458 0.6649822
vt 0.7780929 0.6648227
vt 0.7781185 0.6649224
vt 0.7781185 0.6649224
vt 0.7759265 0.6652611
vt 0.7757962 0.6651349
vt 0.7781185 0.6649224
vt 0.7780929 0.6648227
vt 0.7742743 0.6655876
vt 0.7759265 0.6652611
vt 0.1380516 0.506166
vt 0.1360562 0.5064742
vt 0.1379014 0.5064914
vt 0.1392886 0.5069064
vt 0.1328699 0.5061953
vt 0.1351618 0.5062848
vt 0.1360562 0.5064742
vt 0.1380516 0.506166
vt 0.1392886 0.5069064
vt 0.1362894 0.5067248
vt 0.1342415 0.5065472
vt 0.1328699 0.5061953
vt 0.1460686 0.5038564
vt 0.1468675 0.5042544
vt 0.1480898 0.5037181
vt 0.1422075 0.5043281
vt 0.1412269 0.5049493
vt 0.1424397 0.505029
vt 0.1436197 0.5054388
vt 0.1530437 0.5063542
vt 0.1549618 0.506712
vt 0.1538796 0.5056117
vt 0.1520412 0.505633
vt 0.1507672 0.5052111
vt 0.1514119 0.5050537
vt 0.148781 0.5047911
vt 0.1480174 0.5051556
vt 0.145144 0.5052032
vt 0.1424397 0.505029
vt 0.1436197 0.5054388
vt 0.8046733 0.6662606
vt 0.8040031 0.6658362
vt 0.8015982 0.6660184
vt 0.8073837 0.6659541
vt 0.8055699 0.6656404
vt 0.8089655 0.6656533
vt 0.8038018 0.665311
vt 0.8015982 0.6660184
vt 0.7980736 0.666278
vt 0.8000979 0.6658297
vt 0.7992493 0.6654001
vt 0.8015982 0.6660184
vt 0.7988737 0.6654632
vt 0.8067927 0.6654966
vt 0.7975355 0.6648096
vt 0.8011701 0.6647252
vt 0.7951825 0.6652582
vt 0.794019 0.6651717
vt 0.7950675 0.6653289
vt 0.7927828 0.6656746
vt 0.8097889 0.6653045
vt 0.7919046 0.665477
vt 0.8074024 0.6652866
vt 0.8097546 0.6649952
vt 0.8075922 0.6650676
vt 0.8091203 0.6646895
vt 0.8076043 0.6648379
vt 0.8071907 0.6644012
vt 0.8059713 0.66474
vt 0.8045094 0.664237
vt 0.8045774 0.6646884
vt 0.8045094 0.664237
vt 0.8034133 0.6647325
vt 0.8038257 0.6645052
vt 0.8045094 0.664237
vt 0.8014532 0.6645277
vt 0.800136 0.664373
vt 0.799464 0.6645482
vt 0.7997586 0.6641532
vt 0.7983406 0.6644417
vt 0.7963953 0.6641971
vt 0.7966444 0.6644532
vt 0.7939677 0.6643571
vt 0.795293 0.6645684
vt 0.792538 0.6646326
vt 0.7944893 0.6647415
vt 0.7920572 0.664968
vt 0.7943008 0.6649389
vt 0.7927833 0.6652233
vt 0.7916604 0.6654378
vt 0.789193 0.6654754
vt 0.7890922 0.6655755
vt 0.7874087 0.6654221
vt 0.7910865 0.6658111
vt 0.7927828 0.6656746
vt 0.7928078 0.6659954
vt 0.7921675 0.6661011
vt 0.7928078 0.6659954
vt 0.7945177 0.6661612
vt 0.78991 0.6659188
vt 0.7890922 0.6655755
vt 0.7883188 0.6656811
vt 0.7874087 0.6654221
vt 0.1153106 0.5051469
vt 0.1167784 0.5050926
vt 0.1150285 0.5048891
vt 0.1158649 0.5053155
vt 0.1127352 0.505194
vn -0.2183257 -0.5976747 0.7714396
vn -0.1005629 0.4415597 0.8915784
vn 0.6543604 0.08949919 0.7508677
vn 0.3001451 -0.435901 0.8484711
vn 0.9146369 0.1259901 0.3841429
vn 0.5412946 0.6821399 0.4916149
vn 0.6543604 0.08949919 0.7508677
vn 0.6733342 0.3680121 0.6412396
vn 0.4601691 0.2290274 0.8577825
vn 0.9049751 -0.2481474 0.3456052
vn 0.3001451 -0.435901 0.8484711
vn -0.5955293 -0.2076269 0.7760386
vn 0.4601691 0.2290274 0.8577825
vn 0.638414 0.2082111 0.7409964
vn 0.638414 0.2082111 0.7409964
vn 0.2110884 0.6356484 0.7425582
vn -0.2461438 0.5079271 0.8254837
vn -0.844831 -0.2093991 0.4923543
vn -0.7765526 0.3890062 0.4956211
vn -0.5955293 -0.2076269 0.7760386
vn 0.4601691 0.2290274 0.8577825
vn -0.3137924 0.8063364 0.501354
vn -0.5053513 0.3084105 0.8059176
vn -0.2448885 0.9554145 0.1649629
vn -0.4859351 0.5905693 0.6442786
vn -0.1606254 0.926214 0.3410678
vn -0.953716 0.2705588 0.1312393
vn -0.3365754 0.7654805 0.5484128
vn -0.8709686 0.01666941 0.4910558
vn -0.3365754 0.7654805 0.5484128
vn -0.4859351 0.5905693 0.6442786
vn -0.761599 0.4085341 0.5030575
vn -0.1985476 -0.3421303 0.9184365
vn -0.08515202 -0.4418108 0.8930578
vn -0.8291929 0.2537113 0.498066
vn -0.1985476 -0.3421303 0.9184365
vn -0.2361366 0.3666788 0.8998812
vn -0.1254794 0.2865977 0.9497983
vn 0.7117833 0.4964121 0.4969302
vn 0.7858824 -0.2494178 0.5658442
vn 0.5774181 -0.1928078 0.7933558
vn 0.5774181 -0.1928078 0.7933558
vn -0.1985476 -0.3421303 0.9184365
vn 0.5631227 -0.688873 0.4564503
vn 0.5774181 -0.1928078 0.7933558
vn 0.7858824 -0.2494178 0.5658442
vn -0.08515202 -0.4418108 0.8930578
vn -0.1985476 -0.3421303 0.9184365
vn 0.6899878 0.377347 0.617678
vn 0.0006869282 -0.1253581 0.9921113
vn 0.2436619 0.8558674 0.4562016
vn -0.3490364 0.5227237 0.7777748
vn 0.2513166 -0.6376229 0.7282012
vn 0.9430373 0.0002945734 0.332687
vn 0.0006869282 -0.1253581 0.9921113
vn 0.6899878 0.377347 0.617678
vn -0.3490364 0.5227237 0.7777748
vn -0.8228052 -0.3295102 0.4630491
vn -0.6116513 -0.6671755 0.4251583
vn 0.2513166 -0.6376229 0.7282012
vn 0.7214117 -0.4650373 0.5131328
vn 0.6543604 0.08949919 0.7508677
vn 0.6733342 0.3680121 0.6412396
vn 0.4951974 -0.7015763 0.5124161
vn 0.2543154 -0.8352098 0.4875943
vn -0.2183257 -0.5976747 0.7714396
vn -0.8586199 -0.1973534 0.4730999
vn -0.4119581 -0.7383071 0.5340346
vn -0.5053513 0.3084105 0.8059176
vn -0.5955293 -0.2076269 0.7760386
vn -0.4016931 -0.864873 0.3010603
vn -0.7126961 -0.6298792 0.3087334
vn 0.3001451 -0.435901 0.8484711
vn -0.1005629 0.4415597 0.8915784
vn -0.931263 -0.02609699 0.363412
vn -0.8956116 0.2051589 0.3947019
vn -0.2183257 -0.5976747 0.7714396
vn -0.8586199 -0.1973534 0.4730999
vn -0.7536113 0.2288227 0.6162063
vn -0.6862653 0.3138883 0.6561356
vn -0.7031945 -0.3220497 0.6338783
vn -0.6180392 0.5118604 0.5966794
vn -0.6048878 0.4983484 0.6210955
vn -0.4306698 0.7048885 0.5636097
vn -0.1695122 0.02638069 0.985175
vn -0.7031945 -0.3220497 0.6338783
vn -0.5586001 -0.2239851 0.7986218
vn -0.3036817 -0.9126278 0.2736566
vn -0.681771 -0.4431571 0.5820652
vn -0.7031945 -0.3220497 0.6338783
vn -0.8007846 -0.5809601 0.1457033
vn -0.4325541 0.6635058 0.6104565
vn 0.1260115 -0.1121308 0.9856712
vn 0.7527121 0.2551642 0.6068901
vn -0.8709686 0.01666941 0.4910558
vn 0.1615161 -0.7326074 0.6612102
vn -0.953716 0.2705588 0.1312393
vn -0.3365754 0.7654805 0.5484128
vn -0.1711659 0.8345141 0.5237254
vn 0.5349798 -0.5622196 0.6306391
vn -0.181007 0.782869 0.5952752
vn 0.07201549 0.8663191 0.4942721
vn 0.06488507 0.782808 0.6188712
vn 0.4660384 0.7148188 0.5213849
vn 0.4386422 0.6718233 0.5968638
vn 0.7105497 0.4055863 0.5749946
vn 0.6447864 0.3609108 0.6737906
vn 0.7962015 -0.003943597 0.6050186
vn 0.7387255 -0.0574193 0.6715562
vn 0.7962015 -0.003943597 0.6050186
vn 0.8095178 -0.1188818 0.5749331
vn 0.8563871 -0.3415591 0.3872189
vn 0.7962015 -0.003943597 0.6050186
vn 0.8960134 0.2635942 0.3573205
vn 0.6525308 0.6508749 0.3880276
vn 0.6831805 0.5415677 0.4898663
vn 0.8272279 0.240416 0.5078328
vn 0.8060084 0.1952954 0.5587577
vn 0.8537491 -0.2223357 0.4708284
vn 0.8139947 -0.2313372 0.5328186
vn 0.6577938 -0.5761968 0.4850818
vn 0.6197793 -0.5614489 0.5483144
vn 0.3251079 -0.7952127 0.5118024
vn 0.3023624 -0.7604886 0.57466
vn 0.05171276 -0.8800092 0.4721332
vn 0.1052204 -0.826668 0.5527647
vn 0.36867 -0.885794 0.2818709
vn 0.8254963 -0.5377655 0.1713598
vn 0.9681833 -0.1299913 0.2138304
vn 0.2521506 -0.7176909 0.6491069
vn 0.3306069 -0.6564232 0.6780912
vn -0.5200986 -0.5436965 0.6587045
vn -0.3365754 0.7654805 0.5484128
vn -0.4859351 0.5905693 0.6442786
vn -0.8494732 -0.4254161 0.3121161
vn -0.4859351 0.5905693 0.6442786
vn -0.1606254 0.926214 0.3410678
vn -0.6942595 -0.6124567 0.378022
vn 0.2521506 -0.7176909 0.6491069
vn -0.5515434 -0.7194735 0.4220875
vn 0.3306069 -0.6564232 0.6780912
vn -0.06057342 -0.04861498 0.9969792
vn 0.1737974 0.554688 0.8137048
vn 0.5195 -0.1199159 0.8460141
vn -0.671838 0.1363955 0.7280315
vn -0.0305139 -0.3763851 0.9259607
g fire04_mesh_0
f 3/3/3 2/2/2 1/1/1
f 2/2/2 5/5/5 4/4/4
f 5/5/5 2/2/2 6/6/6
f 2/2/2 7/7/7 6/6/6
f 6/6/6 7/7/7 8/8/8
f 5/5/5 10/10/10 9/9/9
f 11/11/11 5/5/5 9/9/9
f 11/11/11 9/9/9 12/12/12
f 14/14/14 13/13/13 10/10/10
f 16/16/16 9/9/9 15/15/15
f 17/17/17 9/9/9 16/16/16
f 17/17/17 18/18/18 9/9/9
f 18/18/18 19/19/19 9/9/9
f 21/21/21 19/19/19 20/20/20
f 20/20/20 19/19/19 22/22/22
f 22/22/22 23/23/23 20/20/20
f 26/26/26 25/25/25 24/24/24
f 24/24/24 28/28/28 27/27/27
f 30/30/30 29/29/29 27/27/27
f 31/31/31 30/30/30 24/24/24
f 34/34/34 33/33/33 32/32/32
f 32/32/32 36/36/36 35/35/35
f 36/36/36 37/37/37 35/35/35
f 35/35/35 37/37/37 38/38/38
f 38/38/38 37/37/37 39/39/39
f 39/39/39 37/37/37 40/40/40
f 37/37/37 41/41/41 40/40/40
f 43/43/43 42/42/42 37/37/37
f 45/45/45 43/43/43 44/44/44
f 46/46/46 45/45/45 44/44/44
f 44/44/44 48/48/48 47/47/47
f 51/51/51 50/50/50 49/49/49
f 52/52/52 50/50/50 51/51/51
f 54/54/54 50/50/50 53/53/53
f 56/56/56 55/55/55 54/54/54
f 58/58/58 55/55/55 57/57/57
f 58/58/58 59/59/59 55/55/55
f 60/60/60 55/55/55 59/59/59
f 63/63/63 62/62/62 61/61/61
f 61/61/61 62/62/62 64/64/64
f 64/64/64 62/62/62 65/65/65
f 62/62/62 66/66/66 65/65/65
f 65/65/65 66/66/66 67/67/67
f 70/70/70 69/69/69 68/68/68
f 71/71/71 70/70/70 68/68/68
f 71/71/71 72/72/72 70/70/70
f 72/72/72 73/73/73 70/70/70
f 74/74/74 73/73/73 72/72/72
f 75/75/75 2/2/2 72/72/72
f 75/75/75 76/76/76 2/2/2
f 76/76/76 77/77/77 2/2/2
f 78/78/78 77/77/77 76/76/76
f 81/81/81 80/80/80 79/79/79
f 79/79/79 80/80/80 82/82/82
f 80/80/80 83/83/83 82/82/82
f 82/82/82 83/83/83 84/84/84
f 80/80/80 85/85/85 83/83/83
f 86/86/86 85/85/85 80/80/80
f 87/87/87 86/86/86 79/79/79
f 88/88/88 86/86/86 87/87/87
f 89/89/89 85/85/85 86/86/86
f 89/89/89 90/90/90 88/88/88
f 91/91/91 89/89/89 88/88/88
f 83/83/83 92/92/92 84/84/84
f 83/83/83 85/85/85 92/92/92
f 85/85/85 89/89/89 93/93/93
f 85/85/85 93/93/93 94/94/94
f 95/95/95 93/93/93 89/89/89
f 95/95/95 89/89/89 91/91/91
f 96/96/96 93/93/93 95/95/95
f 97/97/97 95/95/95 91/91/91
f 95/95/95 98/98/98 96/96/96
f 84/84/84 92/92/92 99/99/99
f 98/98/98 100/100/100 96/96/96
f 92/92/92 101/101/101 99/99/99
f 92/92/92 85/85/85 101/101/101
f 99/99/99 101/101/101 102/102/102
f 101/101/101 103/103/103 102/102/102
f 101/101/101 85/85/85 103/103/103
f 102/102/102 103/103/103 104/104/104
f 103/103/103 105/105/105 104/104/104
f 103/103/103 85/85/85 105/105/105
f 104/104/104 105/105/105 106/106/106
f 105/105/105 107/107/107 106/106/106
f 105/105/105 85/85/85 107/107/107
f 106/106/106 107/107/107 108/108/108
f 107/107/107 85/85/85 109/109/109
f 107/107/107 109/109/109 110/110/110
f 109/109/109 85/85/85 111/111/111
f 111/111/111 85/85/85 94/94/94
f 109/109/109 111/111/111 112/112/112
f 113/113/113 109/109/109 112/112/112
f 112/112/112 111/111/111 114/114/114
f 111/111/111 94/94/94 114/114/114
f 114/114/114 94/94/94 115/115/115
f 94/94/94 116/116/116 115/115/115
f 115/115/115 116/116/116 117/117/117
f 94/94/94 93/93/93 116/116/116
f 116/116/116 118/118/118 117/117/117
f 116/116/116 93/93/93 118/118/118
f 117/117/117 118/118/118 119/119/119
f 118/118/118 120/120/120 119/119/119
f 118/118/118 93/93/93 120/120/120
f 119/119/119 120/120/120 121/121/121
f 120/120/120 122/122/122 121/121/121
f 120/120/120 93/93/93 122/122/122
f 121/121/121 122/122/122 123/123/123
f 122/122/122 124/124/124 123/123/123
f 122/122/122 93/93/93 124/124/124
f 123/123/123 124/124/124 125/125/125
f 124/124/124 93/93/93 126/126/126
f 124/124/124 126/126/126 125/125/125
f 125/125/125 126/126/126 127/127/127
f 126/126/126 93/93/93 96/96/96
f 126/126/126 96/96/96 127/127/127
f 127/127/127 96/96/96 128/128/128
f 96/96/96 100/100/100 128/128/128
f 128/128/128 100/100/100 129/129/129
f 100/100/100 130/130/130 129/129/129
f 129/129/129 130/130/130 131/131/131
f 132/132/132 130/130/130 100/100/100
f 133/133/133 132/132/132 100/100/100
f 133/133/133 134/134/134 132/132/132
f 132/132/132 136/136/136 135/135/135
f 135/135/135 136/136/136 137/137/137
f 138/138/138 132/132/132 135/135/135
f 139/139/139 132/132/132 138/138/138
f 140/140/140 139/139/139 138/138/138
f 141/141/141 139/139/139 140/140/140
f 144/144/144 143/143/143 142/142/142
f 145/145/145 142/142/142 143/143/143
f 142/142/142 146/146/146 144/144/144
f 146/146/146 142/142/142 145/145/145
