g fire23_mesh
v 0.06601211 1.844125 0.0007816913
v 0.05795235 1.864121 -0.0293316
v 0.06436553 1.904225 0.0007816913
v 0.05795235 1.864121 -0.0293316
v 0.04625327 1.881173 -0.01033848
v 0.04884141 1.861851 -0.004778395
v 0.05795235 1.864121 -0.0293316
v 0.05795235 1.864121 -0.0293316
v 0.06601211 1.844125 0.0007816913
v 0.3349513 0.1374552 -3.29176E-16
v 0.1777883 0.1881279 -0.1379967
v 0.262316 0.2023172 -3.29176E-16
v 0.04069079 0.6284684 -3.29176E-16
v 0.07093003 0.7139098 -0.1634422
v -0.009107556 0.5066118 -0.2166233
v 0.2645978 0.06542894 -3.29176E-16
v 0.1777883 0.1881279 -0.1379967
v 0.3349513 0.1374552 -3.29176E-16
v 0.1707758 0.03837451 -3.29176E-16
v 0.08245064 0.1288717 -0.198895
v 0.004165162 0.009424776 -3.29176E-16
v -0.005724842 0.09676176 -0.2130114
v -0.1416235 0.01173621 -3.29176E-16
v -0.0865746 0.2732514 -0.3084413
v -0.1122892 0.09574789 -0.2148916
v -0.2521211 0.05328843 -3.29176E-16
v 0.2035265 0.342004 -0.27
v 0.262316 0.2023172 -3.29176E-16
v 0.2653297 0.5413247 -0.3223924
v -0.009107556 0.5066118 -0.2166233
v -0.1922027 0.1266854 -0.2113541
v -0.3367072 0.1354081 -3.29176E-16
v -0.2550882 0.1772001 -0.2175572
v -0.3726755 0.2586096 -3.29176E-16
v -0.2933741 0.2424887 -0.2025094
v -0.37039 0.4082317 -3.29176E-16
v -0.2994368 0.3450718 -0.2042149
v -0.3311094 0.4909863 -3.29176E-16
v -0.2444457 0.4130087 -0.2039081
v -0.2244614 0.5404103 -3.29176E-16
v -0.1523894 0.476887 -0.2163131
v -0.06431782 0.5374917 -3.29176E-16
v 0.04069079 0.6284684 -3.29176E-16
v 0.07093003 0.7139098 -0.1634422
v 0.07326402 0.7936547 -0.07881948
v 0.185627 0.7235538 -0.1851614
v 0.2154613 0.844161 -3.29176E-16
v 0.07326402 0.7936547 -0.07881948
v 0.02388706 0.7647491 -3.29176E-16
v 0.317105 0.8549844 -3.29176E-16
v 0.1196906 0.8978727 -3.29176E-16
v 0.2863979 0.7196958 -0.1981099
v 0.4435127 0.6774846 -3.29176E-16
v 0.01008905 0.9419478 -0.06919933
v 0.09586002 0.989826 -3.29176E-16
v -0.07568333 0.895505 -3.29176E-16
v 0.07326402 0.7936547 -0.07881948
v 0.3548519 0.6454839 -0.1968782
v 0.516884 0.5548182 -3.29176E-16
v 0.4040689 0.5389595 -0.1909415
v 0.5518911 0.4343171 -3.29176E-16
v 0.4131903 0.4015529 -0.1723956
v 0.4850888 0.2666063 -3.29176E-16
v 0.3938387 0.3344313 -9.875282E-16
v 0.2837545 0.3158929 -3.29176E-16
v 0.262316 0.2023172 -3.29176E-16
v -0.2128036 0.9287107 -3.29176E-16
v -0.09336857 1.067434 -0.08923399
v 0.02511629 1.357601 -0.05444274
v -0.02058938 1.37009 -9.875282E-16
v 0.08162262 1.528624 -3.29176E-16
v 0.05996885 1.310471 -3.29176E-16
v 0.1087309 1.096337 -3.29176E-16
v -0.01345171 1.116255 -0.1385333
v -0.03643356 1.066573 -0.1065548
v 0.02939087 1.161451 2.235174E-08
v 0.05136106 1.091954 2.235174E-08
v 0.03670512 1.227992 2.235174E-08
v 0.05196285 0.9803327 2.235174E-08
v 0.02851624 1.347102 2.235174E-08
v 0.07823507 0.8576619 2.235174E-08
v -0.01971836 1.25339 2.235174E-08
v -0.05982522 0.9768606 2.235174E-08
v -0.06244043 1.167945 2.235174E-08
v -0.135479 0.9909063 2.235174E-08
v -0.1016241 1.07349 2.235174E-08
v 0.4357677 0.4317244 2.235174E-08
v 0.2643083 0.4823895 2.235174E-08
v 0.2118386 0.5651957 -0.1249027
v 0.4439485 0.5660325 2.235174E-08
v 0.3328772 0.7199103 2.235174E-08
v 0.2198859 0.7367063 2.235175E-08
v 0.1132877 0.8063733 2.235174E-08
v 0.1328522 0.6267688 2.235174E-08
v 0.1442772 0.4141747 2.235174E-08
v 0.0930641 0.4751087 2.235174E-08
v -0.02560282 0.2163666 -0.110802
v 0.1266895 0.2579632 2.235174E-08
v -0.03588878 0.4188353 2.235174E-08
v 0.2168539 0.1306366 2.235174E-08
v -0.2074869 0.466598 2.235174E-08
v 0.030709 0.07190701 2.235174E-08
v -0.3200007 0.3933723 2.235174E-08
v -0.1566373 0.08380345 2.235174E-08
v -0.3061447 0.2207462 2.235174E-08
v 0.0396669 1.809093 -3.827408E-16
v 0.08512281 1.787104 -0.03831641
v 0.06705283 1.743203 -2.551605E-16
v 0.0751946 1.665418 -2.551605E-16
v 0.0962716 1.731675 -2.551607E-16
v 0.00389855 1.864337 -3.827407E-16
v 0.1331028 1.797088 -3.827407E-16
v 0.03805304 1.866784 -0.0542034
v 0.03306907 1.927688 -3.827407E-16
v 0.08735313 1.920009 -0.03831641
v 0.1456184 1.890043 -3.827408E-16
v 0.09398817 2.02842 -3.827407E-16
vt 0.118948 0.5055413
vt 0.117805 0.505455
vt 0.1155137 0.5055237
vt 0.117805 0.505455
vt 0.1168309 0.5053294
vt 0.1179351 0.5053573
vt 0.117805 0.505455
vt 0.117805 0.505455
vt 0.118948 0.5055413
vt 0.807501 0.6658173
vt 0.8066092 0.6654316
vt 0.8063594 0.665639
vt 0.7988583 0.6650952
vt 0.7973545 0.6651693
vt 0.8010033 0.6649728
vt 0.8087688 0.6656446
vt 0.8066092 0.6654316
vt 0.807501 0.6658173
vt 0.8092451 0.6654144
vt 0.8076524 0.6651976
vt 0.8097546 0.6650054
vt 0.8082174 0.6649812
vt 0.8097137 0.6646478
vt 0.8051109 0.6647829
vt 0.8082354 0.6647198
vt 0.8089824 0.6643765
vt 0.8039008 0.6654948
vt 0.8063594 0.665639
vt 0.8003924 0.6656464
vt 0.8010033 0.6649728
vt 0.8076907 0.6645236
vt 0.807537 0.6641689
vt 0.8068016 0.6643691
vt 0.8053687 0.6640804
vt 0.805652 0.6642753
vt 0.8027349 0.6640862
vt 0.8038468 0.6642603
vt 0.8012785 0.6641826
vt 0.802651 0.6643953
vt 0.8004085 0.6644441
vt 0.8015265 0.6646214
vt 0.80046 0.6648375
vt 0.7988583 0.6650952
vt 0.7973545 0.6651693
vt 0.7959508 0.6651751
vt 0.7971848 0.6654507
vt 0.7950619 0.6655241
vt 0.7959508 0.6651751
vt 0.7964598 0.6650538
vt 0.7948713 0.6657736
vt 0.7941166 0.6652889
vt 0.7972527 0.6656982
vt 0.7979957 0.6660838
vt 0.7933407 0.6650199
vt 0.7924979 0.6652304
vt 0.7941583 0.6648095
vt 0.7959508 0.6651751
vt 0.7985594 0.6658661
vt 0.8001549 0.6662637
vt 0.8004339 0.665987
vt 0.8022759 0.6663499
vt 0.8028529 0.6660092
vt 0.8052279 0.6661859
vt 0.8040338 0.6659618
vt 0.8043603 0.6656917
vt 0.8063594 0.665639
vt 0.7935737 0.6644732
vt 0.7911323 0.6647662
vt 0.7860247 0.6650568
vt 0.7858048 0.6649446
vt 0.7830142 0.6651955
vt 0.7868541 0.6651424
vt 0.7906232 0.6652621
vt 0.7902727 0.6649622
vt 0.1379042 0.5048924
vt 0.1354843 0.5052073
vt 0.1372571 0.5053124
vt 0.1337875 0.5052422
vt 0.140104 0.5053153
vt 0.1307495 0.5052031
vt 0.1432323 0.5054408
vt 0.1331397 0.5049723
vt 0.1401927 0.5047806
vt 0.1353182 0.5047681
vt 0.1398339 0.5044186
vt 0.1377274 0.5045807
vt 0.161667 0.5071513
vt 0.1608326 0.506331
vt 0.1580788 0.50608
vt 0.1577654 0.5071905
vt 0.15289 0.506659
vt 0.1523374 0.5061186
vt 0.1500151 0.5056086
vt 0.1560275 0.5057022
vt 0.1631364 0.5057569
vt 0.1611053 0.5055118
vt 0.1697722 0.5049442
vt 0.1683277 0.5056728
vt 0.1629942 0.504895
vt 0.1725051 0.5061041
vt 0.1613826 0.5040742
vt 0.174526 0.5052136
vt 0.163843 0.5035359
vt 0.1742222 0.5043173
vt 0.1696234 0.5036022
vt 0.7780774 0.6650925
vt 0.7784646 0.6652042
vt 0.7792374 0.6651598
vt 0.7806065 0.6651797
vt 0.77944 0.6652316
vt 0.7771052 0.6650047
vt 0.778289 0.6653218
vt 0.7770623 0.6650886
vt 0.7759902 0.6650764
vt 0.7761253 0.6652097
vt 0.7766526 0.6653525
vt 0.7742172 0.6652259
vn -0.9052806 0.1997425 0.3749267
vn -0.8210981 0.03900453 0.5694529
vn -0.8499755 -0.2226086 0.47748
vn -0.8210981 0.03900453 0.5694529
vn 0.5332644 -0.4393453 0.722914
vn 0.7670852 0.5470128 0.3351974
vn -0.8210981 0.03900453 0.5694529
vn -0.8210981 0.03900453 0.5694529
vn -0.9052806 0.1997425 0.3749267
vn -0.6306914 0.128216 0.7653686
vn -0.641384 0.4739215 0.603345
vn -0.8990744 0.1359322 0.4161582
vn 0.8812748 -0.4476907 0.1514191
vn 0.6914188 -0.4824344 0.5377706
vn 0.4373873 -0.633062 0.6386901
vn -0.4845635 0.564551 0.668192
vn -0.641384 0.4739215 0.603345
vn -0.6306914 0.128216 0.7653686
vn -0.368671 0.7510064 0.5477875
vn -0.3951774 0.624725 0.6734638
vn -0.1185444 0.9063756 0.4055001
vn -0.133125 0.8239123 0.5508595
vn 0.1589805 0.9092951 0.3845875
vn 0.08296446 0.06083262 0.9946941
vn 0.1352765 0.8373673 0.5296379
vn 0.4803219 0.7845796 0.3920786
vn -0.4008548 0.5548656 0.728999
vn -0.8990744 0.1359322 0.4161582
vn -0.08341074 -0.1324923 0.9876681
vn 0.4373873 -0.633062 0.6386901
vn 0.4313027 0.7326164 0.5265466
vn 0.7650964 0.5185418 0.3817617
vn 0.6851147 0.4804573 0.5475203
vn 0.9247276 0.1426895 0.3528721
vn 0.8465846 0.1533847 0.509674
vn 0.8799808 -0.2335431 0.4136321
vn 0.8135123 -0.1683681 0.5566416
vn 0.6073777 -0.6520165 0.4538357
vn 0.5431017 -0.5780308 0.6090329
vn 0.2913735 -0.8904921 0.3494646
vn 0.235796 -0.8071638 0.5411903
vn 0.4731553 -0.8582014 0.1990338
vn 0.8812748 -0.4476907 0.1514191
vn 0.6914188 -0.4824344 0.5377706
vn 0.4139454 -0.3662651 0.8333661
vn 0.07893759 -0.7143716 0.6953
vn -0.01467751 -0.7962651 0.6047698
vn 0.4139454 -0.3662651 0.8333661
vn 0.8327518 0.1453322 0.5342314
vn -0.4053012 -0.7389585 0.5382112
vn -0.3731626 -0.5210404 0.767637
vn -0.4064974 -0.6887606 0.6003071
vn -0.7490272 -0.4826098 0.453923
vn -0.03851478 0.2143805 0.9759906
vn -0.6649891 -0.03976497 0.7457937
vn 0.419569 0.4094957 0.8101081
vn 0.4139454 -0.3662651 0.8333661
vn -0.7154772 -0.4700824 0.5168316
vn -0.812546 -0.2404887 0.5309747
vn -0.7841994 -0.2139888 0.5824432
vn -0.8128928 0.03811871 0.5811645
vn -0.6167554 0.538204 0.5744119
vn -0.4666808 0.5914297 0.6575866
vn -0.1183342 0.9522706 0.2813852
vn -0.5940974 0.7390919 0.3174766
vn -0.8990744 0.1359322 0.4161582
vn 0.5620549 0.008556711 0.8270558
vn 0.6924177 -0.1903225 0.6959418
vn 0.1354199 -0.3716468 0.9184445
vn 0.7393886 -0.3559184 0.5715126
vn -0.1497298 -0.2546574 0.9553694
vn -0.7936596 -0.1082225 0.5986588
vn -0.7804537 -0.06545072 0.6217782
vn -0.3418902 -0.1364228 0.9297848
vn 0.1276343 0.1005192 0.9867144
vn -0.8390321 -0.02812154 0.5433546
vn -0.7560048 -0.1004136 0.6468184
vn -0.7968493 -0.03702545 0.6030426
vn -0.810856 -0.1246029 0.5718275
vn -0.1821966 -0.3119942 0.9324506
vn 0.02074453 0.4632745 0.885972
vn 0.7431265 -0.3804605 0.550466
vn 0.4178028 0.6477433 0.6370788
vn 0.7665778 -0.3613255 0.5308507
vn 0.564637 0.3276513 0.7575154
vn 0.7961167 -0.3282588 0.5083742
vn -0.3466865 0.2613553 0.900834
vn -0.001643287 0.8331521 0.5530416
vn -0.04726076 -0.02604544 0.998543
vn -0.4693158 -0.1325224 0.8730295
vn -0.3377458 -0.4169981 0.8438247
vn -0.2425936 -0.5636396 0.7895941
vn 0.232102 -0.3708521 0.8992204
vn 0.8406683 -0.01942818 0.5412019
vn -0.7532015 0.4390312 0.4898358
vn 0.7173645 -0.4824873 0.5025873
vn -0.1153682 0.1813136 0.9766349
vn -0.7618123 0.2178802 0.6100577
vn 0.01507301 -0.4794249 0.8774534
vn -0.3512561 0.1911948 0.9165499
vn 0.09295036 -0.3458646 0.933669
vn -0.08896104 0.5841258 0.8067732
vn 0.281319 -0.1274821 0.9511089
vn 0.252755 0.461113 0.850582
vn 0.3659153 0.131888 0.9212554
vn 0.7088897 0.467337 0.5282722
vn -0.1889358 0.2496131 0.949735
vn 0.8150724 0.1523693 0.5589639
vn 0.07093905 0.2943155 0.9530719
vn -0.7322592 0.2814173 0.6201619
vn 0.7639732 0.008577256 0.645191
vn -0.5899736 0.07942823 0.8035063
vn 0.493111 -0.005810209 0.869947
vn 0.5830879 -0.4324894 0.6877219
vn -0.1974856 -0.2361071 0.9514478
vn -0.5910598 -0.01947619 0.8063926
vn -0.07806681 -0.3279684 0.9414576
g fire23_mesh_0
f 3/3/3 2/2/2 1/1/1
f 5/5/5 4/4/4 3/3/3
f 7/7/7 5/5/5 6/6/6
f 9/9/9 8/8/8 6/6/6
f 12/12/12 11/11/11 10/10/10
f 15/15/15 14/14/14 13/13/13
f 18/18/18 17/17/17 16/16/16
f 16/16/16 17/17/17 19/19/19
f 17/17/17 20/20/20 19/19/19
f 19/19/19 20/20/20 21/21/21
f 20/20/20 22/22/22 21/21/21
f 21/21/21 22/22/22 23/23/23
f 17/17/17 24/24/24 20/20/20
f 20/20/20 24/24/24 22/22/22
f 22/22/22 25/25/25 23/23/23
f 22/22/22 24/24/24 25/25/25
f 23/23/23 25/25/25 26/26/26
f 27/27/27 24/24/24 17/17/17
f 27/27/27 17/17/17 28/28/28
f 29/29/29 24/24/24 27/27/27
f 30/30/30 24/24/24 29/29/29
f 25/25/25 31/31/31 26/26/26
f 25/25/25 24/24/24 31/31/31
f 26/26/26 31/31/31 32/32/32
f 31/31/31 33/33/33 32/32/32
f 31/31/31 24/24/24 33/33/33
f 32/32/32 33/33/33 34/34/34
f 33/33/33 35/35/35 34/34/34
f 33/33/33 24/24/24 35/35/35
f 34/34/34 35/35/35 36/36/36
f 35/35/35 37/37/37 36/36/36
f 35/35/35 24/24/24 37/37/37
f 36/36/36 37/37/37 38/38/38
f 37/37/37 39/39/39 38/38/38
f 37/37/37 24/24/24 39/39/39
f 38/38/38 39/39/39 40/40/40
f 39/39/39 24/24/24 41/41/41
f 39/39/39 41/41/41 40/40/40
f 41/41/41 24/24/24 30/30/30
f 40/40/40 41/41/41 42/42/42
f 41/41/41 30/30/30 42/42/42
f 42/42/42 30/30/30 43/43/43
f 30/30/30 29/29/29 44/44/44
f 43/43/43 44/44/44 45/45/45
f 44/44/44 29/29/29 46/46/46
f 45/45/45 46/46/46 47/47/47
f 44/44/44 46/46/46 48/48/48
f 49/49/49 43/43/43 48/48/48
f 47/47/47 46/46/46 50/50/50
f 51/51/51 48/48/48 47/47/47
f 46/46/46 52/52/52 50/50/50
f 46/46/46 29/29/29 52/52/52
f 50/50/50 52/52/52 53/53/53
f 54/54/54 48/48/48 51/51/51
f 55/55/55 54/54/54 51/51/51
f 48/48/48 54/54/54 56/56/56
f 49/49/49 57/57/57 56/56/56
f 52/52/52 58/58/58 53/53/53
f 52/52/52 29/29/29 58/58/58
f 53/53/53 58/58/58 59/59/59
f 58/58/58 60/60/60 59/59/59
f 58/58/58 29/29/29 60/60/60
f 59/59/59 60/60/60 61/61/61
f 60/60/60 29/29/29 62/62/62
f 60/60/60 62/62/62 61/61/61
f 61/61/61 62/62/62 63/63/63
f 63/63/63 62/62/62 64/64/64
f 62/62/62 29/29/29 27/27/27
f 64/64/64 62/62/62 65/65/65
f 62/62/62 27/27/27 65/65/65
f 65/65/65 27/27/27 66/66/66
f 56/56/56 68/68/68 67/67/67
f 54/54/54 68/68/68 56/56/56
f 67/67/67 68/68/68 69/69/69
f 70/70/70 67/67/67 69/69/69
f 70/70/70 69/69/69 71/71/71
f 71/71/71 69/69/69 72/72/72
f 72/72/72 69/69/69 73/73/73
f 74/74/74 68/68/68 54/54/54
f 68/68/68 74/74/74 69/69/69
f 69/69/69 74/74/74 73/73/73
f 55/55/55 74/74/74 54/54/54
f 73/73/73 74/74/74 55/55/55
f 77/77/77 76/76/76 75/75/75
f 78/78/78 75/75/75 76/76/76
f 79/79/79 77/77/77 75/75/75
f 75/75/75 78/78/78 80/80/80
f 81/81/81 79/79/79 75/75/75
f 82/82/82 75/75/75 80/80/80
f 83/83/83 81/81/81 75/75/75
f 84/84/84 75/75/75 82/82/82
f 83/83/83 75/75/75 85/85/85
f 86/86/86 75/75/75 84/84/84
f 85/85/85 75/75/75 86/86/86
f 89/89/89 88/88/88 87/87/87
f 90/90/90 89/89/89 87/87/87
f 89/89/89 90/90/90 91/91/91
f 89/89/89 91/91/91 92/92/92
f 89/89/89 92/92/92 93/93/93
f 93/93/93 94/94/94 89/89/89
f 95/95/95 88/88/88 89/89/89
f 94/94/94 96/96/96 89/89/89
f 95/95/95 89/89/89 97/97/97
f 96/96/96 97/97/97 89/89/89
f 98/98/98 95/95/95 97/97/97
f 96/96/96 99/99/99 97/97/97
f 98/98/98 97/97/97 100/100/100
f 99/99/99 101/101/101 97/97/97
f 97/97/97 102/102/102 100/100/100
f 101/101/101 103/103/103 97/97/97
f 97/97/97 104/104/104 102/102/102
f 103/103/103 105/105/105 97/97/97
f 105/105/105 104/104/104 97/97/97
f 108/108/108 107/107/107 106/106/106
f 109/109/109 107/107/107 108/108/108
f 110/110/110 107/107/107 109/109/109
f 106/106/106 107/107/107 111/111/111
f 112/112/112 107/107/107 110/110/110
f 107/107/107 113/113/113 111/111/111
f 111/111/111 113/113/113 114/114/114
f 115/115/115 107/107/107 112/112/112
f 113/113/113 107/107/107 115/115/115
f 113/113/113 115/115/115 114/114/114
f 116/116/116 115/115/115 112/112/112
f 114/114/114 115/115/115 117/117/117
f 117/117/117 115/115/115 116/116/116
