g fireBlue05_mesh
v 0.2682854 1.304826 2.235174E-08
v 0.2982875 1.219042 2.235174E-08
v 0.2534384 1.288336 -0.05523489
v 0.2534384 1.288336 -0.05523489
v 0.2101153 1.354479 2.235174E-08
v 0.2982875 1.219042 2.235174E-08
v 0.2120288 1.254249 3.073364E-08
v 0.2101153 1.354479 2.235174E-08
v -0.1183743 0.8336952 -0.1685903
v -0.06947199 1.013557 -0.1767098
v -0.007696021 0.9763392 -0.0001298233
v -0.06947199 1.013557 -0.1767098
v -0.002067644 1.044212 -0.0003030919
v -0.1183743 0.8336952 -0.1685903
v -0.06531248 0.855037 2.235174E-08
v -0.06671975 0.7925332 2.235174E-08
v -0.08734483 0.7798085 -0.08636203
v 0.006531897 0.6460169 2.235174E-08
v -0.01364208 0.6329631 -0.1366653
v 0.003464896 0.5125591 -0.1523259
v 0.0570839 0.581606 2.235174E-08
v 0.2039619 0.5756517 2.235174E-08
v 0.003464896 0.5125591 -0.1523259
v 0.3721117 0.5845448 2.235174E-08
v 0.2208777 0.5173613 2.235174E-08
v 0.1382334 0.4235584 2.235174E-08
v -0.03025902 0.30357 -0.1703512
v 0.1446627 0.2775404 2.235174E-08
v 0.229837 0.1627531 2.235174E-08
v 0.1569569 0.1644884 2.235174E-08
v 0.1066349 0.147136 2.235174E-08
v 0.08754728 0.09681401 2.235174E-08
v -0.05474245 0.1141664 2.235174E-08
v -0.1605921 0.1714294 2.235174E-08
v -0.2327927 0.2582482 2.235174E-08
v -0.2678021 0.3413309 2.235174E-08
v -0.1048484 0.3795896 2.235174E-08
v -0.0532191 0.5205225 2.235174E-08
v 0.003464896 0.5125591 -0.1523259
v -0.04191216 0.6192012 2.235174E-08
v -0.01364208 0.6329631 -0.1366653
v -0.01364208 0.6329631 -0.1366653
v -0.08734483 0.7798085 -0.08636203
v -0.1039619 0.7705264 2.235174E-08
v -0.1856167 0.772409 2.235174E-08
v -0.1935442 0.8626022 -0.1408512
v -0.1183743 0.8336952 -0.1685903
v -0.2665419 0.7946104 2.235174E-08
v -0.2514446 0.8563986 2.235174E-08
v -0.1914763 0.9680636 2.235174E-08
v -0.09428643 1.042507 2.235174E-08
v -0.06947199 1.013557 -0.1767098
v -0.06947199 1.013557 -0.1767098
v -0.1183743 0.8336952 -0.1685903
v 0.1150692 2.044631 -0.05847046
v 0.004685145 1.881504 -0.05847046
v -0.0224257 1.978297 -0.06675056
v -0.05435762 1.995158 -4.015713E-16
v -0.0224257 1.978297 -0.06675056
v -0.05435762 1.995158 -4.015713E-16
v -0.04098494 1.867596 -4.015713E-16
v 0.01487262 1.688591 -4.015713E-16
v 0.04151499 1.899583 -4.015713E-16
v 0.04190692 1.900719 -4.015713E-16
v 0.1150692 2.044631 -0.05847046
v 0.2387873 2.108955 -4.015713E-16
v 0.0185962 0.9110403 -7.53841E-16
v -0.007442711 0.9085361 -0.1912645
v 0.05481721 1.103331 -0.06057569
v 0.05481721 1.103331 -0.06057569
v 0.08564554 1.092789 -4.015713E-16
v 0.05481721 1.103331 -0.06057569
v 0.2222287 1.21274 -0.08424934
v 0.2455691 1.192745 -4.015713E-16
v 0.3605774 1.176614 -0.09926072
v 0.333417 1.162947 -4.015713E-16
v 0.3605774 1.176614 -0.09926072
v 0.4102345 1.051344 -4.015713E-16
v 0.3605774 1.176614 -0.09926072
v 0.3933567 1.182621 -4.015713E-16
v 0.3605774 1.176614 -0.09926072
v 0.2977088 1.263123 -0.09926072
v 0.3417525 1.254075 -8.031427E-16
v 0.3002808 1.31004 -4.015713E-16
v 0.2202445 1.325968 -0.09926072
v 0.2606468 1.346463 -4.015713E-16
v 0.1698258 1.434911 -4.015713E-16
v 0.1830501 1.29707 -7.854892E-16
v 0.2222287 1.21274 -0.08424934
v 0.3605774 1.176614 -0.09926072
v 0.1743887 1.216794 -4.015713E-16
v 0.2222287 1.21274 -0.08424934
v 0.05481721 1.103331 -0.06057569
v 0.09282846 1.161537 -4.015713E-16
v 0.05481721 1.103331 -0.06057569
v -0.04993279 1.066914 -0.1649415
v -0.0431053 1.138731 -4.015713E-16
v -0.1606171 0.9739359 -0.176053
v -0.09367365 0.8825573 -0.315381
v 0.05481721 1.103331 -0.06057569
v -0.1901231 1.044212 -4.015713E-16
v -0.2254219 0.8592759 -0.1727627
v -0.3263399 0.8465648 -4.015713E-16
v -0.2212467 0.7438141 -0.1776035
v -0.3436137 0.7189536 -4.015713E-16
v -0.241221 0.6674416 -4.015713E-16
v -0.1568721 0.5739248 -0.1982305
v -0.1924287 0.5641639 -4.015713E-16
v 0.02441751 0.5726283 -0.3445007
v 0.1089022 0.3285674 -0.3800609
v -0.1563303 0.4036382 -0.1904692
v -0.1924287 0.5641639 -4.015713E-16
v 0.05092228 0.7318266 -0.2074502
v -0.007442711 0.9085361 -0.1912645
v 0.05481721 1.103331 -0.06057569
v 0.2085223 0.5580812 -0.1871333
v 0.2731211 0.6618403 -4.015713E-16
v 0.1219783 0.7347621 -4.015713E-16
v -0.007442711 0.9085361 -0.1912645
v 0.0185962 0.9110403 -7.53841E-16
v 0.4132146 0.6868238 -4.015714E-16
v 0.3976132 0.5748209 -0.1977025
v 0.5086336 0.7595399 -4.015713E-16
v -0.1803339 0.3346384 -0.2268996
v 0.374848 0.3920778 -0.1871396
v -0.2292394 0.2474618 -0.186297
v 0.3619242 0.2700769 -0.1899271
v -0.2421222 0.406256 -4.015713E-16
v -0.1924287 0.5641639 -4.015713E-16
v -0.3507169 0.3847803 -4.015713E-16
v -0.3355729 0.2351967 -4.015712E-16
v -0.140965 0.1613498 -0.1907283
v -0.2198036 0.09947908 -4.015713E-16
v -0.03846364 0.1067826 -0.1910128
v -0.1092485 0.03646883 -4.015713E-16
v 0.1174957 0.08396509 -0.192543
v 0.1463213 0.01575339 -4.015713E-16
v 0.1676773 0.1486006 -0.1946551
v 0.1692382 0.06459343 -4.015713E-16
v 0.2226233 0.08839738 -4.015713E-16
v 0.244272 0.1340917 -0.1923785
v 0.2650722 0.07034785 -4.015713E-16
v 0.3192355 0.1661736 -0.1935314
v 0.3528897 0.1260763 -4.015713E-16
v 0.4524407 0.247263 -4.015713E-16
v 0.5360645 0.4651172 -4.015713E-16
v 0.5086336 0.7595399 -4.015713E-16
v 0.04151499 1.899583 -4.015713E-16
v 0.004685145 1.881504 -0.05847046
v 0.04190692 1.900719 -4.015713E-16
v -0.009708397 1.966385 -0.02834499
v -0.02620769 1.943184 2.235174E-08
v -0.02998159 1.975073 2.235174E-08
v -0.009708397 1.966385 -0.02834499
v 0.006703235 1.947077 2.235174E-08
v 0.02135947 1.987312 2.235174E-08
v 0.07492079 2.064903 -4.015713E-16
v -0.0224257 1.978297 -0.06675056
v -0.05435762 1.995158 -4.015713E-16
v 0.1150692 2.044631 -0.05847046
v 0.2387873 2.108955 -4.015713E-16
vt 0.1475142 0.1045703
vt 0.1476386 0.1026748
vt 0.1474526 0.1042068
vt 0.1474526 0.1042068
vt 0.147273 0.1056683
vt 0.1476386 0.1026748
vt 0.147281 0.1034526
vt 0.147273 0.1056683
vt 0.1459111 0.08950445
vt 0.1461138 0.09472164
vt 0.14637 0.09364387
vt 0.1461138 0.09472164
vt 0.1463934 0.0956134
vt 0.1459111 0.08950445
vt 0.146131 0.09012279
vt 0.1461252 0.08830976
vt 0.1460398 0.08793817
vt 0.146429 0.08405491
vt 0.1463453 0.0836759
vt 0.1464163 0.08018198
vt 0.1466387 0.08218906
vt 0.1472476 0.08203124
vt 0.1464163 0.08018198
vt 0.1479446 0.08231492
vt 0.1473176 0.08033785
vt 0.146975 0.07760978
vt 0.1462766 0.0741182
vt 0.1470018 0.07338299
vt 0.1473547 0.07013159
vt 0.1470526 0.07008971
vt 0.146844 0.06957372
vt 0.1467648 0.06811313
vt 0.1461749 0.0686936
vt 0.145736 0.07034487
vt 0.1454368 0.07285053
vt 0.1452916 0.07526307
vt 0.1459673 0.07632994
vt 0.1461813 0.08041272
vt 0.1464163 0.08018198
vt 0.1462281 0.08327781
vt 0.1463453 0.0836759
vt 0.1463453 0.0836759
vt 0.1460398 0.08793817
vt 0.1459708 0.08766971
vt 0.1456323 0.08780199
vt 0.1455994 0.09035027
vt 0.1459111 0.08950445
vt 0.1452968 0.08846987
vt 0.1453594 0.09020245
vt 0.1456079 0.0934095
vt 0.1460109 0.09556348
vt 0.1461138 0.09472164
vt 0.1461138 0.09472164
vt 0.1459111 0.08950445
vt 0.4482288 0.258884
vt 0.4523505 0.2584953
vt 0.4499047 0.2584
vt 0.4494789 0.2582872
vt 0.4499047 0.2584
vt 0.4494789 0.2582872
vt 0.4527018 0.2583343
vt 0.4572245 0.2585312
vt 0.4518938 0.2586247
vt 0.451865 0.2586263
vt 0.4482288 0.258884
vt 0.4466035 0.2593198
vt 0.4768701 0.2585441
vt 0.4769333 0.2584527
vt 0.472012 0.2586718
vt 0.472012 0.2586718
vt 0.4722782 0.2587802
vt 0.472012 0.2586718
vt 0.4692474 0.2592616
vt 0.4697529 0.2593439
vt 0.4701604 0.2597491
vt 0.4705051 0.2596531
vt 0.4701604 0.2597491
vt 0.4733253 0.2599238
vt 0.4701604 0.2597491
vt 0.4700082 0.2598644
vt 0.4701604 0.2597491
vt 0.4679744 0.2595277
vt 0.468203 0.2596827
vt 0.4667892 0.2595366
vt 0.4663864 0.2592546
vt 0.4658688 0.2593968
vt 0.463634 0.2590771
vt 0.4671166 0.2591234
vt 0.4692474 0.2592616
vt 0.4701604 0.2597491
vt 0.4691449 0.2590933
vt 0.4692474 0.2592616
vt 0.472012 0.2586718
vt 0.4705411 0.2588058
vt 0.472012 0.2586718
vt 0.4729319 0.2583029
vt 0.4711177 0.2583269
vt 0.4752811 0.2579129
vt 0.4775901 0.2581487
vt 0.472012 0.2586718
vt 0.4735056 0.2578088
vt 0.4781781 0.2576847
vt 0.4784989 0.2573289
vt 0.4810952 0.2576991
vt 0.4817235 0.257268
vt 0.4830252 0.2576288
vt 0.4853876 0.2579261
vt 0.4856347 0.2578008
vt 0.4854204 0.2585647
vt 0.491587 0.2588623
vt 0.4896899 0.2579281
vt 0.4856347 0.2578008
vt 0.4813982 0.2586582
vt 0.4769333 0.2584527
vt 0.472012 0.2586718
vt 0.4857882 0.2592132
vt 0.4831662 0.2594409
vt 0.4813238 0.2589083
vt 0.4769333 0.2584527
vt 0.4768701 0.2585441
vt 0.4825354 0.2599342
vt 0.4853652 0.2598794
vt 0.4806975 0.2602708
vt 0.4914334 0.2578433
vt 0.4899821 0.2597992
vt 0.4936358 0.2576709
vt 0.4930644 0.2597537
vt 0.4896239 0.2576257
vt 0.4856347 0.2578008
vt 0.4901667 0.2572432
vt 0.4939456 0.2572962
vt 0.495812 0.2579823
vt 0.497375 0.2577045
vt 0.4971901 0.2583432
vt 0.4989669 0.2580938
vt 0.4977672 0.2588928
vt 0.4994904 0.2589943
vt 0.4961338 0.2590693
vt 0.4982561 0.2590747
vt 0.497655 0.259263
vt 0.4965004 0.2593392
vt 0.4981107 0.2594125
vt 0.4956894 0.2596033
vt 0.496703 0.2597219
vt 0.4936409 0.2600725
vt 0.4881366 0.260367
vt 0.4806975 0.2602708
vt 0.4518938 0.2586247
vt 0.4523505 0.2584953
vt 0.451865 0.2586263
vt 0.1463615 0.1191945
vt 0.1462931 0.1186819
vt 0.1462776 0.1193867
vt 0.1463615 0.1191945
vt 0.1464298 0.1187682
vt 0.1464903 0.1196574
vt 0.4477169 0.2587427
vt 0.4499047 0.2584
vt 0.4494789 0.2582872
vt 0.4482288 0.258884
vt 0.4466035 0.2593198
vn -0.7728583 -0.5204253 0.3631083
vn -0.2443186 0.5027992 0.829157
vn 0.0755334 0.03780974 0.9964262
vn 0.0755334 0.03780974 0.9964262
vn 0.4676432 -0.3657029 0.8047181
vn -0.2443186 0.5027992 0.829157
vn 0.5898531 0.4103722 0.6954623
vn 0.4676432 -0.3657029 0.8047181
vn -0.4807649 0.6266402 0.613341
vn -0.2996788 -0.43407 0.8495739
vn -0.9037248 0.2860705 0.3185046
vn -0.2996788 -0.43407 0.8495739
vn -0.6181747 -0.6998731 0.3578235
vn -0.4807649 0.6266402 0.613341
vn -0.9152173 0.2576103 0.3098618
vn -0.9121093 -0.3320971 0.2403502
vn -0.4670447 0.525407 0.7112079
vn -0.8708448 -0.4160738 0.2617476
vn -0.1464858 -0.5051561 0.8505052
vn 0.3541602 -0.2702717 0.8952787
vn -0.5519485 -0.7139721 0.4308094
vn 0.03212958 -0.9376541 0.3460816
vn 0.3541602 -0.2702717 0.8952787
vn -0.3777515 -0.0241008 0.9255933
vn -0.4093758 0.7190163 0.5616289
vn -0.661857 0.1799541 0.72771
vn 0.228682 -0.03464843 0.9728844
vn -0.6897241 -0.2883878 0.6641635
vn -0.5658684 -0.04957015 0.8230041
vn -0.05057072 0.745681 0.6643813
vn -0.4472432 0.4502158 0.7728385
vn -0.1148516 0.5918845 0.7977982
vn 0.1817013 0.6445021 0.7426989
vn 0.4310354 0.5228938 0.7353847
vn 0.5615909 0.3346514 0.7567193
vn 0.5153319 -0.3286868 0.7914531
vn 0.7174099 -0.4997995 0.4853076
vn 0.9131239 -0.1567426 0.3763464
vn 0.3541602 -0.2702717 0.8952787
vn 0.9539872 0.140997 0.2646285
vn -0.1464858 -0.5051561 0.8505052
vn -0.1464858 -0.5051561 0.8505052
vn -0.4670447 0.525407 0.7112079
vn 0.5224466 0.77228 0.3614319
vn 0.300116 0.85532 0.4223244
vn 0.7831678 0.004046808 0.6217973
vn -0.4807649 0.6266402 0.613341
vn 0.6017476 0.55124 0.577957
vn 0.8677306 -0.3618322 0.3407654
vn 0.7236654 -0.6106769 0.3215308
vn 0.5851827 -0.7523778 0.3024713
vn -0.2996788 -0.43407 0.8495739
vn -0.2996788 -0.43407 0.8495739
vn -0.4807649 0.6266402 0.613341
vn -0.494899 0.1137035 0.8614793
vn -0.0959952 0.4111468 0.9065006
vn 0.5120319 -0.3183621 0.79779
vn 0.693605 -0.4375049 0.5722775
vn 0.5120319 -0.3183621 0.79779
vn 0.693605 -0.4375049 0.5722775
vn 0.7943723 0.1999257 0.5735872
vn -0.03436494 0.2882273 0.9569452
vn -0.8559723 0.1096773 0.5052545
vn -0.6595023 0.5451586 0.5175508
vn -0.494899 0.1137035 0.8614793
vn -0.637035 0.3133014 0.7042931
vn -0.9581847 -0.1656145 0.2333537
vn -0.8975393 -0.2345567 0.3733715
vn -0.7666259 -0.1850082 0.614863
vn -0.7666259 -0.1850082 0.614863
vn -0.8061315 0.5129875 0.2949507
vn -0.7666259 -0.1850082 0.614863
vn 0.3232742 0.5186339 0.7915256
vn -0.1237537 0.9483083 0.2922265
vn -0.4435267 0.3189011 0.8376073
vn 0.4885752 0.8417459 0.2296912
vn -0.4435267 0.3189011 0.8376073
vn -0.1976811 0.559455 0.8049424
vn -0.4435267 0.3189011 0.8376073
vn -0.8691886 -0.3843426 0.311114
vn -0.4435267 0.3189011 0.8376073
vn -0.3727351 -0.3271599 0.8683519
vn -0.7735819 -0.5630248 0.2908163
vn -0.6420068 -0.6801935 0.3537852
vn 0.2891399 -0.4111482 0.8644971
vn -0.6173774 -0.6879842 0.3814745
vn 0.3334417 -0.5459676 0.7685935
vn 0.9142378 0.03222516 0.4038947
vn 0.3232742 0.5186339 0.7915256
vn -0.4435267 0.3189011 0.8376073
vn 0.7513315 -0.5054396 0.4243015
vn 0.3232742 0.5186339 0.7915256
vn -0.7666259 -0.1850082 0.614863
vn 0.3619112 -0.8285397 0.4272496
vn -0.7666259 -0.1850082 0.614863
vn 0.2043152 -0.7875156 0.5814416
vn 0.3437653 -0.8361745 0.4273612
vn 0.6704028 -0.5954667 0.4426959
vn 0.1106602 -0.215802 0.9701464
vn -0.7666259 -0.1850082 0.614863
vn 0.6716771 -0.6416627 0.3702958
vn 0.8128865 -0.3035583 0.4970594
vn 0.8370264 -0.2852803 0.4669069
vn 0.8233676 0.1756391 0.539645
vn 0.8121234 0.1897676 0.5517642
vn 0.8293234 0.4886011 0.2710936
vn 0.7795538 0.1067521 0.6171709
vn 0.9594041 0.09077074 0.2670292
vn -0.004336562 -0.1836 0.9829914
vn -0.01389709 -0.01539042 0.999785
vn 0.7241241 -0.213931 0.6556507
vn 0.9594041 0.09077074 0.2670292
vn -0.7413527 -0.4725827 0.47651
vn -0.8975393 -0.2345567 0.3733715
vn -0.7666259 -0.1850082 0.614863
vn -0.3641894 -0.6686731 0.6482611
vn -0.2294011 -0.8557075 0.4638317
vn -0.7302541 -0.5985868 0.3292761
vn -0.8975393 -0.2345567 0.3733715
vn -0.9581847 -0.1656145 0.2333537
vn 0.2739085 -0.8519894 0.446193
vn -0.571704 -0.3519213 0.7411518
vn -0.7295206 -0.1441446 0.6685971
vn 0.6300861 -0.2759214 0.7258505
vn -0.7557671 0.1140949 0.6448243
vn 0.7277184 0.2992533 0.6171494
vn -0.7610925 0.2766456 0.5866902
vn 0.7979066 -0.480169 0.3643938
vn 0.9594041 0.09077074 0.2670292
vn 0.775268 -0.3124367 0.5489469
vn 0.796288 0.2835543 0.5343429
vn 0.4923225 0.6090411 0.6218421
vn 0.573777 0.6855855 0.4480543
vn 0.2101072 0.8098032 0.5477898
vn 0.2548704 0.8816504 0.3971572
vn -0.109583 0.8484982 0.5177281
vn -0.1218653 0.9236529 0.3633376
vn -0.3190863 0.7676818 0.5557414
vn -0.7208475 0.6232896 0.303132
vn 0.08296115 0.9518107 0.2952523
vn -0.16111 0.8583238 0.487159
vn -0.2017473 0.9344258 0.293507
vn -0.6297057 0.5786918 0.5182532
vn -0.6761721 0.6589445 0.32952
vn -0.8238471 0.3339355 0.457999
vn -0.8239768 0.06965891 0.5623254
vn -0.7295206 -0.1441446 0.6685971
vn -0.8559723 0.1096773 0.5052545
vn -0.0959952 0.4111468 0.9065006
vn -0.6595023 0.5451586 0.5175508
vn -0.008273275 -0.2041947 0.9788954
vn 0.41257 0.5723673 0.7086478
vn 0.5904025 -0.5498648 0.5908245
vn -0.008273275 -0.2041947 0.9788954
vn -0.5130444 0.5415679 0.6659502
vn -0.4426387 -0.4176346 0.7935064
vn 0.355753 -0.812641 0.4615783
vn 0.5120319 -0.3183621 0.79779
vn 0.693605 -0.4375049 0.5722775
vn -0.494899 0.1137035 0.8614793
vn -0.637035 0.3133014 0.7042931
g fireBlue05_mesh_0
f 3/3/3 2/2/2 1/1/1
f 5/5/5 4/4/4 1/1/1
f 7/7/7 6/6/6 4/4/4
f 8/8/8 7/7/7 4/4/4
f 11/11/11 10/10/10 9/9/9
f 13/13/13 12/12/12 11/11/11
f 15/15/15 11/11/11 14/14/14
f 15/15/15 14/14/14 16/16/16
f 14/14/14 17/17/17 16/16/16
f 16/16/16 17/17/17 18/18/18
f 17/17/17 19/19/19 18/18/18
f 18/18/18 19/19/19 20/20/20
f 21/21/21 18/18/18 20/20/20
f 21/21/21 23/23/23 22/22/22
f 23/23/23 24/24/24 22/22/22
f 25/25/25 24/24/24 20/20/20
f 20/20/20 26/26/26 25/25/25
f 27/27/27 26/26/26 20/20/20
f 28/28/28 26/26/26 27/27/27
f 29/29/29 28/28/28 27/27/27
f 30/30/30 29/29/29 27/27/27
f 30/30/30 27/27/27 31/31/31
f 31/31/31 27/27/27 32/32/32
f 32/32/32 27/27/27 33/33/33
f 33/33/33 27/27/27 34/34/34
f 34/34/34 27/27/27 35/35/35
f 35/35/35 27/27/27 36/36/36
f 36/36/36 27/27/27 37/37/37
f 38/38/38 37/37/37 27/27/27
f 39/39/39 38/38/38 27/27/27
f 40/40/40 38/38/38 39/39/39
f 41/41/41 40/40/40 39/39/39
f 43/43/43 40/40/40 42/42/42
f 40/40/40 43/43/43 44/44/44
f 45/45/45 44/44/44 43/43/43
f 46/46/46 45/45/45 43/43/43
f 43/43/43 47/47/47 46/46/46
f 45/45/45 46/46/46 48/48/48
f 48/48/48 46/46/46 49/49/49
f 49/49/49 46/46/46 50/50/50
f 50/50/50 46/46/46 51/51/51
f 46/46/46 52/52/52 51/51/51
f 51/51/51 53/53/53 13/13/13
f 46/46/46 54/54/54 53/53/53
f 57/57/57 56/56/56 55/55/55
f 56/56/56 59/59/59 58/58/58
f 61/61/61 56/56/56 60/60/60
f 62/62/62 56/56/56 61/61/61
f 63/63/63 56/56/56 62/62/62
f 65/65/65 56/56/56 64/64/64
f 66/66/66 65/65/65 64/64/64
f 69/69/69 68/68/68 67/67/67
f 71/71/71 70/70/70 67/67/67
f 73/73/73 72/72/72 71/71/71
f 74/74/74 73/73/73 71/71/71
f 75/75/75 73/73/73 74/74/74
f 76/76/76 75/75/75 74/74/74
f 78/78/78 77/77/77 76/76/76
f 80/80/80 79/79/79 78/78/78
f 82/82/82 81/81/81 80/80/80
f 83/83/83 82/82/82 80/80/80
f 84/84/84 82/82/82 83/83/83
f 85/85/85 82/82/82 84/84/84
f 86/86/86 85/85/85 84/84/84
f 87/87/87 85/85/85 86/86/86
f 88/88/88 85/85/85 87/87/87
f 82/82/82 85/85/85 89/89/89
f 89/89/89 85/85/85 88/88/88
f 90/90/90 82/82/82 89/89/89
f 91/91/91 89/89/89 88/88/88
f 93/93/93 92/92/92 91/91/91
f 94/94/94 93/93/93 91/91/91
f 96/96/96 95/95/95 94/94/94
f 97/97/97 96/96/96 94/94/94
f 98/98/98 96/96/96 97/97/97
f 98/98/98 99/99/99 96/96/96
f 96/96/96 99/99/99 100/100/100
f 101/101/101 98/98/98 97/97/97
f 102/102/102 98/98/98 101/101/101
f 102/102/102 99/99/99 98/98/98
f 103/103/103 102/102/102 101/101/101
f 104/104/104 102/102/102 103/103/103
f 104/104/104 99/99/99 102/102/102
f 105/105/105 104/104/104 103/103/103
f 106/106/106 104/104/104 105/105/105
f 107/107/107 104/104/104 106/106/106
f 107/107/107 99/99/99 104/104/104
f 108/108/108 107/107/107 106/106/106
f 109/109/109 99/99/99 107/107/107
f 109/109/109 107/107/107 110/110/110
f 107/107/107 111/111/111 110/110/110
f 111/111/111 107/107/107 112/112/112
f 113/113/113 99/99/99 109/109/109
f 114/114/114 99/99/99 113/113/113
f 115/115/115 99/99/99 114/114/114
f 109/109/109 110/110/110 116/116/116
f 113/113/113 109/109/109 116/116/116
f 113/113/113 116/116/116 117/117/117
f 118/118/118 113/113/113 117/117/117
f 119/119/119 113/113/113 118/118/118
f 120/120/120 119/119/119 118/118/118
f 117/117/117 116/116/116 121/121/121
f 116/116/116 122/122/122 121/121/121
f 116/116/116 110/110/110 122/122/122
f 121/121/121 122/122/122 123/123/123
f 124/124/124 110/110/110 111/111/111
f 122/122/122 110/110/110 125/125/125
f 126/126/126 110/110/110 124/124/124
f 125/125/125 110/110/110 127/127/127
f 124/124/124 111/111/111 128/128/128
f 128/128/128 111/111/111 129/129/129
f 130/130/130 124/124/124 128/128/128
f 126/126/126 124/124/124 130/130/130
f 131/131/131 126/126/126 130/130/130
f 132/132/132 126/126/126 131/131/131
f 132/132/132 110/110/110 126/126/126
f 133/133/133 132/132/132 131/131/131
f 134/134/134 132/132/132 133/133/133
f 134/134/134 110/110/110 132/132/132
f 135/135/135 134/134/134 133/133/133
f 136/136/136 134/134/134 135/135/135
f 136/136/136 110/110/110 134/134/134
f 137/137/137 136/136/136 135/135/135
f 138/138/138 136/136/136 137/137/137
f 138/138/138 110/110/110 136/136/136
f 139/139/139 138/138/138 137/137/137
f 140/140/140 138/138/138 139/139/139
f 141/141/141 138/138/138 140/140/140
f 141/141/141 110/110/110 138/138/138
f 142/142/142 141/141/141 140/140/140
f 143/143/143 110/110/110 141/141/141
f 143/143/143 141/141/141 142/142/142
f 144/144/144 143/143/143 142/142/142
f 127/127/127 110/110/110 143/143/143
f 127/127/127 143/143/143 144/144/144
f 145/145/145 127/127/127 144/144/144
f 125/125/125 127/127/127 145/145/145
f 146/146/146 125/125/125 145/145/145
f 122/122/122 125/125/125 146/146/146
f 147/147/147 122/122/122 146/146/146
f 150/150/150 149/149/149 148/148/148
f 153/153/153 152/152/152 151/151/151
f 155/155/155 154/154/154 152/152/152
f 154/154/154 156/156/156 153/153/153
f 156/156/156 154/154/154 155/155/155
f 159/159/159 158/158/158 157/157/157
f 158/158/158 160/160/160 157/157/157
f 157/157/157 160/160/160 161/161/161
