g fire03_mesh
v 0.5725307 0.5434759 -1.862645E-09
v 0.2824438 0.4365295 -0.191839
v 0.3981808 0.4672605 -1.862645E-09
v 0.2323806 0.5588388 -1.862645E-09
v 0.1769727 0.803342 -0.1644603
v 0.2046359 0.7436208 -3.72529E-09
v 0.3981808 0.4672605 -1.862645E-09
v 0.1687483 0.5550502 -0.1793817
v 0.2824438 0.4365295 -0.191839
v 0.1769727 0.803342 -0.1644603
v -0.04898908 0.6572272 -0.3488672
v 0.1385623 0.3090931 -0.3483683
v 0.3536472 0.3868637 -0.1887733
v 0.5725307 0.5434759 -1.862645E-09
v 0.5051845 0.260896 -1.862645E-09
v 0.3367796 0.2703154 -0.1886521
v 0.3676191 0.1163297 -1.862645E-09
v 0.2962115 0.1610567 -0.1915934
v 0.1827347 0.02448127 -1.862645E-09
v 0.1523155 0.1014625 -0.1909519
v 0.02392944 0.1220644 -0.1886151
v -0.002104896 0.006618261 -1.862645E-09
v -0.1681323 0.08133879 -1.862645E-09
v -0.06869867 0.1579013 -0.1885027
v -0.2410834 0.1839159 -1.862645E-09
v -0.1089272 0.203592 -0.1891021
v -0.1024718 0.2493644 -0.09463445
v -0.1089272 0.203592 -0.1891021
v -0.1586281 0.2272807 -1.862645E-09
v -0.2410834 0.1839159 -1.862645E-09
v -0.1775977 0.3628723 -1.862645E-09
v -0.1255298 0.3560677 -0.0760103
v -0.2285836 0.4235171 -1.862645E-09
v -0.1776009 0.4271306 -0.09521625
v -0.3198241 0.4597628 -1.862645E-09
v -0.240583 0.5419354 -0.1822831
v -0.3230948 0.6810592 -1.862645E-09
v -0.2695415 0.6772701 -0.1892309
v -0.1490505 0.7877064 -0.1755315
v -0.03734323 0.8444275 -0.1712536
v 0.110576 0.8928682 -0.2040969
v 0.2728879 0.9277528 -0.1765203
v 0.3210348 0.8667974 -0.1060024
v 0.2046359 0.7436208 -3.72529E-09
v 0.3279461 0.8392356 -1.862645E-09
v 0.468855 0.8176225 -0.06635261
v 0.468855 0.8176225 -0.06635261
v 0.5217235 0.7653611 -1.862645E-09
v -0.05203529 0.9368203 -1.862645E-09
v 0.09897385 0.9130614 -3.72529E-09
v -0.221628 0.8403338 -1.862645E-09
v -0.2695415 0.6772701 -0.1892309
v -0.3230948 0.6810592 -1.862645E-09
v 0.1695715 0.9848326 -1.862645E-09
v 0.1992297 0.9767784 -0.1573714
v 0.1844598 1.140045 -1.862645E-09
v 0.2370929 1.134081 -0.05131873
v 0.1504366 1.235729 -3.72529E-09
v 0.282445 1.14028 -1.862645E-09
v 0.3979328 1.002426 -1.862645E-09
v 0.3743277 0.9940808 -0.08053134
v 0.463207 0.9136838 -1.862645E-09
v 0.4367309 0.9027708 -0.05096848
v 0.468855 0.8176225 -0.06635261
v 0.5217235 0.7653611 -1.862645E-09
v 0.468855 0.8176225 -0.06635261
v -0.3230948 0.6810592 -1.862645E-09
v -0.2695415 0.6772701 -0.1892309
v 0.09194634 1.777736 -1.862645E-09
v 0.05963641 1.800262 -0.08675423
v 0.2026764 1.985561 -1.862645E-09
v 0.08061824 1.655769 -1.862645E-09
v 0.05963641 1.800262 -0.08675423
v 0.05036829 1.654468 -0.1079609
v 0.1445602 1.301511 -3.725291E-09
v 0.06948564 1.495562 -0.07849848
v -0.02521132 1.641982 -0.1079609
v -0.08079806 1.611984 -1.862645E-09
v -0.02521132 1.641982 -0.1079609
v 0.03138828 1.502027 -1.862645E-09
v 0.1445602 1.301511 -3.725291E-09
v 0.2026764 1.985561 -1.862645E-09
v 0.001930386 1.795173 -1.862646E-09
v -0.02521132 1.641982 -0.1079609
v -0.08079806 1.611984 -1.862645E-09
v 0.1393916 0.4357536 -0.15789
v 0.3373682 0.3930143 2.235174E-08
v 0.1651486 0.34157 2.235174E-08
v 0.1283892 0.2564428 2.235174E-08
v -0.00123621 0.3338311 -0.1674253
v 0.1083096 0.1109792 2.235174E-08
v 0.0004792828 0.1242199 2.235174E-08
v -0.06762983 0.2773456 2.235174E-08
v -0.06991359 0.4432167 2.235174E-08
v -0.00195086 0.5560007 -0.1866
v 0.1393916 0.4357536 -0.15789
v -0.1777991 0.5552986 2.235174E-08
v -0.1429267 0.6353166 -0.1517433
v -0.2837936 0.5846558 2.235174E-08
v -0.2474889 0.6684064 2.235174E-08
v -0.1429267 0.6353166 -0.1517433
v 0.04200081 0.7668759 -0.1968029
v -0.1421542 0.7765178 2.235174E-08
v -0.1429267 0.6353166 -0.1517433
v 0.02104479 0.8171443 2.235174E-08
v 0.04200081 0.7668759 -0.1968029
v 0.1682198 0.7699615 -0.0002676845
v 0.1469336 0.4885021 2.235174E-08
v 0.09382936 0.5876508 2.235174E-08
v 0.1063205 0.7067734 -0.0001224048
v 0.04200081 0.7668759 -0.1968029
v 0.1682198 0.7699615 -0.0002676845
v 0.1393916 0.4357536 -0.15789
v 0.2534235 0.4648587 2.235174E-08
v 0.3373682 0.3930143 2.235174E-08
v -0.002763569 1.603818 2.235174E-08
v 0.001236736 1.649624 -0.08620367
v 0.05545898 1.58395 2.235174E-08
v -0.03927796 1.633714 2.235174E-08
v -0.01744373 1.731533 2.235174E-08
v 0.0310542 1.77002 2.235174E-08
v 0.02561824 1.648263 2.235174E-08
v 0.05545898 1.58395 2.235174E-08
v 0.2318641 1.132009 2.235174E-08
v 0.2931687 1.01087 -0.08896997
v 0.2361946 1.02685 4.470348E-08
v 0.3083946 1.070771 2.235174E-08
v 0.2253046 0.9275794 3.073364E-08
v 0.3715803 0.9818714 2.235174E-08
v 0.3214945 0.9274344 2.235174E-08
v 0.4095299 0.8829217 2.235174E-08
vt 0.8003544 0.6664003
vt 0.802237 0.6656886
vt 0.8016958 0.6659725
vt 0.8000839 0.6655656
vt 0.7957807 0.6654296
vt 0.7968316 0.6654974
vt 0.8016958 0.6659725
vt 0.8001508 0.6654093
vt 0.802237 0.6656886
vt 0.7957807 0.6654296
vt 0.7983522 0.6648751
vt 0.8044801 0.6653354
vt 0.8031114 0.6658632
vt 0.8003544 0.6664003
vt 0.8053286 0.6662351
vt 0.8051627 0.6658218
vt 0.807873 0.6658974
vt 0.8070857 0.6657223
vt 0.8094895 0.6654437
vt 0.8081346 0.6653692
vt 0.8077722 0.6650539
vt 0.809804 0.6649899
vt 0.8084889 0.6645826
vt 0.8071413 0.6648266
vt 0.8066831 0.6644036
vt 0.8063371 0.6647279
vt 0.8055314 0.6647439
vt 0.8063371 0.6647279
vt 0.8059201 0.6646057
vt 0.8066831 0.6644036
vt 0.8035333 0.6645594
vt 0.8036529 0.664687
vt 0.802466 0.6644341
vt 0.8024025 0.6645594
vt 0.801828 0.6642103
vt 0.8003818 0.6644048
vt 0.7979327 0.6642023
vt 0.7979996 0.6643336
vt 0.7960557 0.6646293
vt 0.7950571 0.6649036
vt 0.7942046 0.6652666
vt 0.7935905 0.665665
vt 0.7946634 0.6657831
vt 0.7968316 0.6654974
vt 0.7951486 0.6658002
vt 0.795529 0.6661459
vt 0.795529 0.6661459
vt 0.7964488 0.6662756
vt 0.7934307 0.6648677
vt 0.7938493 0.665238
vt 0.7951293 0.6644512
vt 0.7979996 0.6643336
vt 0.7979327 0.6642023
vt 0.7925859 0.6654115
vt 0.7927276 0.6654842
vt 0.7898539 0.6654478
vt 0.789959 0.6655771
vt 0.78817 0.6653643
vt 0.7898498 0.6656886
vt 0.7922766 0.6659718
vt 0.7924234 0.6659139
vt 0.7938383 0.6661322
vt 0.7940301 0.6660671
vt 0.795529 0.6661459
vt 0.7964488 0.6662756
vt 0.795529 0.6661459
vt 0.7979327 0.6642023
vt 0.7979996 0.6643336
vt 0.7786295 0.6652209
vt 0.7782328 0.6651415
vt 0.7749712 0.6654926
vt 0.7807764 0.6651931
vt 0.7782328 0.6651415
vt 0.7807993 0.6651188
vt 0.7870119 0.66535
vt 0.7835964 0.6651657
vt 0.7810192 0.6649334
vt 0.7815471 0.6647971
vt 0.7810192 0.6649334
vt 0.7834827 0.6650723
vt 0.7870119 0.66535
vt 0.7749712 0.6654926
vt 0.7783225 0.6650001
vt 0.7810192 0.6649334
vt 0.7815471 0.6647971
vt 0.156485 0.5057334
vt 0.157781 0.5066806
vt 0.1593405 0.5058567
vt 0.1619202 0.5056808
vt 0.1595745 0.5050608
vt 0.1663303 0.5055848
vt 0.1659288 0.505069
vt 0.1612872 0.5047432
vt 0.1562587 0.5047324
vt 0.1528398 0.5050575
vt 0.156485 0.5057334
vt 0.1528618 0.5042161
vt 0.1504365 0.5043829
vt 0.1519712 0.5037091
vt 0.1494331 0.5038827
vt 0.1504365 0.5043829
vt 0.1464483 0.5052677
vt 0.1461557 0.5043867
vt 0.1504365 0.5043829
vt 0.1449241 0.5051675
vt 0.1464483 0.5052677
vt 0.146354 0.5058714
vt 0.1548868 0.5057697
vt 0.1518807 0.5055156
vt 0.1482699 0.5055753
vt 0.1464483 0.5052677
vt 0.146354 0.5058714
vt 0.156485 0.5057334
vt 0.1556032 0.5062789
vt 0.157781 0.5066806
vt 0.1210783 0.5050534
vt 0.1196891 0.5050726
vt 0.1216803 0.5053321
vt 0.1201716 0.5048788
vt 0.117206 0.5049832
vt 0.1160399 0.5052151
vt 0.1197305 0.5051892
vt 0.1216803 0.5053321
vt 0.1353799 0.5061759
vt 0.1390519 0.5064692
vt 0.1385672 0.5061965
vt 0.1372358 0.5065421
vt 0.1415764 0.5061443
vt 0.1399303 0.5068442
vt 0.1415809 0.5066046
vt 0.1429306 0.5070257
vn -0.6419641 -0.1505724 0.7518045
vn -0.3918763 -0.7470745 0.5369474
vn -0.2003788 -0.903578 0.3786755
vn -0.8258864 -0.4612546 0.3242775
vn -0.7719785 0.1552801 0.6163905
vn -0.9261203 0.2279045 0.3006005
vn -0.2003788 -0.903578 0.3786755
vn -0.7486463 -0.3439593 0.5667635
vn -0.3918763 -0.7470745 0.5369474
vn -0.7719785 0.1552801 0.6163905
vn 0.2511926 0.1407454 0.9576496
vn 0.1123488 0.2233809 0.9682348
vn -0.6082938 -0.1966827 0.7689568
vn -0.6419641 -0.1505724 0.7518045
vn -0.7254574 0.2579409 0.638105
vn -0.7003652 0.2663405 0.6622321
vn -0.5730164 0.6774438 0.461218
vn -0.5230278 0.6466125 0.5552785
vn -0.2090035 0.8843903 0.4173384
vn -0.1609736 0.8222444 0.5458952
vn 0.1735241 0.787222 0.5917525
vn 0.1742371 0.8541945 0.489891
vn 0.4962037 0.6813463 0.5380977
vn 0.4339163 0.6537554 0.619936
vn 0.8124951 0.10511 0.573414
vn 0.765981 -0.1024112 0.6346536
vn 0.7517144 -0.3917304 0.5305401
vn 0.765981 -0.1024112 0.6346536
vn 0.7515861 -0.5174037 0.4091597
vn 0.8124951 0.10511 0.573414
vn 0.7947392 0.3550424 0.492275
vn 0.7469057 0.3340347 0.5749372
vn 0.5290132 0.7211096 0.4473767
vn 0.577479 0.5202354 0.6291845
vn 0.829114 0.3640836 0.4242793
vn 0.6876295 0.3647236 0.6278076
vn 0.8916866 -0.256419 0.3730204
vn 0.8193941 -0.2583386 0.5117171
vn 0.5249977 -0.6906804 0.4973309
vn 0.3070167 -0.8199431 0.4831502
vn 0.09737857 -0.7417241 0.6635984
vn -0.3930754 -0.142643 0.9083748
vn -0.4105456 0.6793995 0.6081683
vn -0.9261203 0.2279045 0.3006005
vn -0.2105534 0.9125861 0.3505052
vn -0.19927 0.6924704 0.6933803
vn -0.19927 0.6924704 0.6933803
vn -0.1738859 0.777666 0.6041518
vn 0.2757177 -0.8856571 0.3736193
vn 0.3550799 -0.903545 0.239843
vn 0.5955544 -0.701542 0.3913487
vn 0.8193941 -0.2583386 0.5117171
vn 0.8916866 -0.256419 0.3730204
vn 0.8023719 -0.5414479 0.2510647
vn 0.5625961 -0.6605755 0.4971174
vn 0.8781428 -0.1798886 0.4432891
vn 0.2371878 -0.6504692 0.7215482
vn 0.0738248 -0.398589 0.9141535
vn -0.6289308 -0.6470542 0.4310067
vn -0.7068228 -0.584899 0.3978626
vn -0.5963084 -0.5004625 0.6276571
vn -0.8112891 -0.4185026 0.4082468
vn -0.7044854 -0.2225896 0.6739097
vn -0.19927 0.6924704 0.6933803
vn -0.1738859 0.777666 0.6041518
vn -0.19927 0.6924704 0.6933803
vn 0.8916866 -0.256419 0.3730204
vn 0.8193941 -0.2583386 0.5117171
vn -0.9096425 0.208584 0.3592258
vn 0.1388917 -0.4619068 0.875986
vn -0.08447807 -0.3682686 0.9258735
vn -0.9306309 -0.06330934 0.3604414
vn 0.1388917 -0.4619068 0.875986
vn -0.6952414 -0.03441359 0.717952
vn -0.7590612 0.05788473 0.6484408
vn -0.5868644 0.2069931 0.7827797
vn 0.7015601 -0.01138839 0.7125193
vn 0.8724727 0.109511 0.4762339
vn 0.7015601 -0.01138839 0.7125193
vn 0.7210266 0.5633036 0.403497
vn -0.7590612 0.05788473 0.6484408
vn -0.08447807 -0.3682686 0.9258735
vn 0.771779 -0.4967036 0.3970425
vn 0.7015601 -0.01138839 0.7125193
vn 0.8724727 0.109511 0.4762339
vn -0.6733524 0 0.7393218
vn -0.5255456 0.3791507 0.7616079
vn -0.4962161 0.6516298 0.5737144
vn -0.6934454 0.3646334 0.6214306
vn 0.5109273 0.3139186 0.8002553
vn -0.3454075 0.4492288 0.8239461
vn 0.3529342 0.5856959 0.729656
vn 0.9031128 0.1521237 0.4015538
vn 0.8467769 0.2714834 0.4574558
vn -0.05369386 0.1832208 0.9816043
vn -0.6733524 0 0.7393218
vn 0.4959492 0.6873296 0.5306718
vn 0.6416703 -0.08065153 0.7627283
vn 0.6310631 0.3374484 0.6984898
vn 0.6721989 -0.4760769 0.5670092
vn 0.6416703 -0.08065153 0.7627283
vn -0.2532581 -0.5727276 0.7796432
vn 0.4723673 -0.745741 0.4698292
vn 0.6416703 -0.08065153 0.7627283
vn 0.2680858 -0.8698145 0.4141895
vn -0.2532581 -0.5727276 0.7796432
vn -0.7357249 -0.4778173 0.4799996
vn -0.6277659 -0.6881199 0.3638694
vn -0.8971105 -0.1648599 0.4098949
vn -0.8764113 0.2635208 0.4030635
vn -0.2532581 -0.5727276 0.7796432
vn -0.7357249 -0.4778173 0.4799996
vn -0.6733524 0 0.7393218
vn -0.4559004 -0.756601 0.4687322
vn -0.5255456 0.3791507 0.7616079
vn 0.3987767 0.8020248 0.4446721
vn -0.1637181 -0.03446946 0.9859048
vn -0.5441974 0.4662184 0.6974881
vn 0.8918694 0.1082532 0.4391471
vn 0.6668828 -0.4626644 0.5841311
vn -0.4879865 -0.4250126 0.7623866
vn -0.9541129 -0.1341006 0.2677417
vn -0.5441974 0.4662184 0.6974881
vn 0.285415 -0.4692945 0.835644
vn -0.01132393 -0.07276919 0.9972845
vn 0.8401446 -0.02180533 0.5419238
vn -0.6120115 -0.6035275 0.5110738
vn 0.4346841 0.4678319 0.7695343
vn -0.7545164 -0.3632651 0.5465742
vn 0.2223332 0.7454949 0.6283355
vn -0.3406554 0.3079094 0.8883387
g fire03_mesh_0
f 3/3/3 2/2/2 1/1/1
f 6/6/6 5/5/5 4/4/4
f 4/4/4 8/8/8 7/7/7
f 8/8/8 9/9/9 7/7/7
f 10/10/10 8/8/8 4/4/4
f 10/10/10 11/11/11 8/8/8
f 8/8/8 12/12/12 9/9/9
f 11/11/11 12/12/12 8/8/8
f 9/9/9 12/12/12 13/13/13
f 9/9/9 13/13/13 14/14/14
f 14/14/14 13/13/13 15/15/15
f 13/13/13 16/16/16 15/15/15
f 13/13/13 12/12/12 16/16/16
f 15/15/15 16/16/16 17/17/17
f 16/16/16 12/12/12 18/18/18
f 16/16/16 18/18/18 17/17/17
f 17/17/17 18/18/18 19/19/19
f 18/18/18 12/12/12 20/20/20
f 18/18/18 20/20/20 19/19/19
f 20/20/20 12/12/12 21/21/21
f 19/19/19 20/20/20 22/22/22
f 20/20/20 21/21/21 22/22/22
f 22/22/22 21/21/21 23/23/23
f 21/21/21 24/24/24 23/23/23
f 21/21/21 12/12/12 24/24/24
f 23/23/23 24/24/24 25/25/25
f 24/24/24 26/26/26 25/25/25
f 24/24/24 12/12/12 26/26/26
f 28/28/28 12/12/12 27/27/27
f 28/28/28 27/27/27 29/29/29
f 30/30/30 28/28/28 29/29/29
f 29/29/29 27/27/27 31/31/31
f 27/27/27 32/32/32 31/31/31
f 27/27/27 12/12/12 32/32/32
f 31/31/31 32/32/32 33/33/33
f 32/32/32 34/34/34 33/33/33
f 32/32/32 12/12/12 34/34/34
f 33/33/33 34/34/34 35/35/35
f 36/36/36 34/34/34 12/12/12
f 34/34/34 36/36/36 35/35/35
f 35/35/35 36/36/36 37/37/37
f 11/11/11 36/36/36 12/12/12
f 36/36/36 11/11/11 38/38/38
f 38/38/38 11/11/11 39/39/39
f 39/39/39 11/11/11 40/40/40
f 40/40/40 11/11/11 41/41/41
f 41/41/41 11/11/11 10/10/10
f 10/10/10 42/42/42 41/41/41
f 43/43/43 42/42/42 10/10/10
f 43/43/43 10/10/10 44/44/44
f 45/45/45 43/43/43 44/44/44
f 43/43/43 46/46/46 42/42/42
f 47/47/47 43/43/43 45/45/45
f 48/48/48 47/47/47 45/45/45
f 39/39/39 40/40/40 49/49/49
f 49/49/49 40/40/40 50/50/50
f 40/40/40 41/41/41 50/50/50
f 51/51/51 39/39/39 49/49/49
f 52/52/52 39/39/39 51/51/51
f 53/53/53 52/52/52 51/51/51
f 50/50/50 41/41/41 54/54/54
f 41/41/41 55/55/55 54/54/54
f 41/41/41 42/42/42 55/55/55
f 54/54/54 55/55/55 56/56/56
f 55/55/55 57/57/57 56/56/56
f 55/55/55 42/42/42 57/57/57
f 56/56/56 57/57/57 58/58/58
f 58/58/58 57/57/57 59/59/59
f 59/59/59 57/57/57 60/60/60
f 57/57/57 61/61/61 60/60/60
f 57/57/57 42/42/42 61/61/61
f 60/60/60 61/61/61 62/62/62
f 61/61/61 42/42/42 63/63/63
f 61/61/61 63/63/63 62/62/62
f 64/64/64 63/63/63 42/42/42
f 62/62/62 63/63/63 65/65/65
f 63/63/63 66/66/66 65/65/65
f 36/36/36 68/68/68 67/67/67
f 71/71/71 70/70/70 69/69/69
f 69/69/69 73/73/73 72/72/72
f 73/73/73 74/74/74 72/72/72
f 72/72/72 74/74/74 75/75/75
f 74/74/74 76/76/76 75/75/75
f 74/74/74 73/73/73 76/76/76
f 73/73/73 77/77/77 76/76/76
f 76/76/76 79/79/79 78/78/78
f 80/80/80 76/76/76 78/78/78
f 81/81/81 76/76/76 80/80/80
f 83/83/83 73/73/73 82/82/82
f 84/84/84 73/73/73 83/83/83
f 85/85/85 84/84/84 83/83/83
f 88/88/88 87/87/87 86/86/86
f 88/88/88 86/86/86 89/89/89
f 86/86/86 90/90/90 89/89/89
f 90/90/90 91/91/91 89/89/89
f 91/91/91 90/90/90 92/92/92
f 92/92/92 90/90/90 93/93/93
f 94/94/94 93/93/93 90/90/90
f 95/95/95 94/94/94 90/90/90
f 96/96/96 95/95/95 90/90/90
f 94/94/94 95/95/95 97/97/97
f 95/95/95 98/98/98 97/97/97
f 97/97/97 98/98/98 99/99/99
f 99/99/99 101/101/101 100/100/100
f 101/101/101 95/95/95 102/102/102
f 100/100/100 104/104/104 103/103/103
f 103/103/103 104/104/104 105/105/105
f 104/104/104 106/106/106 105/105/105
f 105/105/105 106/106/106 107/107/107
f 109/109/109 95/95/95 108/108/108
f 109/109/109 110/110/110 95/95/95
f 110/110/110 111/111/111 95/95/95
f 112/112/112 111/111/111 110/110/110
f 95/95/95 113/113/113 108/108/108
f 108/108/108 113/113/113 114/114/114
f 113/113/113 115/115/115 114/114/114
f 118/118/118 117/117/117 116/116/116
f 116/116/116 117/117/117 119/119/119
f 119/119/119 117/117/117 120/120/120
f 120/120/120 117/117/117 121/121/121
f 121/121/121 117/117/117 122/122/122
f 122/122/122 117/117/117 123/123/123
f 126/126/126 125/125/125 124/124/124
f 124/124/124 125/125/125 127/127/127
f 128/128/128 125/125/125 126/126/126
f 129/129/129 127/127/127 125/125/125
f 130/130/130 125/125/125 128/128/128
f 129/129/129 125/125/125 131/131/131
f 131/131/131 125/125/125 130/130/130
