g fireBlue06_mesh
v -0.005790326 0.9783825 -4.470348E-08
v -0.03388419 0.978034 -0.158488
v 0.01654407 1.181295 -0.04171552
v -0.005790326 0.9783825 -4.470348E-08
v 0.01654407 1.181295 -0.04171552
v 0.006461799 1.161378 -2.235174E-08
v 0.006461799 1.161378 -2.235174E-08
v 0.01654407 1.181295 -0.04171552
v 0.167401 1.343791 -0.02921508
v 0.1188821 1.545859 -2.235174E-08
v 0.167401 1.343791 -0.02921508
v 0.1612345 1.368067 -4.470348E-08
v 0.2407834 0.03954852 -2.235174E-08
v 0.1385496 0.0766587 -0.1721974
v 0.1786123 0.08369464 -2.235174E-08
v 0.2510117 2.13069 -2.235174E-08
v 0.1073687 2.082619 -0.04622834
v 0.08499406 2.125118 -2.235174E-08
v 0.003421688 2.029447 -0.04665156
v -0.02582543 2.045359 -2.235174E-08
v 0.1073687 2.082619 -0.04622834
v 0.003870696 1.966609 -0.04361903
v -0.03662317 1.827818 -2.235174E-08
v 0.03246007 1.956436 -2.235174E-08
v 0.1033922 2.033975 -2.235174E-08
v 0.2510117 2.13069 -2.235174E-08
v 0.1820401 0.6601416 2.235174E-08
v 0.02188284 0.5902487 -0.15789
v 0.06635246 0.6581095 2.235174E-08
v 0.3393948 0.6864744 2.235174E-08
v 0.02188284 0.5902487 -0.15789
v 0.02188284 0.5902487 -0.15789
v 0.004377658 0.6857799 2.235174E-08
v -0.05738941 0.7629699 -0.04555508
v 0.1767053 0.6049419 2.235174E-08
v 0.0986718 0.5063732 2.235174E-08
v -0.04330724 0.3006053 -0.1703512
v 0.1552217 0.08813781 2.235174E-08
v 0.1274578 0.1870465 2.235174E-08
v -0.04330724 0.3006053 -0.1703512
v 0.1000408 0.3968526 2.235174E-08
v -0.01309667 0.09681401 2.235174E-08
v 0.1534322 0.3270331 2.235174E-08
v 0.2627333 0.271361 2.235174E-08
v 0.1777798 0.2477799 2.235174E-08
v -0.04330724 0.3006053 -0.1703512
v -0.1415045 0.1506065 2.235174E-08
v -0.2473541 0.277279 2.235174E-08
v -0.27347 0.4291841 2.235174E-08
v -0.1388561 0.4306011 2.235174E-08
v 0.02188284 0.5902487 -0.15789
v -0.03824991 0.6105587 -0.01865716
v -0.05738941 0.7629699 -0.04555508
v 0.2326869 1.412003 2.235174E-08
v 0.2093281 1.399816 -0.05341973
v 0.1646419 1.467861 2.235174E-08
v 0.2580768 1.344974 2.235174E-08
v 0.192063 1.361223 3.073364E-08
v 0.1646419 1.467861 2.235174E-08
v -0.1728635 0.9150566 2.235174E-08
v -0.1455851 0.9468848 -0.1026517
v -0.08216617 0.8508632 -0.02878733
v -0.1823402 0.9479295 -0.07643078
v -0.2202259 0.9502662 2.235174E-08
v -0.1142016 1.038479 -0.07058714
v -0.2010605 1.007695 2.235174E-08
v -0.1251079 1.069329 2.235174E-08
v -0.07403934 1.069474 -0.0003030919
v -0.1142016 1.038479 -0.07058714
v -0.08078863 1.008654 -0.0001298233
v -0.1142016 1.038479 -0.07058714
v -0.1455851 0.9468848 -0.1026517
v -0.1050423 0.9444866 2.235174E-08
v -0.08216617 0.8508632 -0.02878733
v 0.0620552 0.8208251 -2.235174E-08
v -0.03388419 0.978034 -0.158488
v -0.005790326 0.9783825 -4.470348E-08
v 0.03500023 0.802316 -0.1859371
v 0.2156586 0.7528715 -2.235174E-08
v 0.1731 0.6808042 -0.2189409
v 0.3659382 0.7810405 -2.235174E-08
v 0.410142 0.7168542 -0.1550547
v 0.474113 0.8684592 -2.235174E-08
v 0.529336 0.6864895 -2.235174E-08
v 0.4940987 0.4649068 -2.235174E-08
v 0.4139692 0.4794515 -0.2450955
v 0.4639334 0.3058427 -2.235174E-08
v 0.1260221 0.3722236 -0.3893313
v 0.3729687 0.3456083 -0.2543909
v 0.04115232 0.7497012 -0.2943872
v -0.1017422 0.8968357 -0.2174547
v -0.07943365 0.6286063 -0.2560351
v 0.3118004 0.1377512 -2.235174E-08
v -0.03388419 0.978034 -0.158488
v 0.2579731 0.2252917 -0.2301684
v 0.2510509 0.1693977 -2.235174E-08
v 0.1477196 0.1903025 -0.2344072
v 0.1916127 0.1397777 -2.235174E-08
v 0.1786123 0.08369464 -2.235174E-08
v 0.1385496 0.0766587 -0.1721974
v -0.09538098 1.057578 -0.1423274
v 0.01654407 1.181295 -0.04171552
v -0.0278165 0.1382185 -0.2544185
v -0.07867286 0.01095134 -2.235174E-08
v 0.1294887 -0.00576514 -2.235174E-08
v 0.2407834 0.03954852 -2.235174E-08
v -0.2784016 0.1415578 -2.235174E-08
v -0.1446554 0.2299657 -0.2812697
v -0.3659937 0.2916818 -2.235174E-08
v -0.1975283 0.3386501 -0.2516901
v -0.3631775 0.4887376 -2.235174E-08
v -0.1902473 0.4590831 -0.2317369
v -0.2312878 0.5053635 -2.235174E-08
v -0.1556187 0.637758 -2.235174E-08
v -0.1625036 0.8135137 -0.1658648
v -0.1984653 0.8996277 -0.1432226
v -0.1797693 0.9739479 -0.1395107
v -0.3024631 0.8822194 -2.235174E-08
v -0.2903249 0.9980209 -2.235174E-08
v -0.2153466 0.7995252 -2.235174E-08
v -0.07943365 0.6286063 -0.2560351
v -0.1556187 0.637758 -2.235174E-08
v -0.1263946 1.131103 -2.235174E-08
v 0.01794722 1.18616 -2.235174E-08
v 0.01654407 1.181295 -0.04171552
v 0.1612345 1.368067 -4.470348E-08
v 0.167401 1.343791 -0.02921508
v 0.1188821 1.545859 -2.235174E-08
v 0.1644113 1.449217 -0.1111526
v 0.2181712 1.41216 -0.1111526
v 0.2539377 1.342576 -0.1111526
v 0.1535659 1.297419 -2.235174E-08
v 0.006461799 1.161378 -2.235174E-08
v 0.2539377 1.342576 -0.1111526
v 0.2293801 1.302252 -2.235174E-08
v 0.3102981 1.280564 -0.1111526
v 0.3111955 1.240547 -2.235174E-08
v 0.3744642 1.157233 -2.235174E-08
v 0.3744642 1.157233 -2.235174E-08
v 0.3102981 1.280564 -0.1111526
v 0.3366428 1.271963 -4.470348E-08
v 0.2539377 1.342576 -0.1111526
v 0.2539377 1.342576 -0.1111526
v 0.29506 1.368292 -2.235174E-08
v 0.2181712 1.41216 -0.1111526
v 0.2181712 1.41216 -0.1111526
v 0.2389319 1.434046 -2.235174E-08
v 0.1644113 1.449217 -0.1111526
v 0.1735547 1.484138 -2.235174E-08
v 0.1188821 1.545859 -2.235174E-08
vt 0.4751687 0.2584584
vt 0.4751772 0.2583594
vt 0.4700417 0.2585371
vt 0.4751687 0.2584584
vt 0.4700417 0.2585371
vt 0.4705449 0.2585015
vt 0.4705449 0.2585015
vt 0.4700417 0.2585371
vt 0.4659362 0.2590683
vt 0.4608311 0.2588974
vt 0.4659362 0.2590683
vt 0.4653228 0.2590468
vt 0.498889 0.2593269
vt 0.4979513 0.2589668
vt 0.4977735 0.2591079
vt 0.4460544 0.2593629
vt 0.4472691 0.2588569
vt 0.4461957 0.2587781
vt 0.4486128 0.2584906
vt 0.4482105 0.2583877
vt 0.4472691 0.2588569
vt 0.4501998 0.2584925
vt 0.4537072 0.2583498
vt 0.4504572 0.2585932
vt 0.4484979 0.2588429
vt 0.4460544 0.2593629
vt 0.1471567 0.08447608
vt 0.1464926 0.08243212
vt 0.1466769 0.08440291
vt 0.147809 0.08526313
vt 0.1464926 0.08243212
vt 0.1464926 0.08243212
vt 0.1464201 0.08520409
vt 0.1461639 0.08744641
vt 0.1471345 0.08287059
vt 0.146811 0.08000521
vt 0.1462224 0.07402664
vt 0.1470455 0.06792144
vt 0.1469303 0.07079221
vt 0.1462224 0.07402664
vt 0.1468168 0.07683199
vt 0.1463476 0.06811293
vt 0.1470381 0.07482256
vt 0.1474912 0.07325403
vt 0.147139 0.07254539
vt 0.1462224 0.07402664
vt 0.1458152 0.06970017
vt 0.1453764 0.07337584
vt 0.1452682 0.07778349
vt 0.1458262 0.07780405
vt 0.1464926 0.08243212
vt 0.1462433 0.08303134
vt 0.1461639 0.08744641
vt 0.1473666 0.1069402
vt 0.1472698 0.1066703
vt 0.1470845 0.1081746
vt 0.1474719 0.1054578
vt 0.1471981 0.1058172
vt 0.1470845 0.1081746
vt 0.1456853 0.09595482
vt 0.145788 0.09650012
vt 0.1460611 0.09453563
vt 0.1456486 0.09676183
vt 0.1454889 0.09673305
vt 0.1459271 0.0986222
vt 0.1455684 0.09800277
vt 0.1458832 0.09936523
vt 0.146095 0.09936848
vt 0.1459271 0.0986222
vt 0.1460669 0.09802361
vt 0.1459271 0.0986222
vt 0.145788 0.09650012
vt 0.1459664 0.09660525
vt 0.1460611 0.09453563
vt 0.4791496 0.2586974
vt 0.4751772 0.2583594
vt 0.4751687 0.2584584
vt 0.4796171 0.2586019
vt 0.4808664 0.2592386
vt 0.4826873 0.2590884
vt 0.4801548 0.2597678
vt 0.4817764 0.2599233
vt 0.4779458 0.2601489
vt 0.4825433 0.2603436
vt 0.488142 0.2602193
vt 0.4877746 0.2599372
vt 0.4921611 0.260113
vt 0.4904839 0.2589227
vt 0.4911565 0.2597927
vt 0.4809467 0.2586236
vt 0.477229 0.2581204
vt 0.4840064 0.258199
vt 0.4964082 0.2595773
vt 0.4751772 0.2583594
vt 0.4941966 0.2593877
vt 0.4956085 0.2593632
vt 0.4950802 0.2589992
vt 0.4963566 0.2591538
vt 0.4977735 0.2591079
vt 0.4979513 0.2589668
vt 0.4731677 0.2581429
vt 0.4700417 0.2585371
vt 0.4963963 0.2583809
vt 0.4996117 0.2582017
vt 0.500034 0.258935
vt 0.498889 0.2593269
vt 0.4963117 0.257498
vt 0.4940782 0.2579689
vt 0.4925191 0.2571893
vt 0.4913322 0.2577827
vt 0.4875403 0.257199
vt 0.4882893 0.2578087
vt 0.4871198 0.2576637
vt 0.4837749 0.2579305
vt 0.4793343 0.2579062
vt 0.4771587 0.2577795
vt 0.4752806 0.2578454
vt 0.4775983 0.2574129
vt 0.4746723 0.2574558
vt 0.4796879 0.2577201
vt 0.4840064 0.258199
vt 0.4837749 0.2579305
vt 0.4713102 0.2580338
vt 0.4699189 0.2585418
vt 0.4700417 0.2585371
vt 0.4653228 0.2590468
vt 0.4659362 0.2590683
vt 0.4608311 0.2588974
vt 0.4632727 0.2590581
vt 0.4642091 0.2592475
vt 0.4659672 0.2593733
vt 0.467108 0.2590195
vt 0.4705449 0.2585015
vt 0.4659672 0.2593733
vt 0.4669856 0.2592868
vt 0.4675337 0.2595719
vt 0.4685445 0.2595751
vt 0.4706499 0.2597978
vt 0.4706499 0.2597978
vt 0.4675337 0.2595719
vt 0.4677512 0.2596648
vt 0.4659672 0.2593733
vt 0.4659672 0.2593733
vt 0.4653173 0.2595183
vt 0.4642091 0.2592475
vt 0.4642091 0.2592475
vt 0.463656 0.2593204
vt 0.4632727 0.2590581
vt 0.4623904 0.2590902
vt 0.4608311 0.2588974
vn -0.9697809 -0.1951825 0.1463859
vn -0.856684 -0.3141913 0.4091164
vn -0.4967988 -0.5065163 0.7047213
vn -0.9697809 -0.1951825 0.1463859
vn -0.4967988 -0.5065163 0.7047213
vn -0.9595705 0.232757 0.1582678
vn -0.9595705 0.232757 0.1582678
vn -0.4967988 -0.5065163 0.7047213
vn 0.7858401 0.2745527 0.5541446
vn 0.927853 -0.04725615 0.36994
vn 0.7858401 0.2745527 0.5541446
vn 0.9741309 -0.001208625 0.2259813
vn -0.7092627 0.4727107 0.5229637
vn -0.2538045 0.8172744 0.517345
vn -0.9676877 -0.09546187 0.2333831
vn -0.2794669 -0.084668 0.9564149
vn -0.1154958 -0.1738715 0.977972
vn 0.2687689 -0.6957114 0.6661449
vn 0.5469372 -0.3060103 0.7792416
vn 0.654893 -0.3636954 0.6624506
vn -0.1154958 -0.1738715 0.977972
vn 0.3023916 0.2755234 0.9124944
vn 0.4622907 0.1652664 0.8711912
vn -0.6571244 0.5134773 0.5518412
vn -0.5682152 0.5914586 0.5721085
vn -0.2794669 -0.084668 0.9564149
vn 0.1301057 -0.948749 0.2880066
vn -0.03624959 -0.1344815 0.9902529
vn -0.1116008 -0.9012084 0.4187704
vn -0.4628606 0.07851439 0.8829471
vn -0.03624959 -0.1344815 0.9902529
vn -0.03624959 -0.1344815 0.9902529
vn -0.703021 -0.6403037 0.3094715
vn 0.01724209 -0.5395601 0.8417705
vn -0.4916651 0.7678722 0.4106551
vn -0.7908545 0.2435525 0.5614548
vn 0.2043251 0.1259969 0.9707606
vn -0.2204411 0.4764334 0.8511269
vn -0.6891626 0.04824712 0.7229987
vn 0.2043251 0.1259969 0.9707606
vn -0.6964014 -0.1884307 0.6924732
vn 0.1140289 0.6470639 0.7538606
vn -0.4416142 -0.6562338 0.6118284
vn -0.4917441 -0.1560305 0.8566459
vn -0.3373911 0.6816443 0.6492522
vn 0.2043251 0.1259969 0.9707606
vn 0.4171036 0.5492837 0.7240939
vn 0.6031607 0.2515565 0.7569125
vn 0.489232 -0.2364651 0.8394857
vn 0.5566267 -0.5121509 0.6541162
vn -0.03624959 -0.1344815 0.9902529
vn 0.894138 -0.1758514 0.4118174
vn 0.01724209 -0.5395601 0.8417705
vn -0.72164 -0.5361899 0.4378769
vn 0.2118612 -0.01708517 0.9771503
vn 0.4543236 -0.3460722 0.820868
vn -0.3971103 0.4344647 0.8084206
vn 0.596889 0.5463124 0.5875936
vn 0.4543236 -0.3460722 0.820868
vn 0.5872701 0.7301723 0.3492308
vn -0.4791623 0.3213292 0.8167931
vn -0.2412418 0.4865805 0.8396677
vn 0.7414779 -0.2279775 0.63106
vn 0.8804016 0.1993178 0.4303084
vn -0.1361575 -0.4641252 0.8752422
vn 0.6600045 -0.5659949 0.4940079
vn 0.5272617 -0.6877149 0.4990423
vn -0.6685899 -0.4594939 0.584682
vn -0.1361575 -0.4641252 0.8752422
vn -0.8809386 0.2056662 0.4262024
vn -0.1361575 -0.4641252 0.8752422
vn -0.4791623 0.3213292 0.8167931
vn -0.9139796 0.02839648 0.4047654
vn -0.2412418 0.4865805 0.8396677
vn -0.7193309 -0.654095 0.2339294
vn -0.856684 -0.3141913 0.4091164
vn -0.9697809 -0.1951825 0.1463859
vn -0.6733771 -0.6788366 0.2928209
vn -0.1770405 -0.9289445 0.325144
vn -0.3238494 -0.672958 0.6650182
vn 0.20651 -0.9041482 0.3739916
vn -0.5283083 -0.5133505 0.6762851
vn -0.3906494 -0.5724576 0.7208921
vn -0.8795795 -0.07034324 0.4705228
vn -0.9128565 0.0781497 0.4007315
vn -0.7457249 -0.06112521 0.6634441
vn -0.8032149 0.4694062 0.3667472
vn -0.06920601 -0.006768317 0.9975795
vn -0.7289596 0.4301466 0.5325333
vn -0.07211955 -0.362369 0.9292403
vn 0.1889969 -0.2814053 0.9407929
vn 0.7071816 -0.1645708 0.6876124
vn -0.5768082 0.7237208 0.3788412
vn -0.856684 -0.3141913 0.4091164
vn -0.5252593 0.7073583 0.4730188
vn -0.1475592 0.9573376 0.2484574
vn -0.4047281 0.6793039 0.6121612
vn -0.7069365 0.6590024 0.2568202
vn -0.9676877 -0.09546187 0.2333831
vn -0.2538045 0.8172744 0.517345
vn 0.3526982 -0.6572767 0.6660265
vn -0.4967988 -0.5065163 0.7047213
vn 0.2592016 0.7582969 0.598164
vn 0.3181842 0.8241391 0.4685655
vn 0.01233115 0.8953324 0.4452278
vn -0.7092627 0.4727107 0.5229637
vn 0.6359826 0.5795594 0.5095461
vn 0.5536391 0.5076552 0.6601287
vn 0.8120103 0.1501708 0.5639929
vn 0.7307634 0.09313059 0.6762482
vn 0.7792813 -0.2513248 0.5740702
vn 0.7370493 -0.2746762 0.617504
vn 0.692925 -0.6706712 0.2646789
vn 0.9481042 -0.1243226 0.2926472
vn 0.8636763 0.2736196 0.423315
vn 0.7900481 0.1567971 0.5926538
vn 0.6378615 -0.4665456 0.6127544
vn 0.8169369 0.1647737 0.5526879
vn 0.694391 -0.4353845 0.5729411
vn 0.867536 0.3678477 0.3347676
vn 0.7071816 -0.1645708 0.6876124
vn 0.9481042 -0.1243226 0.2926472
vn 0.5109354 -0.7157673 0.4760485
vn 0.5342299 -0.755971 0.378294
vn -0.4967988 -0.5065163 0.7047213
vn 0.9741309 -0.001208625 0.2259813
vn 0.7858401 0.2745527 0.5541446
vn 0.927853 -0.04725615 0.36994
vn 0.6995325 -0.2096734 0.6831481
vn -0.3161964 -0.3423755 0.8847593
vn -0.3219741 0.1181481 0.9393475
vn -0.4418458 0.7597205 0.4770713
vn -0.9595705 0.232757 0.1582678
vn -0.3219741 0.1181481 0.9393475
vn 0.4999981 0.7549722 0.4242864
vn -0.3271095 0.3197224 0.8892564
vn 0.6985381 0.6607999 0.2745689
vn -0.5072999 0.4161691 0.7546192
vn -0.5072999 0.4161691 0.7546192
vn -0.3271095 0.3197224 0.8892564
vn -0.8719893 -0.4213795 0.2491463
vn -0.3219741 0.1181481 0.9393475
vn -0.3219741 0.1181481 0.9393475
vn -0.7991588 -0.5165966 0.3073651
vn -0.3161964 -0.3423755 0.8847593
vn -0.3161964 -0.3423755 0.8847593
vn -0.6901064 -0.6545731 0.3086865
vn 0.6995325 -0.2096734 0.6831481
vn -0.6330501 -0.7253423 0.2704182
vn 0.927853 -0.04725615 0.36994
g fireBlue06_mesh_0
f 3/3/3 2/2/2 1/1/1
f 6/6/6 5/5/5 4/4/4
f 9/9/9 8/8/8 7/7/7
f 12/12/12 11/11/11 10/10/10
f 15/15/15 14/14/14 13/13/13
f 18/18/18 17/17/17 16/16/16
f 20/20/20 19/19/19 18/18/18
f 19/19/19 21/21/21 18/18/18
f 22/22/22 19/19/19 20/20/20
f 19/19/19 22/22/22 21/21/21
f 23/23/23 22/22/22 20/20/20
f 24/24/24 22/22/22 23/23/23
f 21/21/21 22/22/22 24/24/24
f 25/25/25 21/21/21 24/24/24
f 26/26/26 21/21/21 25/25/25
f 29/29/29 28/28/28 27/27/27
f 31/31/31 30/30/30 27/27/27
f 33/33/33 32/32/32 29/29/29
f 33/33/33 34/34/34 32/32/32
f 35/35/35 30/30/30 32/32/32
f 32/32/32 36/36/36 35/35/35
f 37/37/37 36/36/36 32/32/32
f 39/39/39 37/37/37 38/38/38
f 41/41/41 36/36/36 40/40/40
f 38/38/38 40/40/40 42/42/42
f 43/43/43 41/41/41 40/40/40
f 45/45/45 44/44/44 40/40/40
f 39/39/39 45/45/45 46/46/46
f 44/44/44 43/43/43 46/46/46
f 42/42/42 46/46/46 47/47/47
f 47/47/47 46/46/46 48/48/48
f 48/48/48 46/46/46 49/49/49
f 49/49/49 46/46/46 50/50/50
f 51/51/51 50/50/50 46/46/46
f 52/52/52 50/50/50 51/51/51
f 53/53/53 52/52/52 51/51/51
f 56/56/56 55/55/55 54/54/54
f 55/55/55 57/57/57 54/54/54
f 58/58/58 57/57/57 55/55/55
f 59/59/59 58/58/58 55/55/55
f 62/62/62 61/61/61 60/60/60
f 61/61/61 63/63/63 60/60/60
f 60/60/60 63/63/63 64/64/64
f 63/63/63 61/61/61 65/65/65
f 64/64/64 63/63/63 66/66/66
f 65/65/65 67/67/67 63/63/63
f 67/67/67 66/66/66 63/63/63
f 67/67/67 69/69/69 68/68/68
f 68/68/68 71/71/71 70/70/70
f 70/70/70 71/71/71 72/72/72
f 73/73/73 70/70/70 72/72/72
f 73/73/73 72/72/72 74/74/74
f 77/77/77 76/76/76 75/75/75
f 76/76/76 78/78/78 75/75/75
f 75/75/75 78/78/78 79/79/79
f 78/78/78 80/80/80 79/79/79
f 79/79/79 80/80/80 81/81/81
f 80/80/80 82/82/82 81/81/81
f 81/81/81 82/82/82 83/83/83
f 83/83/83 82/82/82 84/84/84
f 84/84/84 82/82/82 85/85/85
f 82/82/82 86/86/86 85/85/85
f 85/85/85 86/86/86 87/87/87
f 80/80/80 88/88/88 82/82/82
f 82/82/82 88/88/88 86/86/86
f 86/86/86 89/89/89 87/87/87
f 86/86/86 88/88/88 89/89/89
f 90/90/90 88/88/88 80/80/80
f 78/78/78 90/90/90 80/80/80
f 90/90/90 78/78/78 91/91/91
f 88/88/88 90/90/90 92/92/92
f 90/90/90 91/91/91 92/92/92
f 87/87/87 89/89/89 93/93/93
f 94/94/94 91/91/91 78/78/78
f 89/89/89 95/95/95 93/93/93
f 89/89/89 88/88/88 95/95/95
f 93/93/93 95/95/95 96/96/96
f 96/96/96 95/95/95 97/97/97
f 95/95/95 88/88/88 97/97/97
f 98/98/98 96/96/96 97/97/97
f 98/98/98 97/97/97 99/99/99
f 97/97/97 100/100/100 99/99/99
f 94/94/94 101/101/101 91/91/91
f 94/94/94 102/102/102 101/101/101
f 103/103/103 97/97/97 88/88/88
f 103/103/103 100/100/100 97/97/97
f 100/100/100 103/103/103 104/104/104
f 105/105/105 100/100/100 104/104/104
f 106/106/106 100/100/100 105/105/105
f 104/104/104 103/103/103 107/107/107
f 103/103/103 108/108/108 107/107/107
f 103/103/103 88/88/88 108/108/108
f 107/107/107 108/108/108 109/109/109
f 108/108/108 110/110/110 109/109/109
f 108/108/108 88/88/88 110/110/110
f 109/109/109 110/110/110 111/111/111
f 110/110/110 88/88/88 112/112/112
f 110/110/110 112/112/112 111/111/111
f 111/111/111 112/112/112 113/113/113
f 113/113/113 112/112/112 114/114/114
f 112/112/112 88/88/88 92/92/92
f 112/112/112 92/92/92 114/114/114
f 92/92/92 91/91/91 115/115/115
f 115/115/115 91/91/91 116/116/116
f 116/116/116 91/91/91 117/117/117
f 117/117/117 91/91/91 101/101/101
f 115/115/115 116/116/116 118/118/118
f 118/118/118 116/116/116 119/119/119
f 116/116/116 117/117/117 119/119/119
f 120/120/120 115/115/115 118/118/118
f 121/121/121 115/115/115 120/120/120
f 122/122/122 121/121/121 120/120/120
f 119/119/119 117/117/117 123/123/123
f 117/117/117 101/101/101 123/123/123
f 123/123/123 101/101/101 124/124/124
f 101/101/101 125/125/125 124/124/124
f 124/124/124 125/125/125 126/126/126
f 102/102/102 127/127/127 126/126/126
f 127/127/127 129/129/129 128/128/128
f 130/130/130 129/129/129 127/127/127
f 131/131/131 130/130/130 127/127/127
f 131/131/131 127/127/127 132/132/132
f 132/132/132 127/127/127 133/133/133
f 135/135/135 134/134/134 132/132/132
f 136/136/136 134/134/134 135/135/135
f 137/137/137 136/136/136 135/135/135
f 138/138/138 136/136/136 137/137/137
f 141/141/141 140/140/140 139/139/139
f 142/142/142 140/140/140 141/141/141
f 144/144/144 143/143/143 141/141/141
f 145/145/145 143/143/143 144/144/144
f 147/147/147 146/146/146 144/144/144
f 148/148/148 146/146/146 147/147/147
f 149/149/149 148/148/148 147/147/147
f 150/150/150 148/148/148 149/149/149
