g fire13_mesh
v -0.06668398 1.194115 0
v -0.1715538 1.043355 -0.1432577
v -0.1353709 1.107854 0
v -0.2295015 1.052663 -0.1754921
v -0.1930706 1.114324 0
v -0.1715538 1.043355 -0.1432577
v -0.3114572 1.126319 -0.1304799
v -0.2566973 1.152113 0
v -0.3372286 1.318848 0
v -0.3835292 1.134892 0
v -0.2214308 0.8597133 -0.3216342
v -0.3728284 0.9989777 -0.1992473
v -0.1570107 0.9556101 -0.189077
v -0.4400908 1.022984 0
v -0.3979819 0.8863475 -0.2196529
v -0.4787844 0.8636091 0
v -0.3900839 0.7855316 -0.2257628
v -0.4598666 0.734684 0
v -0.3154264 0.7058251 -0.2195478
v -0.3724139 0.6164685 0
v -0.1783912 0.5711223 -0.2542427
v -0.1126392 0.9945493 0
v -0.06668398 1.194115 0
v -0.05299656 0.9066229 0
v -0.05575696 0.8122478 -0.2430005
v 0.04954649 0.8626804 0
v -0.01086668 0.6111082 -0.316575
v 0.0978602 0.7292696 -0.2063309
v 0.2142224 0.8833387 0
v 0.1537915 0.429609 -0.4111032
v 0.2709216 0.8576083 -0.1743882
v -0.08157353 0.3761487 -0.209106
v -0.1540499 0.1894952 -0.1184008
v -0.224189 0.5545291 0
v -0.1190769 0.3832604 0
v 0.2729652 1.027302 0
v 0.360403 0.8124535 0
v 0.4700654 0.6097611 0
v 0.3686982 0.5639668 -0.224134
v 0.4960741 0.3768804 0
v 0.3491533 0.3749309 -0.2165017
v 0.4062975 0.1755501 0
v 0.2869395 0.2565981 -0.2087975
v 0.2768389 0.05784092 0
v 0.2298257 0.1435303 -0.2319032
v 0.1503073 -0.004646321 0
v 0.128816 0.10177 -0.2328782
v -0.04304709 -0.0004993822 0
v -0.008047862 0.1196278 -0.1990102
v -0.1873222 0.03487778 0
v -0.1540499 0.1894952 -0.1184008
v -0.2871307 0.08053371 0
v -0.3698231 0.1882374 0
v -0.1991797 0.2360452 0
v -0.1540499 0.1894952 -0.1184008
v -0.1190769 0.3832604 0
v -0.08157353 0.3761487 -0.209106
v 0.2424632 1.448562 0
v 0.2231676 1.460182 -0.0398756
v 0.2943437 1.549821 0
v 0.141909 1.40675 0
v 0.2231676 1.460182 -0.0398756
v 0.1353083 1.449012 -0.06699593
v 0.03037355 1.405363 0
v 0.009026135 1.479458 -0.05973377
v -0.005708499 1.380235 -0.04127783
v 0.01197753 1.367227 0
v -0.05388222 1.230698 0
v -0.02121925 1.384867 0
v -0.005059143 1.473544 0
v 0.009026135 1.479458 -0.05973377
v -0.01388007 1.623914 0
v 0.04941549 1.506615 0
v 0.1360369 1.491595 0
v 0.009026135 1.479458 -0.05973377
v 0.1353083 1.449012 -0.06699593
v 0.2342277 1.500942 0
v 0.2943437 1.549821 0
v 0.2231676 1.460182 -0.0398756
v 0.2231676 1.460182 -0.0398756
v 0.1353083 1.449012 -0.06699593
v -0.1783912 0.5711223 -0.2542427
v 0.07825517 1.468467 -0.005812027
v 0.05550975 1.459305 -0.008590538
v 0.05879834 1.467348 -0.04079072
v 0.02986949 1.468246 -0.05540447
v 0.04141597 1.448232 -0.008327363
v 0.02063229 1.447462 -0.007613901
v 0.01062533 1.460548 -0.008369626
v 0.02986949 1.468246 -0.05540447
v 0.00831604 1.482871 -0.009231413
v 0.006533097 1.507147 -0.006970876
v 0.03258897 1.48815 -0.008327363
v 0.05578373 1.473609 -0.008327363
v 0.05879834 1.467348 -0.04079072
v 0.07825517 1.468467 -0.005812027
v 0.1039966 0.4391367 2.235174E-08
v 0.0592837 0.5826887 -0.0851756
v 0.1392963 0.5826887 2.235174E-08
v 0.280495 0.6650547 2.235174E-08
v 0.3110881 0.7497739 2.235174E-08
v 0.2240155 0.7827203 2.235174E-08
v 0.05865072 0.6743436 2.235174E-08
v -0.09191436 0.7155646 2.235174E-08
v -0.1951697 0.7609076 -0.0851756
v -0.1937365 0.8157612 2.235174E-08
v -0.2866852 0.8811059 -0.08630012
v -0.03245455 0.3913796 2.235174E-08
v 0.06402002 0.2752143 -0.0851756
v -0.06703502 0.2744647 2.235174E-08
v -0.1938301 0.1328495 2.235174E-08
v -0.04030555 0.09405828 2.235174E-08
v 0.1655305 0.1039384 2.235174E-08
v 0.3532164 0.2670037 2.235174E-08
v 0.1628294 0.3497109 2.235174E-08
v 0.1039966 0.4391367 2.235174E-08
v -0.09404115 0.5848517 2.235174E-08
v -0.1951697 0.7609076 -0.0851756
v -0.21891 0.6847468 2.235174E-08
v -0.3301568 0.6892875 2.235174E-08
v -0.4164298 0.7664791 2.235174E-08
v -0.3449776 0.798336 2.235174E-08
v -0.3462136 0.8764457 2.235174E-08
v -0.2866852 0.8811059 -0.08630012
v -0.4007171 0.9464461 2.235174E-08
v -0.3776543 1.022418 2.235174E-08
v -0.3252064 1.126147 2.235174E-08
v -0.2957689 1.033651 -0.006713344
v -0.270475 0.9787744 -0.01127877
v -0.2228179 0.9686516 -0.09567143
v 0.004238306 2.062568 0
v -0.02527872 2.094221 -0.04890855
v 0.05387772 2.115437 -0.03989985
v 0.05382396 2.084187 0
v 0.1223897 2.093044 0
v -0.03285637 2.034146 0
v -0.02527872 2.094221 -0.04890855
v -0.04821827 2.098861 0
v -0.0349197 2.158141 0
v -0.000975322 2.147752 0
v 0.05562396 2.146191 0
v -0.02527872 2.094221 -0.04890855
v 0.05387772 2.115437 -0.03989985
v 0.1223897 2.093044 0
vt 0.7889025 0.6648317
vt 0.7915558 0.6645741
vt 0.7904207 0.664663
vt 0.791392 0.664432
vt 0.7903066 0.6645214
vt 0.7915558 0.6645741
vt 0.7900955 0.6642308
vt 0.7896416 0.6643652
vt 0.7867065 0.6641676
vt 0.7899447 0.664054
vt 0.7947884 0.6644518
vt 0.7923368 0.6640803
vt 0.7931004 0.6646097
vt 0.7919145 0.6639152
vt 0.7943193 0.6640184
vt 0.7947197 0.6638201
vt 0.796094 0.6640378
vt 0.796989 0.6638665
vt 0.7974968 0.6642211
vt 0.7990698 0.6640812
vt 0.7998679 0.6645575
vt 0.7924147 0.6647189
vt 0.7889025 0.6648317
vt 0.7939624 0.664865
vt 0.7956239 0.6648583
vt 0.7947358 0.6651168
vt 0.799164 0.6649688
vt 0.7970845 0.6652354
vt 0.7943725 0.665521
vt 0.8023586 0.6653727
vt 0.7948251 0.6656601
vt 0.8033 0.664795
vt 0.8065853 0.6646172
vt 0.80016 0.6644449
vt 0.8031747 0.6647031
vt 0.7918382 0.6656651
vt 0.79562 0.6658796
vt 0.7991878 0.6661489
vt 0.799994 0.6659001
vt 0.8032869 0.6662127
vt 0.8033212 0.6658521
vt 0.8068308 0.6659924
vt 0.805404 0.6656995
vt 0.8089024 0.6656747
vt 0.8073941 0.6655592
vt 0.8100021 0.6653641
vt 0.8081294 0.6653113
vt 0.8099294 0.6648896
vt 0.807815 0.6649757
vt 0.8093065 0.6645355
vt 0.8065853 0.6646172
vt 0.8085027 0.6642904
vt 0.8066074 0.6640877
vt 0.8057657 0.6645063
vt 0.8065853 0.6646172
vt 0.8031747 0.6647031
vt 0.8033 0.664795
vt 0.7844235 0.6655902
vt 0.7842189 0.665543
vt 0.7826413 0.6657178
vt 0.7851594 0.6653435
vt 0.7842189 0.665543
vt 0.7844155 0.6653273
vt 0.7851839 0.6650698
vt 0.7838796 0.6650176
vt 0.7856262 0.6649813
vt 0.7858552 0.6650246
vt 0.7882584 0.6648629
vt 0.7855446 0.6649433
vt 0.7839837 0.664983
vt 0.7838796 0.6650176
vt 0.7813371 0.6649613
vt 0.7834016 0.6651165
vt 0.7836661 0.6653291
vt 0.7838796 0.6650176
vt 0.7844155 0.6653273
vt 0.7835016 0.6655701
vt 0.7826413 0.6657178
vt 0.7842189 0.665543
vt 0.7842189 0.665543
vt 0.7844155 0.6653273
vt 0.7998679 0.6645575
vt 0.1276545 0.505441
vt 0.1278881 0.5053322
vt 0.1276821 0.5053478
vt 0.1276604 0.5052096
vt 0.1281705 0.5052648
vt 0.1281902 0.5051654
vt 0.1278562 0.5051175
vt 0.1276604 0.5052096
vt 0.1272869 0.5051065
vt 0.126668 0.5050979
vt 0.1271526 0.5052225
vt 0.1275233 0.5053335
vt 0.1276821 0.5053478
vt 0.1276545 0.505441
vt 0.1624025 0.5055643
vt 0.1575988 0.5053504
vt 0.1575962 0.5057331
vt 0.1548157 0.5064085
vt 0.1519797 0.5065548
vt 0.1508883 0.5061383
vt 0.1545301 0.5053472
vt 0.1531329 0.504627
vt 0.1516285 0.5041331
vt 0.1497926 0.50414
vt 0.1475987 0.5036954
vt 0.1640067 0.5049115
vt 0.167891 0.5053731
vt 0.1679211 0.504746
vt 0.1726068 0.5041395
vt 0.1739607 0.5048738
vt 0.1734386 0.5058585
vt 0.1679593 0.5067565
vt 0.1653839 0.5058456
vt 0.1624025 0.5055643
vt 0.1575287 0.5046168
vt 0.1516285 0.5041331
vt 0.1541685 0.5040195
vt 0.1539079 0.5034873
vt 0.1513305 0.5030747
vt 0.1503247 0.5034165
vt 0.1477423 0.5034106
vt 0.1475987 0.5036954
vt 0.1453954 0.5031498
vt 0.1428623 0.5032603
vt 0.1404637 0.5034206
vt 0.1434812 0.5036236
vt 0.1445698 0.5037672
vt 0.1448708 0.5039328
vt 0.7736162 0.6650056
vt 0.773059 0.6649333
vt 0.7726855 0.6651275
vt 0.7732354 0.6651273
vt 0.7730796 0.6652956
vt 0.7741163 0.6649147
vt 0.773059 0.6649333
vt 0.7729774 0.664877
vt 0.7719341 0.6649097
vt 0.7721165 0.6649929
vt 0.7721441 0.6651315
vt 0.773059 0.6649333
vt 0.7726855 0.6651275
vt 0.7730796 0.6652956
vn -0.8416731 -0.1797874 0.5091787
vn -0.797649 -0.3199986 0.5112309
vn 0.3787942 -0.8842705 0.2730946
vn -0.3229935 -0.71241 0.6230146
vn -0.3878109 -0.8360745 0.3880491
vn -0.797649 -0.3199986 0.5112309
vn 0.2937737 -0.7241271 0.6239687
vn -0.650995 -0.6414154 0.4059455
vn 0.1068303 -0.5479665 0.8296505
vn 0.8129582 -0.4050881 0.418333
vn 0.04850724 -0.1751957 0.9833379
vn 0.7127226 -0.4105076 0.5687794
vn -0.7802538 -0.4668369 0.4162541
vn 0.8659272 -0.3551513 0.3521898
vn 0.85959 -0.1073192 0.4995874
vn 0.9401509 -0.06854448 0.3337932
vn 0.7881538 0.3392682 0.5135278
vn 0.8405217 0.3884294 0.3776851
vn 0.6047007 0.615414 0.5055717
vn 0.6280397 0.7024153 0.3349309
vn 0.6523825 0.5172324 0.5539565
vn -0.8867655 -0.3076121 0.3449952
vn -0.8416731 -0.1797874 0.5091787
vn -0.6274817 -0.7101499 0.3193018
vn -0.5459577 -0.6324458 0.549493
vn -0.1149073 -0.8939607 0.4331636
vn 0.03864985 -0.2658331 0.963244
vn 0.0006296218 -0.7233327 0.6904994
vn 0.4803822 -0.7603955 0.4370716
vn -0.06448914 0.01063171 0.9978618
vn -0.3828817 -0.6544367 0.6520077
vn 0.8028476 0.2867919 0.5226722
vn 0.7081742 0.1709109 0.6850392
vn 0.7298694 0.6425012 0.2334159
vn 0.9541843 0.1932485 0.2284457
vn -0.333933 -0.6735882 0.6593692
vn -0.8377962 -0.3813238 0.3907552
vn -0.8663755 -0.2171386 0.4497156
vn -0.7674531 -0.2012233 0.6087077
vn -0.8376961 0.1583151 0.522687
vn -0.7862023 0.1945344 0.5865511
vn -0.7372175 0.4429234 0.5102246
vn -0.7227902 0.3989789 0.5642607
vn -0.5700472 0.6891798 0.4473001
vn -0.5390952 0.6140742 0.5764455
vn -0.1110967 0.8859177 0.4503415
vn -0.039193 0.7688724 0.6381999
vn 0.2594568 0.7836242 0.5644603
vn 0.3519932 0.6181675 0.7028299
vn 0.3794975 0.6264893 0.6808031
vn 0.7081742 0.1709109 0.6850392
vn 0.3809362 0.426286 0.8204681
vn 0.4807967 -0.04381092 0.875737
vn 0.7766106 -0.5230959 0.351065
vn 0.7081742 0.1709109 0.6850392
vn 0.9541843 0.1932485 0.2284457
vn 0.8028476 0.2867919 0.5226722
vn -0.4880056 0.7068928 0.5120087
vn -0.3407004 0.08343016 0.9364628
vn -0.4102902 -0.07839569 0.9085792
vn -0.03784411 0.7903991 0.6114222
vn -0.3407004 0.08343016 0.9364628
vn -0.08484344 0.1435859 0.9859942
vn -0.2031196 0.6761059 0.7082538
vn 0.2815925 -0.02934669 0.9590852
vn 0.2710316 0.1550375 0.9500028
vn -0.8011476 0.3267991 0.5013632
vn 0.069892 0.2444507 0.9671396
vn 0.9371169 -0.1551461 0.3126362
vn 0.9646925 -0.04612442 0.2593085
vn 0.2815925 -0.02934669 0.9590852
vn 0.005762811 -0.38134 0.9244169
vn -0.3578802 -0.7251788 0.5882494
vn -0.09397993 -0.8224372 0.5610392
vn 0.2815925 -0.02934669 0.9590852
vn -0.08484344 0.1435859 0.9859942
vn 0.1814386 -0.7735286 0.6072344
vn -0.4102902 -0.07839569 0.9085792
vn -0.3407004 0.08343016 0.9364628
vn -0.3407004 0.08343016 0.9364628
vn -0.08484344 0.1435859 0.9859942
vn 0.6523825 0.5172324 0.5539565
vn -0.8739988 0.01233815 0.4857714
vn -0.4045651 0.8623598 0.3044052
vn -0.5963474 0.02308705 0.8023944
vn -0.04714447 -0.2131832 0.9758741
vn -0.2885361 0.853626 0.4336699
vn 0.3306057 0.8404298 0.429392
vn 0.8560384 0.3234808 0.4031852
vn -0.04714447 -0.2131832 0.9758741
vn 0.9116225 0.05946007 0.4067051
vn 0.1204273 -0.7448493 0.6562749
vn -0.5213614 -0.7747557 0.3576811
vn -0.3486118 -0.8983797 0.2671772
vn -0.5963474 0.02308705 0.8023944
vn -0.8739988 0.01233815 0.4857714
vn -0.7800788 -0.09532209 0.6183775
vn 0.02443213 -0.01543403 0.9995824
vn -0.6010667 0.5656056 0.5646318
vn -0.4244559 0.2359943 0.8741531
vn -0.2216707 -0.1565744 0.962469
vn -0.02369305 -0.3750823 0.9266887
vn 0.1600073 -0.6713765 0.7236375
vn -0.5239949 -0.7758953 0.3513061
vn -0.07703035 -0.008886194 0.9969892
vn -0.7198842 -0.4218101 0.5512193
vn 0.2516803 0.2407192 0.937396
vn 0.6066205 0.01666727 0.7948169
vn -0.0928091 0.07724107 0.9926834
vn 0.5109354 -0.354703 0.7830267
vn 0.22682 0.1636033 0.9600972
vn 0.04898978 0.4017387 0.914443
vn -0.1721158 0.3549619 0.9189005
vn -0.2787088 0.09606542 0.9555589
vn -0.5817987 -0.3465451 0.7358103
vn -0.7800788 -0.09532209 0.6183775
vn 0.4482448 0.4340343 0.7814671
vn -0.07703035 -0.008886194 0.9969892
vn 0.3006041 0.6678181 0.6809229
vn 0.284003 0.4631592 0.8395391
vn 0.3592425 0.122217 0.925207
vn 0.4090839 -0.3131163 0.857093
vn 0.6571528 0.3841593 0.6485151
vn 0.2516803 0.2407192 0.937396
vn 0.5996422 -0.01039294 0.8002009
vn 0.4747653 -0.2155001 0.8533214
vn 0.3059072 -0.2731205 0.9120449
vn -0.8118315 -0.3073542 0.4964505
vn -0.07213207 -0.600015 0.7967301
vn 0.1949971 -0.03734252 0.9800926
vn -0.3314352 0.7025528 0.6297383
vn 0.1521551 0.08401071 0.9847797
vn -0.2395321 -0.1474611 0.9596246
vn -0.2373306 0.7503056 0.6170215
vn -0.4881132 0.05825793 0.8708338
vn 0.252217 0.5916071 0.7657595
vn 0.1521551 0.08401071 0.9847797
vn 0.9054604 0.002810553 0.4244213
vn 0.3266442 -0.5427699 0.7737599
vn 0.009297638 -0.7131843 0.7009149
vn -0.1076057 -0.7413039 0.6624874
vn 0.1521551 0.08401071 0.9847797
vn -0.2395321 -0.1474611 0.9596246
vn -0.4881132 0.05825793 0.8708338
g fire13_mesh_0
f 3/3/3 2/2/2 1/1/1
f 5/5/5 4/4/4 3/3/3
f 4/4/4 6/6/6 3/3/3
f 7/7/7 4/4/4 5/5/5
f 8/8/8 7/7/7 5/5/5
f 9/9/9 7/7/7 8/8/8
f 10/10/10 7/7/7 9/9/9
f 7/7/7 11/11/11 4/4/4
f 4/4/4 11/11/11 6/6/6
f 12/12/12 11/11/11 7/7/7
f 12/12/12 7/7/7 10/10/10
f 6/6/6 11/11/11 13/13/13
f 14/14/14 12/12/12 10/10/10
f 15/15/15 12/12/12 14/14/14
f 15/15/15 11/11/11 12/12/12
f 16/16/16 15/15/15 14/14/14
f 17/17/17 15/15/15 16/16/16
f 17/17/17 11/11/11 15/15/15
f 18/18/18 17/17/17 16/16/16
f 19/19/19 17/17/17 18/18/18
f 19/19/19 11/11/11 17/17/17
f 20/20/20 19/19/19 18/18/18
f 21/21/21 19/19/19 20/20/20
f 21/21/21 11/11/11 19/19/19
f 6/6/6 13/13/13 22/22/22
f 23/23/23 6/6/6 22/22/22
f 22/22/22 13/13/13 24/24/24
f 13/13/13 25/25/25 24/24/24
f 13/13/13 11/11/11 25/25/25
f 24/24/24 25/25/25 26/26/26
f 11/11/11 27/27/27 25/25/25
f 27/27/27 11/11/11 21/21/21
f 25/25/25 28/28/28 26/26/26
f 25/25/25 27/27/27 28/28/28
f 26/26/26 28/28/28 29/29/29
f 27/27/27 21/21/21 30/30/30
f 27/27/27 30/30/30 28/28/28
f 28/28/28 31/31/31 29/29/29
f 28/28/28 30/30/30 31/31/31
f 32/32/32 30/30/30 21/21/21
f 33/33/33 30/30/30 32/32/32
f 32/32/32 21/21/21 34/34/34
f 35/35/35 32/32/32 34/34/34
f 29/29/29 31/31/31 36/36/36
f 36/36/36 31/31/31 37/37/37
f 37/37/37 31/31/31 38/38/38
f 31/31/31 39/39/39 38/38/38
f 31/31/31 30/30/30 39/39/39
f 38/38/38 39/39/39 40/40/40
f 39/39/39 41/41/41 40/40/40
f 39/39/39 30/30/30 41/41/41
f 40/40/40 41/41/41 42/42/42
f 41/41/41 43/43/43 42/42/42
f 41/41/41 30/30/30 43/43/43
f 42/42/42 43/43/43 44/44/44
f 43/43/43 45/45/45 44/44/44
f 43/43/43 30/30/30 45/45/45
f 44/44/44 45/45/45 46/46/46
f 45/45/45 47/47/47 46/46/46
f 45/45/45 30/30/30 47/47/47
f 46/46/46 47/47/47 48/48/48
f 47/47/47 30/30/30 49/49/49
f 47/47/47 49/49/49 48/48/48
f 48/48/48 49/49/49 50/50/50
f 49/49/49 30/30/30 33/33/33
f 49/49/49 51/51/51 50/50/50
f 50/50/50 51/51/51 52/52/52
f 52/52/52 33/33/33 53/53/53
f 53/53/53 55/55/55 54/54/54
f 54/54/54 33/33/33 56/56/56
f 33/33/33 57/57/57 56/56/56
f 60/60/60 59/59/59 58/58/58
f 58/58/58 62/62/62 61/61/61
f 62/62/62 63/63/63 61/61/61
f 61/61/61 63/63/63 64/64/64
f 63/63/63 65/65/65 64/64/64
f 67/67/67 64/64/64 66/66/66
f 67/67/67 66/66/66 68/68/68
f 69/69/69 68/68/68 66/66/66
f 69/69/69 66/66/66 70/70/70
f 64/64/64 71/71/71 66/66/66
f 66/66/66 71/71/71 70/70/70
f 70/70/70 71/71/71 72/72/72
f 72/72/72 71/71/71 73/73/73
f 73/73/73 75/75/75 74/74/74
f 75/75/75 76/76/76 74/74/74
f 74/74/74 76/76/76 77/77/77
f 77/77/77 79/79/79 78/78/78
f 81/81/81 80/80/80 77/77/77
f 34/34/34 82/82/82 20/20/20
f 85/85/85 84/84/84 83/83/83
f 86/86/86 84/84/84 85/85/85
f 87/87/87 84/84/84 86/86/86
f 87/87/87 86/86/86 88/88/88
f 89/89/89 88/88/88 86/86/86
f 91/91/91 89/89/89 90/90/90
f 92/92/92 91/91/91 90/90/90
f 93/93/93 92/92/92 90/90/90
f 93/93/93 90/90/90 94/94/94
f 90/90/90 95/95/95 94/94/94
f 94/94/94 95/95/95 96/96/96
f 99/99/99 98/98/98 97/97/97
f 99/99/99 100/100/100 98/98/98
f 100/100/100 101/101/101 98/98/98
f 101/101/101 102/102/102 98/98/98
f 98/98/98 102/102/102 103/103/103
f 98/98/98 103/103/103 104/104/104
f 105/105/105 98/98/98 104/104/104
f 106/106/106 105/105/105 104/104/104
f 106/106/106 107/107/107 105/105/105
f 109/109/109 98/98/98 108/108/108
f 110/110/110 109/109/109 108/108/108
f 111/111/111 109/109/109 110/110/110
f 112/112/112 109/109/109 111/111/111
f 113/113/113 109/109/109 112/112/112
f 114/114/114 109/109/109 113/113/113
f 109/109/109 114/114/114 115/115/115
f 98/98/98 109/109/109 115/115/115
f 116/116/116 98/98/98 115/115/115
f 108/108/108 98/98/98 117/117/117
f 98/98/98 118/118/118 117/117/117
f 118/118/118 119/119/119 117/117/117
f 119/119/119 118/118/118 120/120/120
f 120/120/120 118/118/118 121/121/121
f 121/121/121 118/118/118 122/122/122
f 118/118/118 123/123/123 122/122/122
f 124/124/124 123/123/123 118/118/118
f 123/123/123 124/124/124 125/125/125
f 125/125/125 124/124/124 126/126/126
f 126/126/126 124/124/124 127/127/127
f 127/127/127 124/124/124 128/128/128
f 124/124/124 129/129/129 128/128/128
f 107/107/107 130/130/130 129/129/129
f 106/106/106 130/130/130 124/124/124
f 133/133/133 132/132/132 131/131/131
f 134/134/134 133/133/133 131/131/131
f 134/134/134 135/135/135 133/133/133
f 131/131/131 137/137/137 136/136/136
f 136/136/136 137/137/137 138/138/138
f 138/138/138 137/137/137 139/139/139
f 139/139/139 137/137/137 140/140/140
f 140/140/140 142/142/142 141/141/141
f 142/142/142 143/143/143 141/141/141
f 144/144/144 141/141/141 143/143/143
