g flockBird01_mesh
v -0.5396995 0.6192902 0.3849273
v -0.9509466 0.1050405 0.00699413
v -0.5396995 0.6192899 -0.3709391
v -0.001419261 -0.2465003 0
v 3.469447E-16 -0.03913562 0.787722
v 0.2073647 -0.03771636 0
v -0.001419261 -0.2465003 0
v -0.2073647 -0.04055488 0
v 3.469447E-16 -0.03913562 0.787722
v 3.469447E-16 -0.03913562 -0.4524556
v -0.2073647 -0.04055488 0
v -0.001419261 -0.2465003 0
v 3.469447E-16 -0.03913562 -0.4524556
v -0.001419261 -0.2465003 0
v 0.2073647 -0.03771636 0
v -0.3156838 -0.03856753 1.312284
v -2.46519E-32 -0.03913562 0.680917
v 0.3156838 -0.03856753 1.312284
v 0.1519809 -0.03913562 0.006994132
v 0.5396613 0.6193274 -0.3709391
v 0.5396613 0.6193275 0.3849273
v -0.5400243 0.6175469 -0.3709391
v -0.9482579 0.1023248 0.006994134
v -0.5400243 0.6175469 0.3849273
v 0.5399862 0.6175844 0.3849273
v 0.9482197 0.1023626 0.00699413
v 0.5399862 0.6175842 -0.3709391
v -0.3156838 -0.03970372 1.312284
v 0.3156838 -0.03970372 1.312284
v -2.46519E-32 -0.04027182 0.680917
v 0.5396613 0.6193274 -0.3709391
v 0.9509086 0.1050778 0.006994134
v 0.5396613 0.6193275 0.3849273
v 0.1519809 -0.04295698 0.006994132
v 0.5399862 0.6175844 0.3849273
v 0.5399862 0.6175842 -0.3709391
v -0.1520344 -0.04295698 0.006994132
v -0.5400243 0.6175469 -0.3709391
v -0.5400243 0.6175469 0.3849273
v -0.1520344 -0.03913539 0.006994132
v -0.5396995 0.6192902 0.3849273
v -0.5396995 0.6192899 -0.3709391
v 3.469447E-16 -0.03913562 0.787722
v -0.2073647 -0.04055488 0
v 0.001419261 0.1682291 0
v 3.469447E-16 -0.03913562 -0.4524556
v 3.469447E-16 -0.03913562 0.787722
v 0.001419261 0.1682291 0
v 0.2073647 -0.03771636 0
v 3.469447E-16 -0.03913562 -0.4524556
vt 0.5784305 0.3750316
vt 0.5808499 0.3737909
vt 0.5784954 0.3724697
vt 0.5625119 0.3380278
vt 0.5732539 0.3381158
vt 0.5727859 0.3403627
vt 0.5625119 0.3380278
vt 0.57278 0.336048
vt 0.5732539 0.3381158
vt 0.5725325 0.3382611
vt 0.57278 0.336048
vt 0.5625119 0.3380278
vt 0.5725325 0.3382611
vt 0.5625119 0.3380278
vt 0.5727859 0.3403627
vt 0.5783799 0.3767257
vt 0.566124 0.3777151
vt 0.5783941 0.3786965
vt 0.5680191 0.3736628
vt 0.578149 0.3748081
vt 0.578131 0.3725047
vt 0.5718191 0.3352307
vt 0.5728746 0.336552
vt 0.5717901 0.3377926
vt 0.5716558 0.3352657
vt 0.5728966 0.3364138
vt 0.5716639 0.3375691
vt 0.5712951 0.3394867
vt 0.5713048 0.3414575
vt 0.5628608 0.3404761
vt 0.578149 0.3748081
vt 0.5808989 0.3736528
vt 0.578131 0.3725047
vt 0.5627611 0.3364238
vt 0.5716558 0.3352657
vt 0.5716639 0.3375691
vt 0.562794 0.3364412
vt 0.5718191 0.3352307
vt 0.5717901 0.3377926
vt 0.5680926 0.3736802
vt 0.5784305 0.3750316
vt 0.5784954 0.3724697
vt 0.5755155 0.3702655
vt 0.5759432 0.3694234
vt 0.576422 0.3704131
vt 0.5767838 0.3701419
vt 0.5755155 0.3702655
vt 0.576422 0.3704131
vt 0.576444 0.3705652
vt 0.5767838 0.3701419
vn -0.7809817 0.6245539 0
vn -0.7809817 0.6245539 0
vn -0.7809817 0.6245539 0
vn 0.7070687 -0.7070687 0.0103789
vn 0.6953247 -0.6953247 0.1817886
vn 0.7070687 -0.7070687 0.0103789
vn -0.7070689 -0.7070689 0.01034608
vn -0.7070689 -0.7070689 0.01034608
vn -0.695006 -0.695006 0.1842098
vn -0.6722269 -0.6722269 -0.3101965
vn -0.7070689 -0.7070689 0.01034608
vn -0.7070689 -0.7070689 0.01034608
vn 0.6731021 -0.6731021 -0.3063776
vn 0.7070687 -0.7070687 0.0103789
vn 0.7070687 -0.7070687 0.0103789
vn 0 0.9999996 -0.0008997794
vn 0 0.9999996 -0.0008997794
vn 0 0.9999996 -0.0008997794
vn -0.8617344 0.5073596 0
vn -0.8617344 0.5073596 0
vn -0.8617344 0.5073595 0
vn 0.7837871 -0.6210297 0
vn 0.7837871 -0.6210297 0
vn 0.7837871 -0.6210297 0
vn -0.7837868 -0.6210299 0
vn -0.7837868 -0.6210299 0
vn -0.7837868 -0.6210299 0
vn 0 -0.9999996 0.0008997981
vn 0 -0.9999996 0.0008997981
vn 0 -0.9999996 0.0008997982
vn 0.7809817 0.6245539 0
vn 0.7809817 0.624554 0
vn 0.7809817 0.6245539 0
vn 0.8622468 -0.5064882 0
vn 0.8622469 -0.5064882 0
vn 0.8622469 -0.5064882 0
vn -0.8622431 -0.5064946 0
vn -0.8622431 -0.5064946 0
vn -0.8622431 -0.5064946 0
vn 0.8617305 0.5073661 0
vn 0.8617306 0.5073662 0
vn 0.8617305 0.5073661 0
vn -0.6953247 0.6953247 0.1817887
vn -0.7070687 0.7070687 0.01037889
vn -0.7070687 0.7070687 0.01037889
vn -0.673102 0.673102 -0.3063777
vn 0.695006 0.695006 0.1842098
vn 0.7070689 0.7070689 0.01034608
vn 0.7070689 0.7070689 0.01034608
vn 0.6722269 0.6722269 -0.3101965
g flockBird01_mesh_0
f 3/3/3 2/2/2 1/1/1
f 6/6/6 5/5/5 4/4/4
f 9/9/9 8/8/8 7/7/7
f 12/12/12 11/11/11 10/10/10
f 15/15/15 14/14/14 13/13/13
f 18/18/18 17/17/17 16/16/16
f 21/21/21 20/20/20 19/19/19
f 24/24/24 23/23/23 22/22/22
f 27/27/27 26/26/26 25/25/25
f 30/30/30 29/29/29 28/28/28
f 33/33/33 32/32/32 31/31/31
f 36/36/36 35/35/35 34/34/34
f 39/39/39 38/38/38 37/37/37
f 42/42/42 41/41/41 40/40/40
f 45/45/45 44/44/44 43/43/43
f 45/45/45 46/46/46 44/44/44
f 49/49/49 48/48/48 47/47/47
f 49/49/49 50/50/50 48/48/48
