g FX_jumpPad_03_beam_mesh
v -5.611276 1.018163 0.6027875
v -5.611276 0.1607208 0.6097445
v -5.623554 0.1608613 -0.6987898
v -5.606549 0.9061736 -0.6893128
v -5.512553 0.1608613 -0.8181635
v -5.495549 0.9061736 -0.8086865
v 0.5401317 0.1608613 -0.8135856
v 0.5406168 0.9061736 -0.8132644
v 0.6790521 0.9055306 -0.6756118
v 0.6794693 0.1608613 -0.6761359
v 0.6626788 1.017517 0.6089789
v 0.6720811 0.1607183 0.6193368
v -5.611276 0.1607208 0.6097426
v -5.606549 0.9061736 -0.6893147
v -5.623554 0.1608613 -0.6987917
v -5.611276 1.018163 0.6027856
v -5.470531 0.1607208 0.7362798
v -5.470531 1.022998 0.7274697
v 0.5748515 0.1607208 0.7356837
v 0.5748515 1.022822 0.7268798
v 0.682898 0.1607183 0.6148049
v 0.6626787 1.017517 0.608977
v 0.6787568 0.9055306 -0.6756119
v 0.6794693 0.1608613 -0.676136
vt 0.4647962 0.9853098
vt 0.4647961 0.3070358
vt 0.4556624 0.3070358
vt 0.4556623 0.9853098
vt 0.4538954 0.3070358
vt 0.4538953 0.9853099
vt 0.3849186 0.3070357
vt 0.3849185 0.98531
vt 0.3832704 0.9853099
vt 0.3832704 0.3070288
vt 0.3741366 0.98531
vt 0.3741365 0.3070219
vt 0.3832704 0.3070289
vt 0.3740238 0.9853098
vt 0.3740239 0.3070358
vt 0.3832704 0.9853099
vt 0.3850375 0.3070222
vt 0.3850374 0.9853099
vt 0.4540142 0.3070221
vt 0.4540142 0.98531
vt 0.4556623 0.3070219
vt 0.4556623 0.9853098
vt 0.464909 0.9853097
vt 0.4649089 0.3070219
vn -0.9999534 0.006721002 0.006943002
vn -0.9999534 0.006721002 0.006943002
vn -0.9999534 0.006721002 0.006943002
vn -0.9999534 0.006721002 0.006943002
vn -0.01974604 0.00713512 -0.9997796
vn -0.01904237 0.007115136 -0.9997934
vn 0.02221064 0.006435816 -0.9997326
vn 0.02220426 0.006435855 -0.9997327
vn 0.9999429 0.01041 0.00242
vn 0.9999429 0.01041 0.00242
vn 0.9999429 0.01041 0.00242
vn 0.9999429 0.01041 0.00242
vn 0.9999746 -0.006651996 -0.002550999
vn 0.9999746 -0.006651996 -0.002550999
vn 0.9999746 -0.006651996 -0.002550999
vn 0.9999746 -0.006651996 -0.002550999
vn 0.744081 -0.003925999 -0.6680779
vn 0.744081 -0.003925999 -0.6680779
vn 0.002037999 -0.006528998 -0.9999766
vn 0.002037999 -0.006528998 -0.9999766
vn -0.9257782 -0.008946001 -0.377961
vn -0.9257782 -0.008946001 -0.377961
vn -0.9998482 -0.013907 0.010491
vn -0.9998482 -0.013907 0.010491
g FX_jumpPad_03_beam_mesh_0
f 3/3/3 2/2/2 1/1/1
f 4/4/4 3/3/3 1/1/1
f 5/5/5 3/3/3 4/4/4
f 6/6/6 5/5/5 4/4/4
f 7/7/7 5/5/5 6/6/6
f 8/8/8 7/7/7 6/6/6
f 7/7/7 8/8/8 9/9/9
f 10/10/10 7/7/7 9/9/9
f 10/10/10 9/9/9 11/11/11
f 12/12/12 10/10/10 11/11/11
f 15/15/15 14/14/14 13/13/13
f 14/14/14 16/16/16 13/13/13
f 13/13/13 16/16/16 17/17/17
f 16/16/16 18/18/18 17/17/17
f 17/17/17 18/18/18 19/19/19
f 18/18/18 20/20/20 19/19/19
f 19/19/19 20/20/20 21/21/21
f 20/20/20 22/22/22 21/21/21
f 21/21/21 22/22/22 23/23/23
f 24/24/24 21/21/21 23/23/23
