g hammer_lightning_001_blade
v 0.1289367 -0.2915137 1.157032
v 0.1289367 -0.2915137 1.49327
v 0.1289367 -0.04458289 1.49327
v 0.1289367 -0.04458289 1.157032
v 0.1289367 -0.2915137 1.49327
v -0.2091969 -0.2915137 1.49327
v -0.2000472 -0.04458289 1.49327
v 0.1289367 -0.04458289 1.49327
v -0.2091969 -0.2915137 1.49327
v -0.2091969 -0.2915137 1.157032
v -0.2000472 -0.04458289 1.157032
v -0.2000472 -0.04458289 1.49327
v 0.1289367 -0.04458289 1.157032
v 0.1289367 -0.04458289 1.49327
v -0.2000472 -0.04458289 1.49327
v -0.2000472 -0.04458289 1.157032
v -0.2091969 -0.2915137 1.157032
v -0.2091969 -0.2915137 1.49327
v 0.1289367 -0.2915137 1.49327
v 0.1289367 -0.2915137 1.157032
v 0.5129191 -0.2666923 0.8495091
v 0.5129704 -0.2666923 1.102918
v 0.5129704 -0.01817932 1.102918
v 0.5129192 -0.01817932 0.8495091
v 0.5129704 -0.2666923 1.102918
v 0.2309984 -0.2666923 1.089129
v 0.2309983 -0.01817932 1.089129
v 0.5129704 -0.01817932 1.102918
v 0.2330095 -0.2666923 0.856343
v 0.5129191 -0.2666923 0.8495091
v 0.5129192 -0.01817932 0.8495091
v 0.2330094 -0.01817932 0.856343
v 0.5129192 -0.01817932 0.8495091
v 0.5129704 -0.01817932 1.102918
v 0.2309983 -0.01817932 1.089129
v 0.2330094 -0.01817932 0.856343
v 0.2330095 -0.2666923 0.856343
v 0.2309984 -0.2666923 1.089129
v 0.5129704 -0.2666923 1.102918
v 0.5129191 -0.2666923 0.8495091
v -0.250597 -0.3075004 0.777855
v -0.250597 -0.3114698 1.048249
v -0.250597 -0.02408586 1.048249
v -0.250597 -0.02408586 0.777855
v -0.250597 -0.3114698 1.048249
v -0.4936293 -0.3114698 1.048249
v -0.4936293 -0.02408586 1.048249
v -0.250597 -0.02408586 1.048249
v -0.4936293 -0.3114698 1.048249
v -0.5025054 -0.3075004 0.777855
v -0.5025054 -0.02408586 0.777855
v -0.4936293 -0.02408586 1.048249
v -0.5025054 -0.3075004 0.777855
v -0.250597 -0.02408586 0.777855
v -0.250597 -0.3075004 0.777855
v -0.250597 -0.02408586 0.777855
v -0.250597 -0.02408586 1.048249
v -0.4936293 -0.02408586 1.048249
v -0.5025054 -0.02408586 0.777855
v -0.5025054 -0.3075004 0.777855
v -0.4936293 -0.3114698 1.048249
v -0.250597 -0.3114698 1.048249
v -0.250597 -0.3075004 0.777855
v 0.5602416 -0.3123325 1.129697
v 0.5519468 -0.3123325 1.394099
v 0.5519468 -0.06601855 1.394099
v 0.5602416 -0.06601749 1.129697
v 0.5519468 -0.3123325 1.394099
v 0.2937009 -0.3123325 1.394164
v 0.2937009 -0.06601749 1.394164
v 0.5519468 -0.06601855 1.394099
v 0.2937009 -0.3123325 1.394164
v 0.2937009 -0.3123325 1.139271
v 0.2937009 -0.06601855 1.139271
v 0.2937009 -0.06601749 1.394164
v 0.2937009 -0.3123325 1.139271
v 0.5602416 -0.3123325 1.129697
v 0.5602416 -0.06601749 1.129697
v 0.2937009 -0.06601855 1.139271
v 0.5519468 -0.06601855 1.394099
v 0.2937009 -0.06601749 1.394164
v 0.2937009 -0.06601855 1.139271
v 0.2937009 -0.3123325 1.139271
v 0.2937009 -0.3123325 1.394164
v 0.5519468 -0.3123325 1.394099
v 0.5602416 -0.3123325 1.129697
v -0.3034075 -0.2729388 1.144043
v -0.3034075 -0.2729388 1.406464
v -0.3034074 -0.003931993 1.406464
v -0.3034074 -0.003931993 1.144043
v -0.3034075 -0.2729388 1.406464
v -0.5602414 -0.2729388 1.406464
v -0.5602414 -0.003931993 1.406464
v -0.3034074 -0.003931993 1.406464
v -0.5602414 -0.2729388 1.406464
v -0.5602414 -0.2729388 1.144043
v -0.5602414 -0.003931993 1.144043
v -0.5602414 -0.003931993 1.406464
v -0.5602414 -0.2729388 1.144043
v -0.3034075 -0.2729388 1.144043
v -0.3034074 -0.003931993 1.144043
v -0.5602414 -0.003931993 1.144043
v -0.3034074 -0.003931993 1.144043
v -0.3034074 -0.003931993 1.406464
v -0.5602414 -0.003931993 1.406464
v -0.5602414 -0.003931993 1.144043
v -0.5602414 -0.2729388 1.144043
v -0.5602414 -0.2729388 1.406464
v -0.3034075 -0.2729388 1.406464
v -0.3034075 -0.2729388 1.144043
v -0.05741626 0.3388858 1.111881
v -0.03934625 0.3388858 1.44812
v -0.03934625 0.007918507 1.44812
v -0.05741612 0.007918507 1.111881
v -0.03934625 0.3388858 1.44812
v 0.3139822 0.3388858 1.44812
v 0.3139822 0.007918507 1.44812
v -0.03934625 0.007918507 1.44812
v 0.3139822 0.3388858 1.44812
v 0.3139822 0.3388858 1.111881
v 0.3139822 0.007918507 1.111881
v 0.3139822 0.007918507 1.44812
v -0.05741612 0.007918507 1.111881
v 0.3139822 0.007918507 1.44812
v -0.03934625 0.007918507 1.44812
v 0.3139822 0.3388858 1.111881
v -0.05741626 0.3388858 1.111881
v 0.3139822 0.007918507 1.111881
v 0.3139822 0.3388858 1.111881
v 0.3139822 0.3388858 1.44812
v -0.03934625 0.3388858 1.44812
v -0.05741626 0.3388858 1.111881
v -0.457326 0.2607078 0.8721084
v -0.4629439 0.2669468 1.11393
v -0.4629439 0.01843482 1.11393
v -0.457326 0.01843482 0.8721084
v -0.4629439 0.2669468 1.11393
v -0.2237137 0.2669468 1.11393
v -0.2237137 0.01843482 1.11393
v -0.4629439 0.01843482 1.11393
v -0.457326 0.01843482 0.8721084
v -0.2237137 0.01843482 1.11393
v -0.2237137 0.01843482 0.8721084
v -0.2237137 0.2607078 0.8721084
v -0.457326 0.2607078 0.8721084
v -0.457326 0.01843482 0.8721084
v -0.2237137 0.01843482 0.8721084
v -0.2237137 0.2607078 0.8721084
v -0.2237137 0.2669468 1.11393
v -0.4629439 0.2669468 1.11393
v -0.457326 0.2607078 0.8721084
v 0.2828373 0.3114698 0.8114094
v 0.2828373 0.3114698 1.083684
v 0.2828373 0.02408586 1.083684
v 0.2828373 0.02408586 0.8114094
v 0.2828373 0.02408586 1.083684
v 0.5532311 0.02408586 1.081804
v 0.5532311 0.02408586 0.8114101
v 0.2828373 0.3114698 1.083684
v 0.5532311 0.3114698 1.081804
v 0.5532311 0.02408586 1.081804
v 0.2828373 0.02408586 1.083684
v 0.5532311 0.3114698 1.081804
v 0.5532311 0.3114698 0.8114101
v 0.5532311 0.02408586 0.8114101
v 0.5532311 0.02408586 1.081804
v 0.5532311 0.3114698 0.8114101
v 0.2828373 0.02408586 0.8114094
v 0.2828373 0.3114698 0.8114094
v 0.5532311 0.3114698 0.8114101
v 0.5532311 0.3114698 1.081804
v 0.2828373 0.3114698 1.083684
v 0.2828373 0.3114698 0.8114094
v -0.5239191 0.2839416 1.148186
v -0.5239191 0.2839416 1.439053
v -0.5239191 0.01310343 1.439053
v -0.5239191 0.0131045 1.148186
v -0.5239191 0.2839416 1.439053
v -0.1716699 0.2839416 1.439053
v -0.1716699 0.01310343 1.439053
v -0.5239191 0.01310343 1.439053
v -0.1716699 0.2839416 1.439053
v -0.1716699 0.2839416 1.148186
v -0.1716699 0.0131045 1.148186
v -0.1716699 0.01310343 1.439053
v -0.1716699 0.2839416 1.148186
v -0.5239191 0.2839416 1.148186
v -0.5239191 0.0131045 1.148186
v -0.1716699 0.0131045 1.148186
v -0.5239191 0.01310343 1.439053
v -0.1716699 0.01310343 1.439053
v -0.1716699 0.0131045 1.148186
v -0.1716699 0.2839416 1.148186
v -0.1716699 0.2839416 1.439053
v -0.5239191 0.2839416 1.439053
v -0.5239191 0.2839416 1.148186
v 0.3416302 0.2590849 1.153227
v 0.3416302 0.2590849 1.380569
v 0.3416302 0.02044358 1.380569
v 0.3416302 0.02044358 1.153227
v 0.5231501 0.2590849 1.153227
v 0.3416302 0.02044358 1.153227
v 0.5231501 0.02044358 1.153227
v 0.3416302 0.2590849 1.380569
v 0.5231501 0.02044358 1.380569
v 0.3416302 0.02044358 1.380569
v 0.5231501 0.2590849 1.380569
v 0.5231501 0.02044358 1.153227
v 0.5231501 0.2590849 1.153227
v 0.3416302 0.02044358 1.153227
v 0.3416302 0.02044358 1.380569
v 0.5231501 0.02044358 1.380569
v 0.5231501 0.02044358 1.153227
v 0.5231501 0.2590849 1.153227
v 0.5231501 0.2590849 1.380569
v 0.3416302 0.2590849 1.380569
v 0.3416302 0.2590849 1.153227
vt 0.1962549 0.1585893
vt 0.1867584 0.1585893
vt 0.1867584 0.1576329
vt 0.1962549 0.1576329
vt 0.2403334 0.1965656
vt 0.2403334 0.1983561
vt 0.2537069 0.1983561
vt 0.2537069 0.1965656
vt 0.1931257 0.1578353
vt 0.1870784 0.1578353
vt 0.1870784 0.1572654
vt 0.1931257 0.1572654
vt 0.1931079 0.1573932
vt 0.1931079 0.158022
vt 0.1960698 0.158022
vt 0.1960698 0.1573932
vt 0.2276218 0.1966171
vt 0.2509784 0.1966171
vt 0.2509784 0.1979781
vt 0.2276218 0.1979781
vt 0.252365 0.1945975
vt 0.2415836 0.1945975
vt 0.2415836 0.1963553
vt 0.252365 0.1963553
vt 0.2465451 0.1994094
vt 0.2465451 0.1987488
vt 0.2402068 0.1987488
vt 0.2402068 0.1994094
vt 0.2455702 0.1971315
vt 0.2455702 0.1974425
vt 0.2507417 0.1974425
vt 0.2507417 0.1971315
vt 0.1965295 0.1579479
vt 0.1965295 0.1573351
vt 0.1929392 0.1573351
vt 0.1929392 0.1579479
vt 0.2396635 0.1970476
vt 0.2396635 0.1941828
vt 0.2523733 0.1941828
vt 0.2523735 0.1970476
vt 0.2310584 0.1995249
vt 0.2310584 0.1986385
vt 0.2241865 0.1986385
vt 0.2241865 0.1995249
vt 0.1950063 0.1578811
vt 0.1893114 0.1578763
vt 0.1893414 0.1569466
vt 0.1950363 0.1569514
vt 0.2448642 0.1927591
vt 0.2529728 0.1927591
vt 0.2529728 0.1944333
vt 0.2448642 0.1944333
vt 0.2477087 0.1946517
vt 0.2527696 0.1948182
vt 0.2477087 0.1948182
vt 0.1885829 0.1573071
vt 0.1932823 0.1573071
vt 0.1932823 0.1579573
vt 0.1885829 0.1579573
vt 0.2536202 0.194493
vt 0.2536201 0.1928514
vt 0.2398354 0.1928514
vt 0.2398355 0.194493
vt 0.2499315 0.1942349
vt 0.2415329 0.1942349
vt 0.2415329 0.1927877
vt 0.2499315 0.1927877
vt 0.2398531 0.192745
vt 0.2398531 0.1941591
vt 0.2495271 0.1941591
vt 0.2495271 0.192745
vt 0.1864469 0.1522067
vt 0.1990146 0.1522067
vt 0.1990145 0.1535151
vt 0.1864469 0.1535151
vt 0.1892565 0.1578694
vt 0.1926586 0.1578694
vt 0.1926586 0.1573988
vt 0.1892565 0.1573988
vt 0.1968501 0.1580598
vt 0.1968501 0.1573917
vt 0.1929356 0.1573917
vt 0.2369094 0.196949
vt 0.2369094 0.1949496
vt 0.2516135 0.1949496
vt 0.2516135 0.196949
vt 0.1961236 0.157753
vt 0.1908925 0.157753
vt 0.1908925 0.1569742
vt 0.1961236 0.1569742
vt 0.2529038 0.1945862
vt 0.2403181 0.1945862
vt 0.2403181 0.1964461
vt 0.2529038 0.1964461
vt 0.2414393 0.1946621
vt 0.2509383 0.1946621
vt 0.2509383 0.1964693
vt 0.2414393 0.1964693
vt 0.1861039 0.1570493
vt 0.1934103 0.1570493
vt 0.1934103 0.1580691
vt 0.1861039 0.1580691
vt 0.1885218 0.1572044
vt 0.1885218 0.157805
vt 0.1921061 0.157805
vt 0.1921061 0.1572044
vt 0.2523404 0.1966743
vt 0.2523401 0.1944926
vt 0.2395964 0.1944926
vt 0.2395964 0.1966744
vt 0.1919197 0.1580148
vt 0.1970978 0.1580148
vt 0.1970978 0.1573108
vt 0.1919197 0.1573108
vt 0.2403334 0.1965656
vt 0.2403334 0.1983561
vt 0.2537069 0.1983561
vt 0.2537069 0.1965656
vt 0.1970055 0.1580791
vt 0.1921061 0.1580791
vt 0.1921061 0.1573936
vt 0.1970055 0.1573936
vt 0.1879359 0.1571896
vt 0.1924051 0.1580156
vt 0.1877532 0.1580156
vt 0.1933584 0.1575751
vt 0.1933584 0.1571896
vt 0.1879359 0.1575751
vt 0.2361815 0.1966171
vt 0.2467571 0.1966171
vt 0.246757 0.1983894
vt 0.2361815 0.1983894
vt 0.252365 0.1946024
vt 0.2415836 0.1946024
vt 0.2415836 0.1963553
vt 0.252365 0.1963553
vt 0.1969402 0.157892
vt 0.1969402 0.1573762
vt 0.1939176 0.1573762
vt 0.1939176 0.157892
vt 0.1947201 0.1566623
vt 0.1985382 0.157314
vt 0.1985382 0.1566623
vt 0.2455702 0.1971315
vt 0.2455702 0.1974425
vt 0.2507417 0.1974425
vt 0.2507417 0.1971315
vt 0.2402378 0.1970101
vt 0.2402376 0.1944318
vt 0.2532275 0.1944318
vt 0.2532275 0.1970101
vt 0.1931418 0.1579784
vt 0.1931418 0.1572298
vt 0.1873382 0.1572298
vt 0.1873382 0.1579784
vt 0.1926671 0.1578863
vt 0.1926671 0.1572361
vt 0.1879676 0.1572361
vt 0.2411318 0.1996455
vt 0.2477807 0.1996407
vt 0.2477457 0.1987111
vt 0.2410967 0.1987159
vt 0.2418555 0.1927591
vt 0.2529728 0.1927591
vt 0.2529728 0.1944333
vt 0.2418555 0.1944333
vt 0.2477087 0.1946517
vt 0.2527696 0.1948182
vt 0.2477087 0.1948182
vt 0.2502598 0.1963445
vt 0.2502598 0.1943939
vt 0.2401415 0.1943939
vt 0.2401415 0.1963445
vt 0.2521478 0.1942611
vt 0.2413906 0.1942611
vt 0.2413906 0.1927949
vt 0.2521478 0.1927949
vt 0.2398531 0.192745
vt 0.2398531 0.194409
vt 0.2533733 0.194409
vt 0.2533733 0.192745
vt 0.1864469 0.1522067
vt 0.1990146 0.1522067
vt 0.1990145 0.1535151
vt 0.1864469 0.1535151
vt 0.1941036 0.1578694
vt 0.1861462 0.1578694
vt 0.1861462 0.1573988
vt 0.1941036 0.1573988
vt 0.193981 0.1579282
vt 0.193981 0.1573688
vt 0.1869794 0.1573688
vt 0.2398101 0.1947501
vt 0.2398098 0.1927838
vt 0.2540174 0.1927838
vt 0.2540177 0.1947501
vt 0.1922732 0.1579721
vt 0.1966911 0.1579721
vt 0.1966911 0.1573144
vt 0.1922732 0.1573144
vt 0.1923003 0.157787
vt 0.1867896 0.1571967
vt 0.1867896 0.157787
vt 0.2529038 0.1945862
vt 0.2403181 0.1964461
vt 0.2529038 0.1964461
vt 0.2403181 0.1945862
vt 0.2502081 0.1964693
vt 0.2502081 0.1946621
vt 0.1883578 0.1570778
vt 0.1883578 0.1577518
vt 0.191942 0.1577518
vt 0.191942 0.1570778
vt 0.2509395 0.1968789
vt 0.2509396 0.194288
vt 0.2395804 0.194288
vt 0.2395803 0.1968789
vn 0.589757 -0.8075808 0
vn 0.5090371 -0.6970474 0.5049814
vn 0.5157703 0.6871565 0.5116609
vn 0.6003001 0.7997748 0
vn 0.5090371 -0.6970474 0.5049814
vn -0.5189456 -0.6913868 0.5026726
vn -0.5059683 0.6928453 0.5137718
vn 0.5157703 0.6871565 0.5116609
vn -0.5189456 -0.6913868 0.5026726
vn -0.6003001 -0.7997748 0
vn -0.589757 0.8075808 0
vn -0.5059683 0.6928453 0.5137718
vn 0.6003001 0.7997748 0
vn 0.5157703 0.6871565 0.5116609
vn -0.5059683 0.6928453 0.5137718
vn -0.589757 0.8075808 0
vn -0.6003001 -0.7997748 0
vn -0.5189456 -0.6913868 0.5026726
vn 0.5090371 -0.6970474 0.5049814
vn 0.589757 -0.8075808 0
vn 0.5350218 -0.5871453 -0.6074636
vn 0.5256736 -0.5840889 0.618472
vn 0.5256734 0.5840892 0.6184718
vn 0.5350218 0.5871455 -0.6074635
vn 0.5256736 -0.5840889 0.618472
vn -0.03456379 -0.706556 0.7068125
vn -0.03456377 0.7065564 0.7068121
vn 0.5256734 0.5840892 0.6184718
vn -0.01723965 -0.7078904 -0.7061118
vn 0.5350218 -0.5871453 -0.6074636
vn 0.5350218 0.5871455 -0.6074635
vn -0.01723965 0.7078907 -0.7061115
vn 0.5350218 0.5871455 -0.6074635
vn 0.5256734 0.5840892 0.6184718
vn -0.03456377 0.7065564 0.7068121
vn -0.01723965 0.7078907 -0.7061115
vn -0.01723965 -0.7078904 -0.7061118
vn -0.03456379 -0.706556 0.7068125
vn 0.5256736 -0.5840889 0.618472
vn 0.5350218 -0.5871453 -0.6074636
vn 0.6200041 -0.5326297 -0.576108
vn 0.6228794 -0.5451951 0.5610557
vn 0.6236622 0.540779 0.5644498
vn 0.6192482 0.5369516 -0.5729002
vn 0.6228794 -0.5451951 0.5610557
vn -0.6120479 -0.5469015 0.5712234
vn -0.612767 0.5424315 0.574704
vn 0.6236622 0.540779 0.5644498
vn -0.6120479 -0.5469015 0.5712234
vn -0.631128 -0.5308632 -0.5655631
vn -0.6303124 0.5351277 -0.5624453
vn -0.612767 0.5424315 0.574704
vn -0.631128 -0.5308632 -0.5655631
vn 0.6192482 0.5369516 -0.5729002
vn 0.6200041 -0.5326297 -0.576108
vn 0.6192482 0.5369516 -0.5729002
vn 0.6236622 0.540779 0.5644498
vn -0.612767 0.5424315 0.574704
vn -0.6303124 0.5351277 -0.5624453
vn -0.631128 -0.5308632 -0.5655631
vn -0.6120479 -0.5469015 0.5712234
vn 0.6228794 -0.5451951 0.5610557
vn 0.6200041 -0.5326297 -0.576108
vn 0.5674334 -0.5893585 -0.5750443
vn 0.563135 -0.600639 0.5675489
vn 0.5631354 0.600638 0.5675495
vn 0.5674328 0.5893595 -0.5750439
vn 0.563135 -0.600639 0.5675489
vn -0.5586601 -0.6061095 0.5661538
vn -0.5586596 0.6061104 0.5661533
vn 0.5631354 0.600638 0.5675495
vn -0.5586601 -0.6061095 0.5661538
vn -0.5625906 -0.6016662 -0.5670005
vn -0.5625911 0.6016651 -0.567001
vn -0.5586596 0.6061104 0.5661533
vn -0.5625906 -0.6016662 -0.5670005
vn 0.5674334 -0.5893585 -0.5750443
vn 0.5674328 0.5893595 -0.5750439
vn -0.5625911 0.6016651 -0.567001
vn 0.5631354 0.600638 0.5675495
vn -0.5586596 0.6061104 0.5661533
vn -0.5625911 0.6016651 -0.567001
vn -0.5625906 -0.6016662 -0.5670005
vn -0.5586601 -0.6061095 0.5661538
vn 0.563135 -0.600639 0.5675489
vn 0.5674334 -0.5893585 -0.5750443
vn 0.5903407 -0.5636272 -0.5777736
vn 0.5903407 -0.5636272 0.5777736
vn 0.5903409 0.5636271 0.5777735
vn 0.5903409 0.5636271 -0.5777735
vn 0.5903407 -0.5636272 0.5777736
vn -0.5903409 -0.5636271 0.5777736
vn -0.5903407 0.5636272 0.5777735
vn 0.5903409 0.5636271 0.5777735
vn -0.5903409 -0.5636271 0.5777736
vn -0.5903409 -0.5636271 -0.5777736
vn -0.5903407 0.5636272 -0.5777735
vn -0.5903407 0.5636272 0.5777735
vn -0.5903409 -0.5636271 -0.5777736
vn 0.5903407 -0.5636272 -0.5777736
vn 0.5903409 0.5636271 -0.5777735
vn -0.5903407 0.5636272 -0.5777735
vn 0.5903409 0.5636271 -0.5777735
vn 0.5903409 0.5636271 0.5777735
vn -0.5903407 0.5636272 0.5777735
vn -0.5903407 0.5636272 -0.5777735
vn -0.5903409 -0.5636271 -0.5777736
vn -0.5903409 -0.5636271 0.5777736
vn 0.5903407 -0.5636272 0.5777736
vn 0.5903407 -0.5636272 -0.5777736
vn -0.5570695 0.5890674 -0.585383
vn -0.5343594 0.6050467 0.5902359
vn -0.5343595 -0.6050467 0.5902359
vn -0.5570694 -0.5890674 -0.5853831
vn -0.5343594 0.6050467 0.5902359
vn 0.5502353 0.6024318 0.5782015
vn 0.5502354 -0.6024318 0.5782016
vn -0.5343595 -0.6050467 0.5902359
vn 0.5502353 0.6024318 0.5782015
vn 0.5408336 0.5921382 -0.5973871
vn 0.5408337 -0.5921382 -0.5973872
vn 0.5502354 -0.6024318 0.5782016
vn -0.5570694 -0.5890674 -0.5853831
vn 0.5502354 -0.6024318 0.5782016
vn -0.5343595 -0.6050467 0.5902359
vn 0.5408336 0.5921382 -0.5973871
vn -0.5570695 0.5890674 -0.585383
vn 0.5408337 -0.5921382 -0.5973872
vn 0.5408336 0.5921382 -0.5973871
vn 0.5502353 0.6024318 0.5782015
vn -0.5343594 0.6050467 0.5902359
vn -0.5570695 0.5890674 -0.585383
vn -0.5873976 0.565013 -0.5794173
vn -0.5899646 0.569341 0.5725318
vn -0.5914485 -0.5614002 0.5788079
vn -0.5861694 -0.5730907 -0.5726888
vn -0.5899646 0.569341 0.5725318
vn 0 0.7021481 0.7120309
vn 0 -0.6931519 0.7207915
vn -0.5914485 -0.5614002 0.5788079
vn -0.5861694 -0.5730907 -0.5726888
vn 0 -0.6931519 0.7207915
vn 0 -0.7106645 -0.7035311
vn 0 0.7015561 -0.7126143
vn -0.5873976 0.565013 -0.5794173
vn -0.5861694 -0.5730907 -0.5726888
vn 0 -0.7106645 -0.7035311
vn 0 0.7015561 -0.7126143
vn 0 0.7021481 0.7120309
vn -0.5899646 0.569341 0.5725318
vn -0.5873976 0.565013 -0.5794173
vn -0.5907565 0.5539113 -0.5866762
vn -0.5888939 0.5535429 0.5888923
vn -0.588894 -0.5535428 0.5888924
vn -0.5907566 -0.5539112 -0.5866763
vn -0.588894 -0.5535428 0.5888924
vn 0.5899535 -0.5556085 0.5858788
vn 0.588091 -0.5552474 -0.5880895
vn -0.5888939 0.5535429 0.5888923
vn 0.5899537 0.5556083 0.5858788
vn 0.5899535 -0.5556085 0.5858788
vn -0.588894 -0.5535428 0.5888924
vn 0.5899537 0.5556083 0.5858788
vn 0.5880911 0.5552472 -0.5880895
vn 0.588091 -0.5552474 -0.5880895
vn 0.5899535 -0.5556085 0.5858788
vn 0.5880911 0.5552472 -0.5880895
vn -0.5907566 -0.5539112 -0.5866763
vn -0.5907565 0.5539113 -0.5866762
vn 0.5880911 0.5552472 -0.5880895
vn 0.5899537 0.5556083 0.5858788
vn -0.5888939 0.5535429 0.5888923
vn -0.5907565 0.5539113 -0.5866762
vn -0.4904006 0.6378108 -0.5938894
vn -0.4903999 0.6378099 0.593891
vn -0.4903998 -0.6378112 0.5938898
vn -0.4904007 -0.6378095 -0.5938906
vn -0.4903999 0.6378099 0.593891
vn 0.4903999 0.6378099 0.593891
vn 0.4903998 -0.6378112 0.5938898
vn -0.4903998 -0.6378112 0.5938898
vn 0.4903999 0.6378099 0.593891
vn 0.4904006 0.6378108 -0.5938894
vn 0.4904007 -0.6378095 -0.5938906
vn 0.4903998 -0.6378112 0.5938898
vn 0.4904006 0.6378108 -0.5938894
vn -0.4904006 0.6378108 -0.5938894
vn -0.4904007 -0.6378095 -0.5938906
vn 0.4904007 -0.6378095 -0.5938906
vn -0.4903998 -0.6378112 0.5938898
vn 0.4903998 -0.6378112 0.5938898
vn 0.4904007 -0.6378095 -0.5938906
vn 0.4904006 0.6378108 -0.5938894
vn 0.4903999 0.6378099 0.593891
vn -0.4903999 0.6378099 0.593891
vn -0.4904006 0.6378108 -0.5938894
vn -0.6717492 0.5109585 -0.5363531
vn -0.6717492 0.5109585 0.5363531
vn -0.6717492 -0.5109585 0.5363531
vn -0.6717492 -0.5109585 -0.5363531
vn 0.6717492 0.5109585 -0.5363531
vn -0.6717492 -0.5109585 -0.5363531
vn 0.6717492 -0.5109585 -0.5363531
vn -0.6717492 0.5109585 0.5363531
vn 0.6717492 -0.5109585 0.5363531
vn -0.6717492 -0.5109585 0.5363531
vn 0.6717492 0.5109585 0.5363531
vn 0.6717492 -0.5109585 -0.5363531
vn 0.6717492 0.5109585 -0.5363531
vn -0.6717492 -0.5109585 -0.5363531
vn -0.6717492 -0.5109585 0.5363531
vn 0.6717492 -0.5109585 0.5363531
vn 0.6717492 -0.5109585 -0.5363531
vn 0.6717492 0.5109585 -0.5363531
vn 0.6717492 0.5109585 0.5363531
vn -0.6717492 0.5109585 0.5363531
vn -0.6717492 0.5109585 -0.5363531
g hammer_lightning_001_blade_0
f 3/3/3 2/2/2 1/1/1
f 4/4/4 3/3/3 1/1/1
f 7/7/7 6/6/6 5/5/5
f 8/8/8 7/7/7 5/5/5
f 11/11/11 10/10/10 9/9/9
f 12/12/12 11/11/11 9/9/9
f 15/15/15 14/14/14 13/13/13
f 16/16/16 15/15/15 13/13/13
f 19/19/19 18/18/18 17/17/17
f 20/20/20 19/19/19 17/17/17
f 23/23/23 22/22/22 21/21/21
f 24/24/24 23/23/23 21/21/21
f 27/27/27 26/26/26 25/25/25
f 28/28/28 27/27/27 25/25/25
f 31/31/31 30/30/30 29/29/29
f 32/32/32 31/31/31 29/29/29
f 35/35/35 34/34/34 33/33/33
f 36/36/36 35/35/35 33/33/33
f 39/39/39 38/38/38 37/37/37
f 40/40/40 39/39/39 37/37/37
f 43/43/43 42/42/42 41/41/41
f 44/44/44 43/43/43 41/41/41
f 47/47/47 46/46/46 45/45/45
f 48/48/48 47/47/47 45/45/45
f 51/51/51 50/50/50 49/49/49
f 52/52/52 51/51/51 49/49/49
f 51/51/51 54/54/54 53/53/53
f 54/54/54 55/55/55 53/53/53
f 58/58/58 57/57/57 56/56/56
f 59/59/59 58/58/58 56/56/56
f 62/62/62 61/61/61 60/60/60
f 63/63/63 62/62/62 60/60/60
f 66/66/66 65/65/65 64/64/64
f 67/67/67 66/66/66 64/64/64
f 70/70/70 69/69/69 68/68/68
f 71/71/71 70/70/70 68/68/68
f 74/74/74 73/73/73 72/72/72
f 75/75/75 74/74/74 72/72/72
f 78/78/78 77/77/77 76/76/76
f 79/79/79 78/78/78 76/76/76
f 81/81/81 80/80/80 78/78/78
f 82/82/82 81/81/81 78/78/78
f 85/85/85 84/84/84 83/83/83
f 86/86/86 85/85/85 83/83/83
f 89/89/89 88/88/88 87/87/87
f 90/90/90 89/89/89 87/87/87
f 93/93/93 92/92/92 91/91/91
f 94/94/94 93/93/93 91/91/91
f 97/97/97 96/96/96 95/95/95
f 98/98/98 97/97/97 95/95/95
f 101/101/101 100/100/100 99/99/99
f 102/102/102 101/101/101 99/99/99
f 105/105/105 104/104/104 103/103/103
f 106/106/106 105/105/105 103/103/103
f 109/109/109 108/108/108 107/107/107
f 110/110/110 109/109/109 107/107/107
f 113/113/113 112/112/112 111/111/111
f 114/114/114 113/113/113 111/111/111
f 117/117/117 116/116/116 115/115/115
f 118/118/118 117/117/117 115/115/115
f 121/121/121 120/120/120 119/119/119
f 122/122/122 121/121/121 119/119/119
f 121/121/121 124/124/124 123/123/123
f 124/124/124 125/125/125 123/123/123
f 123/123/123 127/127/127 126/126/126
f 128/128/128 123/123/123 126/126/126
f 131/131/131 130/130/130 129/129/129
f 132/132/132 131/131/131 129/129/129
f 135/135/135 134/134/134 133/133/133
f 136/136/136 135/135/135 133/133/133
f 139/139/139 138/138/138 137/137/137
f 140/140/140 139/139/139 137/137/137
f 142/142/142 140/140/140 141/141/141
f 143/143/143 142/142/142 141/141/141
f 146/146/146 145/145/145 144/144/144
f 147/147/147 146/146/146 144/144/144
f 150/150/150 149/149/149 148/148/148
f 151/151/151 150/150/150 148/148/148
f 154/154/154 153/153/153 152/152/152
f 155/155/155 154/154/154 152/152/152
f 157/157/157 156/156/156 155/155/155
f 158/158/158 157/157/157 155/155/155
f 161/161/161 160/160/160 159/159/159
f 162/162/162 161/161/161 159/159/159
f 165/165/165 164/164/164 163/163/163
f 166/166/166 165/165/165 163/163/163
f 165/165/165 168/168/168 167/167/167
f 168/168/168 169/169/169 167/167/167
f 172/172/172 171/171/171 170/170/170
f 173/173/173 172/172/172 170/170/170
f 176/176/176 175/175/175 174/174/174
f 177/177/177 176/176/176 174/174/174
f 180/180/180 179/179/179 178/178/178
f 181/181/181 180/180/180 178/178/178
f 184/184/184 183/183/183 182/182/182
f 185/185/185 184/184/184 182/182/182
f 188/188/188 187/187/187 186/186/186
f 189/189/189 188/188/188 186/186/186
f 191/191/191 190/190/190 188/188/188
f 192/192/192 191/191/191 188/188/188
f 195/195/195 194/194/194 193/193/193
f 196/196/196 195/195/195 193/193/193
f 199/199/199 198/198/198 197/197/197
f 200/200/200 199/199/199 197/197/197
f 202/202/202 197/197/197 201/201/201
f 203/203/203 202/202/202 201/201/201
f 206/206/206 205/205/205 204/204/204
f 205/205/205 207/207/207 204/204/204
f 205/205/205 208/208/208 207/207/207
f 208/208/208 209/209/209 207/207/207
f 212/212/212 211/211/211 210/210/210
f 213/213/213 212/212/212 210/210/210
f 216/216/216 215/215/215 214/214/214
f 217/217/217 216/216/216 214/214/214
