g hammer_novelty_001_blade
v 0.4435467 0.05176852 1.079909
v 0.4727222 0.05825433 1.03506
v 0.4813987 0.1069625 1.032663
v 0.448599 0.1104843 1.083161
v 0.3909308 0.04309626 1.134209
v 0.3936853 0.1150037 1.130591
v 0.3290149 0.03599999 1.164398
v 0.3288336 0.1156076 1.171871
v 0.2608298 0.1186267 1.183624
v 0.2593929 -8.014328E-10 1.170016
v 0.1510552 -8.353639E-10 1.118551
v 0.1530415 0.112201 1.141459
v 0.07615344 0.1024352 1.061563
v 0.09606778 -9.094189E-10 1.041472
v 0.04331884 0.05554235 0.9636762
v 0.05727781 -7.681096E-10 0.9569781
v 0.04331884 -0.05554235 0.9636762
v 0.07615344 -0.1024352 1.061563
v 0.1530415 -0.112201 1.141459
v 0.2608298 -0.1186267 1.183624
v 0.3290149 -0.036 1.164398
v 0.3288336 -0.1156076 1.171871
v 0.3936853 -0.1150037 1.130591
v 0.3909308 -0.04309626 1.134209
v 0.448599 -0.1104843 1.083161
v 0.4435467 -0.05176852 1.079909
v 0.4813987 -0.1069625 1.032663
v 0.4727222 -0.05825433 1.03506
v -0.3802845 -8.692946E-10 1.319787
v -0.3802845 -0.1208891 1.24999
v -0.3802845 -0.1208891 1.110401
v -0.3802845 -8.692951E-10 1.040605
v -0.3802845 0.1208891 1.110401
v -0.3802845 0.1208891 1.24999
v -0.275875 -8.69295E-10 1.319787
v -0.3802845 -8.692946E-10 1.319787
v -0.3802845 0.1208891 1.24999
v -0.3802845 -0.1208891 1.24999
v -0.275875 0.1208891 1.24999
v -0.275875 -0.1208891 1.24999
v -0.3802845 0.1208891 1.110401
v -0.3802845 -0.1208891 1.110401
v -0.275875 0.1208891 1.110401
v -0.275875 -0.1208891 1.110401
v -0.3802845 -8.692951E-10 1.040605
v -0.275875 -8.692951E-10 1.040605
v -0.2438124 0.0882854 1.129207
v -0.275875 0.1208891 1.110401
v -0.2438124 0.0882854 1.231149
v -0.275875 0.1208891 1.24999
v -0.2438124 -8.69295E-10 1.28212
v -0.275875 -8.69295E-10 1.319787
v -0.275875 -0.1208891 1.24999
v -0.2438124 -0.0882854 1.231149
v -0.275875 -0.1208891 1.110401
v -0.2438124 -0.0882854 1.129207
v -0.2438124 -8.692951E-10 1.078234
v -0.1985719 -7.810123E-10 1.095415
v -0.1985719 0.07342181 1.137806
v -0.1985719 0.07342181 1.222586
v -0.1985719 -7.810121E-10 1.264976
v -0.1985719 -0.07342181 1.137806
v -0.1517299 0.07515687 1.136804
v -0.1985719 -0.07342181 1.222586
v -0.1517299 -8.692951E-10 1.093412
v -0.1517299 -0.07515687 1.136804
v -0.1517299 -0.07515687 1.223588
v -0.1517299 -8.692946E-10 1.266979
v -0.1517299 0.07515687 1.223588
v -0.1005527 0.08467042 1.10505
v -0.1517299 -8.692951E-10 1.093412
v -0.1161617 -8.692951E-10 1.070637
v -0.0539043 0.09853125 1.06604
v -0.1517299 -0.07515687 1.136804
v -0.1087118 0.1208891 1.236493
v -0.1517299 0.07515687 1.223588
v -0.1239041 -8.692946E-10 1.322578
v -0.1517299 -8.692946E-10 1.266979
v -0.1517299 -0.07515687 1.223588
v -0.1087118 -0.1208891 1.236493
v -0.1005527 -0.08467042 1.10505
v -0.08786425 -9.094189E-10 1.040605
v -0.0539043 -0.09853125 1.06604
v 0.02721293 0.1208891 1.245842
v 0.02721293 -0.1208891 1.245842
v 0.05134632 -8.692947E-10 1.321145
v 0.07615344 0.1024352 1.061563
v 0.1587754 0.120889 1.263675
v 0.04331884 0.05554235 0.9636762
v 0.1530415 0.112201 1.141459
v 0.2590117 0.120889 1.245453
v 0.2608298 0.1186267 1.183624
v 0.3288336 0.1156076 1.171871
v -0.0350274 0.05554235 0.9641407
v 0.05727781 -7.681096E-10 0.9569781
v 0.1508489 0.0006797554 1.315209
v 0.1587754 -0.120889 1.263675
v -0.05777761 -7.681096E-10 0.9568886
v -0.0350274 -0.05554235 0.9641407
v 0.04331884 -0.05554235 0.9636762
v 0.07615344 -0.1024352 1.061563
v 0.1530415 -0.112201 1.141459
v 0.2608298 -0.1186267 1.183624
v 0.2590117 -0.120889 1.245453
v 0.3288336 -0.1156076 1.171871
v 0.2750857 0.0001162932 1.283365
v 0.3354134 -0.1169219 1.219105
v 0.3415962 -0.01033682 1.246578
v 0.4161471 -0.1095039 1.168028
v 0.3936853 -0.1150037 1.130591
v 0.417226 -0.01986264 1.183
v 0.4729393 -0.10573 1.104493
v 0.448599 -0.1104843 1.083161
v 0.4745627 -0.03440379 1.110794
v 0.522146 -0.1058733 1.011728
v 0.4813987 -0.1069625 1.032663
v 0.5224184 -0.0431987 1.010258
v 0.4727222 -0.05825433 1.03506
v 0.4435467 -0.05176852 1.079909
v 0.3909308 -0.04309626 1.134209
v 0.3290149 -0.036 1.164398
v 0.2593929 -8.014328E-10 1.170016
v 0.3415962 0.01033682 1.246578
v 0.3290149 0.03599999 1.164398
v 0.3909308 0.04309626 1.134209
v 0.3354134 0.1169219 1.219105
v 0.417226 0.01986264 1.183
v 0.4435467 0.05176852 1.079909
v 0.4161471 0.1095039 1.168028
v 0.3936853 0.1150037 1.130591
v 0.4745627 0.03440379 1.110794
v 0.4727222 0.05825433 1.03506
v 0.4729393 0.10573 1.104493
v 0.448599 0.1104843 1.083161
v 0.5224184 0.0431987 1.010258
v 0.4813987 0.1069625 1.032663
v 0.522146 0.1058733 1.011728
vt 0.5226134 0.4371652
vt 0.5228456 0.4384634
vt 0.5289794 0.4378513
vt 0.5287731 0.4368616
vt 0.5223312 0.4355878
vt 0.5341833 0.4360137
vt 0.521902 0.4347974
vt 0.537407 0.4349878
vt 0.537843 0.4342322
vt 0.5215406 0.4341321
vt 0.5204254 0.4332705
vt 0.5329098 0.4335673
vt 0.5279766 0.4329024
vt 0.51931 0.432409
vt 0.5279766 0.4329024
vt 0.51931 0.432409
vt 0.5279766 0.4329024
vt 0.5279766 0.4329024
vt 0.5329098 0.4335673
vt 0.537843 0.4342322
vt 0.521902 0.4347974
vt 0.537407 0.4349878
vt 0.5341833 0.4360137
vt 0.5223312 0.4355878
vt 0.5287731 0.4368616
vt 0.5226134 0.4371652
vt 0.5289794 0.4378513
vt 0.5228456 0.4384634
vt 0.5572482 0.4276024
vt 0.5512211 0.4321239
vt 0.5612085 0.4347241
vt 0.5752161 0.4334373
vt 0.578944 0.429858
vt 0.5711738 0.4270151
vt 0.5630668 0.4281081
vt 0.563067 0.4269428
vt 0.5532781 0.4269428
vt 0.5532781 0.4269428
vt 0.553278 0.4281081
vt 0.553278 0.4281081
vt 0.5337002 0.4269428
vt 0.5337002 0.4269428
vt 0.5337002 0.4281081
vt 0.5337002 0.4281081
vt 0.5239114 0.4269428
vt 0.5239114 0.4281081
vt 0.5298318 0.4288822
vt 0.5316316 0.4281081
vt 0.5388131 0.4288821
vt 0.5455452 0.4281081
vt 0.5433207 0.4288809
vt 0.5531377 0.4280602
vt 0.545877 0.4280829
vt 0.5382397 0.4289252
vt 0.5300836 0.4282241
vt 0.5280451 0.4290164
vt 0.5241439 0.4289721
vt 0.5246046 0.4293341
vt 0.5297942 0.4292446
vt 0.5371751 0.4292446
vt 0.5403643 0.4292693
vt 0.5272954 0.4293911
vt 0.5303015 0.4296071
vt 0.5356736 0.4293262
vt 0.5250651 0.4296961
vt 0.5265455 0.4297658
vt 0.5331075 0.4297273
vt 0.5374079 0.4296576
vt 0.5355372 0.4296071
vt 0.5307433 0.4299038
vt 0.5262341 0.4296071
vt 0.5245143 0.4299037
vt 0.5337002 0.4302005
vt 0.5303015 0.4296071
vt 0.553278 0.4302005
vt 0.5384356 0.4296071
vt 0.5630668 0.4302004
vt 0.5425025 0.4296071
vt 0.5384356 0.4296071
vt 0.553278 0.4302005
vt 0.5307432 0.4299038
vt 0.5239113 0.4302004
vt 0.5337002 0.4302005
vt 0.5532781 0.4318444
vt 0.5532781 0.4318444
vt 0.5627782 0.4318764
vt 0.5337003 0.4334883
vt 0.5532781 0.4334882
vt 0.5251472 0.4334883
vt 0.5389438 0.4341532
vt 0.5514436 0.4346952
vt 0.5441873 0.4348181
vt 0.5437239 0.4355737
vt 0.5251471 0.4302005
vt 0.5244884 0.4329949
vt 0.5624896 0.4335523
vt 0.5532781 0.4334882
vt 0.5239113 0.4302004
vt 0.5337002 0.4302005
vt 0.5337003 0.4334883
vt 0.5337003 0.4334883
vt 0.5389438 0.4341532
vt 0.5441873 0.4348181
vt 0.5514436 0.4346952
vt 0.5437239 0.4355737
vt 0.5621332 0.4358095
vt 0.5496869 0.4356661
vt 0.55764 0.4364146
vt 0.5472921 0.4369899
vt 0.5402974 0.4365996
vt 0.5524912 0.4371081
vt 0.5469338 0.4374514
vt 0.5345469 0.4374475
vt 0.5527021 0.4380754
vt 0.5463658 0.438183
vt 0.5347662 0.4384372
vt 0.5530547 0.4396927
vt 0.5282465 0.4390493
vt 0.5279996 0.4377511
vt 0.5276998 0.4361737
vt 0.5272435 0.4353833
vt 0.5268595 0.434718
vt 0.55764 0.4364146
vt 0.5272435 0.4353833
vt 0.5276998 0.4361737
vt 0.5496869 0.4356661
vt 0.5524912 0.4371081
vt 0.5279996 0.4377511
vt 0.5472921 0.4369899
vt 0.5402974 0.4365996
vt 0.5527021 0.4380754
vt 0.5282465 0.4390493
vt 0.5469338 0.4374514
vt 0.5345469 0.4374475
vt 0.5530547 0.4396927
vt 0.5347662 0.4384372
vt 0.5463658 0.438183
vn -0.6146637 -0.5206413 -0.5925548
vn -0.3605705 0.1540935 -0.9199153
vn -0.3605705 0.1540935 -0.9199153
vn -0.5462411 0.6603818 -0.515283
vn 0.08175746 -0.9899249 -0.1156039
vn 0.1406196 0.9835289 0.1135654
vn -0.1334361 -0.5770409 -0.8057411
vn -0.2064179 0.6201971 -0.7568008
vn 0.1439203 0.6916608 -0.7077374
vn 0.3373062 0.0001030436 -0.941395
vn 0.5883353 0 -0.8086171
vn 0.4133118 0.5957227 -0.6886854
vn 0.2984093 0.8755497 -0.3799534
vn 0.8300244 0 -0.5577272
vn 0.3540919 0.6580362 -0.6645353
vn 0.6627304 0 -0.7488581
vn 0.3540919 -0.6580362 -0.6645353
vn 0.2984093 -0.8755497 -0.3799534
vn 0.4133116 -0.5957228 -0.6886856
vn 0.1439205 -0.6916608 -0.7077375
vn -0.1329894 0.5768685 -0.8059383
vn -0.2064173 -0.6201971 -0.7568009
vn 0.1406195 -0.9835289 0.1135654
vn 0.08175746 0.9899249 -0.1156039
vn -0.546241 -0.6603817 -0.5152831
vn -0.6146642 0.5206403 -0.5925552
vn -0.3605706 -0.1540935 -0.9199153
vn -0.3605706 -0.1540935 -0.9199153
vn 0 0.5000033 0.8660235
vn -1 0 0
vn -1 0 0
vn 0 0.5000034 -0.8660235
vn 0 0.5000034 -0.8660235
vn 0 1 0
vn 0.2733501 0.4809598 0.833041
vn 0 0.5000033 0.8660235
vn 0 1 0
vn -1 0 0
vn 0.2733485 0.961915 0
vn 0.2733486 -0.961915 0
vn 0 0.5000034 -0.8660235
vn -1 0 0
vn 0.2733487 0.480961 -0.8330408
vn 0.2733487 -0.480961 -0.8330408
vn 0 0.5000034 -0.8660235
vn 0.2733487 0.480961 -0.8330408
vn 0.2916128 0.4782709 -0.8283833
vn 0.2733487 0.480961 -0.8330408
vn 0.291614 0.9565361 0
vn 0.2733485 0.961915 0
vn 0.291615 0.4782682 0.8283842
vn 0.2733501 0.4809598 0.833041
vn 0.2733486 -0.961915 0
vn 0.291614 -0.9565361 0
vn 0.2733487 -0.480961 -0.8330408
vn 0.2916127 -0.4782709 -0.8283833
vn 0.2916128 0.4782709 -0.8283833
vn 0.1806607 0 -0.9835454
vn 0.1805534 0.8518178 -0.4917386
vn 0.1803374 0.8517997 0.4918492
vn 0.1802265 0 0.9836251
vn 0.1805533 -0.8518178 -0.4917386
vn -0.377893 0.8141828 -0.4407985
vn 0.1803374 -0.8517996 0.4918493
vn -0.3647653 0 -0.9310995
vn -0.3778929 -0.8141828 -0.4407985
vn -0.5311782 -0.7732295 0.3463609
vn -0.639707 0 0.7686189
vn -0.5311786 0.7732293 0.3463607
vn -0.5818931 0.6478445 -0.4916278
vn -0.3647653 0 -0.9310995
vn -0.6556799 0 -0.7550389
vn -0.1876258 0.9446915 -0.268988
vn -0.3778929 -0.8141828 -0.4407985
vn -0.1512584 0.895206 0.4191982
vn -0.5311786 0.7732293 0.3463607
vn -0.1872908 0 0.9823046
vn -0.639707 0 0.7686189
vn -0.5311782 -0.7732295 0.3463609
vn -0.1512583 -0.895206 0.4191982
vn -0.581893 -0.6478446 -0.4916278
vn -0.8723645 0 -0.488856
vn -0.1876257 -0.9446915 -0.2689881
vn -0.02067602 0.8969613 0.4416254
vn -0.02015927 -0.8965939 0.4423945
vn -0.03775396 -0.0008327804 0.9992867
vn 0.2984093 0.8755497 -0.3799534
vn 0.05803622 0.750325 0.6585166
vn 0.3540919 0.6580362 -0.6645353
vn 0.4133118 0.5957227 -0.6886854
vn 0.2047176 0.7019541 0.6821665
vn 0.1439203 0.6916608 -0.7077374
vn -0.2064179 0.6201971 -0.7568008
vn -0.373943 0.6809936 -0.6296144
vn 0.6627304 0 -0.7488581
vn 0.07288737 0.001549495 0.997339
vn 0.05863286 -0.7483129 0.6607494
vn -0.7226406 0 -0.6912241
vn -0.373943 -0.6809937 -0.6296144
vn 0.3540919 -0.6580362 -0.6645353
vn 0.2984093 -0.8755497 -0.3799534
vn 0.4133116 -0.5957228 -0.6886856
vn 0.1439205 -0.6916608 -0.7077375
vn 0.2040734 -0.7003726 0.6839827
vn -0.2064173 -0.6201971 -0.7568009
vn 0.361964 -0.0005536119 0.932192
vn 0.4338038 -0.5370775 0.7234376
vn 0.5829069 0.4013161 0.706516
vn 0.632403 -0.2630135 0.7286222
vn 0.1406195 -0.9835289 0.1135654
vn 0.08175746 0.9899249 -0.1156039
vn 0.7837246 -0.3588742 0.506937
vn -0.546241 -0.6603817 -0.5152831
vn 0.777151 0.4439877 0.4459947
vn -0.3605706 -0.1540935 -0.9199153
vn -0.3605706 -0.1540935 -0.9199153
vn -0.3605706 -0.1540935 -0.9199153
vn -0.3605706 -0.1540935 -0.9199153
vn -0.6146642 0.5206403 -0.5925552
vn 0.08175746 0.9899249 -0.1156039
vn -0.1329894 0.5768685 -0.8059383
vn 0.3373062 0.0001030436 -0.941395
vn 0.5825357 -0.4018167 0.7065377
vn -0.1334361 -0.5770409 -0.8057411
vn 0.08175746 -0.9899249 -0.1156039
vn 0.4339461 0.5372486 0.7232252
vn 0.08175746 -0.9899249 -0.1156039
vn -0.6146637 -0.5206413 -0.5925548
vn 0.632403 0.2630135 0.7286221
vn 0.1406196 0.9835289 0.1135654
vn 0.7771509 -0.4439883 0.4459942
vn -0.3605705 0.1540935 -0.9199153
vn 0.7837246 0.3588746 0.5069367
vn -0.5462411 0.6603818 -0.515283
vn -0.3605705 0.1540935 -0.9199153
vn -0.3605705 0.1540935 -0.9199153
vn -0.3605705 0.1540935 -0.9199153
g hammer_novelty_001_blade_0
f 3/3/3 2/2/2 1/1/1
f 4/4/4 3/3/3 1/1/1
f 4/4/4 1/1/1 5/5/5
f 6/6/6 4/4/4 5/5/5
f 6/6/6 5/5/5 7/7/7
f 8/8/8 6/6/6 7/7/7
f 9/9/9 8/8/8 7/7/7
f 10/10/10 9/9/9 7/7/7
f 9/9/9 10/10/10 11/11/11
f 12/12/12 9/9/9 11/11/11
f 12/12/12 11/11/11 13/13/13
f 11/11/11 14/14/14 13/13/13
f 13/13/13 14/14/14 15/15/15
f 14/14/14 16/16/16 15/15/15
f 17/17/17 16/16/16 14/14/14
f 18/18/18 17/17/17 14/14/14
f 18/18/18 14/14/14 11/11/11
f 19/19/19 18/18/18 11/11/11
f 11/11/11 10/10/10 19/19/19
f 10/10/10 20/20/20 19/19/19
f 10/10/10 21/21/21 20/20/20
f 21/21/21 22/22/22 20/20/20
f 23/23/23 22/22/22 21/21/21
f 24/24/24 23/23/23 21/21/21
f 25/25/25 23/23/23 24/24/24
f 26/26/26 25/25/25 24/24/24
f 27/27/27 25/25/25 26/26/26
f 28/28/28 27/27/27 26/26/26
f 31/31/31 30/30/30 29/29/29
f 29/29/29 32/32/32 31/31/31
f 29/29/29 33/33/33 32/32/32
f 29/29/29 34/34/34 33/33/33
f 37/37/37 36/36/36 35/35/35
f 36/36/36 38/38/38 35/35/35
f 39/39/39 37/37/37 35/35/35
f 38/38/38 40/40/40 35/35/35
f 41/41/41 37/37/37 39/39/39
f 38/38/38 42/42/42 40/40/40
f 43/43/43 41/41/41 39/39/39
f 42/42/42 44/44/44 40/40/40
f 45/45/45 41/41/41 43/43/43
f 42/42/42 45/45/45 44/44/44
f 46/46/46 45/45/45 43/43/43
f 45/45/45 46/46/46 44/44/44
f 46/46/46 48/48/48 47/47/47
f 47/47/47 48/48/48 49/49/49
f 48/48/48 50/50/50 49/49/49
f 49/49/49 50/50/50 51/51/51
f 50/50/50 52/52/52 51/51/51
f 52/52/52 53/53/53 51/51/51
f 53/53/53 54/54/54 51/51/51
f 53/53/53 55/55/55 54/54/54
f 55/55/55 46/46/46 56/56/56
f 55/55/55 56/56/56 54/54/54
f 57/57/57 46/46/46 47/47/47
f 46/46/46 57/57/57 56/56/56
f 58/58/58 57/57/57 47/47/47
f 56/56/56 57/57/57 58/58/58
f 59/59/59 47/47/47 49/49/49
f 59/59/59 58/58/58 47/47/47
f 60/60/60 49/49/49 51/51/51
f 60/60/60 59/59/59 49/49/49
f 51/51/51 54/54/54 61/61/61
f 61/61/61 60/60/60 51/51/51
f 54/54/54 56/56/56 62/62/62
f 62/62/62 56/56/56 58/58/58
f 59/59/59 63/63/63 58/58/58
f 63/63/63 59/59/59 60/60/60
f 54/54/54 64/64/64 61/61/61
f 64/64/64 54/54/54 62/62/62
f 62/62/62 58/58/58 65/65/65
f 63/63/63 65/65/65 58/58/58
f 66/66/66 62/62/62 65/65/65
f 64/64/64 62/62/62 66/66/66
f 67/67/67 64/64/64 66/66/66
f 64/64/64 67/67/67 68/68/68
f 61/61/61 64/64/64 68/68/68
f 61/61/61 68/68/68 60/60/60
f 68/68/68 69/69/69 60/60/60
f 69/69/69 63/63/63 60/60/60
f 71/71/71 63/63/63 70/70/70
f 72/72/72 71/71/71 70/70/70
f 70/70/70 73/73/73 72/72/72
f 74/74/74 71/71/71 72/72/72
f 70/70/70 63/63/63 75/75/75
f 75/75/75 73/73/73 70/70/70
f 63/63/63 76/76/76 75/75/75
f 75/75/75 76/76/76 77/77/77
f 76/76/76 78/78/78 77/77/77
f 78/78/78 79/79/79 77/77/77
f 79/79/79 74/74/74 80/80/80
f 79/79/79 80/80/80 77/77/77
f 81/81/81 74/74/74 72/72/72
f 74/74/74 81/81/81 80/80/80
f 72/72/72 82/82/82 81/81/81
f 73/73/73 82/82/82 72/72/72
f 81/81/81 83/83/83 80/80/80
f 82/82/82 83/83/83 81/81/81
f 73/73/73 75/75/75 84/84/84
f 84/84/84 75/75/75 77/77/77
f 77/77/77 80/80/80 85/85/85
f 85/85/85 80/80/80 83/83/83
f 86/86/86 84/84/84 77/77/77
f 86/86/86 77/77/77 85/85/85
f 87/87/87 73/73/73 84/84/84
f 84/84/84 88/88/88 87/87/87
f 84/84/84 86/86/86 88/88/88
f 87/87/87 89/89/89 73/73/73
f 90/90/90 87/87/87 88/88/88
f 88/88/88 91/91/91 90/90/90
f 91/91/91 92/92/92 90/90/90
f 92/92/92 91/91/91 93/93/93
f 89/89/89 94/94/94 73/73/73
f 73/73/73 94/94/94 82/82/82
f 89/89/89 95/95/95 94/94/94
f 86/86/86 96/96/96 88/88/88
f 88/88/88 96/96/96 91/91/91
f 85/85/85 97/97/97 86/86/86
f 97/97/97 96/96/96 86/86/86
f 94/94/94 98/98/98 82/82/82
f 95/95/95 98/98/98 94/94/94
f 98/98/98 99/99/99 82/82/82
f 99/99/99 98/98/98 95/95/95
f 100/100/100 99/99/99 95/95/95
f 99/99/99 83/83/83 82/82/82
f 99/99/99 100/100/100 83/83/83
f 100/100/100 101/101/101 83/83/83
f 101/101/101 85/85/85 83/83/83
f 101/101/101 97/97/97 85/85/85
f 97/97/97 101/101/101 102/102/102
f 102/102/102 103/103/103 97/97/97
f 103/103/103 104/104/104 97/97/97
f 97/97/97 104/104/104 96/96/96
f 103/103/103 105/105/105 104/104/104
f 104/104/104 106/106/106 96/96/96
f 96/96/96 106/106/106 91/91/91
f 105/105/105 107/107/107 104/104/104
f 108/108/108 106/106/106 104/104/104
f 107/107/107 108/108/108 104/104/104
f 109/109/109 107/107/107 105/105/105
f 110/110/110 109/109/109 105/105/105
f 111/111/111 108/108/108 107/107/107
f 109/109/109 111/111/111 107/107/107
f 112/112/112 109/109/109 110/110/110
f 113/113/113 112/112/112 110/110/110
f 114/114/114 111/111/111 109/109/109
f 112/112/112 114/114/114 109/109/109
f 115/115/115 112/112/112 113/113/113
f 116/116/116 115/115/115 113/113/113
f 115/115/115 117/117/117 112/112/112
f 117/117/117 115/115/115 116/116/116
f 117/117/117 114/114/114 112/112/112
f 118/118/118 117/117/117 116/116/116
f 114/114/114 117/117/117 118/118/118
f 119/119/119 114/114/114 118/118/118
f 111/111/111 114/114/114 119/119/119
f 120/120/120 111/111/111 119/119/119
f 108/108/108 111/111/111 120/120/120
f 121/121/121 108/108/108 120/120/120
f 121/121/121 122/122/122 108/108/108
f 122/122/122 106/106/106 108/108/108
f 123/123/123 106/106/106 122/122/122
f 124/124/124 123/123/123 122/122/122
f 106/106/106 123/123/123 91/91/91
f 123/123/123 124/124/124 125/125/125
f 123/123/123 126/126/126 91/91/91
f 91/91/91 126/126/126 93/93/93
f 127/127/127 123/123/123 125/125/125
f 123/123/123 127/127/127 126/126/126
f 127/127/127 125/125/125 128/128/128
f 126/126/126 129/129/129 93/93/93
f 127/127/127 129/129/129 126/126/126
f 129/129/129 130/130/130 93/93/93
f 131/131/131 127/127/127 128/128/128
f 127/127/127 131/131/131 129/129/129
f 131/131/131 128/128/128 132/132/132
f 129/129/129 133/133/133 130/130/130
f 131/131/131 133/133/133 129/129/129
f 133/133/133 134/134/134 130/130/130
f 135/135/135 131/131/131 132/132/132
f 131/131/131 135/135/135 133/133/133
f 135/135/135 132/132/132 136/136/136
f 137/137/137 136/136/136 134/134/134
f 133/133/133 137/137/137 134/134/134
f 137/137/137 135/135/135 136/136/136
f 135/135/135 137/137/137 133/133/133
