g hammer_basic_008_blade
v -0.01388706 -0.1684765 0.8964376
v -0.004725421 -0.3335381 1.171957
v -0.02124951 -0.2608168 1.169152
v -0.004725421 -0.2087008 0.8883029
v -0.004725421 -0.08020214 0.8099774
v 0.001185107 -0.1684765 0.8964376
v 0.008547553 -0.2608168 1.169152
v -0.004725421 -0.3335381 1.171957
v -0.0212495 -0.1585419 1.283806
v -0.02124951 -0.2608168 1.169152
v -0.004725421 -0.198692 1.303016
v -0.0212495 -0.1512749 1.340757
v 0.008547553 -0.1585419 1.283806
v 0.008547553 -0.2608168 1.169152
v 0.008547553 -0.1512749 1.340757
v -0.004725421 -0.1755733 1.352006
v -0.004725421 -0.1630485 1.435727
v -0.004725421 -0.1630485 1.435727
v 0.02198864 -0.1141936 1.32893
v -0.03352509 -0.1141936 1.32893
v -0.03069416 -0.0967364 1.26361
v 0.02013188 -0.0967364 1.26361
v -0.01813573 -0.1049327 0.9049892
v 0.007573452 -0.1049327 0.9049892
v -0.004725421 -0.08020214 0.8099774
v 0.02013187 -0.1533093 1.166204
v -0.03069416 -0.1533093 1.166204
v -0.03069416 -0.1533093 1.166204
v -0.03069416 -0.0967364 1.26361
v 0.02013188 -0.0967364 1.26361
v 0.02013187 -0.1533093 1.166204
v 0.008547553 -0.2608168 1.169152
v 0.02013187 -0.1533093 1.166204
v 0.02013188 -0.0967364 1.26361
v 0.008547553 -0.1585419 1.283806
v 0.02198864 -0.1141936 1.32893
v 0.008547553 -0.1512749 1.340757
v -0.004725421 -0.1630485 1.435727
v -0.03352509 -0.1141936 1.32893
v -0.0212495 -0.1512749 1.340757
v -0.03069416 -0.0967364 1.26361
v -0.0212495 -0.1585419 1.283806
v -0.03069416 -0.1533093 1.166204
v -0.02124951 -0.2608168 1.169152
v 0.007573452 -0.1049327 0.9049892
v 0.02013187 -0.1533093 1.166204
v 0.008547553 -0.2608168 1.169152
v 0.001185107 -0.1684765 0.8964376
v -0.004725421 -0.08020214 0.8099774
v -0.01388706 -0.1684765 0.8964376
v -0.01813573 -0.1049327 0.9049892
v -0.02124951 -0.2608168 1.169152
v -0.03069416 -0.1533093 1.166204
v 0.1684765 -0.0160733 0.8964376
v 0.3335381 -0.004725421 1.171957
v 0.2608168 -0.02459482 1.169152
v 0.2087008 -0.004725421 0.8883029
v 0.08020214 -0.004725421 0.8099774
v 0.1684765 0.001371676 0.8964376
v 0.2608168 0.009893199 1.169152
v 0.3335381 -0.004725421 1.171957
v 0.1585419 -0.02459482 1.283806
v 0.2608168 -0.02459482 1.169152
v 0.198692 -0.004725421 1.303016
v 0.1512749 -0.02459482 1.340757
v 0.1585419 0.009893199 1.283806
v 0.2608168 0.009893199 1.169152
v 0.1512749 0.009893199 1.340757
v 0.1755733 -0.004725421 1.352006
v 0.1630485 -0.004725421 1.435727
v 0.1630485 -0.004725421 1.435727
v 0.1141936 0.02545032 1.32893
v 0.1141936 -0.03880295 1.32893
v 0.09673644 -0.03552635 1.26361
v 0.09673644 0.02330124 1.26361
v 0.1049327 -0.02099085 0.9049892
v 0.1049327 0.008765743 0.9049892
v 0.08020214 -0.004725421 0.8099774
v 0.1533093 0.02330124 1.166204
v 0.1533093 -0.03552636 1.166204
v 0.1533093 -0.03552636 1.166204
v 0.09673644 -0.03552635 1.26361
v 0.09673644 0.02330124 1.26361
v 0.1533093 0.02330124 1.166204
v 0.2608168 0.009893199 1.169152
v 0.1533093 0.02330124 1.166204
v 0.09673644 0.02330124 1.26361
v 0.1585419 0.009893199 1.283806
v 0.1141936 0.02545032 1.32893
v 0.1512749 0.009893199 1.340757
v 0.1630485 -0.004725421 1.435727
v 0.1141936 -0.03880295 1.32893
v 0.1512749 -0.02459482 1.340757
v 0.09673644 -0.03552635 1.26361
v 0.1585419 -0.02459482 1.283806
v 0.1533093 -0.03552636 1.166204
v 0.2608168 -0.02459482 1.169152
v 0.1049327 0.008765743 0.9049892
v 0.1533093 0.02330124 1.166204
v 0.2608168 0.009893199 1.169152
v 0.1684765 0.001371676 0.8964376
v 0.08020214 -0.004725421 0.8099774
v 0.1684765 -0.0160733 0.8964376
v 0.1049327 -0.02099085 0.9049892
v 0.2608168 -0.02459482 1.169152
v 0.1533093 -0.03552636 1.166204
v 0.01388706 0.1684765 0.8964376
v 0.004725421 0.3335381 1.171957
v 0.02124951 0.2608168 1.169152
v 0.004725421 0.2087008 0.8883029
v 0.004725421 0.08020214 0.8099774
v -0.001185107 0.1684765 0.8964376
v -0.008547553 0.2608168 1.169152
v 0.004725421 0.3335381 1.171957
v 0.0212495 0.1585419 1.283806
v 0.02124951 0.2608168 1.169152
v 0.004725421 0.198692 1.303016
v 0.0212495 0.1512749 1.340757
v -0.008547553 0.1585419 1.283806
v -0.008547553 0.2608168 1.169152
v -0.008547553 0.1512749 1.340757
v 0.004725421 0.1755733 1.352006
v 0.004725421 0.1630485 1.435727
v 0.004725421 0.1630485 1.435727
v -0.02198864 0.1141936 1.32893
v 0.03352509 0.1141936 1.32893
v 0.03069416 0.0967364 1.26361
v -0.02013187 0.0967364 1.26361
v 0.01813573 0.1049327 0.9049892
v -0.007573452 0.1049327 0.9049892
v 0.004725421 0.08020214 0.8099774
v -0.02013187 0.1533093 1.166204
v 0.03069416 0.1533093 1.166204
v 0.03069416 0.1533093 1.166204
v 0.03069416 0.0967364 1.26361
v -0.02013187 0.0967364 1.26361
v -0.02013187 0.1533093 1.166204
v -0.008547553 0.2608168 1.169152
v -0.02013187 0.1533093 1.166204
v -0.02013187 0.0967364 1.26361
v -0.008547553 0.1585419 1.283806
v -0.02198864 0.1141936 1.32893
v -0.008547553 0.1512749 1.340757
v 0.004725421 0.1630485 1.435727
v 0.03352509 0.1141936 1.32893
v 0.0212495 0.1512749 1.340757
v 0.03069416 0.0967364 1.26361
v 0.0212495 0.1585419 1.283806
v 0.03069416 0.1533093 1.166204
v 0.02124951 0.2608168 1.169152
v -0.007573452 0.1049327 0.9049892
v -0.02013187 0.1533093 1.166204
v -0.008547553 0.2608168 1.169152
v -0.001185107 0.1684765 0.8964376
v 0.004725421 0.08020214 0.8099774
v 0.01388706 0.1684765 0.8964376
v 0.01813573 0.1049327 0.9049892
v 0.02124951 0.2608168 1.169152
v 0.03069416 0.1533093 1.166204
v -0.1684765 0.0160733 0.8964376
v -0.3335381 0.004725421 1.171957
v -0.2608168 0.02459482 1.169152
v -0.2087008 0.004725421 0.8883029
v -0.08020214 0.004725421 0.8099774
v -0.1684765 -0.001371678 0.8964376
v -0.2608168 -0.009893198 1.169152
v -0.3335381 0.004725421 1.171957
v -0.1585419 0.02459482 1.283806
v -0.2608168 0.02459482 1.169152
v -0.198692 0.004725421 1.303016
v -0.1512749 0.02459482 1.340757
v -0.1585419 -0.009893198 1.283806
v -0.2608168 -0.009893198 1.169152
v -0.1512749 -0.009893198 1.340757
v -0.1755733 0.004725421 1.352006
v -0.1630485 0.004725421 1.435727
v -0.1630485 0.004725421 1.435727
v -0.1141936 -0.02545032 1.32893
v -0.1141936 0.03880295 1.32893
v -0.09673642 0.03552635 1.26361
v -0.09673642 -0.02330124 1.26361
v -0.1049327 0.02099085 0.9049892
v -0.1049327 -0.008765748 0.9049892
v -0.08020214 0.004725421 0.8099774
v -0.1533093 -0.02330124 1.166204
v -0.1533093 0.03552635 1.166204
v -0.1533093 0.03552635 1.166204
v -0.09673642 0.03552635 1.26361
v -0.09673642 -0.02330124 1.26361
v -0.1533093 -0.02330124 1.166204
v -0.2608168 -0.009893198 1.169152
v -0.1533093 -0.02330124 1.166204
v -0.09673642 -0.02330124 1.26361
v -0.1585419 -0.009893198 1.283806
v -0.1141936 -0.02545032 1.32893
v -0.1512749 -0.009893198 1.340757
v -0.1630485 0.004725421 1.435727
v -0.1141936 0.03880295 1.32893
v -0.1512749 0.02459482 1.340757
v -0.09673642 0.03552635 1.26361
v -0.1585419 0.02459482 1.283806
v -0.1533093 0.03552635 1.166204
v -0.2608168 0.02459482 1.169152
v -0.1049327 -0.008765748 0.9049892
v -0.1533093 -0.02330124 1.166204
v -0.2608168 -0.009893198 1.169152
v -0.1684765 -0.001371678 0.8964376
v -0.08020214 0.004725421 0.8099774
v -0.1684765 0.0160733 0.8964376
v -0.1049327 0.02099085 0.9049892
v -0.2608168 0.02459482 1.169152
v -0.1533093 0.03552635 1.166204
vt 0.5441775 0.3604775
vt 0.5709205 0.3548026
vt 0.5528569 0.3597627
vt 0.5625895 0.3551953
vt 0.5405552 0.3642212
vt 0.5441775 0.3604775
vt 0.5528569 0.3597627
vt 0.5793492 0.3556337
vt 0.5508831 0.3592388
vt 0.558465 0.35999
vt 0.5682544 0.3556771
vt 0.5516837 0.358683
vt 0.5508831 0.3592388
vt 0.558465 0.35999
vt 0.5516837 0.358683
vt 0.5690404 0.3556541
vt 0.5570756 0.3559964
vt 0.5312348 0.3543805
vt 0.5345173 0.3542491
vt 0.5345173 0.3542491
vt 0.5442118 0.3674048
vt 0.5442118 0.3674048
vt 0.552664 0.3732578
vt 0.552664 0.3732578
vt 0.5412632 0.3625689
vt 0.5318744 0.3654947
vt 0.5318744 0.3654947
vt 0.5323516 0.3640787
vt 0.5462264 0.3720933
vt 0.5462264 0.3720933
vt 0.5323516 0.3640787
vt 0.5444655 0.35999
vt 0.5409403 0.3643462
vt 0.5368713 0.3628006
vt 0.5368836 0.3592388
vt 0.5376865 0.3617118
vt 0.5376841 0.358683
vt 0.5430761 0.3559964
vt 0.5376865 0.3617118
vt 0.5376841 0.358683
vt 0.5368713 0.3628006
vt 0.5368836 0.3592388
vt 0.5409403 0.3643462
vt 0.5444655 0.35999
vt 0.5291249 0.3657598
vt 0.5381529 0.3647228
vt 0.5388574 0.3597627
vt 0.530178 0.3604775
vt 0.5265557 0.3642212
vt 0.530178 0.3604775
vt 0.5291249 0.3657598
vt 0.5388574 0.3597627
vt 0.5381529 0.3647228
vt 0.5441775 0.3604775
vt 0.5709205 0.3548026
vt 0.5528569 0.3597627
vt 0.5625895 0.3551953
vt 0.5405552 0.3642212
vt 0.5441775 0.3604775
vt 0.5528569 0.3597627
vt 0.5793492 0.3556337
vt 0.5508831 0.3592388
vt 0.558465 0.35999
vt 0.5682544 0.3556771
vt 0.5516837 0.358683
vt 0.5508831 0.3592388
vt 0.558465 0.35999
vt 0.5516837 0.358683
vt 0.5690404 0.3556541
vt 0.5570756 0.3559964
vt 0.5312348 0.3543805
vt 0.5345173 0.3542491
vt 0.5345173 0.3542491
vt 0.5442118 0.3674048
vt 0.5442118 0.3674048
vt 0.552664 0.3732578
vt 0.552664 0.3732578
vt 0.5412632 0.3625689
vt 0.5318744 0.3654947
vt 0.5318744 0.3654947
vt 0.5323516 0.3640787
vt 0.5462264 0.3720933
vt 0.5462264 0.3720933
vt 0.5323516 0.3640787
vt 0.5444655 0.35999
vt 0.5409403 0.3643462
vt 0.5368713 0.3628006
vt 0.5368836 0.3592388
vt 0.5376865 0.3617118
vt 0.5376841 0.358683
vt 0.5430761 0.3559964
vt 0.5376865 0.3617118
vt 0.5376841 0.358683
vt 0.5368713 0.3628006
vt 0.5368836 0.3592388
vt 0.5409403 0.3643462
vt 0.5444655 0.35999
vt 0.5291249 0.3657598
vt 0.5381529 0.3647228
vt 0.5388574 0.3597627
vt 0.530178 0.3604775
vt 0.5265557 0.3642212
vt 0.530178 0.3604775
vt 0.5291249 0.3657598
vt 0.5388574 0.3597627
vt 0.5381529 0.3647228
vt 0.5441775 0.3604775
vt 0.5709205 0.3548026
vt 0.5528569 0.3597627
vt 0.5625895 0.3551953
vt 0.5405552 0.3642212
vt 0.5441775 0.3604775
vt 0.5528569 0.3597627
vt 0.5793492 0.3556337
vt 0.5508831 0.3592388
vt 0.558465 0.35999
vt 0.5682544 0.3556771
vt 0.5516837 0.358683
vt 0.5508831 0.3592388
vt 0.558465 0.35999
vt 0.5516837 0.358683
vt 0.5690404 0.3556541
vt 0.5570756 0.3559964
vt 0.5312348 0.3543805
vt 0.5345173 0.3542491
vt 0.5345173 0.3542491
vt 0.5442118 0.3674048
vt 0.5442118 0.3674048
vt 0.552664 0.3732578
vt 0.552664 0.3732578
vt 0.5412632 0.3625689
vt 0.5318744 0.3654947
vt 0.5318744 0.3654947
vt 0.5323516 0.3640787
vt 0.5462264 0.3720933
vt 0.5462264 0.3720933
vt 0.5323516 0.3640787
vt 0.5444655 0.35999
vt 0.5409403 0.3643462
vt 0.5368713 0.3628006
vt 0.5368836 0.3592388
vt 0.5376865 0.3617118
vt 0.5376841 0.358683
vt 0.5430761 0.3559964
vt 0.5376865 0.3617118
vt 0.5376841 0.358683
vt 0.5368713 0.3628006
vt 0.5368836 0.3592388
vt 0.5409403 0.3643462
vt 0.5444655 0.35999
vt 0.5291249 0.3657598
vt 0.5381529 0.3647228
vt 0.5388574 0.3597627
vt 0.530178 0.3604775
vt 0.5265557 0.3642212
vt 0.530178 0.3604775
vt 0.5291249 0.3657598
vt 0.5388574 0.3597627
vt 0.5381529 0.3647228
vt 0.5441775 0.3604775
vt 0.5709205 0.3548026
vt 0.5528569 0.3597627
vt 0.5625895 0.3551953
vt 0.5405552 0.3642212
vt 0.5441775 0.3604775
vt 0.5528569 0.3597627
vt 0.5793492 0.3556337
vt 0.5508831 0.3592388
vt 0.558465 0.35999
vt 0.5682544 0.3556771
vt 0.5516837 0.358683
vt 0.5508831 0.3592388
vt 0.558465 0.35999
vt 0.5516837 0.358683
vt 0.5690404 0.3556541
vt 0.5570756 0.3559964
vt 0.5312348 0.3543805
vt 0.5345173 0.3542491
vt 0.5345173 0.3542491
vt 0.5442118 0.3674048
vt 0.5442118 0.3674048
vt 0.552664 0.3732578
vt 0.552664 0.3732578
vt 0.5412632 0.3625689
vt 0.5318744 0.3654947
vt 0.5318744 0.3654947
vt 0.5323516 0.3640787
vt 0.5462264 0.3720933
vt 0.5462264 0.3720933
vt 0.5323516 0.3640787
vt 0.5444655 0.35999
vt 0.5409403 0.3643462
vt 0.5368713 0.3628006
vt 0.5368836 0.3592388
vt 0.5376865 0.3617118
vt 0.5376841 0.358683
vt 0.5430761 0.3559964
vt 0.5376865 0.3617118
vt 0.5376841 0.358683
vt 0.5368713 0.3628006
vt 0.5368836 0.3592388
vt 0.5409403 0.3643462
vt 0.5444655 0.35999
vt 0.5291249 0.3657598
vt 0.5381529 0.3647228
vt 0.5388574 0.3597627
vt 0.530178 0.3604775
vt 0.5265557 0.3642212
vt 0.530178 0.3604775
vt 0.5291249 0.3657598
vt 0.5388574 0.3597627
vt 0.5381529 0.3647228
vn 0.9877796 0.1283304 0.08844703
vn 0.01320724 0.9995079 0.0284512
vn 0.9861265 0.1659503 -0.003887851
vn -0.001357953 0.8927086 0.4506322
vn 0.007595837 0.05504007 0.9984553
vn -0.98941 0.121816 0.07892118
vn -0.9892078 0.1465127 -0.001411543
vn 0.01320724 0.9995079 0.0284512
vn 0.9780315 0.1790829 -0.1066946
vn 0.9861265 0.1659503 -0.003887851
vn -0.005237743 0.78593 -0.6182931
vn 0.9422688 0.3281247 -0.06681231
vn -0.9791574 0.1759237 -0.1014967
vn -0.9892078 0.1465127 -0.001411543
vn -0.9472348 0.3166676 -0.04967679
vn -0.003042883 0.9763517 -0.2161669
vn 0.007745443 -0.6317129 -0.7751637
vn 0.007745443 -0.6317129 -0.7751637
vn -0.688517 -0.6649435 -0.2894729
vn 0.6821092 -0.6732262 -0.2854708
vn 0.8191463 -0.5637482 0.1057698
vn -0.8308491 -0.548272 0.09532971
vn 0.9377396 -0.3470468 -0.01425321
vn -0.9455425 -0.325363 -0.009400316
vn 0.007595837 0.05504007 0.9984553
vn -0.9658856 -0.2561279 0.03825811
vn 0.959917 -0.2775117 0.03932615
vn 0.959917 -0.2775117 0.03932615
vn 0.8191463 -0.5637482 0.1057698
vn -0.8308491 -0.548272 0.09532971
vn -0.9658856 -0.2561279 0.03825811
vn -0.9892078 0.1465127 -0.001411543
vn -0.9658856 -0.2561279 0.03825811
vn -0.8308491 -0.548272 0.09532971
vn -0.9791574 0.1759237 -0.1014967
vn -0.688517 -0.6649435 -0.2894729
vn -0.9472348 0.3166676 -0.04967679
vn 0.007745443 -0.6317129 -0.7751637
vn 0.6821092 -0.6732262 -0.2854708
vn 0.9422688 0.3281247 -0.06681231
vn 0.8191463 -0.5637482 0.1057698
vn 0.9780315 0.1790829 -0.1066946
vn 0.959917 -0.2775117 0.03932615
vn 0.9861265 0.1659503 -0.003887851
vn -0.9455425 -0.325363 -0.009400316
vn -0.9658856 -0.2561279 0.03825811
vn -0.9892078 0.1465127 -0.001411543
vn -0.98941 0.121816 0.07892118
vn 0.007595837 0.05504007 0.9984553
vn 0.9877796 0.1283304 0.08844703
vn 0.9377396 -0.3470468 -0.01425321
vn 0.9861265 0.1659503 -0.003887851
vn 0.959917 -0.2775117 0.03932615
vn -0.152797 0.9826559 0.1050738
vn -0.9994243 0.02069942 0.02688013
vn -0.1976005 0.9802706 -0.004863418
vn -0.8924969 -0.002172814 0.4510483
vn 0.01541406 0.01657032 0.9997439
vn -0.1356496 -0.9868618 0.08776741
vn -0.1621945 -0.9867582 -0.001112611
vn -0.9994243 0.02069942 0.02688013
vn -0.2100841 0.9695311 -0.1259925
vn -0.1976005 0.9802706 -0.004863418
vn -0.786086 -0.008032623 -0.618065
vn -0.378247 0.9222754 -0.07960674
vn -0.1981813 -0.9735656 -0.1135534
vn -0.1621945 -0.9867582 -0.001112611
vn -0.3539507 -0.9337896 -0.05249821
vn -0.9763072 -0.004367413 -0.216345
vn 0.6827409 0.01086983 -0.7305797
vn 0.6827409 0.01086983 -0.7305797
vn 0.7077681 -0.6363532 -0.3067879
vn 0.7140455 0.6312128 -0.3028356
vn 0.6190122 0.7768251 0.1156147
vn 0.6033871 -0.790562 0.1045744
vn 0.3945482 0.9187464 -0.01539342
vn 0.3709597 -0.9285737 -0.01183086
vn 0.01541406 0.01657032 0.9997439
vn 0.2922814 -0.9553176 0.04404649
vn 0.3160872 0.9476536 0.04518362
vn 0.3160872 0.9476536 0.04518362
vn 0.6190122 0.7768251 0.1156147
vn 0.6033871 -0.790562 0.1045744
vn 0.2922814 -0.9553176 0.04404649
vn -0.1621945 -0.9867582 -0.001112611
vn 0.2922814 -0.9553176 0.04404649
vn 0.6033871 -0.790562 0.1045744
vn -0.1981813 -0.9735656 -0.1135534
vn 0.7077681 -0.6363532 -0.3067879
vn -0.3539507 -0.9337896 -0.05249821
vn 0.6827409 0.01086983 -0.7305797
vn 0.7140455 0.6312128 -0.3028356
vn -0.378247 0.9222754 -0.07960674
vn 0.6190122 0.7768251 0.1156147
vn -0.2100841 0.9695311 -0.1259925
vn 0.3160872 0.9476536 0.04518362
vn -0.1976005 0.9802706 -0.004863418
vn 0.3709597 -0.9285737 -0.01183086
vn 0.2922814 -0.9553176 0.04404649
vn -0.1621945 -0.9867582 -0.001112611
vn -0.1356496 -0.9868618 0.08776741
vn 0.01541406 0.01657032 0.9997439
vn -0.152797 0.9826559 0.1050738
vn 0.3945482 0.9187464 -0.01539342
vn -0.1976005 0.9802706 -0.004863418
vn 0.3160872 0.9476536 0.04518362
vn -0.9877796 -0.1283304 0.08844703
vn -0.01320724 -0.9995079 0.0284512
vn -0.9861265 -0.1659503 -0.003887851
vn 0.001357953 -0.8927086 0.4506322
vn -0.007595837 -0.05504007 0.9984553
vn 0.98941 -0.121816 0.07892118
vn 0.9892078 -0.1465127 -0.001411543
vn -0.01320724 -0.9995079 0.0284512
vn -0.9780315 -0.1790829 -0.1066946
vn -0.9861265 -0.1659503 -0.003887851
vn 0.005237743 -0.78593 -0.6182931
vn -0.9422688 -0.3281247 -0.06681231
vn 0.9791574 -0.1759237 -0.1014967
vn 0.9892078 -0.1465127 -0.001411543
vn 0.9472348 -0.3166676 -0.04967678
vn 0.003042883 -0.9763517 -0.2161669
vn -0.007745443 0.6317129 -0.7751637
vn -0.007745443 0.6317129 -0.7751637
vn 0.688517 0.6649434 -0.2894728
vn -0.6821092 0.6732262 -0.2854707
vn -0.8191464 0.5637481 0.1057697
vn 0.8308492 0.5482718 0.09532967
vn -0.9377396 0.3470468 -0.01425321
vn 0.9455425 0.325363 -0.009400316
vn -0.007595837 -0.05504007 0.9984553
vn 0.9658856 0.2561278 0.03825807
vn -0.9599171 0.2775117 0.03932612
vn -0.9599171 0.2775117 0.03932612
vn -0.8191464 0.5637481 0.1057697
vn 0.8308492 0.5482718 0.09532967
vn 0.9658856 0.2561278 0.03825807
vn 0.9892078 -0.1465127 -0.001411543
vn 0.9658856 0.2561278 0.03825807
vn 0.8308492 0.5482718 0.09532967
vn 0.9791574 -0.1759237 -0.1014967
vn 0.688517 0.6649434 -0.2894728
vn 0.9472348 -0.3166676 -0.04967678
vn -0.007745443 0.6317129 -0.7751637
vn -0.6821092 0.6732262 -0.2854707
vn -0.9422688 -0.3281247 -0.06681231
vn -0.8191464 0.5637481 0.1057697
vn -0.9780315 -0.1790829 -0.1066946
vn -0.9599171 0.2775117 0.03932612
vn -0.9861265 -0.1659503 -0.003887851
vn 0.9455425 0.325363 -0.009400316
vn 0.9658856 0.2561278 0.03825807
vn 0.9892078 -0.1465127 -0.001411543
vn 0.98941 -0.121816 0.07892118
vn -0.007595837 -0.05504007 0.9984553
vn -0.9877796 -0.1283304 0.08844703
vn -0.9377396 0.3470468 -0.01425321
vn -0.9861265 -0.1659503 -0.003887851
vn -0.9599171 0.2775117 0.03932612
vn 0.152797 -0.9826559 0.1050738
vn 0.9994243 -0.02069942 0.02688012
vn 0.1976005 -0.9802706 -0.004863428
vn 0.8924969 0.002172814 0.4510482
vn -0.01541235 -0.01657033 0.9997439
vn 0.1356496 0.9868618 0.08776741
vn 0.1621945 0.9867582 -0.001112616
vn 0.9994243 -0.02069942 0.02688012
vn 0.2100841 -0.9695311 -0.1259925
vn 0.1976005 -0.9802706 -0.004863428
vn 0.786086 0.008032623 -0.618065
vn 0.378247 -0.9222754 -0.07960674
vn 0.1981812 0.9735656 -0.1135533
vn 0.1621945 0.9867582 -0.001112616
vn 0.3539507 0.9337896 -0.05249817
vn 0.9763072 0.004367413 -0.216345
vn -0.6827409 -0.01086983 -0.7305797
vn -0.6827409 -0.01086983 -0.7305797
vn -0.707768 0.6363534 -0.3067881
vn -0.7140453 -0.6312131 -0.3028358
vn -0.6190125 -0.7768248 0.1156147
vn -0.6033876 0.7905616 0.1045744
vn -0.3945482 -0.9187464 -0.01539344
vn -0.3709597 0.9285737 -0.01183088
vn -0.01541235 -0.01657033 0.9997439
vn -0.2922816 0.9553174 0.04404652
vn -0.3160873 -0.9476535 0.04518365
vn -0.3160873 -0.9476535 0.04518365
vn -0.6190125 -0.7768248 0.1156147
vn -0.6033876 0.7905616 0.1045744
vn -0.2922816 0.9553174 0.04404652
vn 0.1621945 0.9867582 -0.001112616
vn -0.2922816 0.9553174 0.04404652
vn -0.6033876 0.7905616 0.1045744
vn 0.1981812 0.9735656 -0.1135533
vn -0.707768 0.6363534 -0.3067881
vn 0.3539507 0.9337896 -0.05249817
vn -0.6827409 -0.01086983 -0.7305797
vn -0.7140453 -0.6312131 -0.3028358
vn 0.378247 -0.9222754 -0.07960674
vn -0.6190125 -0.7768248 0.1156147
vn 0.2100841 -0.9695311 -0.1259925
vn -0.3160873 -0.9476535 0.04518365
vn 0.1976005 -0.9802706 -0.004863428
vn -0.3709597 0.9285737 -0.01183088
vn -0.2922816 0.9553174 0.04404652
vn 0.1621945 0.9867582 -0.001112616
vn 0.1356496 0.9868618 0.08776741
vn -0.01541235 -0.01657033 0.9997439
vn 0.152797 -0.9826559 0.1050738
vn -0.3945482 -0.9187464 -0.01539344
vn 0.1976005 -0.9802706 -0.004863428
vn -0.3160873 -0.9476535 0.04518365
g hammer_basic_008_blade_0
f 3/3/3 2/2/2 1/1/1
f 2/2/2 4/4/4 1/1/1
f 1/1/1 4/4/4 5/5/5
f 4/4/4 6/6/6 5/5/5
f 4/4/4 2/2/2 6/6/6
f 2/2/2 7/7/7 6/6/6
f 10/10/10 9/9/9 8/8/8
f 9/9/9 11/11/11 8/8/8
f 9/9/9 12/12/12 11/11/11
f 11/11/11 13/13/13 8/8/8
f 13/13/13 14/14/14 8/8/8
f 15/15/15 13/13/13 11/11/11
f 12/12/12 16/16/16 11/11/11
f 16/16/16 15/15/15 11/11/11
f 12/12/12 17/17/17 16/16/16
f 17/17/17 15/15/15 16/16/16
f 20/20/20 19/19/19 18/18/18
f 19/19/19 20/20/20 21/21/21
f 22/22/22 19/19/19 21/21/21
f 25/25/25 24/24/24 23/23/23
f 24/24/24 26/26/26 23/23/23
f 26/26/26 27/27/27 23/23/23
f 30/30/30 29/29/29 28/28/28
f 31/31/31 30/30/30 28/28/28
f 34/34/34 33/33/33 32/32/32
f 35/35/35 34/34/34 32/32/32
f 36/36/36 34/34/34 35/35/35
f 37/37/37 36/36/36 35/35/35
f 38/38/38 36/36/36 37/37/37
f 40/40/40 39/39/39 38/38/38
f 41/41/41 39/39/39 40/40/40
f 42/42/42 41/41/41 40/40/40
f 43/43/43 41/41/41 42/42/42
f 44/44/44 43/43/43 42/42/42
f 47/47/47 46/46/46 45/45/45
f 48/48/48 47/47/47 45/45/45
f 48/48/48 45/45/45 49/49/49
f 51/51/51 50/50/50 49/49/49
f 52/52/52 50/50/50 51/51/51
f 53/53/53 52/52/52 51/51/51
f 56/56/56 55/55/55 54/54/54
f 55/55/55 57/57/57 54/54/54
f 54/54/54 57/57/57 58/58/58
f 57/57/57 59/59/59 58/58/58
f 57/57/57 55/55/55 59/59/59
f 55/55/55 60/60/60 59/59/59
f 63/63/63 62/62/62 61/61/61
f 62/62/62 64/64/64 61/61/61
f 62/62/62 65/65/65 64/64/64
f 64/64/64 66/66/66 61/61/61
f 66/66/66 67/67/67 61/61/61
f 68/68/68 66/66/66 64/64/64
f 65/65/65 69/69/69 64/64/64
f 69/69/69 68/68/68 64/64/64
f 65/65/65 70/70/70 69/69/69
f 70/70/70 68/68/68 69/69/69
f 73/73/73 72/72/72 71/71/71
f 72/72/72 73/73/73 74/74/74
f 75/75/75 72/72/72 74/74/74
f 78/78/78 77/77/77 76/76/76
f 77/77/77 79/79/79 76/76/76
f 79/79/79 80/80/80 76/76/76
f 83/83/83 82/82/82 81/81/81
f 84/84/84 83/83/83 81/81/81
f 87/87/87 86/86/86 85/85/85
f 88/88/88 87/87/87 85/85/85
f 89/89/89 87/87/87 88/88/88
f 90/90/90 89/89/89 88/88/88
f 91/91/91 89/89/89 90/90/90
f 93/93/93 92/92/92 91/91/91
f 94/94/94 92/92/92 93/93/93
f 95/95/95 94/94/94 93/93/93
f 96/96/96 94/94/94 95/95/95
f 97/97/97 96/96/96 95/95/95
f 100/100/100 99/99/99 98/98/98
f 101/101/101 100/100/100 98/98/98
f 101/101/101 98/98/98 102/102/102
f 104/104/104 103/103/103 102/102/102
f 105/105/105 103/103/103 104/104/104
f 106/106/106 105/105/105 104/104/104
f 109/109/109 108/108/108 107/107/107
f 108/108/108 110/110/110 107/107/107
f 107/107/107 110/110/110 111/111/111
f 110/110/110 112/112/112 111/111/111
f 110/110/110 108/108/108 112/112/112
f 108/108/108 113/113/113 112/112/112
f 116/116/116 115/115/115 114/114/114
f 115/115/115 117/117/117 114/114/114
f 115/115/115 118/118/118 117/117/117
f 117/117/117 119/119/119 114/114/114
f 119/119/119 120/120/120 114/114/114
f 121/121/121 119/119/119 117/117/117
f 118/118/118 122/122/122 117/117/117
f 122/122/122 121/121/121 117/117/117
f 118/118/118 123/123/123 122/122/122
f 123/123/123 121/121/121 122/122/122
f 126/126/126 125/125/125 124/124/124
f 125/125/125 126/126/126 127/127/127
f 128/128/128 125/125/125 127/127/127
f 131/131/131 130/130/130 129/129/129
f 130/130/130 132/132/132 129/129/129
f 132/132/132 133/133/133 129/129/129
f 136/136/136 135/135/135 134/134/134
f 137/137/137 136/136/136 134/134/134
f 140/140/140 139/139/139 138/138/138
f 141/141/141 140/140/140 138/138/138
f 142/142/142 140/140/140 141/141/141
f 143/143/143 142/142/142 141/141/141
f 144/144/144 142/142/142 143/143/143
f 146/146/146 145/145/145 144/144/144
f 147/147/147 145/145/145 146/146/146
f 148/148/148 147/147/147 146/146/146
f 149/149/149 147/147/147 148/148/148
f 150/150/150 149/149/149 148/148/148
f 153/153/153 152/152/152 151/151/151
f 154/154/154 153/153/153 151/151/151
f 154/154/154 151/151/151 155/155/155
f 157/157/157 156/156/156 155/155/155
f 158/158/158 156/156/156 157/157/157
f 159/159/159 158/158/158 157/157/157
f 162/162/162 161/161/161 160/160/160
f 161/161/161 163/163/163 160/160/160
f 160/160/160 163/163/163 164/164/164
f 163/163/163 165/165/165 164/164/164
f 163/163/163 161/161/161 165/165/165
f 161/161/161 166/166/166 165/165/165
f 169/169/169 168/168/168 167/167/167
f 168/168/168 170/170/170 167/167/167
f 168/168/168 171/171/171 170/170/170
f 170/170/170 172/172/172 167/167/167
f 172/172/172 173/173/173 167/167/167
f 174/174/174 172/172/172 170/170/170
f 171/171/171 175/175/175 170/170/170
f 175/175/175 174/174/174 170/170/170
f 171/171/171 176/176/176 175/175/175
f 176/176/176 174/174/174 175/175/175
f 179/179/179 178/178/178 177/177/177
f 178/178/178 179/179/179 180/180/180
f 181/181/181 178/178/178 180/180/180
f 184/184/184 183/183/183 182/182/182
f 183/183/183 185/185/185 182/182/182
f 185/185/185 186/186/186 182/182/182
f 189/189/189 188/188/188 187/187/187
f 190/190/190 189/189/189 187/187/187
f 193/193/193 192/192/192 191/191/191
f 194/194/194 193/193/193 191/191/191
f 195/195/195 193/193/193 194/194/194
f 196/196/196 195/195/195 194/194/194
f 197/197/197 195/195/195 196/196/196
f 199/199/199 198/198/198 197/197/197
f 200/200/200 198/198/198 199/199/199
f 201/201/201 200/200/200 199/199/199
f 202/202/202 200/200/200 201/201/201
f 203/203/203 202/202/202 201/201/201
f 206/206/206 205/205/205 204/204/204
f 207/207/207 206/206/206 204/204/204
f 207/207/207 204/204/204 208/208/208
f 210/210/210 209/209/209 208/208/208
f 211/211/211 209/209/209 210/210/210
f 212/212/212 211/211/211 210/210/210
