g hammer_basic_005_blade
v -0.1886498 -1.044374E-08 0.990298
v -0.3848097 -3.031291E-09 0.9379745
v -0.1886498 0.06041804 0.9379745
v -0.1886498 0.06041804 0.9379745
v -0.3848097 -3.031291E-09 0.9379745
v -0.1886498 3.481249E-09 0.8856508
v -0.1886498 3.481249E-09 0.8856508
v -0.3848097 -3.031291E-09 0.9379745
v -0.1886498 -0.06041804 0.9379745
v -0.1886498 -0.06041804 0.9379745
v -0.3848097 -3.031291E-09 0.9379745
v -0.1886498 -1.044374E-08 0.990298
v -0.1204868 0.1204868 1.034372
v -0.1924049 0.1924049 1.210076
v -0.137047 0.05160297 1.07137
v -0.137047 0.05160297 1.07137
v -0.1924049 0.1924049 1.210076
v -0.06816309 0.06816309 1.108368
v -0.06816309 0.06816309 1.108368
v -0.1924049 0.1924049 1.210076
v -0.05160297 0.137047 1.07137
v -0.05160297 0.137047 1.07137
v -0.1924049 0.1924049 1.210076
v -0.1204868 0.1204868 1.034372
v 4.641669E-09 0.05232357 1.126624
v 9.003752E-10 2.980405E-09 1.322784
v -0.06041804 1.160416E-08 1.126624
v -0.06041804 1.160416E-08 1.126624
v 9.003752E-10 2.980405E-09 1.322784
v -9.283323E-09 -0.05232356 1.126624
v -9.283323E-09 -0.05232356 1.126624
v 0.06041804 -2.320831E-09 1.126624
v 0.06041804 -2.320831E-09 1.126624
v 9.003752E-10 2.980405E-09 1.322784
v 4.641669E-09 0.05232357 1.126624
v 1.044375E-08 0.1886498 0.8856508
v 3.031296E-09 0.3848097 0.9379745
v -0.06041804 0.1886498 0.9379745
v -0.06041804 0.1886498 0.9379745
v 3.031296E-09 0.3848097 0.9379745
v -3.481244E-09 0.1886498 0.990298
v -3.481244E-09 0.1886498 0.990298
v 3.031296E-09 0.3848097 0.9379745
v 0.06041804 0.1886498 0.9379745
v 0.06041804 0.1886498 0.9379745
v 3.031296E-09 0.3848097 0.9379745
v 1.044375E-08 0.1886498 0.8856508
v 0.1886498 1.044374E-08 0.990298
v 0.3848097 3.031292E-09 0.9379745
v 0.1886498 -0.06041804 0.9379745
v 0.1886498 -0.06041804 0.9379745
v 0.3848097 3.031292E-09 0.9379745
v 0.1886498 -3.481247E-09 0.8856508
v 0.1886498 -3.481247E-09 0.8856508
v 0.3848097 3.031292E-09 0.9379745
v 0.1886498 0.06041804 0.9379745
v 0.1886498 0.06041804 0.9379745
v 0.3848097 3.031292E-09 0.9379745
v 0.1886498 1.044374E-08 0.990298
v 0.1204868 0.1204868 1.034372
v 0.1924049 0.1924049 1.210076
v 0.05160297 0.137047 1.07137
v 0.05160297 0.137047 1.07137
v 0.1924049 0.1924049 1.210076
v 0.06816309 0.06816309 1.108368
v 0.06816309 0.06816309 1.108368
v 0.1924049 0.1924049 1.210076
v 0.137047 0.05160297 1.07137
v 0.137047 0.05160297 1.07137
v 0.1924049 0.1924049 1.210076
v 0.1204868 0.1204868 1.034372
v 0.06812033 0.06812032 0.7677265
v 0.1923621 0.1923621 0.6660187
v 0.05156006 0.1370041 0.8047248
v 0.05156006 0.1370041 0.8047248
v 0.1923621 0.1923621 0.6660187
v 0.1204439 0.1204439 0.8417234
v 0.1204439 0.1204439 0.8417234
v 0.1923621 0.1923621 0.6660187
v 0.1370041 0.05156006 0.8047248
v 0.1370041 0.05156006 0.8047248
v 0.1923621 0.1923621 0.6660187
v 0.06812033 0.06812032 0.7677265
v -0.1204868 0.1204868 0.8415772
v -0.1924049 0.1924049 0.6658731
v -0.137047 0.05160297 0.8045789
v -0.137047 0.05160297 0.8045789
v -0.1924049 0.1924049 0.6658731
v -0.06816309 0.06816309 0.7675804
v -0.06816309 0.06816309 0.7675804
v -0.1924049 0.1924049 0.6658731
v -0.05160297 0.137047 0.8045789
v -0.05160297 0.137047 0.8045789
v -0.1924049 0.1924049 0.6658731
v -0.1204868 0.1204868 0.8415772
v -0.1204868 -0.1204868 0.8415772
v -0.1924049 -0.1924049 0.6658731
v -0.137047 -0.05160297 0.8045789
v -0.137047 -0.05160297 0.8045789
v -0.1924049 -0.1924049 0.6658731
v -0.06816309 -0.06816309 0.7675804
v -0.06816309 -0.06816309 0.7675804
v -0.1924049 -0.1924049 0.6658731
v -0.05160297 -0.137047 0.8045789
v -0.05160297 -0.137047 0.8045789
v -0.1924049 -0.1924049 0.6658731
v -0.1204868 -0.1204868 0.8415772
v -0.1204868 -0.1204868 1.034372
v -0.1924049 -0.1924049 1.210076
v -0.137047 -0.05160297 1.07137
v -0.137047 -0.05160297 1.07137
v -0.1924049 -0.1924049 1.210076
v -0.06816309 -0.06816309 1.108368
v -0.06816309 -0.06816309 1.108368
v -0.1924049 -0.1924049 1.210076
v -0.05160297 -0.137047 1.07137
v -0.05160297 -0.137047 1.07137
v -0.1924049 -0.1924049 1.210076
v -0.1204868 -0.1204868 1.034372
v 1.044375E-08 -0.1886498 0.8856508
v 3.031296E-09 -0.3848097 0.9379745
v -0.06041804 -0.1886498 0.9379745
v -0.06041804 -0.1886498 0.9379745
v 3.031296E-09 -0.3848097 0.9379745
v -3.481244E-09 -0.1886498 0.990298
v -3.481244E-09 -0.1886498 0.990298
v 3.031296E-09 -0.3848097 0.9379745
v 0.06041804 -0.1886498 0.9379745
v 0.06041804 -0.1886498 0.9379745
v 3.031296E-09 -0.3848097 0.9379745
v 1.044375E-08 -0.1886498 0.8856508
v 0.06812033 -0.06812032 0.7677265
v 0.1923621 -0.1923621 0.6660187
v 0.05156006 -0.1370041 0.8047248
v 0.05156006 -0.1370041 0.8047248
v 0.1923621 -0.1923621 0.6660187
v 0.1204439 -0.1204439 0.8417234
v 0.1204439 -0.1204439 0.8417234
v 0.1923621 -0.1923621 0.6660187
v 0.1370041 -0.05156006 0.8047248
v 0.1370041 -0.05156006 0.8047248
v 0.1923621 -0.1923621 0.6660187
v 0.06812033 -0.06812032 0.7677265
v 0.1204868 -0.1204868 1.034372
v 0.1924049 -0.1924049 1.210076
v 0.05160297 -0.137047 1.07137
v 0.05160297 -0.137047 1.07137
v 0.1924049 -0.1924049 1.210076
v 0.06816309 -0.06816309 1.108368
v 0.06816309 -0.06816309 1.108368
v 0.1924049 -0.1924049 1.210076
v 0.137047 -0.05160297 1.07137
v 0.137047 -0.05160297 1.07137
v 0.1924049 -0.1924049 1.210076
v 0.1204868 -0.1204868 1.034372
v -0.0803042 0.08030424 0.7414055
v -0.139091 0.1390911 0.8245426
v -0.1967044 5.943824E-16 0.8245426
v -0.1135674 5.851524E-16 0.7414055
v 4.334326E-15 5.725439E-16 0.7109754
v 4.371489E-15 0.1135674 0.7414055
v -0.139091 -0.1390911 0.8245426
v -0.0803042 -0.08030424 0.7414055
v 4.47302E-15 0.1967045 0.8245426
v 0.08030424 0.08030424 0.7414055
v -0.2271347 5.977609E-16 0.9381101
v -0.1606085 -0.1606085 0.9381101
v -0.1606085 0.1606085 0.9381101
v 4.47302E-15 -0.1967044 0.8245426
v 4.371489E-15 -0.1135674 0.7414055
v 4.611713E-15 -0.2271347 0.9381101
v 0.1390911 0.1390911 0.8245426
v 0.1135674 5.599354E-16 0.7414055
v 0.08030424 -0.08030424 0.7414055
v 0.1390911 -0.1390911 0.8245426
v 0.1967045 5.507052E-16 0.8245426
v 4.611713E-15 0.2271348 0.9381101
v 0.1606085 -0.1606085 0.9381101
v 0.2271347 5.473269E-16 0.9381101
v 0.1606085 0.1606085 0.9381101
v -0.139091 0.1390911 1.051677
v 4.750407E-15 0.1967045 1.051677
v 0.1390911 0.1390911 1.051677
v 0.1967045 5.507052E-16 1.051677
v 0.1390911 -0.1390911 1.051677
v -0.1967044 5.943824E-16 1.051677
v 4.750407E-15 -0.1967044 1.051677
v -0.139091 -0.1390911 1.051677
v 4.851938E-15 0.1135674 1.134814
v 0.08030424 0.08030424 1.134814
v 4.8891E-15 5.725439E-16 1.165245
v -0.0803042 0.08030424 1.134814
v 0.1135674 5.599354E-16 1.134814
v -0.1135674 5.851524E-16 1.134814
v 0.08030424 -0.08030424 1.134814
v -0.0803042 -0.08030424 1.134814
v 4.851938E-15 -0.1135674 1.134814
vt 0.5468376 0.430656
vt 0.5547016 0.430656
vt 0.5468376 0.4325183
vt 0.5245476 0.4328279
vt 0.534861 0.4309656
vt 0.5245476 0.4309656
vt 0.5292935 0.4312648
vt 0.5385633 0.4312648
vt 0.5292935 0.4294026
vt 0.5401273 0.4300816
vt 0.5487948 0.4319439
vt 0.5401273 0.4319439
vt 0.5476722 0.430656
vt 0.5579804 0.430656
vt 0.5476722 0.4325183
vt 0.5440457 0.4328279
vt 0.5488381 0.4309656
vt 0.5440457 0.4309656
vt 0.5345916 0.4312648
vt 0.5455061 0.4312648
vt 0.5345916 0.4294026
vt 0.5272332 0.4300816
vt 0.5355911 0.4319439
vt 0.5272332 0.4319439
vt 0.5458755 0.430656
vt 0.5556635 0.430656
vt 0.5458755 0.4325183
vt 0.5419897 0.4328279
vt 0.550184 0.4309656
vt 0.5419897 0.4309656
vt 0.5284571 0.4312648
vt 0.5284571 0.4294026
vt 0.5220392 0.4300816
vt 0.5468941 0.4319439
vt 0.5220392 0.4319439
vt 0.5346192 0.430656
vt 0.5408723 0.430656
vt 0.5346192 0.4325183
vt 0.5475532 0.433343
vt 0.5559543 0.4314808
vt 0.5475532 0.4314808
vt 0.5341061 0.4312648
vt 0.5419936 0.4312648
vt 0.534106 0.4294026
vt 0.5251357 0.4300816
vt 0.5338032 0.4319439
vt 0.5251357 0.4319439
vt 0.5371054 0.430656
vt 0.5444976 0.430656
vt 0.5371054 0.4325183
vt 0.5279565 0.4328279
vt 0.5339101 0.4309656
vt 0.5279565 0.4309656
vt 0.524973 0.4312648
vt 0.5323514 0.4312648
vt 0.524973 0.4294026
vt 0.5410904 0.4300816
vt 0.5504826 0.4319439
vt 0.5410904 0.4319439
vt 0.5304908 0.430656
vt 0.5400221 0.430656
vt 0.5304908 0.4325183
vt 0.5449725 0.4328279
vt 0.5537813 0.4309656
vt 0.5449725 0.4309656
vt 0.5391911 0.4312648
vt 0.5472451 0.4312648
vt 0.5391911 0.4294026
vt 0.5252967 0.4300816
vt 0.5323203 0.4319439
vt 0.5252967 0.4319439
vt 0.5303563 0.430656
vt 0.5339447 0.430656
vt 0.5303563 0.4325183
vt 0.5376372 0.4328279
vt 0.5410336 0.4309656
vt 0.5376372 0.4309656
vt 0.5284918 0.4312648
vt 0.5327644 0.4312648
vt 0.5284917 0.4294026
vt 0.5246589 0.4300816
vt 0.5289213 0.4319439
vt 0.5246589 0.4319439
vt 0.5450964 0.430656
vt 0.5554045 0.430656
vt 0.5450964 0.4325183
vt 0.529308 0.4328279
vt 0.5392596 0.4309656
vt 0.529308 0.4309656
vt 0.5263488 0.4312648
vt 0.5372633 0.4312648
vt 0.5263488 0.4294026
vt 0.5396503 0.4300816
vt 0.5458418 0.4319439
vt 0.5396503 0.4319439
vt 0.5450964 0.430656
vt 0.5554045 0.430656
vt 0.5450964 0.4325183
vt 0.529308 0.4328279
vt 0.5392596 0.4309656
vt 0.529308 0.4309656
vt 0.5263488 0.4312648
vt 0.5372633 0.4312648
vt 0.5263488 0.4294026
vt 0.5396503 0.4300816
vt 0.5458418 0.4319439
vt 0.5396503 0.4319439
vt 0.5476722 0.430656
vt 0.5579804 0.430656
vt 0.5476722 0.4325183
vt 0.5440457 0.4328279
vt 0.5488381 0.4309656
vt 0.5440457 0.4309656
vt 0.5345916 0.4312648
vt 0.5455061 0.4312648
vt 0.5345916 0.4294026
vt 0.5272332 0.4300816
vt 0.5355911 0.4319439
vt 0.5272332 0.4319439
vt 0.5346192 0.430656
vt 0.5408723 0.430656
vt 0.5346192 0.4325183
vt 0.5475532 0.433343
vt 0.5559543 0.4314808
vt 0.5475532 0.4314808
vt 0.5341061 0.4312648
vt 0.5419936 0.4312648
vt 0.534106 0.4294026
vt 0.5251357 0.4300816
vt 0.5338032 0.4319439
vt 0.5251357 0.4319439
vt 0.5303563 0.430656
vt 0.5339447 0.430656
vt 0.5303563 0.4325183
vt 0.5376372 0.4328279
vt 0.5410336 0.4309656
vt 0.5376372 0.4309656
vt 0.5284918 0.4312648
vt 0.5327644 0.4312648
vt 0.5284917 0.4294026
vt 0.5246589 0.4300816
vt 0.5289213 0.4319439
vt 0.5246589 0.4319439
vt 0.5304908 0.430656
vt 0.5400221 0.430656
vt 0.5304908 0.4325183
vt 0.5449725 0.4328279
vt 0.5537813 0.4309656
vt 0.5449725 0.4309656
vt 0.5391911 0.4312648
vt 0.5472451 0.4312648
vt 0.5391911 0.4294026
vt 0.5252967 0.4300816
vt 0.5323203 0.4319439
vt 0.5252967 0.4319439
vt 0.5239531 0.433289
vt 0.5297862 0.4337724
vt 0.5302743 0.4343549
vt 0.5242349 0.4336253
vt 0.5213202 0.4325176
vt 0.5232729 0.432477
vt 0.5297862 0.4337724
vt 0.5239531 0.433289
vt 0.5286082 0.4323661
vt 0.5225928 0.4316651
vt 0.53782 0.4345111
vt 0.5372565 0.4338384
vt 0.5372565 0.4338384
vt 0.5286082 0.4323661
vt 0.5232729 0.432477
vt 0.5358962 0.4322146
vt 0.5274301 0.4309598
vt 0.522311 0.4313288
vt 0.5225928 0.4316651
vt 0.5274301 0.4309598
vt 0.5269421 0.4303772
vt 0.5358962 0.4322146
vt 0.5345359 0.4305906
vt 0.5339724 0.429918
vt 0.5345359 0.4305906
vt 0.5443623 0.4334693
vt 0.5431843 0.432063
vt 0.5420061 0.4306567
vt 0.5415182 0.4300741
vt 0.5420061 0.4306567
vt 0.5448503 0.4340518
vt 0.5431843 0.432063
vt 0.5443623 0.4334693
vt 0.5485194 0.431952
vt 0.5478393 0.4311401
vt 0.5504723 0.4319114
vt 0.5491996 0.432764
vt 0.5475575 0.4308038
vt 0.5494813 0.4331003
vt 0.5478393 0.4311401
vt 0.5491996 0.432764
vt 0.5485194 0.431952
vn -0.2577283 0 0.9662175
vn -1 0 0
vn -0.2943581 0.9556952 0
vn -0.2943581 0.9556952 0
vn -1 0 0
vn -0.2577282 0 -0.9662175
vn -0.2577282 0 -0.9662175
vn -1 0 0
vn -0.294358 -0.9556953 0
vn -0.294358 -0.9556953 0
vn -1 0 0
vn -0.2577283 0 0.9662175
vn -0.6119717 0.6119736 -0.5009779
vn -0.499993 0.4999943 0.7071157
vn -0.8229568 -0.5286001 0.208144
vn -0.8229568 -0.5286001 0.208144
vn -0.499993 0.4999943 0.7071157
vn 0.3542439 -0.3542451 0.8654604
vn 0.3542439 -0.3542451 0.8654604
vn -0.499993 0.4999943 0.7071157
vn 0.5286018 0.822956 0.2081435
vn 0.5286018 0.822956 0.2081435
vn -0.499993 0.4999943 0.7071157
vn -0.6119717 0.6119736 -0.5009779
vn 0 0.9662175 0.257728
vn 0 0 1
vn -0.9556953 0 0.2943579
vn -0.9556953 0 0.2943579
vn 0 0 1
vn 0 -0.9662176 0.257728
vn 0 -0.9662176 0.257728
vn 0.9556953 0 0.2943579
vn 0.9556953 0 0.2943579
vn 0 0 1
vn 0 0.9662175 0.257728
vn 0 0.2577285 -0.9662173
vn 0 1 0
vn -0.9556952 0.2943581 0
vn -0.9556952 0.2943581 0
vn 0 1 0
vn 0 0.257728 0.9662175
vn 0 0.257728 0.9662175
vn 0 1 0
vn 0.9556952 0.294358 0
vn 0.9556952 0.294358 0
vn 0 1 0
vn 0 0.2577285 -0.9662173
vn 0.2577283 0 0.9662175
vn 1 0 0
vn 0.2943581 -0.9556952 0
vn 0.2943581 -0.9556952 0
vn 1 0 0
vn 0.2577282 0 -0.9662175
vn 0.2577282 0 -0.9662175
vn 1 0 0
vn 0.294358 0.9556953 0
vn 0.294358 0.9556953 0
vn 1 0 0
vn 0.2577283 0 0.9662175
vn 0.6119719 0.6119733 -0.5009781
vn 0.4999937 0.4999946 0.707115
vn -0.5286018 0.822956 0.2081435
vn -0.5286018 0.822956 0.2081435
vn 0.4999937 0.4999946 0.707115
vn -0.3542439 -0.354245 0.8654604
vn -0.3542439 -0.354245 0.8654604
vn 0.4999937 0.4999946 0.707115
vn 0.8229572 -0.5285999 0.2081435
vn 0.8229572 -0.5285999 0.2081435
vn 0.4999937 0.4999946 0.707115
vn 0.6119719 0.6119733 -0.5009781
vn -0.3542448 -0.3542447 -0.8654601
vn 0.5000026 0.5000037 -0.7071022
vn -0.5285991 0.8229582 -0.2081415
vn -0.5285991 0.8229582 -0.2081415
vn 0.5000026 0.5000037 -0.7071022
vn 0.6119727 0.6119732 0.5009773
vn 0.6119727 0.6119732 0.5009773
vn 0.5000026 0.5000037 -0.7071022
vn 0.8229588 -0.5285984 -0.208141
vn 0.8229588 -0.5285984 -0.208141
vn 0.5000026 0.5000037 -0.7071022
vn -0.3542448 -0.3542447 -0.8654601
vn 0.6119727 -0.6119729 -0.5009777
vn 0.4999975 -0.499998 0.7071099
vn 0.8229572 0.5285996 0.2081436
vn 0.8229572 0.5285996 0.2081436
vn 0.4999975 -0.499998 0.7071099
vn -0.3542437 0.3542435 0.8654612
vn -0.3542437 0.3542435 0.8654612
vn 0.4999975 -0.499998 0.7071099
vn -0.5285994 -0.8229575 0.2081434
vn -0.5285994 -0.8229575 0.2081434
vn 0.4999975 -0.499998 0.7071099
vn 0.6119727 -0.6119729 -0.5009777
vn -0.6119727 -0.6119729 0.5009777
vn -0.4999975 -0.499998 -0.7071099
vn -0.8229572 0.5285996 -0.2081436
vn -0.8229572 0.5285996 -0.2081436
vn -0.4999975 -0.499998 -0.7071099
vn 0.3542437 0.3542435 -0.8654612
vn 0.3542437 0.3542435 -0.8654612
vn -0.4999975 -0.499998 -0.7071099
vn 0.5285994 -0.8229575 -0.2081434
vn 0.5285994 -0.8229575 -0.2081434
vn -0.4999975 -0.499998 -0.7071099
vn -0.6119727 -0.6119729 0.5009777
vn 0.6119717 0.6119736 0.5009779
vn 0.499993 0.4999943 -0.7071157
vn 0.8229568 -0.5286001 -0.208144
vn 0.8229568 -0.5286001 -0.208144
vn 0.499993 0.4999943 -0.7071157
vn -0.3542439 -0.3542451 -0.8654604
vn -0.3542439 -0.3542451 -0.8654604
vn 0.499993 0.4999943 -0.7071157
vn -0.5286018 0.822956 -0.2081435
vn -0.5286018 0.822956 -0.2081435
vn 0.499993 0.4999943 -0.7071157
vn 0.6119717 0.6119736 0.5009779
vn 0 0.2577285 0.9662173
vn 0 1 0
vn 0.9556952 0.2943581 0
vn 0.9556952 0.2943581 0
vn 0 1 0
vn 0 0.257728 -0.9662175
vn 0 0.257728 -0.9662175
vn 0 1 0
vn -0.9556952 0.294358 0
vn -0.9556952 0.294358 0
vn 0 1 0
vn 0 0.2577285 0.9662173
vn 0.3542448 -0.3542447 0.8654601
vn -0.5000026 0.5000037 0.7071022
vn 0.5285991 0.8229582 0.2081415
vn 0.5285991 0.8229582 0.2081415
vn -0.5000026 0.5000037 0.7071022
vn -0.6119727 0.6119732 -0.5009773
vn -0.6119727 0.6119732 -0.5009773
vn -0.5000026 0.5000037 0.7071022
vn -0.8229588 -0.5285984 0.208141
vn -0.8229588 -0.5285984 0.208141
vn -0.5000026 0.5000037 0.7071022
vn 0.3542448 -0.3542447 0.8654601
vn -0.6119719 0.6119733 0.5009781
vn -0.4999937 0.4999946 -0.707115
vn 0.5286018 0.822956 -0.2081435
vn 0.5286018 0.822956 -0.2081435
vn -0.4999937 0.4999946 -0.707115
vn 0.3542439 -0.354245 -0.8654604
vn 0.3542439 -0.354245 -0.8654604
vn -0.4999937 0.4999946 -0.707115
vn -0.8229572 -0.5285999 -0.2081435
vn -0.8229572 -0.5285999 -0.2081435
vn -0.4999937 0.4999946 -0.707115
vn -0.6119719 0.6119733 0.5009781
vn -0.4487631 0.4487629 -0.7728024
vn -0.6367102 0.6367103 -0.4349714
vn -0.9004441 0 -0.4349716
vn -0.6346467 0 -0.7728024
vn 0 0 -1
vn 0 0.6346465 -0.7728025
vn -0.63671 -0.6367104 -0.4349715
vn -0.4487629 -0.4487629 -0.7728025
vn 0 0.9004443 -0.4349714
vn 0.4487629 0.4487628 -0.7728025
vn -1 0 0
vn -0.7071068 -0.7071067 0
vn -0.7071068 0.7071066 0
vn 0 -0.9004443 -0.4349713
vn 0 -0.6346465 -0.7728025
vn 0 -1 0
vn 0.6367104 0.6367102 -0.4349712
vn 0.6346465 0 -0.7728026
vn 0.4487629 -0.4487629 -0.7728026
vn 0.6367102 -0.6367104 -0.4349713
vn 0.9004443 0 -0.4349713
vn 0 1 0
vn 0.7071068 -0.7071068 0
vn 1 0 0
vn 0.7071069 0.7071066 0
vn -0.6367101 0.63671 0.4349719
vn 0 0.900444 0.4349719
vn 0.6367103 0.6367099 0.4349718
vn 0.9004441 0 0.4349717
vn 0.6367102 -0.63671 0.4349718
vn -0.900444 0 0.434972
vn 0 -0.900444 0.434972
vn -0.6367101 -0.63671 0.434972
vn 0 0.6346466 0.7728025
vn 0.4487632 0.4487627 0.7728024
vn 0 0 1
vn -0.4487634 0.4487628 0.7728022
vn 0.6346469 0 0.7728023
vn -0.6346471 0 0.7728021
vn 0.448763 -0.4487629 0.7728025
vn -0.4487633 -0.4487629 0.7728023
vn 0 -0.6346467 0.7728025
g hammer_basic_005_blade_0
f 3/3/3 2/2/2 1/1/1
f 6/6/6 5/5/5 4/4/4
f 9/9/9 8/8/8 7/7/7
f 12/12/12 11/11/11 10/10/10
f 15/15/15 14/14/14 13/13/13
f 18/18/18 17/17/17 16/16/16
f 21/21/21 20/20/20 19/19/19
f 24/24/24 23/23/23 22/22/22
f 27/27/27 26/26/26 25/25/25
f 30/30/30 29/29/29 28/28/28
f 32/32/32 29/29/29 31/31/31
f 35/35/35 34/34/34 33/33/33
f 38/38/38 37/37/37 36/36/36
f 41/41/41 40/40/40 39/39/39
f 44/44/44 43/43/43 42/42/42
f 47/47/47 46/46/46 45/45/45
f 50/50/50 49/49/49 48/48/48
f 53/53/53 52/52/52 51/51/51
f 56/56/56 55/55/55 54/54/54
f 59/59/59 58/58/58 57/57/57
f 62/62/62 61/61/61 60/60/60
f 65/65/65 64/64/64 63/63/63
f 68/68/68 67/67/67 66/66/66
f 71/71/71 70/70/70 69/69/69
f 74/74/74 73/73/73 72/72/72
f 77/77/77 76/76/76 75/75/75
f 80/80/80 79/79/79 78/78/78
f 83/83/83 82/82/82 81/81/81
f 86/86/86 85/85/85 84/84/84
f 89/89/89 88/88/88 87/87/87
f 92/92/92 91/91/91 90/90/90
f 95/95/95 94/94/94 93/93/93
f 98/98/98 97/97/97 96/96/96
f 101/101/101 100/100/100 99/99/99
f 104/104/104 103/103/103 102/102/102
f 107/107/107 106/106/106 105/105/105
f 110/110/110 109/109/109 108/108/108
f 113/113/113 112/112/112 111/111/111
f 116/116/116 115/115/115 114/114/114
f 119/119/119 118/118/118 117/117/117
f 122/122/122 121/121/121 120/120/120
f 125/125/125 124/124/124 123/123/123
f 128/128/128 127/127/127 126/126/126
f 131/131/131 130/130/130 129/129/129
f 134/134/134 133/133/133 132/132/132
f 137/137/137 136/136/136 135/135/135
f 140/140/140 139/139/139 138/138/138
f 143/143/143 142/142/142 141/141/141
f 146/146/146 145/145/145 144/144/144
f 149/149/149 148/148/148 147/147/147
f 152/152/152 151/151/151 150/150/150
f 155/155/155 154/154/154 153/153/153
f 158/158/158 157/157/157 156/156/156
f 159/159/159 158/158/158 156/156/156
f 156/156/156 160/160/160 159/159/159
f 156/156/156 157/157/157 161/161/161
f 161/161/161 160/160/160 156/156/156
f 162/162/162 158/158/158 159/159/159
f 159/159/159 160/160/160 163/163/163
f 163/163/163 162/162/162 159/159/159
f 157/157/157 164/164/164 161/161/161
f 165/165/165 160/160/160 161/161/161
f 161/161/161 164/164/164 165/165/165
f 158/158/158 166/166/166 157/157/157
f 162/162/162 167/167/167 158/158/158
f 167/167/167 166/166/166 158/158/158
f 157/157/157 168/168/168 164/164/164
f 166/166/166 168/168/168 157/157/157
f 169/169/169 162/162/162 163/163/163
f 163/163/163 160/160/160 170/170/170
f 170/170/170 169/169/169 163/163/163
f 171/171/171 167/167/167 162/162/162
f 169/169/169 171/171/171 162/162/162
f 164/164/164 172/172/172 165/165/165
f 173/173/173 160/160/160 165/165/165
f 165/165/165 172/172/172 173/173/173
f 170/170/170 160/160/160 174/174/174
f 174/174/174 160/160/160 173/173/173
f 175/175/175 169/169/169 170/170/170
f 174/174/174 175/175/175 170/170/170
f 173/173/173 176/176/176 174/174/174
f 172/172/172 176/176/176 173/173/173
f 176/176/176 175/175/175 174/174/174
f 164/164/164 177/177/177 172/172/172
f 168/168/168 177/177/177 164/164/164
f 175/175/175 178/178/178 169/169/169
f 178/178/178 171/171/171 169/169/169
f 176/176/176 179/179/179 175/175/175
f 179/179/179 178/178/178 175/175/175
f 172/172/172 180/180/180 176/176/176
f 177/177/177 180/180/180 172/172/172
f 180/180/180 179/179/179 176/176/176
f 168/168/168 181/181/181 177/177/177
f 177/177/177 182/182/182 180/180/180
f 181/181/181 182/182/182 177/177/177
f 180/180/180 183/183/183 179/179/179
f 182/182/182 183/183/183 180/180/180
f 179/179/179 184/184/184 178/178/178
f 183/183/183 184/184/184 179/179/179
f 178/178/178 185/185/185 171/171/171
f 184/184/184 185/185/185 178/178/178
f 186/186/186 181/181/181 168/168/168
f 166/166/166 186/186/186 168/168/168
f 185/185/185 187/187/187 171/171/171
f 171/171/171 187/187/187 167/167/167
f 167/167/167 188/188/188 166/166/166
f 188/188/188 186/186/186 166/166/166
f 187/187/187 188/188/188 167/167/167
f 182/182/182 189/189/189 183/183/183
f 183/183/183 190/190/190 184/184/184
f 189/189/189 190/190/190 183/183/183
f 189/189/189 191/191/191 190/190/190
f 192/192/192 189/189/189 182/182/182
f 181/181/181 192/192/192 182/182/182
f 192/192/192 191/191/191 189/189/189
f 190/190/190 193/193/193 184/184/184
f 184/184/184 193/193/193 185/185/185
f 190/190/190 191/191/191 193/193/193
f 194/194/194 192/192/192 181/181/181
f 186/186/186 194/194/194 181/181/181
f 194/194/194 191/191/191 192/192/192
f 193/193/193 195/195/195 185/185/185
f 185/185/185 195/195/195 187/187/187
f 193/193/193 191/191/191 195/195/195
f 196/196/196 194/194/194 186/186/186
f 188/188/188 196/196/196 186/186/186
f 196/196/196 191/191/191 194/194/194
f 187/187/187 197/197/197 188/188/188
f 195/195/195 197/197/197 187/187/187
f 195/195/195 191/191/191 197/197/197
f 197/197/197 196/196/196 188/188/188
f 197/197/197 191/191/191 196/196/196
