g hammer_basic_007_blade
v 0.1711761 0 0.8501661
v 0.1950367 0.04398799 0.7457044
v 0.1308755 0.04852319 0.8098655
v 0.2388704 0 0.7895379
v 0.2704128 0.02167296 0.6703281
v 0.1950367 -0.04398799 0.7457044
v 0.1308755 -0.04852319 0.8098655
v 0.2704128 -0.02167296 0.670328
v 0.3077691 0 0.7076848
v 0.3429973 0 0.5977439
v 0.1850861 0 0.997735
v 0.2758238 0.04398799 0.9407413
v 0.1850861 0.04852319 0.9407414
v 0.2758238 0 1.002731
v 0.3824215 0.02167296 0.9407414
v 0.2758238 -0.04398799 0.9407413
v 0.1850861 -0.04852319 0.9407413
v 0.3824215 -0.02167296 0.9407413
v 0.3824215 0 0.9935713
v 0.4850712 0 0.9407414
v 0.09057494 0 1.111918
v 0.1950367 0.04398799 1.135778
v 0.1308755 0.04852319 1.071617
v 0.1512031 0 1.179612
v 0.2704128 0.02167296 1.211154
v 0.1950367 -0.04398799 1.135778
v 0.1308755 -0.04852319 1.071617
v 0.2704128 -0.02167296 1.211154
v 0.2330564 0 1.248511
v 0.3429973 0 1.283738
v 0.05699328 0 1.125827
v -2.325559E-07 -0.04398799 1.216565
v -2.325559E-07 -0.04852319 1.125827
v 0.06198969 0 1.216565
v -2.325559E-07 -0.02167296 1.323163
v -2.325559E-07 0.04398799 1.216565
v -2.325559E-07 0.04852319 1.125827
v -2.325559E-07 0.02167296 1.323163
v 0.05282981 0 1.323163
v -2.325559E-07 0 1.425813
v -0.09057529 0 1.111918
v -0.1950371 -0.04398799 1.135778
v -0.1308759 -0.04852319 1.071617
v -0.1512036 0 1.179612
v -0.2704131 -0.02167296 1.211154
v -0.1950371 0.04398799 1.135778
v -0.1308759 0.04852319 1.071617
v -0.2704131 0.02167296 1.211154
v -0.2330566 0 1.248511
v -0.3429976 0 1.283738
v -0.1850863 0 0.997735
v -0.2758242 -0.04398799 0.9407413
v -0.1850863 -0.04852319 0.9407413
v -0.2758242 0 1.002731
v -0.3824219 -0.02167296 0.9407413
v -0.2758242 0.04398799 0.9407413
v -0.1850863 0.04852319 0.9407414
v -0.3824219 0.02167296 0.9407414
v -0.3824219 0 0.9935713
v -0.4850717 0 0.9407414
v -0.1711764 0 0.8501661
v -0.1950371 -0.04398799 0.7457044
v -0.1308759 -0.04852319 0.8098655
v -0.2388706 0 0.7895379
v -0.2704131 -0.02167296 0.670328
v -0.1950371 0.04398799 0.7457044
v -0.1308759 0.04852319 0.8098655
v -0.2704131 0.02167296 0.6703281
v -0.3077694 0 0.7076848
v -0.3429976 0 0.5977439
v 0.1308755 0.04852319 0.8098655
v 0.1512031 0 0.7018709
v 0.09057494 0 0.769565
v 0.1950367 0.04398799 0.7457044
v 0.1308755 -0.04852319 0.8098655
v 0.1950367 -0.04398799 0.7457044
v 0.2704128 0.02167296 0.6703281
v 0.2704128 -0.02167296 0.670328
v 0.2330564 0 0.6329719
v 0.3429973 0 0.5977439
v 0.1850861 0.04852319 0.9407414
v 0.2758238 0 0.8787515
v 0.1850861 0 0.8837477
v 0.2758238 0.04398799 0.9407413
v 0.1850861 -0.04852319 0.9407413
v 0.2758238 -0.04398799 0.9407413
v 0.3824215 0.02167296 0.9407414
v 0.3824215 -0.02167296 0.9407413
v 0.3824215 0 0.8879113
v 0.4850712 0 0.9407414
v 0.1308755 0.04852319 1.071617
v 0.2388704 0 1.091945
v 0.1711761 0 1.031317
v 0.1950367 0.04398799 1.135778
v 0.1308755 -0.04852319 1.071617
v 0.1950367 -0.04398799 1.135778
v 0.2704128 0.02167296 1.211154
v 0.2704128 -0.02167296 1.211154
v 0.3077691 0 1.173798
v 0.3429973 0 1.283738
v -2.325559E-07 -0.04852319 1.125827
v -0.06199011 0 1.216565
v -0.05699369 0 1.125827
v -2.325559E-07 -0.04398799 1.216565
v -2.325559E-07 0.04852319 1.125827
v -2.325559E-07 0.04398799 1.216565
v -2.325559E-07 -0.02167296 1.323163
v -2.325559E-07 0.02167296 1.323163
v -0.05283022 0 1.323163
v -2.325559E-07 0 1.425813
v -0.1308759 -0.04852319 1.071617
v -0.2388706 0 1.091945
v -0.1711764 0 1.031317
v -0.1950371 -0.04398799 1.135778
v -0.1308759 0.04852319 1.071617
v -0.1950371 0.04398799 1.135778
v -0.2704131 -0.02167296 1.211154
v -0.2704131 0.02167296 1.211154
v -0.3077694 0 1.173798
v -0.3429976 0 1.283738
v -0.1850863 -0.04852319 0.9407413
v -0.2758242 0 0.8787515
v -0.1850863 0 0.8837477
v -0.2758242 -0.04398799 0.9407413
v -0.1850863 0.04852319 0.9407414
v -0.2758242 0.04398799 0.9407413
v -0.3824219 -0.02167296 0.9407413
v -0.3824219 0.02167296 0.9407414
v -0.3824219 0 0.8879113
v -0.4850717 0 0.9407414
v -0.1308759 -0.04852319 0.8098655
v -0.1512036 0 0.7018709
v -0.09057529 0 0.769565
v -0.1950371 -0.04398799 0.7457044
v -0.1308759 0.04852319 0.8098655
v -0.1950371 0.04398799 0.7457044
v -0.2704131 -0.02167296 0.670328
v -0.2704131 0.02167296 0.6703281
v -0.2330566 0 0.6329719
v -0.3429976 0 0.5977439
vt 0.5287108 0.4629948
vt 0.5346989 0.4665277
vt 0.5287108 0.4665277
vt 0.5346989 0.462685
vt 0.5411873 0.4665277
vt 0.5346989 0.4665277
vt 0.5287108 0.4665277
vt 0.5411873 0.4665277
vt 0.5411873 0.4632529
vt 0.5483136 0.4665277
vt 0.5349243 0.4629948
vt 0.5409124 0.4665277
vt 0.5349243 0.4665277
vt 0.5409124 0.462685
vt 0.5494297 0.4665277
vt 0.5409124 0.4665277
vt 0.5349243 0.4665277
vt 0.5494297 0.4665277
vt 0.5494297 0.4632529
vt 0.5625159 0.4665277
vt 0.5297253 0.4629948
vt 0.5464919 0.4665277
vt 0.5297253 0.4665277
vt 0.5464919 0.462685
vt 0.5560236 0.4665277
vt 0.5464919 0.4665277
vt 0.5297253 0.4665277
vt 0.5560236 0.4665277
vt 0.5560236 0.4632529
vt 0.5691098 0.4665277
vt 0.5901304 0.4617121
vt 0.5828815 0.4628803
vt 0.5901304 0.4628803
vt 0.5828815 0.4616097
vt 0.5769085 0.4628803
vt 0.5828815 0.4628803
vt 0.5901304 0.4628803
vt 0.5769085 0.4628803
vt 0.5769085 0.4617974
vt 0.5687079 0.4628803
vt 0.5308666 0.4629948
vt 0.5450722 0.4665277
vt 0.5308666 0.4665277
vt 0.5450722 0.462685
vt 0.5558534 0.4665277
vt 0.5450722 0.4665277
vt 0.5308666 0.4665277
vt 0.5558534 0.4665277
vt 0.5558534 0.4632529
vt 0.5662352 0.4665277
vt 0.5362134 0.4629948
vt 0.544389 0.4665277
vt 0.5362134 0.4665277
vt 0.544389 0.462685
vt 0.5505698 0.4665277
vt 0.544389 0.4665277
vt 0.5362134 0.4665277
vt 0.5505698 0.4665277
vt 0.5505698 0.4632529
vt 0.5598188 0.4665277
vt 0.5248454 0.4629948
vt 0.5385213 0.4665277
vt 0.5248454 0.4665277
vt 0.5385213 0.462685
vt 0.5545875 0.4665277
vt 0.5385213 0.4665277
vt 0.5248454 0.4665277
vt 0.5545875 0.4665277
vt 0.5545875 0.4632529
vt 0.5700586 0.4665277
vt 0.5900645 0.4628295
vt 0.5847908 0.4618102
vt 0.5900646 0.4619169
vt 0.5847908 0.4628296
vt 0.5900645 0.4628295
vt 0.5847908 0.4628296
vt 0.5818326 0.4628296
vt 0.5818326 0.4628296
vt 0.5818326 0.4620058
vt 0.5717558 0.4628295
vt 0.591336 0.463007
vt 0.5833604 0.4616835
vt 0.591336 0.4617901
vt 0.5833604 0.463007
vt 0.591336 0.463007
vt 0.5833604 0.463007
vt 0.5821504 0.463007
vt 0.5821504 0.463007
vt 0.5821504 0.461879
vt 0.5717558 0.463007
vt 0.5879984 0.4629056
vt 0.5817711 0.461582
vt 0.5879984 0.4616887
vt 0.5817711 0.4629056
vt 0.5879984 0.4629056
vt 0.5817711 0.4629056
vt 0.578813 0.4629056
vt 0.578813 0.4629056
vt 0.5788129 0.4617777
vt 0.5717558 0.4629056
vt 0.5307181 0.4673712
vt 0.5482639 0.4633683
vt 0.5307181 0.4636909
vt 0.5482639 0.4673712
vt 0.5307181 0.4673712
vt 0.5482639 0.4673712
vt 0.5529845 0.4673712
vt 0.5529845 0.4673712
vt 0.5529845 0.4639598
vt 0.5642462 0.4673712
vt 0.5900645 0.4626014
vt 0.5843402 0.4612778
vt 0.5900645 0.4613844
vt 0.5843402 0.4626014
vt 0.5900645 0.4626014
vt 0.5843402 0.4626014
vt 0.5785261 0.4626014
vt 0.5785261 0.4626014
vt 0.5785261 0.4614734
vt 0.5729273 0.4626014
vt 0.5900734 0.4627872
vt 0.5841724 0.4615484
vt 0.5900733 0.4616482
vt 0.5841724 0.4627872
vt 0.5900734 0.4627872
vt 0.5841724 0.4627872
vt 0.5798996 0.4627872
vt 0.5798996 0.4627872
vt 0.5798996 0.4617314
vt 0.5757851 0.4627872
vt 0.5924158 0.4628475
vt 0.5867192 0.4617416
vt 0.5924159 0.4618307
vt 0.5867192 0.4628475
vt 0.5924158 0.4628475
vt 0.5867192 0.4628475
vt 0.5825943 0.4628474
vt 0.5825943 0.4628474
vt 0.5825943 0.4619049
vt 0.5786223 0.4628475
vn -0.7103578 0 -0.7038408
vn -0.0474873 -0.9977424 0.04748688
vn -0.002533606 -0.9999936 0.002534391
vn -0.7766864 0 -0.6298875
vn -0.1067253 -0.9885439 0.1067266
vn -0.04748746 0.9977424 0.04748685
vn -0.002533746 0.9999936 0.002534335
vn -0.1067252 0.9885439 0.1067267
vn -0.8705439 0 -0.4920907
vn -0.7071116 0 0.7071019
vn -0.00460916 0 -0.9999894
vn -0.06715696 -0.9977424 0
vn -0.003584037 -0.9999936 0
vn -0.1038024 0 -0.9945979
vn -0.1509332 -0.9885439 0
vn -0.0671572 0.9977424 0
vn -0.003584382 0.9999936 0
vn -0.1509332 0.9885439 0
vn -0.2676066 0 -0.9635283
vn -1 0 0
vn 0.7038412 0 -0.7103574
vn -0.04748684 -0.9977424 -0.04748781
vn -0.00253436 -0.9999936 -0.002533519
vn 0.6298875 0 -0.7766864
vn -0.1067269 -0.9885438 -0.1067259
vn -0.04748686 0.9977424 -0.04748765
vn -0.002533994 0.9999936 -0.00253377
vn -0.1067269 0.9885438 -0.1067258
vn 0.4920892 0 -0.8705448
vn -0.7071059 0 -0.7071075
vn -0.9999894 0 -0.004609594
vn 0 0.9977424 -0.06715682
vn 0 0.9999936 -0.003584007
vn -0.994598 0 -0.1038019
vn 0 0.9885439 -0.150933
vn 0 -0.9977424 -0.0671568
vn 0 -0.9999936 -0.003584005
vn 0 -0.9885439 -0.150933
vn -0.9635285 0 -0.2676057
vn 0 0 -1
vn -0.7038409 0 -0.7103576
vn 0.04748682 0.9977424 -0.0474878
vn 0.002533968 0.9999936 -0.002534137
vn -0.6298876 0 -0.7766863
vn 0.1067269 0.9885438 -0.1067256
vn 0.0474867 -0.9977424 -0.04748792
vn 0.002534417 -0.9999936 -0.002533856
vn 0.1067268 -0.9885438 -0.1067256
vn -0.4920897 0 -0.8705446
vn 0.7071043 0 -0.7071092
vn 0.004609153 0 -0.9999894
vn 0.06715716 0.9977424 0
vn 0.003584376 0.9999936 0
vn 0.1038024 0 -0.9945979
vn 0.1509331 0.9885439 0
vn 0.06715699 -0.9977424 0
vn 0.003584032 -0.9999936 0
vn 0.1509332 -0.9885439 0
vn 0.2676067 0 -0.9635283
vn 1 0 0
vn 0.710358 0 -0.7038405
vn 0.04748747 0.9977424 0.04748688
vn 0.002533748 0.9999936 0.002534813
vn 0.7766863 0 -0.6298876
vn 0.1067254 0.9885439 0.1067263
vn 0.04748743 -0.9977424 0.0474869
vn 0.002533972 -0.9999936 0.002534729
vn 0.1067255 -0.9885439 0.1067263
vn 0.8705434 0 -0.4920915
vn 0.7071099 0 0.7071036
vn -0.002533606 -0.9999936 0.002534391
vn 0.6298877 0 0.7766862
vn 0.7038394 0 0.7103591
vn -0.0474873 -0.9977424 0.04748688
vn -0.002533746 0.9999936 0.002534335
vn -0.04748746 0.9977424 0.04748685
vn -0.1067253 -0.9885439 0.1067266
vn -0.1067252 0.9885439 0.1067267
vn 0.4920927 0 0.8705428
vn -0.7071116 0 0.7071019
vn -0.003584037 -0.9999936 0
vn -0.1038025 0 0.9945979
vn -0.004610492 0 0.9999894
vn -0.06715696 -0.9977424 0
vn -0.003584382 0.9999936 0
vn -0.0671572 0.9977424 0
vn -0.1509332 -0.9885439 0
vn -0.1509332 0.9885439 0
vn -0.2676055 0 0.9635285
vn -1 0 0
vn -0.00253436 -0.9999936 -0.002533519
vn -0.7766867 0 0.6298872
vn -0.7103591 0 0.7038394
vn -0.04748684 -0.9977424 -0.04748781
vn -0.002533994 0.9999936 -0.00253377
vn -0.04748686 0.9977424 -0.04748765
vn -0.1067269 -0.9885438 -0.1067259
vn -0.1067269 0.9885438 -0.1067258
vn -0.8705434 0 0.4920915
vn -0.7071059 0 -0.7071075
vn 0 0.9999936 -0.003584007
vn 0.994598 0 -0.1038019
vn 0.9999894 0 -0.004609512
vn 0 0.9977424 -0.06715682
vn 0 -0.9999936 -0.003584005
vn 0 -0.9977424 -0.0671568
vn 0 0.9885439 -0.150933
vn 0 -0.9885439 -0.150933
vn 0.9635286 0 -0.2676055
vn 0 0 -1
vn 0.002533968 0.9999936 -0.002534137
vn 0.7766865 0 0.6298874
vn 0.7103594 0 0.7038391
vn 0.04748682 0.9977424 -0.0474878
vn 0.002534417 -0.9999936 -0.002533856
vn 0.0474867 -0.9977424 -0.04748792
vn 0.1067269 0.9885438 -0.1067256
vn 0.1067268 -0.9885438 -0.1067256
vn 0.870543 0 0.4920923
vn 0.7071043 0 -0.7071092
vn 0.003584376 0.9999936 0
vn 0.1038024 0 0.9945979
vn 0.004610484 0 0.9999894
vn 0.06715716 0.9977424 0
vn 0.003584032 -0.9999936 0
vn 0.06715699 -0.9977424 0
vn 0.1509331 0.9885439 0
vn 0.1509332 -0.9885439 0
vn 0.2676054 0 0.9635286
vn 1 0 0
vn 0.002533748 0.9999936 0.002534813
vn -0.6298878 0 0.7766861
vn -0.703839 0 0.7103595
vn 0.04748747 0.9977424 0.04748688
vn 0.002533972 -0.9999936 0.002534729
vn 0.04748743 -0.9977424 0.0474869
vn 0.1067254 0.9885439 0.1067263
vn 0.1067255 -0.9885439 0.1067263
vn -0.4920932 0 0.8705425
vn 0.7071099 0 0.7071036
g hammer_basic_007_blade_0
f 3/3/3 2/2/2 1/1/1
f 2/2/2 4/4/4 1/1/1
f 2/2/2 5/5/5 4/4/4
f 4/4/4 6/6/6 1/1/1
f 6/6/6 7/7/7 1/1/1
f 8/8/8 6/6/6 4/4/4
f 5/5/5 9/9/9 4/4/4
f 9/9/9 8/8/8 4/4/4
f 5/5/5 10/10/10 9/9/9
f 10/10/10 8/8/8 9/9/9
f 13/13/13 12/12/12 11/11/11
f 12/12/12 14/14/14 11/11/11
f 12/12/12 15/15/15 14/14/14
f 14/14/14 16/16/16 11/11/11
f 16/16/16 17/17/17 11/11/11
f 18/18/18 16/16/16 14/14/14
f 15/15/15 19/19/19 14/14/14
f 19/19/19 18/18/18 14/14/14
f 15/15/15 20/20/20 19/19/19
f 20/20/20 18/18/18 19/19/19
f 23/23/23 22/22/22 21/21/21
f 22/22/22 24/24/24 21/21/21
f 22/22/22 25/25/25 24/24/24
f 24/24/24 26/26/26 21/21/21
f 26/26/26 27/27/27 21/21/21
f 28/28/28 26/26/26 24/24/24
f 25/25/25 29/29/29 24/24/24
f 29/29/29 28/28/28 24/24/24
f 25/25/25 30/30/30 29/29/29
f 30/30/30 28/28/28 29/29/29
f 33/33/33 32/32/32 31/31/31
f 32/32/32 34/34/34 31/31/31
f 32/32/32 35/35/35 34/34/34
f 34/34/34 36/36/36 31/31/31
f 36/36/36 37/37/37 31/31/31
f 38/38/38 36/36/36 34/34/34
f 35/35/35 39/39/39 34/34/34
f 39/39/39 38/38/38 34/34/34
f 35/35/35 40/40/40 39/39/39
f 40/40/40 38/38/38 39/39/39
f 43/43/43 42/42/42 41/41/41
f 42/42/42 44/44/44 41/41/41
f 42/42/42 45/45/45 44/44/44
f 44/44/44 46/46/46 41/41/41
f 46/46/46 47/47/47 41/41/41
f 48/48/48 46/46/46 44/44/44
f 45/45/45 49/49/49 44/44/44
f 49/49/49 48/48/48 44/44/44
f 45/45/45 50/50/50 49/49/49
f 50/50/50 48/48/48 49/49/49
f 53/53/53 52/52/52 51/51/51
f 52/52/52 54/54/54 51/51/51
f 52/52/52 55/55/55 54/54/54
f 54/54/54 56/56/56 51/51/51
f 56/56/56 57/57/57 51/51/51
f 58/58/58 56/56/56 54/54/54
f 55/55/55 59/59/59 54/54/54
f 59/59/59 58/58/58 54/54/54
f 55/55/55 60/60/60 59/59/59
f 60/60/60 58/58/58 59/59/59
f 63/63/63 62/62/62 61/61/61
f 62/62/62 64/64/64 61/61/61
f 62/62/62 65/65/65 64/64/64
f 64/64/64 66/66/66 61/61/61
f 66/66/66 67/67/67 61/61/61
f 68/68/68 66/66/66 64/64/64
f 65/65/65 69/69/69 64/64/64
f 69/69/69 68/68/68 64/64/64
f 65/65/65 70/70/70 69/69/69
f 70/70/70 68/68/68 69/69/69
f 73/73/73 72/72/72 71/71/71
f 72/72/72 74/74/74 71/71/71
f 72/72/72 73/73/73 75/75/75
f 76/76/76 72/72/72 75/75/75
f 74/74/74 72/72/72 77/77/77
f 72/72/72 76/76/76 78/78/78
f 72/72/72 79/79/79 77/77/77
f 79/79/79 72/72/72 78/78/78
f 77/77/77 79/79/79 80/80/80
f 79/79/79 78/78/78 80/80/80
f 83/83/83 82/82/82 81/81/81
f 82/82/82 84/84/84 81/81/81
f 82/82/82 83/83/83 85/85/85
f 86/86/86 82/82/82 85/85/85
f 84/84/84 82/82/82 87/87/87
f 82/82/82 86/86/86 88/88/88
f 82/82/82 89/89/89 87/87/87
f 89/89/89 82/82/82 88/88/88
f 87/87/87 89/89/89 90/90/90
f 89/89/89 88/88/88 90/90/90
f 93/93/93 92/92/92 91/91/91
f 92/92/92 94/94/94 91/91/91
f 92/92/92 93/93/93 95/95/95
f 96/96/96 92/92/92 95/95/95
f 94/94/94 92/92/92 97/97/97
f 92/92/92 96/96/96 98/98/98
f 92/92/92 99/99/99 97/97/97
f 99/99/99 92/92/92 98/98/98
f 97/97/97 99/99/99 100/100/100
f 99/99/99 98/98/98 100/100/100
f 103/103/103 102/102/102 101/101/101
f 102/102/102 104/104/104 101/101/101
f 102/102/102 103/103/103 105/105/105
f 106/106/106 102/102/102 105/105/105
f 104/104/104 102/102/102 107/107/107
f 102/102/102 106/106/106 108/108/108
f 102/102/102 109/109/109 107/107/107
f 109/109/109 102/102/102 108/108/108
f 107/107/107 109/109/109 110/110/110
f 109/109/109 108/108/108 110/110/110
f 113/113/113 112/112/112 111/111/111
f 112/112/112 114/114/114 111/111/111
f 112/112/112 113/113/113 115/115/115
f 116/116/116 112/112/112 115/115/115
f 114/114/114 112/112/112 117/117/117
f 112/112/112 116/116/116 118/118/118
f 112/112/112 119/119/119 117/117/117
f 119/119/119 112/112/112 118/118/118
f 117/117/117 119/119/119 120/120/120
f 119/119/119 118/118/118 120/120/120
f 123/123/123 122/122/122 121/121/121
f 122/122/122 124/124/124 121/121/121
f 122/122/122 123/123/123 125/125/125
f 126/126/126 122/122/122 125/125/125
f 124/124/124 122/122/122 127/127/127
f 122/122/122 126/126/126 128/128/128
f 122/122/122 129/129/129 127/127/127
f 129/129/129 122/122/122 128/128/128
f 127/127/127 129/129/129 130/130/130
f 129/129/129 128/128/128 130/130/130
f 133/133/133 132/132/132 131/131/131
f 132/132/132 134/134/134 131/131/131
f 132/132/132 133/133/133 135/135/135
f 136/136/136 132/132/132 135/135/135
f 134/134/134 132/132/132 137/137/137
f 132/132/132 136/136/136 138/138/138
f 132/132/132 139/139/139 137/137/137
f 139/139/139 132/132/132 138/138/138
f 137/137/137 139/139/139 140/140/140
f 139/139/139 138/138/138 140/140/140
