g hammer_basic_006_blade
v -0.4100995 -0.1346927 1.342599
v -0.2351966 -0.1496362 1.381943
v -0.4103928 -0.2090167 1.380306
v -0.4137616 -0.1594928 1.429454
v -0.2973194 0.2443074 1.20582
v -0.4028769 0.2611771 1.256798
v -0.4026713 0.1618116 1.199369
v -0.3979082 0.2587822 1.185624
v -0.4069457 0.0003849971 1.213062
v -0.3873835 0.1882028 1.032753
v -0.3804207 0.0003849971 0.9440664
v -0.4026713 0.1618116 1.199369
v -0.383657 -0.09778617 0.9783701
v -0.4028769 0.2611771 1.256798
v -0.3892307 -0.05297653 1.127557
v -0.4130683 0.2005834 1.400679
v -0.3859744 -0.1488172 1.012177
v -0.4202075 0.0003849971 1.511214
v -0.4004788 -0.2929966 1.223809
v -0.4137616 -0.1594928 1.429454
v -0.4103928 -0.2090167 1.380306
v -0.4100995 -0.1346927 1.342599
v -0.3859744 -0.1488172 1.012177
v -0.2942872 -0.1069712 1.020787
v -0.3892307 -0.05297653 1.127557
v -0.383657 -0.09778617 0.9783701
v -0.4004788 -0.2929966 1.223809
v -0.4103928 -0.2090167 1.380306
v -0.2351966 -0.1496362 1.381943
v -0.2781038 -0.2182699 1.229824
v -0.1237731 -0.2423315 1.235949
v -0.2941651 -0.1070715 1.020956
v -0.2942872 -0.1069712 1.020787
v -0.3859744 -0.1488172 1.012177
v -0.2941694 -0.1070041 1.02082
v -0.2979918 0.001308789 0.987499
v -0.383657 -0.09778617 0.9783701
v -0.3804207 0.0003849971 0.9440664
v -0.3873835 0.1882028 1.032753
v -0.1238151 -0.1549979 1.391254
v -0.2898021 0.001308789 1.474196
v -0.4137616 -0.1594928 1.429454
v -0.4202075 0.0003849971 1.511214
v -0.2954698 0.1717664 1.379486
v -0.4130683 0.2005834 1.400679
v -0.1238418 0.0003849971 1.496327
v -0.2973194 0.2443074 1.20582
v -0.4028769 0.2611771 1.256798
v -0.3979082 0.2587822 1.185624
v -0.3010073 0.160354 1.060822
v -0.1238151 0.1557679 1.391254
v -0.1237731 0.2431015 1.235949
v -0.1237273 0.1557679 1.057875
v -0.1237135 0.0003849971 1.005343
v -0.1237359 -0.1549979 1.087647
v 0.1275082 0.0003849995 1.090019
v 0.1274924 -0.1190649 1.151273
v 0.1274629 -0.1862022 1.265024
v 0.1274319 -0.1190649 1.38327
v 0.1274099 0.0003849971 1.468298
v 0.1274319 0.1198349 1.38327
v 0.1274629 0.1869722 1.265024
v 0.1856213 -0.1139383 1.390734
v 0.1872163 0.0003849971 1.465254
v 0.1274924 0.1198349 1.151273
v 0.1856213 0.1147083 1.390734
v 0.1840267 0.1789643 1.288261
v 0.1811571 0.1147083 1.170801
v 0.1804566 0.0003849995 1.117951
v 0.1811571 -0.1139383 1.170801
v 0.1840267 -0.1781943 1.288261
v 0.377573 -0.08501426 1.325093
v 0.3945556 0.0003849971 1.382016
v 0.377573 0.08578426 1.325093
v 0.355969 0.1337833 1.249304
v 0.3281608 0.08578426 1.180701
v 0.3173757 0.0003849991 1.14212
v 0.336576 -0.08501426 1.174401
v 0.355969 -0.1330133 1.249304
v 0.5143528 -0.05469441 1.245815
v 0.5287299 0.0003849971 1.282167
v 0.6261129 0.0003849971 1.08768
v 0.5143528 0.0554644 1.245815
v 0.497086 0.08642203 1.20216
v 0.473835 0.0554644 1.147648
v 0.4654403 0.0003849987 1.126424
v 0.473835 -0.05469441 1.147648
v 0.497086 -0.08565202 1.20216
vt 0.532259 0.4851857
vt 0.5386224 0.4833691
vt 0.5328376 0.4843262
vt 0.5302353 0.4834503
vt 0.5361466 0.4898084
vt 0.5331583 0.4890301
vt 0.5287759 0.4899086
vt 0.5323269 0.4911751
vt 0.5329994 0.485059
vt 0.5307122 0.4905391
vt 0.5289541 0.4876735
vt 0.5334705 0.4884351
vt 0.5295205 0.4862537
vt 0.53582 0.491166
vt 0.5315431 0.4849465
vt 0.5376983 0.490521
vt 0.5311 0.4835775
vt 0.5391136 0.4881761
vt 0.5321133 0.4823211
vt 0.537815 0.4839856
vt 0.5335552 0.4820587
vt 0.5365766 0.4822189
vt 0.5273811 0.481813
vt 0.5234935 0.4905966
vt 0.5267063 0.4849465
vt 0.5243059 0.4865426
vt 0.6306233 0.7391963
vt 0.6340799 0.7397712
vt 0.6263151 0.7404057
vt 0.6227636 0.7397582
vt 0.6092086 0.7407273
vt 0.6142997 0.7385998
vt 0.6143036 0.7385982
vt 0.6232154 0.7387092
vt 0.6142984 0.7385997
vt 0.6119251 0.7385919
vt 0.6150703 0.7379631
vt 0.6143332 0.737704
vt 0.6158075 0.7382222
vt 0.6113032 0.7408711
vt 0.630026 0.7407882
vt 0.6375732 0.7403519
vt 0.6395985 0.7406887
vt 0.6280168 0.7403766
vt 0.6362562 0.7401328
vt 0.6127203 0.7409681
vt 0.6225318 0.7395501
vt 0.6334398 0.7396646
vt 0.6232154 0.7387092
vt 0.6132039 0.7389395
vt 0.6113032 0.7408711
vt 0.6084485 0.7407273
vt 0.6073123 0.7405626
vt 0.6067872 0.7404864
vt 0.6073123 0.7405626
vt 0.6071145 0.7427861
vt 0.6073589 0.7427621
vt 0.6097649 0.7428226
vt 0.6106316 0.7428012
vt 0.6112546 0.7427858
vt 0.6106316 0.7428012
vt 0.6097649 0.7428226
vt 0.6229832 0.744494
vt 0.6253138 0.7446442
vt 0.6073589 0.7427621
vt 0.6229832 0.744494
vt 0.6198769 0.7442971
vt 0.6103047 0.7440202
vt 0.6095269 0.7439253
vt 0.6103047 0.7440202
vt 0.620381 0.7442958
vt 0.6242509 0.7462137
vt 0.6267987 0.7465409
vt 0.6242509 0.7462137
vt 0.6209015 0.7457834
vt 0.6102325 0.7452437
vt 0.6094304 0.7450261
vt 0.6102325 0.7452437
vt 0.6209015 0.7457834
vt 0.6201004 0.7472522
vt 0.6219718 0.7475151
vt 0.6079944 0.7486594
vt 0.6201004 0.7472522
vt 0.617853 0.7469363
vt 0.6100656 0.746511
vt 0.6095488 0.7463578
vt 0.6100656 0.746511
vt 0.617853 0.7469363
vn -0.9981526 -0.06047117 -0.005886443
vn 0.06214482 -0.7254672 0.6854453
vn -0.517565 -0.7113885 0.4754502
vn -0.6284378 -0.5116465 0.5859044
vn 0.10738 0.9920701 -0.06531669
vn -0.6433628 0.7567583 0.1157626
vn -0.9956985 0.05194829 -0.07671984
vn -0.621805 0.7540732 -0.2114998
vn -0.9974711 0.0001471126 -0.07107245
vn -0.6303539 0.5091114 -0.5860541
vn -0.636039 0.09174687 -0.7661834
vn -0.9956985 0.05194829 -0.07671984
vn -0.6661162 -0.5294275 -0.525353
vn -0.6433628 0.7567583 0.1157626
vn -0.9940942 -0.02608004 -0.1053411
vn -0.6291147 0.5735399 0.5246586
vn -0.3736103 -0.6457096 -0.6659388
vn -0.5602146 0.004833126 0.8283334
vn -0.4224828 -0.8978628 -0.1238978
vn -0.6284378 -0.5116465 0.5859044
vn -0.517565 -0.7113885 0.4754502
vn -0.9981526 -0.06047117 -0.005886443
vn -0.3736103 -0.6457096 -0.6659388
vn 0.3974438 -0.6434172 -0.6542574
vn -0.9940942 -0.02608004 -0.1053411
vn -0.6661162 -0.5294275 -0.525353
vn -0.4224828 -0.8978628 -0.1238978
vn -0.517565 -0.7113885 0.4754502
vn 0.06214482 -0.7254672 0.6854453
vn 0.2448814 -0.969349 -0.01988722
vn 0.1043708 -0.9945201 0.006039643
vn 0.2648238 -0.8285097 -0.4933965
vn 0.3974438 -0.6434172 -0.6542574
vn -0.3736103 -0.6457096 -0.6659388
vn 0.1701089 -0.4948389 -0.8521721
vn 0.2350409 0.07940762 -0.9687364
vn -0.6661162 -0.5294275 -0.525353
vn -0.636039 0.09174687 -0.7661834
vn -0.6303539 0.5091114 -0.5860541
vn 0.03254696 -0.7366613 0.6754782
vn 0.1152332 0.03862388 0.9925873
vn -0.6284378 -0.5116465 0.5859044
vn -0.5602146 0.004833126 0.8283334
vn 0.1093745 0.7260655 0.6788712
vn -0.6291147 0.5735399 0.5246586
vn 0.03206373 0.02205413 0.9992424
vn 0.10738 0.9920701 -0.06531669
vn -0.6433628 0.7567583 0.1157626
vn -0.621805 0.7540732 -0.2114998
vn 0.1786328 0.6756837 -0.7152216
vn 0.05195884 0.7327085 0.6785563
vn 0.1399521 0.9901225 -0.00841138
vn 0.2004372 0.6552106 -0.7283707
vn 0.2400379 -0.01599713 -0.9706317
vn 0.2068626 -0.6590625 -0.7230799
vn 0.3483446 -0.04438986 -0.9363149
vn 0.2848857 -0.661954 -0.6932943
vn 0.2114144 -0.9773351 0.01095727
vn 0.09742753 -0.7244877 0.6823675
vn 0.1002011 0 0.9949672
vn 0.09742745 0.7244877 0.6823675
vn 0.2223618 0.9749081 0.0104671
vn 0.2378283 -0.6861814 0.6874539
vn 0.2872803 0 0.9578465
vn 0.3189477 0.6650447 -0.6752689
vn 0.2378285 0.6861812 0.6874539
vn 0.2259566 0.9697686 0.09215435
vn 0.2181274 0.6744718 -0.7053427
vn 0.2498154 0.006817051 -0.9682694
vn 0.206314 -0.6795667 -0.7040055
vn 0.2214186 -0.9710829 0.08928565
vn 0.3764576 -0.6795599 0.629665
vn 0.4594861 0 0.888185
vn 0.3764575 0.6795599 0.629665
vn 0.2744974 0.9615485 -0.008693645
vn 0.09100188 0.6707945 -0.736039
vn 0.0536612 0.01490043 -0.998448
vn 0.0858731 -0.6693779 -0.7379424
vn 0.273085 -0.9619543 -0.008274915
vn 0.5657167 -0.6568038 0.4985713
vn 0.6921331 0 0.7217699
vn 0.8744132 0 -0.4851819
vn 0.5657168 0.6568037 0.4985712
vn 0.3430444 0.935914 -0.07990918
vn -0.02295901 0.6596404 -0.7512307
vn -0.1473594 0.01777491 -0.9889233
vn -0.009461075 -0.6590031 -0.7520807
vn 0.3514698 -0.93369 -0.06849808
g hammer_basic_006_blade_0
f 3/3/3 2/2/2 1/1/1
f 2/2/2 4/4/4 1/1/1
f 7/7/7 6/6/6 5/5/5
f 8/8/8 7/7/7 5/5/5
f 8/8/8 10/10/10 9/9/9
f 10/10/10 11/11/11 9/9/9
f 12/12/12 8/8/8 9/9/9
f 11/11/11 13/13/13 9/9/9
f 14/14/14 12/12/12 9/9/9
f 13/13/13 15/15/15 9/9/9
f 16/16/16 14/14/14 9/9/9
f 15/15/15 17/17/17 9/9/9
f 18/18/18 16/16/16 9/9/9
f 17/17/17 19/19/19 9/9/9
f 20/20/20 18/18/18 9/9/9
f 19/19/19 21/21/21 9/9/9
f 22/22/22 20/20/20 9/9/9
f 21/21/21 22/22/22 9/9/9
f 25/25/25 24/24/24 23/23/23
f 25/25/25 26/26/26 24/24/24
f 29/29/29 28/28/28 27/27/27
f 30/30/30 29/29/29 27/27/27
f 30/30/30 31/31/31 29/29/29
f 32/32/32 30/30/30 27/27/27
f 30/30/30 32/32/32 31/31/31
f 33/33/33 32/32/32 27/27/27
f 27/27/27 34/34/34 33/33/33
f 32/32/32 33/33/33 35/35/35
f 32/32/32 35/35/35 31/31/31
f 36/36/36 35/35/35 33/33/33
f 33/33/33 37/37/37 36/36/36
f 37/37/37 38/38/38 36/36/36
f 36/36/36 38/38/38 39/39/39
f 31/31/31 40/40/40 29/29/29
f 29/29/29 40/40/40 41/41/41
f 29/29/29 41/41/41 42/42/42
f 41/41/41 43/43/43 42/42/42
f 41/41/41 44/44/44 43/43/43
f 44/44/44 45/45/45 43/43/43
f 40/40/40 46/46/46 41/41/41
f 41/41/41 46/46/46 44/44/44
f 44/44/44 47/47/47 45/45/45
f 47/47/47 48/48/48 45/45/45
f 49/49/49 47/47/47 39/39/39
f 50/50/50 36/36/36 39/39/39
f 47/47/47 50/50/50 39/39/39
f 44/44/44 51/51/51 47/47/47
f 46/46/46 51/51/51 44/44/44
f 47/47/47 52/52/52 50/50/50
f 51/51/51 52/52/52 47/47/47
f 50/50/50 53/53/53 36/36/36
f 52/52/52 53/53/53 50/50/50
f 53/53/53 54/54/54 36/36/36
f 36/36/36 54/54/54 35/35/35
f 54/54/54 55/55/55 35/35/35
f 35/35/35 55/55/55 31/31/31
f 54/54/54 56/56/56 55/55/55
f 56/56/56 54/54/54 53/53/53
f 55/55/55 57/57/57 31/31/31
f 56/56/56 57/57/57 55/55/55
f 57/57/57 58/58/58 31/31/31
f 31/31/31 58/58/58 40/40/40
f 40/40/40 59/59/59 46/46/46
f 58/58/58 59/59/59 40/40/40
f 46/46/46 60/60/60 51/51/51
f 59/59/59 60/60/60 46/46/46
f 51/51/51 61/61/61 52/52/52
f 60/60/60 61/61/61 51/51/51
f 52/52/52 62/62/62 53/53/53
f 61/61/61 62/62/62 52/52/52
f 59/59/59 63/63/63 60/60/60
f 59/59/59 58/58/58 63/63/63
f 60/60/60 64/64/64 61/61/61
f 63/63/63 64/64/64 60/60/60
f 65/65/65 56/56/56 53/53/53
f 62/62/62 65/65/65 53/53/53
f 61/61/61 66/66/66 62/62/62
f 64/64/64 66/66/66 61/61/61
f 62/62/62 67/67/67 65/65/65
f 66/66/66 67/67/67 62/62/62
f 65/65/65 68/68/68 56/56/56
f 67/67/67 68/68/68 65/65/65
f 68/68/68 69/69/69 56/56/56
f 56/56/56 69/69/69 57/57/57
f 57/57/57 70/70/70 58/58/58
f 69/69/69 70/70/70 57/57/57
f 58/58/58 71/71/71 63/63/63
f 70/70/70 71/71/71 58/58/58
f 63/63/63 72/72/72 64/64/64
f 63/63/63 71/71/71 72/72/72
f 64/64/64 73/73/73 66/66/66
f 72/72/72 73/73/73 64/64/64
f 66/66/66 74/74/74 67/67/67
f 73/73/73 74/74/74 66/66/66
f 67/67/67 75/75/75 68/68/68
f 74/74/74 75/75/75 67/67/67
f 68/68/68 76/76/76 69/69/69
f 75/75/75 76/76/76 68/68/68
f 69/69/69 77/77/77 70/70/70
f 76/76/76 77/77/77 69/69/69
f 70/70/70 78/78/78 71/71/71
f 77/77/77 78/78/78 70/70/70
f 71/71/71 79/79/79 72/72/72
f 78/78/78 79/79/79 71/71/71
f 72/72/72 80/80/80 73/73/73
f 72/72/72 79/79/79 80/80/80
f 73/73/73 81/81/81 74/74/74
f 80/80/80 81/81/81 73/73/73
f 82/82/82 81/81/81 80/80/80
f 81/81/81 83/83/83 74/74/74
f 74/74/74 83/83/83 75/75/75
f 82/82/82 83/83/83 81/81/81
f 83/83/83 84/84/84 75/75/75
f 75/75/75 84/84/84 76/76/76
f 84/84/84 83/83/83 82/82/82
f 84/84/84 85/85/85 76/76/76
f 76/76/76 85/85/85 77/77/77
f 84/84/84 82/82/82 85/85/85
f 85/85/85 86/86/86 77/77/77
f 77/77/77 86/86/86 78/78/78
f 86/86/86 85/85/85 82/82/82
f 86/86/86 87/87/87 78/78/78
f 78/78/78 87/87/87 79/79/79
f 86/86/86 82/82/82 87/87/87
f 88/88/88 82/82/82 80/80/80
f 79/79/79 88/88/88 80/80/80
f 88/88/88 87/87/87 82/82/82
f 87/87/87 88/88/88 79/79/79
