g human_eyes
v 0.07991977 -0.191367 -0.045169
v 0.07921793 -0.1941067 -0.07220599
v 0.1242303 -0.1987244 -0.116451
v 0.1233846 -0.2069391 -0.07974198
v 0.08145986 -0.1884291 -0.105546
v 0.1165342 -0.1541176 -0.144115
v 0.08379319 -0.1713963 -0.126502
v 0.1221551 -0.1769702 -0.132213
v 0.09034389 -0.1592795 -0.136346
v 0.1121572 -0.2051568 -0.05919799
v 0.1037691 -0.1988907 -0.09494701
v 0.1238075 -0.2028317 -0.09498501
v 0.1111571 -0.1949079 -0.112641
v 0.08133061 -0.1906883 0.043433
v 0.07602752 -0.1927767 0.06756501
v 0.1242303 -0.1987244 0.112875
v 0.1233845 -0.2069391 0.076166
v 0.07905489 -0.1866938 0.100904
v 0.1165342 -0.1541176 0.140539
v 0.0816818 -0.1702647 0.121531
v 0.1221551 -0.1769702 0.128637
v 0.09034389 -0.1592795 0.13277
v 0.1121572 -0.2051568 0.05562299
v 0.1039075 -0.197853 0.07723701
v 0.1059308 -0.2024591 0.05312601
v 0.1221551 -0.1769702 -0.132213
v 0.1037691 -0.1988907 -0.09494701
v 0.1238075 -0.2028317 -0.09498501
v 0.1111571 -0.1949079 -0.112641
v 0.1039075 -0.197853 0.07723701
v 0.1039075 -0.197853 0.07723701
v 0.1121572 -0.2051568 0.05562299
v 0.1233845 -0.2069391 0.076166
v 0.1059308 -0.2024591 0.05312601
vt 0.4436444 0.9233749
vt 0.4430114 0.8847852
vt 0.326144 0.688697
vt 0.3792304 0.8744553
vt 0.4421494 0.8366742
vt 0.4110994 0.7528639
vt 0.4464904 0.7984502
vt 0.329366 0.696953
vt 0.4432204 0.7746488
vt 0.3950054 0.9036067
vt 0.4083504 0.8525065
vt 0.3800584 0.8520516
vt 0.331362 0.687459
vt 0.4383314 0.788091
vt 0.4440954 0.82374
vt 0.3732604 0.889714
vt 0.325584 0.676334
vt 0.4415854 0.87323
vt 0.4058384 0.959916
vt 0.4456314 0.911614
vt 0.3868534 0.926526
vt 0.4391814 0.936942
vt 0.329302 0.669566
vt 0.4028014 0.837759
vt 0.329126 0.674046
vt 0.3936354 0.7857523
vt 0.334062 0.680569
vt 0.325864 0.682516
vt 0.4001794 0.8259948
vt 0.334487 0.677749
vt 0.332393 0.684053
vt 0.326686 0.674933
vt 0.3715874 0.834938
vt 0.3985874 0.802136
vn -0.3528051 -0.929967 0.1033922
vn -0.3232053 -0.9438439 -0.06853405
vn -0.3299872 -0.7921036 -0.5134981
vn -0.2587035 -0.9538049 -0.1527375
vn -0.2987131 -0.8645967 -0.4040335
vn -0.1589475 -0.4865205 -0.8590887
vn -0.2264298 -0.6236054 -0.7482284
vn -0.2492051 -0.5784763 -0.7766994
vn -0.1799628 -0.5188479 -0.8357095
vn -0.3229374 -0.9463187 0.0138696
vn -0.2712217 -0.9357659 -0.2253464
vn -0.2174911 -0.942987 -0.2519387
vn -0.2987248 -0.8053854 -0.5119745
vn -0.3735928 -0.9134868 -0.1611531
vn -0.2863705 -0.9557721 0.06701861
vn -0.3360014 -0.82361 0.4569131
vn -0.4079787 -0.8955045 0.177834
vn -0.3027998 -0.8957192 0.3255756
vn -0.1589478 -0.4865209 0.8590885
vn -0.274272 -0.6352751 0.7219422
vn -0.2092276 -0.558437 0.8027279
vn -0.1969963 -0.5446804 0.8151783
vn -0.4250494 -0.8942838 0.1399629
vn -0.337496 -0.9266316 0.165681
vn -0.3531191 -0.9344516 0.04590161
vn -0.2492051 -0.5784763 -0.7766994
vn -0.2712217 -0.9357659 -0.2253464
vn -0.2174911 -0.942987 -0.2519387
vn -0.2987248 -0.8053854 -0.5119745
vn -0.337496 -0.9266316 0.165681
vn -0.337496 -0.9266316 0.165681
vn -0.4250494 -0.8942838 0.1399629
vn -0.4079787 -0.8955045 0.177834
vn -0.3531191 -0.9344516 0.04590161
g human_eyes_0
f 11/11/11 12/12/12 4/4/4
f 11/11/11 4/4/4 2/2/2
f 2/2/2 4/4/4 10/10/10
f 2/2/2 10/10/10 1/1/1
f 11/11/11 2/2/2 5/5/5
f 5/5/5 29/29/29 11/11/11
f 5/5/5 7/7/7 29/29/29
f 7/7/7 26/26/26 29/29/29
f 26/26/26 7/7/7 9/9/9
f 26/26/26 9/9/9 6/6/6
f 22/22/22 21/21/21 19/19/19
f 20/20/20 21/21/21 22/22/22
f 21/21/21 20/20/20 16/16/16
f 18/18/18 16/16/16 20/20/20
f 16/16/16 18/18/18 24/24/24
f 16/16/16 24/24/24 33/33/33
f 15/15/15 24/24/24 18/18/18
f 34/34/34 24/24/24 15/15/15
f 34/34/34 15/15/15 14/14/14
g human_eyes_1
f 23/23/23 17/17/17 30/30/30
f 25/25/25 32/32/32 31/31/31
f 13/13/13 8/8/8 3/3/3
f 27/27/27 13/13/13 3/3/3
f 28/28/28 27/27/27 3/3/3
