g iceCrystal04_mesh
v 0.251752 -0.6469481 -0.05642146
v 0.03101151 -0.3508313 0.1708474
v 0.5486506 -0.2647826 0.1947426
v -0.004277304 -0.3806733 -0.210784
v 0.251752 -0.6469481 -0.05642146
v 0.4144651 -0.3183273 -0.3252593
v 0.251752 -0.6469481 -0.05642146
v 0.5486506 -0.2647826 0.1947426
v 0.4144651 -0.3183273 -0.3252593
v 0.251752 -0.6469481 -0.05642146
v -0.004277304 -0.3806733 -0.210784
v 0.03101151 -0.3508313 0.1708474
v 0.03101151 -0.3508313 0.1708474
v -0.2616943 0.8911731 -0.03954878
v 0.5486506 -0.2647826 0.1947426
v 0.5486506 -0.2647826 0.1947426
v -0.2616943 0.8911731 -0.03954878
v 0.4144651 -0.3183273 -0.3252593
v 0.4144651 -0.3183273 -0.3252593
v -0.2616943 0.8911731 -0.03954878
v -0.004277304 -0.3806733 -0.210784
v -0.004277304 -0.3806733 -0.210784
v -0.2616943 0.8911731 -0.03954878
v 0.03101151 -0.3508313 0.1708474
vt 0.1898907 0.1128645
vt 0.1858998 0.09293181
vt 0.1938817 0.09293181
vt 0.1858998 0.0849499
vt 0.1898907 0.08891878
vt 0.1938817 0.0849499
vt 0.1978726 0.1128645
vt 0.1938817 0.09293181
vt 0.2018636 0.09293181
vt 0.1819088 0.1128645
vt 0.1779179 0.09293181
vt 0.1858998 0.09293181
vt 0.1858998 0.09293181
vt 0.1898907 0.06457146
vt 0.1938817 0.09293181
vt 0.1938817 0.09293181
vt 0.1898907 0.0813358
vt 0.1938817 0.0849499
vt 0.1841038 0.09146851
vt 0.1801128 0.06985284
vt 0.1761219 0.09146851
vt 0.1858998 0.0849499
vt 0.1898907 0.0813358
vt 0.1858998 0.09293181
vn 0.05887012 -0.5798038 0.8126265
vn 0.05887012 -0.5798038 0.8126265
vn 0.05887012 -0.5798037 0.8126265
vn -0.1305976 -0.5882285 -0.7980798
vn -0.1305976 -0.5882285 -0.7980798
vn -0.1305976 -0.5882285 -0.7980798
vn 0.827391 -0.5389401 -0.1580119
vn 0.827391 -0.5389401 -0.1580119
vn 0.827391 -0.5389401 -0.1580119
vn -0.7495118 -0.6509851 0.1202104
vn -0.7495117 -0.6509851 0.1202104
vn -0.7495118 -0.6509851 0.1202104
vn -0.07052601 0.1504253 0.9861026
vn -0.07052601 0.1504253 0.9861026
vn -0.07052601 0.1504253 0.9861026
vn 0.8142089 0.5173919 -0.263381
vn 0.8142089 0.5173919 -0.263381
vn 0.8142089 0.5173919 -0.263381
vn -0.2731967 0.0738373 -0.9591203
vn -0.2731967 0.0738373 -0.9591203
vn -0.2731967 0.0738373 -0.9591203
vn -0.971687 -0.2109841 0.1063484
vn -0.9716871 -0.2109841 0.1063484
vn -0.971687 -0.2109841 0.1063484
g iceCrystal04_mesh_0
f 3/3/3 2/2/2 1/1/1
f 6/6/6 5/5/5 4/4/4
f 9/9/9 8/8/8 7/7/7
f 12/12/12 11/11/11 10/10/10
f 15/15/15 14/14/14 13/13/13
f 18/18/18 17/17/17 16/16/16
f 21/21/21 20/20/20 19/19/19
f 24/24/24 23/23/23 22/22/22
