g iceCrystal03_mesh
v -0.02942639 0.3975365 0.1708474
v 0.1590215 0.5391116 -0.03954878
v 0.4832402 0.2856108 0.1947426
v 0.4832402 0.2856108 0.1947426
v 0.1590215 0.5391116 -0.03954878
v 0.3387662 0.2856108 -0.3252593
v 0.3387662 0.2856108 -0.3252593
v 0.1590215 0.5391116 -0.03954878
v -0.07326223 0.382898 -0.210784
v -0.07326223 0.382898 -0.210784
v 0.1590215 0.5391116 -0.03954878
v -0.02942639 0.3975365 0.1708474
v -0.5060865 -0.2956281 -0.2949421
v 0.1687652 -0.9755748 -0.06557047
v 0.4132931 -0.3969186 -0.5491902
v 0.4132931 -0.3969186 -0.5491902
v 0.1687652 -0.9755748 -0.06557047
v 0.6533042 -0.3178287 0.2735939
v 0.6533042 -0.3178287 0.2735939
v 0.1687652 -0.9755748 -0.06557047
v -0.4000369 -0.2348169 0.3540015
v -0.4000369 -0.2348169 0.3540015
v 0.1687652 -0.9755748 -0.06557047
v -0.5060865 -0.2956281 -0.2949421
v -0.4000369 -0.2348169 0.3540015
v -0.02942639 0.3975365 0.1708474
v 0.4832402 0.2856108 0.1947426
v 0.6533042 -0.3178287 0.2735939
v -0.07326223 0.382898 -0.210784
v -0.5060865 -0.2956281 -0.2949421
v 0.4132931 -0.3969186 -0.5491902
v 0.3387662 0.2856108 -0.3252593
v 0.6533042 -0.3178287 0.2735939
v 0.4832402 0.2856108 0.1947426
v 0.3387662 0.2856108 -0.3252593
v 0.4132931 -0.3969186 -0.5491902
v -0.5060865 -0.2956281 -0.2949421
v -0.07326223 0.382898 -0.210784
v -0.02942639 0.3975365 0.1708474
v -0.4000369 -0.2348169 0.3540015
vt 0.1858998 0.09293181
vt 0.1898907 0.08894084
vt 0.1938817 0.09293181
vt 0.1938817 0.08894821
vt 0.1898907 0.08495725
vt 0.1938817 0.0809663
vt 0.1841038 0.08748491
vt 0.1801128 0.09147586
vt 0.1761219 0.08748491
vt 0.1858998 0.0849499
vt 0.1898907 0.08894084
vt 0.1858998 0.09293181
vt 0.1801054 0.085412
vt 0.1840964 0.06573413
vt 0.1880874 0.085412
vt 0.1981091 0.1028425
vt 0.1929062 0.08891141
vt 0.1981091 0.09540562
vt 0.1938817 0.08488384
vt 0.1898907 0.07297703
vt 0.1858998 0.08488384
vt 0.1858998 0.08488384
vt 0.1898907 0.07297703
vt 0.1858998 0.09058835
vt 0.1858998 0.09946512
vt 0.1858998 0.07953244
vt 0.1938817 0.07953244
vt 0.1938817 0.09946512
vt 0.1858998 0.0849499
vt 0.1858998 0.08891878
vt 0.1938817 0.08891878
vt 0.1938817 0.0849499
vt 0.1938817 0.1128645
vt 0.1938817 0.08894821
vt 0.2018636 0.08894821
vt 0.2018636 0.1128645
vt 0.1779179 0.1128645
vt 0.1779179 0.09293181
vt 0.1858998 0.09293181
vt 0.1858998 0.1128645
vn 0.1365566 0.7609098 0.6343254
vn 0.1365566 0.7609098 0.6343254
vn 0.1365566 0.7609098 0.6343254
vn 0.6864703 0.7016998 -0.1907246
vn 0.6864704 0.7016998 -0.1907246
vn 0.6864703 0.7016998 -0.1907246
vn -0.009384303 0.7450412 -0.6669524
vn -0.009384301 0.7450412 -0.6669524
vn -0.009384302 0.7450413 -0.6669524
vn -0.5752171 0.8172635 0.03472364
vn -0.5752171 0.8172635 0.03472364
vn -0.5752171 0.8172635 0.03472364
vn -0.2788124 -0.5437524 -0.7915788
vn -0.2788124 -0.5437524 -0.7915788
vn -0.2788124 -0.5437524 -0.7915788
vn 0.8349335 -0.5150053 -0.1940504
vn 0.8349335 -0.5150053 -0.1940504
vn 0.8349335 -0.5150054 -0.1940504
vn 0.0296686 -0.4752811 0.8793336
vn 0.0296686 -0.475281 0.8793336
vn 0.0296686 -0.475281 0.8793336
vn -0.727886 -0.6613978 0.1809283
vn -0.727886 -0.6613978 0.1809283
vn -0.7278859 -0.6613978 0.1809283
vn 0.05992022 0.1977162 0.9784263
vn 0.05992022 0.1977162 0.9784263
vn 0.05992022 0.1977162 0.9784263
vn 0.05992021 0.1977162 0.9784263
vn -0.2193792 0.2699741 -0.937543
vn -0.2193792 0.2699741 -0.937543
vn -0.2193792 0.2699741 -0.937543
vn -0.2193792 0.2699741 -0.937543
vn 0.9366317 0.2097974 -0.2805464
vn 0.9366317 0.2097974 -0.2805464
vn 0.9366317 0.2097974 -0.2805464
vn 0.9366317 0.2097974 -0.2805464
vn -0.8466791 0.5253225 0.08468038
vn -0.8466791 0.5253226 0.08468039
vn -0.8466791 0.5253224 0.08468038
vn -0.8466791 0.5253225 0.08468038
g iceCrystal03_mesh_0
f 3/3/3 2/2/2 1/1/1
f 6/6/6 5/5/5 4/4/4
f 9/9/9 8/8/8 7/7/7
f 12/12/12 11/11/11 10/10/10
f 15/15/15 14/14/14 13/13/13
f 18/18/18 17/17/17 16/16/16
f 21/21/21 20/20/20 19/19/19
f 24/24/24 23/23/23 22/22/22
f 27/27/27 26/26/26 25/25/25
f 28/28/28 27/27/27 25/25/25
f 31/31/31 30/30/30 29/29/29
f 32/32/32 31/31/31 29/29/29
f 35/35/35 34/34/34 33/33/33
f 36/36/36 35/35/35 33/33/33
f 39/39/39 38/38/38 37/37/37
f 40/40/40 39/39/39 37/37/37
