g iceCrystal01_mesh
v -0.03338584 0.4501713 0.1113777
v 0.3648154 0.7439265 -0.06688202
v 0.3879814 0.1795066 0.2742549
v 0.3879814 0.1795066 0.2742549
v 0.3648154 0.7439265 -0.06688202
v 0.3879814 0.1795066 -0.2742549
v 0.3879814 0.1795066 -0.2742549
v 0.3648154 0.7439265 -0.06688202
v 0.01816691 0.4163837 -0.2742549
v 0.01816691 0.4163837 -0.2742549
v 0.3648154 0.7439265 -0.06688202
v -0.03338584 0.4501713 0.1113777
v -0.3171291 -0.2238685 -0.3510008
v -0.3421192 -0.7739025 -0.1027463
v 0.2283804 -0.3473382 -0.3510008
v 0.2283804 -0.3473382 -0.3510008
v -0.3421192 -0.7739025 -0.1027463
v 0.2283804 -0.3473382 0.3510008
v 0.2283804 -0.3473382 0.3510008
v -0.3421192 -0.7739025 -0.1027463
v -0.378906 -0.2098861 0.1836283
v -0.378906 -0.2098861 0.1836283
v -0.3421192 -0.7739025 -0.1027463
v -0.3171291 -0.2238685 -0.3510008
v -0.378906 -0.2098861 0.1836283
v -0.03338584 0.4501713 0.1113777
v 0.3879814 0.1795066 0.2742549
v 0.2283804 -0.3473382 0.3510008
v 0.01816691 0.4163837 -0.2742549
v -0.3171291 -0.2238685 -0.3510008
v 0.2283804 -0.3473382 -0.3510008
v 0.3879814 0.1795066 -0.2742549
v 0.2283804 -0.3473382 0.3510008
v 0.3879814 0.1795066 0.2742549
v 0.3879814 0.1795066 -0.2742549
v 0.2283804 -0.3473382 -0.3510008
v -0.3171291 -0.2238685 -0.3510008
v 0.01816691 0.4163837 -0.2742549
v -0.03338584 0.4501713 0.1113777
v -0.378906 -0.2098861 0.1836283
vt 0.1858998 0.07371604
vt 0.1898907 0.07770701
vt 0.1938817 0.07371604
vt 0.1938817 0.07371604
vt 0.1898907 0.07770701
vt 0.1938817 0.08169796
vt 0.1841038 0.07517935
vt 0.1801128 0.0711884
vt 0.1761219 0.07517935
vt 0.1858998 0.08169796
vt 0.1898907 0.07770701
vt 0.1858998 0.07371604
vt 0.1801054 0.09692275
vt 0.1840964 0.1009137
vt 0.1880874 0.09692275
vt 0.1981091 0.07253351
vt 0.1929062 0.07773644
vt 0.1981091 0.08293936
vt 0.1938817 0.09766177
vt 0.1898907 0.09367082
vt 0.1858998 0.09766177
vt 0.1858998 0.09766177
vt 0.1898907 0.09367082
vt 0.1858998 0.08967985
vt 0.1858998 0.06573414
vt 0.1858998 0.07371604
vt 0.1938817 0.07371604
vt 0.1938817 0.06573414
vt 0.1858998 0.08169796
vt 0.1858998 0.08967985
vt 0.1938817 0.08967985
vt 0.1938817 0.08169796
vt 0.1938817 0.06573414
vt 0.1938817 0.07371604
vt 0.2018636 0.07371604
vt 0.2018636 0.06573414
vt 0.1779179 0.06573414
vt 0.1779179 0.07371604
vt 0.1858998 0.07371604
vt 0.1858998 0.06573414
vn 0.001487726 0.5173078 0.8557982
vn 0.001487726 0.5173079 0.8557982
vn 0.001487726 0.5173078 0.8557981
vn 0.9991587 0.0410094 0
vn 0.9991587 0.04100941 0
vn 0.9991587 0.0410094 0
vn 0.2205593 0.344339 -0.9125702
vn 0.2205593 0.344339 -0.9125702
vn 0.2205593 0.344339 -0.9125702
vn -0.6297179 0.7620173 -0.1509477
vn -0.6297179 0.7620173 -0.1509478
vn -0.6297179 0.7620171 -0.1509477
vn -0.0919314 -0.4061682 -0.9091622
vn -0.0919314 -0.4061682 -0.9091622
vn -0.09193141 -0.4061682 -0.9091622
vn 0.5988221 -0.8008821 0
vn 0.5988221 -0.8008821 0
vn 0.5988221 -0.8008821 0
vn -0.3301059 -0.4443783 0.8328013
vn -0.3301059 -0.4443783 0.8328013
vn -0.330106 -0.4443783 0.8328013
vn -0.9933882 -0.006597209 -0.1146144
vn -0.9933882 -0.00659721 -0.1146144
vn -0.9933882 -0.006597209 -0.1146144
vn -0.2208451 0.2134534 0.9516643
vn -0.220845 0.2134533 0.9516643
vn -0.2208451 0.2134534 0.9516643
vn -0.2208451 0.2134534 0.9516643
vn 0.04404674 0.1118841 -0.9927447
vn 0.04404674 0.1118841 -0.9927447
vn 0.04404674 0.1118841 -0.9927447
vn 0.04404674 0.1118841 -0.9927447
vn 0.9570491 -0.289926 0
vn 0.9570491 -0.289926 0
vn 0.9570491 -0.289926 0
vn 0.9570491 -0.289926 0
vn -0.8779745 0.4601464 -0.1320079
vn -0.8779746 0.4601463 -0.1320079
vn -0.8779745 0.4601463 -0.1320079
vn -0.8779745 0.4601464 -0.1320079
g iceCrystal01_mesh_0
f 3/3/3 2/2/2 1/1/1
f 6/6/6 5/5/5 4/4/4
f 9/9/9 8/8/8 7/7/7
f 12/12/12 11/11/11 10/10/10
f 15/15/15 14/14/14 13/13/13
f 18/18/18 17/17/17 16/16/16
f 21/21/21 20/20/20 19/19/19
f 24/24/24 23/23/23 22/22/22
f 27/27/27 26/26/26 25/25/25
f 28/28/28 27/27/27 25/25/25
f 31/31/31 30/30/30 29/29/29
f 32/32/32 31/31/31 29/29/29
f 35/35/35 34/34/34 33/33/33
f 36/36/36 35/35/35 33/33/33
f 39/39/39 38/38/38 37/37/37
f 40/40/40 39/39/39 37/37/37
