g iceCrystal02_mesh
v -0.1785767 -0.3507253 -0.3083375
v 0.0545898 0.2215931 -0.2942463
v -0.0217088 0.3742998 -0.1810115
v -0.0217088 0.3742998 -0.1810115
v -0.2434583 -0.1959463 0.2113946
v -0.0217088 0.3742998 -0.1810115
v 0.07382433 0.4444759 -0.250203
v 0.3814952 0.3375376 -0.0481694
v 0.3814952 0.3375376 -0.0481694
v 0.07382433 0.4444759 -0.250203
v 0.3280701 0.1659321 -0.2805927
v 0.3280701 0.1659321 -0.2805927
v 0.07382433 0.4444759 -0.250203
v 0.0545898 0.2215931 -0.2942463
v 0.0545898 0.2215931 -0.2942463
v 0.07382433 0.4444759 -0.250203
v -0.0217088 0.3742998 -0.1810115
v -0.1785767 -0.3507253 -0.3083375
v -0.06489225 -0.566619 0.1177463
v 0.2283804 -0.3473382 -0.1074972
v 0.2283804 -0.3473382 -0.1074972
v -0.06489225 -0.566619 0.1177463
v 0.2479298 -0.2828054 0.3277865
v 0.2479298 -0.2828054 0.3277865
v -0.06489225 -0.566619 0.1177463
v -0.2434583 -0.1959463 0.2113946
v -0.2434583 -0.1959463 0.2113946
v -0.06489225 -0.566619 0.1177463
v -0.1785767 -0.3507253 -0.3083375
v -0.2434583 -0.1959463 0.2113946
v -0.0217088 0.3742998 -0.1810115
v 0.3814952 0.3375376 -0.0481694
v 0.2479298 -0.2828054 0.3277865
v 0.0545898 0.2215931 -0.2942463
v -0.1785767 -0.3507253 -0.3083375
v 0.2283804 -0.3473382 -0.1074972
v 0.3280701 0.1659321 -0.2805927
v 0.2479298 -0.2828054 0.3277865
v 0.3814952 0.3375376 -0.0481694
v 0.3280701 0.1659321 -0.2805927
v 0.2283804 -0.3473382 -0.1074972
vt 0.1779179 0.1128645
vt 0.1779179 0.09293181
vt 0.1858998 0.09293181
vt 0.1858998 0.09293181
vt 0.1858998 0.1128645
vt 0.1858998 0.09293181
vt 0.1898907 0.08894084
vt 0.1938817 0.09293181
vt 0.1938817 0.09293181
vt 0.1898907 0.08894084
vt 0.1938817 0.0849499
vt 0.1841038 0.09146851
vt 0.1801128 0.09545945
vt 0.1761219 0.09146851
vt 0.1858998 0.0849499
vt 0.1898907 0.08894084
vt 0.1858998 0.09293181
vt 0.1801054 0.085412
vt 0.1840964 0.06573413
vt 0.1880874 0.085412
vt 0.1981091 0.1028425
vt 0.1929062 0.08891141
vt 0.1981091 0.09540562
vt 0.1938817 0.08488384
vt 0.1898907 0.07297703
vt 0.1858998 0.08488384
vt 0.1858998 0.08488384
vt 0.1898907 0.07297703
vt 0.1858998 0.09058835
vt 0.1858998 0.1128645
vt 0.1858998 0.09293181
vt 0.1938817 0.09293181
vt 0.1938817 0.1128645
vt 0.1858998 0.0849499
vt 0.1858998 0.08891878
vt 0.1938817 0.08891878
vt 0.1938817 0.0849499
vt 0.1938817 0.1128645
vt 0.1938817 0.09293181
vt 0.2018636 0.09293181
vt 0.2018636 0.1128645
vn -0.9103138 0.2543102 -0.326581
vn -0.9103138 0.2543102 -0.3265811
vn -0.9103138 0.2543102 -0.3265811
vn -0.9103138 0.2543102 -0.3265811
vn -0.9103138 0.2543103 -0.3265811
vn -0.1303325 0.7803968 0.6115507
vn -0.1303325 0.7803968 0.6115507
vn -0.1303325 0.7803968 0.6115506
vn 0.5767117 0.5882519 -0.5668892
vn 0.5767117 0.5882519 -0.5668892
vn 0.5767117 0.588252 -0.5668891
vn 0.08670405 0.185922 -0.9787315
vn 0.08670406 0.185922 -0.9787315
vn 0.08670406 0.185922 -0.9787315
vn -0.6666633 0.1994496 -0.7181782
vn -0.6666633 0.1994496 -0.7181782
vn -0.6666633 0.1994496 -0.7181782
vn 0.2486606 -0.8356447 -0.4897611
vn 0.2486606 -0.8356447 -0.4897611
vn 0.2486606 -0.8356447 -0.4897611
vn 0.6376515 -0.7656354 0.08487084
vn 0.6376516 -0.7656354 0.08487084
vn 0.6376515 -0.7656354 0.08487084
vn -0.2746447 -0.3577907 0.8924999
vn -0.2746448 -0.3577907 0.8924999
vn -0.2746448 -0.3577907 0.8924999
vn -0.8989683 -0.4376392 0.01810715
vn -0.8989683 -0.4376391 0.01810715
vn -0.8989683 -0.4376392 0.01810715
vn -0.1474281 0.5670075 0.8104119
vn -0.1474281 0.5670076 0.8104119
vn -0.1474281 0.5670075 0.8104119
vn -0.1474281 0.5670075 0.8104119
vn 0.2775873 -0.2220151 -0.9346949
vn 0.2775874 -0.2220151 -0.9346949
vn 0.2775874 -0.2220151 -0.9346949
vn 0.2775874 -0.2220151 -0.9346949
vn 0.9760147 -0.2155672 -0.03043332
vn 0.9760147 -0.2155672 -0.03043332
vn 0.9760147 -0.2155672 -0.03043332
vn 0.9760147 -0.2155672 -0.03043332
g iceCrystal02_mesh_0
f 3/3/3 2/2/2 1/1/1
f 5/5/5 4/4/4 1/1/1
f 8/8/8 7/7/7 6/6/6
f 11/11/11 10/10/10 9/9/9
f 14/14/14 13/13/13 12/12/12
f 17/17/17 16/16/16 15/15/15
f 20/20/20 19/19/19 18/18/18
f 23/23/23 22/22/22 21/21/21
f 26/26/26 25/25/25 24/24/24
f 29/29/29 28/28/28 27/27/27
f 32/32/32 31/31/31 30/30/30
f 33/33/33 32/32/32 30/30/30
f 36/36/36 35/35/35 34/34/34
f 37/37/37 36/36/36 34/34/34
f 40/40/40 39/39/39 38/38/38
f 41/41/41 40/40/40 38/38/38
