g jackpot_lightning1_2_mesh
v -2.775558E-17 0.918771 -1.128195
v -2.775558E-17 0.3596604 -0.5103282
v -2.775558E-17 0.8010947 -1.20311
v -2.775558E-17 0.918771 -1.128195
v -2.775558E-17 0.3991325 -0.4771861
v -2.775558E-17 0.2282164 -0.4389352
v -2.775558E-17 0.2532448 -0.3413753
v -2.775558E-17 0.1284015 -0.4594225
v -2.775558E-17 0.1241877 -0.4281587
v -2.775558E-17 0.007921416 -0.5093784
v -2.775558E-17 0.03920003 -0.4517407
v -2.775558E-17 -0.1112226 -0.2711262
v -2.775558E-17 -0.08520763 -0.2643542
v -2.775558E-17 -0.2345125 -0.1811341
v -2.775558E-17 -0.1545809 -0.1760048
v -2.775558E-17 -0.1338428 -0.001143382
v -2.775558E-17 -0.07316129 -0.02421658
v -2.775558E-17 -0.1120238 0.1720591
v -2.775558E-17 -0.0241007 0.1861945
v -2.775558E-17 -0.1948309 0.286088
v -2.775558E-17 -0.1697511 0.3024016
v -2.775558E-17 -0.2653475 0.4409061
v -2.775558E-17 -0.247783 0.4810548
v -2.775558E-17 -0.3389519 0.4392205
v -2.775558E-17 -0.3254447 0.4586626
v -2.775558E-17 -0.3389519 0.4392205
v -2.775558E-17 -0.3254447 0.4586626
v -2.775558E-17 -0.342139 0.5023809
v -2.775558E-17 -0.3389519 0.4392205
v -2.775558E-17 -0.335083 0.5520592
v -2.775558E-17 -0.342139 0.5023809
v -2.775558E-17 -0.3178395 1.452719
v -2.775558E-17 -0.4521487 0.5070797
v -2.775558E-17 0.3991325 -0.4771861
v -2.775558E-17 0.918771 -1.128195
v -2.775558E-17 1.078049 -1.154014
v -2.775558E-17 0.4808767 -0.4058704
v -2.775558E-17 0.8010947 -1.20311
v -2.775558E-17 0.7670657 -1.351995
v -2.775558E-17 1.078049 -1.154014
v -2.775558E-17 0.8010947 -1.20311
v -2.775558E-17 0.3596604 -0.5103282
v -2.775558E-17 0.2813255 -0.5896787
v -2.775558E-17 0.7670657 -1.351995
v -2.775558E-17 -0.1120238 0.1720591
v -2.775558E-17 -0.1948309 0.286088
v -2.775558E-17 -0.290725 0.2334538
v -2.775558E-17 -0.2259784 0.1442958
v -2.775558E-17 -0.1697511 0.3024016
v -2.775558E-17 -0.0241007 0.1861945
v -2.775558E-17 0.09775217 0.2266885
v -2.775558E-17 -0.07930522 0.3679529
v -2.775558E-17 -0.07316129 -0.02421658
v -2.775558E-17 -0.1545809 -0.1760048
v -1.490116E-08 -0.02520792 -0.1652374
v -2.775558E-17 0.03064902 -0.0611047
v -2.775558E-17 -0.2345125 -0.1811341
v -2.775558E-17 -0.1338428 -0.001143382
v -2.775558E-17 -0.2401476 0.03181846
v 7.450581E-09 -0.3759563 -0.2109985
v -2.775558E-17 -0.3254447 0.4586626
v -2.775558E-17 -0.247783 0.4810548
v -2.775558E-17 -0.1850687 0.6100984
v 5.960464E-08 -0.2295593 0.5972701
v -2.775558E-17 -0.2653475 0.4409061
v -2.775558E-17 -0.3389519 0.4392205
v -5.960464E-08 -0.4432355 0.330442
v 2.980232E-08 -0.3360189 0.3328958
v -2.775558E-17 -0.08520763 -0.2643542
v -2.775558E-17 0.03920003 -0.4517407
v -2.775558E-17 0.07784267 -0.3277664
v -2.775558E-17 0.004630524 -0.2032375
v -2.775558E-17 0.007921416 -0.5093784
v -2.775558E-17 -0.1112226 -0.2711262
v -2.775558E-17 -0.1983084 -0.3406686
v -2.775558E-17 -0.04510192 -0.6470341
v -2.775558E-17 -0.0241007 0.1861945
v -2.775558E-17 -0.07316129 -0.02421658
v -2.775558E-17 0.03064902 -0.0611047
v -2.775558E-17 0.09775217 0.2266885
v -2.775558E-17 -0.1338428 -0.001143382
v -2.775558E-17 -0.1120238 0.1720591
v -2.775558E-17 -0.2259784 0.1442958
v -2.775558E-17 -0.2401476 0.03181846
v -2.775558E-17 -0.247783 0.4810548
v -2.775558E-17 -0.1697511 0.3024016
v -2.775558E-17 -0.07930522 0.3679529
v -2.775558E-17 -0.1850687 0.6100984
v -2.775558E-17 -0.1948309 0.286088
v -2.775558E-17 -0.2653475 0.4409061
v 2.980232E-08 -0.3360189 0.3328958
v -2.775558E-17 -0.290725 0.2334538
v -2.775558E-17 -0.335083 0.5520592
v -2.775558E-17 -0.3254447 0.4586626
v 5.960464E-08 -0.2295593 0.5972701
v -2.775558E-17 -0.3178395 1.452719
v -2.775558E-17 -0.3389519 0.4392205
v -2.775558E-17 -0.342139 0.5023809
v -2.775558E-17 -0.4521487 0.5070797
v -5.960464E-08 -0.4432355 0.330442
v -2.775558E-17 -0.1545809 -0.1760048
v -2.775558E-17 -0.08520763 -0.2643542
v -2.775558E-17 0.004630524 -0.2032375
v -1.490116E-08 -0.02520792 -0.1652374
v -2.775558E-17 -0.1112226 -0.2711262
v -2.775558E-17 -0.2345125 -0.1811341
v 7.450581E-09 -0.3759563 -0.2109985
v -2.775558E-17 -0.1983084 -0.3406686
v -2.775558E-17 0.1241877 -0.4281587
v -2.775558E-17 0.2532448 -0.3413753
v -2.775558E-17 0.2644694 -0.2044114
v -2.775558E-17 0.1093326 -0.3158762
v -2.775558E-17 0.2282164 -0.4389352
v -2.775558E-17 0.1284015 -0.4594225
v -2.775558E-17 0.161611 -0.5613207
v -2.775558E-17 0.2106027 -0.5512666
v -2.775558E-17 0.2532448 -0.3413753
v -2.775558E-17 0.3991325 -0.4771861
v -2.775558E-17 0.4808767 -0.4058704
v -2.775558E-17 0.2644694 -0.2044114
v -2.775558E-17 0.3596604 -0.5103282
v -2.775558E-17 0.2282164 -0.4389352
v -2.775558E-17 0.2106027 -0.5512666
v -2.775558E-17 0.2813255 -0.5896787
v -2.775558E-17 0.03920003 -0.4517407
v -2.775558E-17 0.1241877 -0.4281587
v -2.775558E-17 0.1093326 -0.3158762
v -2.775558E-17 0.07784267 -0.3277664
v -2.775558E-17 0.1284015 -0.4594225
v -2.775558E-17 0.007921416 -0.5093784
v -2.775558E-17 -0.04510192 -0.6470341
v -2.775558E-17 0.161611 -0.5613207
vt 0.6350278 0.03718647
vt 0.6313924 0.02982567
vt 0.6350278 0.02982566
vt 0.6350278 0.03718647
vt 0.6313924 0.03718649
vt 0.6305404 0.02982572
vt 0.6305404 0.0371865
vt 0.6303124 0.02982572
vt 0.6303124 0.03718647
vt 0.630096 0.02982572
vt 0.6300959 0.03718646
vt 0.6294968 0.02982572
vt 0.6294968 0.03718647
vt 0.6288979 0.02982566
vt 0.6288978 0.03718648
vt 0.6248943 0.02982564
vt 0.6248943 0.03718646
vt 0.622768 0.02982572
vt 0.622768 0.03718645
vt 0.6189853 0.0298257
vt 0.6189853 0.03718644
vt 0.6166381 0.02982572
vt 0.6166381 0.0371865
vt 0.6140825 0.02982572
vt 0.6140825 0.0371865
vt 0.6140825 0.02982572
vt 0.6140825 0.0371865
vt 0.6105082 0.02982571
vt 0.6140825 0.02982572
vt 0.6105082 0.0371865
vt 0.6350278 0.03718647
vt 0.6105082 0.5157509
vt 0.6350278 0.5157509
vt 0.6350278 0.03718647
vt 0.6105082 0.0371865
vt 0.6105082 0.5157509
vt 0.6350278 0.5157509
vt 0.6105082 0.0371865
vt 0.6105082 0.5157509
vt 0.6350278 0.5157509
vt 0.6350278 0.03718647
vt 0.6105082 0.0371865
vt 0.6105082 0.5157509
vt 0.6350278 0.5157509
vt 0.6350278 0.03718647
vt 0.6105082 0.0371865
vt 0.6105082 0.5157509
vt 0.6350278 0.5157509
vt 0.6350278 0.03718647
vt 0.6105082 0.0371865
vt 0.6105082 0.5157509
vt 0.6350278 0.5157509
vt 0.6350278 0.03718647
vt 0.6105082 0.0371865
vt 0.6105082 0.5157509
vt 0.6350278 0.5157509
vt 0.6350278 0.03718647
vt 0.6105082 0.0371865
vt 0.6105082 0.5157509
vt 0.6350278 0.5157509
vt 0.6350278 0.03718647
vt 0.6105082 0.0371865
vt 0.6105082 0.5157509
vt 0.6350278 0.5157509
vt 0.6350278 0.03718647
vt 0.6105082 0.0371865
vt 0.6105082 0.5157509
vt 0.6350278 0.5157509
vt 0.6350278 0.03718647
vt 0.6105082 0.0371865
vt 0.6105082 0.5157509
vt 0.6350278 0.5157509
vt 0.6350278 0.03718647
vt 0.6105082 0.0371865
vt 0.6105082 0.5157509
vt 0.6350278 0.5157509
vt 0.6350278 0.03718647
vt 0.6105082 0.0371865
vt 0.6105082 0.5157509
vt 0.6350278 0.5157509
vt 0.6350278 0.03718647
vt 0.6105082 0.0371865
vt 0.6105082 0.5157509
vt 0.6350278 0.5157509
vt 0.6350278 0.03718647
vt 0.6105082 0.0371865
vt 0.6105082 0.5157509
vt 0.6350278 0.5157509
vt 0.6350278 0.03718647
vt 0.6105082 0.0371865
vt 0.6105082 0.5157509
vt 0.6350278 0.5157509
vt 0.6350278 0.03718647
vt 0.6105082 0.0371865
vt 0.6105082 0.5157509
vt 0.6350278 0.5157509
vt 0.6350278 0.03718647
vt 0.6105082 0.0371865
vt 0.6105082 0.5157509
vt 0.6350278 0.5157509
vt 0.6350278 0.03718647
vt 0.6105082 0.0371865
vt 0.6105082 0.5157509
vt 0.6350278 0.5157509
vt 0.6350278 0.03718647
vt 0.6105082 0.0371865
vt 0.6105082 0.5157509
vt 0.6350278 0.5157509
vt 0.6350278 0.03718647
vt 0.6105082 0.0371865
vt 0.6105082 0.5157509
vt 0.6350278 0.5157509
vt 0.6350278 0.03718647
vt 0.6105082 0.0371865
vt 0.6105082 0.5157509
vt 0.6350278 0.5157509
vt 0.6350278 0.03718647
vt 0.6105082 0.0371865
vt 0.6105082 0.5157509
vt 0.6350278 0.5157509
vt 0.6350278 0.03718647
vt 0.6105082 0.0371865
vt 0.6105082 0.5157509
vt 0.6350278 0.5157509
vt 0.6350278 0.03718647
vt 0.6105082 0.0371865
vt 0.6105082 0.5157509
vt 0.6350278 0.5157509
vt 0.6350278 0.03718647
vt 0.6105082 0.0371865
vt 0.6105082 0.5157509
vt 0.6350278 0.5157509
vn -1 0 0
vn -1 0 0
vn -1 0 0
vn -1 0 0
vn -1 0 0
vn -1 0 0
vn -1 0 0
vn -1 0 0
vn -1 0 0
vn -1 0 0
vn -1 0 0
vn -1 0 0
vn -1 0 0
vn -1 0 0
vn -1 0 0
vn -1 0 0
vn -1 0 0
vn -1 0 0
vn -1 0 0
vn -1 0 0
vn -1 0 0
vn -1 0 0
vn -1 0 0
vn -1 0 0
vn -1 0 0
vn -1 0 0
vn -1 0 0
vn -1 0 0
vn -1 0 0
vn -1 0 0
vn -1 0 0
vn -1 0 0
vn -1 0 0
vn -1 0 0
vn -1 0 0
vn -1 0 0
vn -1 0 0
vn -1 0 0
vn -1 0 0
vn -1 0 0
vn -1 0 0
vn -1 0 0
vn -1 0 0
vn -1 0 0
vn -1 0 0
vn -1 0 0
vn -1 0 0
vn -1 0 0
vn -1 0 0
vn -1 0 0
vn -1 0 0
vn -1 0 0
vn -1 0 0
vn -1 0 0
vn -1 0 0
vn -1 0 0
vn -1 0 0
vn -1 0 0
vn -1 0 0
vn -1 0 0
vn -1 0 0
vn -1 0 0
vn -1 0 0
vn -1 0 0
vn -1 0 0
vn -1 0 0
vn -1 0 0
vn -1 0 0
vn -1 0 0
vn -1 0 0
vn -1 0 0
vn -1 0 0
vn -1 0 0
vn -1 0 0
vn -1 0 0
vn -1 0 0
vn -1 0 0
vn -1 0 0
vn -1 0 0
vn -1 0 0
vn -1 0 0
vn -1 0 0
vn -1 0 0
vn -1 0 0
vn -1 0 0
vn -1 0 0
vn -1 0 0
vn -1 0 0
vn -1 0 0
vn -1 0 0
vn -1 0 0
vn -1 0 0
vn -1 0 0
vn -1 0 0
vn -1 0 0
vn -1 0 0
vn -1 0 0
vn -1 0 0
vn -1 0 0
vn -1 0 0
vn -1 0 0
vn -1 0 0
vn -1 0 0
vn -1 0 0
vn -1 0 0
vn -1 0 0
vn -1 0 0
vn -1 0 0
vn -1 0 0
vn -1 0 0
vn -1 0 0
vn -1 0 0
vn -1 0 0
vn -1 0 0
vn -1 0 0
vn -1 0 0
vn -1 0 0
vn -1 0 0
vn -1 0 0
vn -1 0 0
vn -1 0 0
vn -1 0 0
vn -1 0 0
vn -1 0 0
vn -1 0 0
vn -1 0 0
vn -1 0 0
vn -1 0 0
vn -1 0 0
vn -1 0 0
vn -1 0 0
vn -1 0 0
g jackpot_lightning1_2_mesh_0
f 3/3/3 2/2/2 1/1/1
f 2/2/2 5/5/5 4/4/4
f 2/2/2 6/6/6 5/5/5
f 6/6/6 7/7/7 5/5/5
f 6/6/6 8/8/8 7/7/7
f 8/8/8 9/9/9 7/7/7
f 8/8/8 10/10/10 9/9/9
f 10/10/10 11/11/11 9/9/9
f 10/10/10 12/12/12 11/11/11
f 12/12/12 13/13/13 11/11/11
f 12/12/12 14/14/14 13/13/13
f 14/14/14 15/15/15 13/13/13
f 14/14/14 16/16/16 15/15/15
f 16/16/16 17/17/17 15/15/15
f 16/16/16 18/18/18 17/17/17
f 18/18/18 19/19/19 17/17/17
f 18/18/18 20/20/20 19/19/19
f 20/20/20 21/21/21 19/19/19
f 20/20/20 22/22/22 21/21/21
f 22/22/22 23/23/23 21/21/21
f 22/22/22 24/24/24 23/23/23
f 26/26/26 25/25/25 23/23/23
f 29/29/29 28/28/28 27/27/27
f 28/28/28 30/30/30 27/27/27
f 32/32/32 30/30/30 31/31/31
f 33/33/33 32/32/32 31/31/31
f 36/36/36 35/35/35 34/34/34
f 37/37/37 36/36/36 34/34/34
f 39/39/39 38/38/38 4/4/4
f 40/40/40 39/39/39 4/4/4
f 43/43/43 42/42/42 41/41/41
f 44/44/44 43/43/43 41/41/41
f 47/47/47 46/46/46 45/45/45
f 48/48/48 47/47/47 45/45/45
f 51/51/51 50/50/50 49/49/49
f 52/52/52 51/51/51 49/49/49
f 55/55/55 54/54/54 53/53/53
f 56/56/56 55/55/55 53/53/53
f 59/59/59 58/58/58 57/57/57
f 60/60/60 59/59/59 57/57/57
f 63/63/63 62/62/62 61/61/61
f 64/64/64 63/63/63 61/61/61
f 67/67/67 66/66/66 65/65/65
f 68/68/68 67/67/67 65/65/65
f 71/71/71 70/70/70 69/69/69
f 72/72/72 71/71/71 69/69/69
f 75/75/75 74/74/74 73/73/73
f 76/76/76 75/75/75 73/73/73
f 79/79/79 78/78/78 77/77/77
f 80/80/80 79/79/79 77/77/77
f 83/83/83 82/82/82 81/81/81
f 84/84/84 83/83/83 81/81/81
f 87/87/87 86/86/86 85/85/85
f 88/88/88 87/87/87 85/85/85
f 91/91/91 90/90/90 89/89/89
f 92/92/92 91/91/91 89/89/89
f 95/95/95 94/94/94 93/93/93
f 96/96/96 95/95/95 93/93/93
f 99/99/99 98/98/98 97/97/97
f 100/100/100 99/99/99 97/97/97
f 103/103/103 102/102/102 101/101/101
f 104/104/104 103/103/103 101/101/101
f 107/107/107 106/106/106 105/105/105
f 108/108/108 107/107/107 105/105/105
f 111/111/111 110/110/110 109/109/109
f 112/112/112 111/111/111 109/109/109
f 115/115/115 114/114/114 113/113/113
f 116/116/116 115/115/115 113/113/113
f 119/119/119 118/118/118 117/117/117
f 120/120/120 119/119/119 117/117/117
f 123/123/123 122/122/122 121/121/121
f 124/124/124 123/123/123 121/121/121
f 127/127/127 126/126/126 125/125/125
f 128/128/128 127/127/127 125/125/125
f 131/131/131 130/130/130 129/129/129
f 132/132/132 131/131/131 129/129/129
