g jackpot_chinaGlow_mesh
v -2.261436 -1.502492 0
v -1.514312 -2.253534 0
v -4.377411E-08 -5.572838E-07 0
v -0.5366536 -2.661494 0
v 0.522708 -2.664268 0
v -4.377411E-08 -5.572838E-07 0
v 1.50249 -2.261432 0
v 2.253537 -1.514313 0
v -4.377411E-08 -5.572838E-07 0
v 2.661495 -0.5366534 0
v 2.664269 0.5227073 0
v -4.377411E-08 -5.572838E-07 0
v 2.261435 1.502489 0
v 1.514311 2.253529 0
v -4.377411E-08 -5.572838E-07 0
v 0.536653 2.661492 0
v -0.5227087 2.664267 0
v -4.377411E-08 -5.572838E-07 0
v -1.502491 2.261432 0
v -2.253537 1.514312 0
v -4.377411E-08 -5.572838E-07 0
v -2.661496 0.536651 0
v -2.664269 -0.5227092 0
v -4.377411E-08 -5.572838E-07 0
v -0.9850808 -1.465953 0
v -0.3491 -1.731336 0
v 1.300514E-07 -3.518821E-07 0
v 0.3400279 -1.733141 0
v 0.9773908 -1.471092 0
v 1.300514E-07 -3.518821E-07 0
v 1.465955 -0.9850817 0
v 1.731344 -0.3490998 0
v 1.300514E-07 -3.518821E-07 0
v 1.733149 0.3400277 0
v 1.471094 0.9773895 0
v 1.300514E-07 -3.518821E-07 0
v 0.9850808 1.465952 0
v 0.3490998 1.731336 0
v 1.300514E-07 -3.518821E-07 0
v -0.3400281 1.73314 0
v -0.977391 1.471091 0
v 1.300514E-07 -3.518821E-07 0
v -1.465955 0.9850807 0
v -1.731344 0.3490987 0
v 1.300514E-07 -3.518821E-07 0
v -1.733148 -0.3400292 0
v -1.471094 -0.9773915 0
v 1.300514E-07 -3.518821E-07 0
vt 0.6460364 0.4920758
vt 0.65637 0.4920759
vt 0.6510391 0.04105589
vt 0.6460364 0.4920758
vt 0.65637 0.4920759
vt 0.6510391 0.0410554
vt 0.6460362 0.4920751
vt 0.6563703 0.4920759
vt 0.6510391 0.04105589
vt 0.6460362 0.4920751
vt 0.65637 0.4920759
vt 0.6510391 0.0410554
vt 0.6460362 0.4920751
vt 0.6563703 0.4920759
vt 0.6510391 0.0410554
vt 0.6460364 0.4920758
vt 0.65637 0.4920759
vt 0.6510391 0.0410554
vt 0.6460364 0.4920758
vt 0.65637 0.4920759
vt 0.6510401 0.04105601
vt 0.6460362 0.4920751
vt 0.65637 0.4920759
vt 0.6510391 0.04105589
vt 0.5811133 0.4986647
vt 0.6063434 0.4986647
vt 0.5940306 0.09605437
vt 0.5811133 0.4986647
vt 0.6063434 0.4986647
vt 0.5940315 0.09605437
vt 0.5811133 0.4986658
vt 0.6063441 0.4986642
vt 0.5940306 0.09605437
vt 0.5811133 0.4986658
vt 0.6063434 0.4986647
vt 0.5940315 0.09605437
vt 0.5811133 0.4986658
vt 0.6063441 0.4986642
vt 0.5940315 0.09605437
vt 0.5811133 0.4986647
vt 0.6063434 0.4986647
vt 0.5940315 0.09605437
vt 0.5811133 0.4986647
vt 0.6063434 0.4986647
vt 0.5940323 0.09605435
vt 0.5811133 0.4986647
vt 0.6063434 0.4986647
vt 0.5940306 0.09605437
vn 0 0 -1
vn 0 0 -1
vn 0 0 -1
vn 0 0 -1
vn 0 0 -1
vn 0 0 -1
vn 0 0 -1
vn 0 0 -1
vn 0 0 -1
vn 0 0 -1
vn 0 0 -1
vn 0 0 -1
vn 0 0 -1
vn 0 0 -1
vn 0 0 -1
vn 0 0 -1
vn 0 0 -1
vn 0 0 -1
vn 0 0 -1
vn 0 0 -1
vn 0 0 -1
vn 0 0 -1
vn 0 0 -1
vn 0 0 -1
vn 0 0 -1
vn 0 0 -1
vn 0 0 -1
vn 0 0 -1
vn 0 0 -1
vn 0 0 -1
vn 0 0 -1
vn 0 0 -1
vn 0 0 -1
vn 0 0 -1
vn 0 0 -1
vn 0 0 -1
vn 0 0 -1
vn 0 0 -1
vn 0 0 -1
vn 0 0 -1
vn 0 0 -1
vn 0 0 -1
vn 0 0 -1
vn 0 0 -1
vn 0 0 -1
vn 0 0 -1
vn 0 0 -1
vn 0 0 -1
g jackpot_chinaGlow_mesh_0
f 3/3/3 2/2/2 1/1/1
f 6/6/6 5/5/5 4/4/4
f 9/9/9 8/8/8 7/7/7
f 12/12/12 11/11/11 10/10/10
f 15/15/15 14/14/14 13/13/13
f 18/18/18 17/17/17 16/16/16
f 21/21/21 20/20/20 19/19/19
f 24/24/24 23/23/23 22/22/22
f 27/27/27 26/26/26 25/25/25
f 30/30/30 29/29/29 28/28/28
f 33/33/33 32/32/32 31/31/31
f 36/36/36 35/35/35 34/34/34
f 39/39/39 38/38/38 37/37/37
f 42/42/42 41/41/41 40/40/40
f 45/45/45 44/44/44 43/43/43
f 48/48/48 47/47/47 46/46/46
