g jumpPad1_arrow_mesh
v -0.2830454 -0.02520062 -0.01440708
v -0.2073836 0.4618081 7.450581E-09
v -0.3925612 0.06715238 -0.01440708
v -0.4490576 -0.2892646 -0.01971737
v -0.551405 -0.1808333 -0.01971737
v -0.6617486 -0.7747318 0.08829436
v -0.5555331 -1.779024 0.1418832
v -0.3569371 -1.927078 0.1763125
v -0.1851788 -0.5116878 0.1011075
v -0.1848615 -1.032736 0.1712172
v 2.910383E-11 -1.402295 0.1258391
v -0.4960935 -0.6221994 -0.007146753
v -0.4101375 -0.7561355 0.1022726
v 2.910383E-11 -1.402295 0.1258391
v 2.910383E-11 -0.3447831 0.05762134
v -0.2764336 -0.255846 -0.01440708
v 2.910383E-11 -0.3447831 0.05762134
v -0.1260858 -0.0371904 7.450581E-09
v -0.877783 -0.7241032 0.08506048
v -0.8357201 -0.4853011 0.03846706
v -1.026524 -0.5152437 0.1754304
v -0.768892 -2.214696 0.1366866
v -0.9032156 -1.314196 0.1342878
v -0.8357201 -0.4853011 0.03846706
v -0.6765301 -0.5563676 5.587935E-09
v -0.4490576 -0.2892646 -0.01971737
v -0.4960935 -0.6221994 -0.007146753
v -0.6617486 -0.7747318 0.08829436
v -0.4101375 -0.7561355 0.1022726
v -0.3569371 -1.927078 0.1763125
v -0.2830454 -0.02520062 -0.01440708
v -0.3925612 0.06715238 -0.01440708
v -0.2764336 -0.255846 -0.01440708
v -0.1851788 -0.5116878 0.1011075
v -0.1848615 -1.032736 0.1712172
v -0.3569371 -1.927078 0.1763125
v -0.1538444 0.1764586 7.450581E-09
v -0.2073836 0.4618081 7.450581E-09
v 2.910383E-11 0.8898132 7.450581E-09
v -0.1260858 -0.0371904 7.450581E-09
v 2.910383E-11 0.165638 7.450581E-09
v 2.910383E-11 -0.3447831 0.05762134
v 2.910383E-11 0.4685452 7.450581E-09
v 2.910383E-11 0.8898132 7.450581E-09
v 0.1538444 0.1764586 7.450581E-09
v 0.1260858 -0.0371904 7.450581E-09
v 2.910383E-11 -0.3447831 0.05762134
v 0.2764336 -0.255846 -0.01440708
v 0.2830454 -0.02520062 -0.01440708
v 0.2073836 0.4618081 7.450581E-09
v 2.910383E-11 0.8898132 7.450581E-09
v 0.4960935 -0.6221994 -0.007146753
v 0.1851788 -0.5116878 0.1011075
v 0.4490576 -0.2892646 -0.01971737
v 0.3925612 0.06715238 -0.01440708
v 0.6765301 -0.5563676 5.587935E-09
v 0.8357201 -0.4853011 0.03846706
v 0.877783 -0.7241032 0.08506048
v 0.5991462 -0.7747318 0.08829436
v 0.4467104 -0.7561355 0.1022726
v 0.155667 -1.274671 0.1712172
v 0.4032333 -1.561477 0.1763125
v 1.026524 -0.5152437 0.1754304
v 0.8357201 -0.4853011 0.03846706
v 0.1851788 -0.5116878 0.1011075
v 2.910383E-11 -1.402295 0.1258391
v 0.5991462 -0.7747318 0.08829436
v 0.5649302 -2.082008 0.1418832
v 0.8357201 -0.4853011 0.03846706
v 0.551405 -0.1808333 -0.01971737
v 1.026524 -0.5152437 0.1754304
v 0.551405 -0.1808333 -0.01971737
v 0.717481 -0.1196155 0.1732275
v 0.4785694 0.2148722 0.1710246
v -0.768892 -2.214696 0.1366866
v -0.5555331 -1.779024 0.1418832
v -0.6617486 -0.7747318 0.08829436
v -1.053356 -1.440614 0.1323438
v -0.9032156 -1.314196 0.1342878
v -0.877783 -0.7241032 0.08506048
v -1.053356 -1.440614 0.1323438
v -0.877783 -0.7241032 0.08506048
v -1.026524 -0.5152437 0.1754304
v 0.2830454 -0.02520062 -0.01440708
v 0.3925612 0.06715238 -0.01440708
v 0.2073836 0.4618081 7.450581E-09
v 0.4490576 -0.2892646 -0.01971737
v 0.551405 -0.1808333 -0.01971737
v 0.4960935 -0.6221994 -0.007146753
v 0.1851788 -0.5116878 0.1011075
v 0.4467104 -0.7561355 0.1022726
v 2.910383E-11 -0.3447831 0.05762134
v 2.910383E-11 -1.402295 0.1258391
v 0.2764336 -0.255846 -0.01440708
v 2.910383E-11 -0.3447831 0.05762134
v 0.1260858 -0.0371904 7.450581E-09
v 0.7238845 -1.480343 0.1366866
v 0.5991462 -0.7747318 0.08829436
v 0.5649302 -2.082008 0.1418832
v 0.7238845 -1.480343 0.1366866
v 0.8687491 -1.733494 0.1342878
v 0.877783 -0.7241032 0.08506048
v -0.8357201 -0.4853011 0.03846706
v -0.551405 -0.1808333 -0.01971737
v -1.026524 -0.5152437 0.1754304
v -0.551405 -0.1808333 -0.01971737
v -0.717481 -0.1196155 0.1732275
v -0.4785694 0.2148722 0.1710246
v -0.551405 -0.1808333 -0.01971737
v -0.3925612 0.06715238 -0.01440708
v -0.4785694 0.2148722 0.1710246
v -0.2073836 0.4618081 7.450581E-09
v -0.32371 0.5597485 0.1567942
v 2.910383E-11 0.8898132 7.450581E-09
v 2.910383E-11 1.237216 0.1567942
v 0.32371 0.5597485 0.1567942
v 2.910383E-11 1.237216 0.1567942
v 0.2073836 0.4618081 7.450581E-09
v 0.4785694 0.2148722 0.1710246
v 0.3925612 0.06715238 -0.01440708
v 0.551405 -0.1808333 -0.01971737
v -0.6617486 -0.7747318 0.08829436
v -0.6765301 -0.5563676 5.587935E-09
v -0.877783 -0.7241032 0.08506048
v -0.768892 -2.214696 0.1366866
v 0.5991462 -0.7747318 0.08829436
v 0.877783 -0.7241032 0.08506048
v 0.6765301 -0.5563676 5.587935E-09
v 0.7238845 -1.480343 0.1366866
v 1.017337 -1.228717 0.1323438
v 1.026524 -0.5152437 0.1754304
v 0.877783 -0.7241032 0.08506048
v 0.8687491 -1.733494 0.1342878
vt 0.6840222 0.3752374
vt 0.7035729 0.2603894
vt 0.7012047 0.2870212
vt 0.6727087 0.3815528
vt 0.6987087 0.3089852
vt 0.6143941 0.4363649
vt 0.5384157 0.4645685
vt 0.5387657 0.4649159
vt 0.6435591 0.4511728
vt 0.539116 0.4652633
vt 0.5394777 0.4656464
vt 0.6723608 0.429955
vt 0.6498871 0.449143
vt 0.5394777 0.4656464
vt 0.6385521 0.4503036
vt 0.6861985 0.4361381
vt 0.6385521 0.4503036
vt 0.6981941 0.4278733
vt 0.6138713 0.4368885
vt 0.6349505 0.4215189
vt 0.5347683 0.4611572
vt 0.538171 0.4643258
vt 0.5377921 0.4639724
vt 0.6349505 0.4215189
vt 0.6586124 0.4231955
vt 0.6727087 0.3815528
vt 0.6723608 0.429955
vt 0.6143941 0.4363649
vt 0.6498871 0.449143
vt 0.5387657 0.4649159
vt 0.6840222 0.3752374
vt 0.7012047 0.2870212
vt 0.6861985 0.4361381
vt 0.6435591 0.4511728
vt 0.539116 0.4652633
vt 0.5387657 0.4649159
vt 0.6998176 0.3693591
vt 0.7035729 0.2603894
vt 0.7067741 0.2160688
vt 0.6981941 0.4278733
vt 0.7082086 0.426953
vt 0.6385521 0.4503036
vt 0.7046357 0.3385069
vt 0.7067741 0.2160688
vt 0.6998176 0.3693591
vt 0.6981941 0.4278733
vt 0.6385521 0.4503036
vt 0.6861985 0.4361381
vt 0.6840222 0.3752374
vt 0.7035729 0.2603894
vt 0.7067741 0.2160688
vt 0.6723608 0.429955
vt 0.6435591 0.4511728
vt 0.6727087 0.3815528
vt 0.7012047 0.2870212
vt 0.6586124 0.4231955
vt 0.6349505 0.4215189
vt 0.6138713 0.4368885
vt 0.6143941 0.4363649
vt 0.6498871 0.449143
vt 0.539116 0.4652633
vt 0.5387657 0.4649159
vt 0.5347683 0.4611572
vt 0.6349505 0.4215189
vt 0.6435591 0.4511728
vt 0.5394777 0.4656464
vt 0.6143941 0.4363649
vt 0.5384157 0.4645685
vt 0.6349505 0.4215189
vt 0.6987087 0.3089852
vt 0.5347683 0.4611572
vt 0.6187323 0.4607149
vt 0.5374377 0.4632071
vt 0.5401072 0.465257
vt 0.538171 0.4643258
vt 0.5384157 0.4645685
vt 0.6143941 0.4363649
vt 0.537485 0.4636861
vt 0.5377921 0.4639724
vt 0.6138713 0.4368885
vt 0.537485 0.4636861
vt 0.6138713 0.4368885
vt 0.5347683 0.4611572
vt 0.6840222 0.3752374
vt 0.7012047 0.2870212
vt 0.7035729 0.2603894
vt 0.6727087 0.3815528
vt 0.6987087 0.3089852
vt 0.6723608 0.429955
vt 0.6435591 0.4511728
vt 0.6498871 0.449143
vt 0.6385521 0.4503036
vt 0.5394777 0.4656464
vt 0.6861985 0.4361381
vt 0.6385521 0.4503036
vt 0.6981941 0.4278733
vt 0.538171 0.4643258
vt 0.6143941 0.4363649
vt 0.5384157 0.4645685
vt 0.538171 0.4643258
vt 0.5377921 0.4639724
vt 0.6138713 0.4368885
vt 0.6349505 0.4215189
vt 0.6987087 0.3089852
vt 0.5347683 0.4611572
vt 0.6187323 0.4607149
vt 0.5374377 0.4632071
vt 0.5401072 0.465257
vt 0.6187323 0.4607149
vt 0.594162 0.452775
vt 0.5401072 0.465257
vt 0.5664967 0.4567243
vt 0.5350455 0.4607777
vt 0.5671476 0.4565533
vt 0.5349333 0.4606791
vt 0.5350455 0.4607777
vt 0.5349333 0.4606791
vt 0.5664967 0.4567243
vt 0.5401072 0.465257
vt 0.594162 0.452775
vt 0.6187323 0.4607149
vt 0.6143941 0.4363649
vt 0.6586124 0.4231955
vt 0.6138713 0.4368885
vt 0.538171 0.4643258
vt 0.6143941 0.4363649
vt 0.6138713 0.4368885
vt 0.6586124 0.4231955
vt 0.538171 0.4643258
vt 0.537485 0.4636861
vt 0.5347683 0.4611572
vt 0.6138713 0.4368885
vt 0.5377921 0.4639724
vn 0.05197027 0.009595713 -0.9986026
vn 0 0 -1
vn 0 0 -1
vn -0.03475663 -0.01085751 -0.9993368
vn 0 0 -1
vn -0.01005593 -0.09598517 -0.9953319
vn 0.09842783 -0.04778359 -0.9939964
vn 0.11199 -0.05606648 -0.9921263
vn 0.01926183 -0.1561878 -0.9875395
vn 0.001724782 -0.08209662 -0.9966229
vn -0.275924 -0.08396061 -0.9575054
vn 0 0 -1
vn 0.1836205 -0.1091719 -0.976916
vn -0.275924 -0.08396061 -0.9575054
vn -0.0317478 -0.1601149 -0.9865877
vn 0 0 -1
vn -0.0317478 -0.1601149 -0.9865877
vn 0 0 -1
vn -0.1418948 -0.08768188 -0.9859907
vn -0.5024108 0.2769477 -0.8190747
vn -0.576192 -0.05758144 -0.8152835
vn -0.09668922 -0.04150572 -0.9944488
vn -0.09668922 -0.04150573 -0.9944489
vn -0.5024108 0.2769477 -0.8190747
vn -0.1386591 -0.1540521 -0.978285
vn -0.03475663 -0.01085751 -0.9993368
vn 0 0 -1
vn -0.01005593 -0.09598517 -0.9953319
vn 0.1836205 -0.1091719 -0.976916
vn 0.11199 -0.05606648 -0.9921263
vn 0.05197027 0.009595713 -0.9986026
vn 0 0 -1
vn 0 0 -1
vn 0.01926183 -0.1561878 -0.9875395
vn 0.001724782 -0.08209662 -0.9966229
vn 0.11199 -0.05606648 -0.9921263
vn 0.03468771 0.01181585 -0.9993284
vn 0 0 -1
vn 0 0 -1
vn 0 0 -1
vn 0 0 -1
vn -0.0317478 -0.1601149 -0.9865877
vn 0 0 -1
vn 0 0 -1
vn -0.03468771 0.01181585 -0.9993284
vn 0 0 -1
vn 0.02186582 -0.1546202 -0.9877321
vn 0 0 -1
vn -0.05197027 0.009595711 -0.9986026
vn 0 0 -1
vn 0 0 -1
vn 0 0 -1
vn -0.007075159 -0.153791 -0.9880781
vn 0.03475663 -0.01085751 -0.9993368
vn 0 0 -1
vn 0.1348845 -0.171762 -0.9758606
vn 0.5024108 0.2769477 -0.8190746
vn 0.04354423 -0.1140687 -0.9925181
vn -0.102426 -0.1148121 -0.9880926
vn -0.1712243 -0.1169755 -0.9782632
vn 0.0561388 -0.08441767 -0.9948478
vn -0.1976473 -0.05932172 -0.9784766
vn 0.5761918 -0.05758156 -0.8152835
vn 0.5024108 0.2769477 -0.8190746
vn -0.007075159 -0.153791 -0.9880781
vn 0.2431638 -0.07740963 -0.9668915
vn -0.102426 -0.1148121 -0.9880926
vn -0.1402843 -0.04909736 -0.9888932
vn 0.5024108 0.2769477 -0.8190746
vn 0 0 -1
vn 0.5884045 0.4401932 -0.6782404
vn 0 0 -1
vn 0.6239168 0.4295388 -0.6528584
vn 0.6695192 0.3639404 -0.6475271
vn 0.1088908 -0.04147983 -0.9931879
vn 0.09842783 -0.04778359 -0.9939964
vn -0.01005593 -0.09598517 -0.9953319
vn -0.2822125 0.005845575 -0.9593342
vn -0.2822124 0.005845574 -0.9593342
vn -0.2822125 0.005845575 -0.9593342
vn -0.2822125 0.005845575 -0.9593342
vn -0.2822125 0.005845575 -0.9593342
vn -0.2822124 0.005845575 -0.9593342
vn -0.05197027 0.009595711 -0.9986026
vn 0 0 -1
vn 0 0 -1
vn 0.03475663 -0.01085751 -0.9993368
vn 0 0 -1
vn 0 0 -1
vn -0.007075159 -0.153791 -0.9880781
vn -0.1712243 -0.1169755 -0.9782632
vn 0.02186582 -0.1546202 -0.9877321
vn 0.2431638 -0.07740963 -0.9668915
vn 0 0 -1
vn 0.02186582 -0.1546202 -0.9877321
vn 0 0 -1
vn 0.1345686 -0.04410177 -0.9899223
vn -0.102426 -0.1148121 -0.9880926
vn -0.1402843 -0.04909736 -0.9888932
vn -0.04176023 -0.05958745 -0.9973491
vn -0.04176023 -0.05958745 -0.9973491
vn 0.04354423 -0.1140687 -0.9925181
vn -0.5024108 0.2769477 -0.8190747
vn 0 0 -1
vn -0.5884045 0.4401932 -0.6782404
vn 0 0 -1
vn -0.6239168 0.4295388 -0.6528586
vn -0.6695192 0.3639404 -0.6475271
vn 0 0 -1
vn 0 0 -1
vn -0.6695192 0.3639404 -0.6475271
vn 0 0 -1
vn -0.6692714 0.3164786 -0.6722477
vn 0 0 -1
vn -0.653708 0.3140558 -0.6885018
vn 0.6692715 0.3164786 -0.6722478
vn 0.653708 0.3140558 -0.6885018
vn 0 0 -1
vn 0.6695192 0.3639404 -0.6475271
vn 0 0 -1
vn 0 0 -1
vn -0.01005593 -0.09598517 -0.9953319
vn -0.1386591 -0.1540521 -0.978285
vn -0.1418948 -0.08768188 -0.9859907
vn -0.09668922 -0.04150572 -0.9944488
vn -0.102426 -0.1148121 -0.9880926
vn 0.04354423 -0.1140687 -0.9925181
vn 0.1348845 -0.171762 -0.9758606
vn -0.04176023 -0.05958745 -0.9973491
vn 0.2995068 -0.006568177 -0.9540715
vn 0.2995068 -0.006568177 -0.9540715
vn 0.2995068 -0.006568177 -0.9540715
vn 0.2995068 -0.006568177 -0.9540715
g jumpPad1_arrow_mesh_0
f 3/3/3 2/2/2 1/1/1
f 5/5/5 3/3/3 4/4/4
f 8/8/8 7/7/7 6/6/6
f 11/11/11 10/10/10 9/9/9
f 9/9/9 13/13/13 12/12/12
f 15/15/15 14/14/14 9/9/9
f 17/17/17 9/9/9 16/16/16
f 18/18/18 15/15/15 16/16/16
f 21/21/21 20/20/20 19/19/19
f 23/23/23 19/19/19 22/22/22
f 25/25/25 19/19/19 24/24/24
f 26/26/26 25/25/25 24/24/24
f 26/26/26 27/27/27 25/25/25
f 25/25/25 27/27/27 28/28/28
f 29/29/29 28/28/28 27/27/27
f 29/29/29 30/30/30 28/28/28
f 26/26/26 31/31/31 27/27/27
f 32/32/32 31/31/31 26/26/26
f 31/31/31 33/33/33 27/27/27
f 33/33/33 34/34/34 27/27/27
f 34/34/34 35/35/35 29/29/29
f 35/35/35 36/36/36 29/29/29
f 31/31/31 37/37/37 33/33/33
f 38/38/38 37/37/37 31/31/31
f 38/38/38 39/39/39 37/37/37
f 37/37/37 40/40/40 33/33/33
f 40/40/40 37/37/37 41/41/41
f 40/40/40 41/41/41 42/42/42
f 37/37/37 43/43/43 41/41/41
f 44/44/44 43/43/43 37/37/37
f 43/43/43 44/44/44 45/45/45
f 43/43/43 45/45/45 41/41/41
f 45/45/45 46/46/46 41/41/41
f 41/41/41 46/46/46 47/47/47
f 46/46/46 45/45/45 48/48/48
f 45/45/45 49/49/49 48/48/48
f 45/45/45 50/50/50 49/49/49
f 51/51/51 50/50/50 45/45/45
f 48/48/48 49/49/49 52/52/52
f 53/53/53 48/48/48 52/52/52
f 49/49/49 54/54/54 52/52/52
f 49/49/49 55/55/55 54/54/54
f 52/52/52 54/54/54 56/56/56
f 56/56/56 54/54/54 57/57/57
f 58/58/58 56/56/56 57/57/57
f 52/52/52 56/56/56 59/59/59
f 59/59/59 60/60/60 52/52/52
f 61/61/61 53/53/53 60/60/60
f 62/62/62 60/60/60 59/59/59
f 62/62/62 61/61/61 60/60/60
f 64/64/64 63/63/63 58/58/58
f 61/61/61 66/66/66 65/65/65
f 68/68/68 62/62/62 67/67/67
f 54/54/54 70/70/70 69/69/69
f 69/69/69 72/72/72 71/71/71
f 72/72/72 73/73/73 71/71/71
f 74/74/74 73/73/73 72/72/72
f 77/77/77 76/76/76 75/75/75
f 80/80/80 79/79/79 78/78/78
f 83/83/83 82/82/82 81/81/81
f 86/86/86 85/85/85 84/84/84
f 85/85/85 88/88/88 87/87/87
f 91/91/91 90/90/90 89/89/89
f 93/93/93 92/92/92 90/90/90
f 90/90/90 95/95/95 94/94/94
f 92/92/92 96/96/96 94/94/94
f 99/99/99 98/98/98 97/97/97
f 102/102/102 101/101/101 100/100/100
f 104/104/104 26/26/26 103/103/103
f 106/106/106 103/103/103 105/105/105
f 107/107/107 106/106/106 105/105/105
f 107/107/107 108/108/108 106/106/106
f 111/111/111 110/110/110 109/109/109
f 112/112/112 110/110/110 111/111/111
f 113/113/113 112/112/112 111/111/111
f 114/114/114 112/112/112 113/113/113
f 115/115/115 114/114/114 113/113/113
f 114/114/114 117/117/117 116/116/116
f 118/118/118 114/114/114 116/116/116
f 118/118/118 116/116/116 119/119/119
f 120/120/120 118/118/118 119/119/119
f 120/120/120 119/119/119 121/121/121
f 124/124/124 123/123/123 122/122/122
f 124/124/124 122/122/122 125/125/125
f 128/128/128 127/127/127 126/126/126
f 126/126/126 127/127/127 129/129/129
f 132/132/132 131/131/131 130/130/130
f 133/133/133 132/132/132 130/130/130
