g jumpPad3_arrow_mesh
v -0.6977361 0.07103214 -0.02079875
v -0.4358994 0.7325799 -0.005398341
v -0.9680916 0.1658732 -0.02079875
v -1.113259 -0.2667981 -0.02647516
v -1.370981 -0.1402459 -0.02647516
v -1.628093 -0.8246868 0.08898361
v -1.379359 -1.705909 0.1462672
v -1.011984 -2.689578 0.1830703
v -1.242687 0.2211093 0.1774178
v -0.4358994 0.7325799 -0.005398341
v -0.6834418 0.7456461 0.1622063
v 0.01397536 1.240264 -0.005398341
v 0.01399479 1.64742 0.1622063
v 0.707873 0.7437791 0.1622063
v 0.01399479 1.64742 0.1622063
v 1.270126 0.2204981 0.1774178
v 0.4586359 0.7322003 -0.005398341
v -1.233887 -0.6474437 -0.01303785
v -1.006934 -0.802892 0.1039256
v -0.7664976 -0.6910009 0.1033046
v -2.165507 -0.7653502 0.08552676
v -2.088953 -0.4854744 0.03572088
v -2.53552 -0.5205671 0.1821274
v -2.088953 -0.4854744 0.03572088
v -1.69575 -0.5689324 -0.005398343
v -1.113259 -0.2667981 -0.02647516
v -1.370981 -0.1402459 -0.02647516
v -2.088953 -0.4854744 0.03572088
v -1.233887 -0.6474437 -0.01303785
v -1.628093 -0.8246868 0.08898361
v -0.6977361 0.07103214 -0.02079875
v -0.9680916 0.1658732 -0.02079875
v -1.006934 -0.802892 0.1039256
v -1.011984 -2.689578 0.1830703
v -0.6874642 -0.2210776 -0.02079875
v -0.7664976 -0.6910009 0.1033046
v -0.7601947 -1.498753 0.180064
v -1.011984 -2.689578 0.1830703
v -0.3602315 0.3830583 -0.005398341
v -0.4358994 0.7325799 -0.005398341
v 0.01397536 1.240264 -0.005398341
v 0.0139517 0.7604151 -0.005398341
v -0.3078464 0.08774285 -0.005398341
v 0.01396539 0.4156463 -0.005398341
v 0.01399479 -0.3157604 0.05619579
v -1.709144 -3.01909 0.1407123
v -1.379359 -1.705909 0.1462672
v -2.079178 -2.146415 0.1392961
v -2.165507 -0.7653502 0.08552676
v -2.348172 -2.406502 0.1381481
v 2.117968 -0.4854744 0.03572088
v 1.401168 -0.1398454 -0.02647516
v 1.140763 -0.2667981 -0.02647516
v 2.117968 -0.4854744 0.03572088
v 1.726093 -0.5687643 -0.005398343
v 1.262575 -0.6474637 -0.01303785
v 1.501376 -0.8246868 0.08898361
v 0.9560257 -0.4205863 -0.01724592
v 0.7555236 -0.6722124 0.1032941
v 1.126371 -0.802892 0.1039256
v 0.6326855 -2.002063 0.180398
v 1.103386 -1.785506 0.1830703
v 1.103386 -1.785506 0.1830703
v 1.358236 -2.488395 0.1462672
v 0.9950228 0.1634788 -0.02079875
v 0.7240816 0.06992187 -0.02079875
v 0.9560257 -0.4205863 -0.01724592
v 0.7135183 -0.2214834 -0.02079875
v 0.4906285 -0.2978098 0.1026802
v 0.3842878 0.3801081 -0.005398341
v 0.4586359 0.7322003 -0.005398341
v 0.01397536 1.240264 -0.005398341
v 0.0139517 0.7604151 -0.005398341
v 0.3335553 0.08904332 -0.005398341
v 0.01396539 0.4156463 -0.005398341
v 0.01399479 -0.3157604 0.05619579
v 0.7555236 -0.6722124 0.1032941
v 0.3532383 -1.060088 0.1776237
v 0.6326855 -2.002063 0.180398
v 0.7240816 0.06992187 -0.02079875
v 0.9950228 0.1634788 -0.02079875
v 0.4586359 0.7322003 -0.005398341
v 1.140763 -0.2667981 -0.02647516
v 1.401168 -0.1398454 -0.02647516
v 0.4906285 -0.2978098 0.1026802
v -0.01835464 -1.702995 0.1291169
v 0.3532383 -1.060088 0.1776237
v 0.9560257 -0.4205863 -0.01724592
v 0.4906285 -0.2978098 0.1026802
v 0.7555236 -0.6722124 0.1032941
v 0.01399479 -0.3157604 0.05619579
v -0.01835464 -1.702995 0.1291169
v 0.7135183 -0.2214834 -0.02079875
v 0.3335553 0.08904332 -0.005398341
v 2.194521 -0.7653502 0.08552676
v 2.564534 -0.5205671 0.1821274
v 2.117968 -0.4854744 0.03572088
v 1.938216 -2.914078 0.1395435
v 1.85551 -0.7943712 0.08721748
v 1.726093 -0.5687643 -0.005398343
v 2.117968 -0.4854744 0.03572088
v 1.501376 -0.8246868 0.08898361
v 1.85551 -0.7943712 0.08721748
v 1.660573 -2.042572 0.1407123
v 1.660573 -2.042572 0.1407123
v 1.501376 -0.8246868 0.08898361
v 1.358236 -2.488395 0.1462672
v 1.660573 -2.042572 0.1407123
v 1.938216 -2.914078 0.1395435
v 1.85551 -0.7943712 0.08721748
v 1.938216 -2.914078 0.1395435
v 2.207943 -1.835064 0.1381481
v 2.194521 -0.7653502 0.08552676
v -1.709144 -3.01909 0.1407123
v -1.863925 -0.7986483 0.08746665
v -2.079178 -2.146415 0.1392961
v 1.262575 -0.6474637 -0.01303785
v 0.7555236 -0.6722124 0.1032941
v 1.126371 -0.802892 0.1039256
v 1.126371 -0.802892 0.1039256
v 0.6326855 -2.002063 0.180398
v 1.103386 -1.785506 0.1830703
v -1.370981 -0.1402459 -0.02647516
v -1.242687 0.2211093 0.1774178
v -1.831968 -0.1456982 0.1797726
v -0.9680916 0.1658732 -0.02079875
v -0.4358994 0.7325799 -0.005398341
v -0.6834418 0.7456461 0.1622063
v 0.01397536 1.240264 -0.005398341
v 0.707873 0.7437791 0.1622063
v 0.4586359 0.7322003 -0.005398341
v -2.53552 -0.5205671 0.1821274
v -2.088953 -0.4854744 0.03572088
v -1.831968 -0.1456982 0.1797726
v 1.270126 0.2204981 0.1774178
v 0.9950228 0.1634788 -0.02079875
v 1.401168 -0.1398454 -0.02647516
v 1.863543 -0.1452882 0.1797726
v 2.564534 -0.5205671 0.1821274
v 1.863543 -0.1452882 0.1797726
v 2.117968 -0.4854744 0.03572088
v -0.4623961 -0.3190185 0.1026802
v -0.4352019 -1.429554 0.1776237
v -0.01835464 -1.702995 0.1291169
v -0.7601947 -1.498753 0.180064
v -0.7664976 -0.6910009 0.1033046
v -0.4623961 -0.3190185 0.1026802
v -0.01835464 -1.702995 0.1291169
v 0.01399479 -0.3157604 0.05619579
v -0.6874642 -0.2210776 -0.02079875
v -0.3078464 0.08774285 -0.005398341
v -0.7664976 -0.6910009 0.1033046
v -2.079178 -2.146415 0.1392961
v -1.863925 -0.7986483 0.08746665
v -2.165507 -0.7653502 0.08552676
v -1.69575 -0.5689324 -0.005398343
v -1.628093 -0.8246868 0.08898361
v -1.863925 -0.7986483 0.08746665
v -1.709144 -3.01909 0.1407123
v -2.560166 -1.445217 0.1360701
v -2.348172 -2.406502 0.1381481
v -2.165507 -0.7653502 0.08552676
v -2.53552 -0.5205671 0.1821274
v 2.547196 -1.534366 0.1360701
v 2.564534 -0.5205671 0.1821274
v 2.194521 -0.7653502 0.08552676
v 2.207943 -1.835064 0.1381481
vt 0.6840222 0.3752374
vt 0.7035729 0.2603894
vt 0.7012047 0.2870212
vt 0.6727087 0.3815528
vt 0.6987087 0.3089852
vt 0.6143941 0.4363649
vt 0.5384157 0.4645685
vt 0.5387657 0.4649159
vt 0.5401072 0.465257
vt 0.6260768 0.4446644
vt 0.5350455 0.4607777
vt 0.626337 0.4446471
vt 0.5349333 0.4606791
vt 0.5350455 0.4607777
vt 0.5349333 0.4606791
vt 0.5401072 0.465257
vt 0.6260768 0.4446644
vt 0.6723608 0.429955
vt 0.6498871 0.449143
vt 0.6467316 0.4501551
vt 0.6138713 0.4368885
vt 0.6349505 0.4215189
vt 0.5347683 0.4611572
vt 0.6349505 0.4215189
vt 0.6586124 0.4231955
vt 0.6727087 0.3815528
vt 0.6987087 0.3089852
vt 0.6349505 0.4215189
vt 0.6723608 0.429955
vt 0.6143941 0.4363649
vt 0.6840222 0.3752374
vt 0.7012047 0.2870212
vt 0.6498871 0.449143
vt 0.5387657 0.4649159
vt 0.6861985 0.4361381
vt 0.6467316 0.4501551
vt 0.538959 0.4651076
vt 0.5387657 0.4649159
vt 0.6998176 0.3693591
vt 0.7035729 0.2603894
vt 0.7067741 0.2160688
vt 0.7046357 0.3385069
vt 0.6981941 0.4278733
vt 0.7082086 0.426953
vt 0.6385521 0.4503036
vt 0.538171 0.4643258
vt 0.5384157 0.4645685
vt 0.5379617 0.4641306
vt 0.6138713 0.4368885
vt 0.5377921 0.4639724
vt 0.6531115 0.4318238
vt 0.6987087 0.3089852
vt 0.6727087 0.3815528
vt 0.6531115 0.4318238
vt 0.6586124 0.4231955
vt 0.6723608 0.429955
vt 0.6143941 0.4363649
vt 0.6798638 0.4333075
vt 0.6466784 0.4501722
vt 0.6498871 0.449143
vt 0.5389376 0.4650863
vt 0.5387657 0.4649159
vt 0.5387657 0.4649159
vt 0.5384157 0.4645685
vt 0.7012047 0.2870212
vt 0.6840222 0.3752374
vt 0.6798638 0.4333075
vt 0.6861985 0.4361381
vt 0.6435591 0.4511728
vt 0.6998176 0.3693591
vt 0.7035729 0.2603894
vt 0.7067741 0.2160688
vt 0.7046357 0.3385069
vt 0.6981941 0.4278733
vt 0.7082086 0.426953
vt 0.6385521 0.4503036
vt 0.6466784 0.4501722
vt 0.539116 0.4652633
vt 0.5389376 0.4650863
vt 0.6840222 0.3752374
vt 0.7012047 0.2870212
vt 0.7035729 0.2603894
vt 0.6727087 0.3815528
vt 0.6987087 0.3089852
vt 0.6435591 0.4511728
vt 0.5394777 0.4656464
vt 0.539116 0.4652633
vt 0.6798638 0.4333075
vt 0.6435591 0.4511728
vt 0.6466784 0.4501722
vt 0.6385521 0.4503036
vt 0.5394777 0.4656464
vt 0.6861985 0.4361381
vt 0.6981941 0.4278733
vt 0.6138713 0.4368885
vt 0.5347683 0.4611572
vt 0.6531115 0.4318238
vt 0.5379983 0.4641647
vt 0.614127 0.4366324
vt 0.6586124 0.4231955
vt 0.6531115 0.4318238
vt 0.6143941 0.4363649
vt 0.614127 0.4366324
vt 0.538171 0.4643258
vt 0.538171 0.4643258
vt 0.6143941 0.4363649
vt 0.5384157 0.4645685
vt 0.538171 0.4643258
vt 0.5379983 0.4641647
vt 0.614127 0.4366324
vt 0.5379983 0.4641647
vt 0.5377921 0.4639724
vt 0.6138713 0.4368885
vt 0.538171 0.4643258
vt 0.6141647 0.4365947
vt 0.5379617 0.4641306
vt 0.6723608 0.429955
vt 0.6466784 0.4501722
vt 0.6498871 0.449143
vt 0.6498871 0.449143
vt 0.5389376 0.4650863
vt 0.5387657 0.4649159
vt 0.6444401 0.43673
vt 0.5401072 0.465257
vt 0.5374377 0.4632071
vt 0.6352968 0.4407229
vt 0.6260768 0.4446644
vt 0.5350455 0.4607777
vt 0.626337 0.4446471
vt 0.5350455 0.4607777
vt 0.6260768 0.4446644
vt 0.5347683 0.4611572
vt 0.6349505 0.4215189
vt 0.5374377 0.4632071
vt 0.5401072 0.465257
vt 0.6352968 0.4407229
vt 0.6444401 0.43673
vt 0.5374377 0.4632071
vt 0.5347683 0.4611572
vt 0.5374377 0.4632071
vt 0.6531115 0.4318238
vt 0.6435591 0.4511728
vt 0.539116 0.4652633
vt 0.5394777 0.4656464
vt 0.538959 0.4651076
vt 0.6467316 0.4501551
vt 0.6435591 0.4511728
vt 0.5394777 0.4656464
vt 0.6385521 0.4503036
vt 0.6861985 0.4361381
vt 0.6981941 0.4278733
vt 0.6467316 0.4501551
vt 0.5379617 0.4641306
vt 0.6141647 0.4365947
vt 0.6138713 0.4368885
vt 0.6586124 0.4231955
vt 0.6143941 0.4363649
vt 0.6141647 0.4365947
vt 0.538171 0.4643258
vt 0.537485 0.4636861
vt 0.5377921 0.4639724
vt 0.6138713 0.4368885
vt 0.5347683 0.4611572
vt 0.537485 0.4636861
vt 0.5347683 0.4611572
vt 0.6138713 0.4368885
vt 0.5377921 0.4639724
vn 0.02276192 0.005882996 -0.9997236
vn 0 0 -1
vn 0 0 -1
vn -0.005769098 -0.008602624 -0.9999464
vn 0 0 -1
vn -0.01425452 -0.07853656 -0.9968093
vn 0.04185743 -0.04270042 -0.9982107
vn 0.03793746 -0.05087048 -0.9979844
vn -0.4069775 0.5225168 -0.7492299
vn 0 0 -1
vn -0.4638157 0.4322073 -0.7733511
vn 0 0 -1
vn -0.4585314 0.3732487 -0.8064951
vn 0.4633745 0.4323772 -0.7735205
vn 0.4604535 0.3713554 -0.8062739
vn 0.4045445 0.5246559 -0.7490527
vn 0 0 -1
vn 0 0 -1
vn 0.08479711 -0.1056482 -0.9907815
vn 0.1724081 -0.175731 -0.9692235
vn -0.02580228 -0.05840144 -0.9979597
vn -0.2771823 0.3626796 -0.8897379
vn -0.3043102 -0.08559348 -0.9487197
vn -0.2771823 0.3626796 -0.8897379
vn -0.06290906 -0.1133332 -0.9915634
vn -0.005769098 -0.008602624 -0.9999464
vn 0 0 -1
vn -0.2771823 0.3626796 -0.8897379
vn 0 0 -1
vn -0.01425452 -0.07853656 -0.9968093
vn 0.02276192 0.005882996 -0.9997236
vn 0 0 -1
vn 0.08479711 -0.1056482 -0.9907815
vn 0.03793746 -0.05087048 -0.9979844
vn 0 0 -1
vn 0.1724081 -0.175731 -0.9692235
vn 0.1438326 -0.05709754 -0.9879534
vn 0.03793746 -0.05087048 -0.9979844
vn 0.01477639 0.007672766 -0.9998614
vn 0 0 -1
vn 0 0 -1
vn 0 0 -1
vn 0 0 -1
vn 0 0 -1
vn -0.0829585 -0.09033122 -0.9924505
vn 0.1286695 -0.0281201 -0.9912888
vn 0.04185743 -0.04270042 -0.9982107
vn 0.0203617 -0.03762481 -0.9990845
vn -0.02580228 -0.05840144 -0.9979597
vn 0.0203617 -0.03762481 -0.9990845
vn 0.2770643 0.3609759 -0.8904671
vn 0 0 -1
vn 0.01119493 -0.004828632 -0.9999257
vn 0.2770643 0.3609759 -0.8904671
vn 0.06162183 -0.1261265 -0.9900984
vn 0 0 -1
vn -0.06655319 -0.09550817 -0.9932013
vn -0.1481364 -0.2924525 -0.9447366
vn -0.02482906 -0.1230353 -0.9920917
vn -0.06695108 -0.1035888 -0.9923643
vn 0.01086511 -0.0680923 -0.9976198
vn -0.06835813 -0.05414005 -0.9961907
vn -0.06835813 -0.05414005 -0.9961907
vn -0.07044578 -0.04108746 -0.9966691
vn 0 0 -1
vn -0.0228808 0.008046093 -0.9997057
vn -0.1663125 -0.1511315 -0.9744226
vn 0 0 -1
vn -0.004009151 -0.155531 -0.9878228
vn -0.01485601 0.007687997 -0.99986
vn 0 0 -1
vn 0 0 -1
vn 0 0 -1
vn 0 0 -1
vn 0 0 -1
vn 0.1176021 -0.1129812 -0.9866129
vn -0.1547415 -0.08741025 -0.9840806
vn 0.03661465 -0.07054062 -0.9968367
vn -0.1290304 -0.05590441 -0.9900635
vn -0.0228808 0.008046093 -0.9997057
vn 0 0 -1
vn 0 0 -1
vn 0.01119493 -0.004828632 -0.9999257
vn 0 0 -1
vn -0.004009151 -0.155531 -0.9878228
vn 0.1731799 -0.08119524 -0.9815376
vn 0.03661465 -0.07054062 -0.9968367
vn -0.1663125 -0.1511315 -0.9744226
vn -0.004009151 -0.155531 -0.9878228
vn -0.1547415 -0.08741025 -0.9840806
vn 0.1176021 -0.1129812 -0.9866129
vn 0.1731799 -0.08119524 -0.9815376
vn 0 0 -1
vn 0 0 -1
vn 0.07907786 -0.05053185 -0.9955869
vn 0.3043106 -0.08559453 -0.9487195
vn 0.2770643 0.3609759 -0.8904671
vn 0.05187749 -0.03128084 -0.9981634
vn 0.0497811 -0.06284758 -0.9967808
vn 0.06162183 -0.1261265 -0.9900984
vn 0.2770643 0.3609759 -0.8904671
vn -0.06655319 -0.09550817 -0.9932013
vn -0.03610751 -0.08482269 -0.9957416
vn -0.05098862 -0.03481269 -0.9980922
vn 0.0370546 -0.03757143 -0.9986067
vn -0.06655319 -0.09550817 -0.9932013
vn -0.07044578 -0.04108746 -0.9966691
vn -0.05098862 -0.03481269 -0.9980922
vn -0.05098862 -0.03481269 -0.9980922
vn -0.03610751 -0.08482269 -0.9957416
vn 0.05187749 -0.03128084 -0.9981634
vn 0.05187748 -0.03128084 -0.9981634
vn 0.07907786 -0.05053185 -0.9955869
vn -0.034241 -0.02634422 -0.9990664
vn -0.03699357 -0.05740688 -0.9976653
vn -0.03424101 -0.02634422 -0.9990664
vn 0 0 -1
vn -0.02482906 -0.1230353 -0.9920917
vn -0.06695108 -0.1035888 -0.9923643
vn -0.06695108 -0.1035888 -0.9923643
vn 0.01086511 -0.0680923 -0.9976198
vn -0.06835813 -0.05414005 -0.9961907
vn 0 0 -1
vn -0.4069775 0.5225168 -0.7492299
vn -0.3724574 0.5528343 -0.7454192
vn 0 0 -1
vn 0 0 -1
vn -0.4638157 0.4322073 -0.7733511
vn 0 0 -1
vn 0.4633745 0.4323772 -0.7735205
vn 0 0 -1
vn -0.3206758 0.5648813 -0.7603132
vn -0.2771823 0.3626796 -0.8897379
vn -0.3206758 0.5648813 -0.7603132
vn 0.4045445 0.5246559 -0.7490527
vn 0 0 -1
vn 0 0 -1
vn 0.369552 0.5557582 -0.7446907
vn 0.3207362 0.5625522 -0.7620127
vn 0.3207362 0.5625522 -0.7620127
vn 0.2770643 0.3609759 -0.8904671
vn -0.02654694 -0.1299669 -0.9911629
vn -0.07028458 -0.06457265 -0.9954348
vn -0.1230167 -0.05839331 -0.9906852
vn 0.04976278 -0.07787509 -0.9957204
vn 0.06435782 -0.08826432 -0.9940158
vn -0.02654694 -0.1299669 -0.9911629
vn -0.1230167 -0.05839331 -0.9906852
vn -0.0829585 -0.09033122 -0.9924505
vn 0 0 -1
vn 0 0 -1
vn 0.06435782 -0.08826432 -0.9940158
vn 0.0203617 -0.03762481 -0.9990845
vn 0.01412112 -0.07545135 -0.9970495
vn -0.02580228 -0.05840144 -0.9979597
vn -0.06290906 -0.1133332 -0.9915634
vn -0.01425452 -0.07853656 -0.9968093
vn -0.03699357 -0.05740688 -0.9976653
vn -0.034241 -0.02634422 -0.9990664
vn -0.142191 0.008956525 -0.9897988
vn -0.142191 0.008956526 -0.9897988
vn -0.142191 0.008956526 -0.9897988
vn -0.142191 0.008956527 -0.9897988
vn 0.1346494 -0.003374778 -0.9908875
vn 0.1346494 -0.003374778 -0.9908875
vn 0.1346494 -0.003374778 -0.9908875
vn 0.1346494 -0.003374778 -0.9908875
g jumpPad3_arrow_mesh_0
f 3/3/3 2/2/2 1/1/1
f 5/5/5 3/3/3 4/4/4
f 8/8/8 7/7/7 6/6/6
f 11/11/11 10/10/10 9/9/9
f 13/13/13 12/12/12 11/11/11
f 12/12/12 15/15/15 14/14/14
f 17/17/17 14/14/14 16/16/16
f 20/20/20 19/19/19 18/18/18
f 23/23/23 22/22/22 21/21/21
f 25/25/25 21/21/21 24/24/24
f 27/27/27 26/26/26 24/24/24
f 26/26/26 25/25/25 28/28/28
f 26/26/26 29/29/29 25/25/25
f 25/25/25 29/29/29 30/30/30
f 26/26/26 31/31/31 29/29/29
f 32/32/32 31/31/31 26/26/26
f 33/33/33 30/30/30 29/29/29
f 33/33/33 34/34/34 30/30/30
f 31/31/31 35/35/35 29/29/29
f 35/35/35 36/36/36 29/29/29
f 36/36/36 37/37/37 33/33/33
f 37/37/37 38/38/38 33/33/33
f 31/31/31 39/39/39 35/35/35
f 40/40/40 39/39/39 31/31/31
f 40/40/40 41/41/41 39/39/39
f 41/41/41 42/42/42 39/39/39
f 39/39/39 43/43/43 35/35/35
f 39/39/39 42/42/42 44/44/44
f 43/43/43 39/39/39 44/44/44
f 43/43/43 44/44/44 45/45/45
f 30/30/30 47/47/47 46/46/46
f 50/50/50 49/49/49 48/48/48
f 53/53/53 52/52/52 51/51/51
f 55/55/55 53/53/53 54/54/54
f 56/56/56 53/53/53 55/55/55
f 56/56/56 55/55/55 57/57/57
f 58/58/58 53/53/53 56/56/56
f 59/59/59 58/58/58 56/56/56
f 57/57/57 60/60/60 56/56/56
f 61/61/61 59/59/59 60/60/60
f 62/62/62 60/60/60 57/57/57
f 64/64/64 63/63/63 57/57/57
f 66/66/66 65/65/65 53/53/53
f 66/66/66 53/53/53 67/67/67
f 68/68/68 66/66/66 67/67/67
f 69/69/69 68/68/68 67/67/67
f 70/70/70 66/66/66 68/68/68
f 70/70/70 71/71/71 66/66/66
f 72/72/72 71/71/71 70/70/70
f 73/73/73 72/72/72 70/70/70
f 74/74/74 70/70/70 68/68/68
f 73/73/73 70/70/70 75/75/75
f 70/70/70 74/74/74 75/75/75
f 75/75/75 74/74/74 76/76/76
f 78/78/78 69/69/69 77/77/77
f 79/79/79 78/78/78 77/77/77
f 82/82/82 81/81/81 80/80/80
f 81/81/81 84/84/84 83/83/83
f 87/87/87 86/86/86 85/85/85
f 90/90/90 89/89/89 88/88/88
f 92/92/92 91/91/91 89/89/89
f 89/89/89 91/91/91 93/93/93
f 91/91/91 94/94/94 93/93/93
f 97/97/97 96/96/96 95/95/95
f 99/99/99 95/95/95 98/98/98
f 100/100/100 95/95/95 99/99/99
f 95/95/95 100/100/100 101/101/101
f 100/100/100 103/103/103 102/102/102
f 102/102/102 103/103/103 104/104/104
f 107/107/107 106/106/106 105/105/105
f 110/110/110 109/109/109 108/108/108
f 113/113/113 112/112/112 111/111/111
f 116/116/116 115/115/115 114/114/114
f 119/119/119 118/118/118 117/117/117
f 122/122/122 121/121/121 120/120/120
f 125/125/125 124/124/124 123/123/123
f 124/124/124 126/126/126 123/123/123
f 127/127/127 126/126/126 124/124/124
f 129/129/129 127/127/127 128/128/128
f 131/131/131 129/129/129 130/130/130
f 123/123/123 133/133/133 132/132/132
f 134/134/134 123/123/123 132/132/132
f 136/136/136 131/131/131 135/135/135
f 136/136/136 135/135/135 137/137/137
f 135/135/135 138/138/138 137/137/137
f 137/137/137 140/140/140 139/139/139
f 141/141/141 137/137/137 139/139/139
f 144/144/144 143/143/143 142/142/142
f 142/142/142 143/143/143 145/145/145
f 146/146/146 142/142/142 145/145/145
f 149/149/149 148/148/148 147/147/147
f 149/149/149 147/147/147 150/150/150
f 151/151/151 149/149/149 150/150/150
f 150/150/150 147/147/147 152/152/152
f 155/155/155 154/154/154 153/153/153
f 155/155/155 156/156/156 154/154/154
f 158/158/158 156/156/156 157/157/157
f 158/158/158 157/157/157 159/159/159
f 162/162/162 161/161/161 160/160/160
f 163/163/163 162/162/162 160/160/160
f 166/166/166 165/165/165 164/164/164
f 167/167/167 166/166/166 164/164/164
