g jumpPad2_arrow_mesh
v -1.189485 -0.4853011 0.03846706
v -0.6432858 -0.2892646 -0.01971737
v -0.791319 -0.1808333 -0.01971737
v -0.403895 -0.02520062 -0.01440708
v -0.5624481 0.06715238 -0.01440708
v -0.7093247 -0.6221994 -0.007146753
v -0.9671406 -0.5563676 5.587935E-09
v -1.189485 -0.4853011 0.03846706
v -1.232921 -0.7241032 0.08506048
v -0.9279989 -0.7747318 0.08829436
v -0.3935428 -0.255846 -0.01440708
v -0.2623453 -0.5116878 0.1011075
v -0.5755602 -0.7561355 0.1022726
v -0.2548952 -1.032736 0.1712172
v -0.4977717 -1.927078 0.1763125
v -0.4977717 -1.927078 0.1763125
v -0.2135026 0.1764586 7.450581E-09
v -0.2659792 0.4618081 7.450581E-09
v 2.910383E-11 0.8898132 7.450581E-09
v -0.181448 -0.0371904 7.450581E-09
v 2.910383E-11 0.165638 7.450581E-09
v 2.910383E-11 -0.3447831 0.05762134
v 2.910383E-11 0.165638 7.450581E-09
v -1.079227 -2.214696 0.1366866
v -0.7780807 -1.779024 0.1418832
v -0.9279989 -0.7747318 0.08829436
v -0.4977717 -1.927078 0.1763125
v 2.910383E-11 0.4685452 7.450581E-09
v 2.910383E-11 0.8898132 7.450581E-09
v 2.910383E-11 0.165638 7.450581E-09
v -0.403895 -0.02520062 -0.01440708
v -0.2659792 0.4618081 7.450581E-09
v -0.5624481 0.06715238 -0.01440708
v -0.6432858 -0.2892646 -0.01971737
v -0.791319 -0.1808333 -0.01971737
v -0.2623453 -0.5116878 0.1011075
v -0.2548952 -1.032736 0.1712172
v 2.910383E-11 -1.402295 0.1258391
v -0.7093247 -0.6221994 -0.007146753
v -0.5755602 -0.7561355 0.1022726
v -0.2623453 -0.5116878 0.1011075
v 2.910383E-11 -1.402295 0.1258391
v 2.910383E-11 -0.3447831 0.05762134
v -0.3935428 -0.255846 -0.01440708
v -0.181448 -0.0371904 7.450581E-09
v -1.189485 -0.4853011 0.03846706
v -1.442862 -0.5152437 0.1754304
v -1.079227 -2.214696 0.1366866
v -1.268818 -1.314196 0.1342878
v -1.480734 -1.440614 0.1323438
v -1.268818 -1.314196 0.1342878
v -1.232921 -0.7241032 0.08506048
v -1.480734 -1.440614 0.1323438
v -1.232921 -0.7241032 0.08506048
v -1.442862 -0.5152437 0.1754304
v 1.189485 -0.4853011 0.03846706
v 0.791319 -0.1808333 -0.01971737
v 0.6432858 -0.2892646 -0.01971737
v 0.5624481 0.06715238 -0.01440708
v 0.403895 -0.02520062 -0.01440708
v 0.7093247 -0.6221994 -0.007146753
v 0.9671406 -0.5563676 5.587935E-09
v 1.189485 -0.4853011 0.03846706
v 1.232921 -0.7241032 0.08506048
v 0.8396386 -0.7747318 0.08829436
v 0.6268645 -0.7561355 0.1022726
v 0.5631167 -1.561477 0.1763125
v 0.2136885 -1.274671 0.1712172
v 0.2623453 -0.5116878 0.1011075
v 2.910383E-11 -1.402295 0.1258391
v 0.3935428 -0.255846 -0.01440708
v 0.2135026 0.1764586 7.450581E-09
v 0.2659792 0.4618081 7.450581E-09
v 2.910383E-11 0.8898132 7.450581E-09
v 0.181448 -0.0371904 7.450581E-09
v 2.910383E-11 0.165638 7.450581E-09
v 1.442862 -0.5152437 0.1754304
v 1.189485 -0.4853011 0.03846706
v 0.8396386 -0.7747318 0.08829436
v 0.7913442 -2.082008 0.1418832
v 2.910383E-11 -0.3447831 0.05762134
v 2.910383E-11 0.165638 7.450581E-09
v 2.910383E-11 0.8898132 7.450581E-09
v 2.910383E-11 0.4685452 7.450581E-09
v 2.910383E-11 0.165638 7.450581E-09
v 0.403895 -0.02520062 -0.01440708
v 0.5624481 0.06715238 -0.01440708
v 0.2659792 0.4618081 7.450581E-09
v 0.6432858 -0.2892646 -0.01971737
v 0.791319 -0.1808333 -0.01971737
v 0.7093247 -0.6221994 -0.007146753
v 0.2623453 -0.5116878 0.1011075
v 0.6268645 -0.7561355 0.1022726
v 2.910383E-11 -0.3447831 0.05762134
v 2.910383E-11 -1.402295 0.1258391
v 0.3935428 -0.255846 -0.01440708
v 0.181448 -0.0371904 7.450581E-09
v 1.015701 -1.480343 0.1366866
v 0.8396386 -0.7747318 0.08829436
v 0.7913442 -2.082008 0.1418832
v 1.015701 -1.480343 0.1366866
v 1.22017 -1.733494 0.1342878
v 1.232921 -0.7241032 0.08506048
v -0.791319 -0.1808333 -0.01971737
v -0.5624481 0.06715238 -0.01440708
v -0.7218601 0.1572705 0.1710246
v -0.2659792 0.4618081 7.450581E-09
v -0.4532052 0.5597485 0.1567942
v 2.910383E-11 0.8898132 7.450581E-09
v 2.910383E-11 1.237216 0.1567942
v 0.4532052 0.5597485 0.1567942
v 2.910383E-11 1.237216 0.1567942
v 0.2659792 0.4618081 7.450581E-09
v 0.7218601 0.1572705 0.1710246
v 0.5624481 0.06715238 -0.01440708
v 0.791319 -0.1808333 -0.01971737
v -0.791319 -0.1808333 -0.01971737
v -0.7218601 0.1572705 0.1710246
v -1.022498 -0.1196155 0.1732275
v -1.442862 -0.5152437 0.1754304
v -1.189485 -0.4853011 0.03846706
v -0.9279989 -0.7747318 0.08829436
v -0.9671406 -0.5563676 5.587935E-09
v -1.232921 -0.7241032 0.08506048
v -1.079227 -2.214696 0.1366866
v 0.791319 -0.1808333 -0.01971737
v 1.022498 -0.1196155 0.1732275
v 0.7218601 0.1572705 0.1710246
v 1.442862 -0.5152437 0.1754304
v 1.189485 -0.4853011 0.03846706
v 0.8396386 -0.7747318 0.08829436
v 1.232921 -0.7241032 0.08506048
v 0.9671406 -0.5563676 5.587935E-09
v 1.015701 -1.480343 0.1366866
v 1.429895 -1.228717 0.1323438
v 1.442862 -0.5152437 0.1754304
v 1.232921 -0.7241032 0.08506048
v 1.22017 -1.733494 0.1342878
vt 0.6349505 0.4215189
vt 0.6727087 0.3815528
vt 0.6987087 0.3089852
vt 0.6840222 0.3752374
vt 0.7012047 0.2870212
vt 0.6723608 0.429955
vt 0.6586124 0.4231955
vt 0.6349505 0.4215189
vt 0.6138713 0.4368885
vt 0.6143941 0.4363649
vt 0.6861985 0.4361381
vt 0.6435591 0.4511728
vt 0.6498871 0.449143
vt 0.539116 0.4652633
vt 0.5387657 0.4649159
vt 0.5387657 0.4649159
vt 0.6998176 0.3693591
vt 0.7035729 0.2603894
vt 0.7067741 0.2160688
vt 0.6981941 0.4278733
vt 0.7082086 0.426953
vt 0.6385521 0.4503036
vt 0.7082086 0.426953
vt 0.538171 0.4643258
vt 0.5384157 0.4645685
vt 0.6143941 0.4363649
vt 0.5387657 0.4649159
vt 0.7046357 0.3385069
vt 0.7067741 0.2160688
vt 0.7082086 0.426953
vt 0.6840222 0.3752374
vt 0.7035729 0.2603894
vt 0.7012047 0.2870212
vt 0.6727087 0.3815528
vt 0.6987087 0.3089852
vt 0.6435591 0.4511728
vt 0.539116 0.4652633
vt 0.5394777 0.4656464
vt 0.6723608 0.429955
vt 0.6498871 0.449143
vt 0.6435591 0.4511728
vt 0.5394777 0.4656464
vt 0.6385521 0.4503036
vt 0.6861985 0.4361381
vt 0.6981941 0.4278733
vt 0.6349505 0.4215189
vt 0.5347683 0.4611572
vt 0.538171 0.4643258
vt 0.5377921 0.4639724
vt 0.537485 0.4636861
vt 0.5377921 0.4639724
vt 0.6138713 0.4368885
vt 0.537485 0.4636861
vt 0.6138713 0.4368885
vt 0.5347683 0.4611572
vt 0.6349505 0.4215189
vt 0.6987087 0.3089852
vt 0.6727087 0.3815528
vt 0.7012047 0.2870212
vt 0.6840222 0.3752374
vt 0.6723608 0.429955
vt 0.6586124 0.4231955
vt 0.6349505 0.4215189
vt 0.6138713 0.4368885
vt 0.6143941 0.4363649
vt 0.6498871 0.449143
vt 0.5387657 0.4649159
vt 0.539116 0.4652633
vt 0.6435591 0.4511728
vt 0.5394777 0.4656464
vt 0.6861985 0.4361381
vt 0.6998176 0.3693591
vt 0.7035729 0.2603894
vt 0.7067741 0.2160688
vt 0.6981941 0.4278733
vt 0.7082086 0.426953
vt 0.5347683 0.4611572
vt 0.6349505 0.4215189
vt 0.6143941 0.4363649
vt 0.5384157 0.4645685
vt 0.6385521 0.4503036
vt 0.7082086 0.426953
vt 0.7067741 0.2160688
vt 0.7046357 0.3385069
vt 0.7082086 0.426953
vt 0.6840222 0.3752374
vt 0.7012047 0.2870212
vt 0.7035729 0.2603894
vt 0.6727087 0.3815528
vt 0.6987087 0.3089852
vt 0.6723608 0.429955
vt 0.6435591 0.4511728
vt 0.6498871 0.449143
vt 0.6385521 0.4503036
vt 0.5394777 0.4656464
vt 0.6861985 0.4361381
vt 0.6981941 0.4278733
vt 0.538171 0.4643258
vt 0.6143941 0.4363649
vt 0.5384157 0.4645685
vt 0.538171 0.4643258
vt 0.5377921 0.4639724
vt 0.6138713 0.4368885
vt 0.6187323 0.4607149
vt 0.594162 0.452775
vt 0.5401072 0.465257
vt 0.5664967 0.4567243
vt 0.5350455 0.4607777
vt 0.5671476 0.4565533
vt 0.5349333 0.4606791
vt 0.5350455 0.4607777
vt 0.5349333 0.4606791
vt 0.5664967 0.4567243
vt 0.5401072 0.465257
vt 0.594162 0.452775
vt 0.6187323 0.4607149
vt 0.6187323 0.4607149
vt 0.5401072 0.465257
vt 0.5374377 0.4632071
vt 0.5347683 0.4611572
vt 0.6349505 0.4215189
vt 0.6143941 0.4363649
vt 0.6586124 0.4231955
vt 0.6138713 0.4368885
vt 0.538171 0.4643258
vt 0.6187323 0.4607149
vt 0.5374377 0.4632071
vt 0.5401072 0.465257
vt 0.5347683 0.4611572
vt 0.6349505 0.4215189
vt 0.6143941 0.4363649
vt 0.6138713 0.4368885
vt 0.6586124 0.4231955
vt 0.538171 0.4643258
vt 0.537485 0.4636861
vt 0.5347683 0.4611572
vt 0.6138713 0.4368885
vt 0.5377921 0.4639724
vn -0.4054539 0.3120217 -0.8592145
vn -0.01784093 -0.01025848 -0.9997882
vn 0 0 -1
vn 0.03662213 0.008157521 -0.9992958
vn 0 0 -1
vn 0 0 -1
vn -0.09922614 -0.1605689 -0.9820243
vn -0.4054539 0.3120217 -0.8592145
vn -0.1040522 -0.08163007 -0.9912163
vn -0.00710585 -0.09922501 -0.9950396
vn 0 0 -1
vn 0.02240734 -0.1520511 -0.9881186
vn 0.134575 -0.1133998 -0.9843932
vn 0.002623812 -0.08191822 -0.9966356
vn 0.08217622 -0.0567681 -0.9949998
vn 0.08217622 -0.0567681 -0.9949998
vn 0.02506369 0.01021493 -0.9996337
vn 0 0 -1
vn 0 0 -1
vn 0 0 -1
vn 0 0 -1
vn -0.04745841 -0.1481781 -0.9878213
vn 0 0 -1
vn 0.07737683 -0.04160284 -0.9961336
vn 0.07002614 -0.04788429 -0.9963952
vn -0.00710585 -0.09922501 -0.9950396
vn 0.08217622 -0.0567681 -0.9949998
vn 0 0 -1
vn 0 0 -1
vn 0 0 -1
vn 0.03662213 0.008157521 -0.9992958
vn 0 0 -1
vn 0 0 -1
vn -0.01784093 -0.01025848 -0.9997882
vn 0 0 -1
vn 0.02240734 -0.1520511 -0.9881186
vn 0.002623812 -0.08191822 -0.9966356
vn -0.2014942 -0.08644763 -0.9756674
vn 0 0 -1
vn 0.134575 -0.1133998 -0.9843932
vn 0.02240734 -0.1520511 -0.9881186
vn -0.2014942 -0.08644763 -0.9756674
vn -0.04745841 -0.1481781 -0.9878213
vn 0 0 -1
vn 0 0 -1
vn -0.4054539 0.3120217 -0.8592145
vn -0.4657308 -0.08711009 -0.8806285
vn -0.06866338 -0.04160269 -0.996772
vn -0.06866339 -0.04160269 -0.996772
vn -0.2040321 0.005965028 -0.978946
vn -0.2040321 0.005965028 -0.978946
vn -0.2040321 0.005965027 -0.978946
vn -0.2040321 0.005965028 -0.978946
vn -0.2040321 0.005965027 -0.978946
vn -0.2040321 0.005965028 -0.978946
vn 0.4054539 0.3120217 -0.8592145
vn 0 0 -1
vn 0.01784094 -0.01025848 -0.9997882
vn 0 0 -1
vn -0.03662213 0.008157521 -0.9992958
vn 0 0 -1
vn 0.09633763 -0.1791156 -0.9790999
vn 0.4054539 0.3120217 -0.8592145
vn 0.03361519 -0.107142 -0.9936753
vn -0.06962983 -0.1196467 -0.9903718
vn -0.1306361 -0.1226679 -0.9838124
vn -0.1357184 -0.06168534 -0.9888253
vn 0.0421361 -0.08452412 -0.9955302
vn -0.009761953 -0.1497141 -0.9886812
vn 0.1766046 -0.07926636 -0.9810849
vn 0 0 -1
vn -0.02506369 0.01021493 -0.9996337
vn 0 0 -1
vn 0 0 -1
vn 0 0 -1
vn 0 0 -1
vn 0.4657308 -0.0871102 -0.8806285
vn 0.4054539 0.3120217 -0.8592145
vn -0.06962983 -0.1196467 -0.9903718
vn -0.09904625 -0.04914502 -0.9938685
vn 0.03851215 -0.142131 -0.9890984
vn 0 0 -1
vn 0 0 -1
vn 0 0 -1
vn 0 0 -1
vn -0.03662213 0.008157521 -0.9992958
vn 0 0 -1
vn 0 0 -1
vn 0.01784094 -0.01025848 -0.9997882
vn 0 0 -1
vn 0 0 -1
vn -0.009761953 -0.1497141 -0.9886812
vn -0.1306361 -0.1226679 -0.9838124
vn 0.03851215 -0.142131 -0.9890984
vn 0.1766046 -0.07926636 -0.9810849
vn 0 0 -1
vn 0 0 -1
vn 0.09577326 -0.04430199 -0.9944168
vn -0.06962983 -0.1196467 -0.9903718
vn -0.09904625 -0.04914502 -0.9938685
vn -0.02959956 -0.05961336 -0.9977826
vn -0.02959956 -0.05961336 -0.9977826
vn 0.03361519 -0.107142 -0.9936753
vn 0 0 -1
vn 0 0 -1
vn -0.5169404 0.4406986 -0.7338647
vn 0 0 -1
vn -0.5265287 0.3570699 -0.7715365
vn 0 0 -1
vn -0.5173283 0.3365568 -0.7868297
vn 0.5265286 0.3570699 -0.7715365
vn 0.5173283 0.3365568 -0.7868297
vn 0 0 -1
vn 0.5169404 0.4406986 -0.7338647
vn 0 0 -1
vn 0 0 -1
vn 0 0 -1
vn -0.5169404 0.4406986 -0.7338647
vn -0.4934881 0.5020526 -0.71022
vn -0.4701511 0.486148 -0.7366262
vn -0.4054539 0.3120217 -0.8592145
vn -0.00710585 -0.09922501 -0.9950396
vn -0.09922614 -0.1605689 -0.9820243
vn -0.1040522 -0.08163007 -0.9912163
vn -0.06866338 -0.04160269 -0.996772
vn 0 0 -1
vn 0.4934881 0.5020527 -0.71022
vn 0.5169404 0.4406986 -0.7338647
vn 0.4701511 0.4861481 -0.7366261
vn 0.4054539 0.3120217 -0.8592145
vn -0.06962983 -0.1196467 -0.9903718
vn 0.03361519 -0.107142 -0.9936753
vn 0.09633763 -0.1791156 -0.9790999
vn -0.02959956 -0.05961336 -0.9977826
vn 0.2171027 -0.006720005 -0.9761257
vn 0.2171027 -0.006720004 -0.9761257
vn 0.2171027 -0.006720005 -0.9761257
vn 0.2171027 -0.006720005 -0.9761257
g jumpPad2_arrow_mesh_0
f 3/3/3 2/2/2 1/1/1
f 5/5/5 4/4/4 2/2/2
f 2/2/2 4/4/4 6/6/6
f 2/2/2 6/6/6 7/7/7
f 2/2/2 7/7/7 8/8/8
f 7/7/7 9/9/9 8/8/8
f 7/7/7 6/6/6 10/10/10
f 4/4/4 11/11/11 6/6/6
f 11/11/11 12/12/12 6/6/6
f 13/13/13 10/10/10 6/6/6
f 12/12/12 14/14/14 13/13/13
f 14/14/14 15/15/15 13/13/13
f 13/13/13 16/16/16 10/10/10
f 4/4/4 17/17/17 11/11/11
f 18/18/18 17/17/17 4/4/4
f 18/18/18 19/19/19 17/17/17
f 17/17/17 20/20/20 11/11/11
f 20/20/20 17/17/17 21/21/21
f 20/20/20 23/23/23 22/22/22
f 10/10/10 25/25/25 24/24/24
f 27/27/27 25/25/25 26/26/26
f 29/29/29 28/28/28 17/17/17
f 17/17/17 28/28/28 30/30/30
f 33/33/33 32/32/32 31/31/31
f 35/35/35 33/33/33 34/34/34
f 38/38/38 37/37/37 36/36/36
f 41/41/41 40/40/40 39/39/39
f 43/43/43 42/42/42 41/41/41
f 43/43/43 41/41/41 44/44/44
f 45/45/45 43/43/43 44/44/44
f 47/47/47 46/46/46 9/9/9
f 49/49/49 9/9/9 48/48/48
f 52/52/52 51/51/51 50/50/50
f 55/55/55 54/54/54 53/53/53
f 58/58/58 57/57/57 56/56/56
f 60/60/60 59/59/59 58/58/58
f 60/60/60 58/58/58 61/61/61
f 61/61/61 58/58/58 62/62/62
f 62/62/62 58/58/58 63/63/63
f 64/64/64 62/62/62 63/63/63
f 61/61/61 62/62/62 65/65/65
f 65/65/65 66/66/66 61/61/61
f 67/67/67 66/66/66 65/65/65
f 67/67/67 68/68/68 66/66/66
f 68/68/68 69/69/69 66/66/66
f 68/68/68 70/70/70 69/69/69
f 69/69/69 71/71/71 61/61/61
f 71/71/71 60/60/60 61/61/61
f 72/72/72 60/60/60 71/71/71
f 72/72/72 73/73/73 60/60/60
f 74/74/74 73/73/73 72/72/72
f 75/75/75 72/72/72 71/71/71
f 72/72/72 75/75/75 76/76/76
f 78/78/78 77/77/77 64/64/64
f 80/80/80 67/67/67 79/79/79
f 82/82/82 75/75/75 81/81/81
f 84/84/84 83/83/83 72/72/72
f 84/84/84 72/72/72 85/85/85
f 88/88/88 87/87/87 86/86/86
f 87/87/87 90/90/90 89/89/89
f 93/93/93 92/92/92 91/91/91
f 95/95/95 94/94/94 92/92/92
f 92/92/92 94/94/94 96/96/96
f 94/94/94 97/97/97 96/96/96
f 100/100/100 99/99/99 98/98/98
f 103/103/103 102/102/102 101/101/101
f 106/106/106 105/105/105 104/104/104
f 107/107/107 105/105/105 106/106/106
f 108/108/108 107/107/107 106/106/106
f 109/109/109 107/107/107 108/108/108
f 110/110/110 109/109/109 108/108/108
f 109/109/109 112/112/112 111/111/111
f 113/113/113 109/109/109 111/111/111
f 113/113/113 111/111/111 114/114/114
f 115/115/115 113/113/113 114/114/114
f 115/115/115 114/114/114 116/116/116
f 119/119/119 118/118/118 117/117/117
f 119/119/119 117/117/117 120/120/120
f 117/117/117 121/121/121 120/120/120
f 124/124/124 123/123/123 122/122/122
f 124/124/124 122/122/122 125/125/125
f 128/128/128 127/127/127 126/126/126
f 126/126/126 127/127/127 129/129/129
f 130/130/130 126/126/126 129/129/129
f 133/133/133 132/132/132 131/131/131
f 131/131/131 132/132/132 134/134/134
f 137/137/137 136/136/136 135/135/135
f 138/138/138 137/137/137 135/135/135
