g lavaBubble1_mesh
v -5.666868 -6.068796E-09 -5.666874
v -7.404119 2.005414 0
v -8.014179 -6.068796E-09 0
v -5.23552 2.005414 -5.235514
v 0 -6.068796E-09 -8.014179
v -5.666868 3.705513 0
v 0 2.005414 -7.404126
v 5.666881 -6.068796E-09 -5.666874
v -4.007086 3.705513 -4.007086
v -3.066884 4.841489 0
v 5.23552 2.005414 -5.235514
v 8.014179 -6.068796E-09 0
v 7.404132 2.005414 0
v 0 3.705513 -5.666874
v -2.168624 4.841489 -2.168624
v 0 5.240391 0
v 4.007086 3.705513 -4.007086
v 5.666881 3.705513 0
v 0 4.841489 -3.06689
v 0 5.240391 0
v 2.168624 4.841489 -2.168624
v 0 5.240391 0
v 3.066902 4.841489 0
v 0 5.240391 0
v 5.666881 -6.068796E-09 5.666881
v 7.404132 2.005414 0
v 8.014179 -6.068796E-09 0
v 5.23552 2.005414 5.23552
v 0 -6.068796E-09 8.014179
v 5.666881 3.705513 0
v 0 2.005414 7.404132
v -5.666868 -6.068796E-09 5.666881
v 4.007086 3.705513 4.007086
v 3.066902 4.841489 0
v -5.23552 2.005414 5.23552
v -8.014179 -6.068796E-09 0
v -7.404119 2.005414 0
v 0 3.705513 5.666881
v 2.168624 4.841489 2.168624
v 0 5.240391 0
v -4.007086 3.705513 4.007086
v -5.666868 3.705513 0
v 0 4.841489 3.06689
v 0 5.240391 0
v -2.168624 4.841489 2.168624
v 0 5.240391 0
v -3.066884 4.841489 0
v 0 5.240391 0
vt 0.6092346 0.3357982
vt 0.6064857 0.3413389
vt 0.6055205 0.3357982
vt 0.6099169 0.3413389
vt 0.6182009 0.3357982
vt 0.6092346 0.346036
vt 0.6182009 0.3413389
vt 0.6271673 0.3357982
vt 0.6118606 0.346036
vt 0.6133482 0.3491746
vt 0.6264848 0.3413389
vt 0.6308814 0.3357982
vt 0.6299162 0.3413389
vt 0.6182009 0.346036
vt 0.6147696 0.3491746
vt 0.6182009 0.3502767
vt 0.6245412 0.346036
vt 0.6271673 0.346036
vt 0.6182009 0.3491746
vt 0.6182009 0.3502767
vt 0.6216322 0.3491746
vt 0.6182009 0.3502767
vt 0.6230535 0.3491746
vt 0.6182009 0.3502767
vt 0.6271673 0.3357982
vt 0.6299162 0.3413389
vt 0.6308814 0.3357982
vt 0.6264848 0.3413389
vt 0.6182009 0.3357982
vt 0.6271673 0.346036
vt 0.6182009 0.3413389
vt 0.6092346 0.3357982
vt 0.6245412 0.346036
vt 0.6230535 0.3491746
vt 0.6099169 0.3413389
vt 0.6055205 0.3357982
vt 0.6064857 0.3413389
vt 0.6182009 0.346036
vt 0.6216322 0.3491746
vt 0.6182009 0.3502767
vt 0.6118606 0.346036
vt 0.6092346 0.346036
vt 0.6182009 0.3491746
vt 0.6182009 0.3502767
vt 0.6147696 0.3491746
vt 0.6182009 0.3502767
vt 0.6133482 0.3491746
vt 0.6182009 0.3502767
vn -0.6764983 0.29103 -0.6764995
vn -0.8726373 0.488369 0
vn -0.956714 0.2910297 0
vn -0.6170484 0.488369 -0.6170471
vn 0 0.2910306 -0.9567138
vn -0.6070923 0.7946313 0
vn 0 0.4883691 -0.8726372
vn 0.6764987 0.2910304 -0.676499
vn -0.429279 0.7946315 -0.4292788
vn -0.3509772 0.936384 0
vn 0.6170476 0.4883691 -0.6170477
vn 0.956714 0.2910296 0
vn 0.8726372 0.4883689 0
vn 0 0.7946311 -0.6070925
vn -0.2481784 0.9363841 -0.248178
vn 0 1 0
vn 0.4292785 0.7946315 -0.4292794
vn 0.6070921 0.7946314 0
vn 0 0.936384 -0.3509772
vn 0 1 0
vn 0.248178 0.9363841 -0.2481787
vn 0 1 0
vn 0.350977 0.9363841 0
vn 0 1 0
vn 0.6764989 0.2910298 0.6764989
vn 0.8726372 0.4883689 0
vn 0.956714 0.2910296 0
vn 0.6170477 0.4883691 0.6170477
vn 0 0.2910291 0.9567142
vn 0.6070921 0.7946314 0
vn 0 0.4883689 0.8726372
vn -0.6764987 0.2910292 0.6764995
vn 0.4292786 0.7946317 0.4292788
vn 0.350977 0.9363841 0
vn -0.6170484 0.488369 0.617047
vn -0.956714 0.2910297 0
vn -0.8726373 0.488369 0
vn 0 0.7946316 0.6070918
vn 0.248178 0.9363841 0.2481786
vn 0 1 0
vn -0.429279 0.7946319 0.4292781
vn -0.6070923 0.7946313 0
vn 0 0.9363842 0.3509768
vn 0 1 0
vn -0.2481785 0.9363841 0.2481779
vn 0 1 0
vn -0.3509772 0.936384 0
vn 0 1 0
g lavaBubble1_mesh_0
f 3/3/3 2/2/2 1/1/1
f 2/2/2 4/4/4 1/1/1
f 1/1/1 4/4/4 5/5/5
f 2/2/2 6/6/6 4/4/4
f 4/4/4 7/7/7 5/5/5
f 5/5/5 7/7/7 8/8/8
f 6/6/6 9/9/9 4/4/4
f 4/4/4 9/9/9 7/7/7
f 6/6/6 10/10/10 9/9/9
f 7/7/7 11/11/11 8/8/8
f 8/8/8 11/11/11 12/12/12
f 11/11/11 13/13/13 12/12/12
f 9/9/9 14/14/14 7/7/7
f 7/7/7 14/14/14 11/11/11
f 10/10/10 15/15/15 9/9/9
f 9/9/9 15/15/15 14/14/14
f 10/10/10 16/16/16 15/15/15
f 11/11/11 17/17/17 13/13/13
f 14/14/14 17/17/17 11/11/11
f 17/17/17 18/18/18 13/13/13
f 15/15/15 19/19/19 14/14/14
f 14/14/14 19/19/19 17/17/17
f 15/15/15 20/20/20 19/19/19
f 17/17/17 21/21/21 18/18/18
f 19/19/19 21/21/21 17/17/17
f 19/19/19 22/22/22 21/21/21
f 21/21/21 23/23/23 18/18/18
f 21/21/21 24/24/24 23/23/23
f 27/27/27 26/26/26 25/25/25
f 26/26/26 28/28/28 25/25/25
f 25/25/25 28/28/28 29/29/29
f 26/26/26 30/30/30 28/28/28
f 28/28/28 31/31/31 29/29/29
f 29/29/29 31/31/31 32/32/32
f 30/30/30 33/33/33 28/28/28
f 28/28/28 33/33/33 31/31/31
f 30/30/30 34/34/34 33/33/33
f 31/31/31 35/35/35 32/32/32
f 32/32/32 35/35/35 36/36/36
f 35/35/35 37/37/37 36/36/36
f 33/33/33 38/38/38 31/31/31
f 31/31/31 38/38/38 35/35/35
f 34/34/34 39/39/39 33/33/33
f 33/33/33 39/39/39 38/38/38
f 34/34/34 40/40/40 39/39/39
f 35/35/35 41/41/41 37/37/37
f 38/38/38 41/41/41 35/35/35
f 41/41/41 42/42/42 37/37/37
f 39/39/39 43/43/43 38/38/38
f 38/38/38 43/43/43 41/41/41
f 39/39/39 44/44/44 43/43/43
f 41/41/41 45/45/45 42/42/42
f 43/43/43 45/45/45 41/41/41
f 43/43/43 46/46/46 45/45/45
f 45/45/45 47/47/47 42/42/42
f 45/45/45 48/48/48 47/47/47
