g legendary_rewardGlow_mesh
v 0.9726733 -2.664535E-15 -0.5615732
v 0.5615732 -2.664535E-15 -0.9726733
v 3.150968E-18 -2.664535E-15 -1.123146
v -0.5615732 -2.664535E-15 -0.9726733
v -0.9726733 -2.664535E-15 -0.5615732
v -1.123146 -2.664535E-15 1.0254E-17
v -0.9726733 -2.664535E-15 0.5615732
v -0.5615732 -2.664535E-15 0.9726733
v 3.150968E-18 -2.664535E-15 1.123146
v 0.5615732 -2.664535E-15 0.9726733
v 0.9726733 -2.664535E-15 0.5615732
v 1.123146 -2.664535E-15 1.0254E-17
v 0 -2.664535E-15 0
v 0.5935578 -2.664535E-15 -0.3426908
v 0.3426908 -2.664535E-15 -0.5935578
v 9.486782E-18 -2.664535E-15 -0.6853815
v -0.3426908 -2.664535E-15 -0.5935578
v -0.5935578 -2.664535E-15 -0.3426908
v -0.6853815 -2.664535E-15 0
v -0.5935578 -2.664535E-15 0.3426908
v -0.3426908 -2.664535E-15 0.5935578
v 9.486782E-18 -2.664535E-15 0.6853815
v 0.3426908 -2.664535E-15 0.5935578
v 0.5935578 -2.664535E-15 0.3426908
v 0.6853815 -2.664535E-15 0
v 0.290545 -2.664535E-15 1.084329
v 0.1773003 -2.664535E-15 0.6616937
v -0.290545 -2.664535E-15 1.084329
v -0.1773003 -2.664535E-15 0.6616937
v -0.7937837 -2.664535E-15 0.7937837
v -0.4843934 -2.664535E-15 0.4843934
v -1.084329 -2.664535E-15 0.290545
v -0.6616937 -2.664535E-15 0.1773003
v -1.084329 -2.664535E-15 -0.290545
v -0.6616937 -2.664535E-15 -0.1773003
v -0.7937837 -2.664535E-15 -0.7937837
v -0.4843934 -2.664535E-15 -0.4843934
v -0.290545 -2.664535E-15 -1.084329
v -0.1773003 -2.664535E-15 -0.6616937
v 0.290545 -2.664535E-15 -1.084329
v 0.1773003 -2.664535E-15 -0.6616937
v 0.7937837 -2.664535E-15 -0.7937837
v 0.4843934 -2.664535E-15 -0.4843934
v 1.084329 -2.664535E-15 -0.290545
v 0.6616937 -2.664535E-15 -0.1773003
v 1.084329 -2.664535E-15 0.290545
v 0.6616937 -2.664535E-15 0.1773003
v 0.7937837 -2.664535E-15 0.7937837
v 0.4843934 -2.664535E-15 0.4843934
vt 0.8665855 0.519605
vt 0.8537306 0.5203773
vt 0.8361702 0.5206599
vt 0.8186098 0.5203773
vt 0.8057547 0.519605
vt 0.8010495 0.5185502
vt 0.8057546 0.5174953
vt 0.8186098 0.516723
vt 0.8361702 0.5164404
vt 0.8537305 0.516723
vt 0.8665855 0.5174952
vt 0.8712907 0.5185502
vt 0.8361702 0.8752385
vt 0.8513778 0.6397828
vt 0.8449503 0.6409097
vt 0.8361702 0.6413222
vt 0.8273899 0.6409098
vt 0.8209624 0.6397829
vt 0.8186098 0.6382434
vt 0.8209624 0.6367041
vt 0.82739 0.6355772
vt 0.8361703 0.6351647
vt 0.8449503 0.6355772
vt 0.8513778 0.636704
vt 0.8537304 0.6382434
vt 0.8449503 0.5165817
vt 0.8405602 0.6353709
vt 0.8273899 0.5165817
vt 0.83178 0.635371
vt 0.8121824 0.5171092
vt 0.8241761 0.6361406
vt 0.803402 0.5180227
vt 0.8197861 0.6374738
vt 0.803402 0.5190776
vt 0.8197861 0.6390131
vt 0.8121823 0.5199912
vt 0.8241761 0.6403462
vt 0.82739 0.5205186
vt 0.8317801 0.641116
vt 0.8449503 0.5205186
vt 0.8405602 0.641116
vt 0.8601579 0.5199912
vt 0.8481641 0.6403463
vt 0.8689381 0.5190776
vt 0.8525541 0.6390131
vt 0.8689382 0.5180227
vt 0.8525541 0.6374738
vt 0.8601579 0.5171092
vt 0.8481641 0.6361406
vn 0 1 0
vn 0 1 0
vn 0 1 0
vn 0 1 0
vn 0 1 0
vn 0 1 0
vn 0 1 0
vn 0 1 0
vn 0 1 0
vn 0 1 0
vn 0 1 0
vn 0 1 0
vn 0 1 0
vn 0 1 0
vn 0 1 0
vn 0 1 0
vn 0 1 0
vn 0 1 0
vn 0 1 0
vn 0 1 0
vn 0 1 0
vn 0 1 0
vn 0 1 0
vn 0 1 0
vn 0 1 0
vn 0 1 0
vn 0 1 0
vn 0 1 0
vn 0 1 0
vn 0 1 0
vn 0 1 0
vn 0 1 0
vn 0 1 0
vn 0 1 0
vn 0 1 0
vn 0 1 0
vn 0 1 0
vn 0 1 0
vn 0 1 0
vn 0 1 0
vn 0 1 0
vn 0 1 0
vn 0 1 0
vn 0 1 0
vn 0 1 0
vn 0 1 0
vn 0 1 0
vn 0 1 0
vn 0 1 0
g legendary_rewardGlow_mesh_0
f 1/1/1 42/42/42 14/14/14
f 1/1/1 14/14/14 44/44/44
f 42/42/42 43/43/43 14/14/14
f 13/13/13 14/14/14 43/43/43
f 15/15/15 43/43/43 42/42/42
f 43/43/43 15/15/15 13/13/13
f 2/2/2 15/15/15 42/42/42
f 2/2/2 40/40/40 15/15/15
f 14/14/14 45/45/45 44/44/44
f 45/45/45 14/14/14 13/13/13
f 44/44/44 45/45/45 25/25/25
f 13/13/13 25/25/25 45/45/45
f 12/12/12 44/44/44 25/25/25
f 12/12/12 25/25/25 46/46/46
f 40/40/40 41/41/41 15/15/15
f 13/13/13 15/15/15 41/41/41
f 16/16/16 41/41/41 40/40/40
f 41/41/41 16/16/16 13/13/13
f 3/3/3 16/16/16 40/40/40
f 3/3/3 38/38/38 16/16/16
f 47/47/47 25/25/25 13/13/13
f 25/25/25 47/47/47 46/46/46
f 13/13/13 16/16/16 39/39/39
f 38/38/38 39/39/39 16/16/16
f 13/13/13 24/24/24 47/47/47
f 46/46/46 47/47/47 24/24/24
f 11/11/11 46/46/46 24/24/24
f 11/11/11 24/24/24 48/48/48
f 17/17/17 39/39/39 38/38/38
f 39/39/39 17/17/17 13/13/13
f 4/4/4 17/17/17 38/38/38
f 4/4/4 36/36/36 17/17/17
f 24/24/24 49/49/49 48/48/48
f 49/49/49 24/24/24 13/13/13
f 48/48/48 49/49/49 23/23/23
f 13/13/13 23/23/23 49/49/49
f 10/10/10 48/48/48 23/23/23
f 10/10/10 23/23/23 26/26/26
f 36/36/36 37/37/37 17/17/17
f 13/13/13 17/17/17 37/37/37
f 18/18/18 37/37/37 36/36/36
f 37/37/37 18/18/18 13/13/13
f 5/5/5 18/18/18 36/36/36
f 5/5/5 34/34/34 18/18/18
f 27/27/27 23/23/23 13/13/13
f 23/23/23 27/27/27 26/26/26
f 13/13/13 18/18/18 35/35/35
f 34/34/34 35/35/35 18/18/18
f 13/13/13 22/22/22 27/27/27
f 26/26/26 27/27/27 22/22/22
f 9/9/9 26/26/26 22/22/22
f 9/9/9 22/22/22 28/28/28
f 19/19/19 35/35/35 34/34/34
f 35/35/35 19/19/19 13/13/13
f 6/6/6 19/19/19 34/34/34
f 6/6/6 32/32/32 19/19/19
f 22/22/22 29/29/29 28/28/28
f 29/29/29 22/22/22 13/13/13
f 28/28/28 29/29/29 21/21/21
f 13/13/13 21/21/21 29/29/29
f 8/8/8 28/28/28 21/21/21
f 8/8/8 21/21/21 30/30/30
f 32/32/32 33/33/33 19/19/19
f 13/13/13 19/19/19 33/33/33
f 20/20/20 33/33/33 32/32/32
f 33/33/33 20/20/20 13/13/13
f 7/7/7 20/20/20 32/32/32
f 7/7/7 30/30/30 20/20/20
f 21/21/21 31/31/31 30/30/30
f 31/31/31 21/21/21 13/13/13
f 30/30/30 31/31/31 20/20/20
f 13/13/13 20/20/20 31/31/31
