g legendary_lightning2_2_mesh
v 0 1.238579 0.9283323
v 0 -0.5918463 -0.4297798
v 0 1.314531 0.7651217
v 0 -0.5497705 -0.4276913
v 0 -0.1834158 -0.1237545
v 0 -0.2046379 -0.03682209
v 0 0.3027078 -0.05241085
v 0 0.3406283 -0.1627229
v 0 -0.329389 -0.3328236
v 0 -0.2963732 -0.3897731
v 0 0.4251868 0.1269081
v 0 0.4666301 0.05415022
v 0 -0.04016387 -0.03572083
v 0 -0.0380243 -0.1002109
v 0 -0.2505659 -0.2136426
v 0 -0.2294008 -0.2405738
v 0 -0.3910517 -0.348298
v 0 -0.3866857 -0.3786672
v 0 1.268627 1.143607
v 0 0.3526736 0.2411314
v 0 1.467386 0.7165008
v -5.960464E-08 -0.870468 -0.4782383
v -1.192093E-07 -0.5359961 -0.5781124
v 0 0.5401589 -0.06098641
v 0 -0.1141332 -0.2645826
v 0 -0.1345013 -0.3163242
v -1.490116E-08 -0.2819947 0.1136687
v 0 -0.3464054 -0.1343079
v 0 0.2569059 0.1009195
v -7.450581E-09 -0.03849327 0.1152987
v 0 0.3881327 -0.3226531
v 7.450581E-09 -0.038149 -0.2522781
v -2.980232E-08 -0.3854936 -0.1934102
v 0 -0.4164442 -0.2011769
v 0 -0.2387074 -0.5484722
v 0 -0.3797115 -0.531132
v 0 0.4251868 0.1269081
v 0 1.238579 0.9283323
v 0 1.314531 0.7651217
v 0 1.268627 1.143607
v 0 -0.5497705 -0.4276913
v 0 1.314531 0.7651217
v 0 0.4666301 0.05415022
v 0 1.467386 0.7165008
v 0 -0.1834158 -0.1237545
v 0 -0.2294008 -0.2405738
v 0 -0.2505659 -0.2136426
v 0 -0.2046379 -0.03682209
v 0 -0.04016387 -0.03572083
v 0 0.3027078 -0.05241085
v 0 0.3406283 -0.1627229
v 0 -0.0380243 -0.1002109
v 0 -0.3910517 -0.348298
v 0 -0.329389 -0.3328236
v 0 -0.2963732 -0.3897731
v 0 -0.3866857 -0.3786672
v 0 0.3027078 -0.05241085
v 0 0.4251868 0.1269081
v 0 0.3526736 0.2411314
v 0 0.2569059 0.1009195
v 0 0.4666301 0.05415022
v 0 0.3406283 -0.1627229
v 0 0.3881327 -0.3226531
v 0 0.5401589 -0.06098641
v 0 -0.2046379 -0.03682209
v 0 -0.04016387 -0.03572083
v -7.450581E-09 -0.03849327 0.1152987
v -1.490116E-08 -0.2819947 0.1136687
v 0 -0.0380243 -0.1002109
v 0 -0.1834158 -0.1237545
v 0 -0.1141332 -0.2645826
v 7.450581E-09 -0.038149 -0.2522781
v 0 -0.329389 -0.3328236
v 0 -0.2505659 -0.2136426
v 0 -0.3464054 -0.1343079
v -2.980232E-08 -0.3854936 -0.1934102
v 0 -0.2294008 -0.2405738
v 0 -0.2963732 -0.3897731
v 0 -0.2387074 -0.5484722
v 0 -0.1345013 -0.3163242
v 0 -0.5918463 -0.4297798
v 0 -0.3910517 -0.348298
v 0 -0.4164442 -0.2011769
v -5.960464E-08 -0.870468 -0.4782383
v 0 -0.3866857 -0.3786672
v 0 -0.5497705 -0.4276913
v -1.192093E-07 -0.5359961 -0.5781124
v 0 -0.3797115 -0.531132
vt 0.8262863 0.9825473
vt 0.848345 0.9825473
vt 0.8262863 0.9870958
vt 0.848345 0.9870958
vt 0.8373156 0.9870958
vt 0.8373156 0.9825473
vt 0.8318009 0.9825473
vt 0.8318009 0.9870958
vt 0.8428302 0.9825473
vt 0.8428302 0.9870958
vt 0.8307231 0.9825473
vt 0.8307231 0.9870958
vt 0.8354027 0.9825473
vt 0.8354027 0.9870958
vt 0.8407187 0.9825473
vt 0.8407187 0.9870958
vt 0.8451293 0.9825473
vt 0.8451293 0.9870958
vt 0.848345 0.5291542
vt 0.8262863 0.5291542
vt 0.848345 0.5291542
vt 0.848345 0.5291542
vt 0.8262863 0.5291542
vt 0.848345 0.5291542
vt 0.8262863 0.5291542
vt 0.848345 0.5291542
vt 0.848345 0.5291542
vt 0.8262863 0.5291542
vt 0.848345 0.5291542
vt 0.8262863 0.5291542
vt 0.8262863 0.5291542
vt 0.848345 0.5291542
vt 0.848345 0.5291542
vt 0.8262863 0.5291542
vt 0.8262863 0.5291542
vt 0.848345 0.5291542
vt 0.8262863 0.9825473
vt 0.848345 0.9825473
vt 0.848345 0.9825473
vt 0.8262863 0.5291542
vt 0.8262863 0.9825473
vt 0.8262863 0.9825473
vt 0.848345 0.9825473
vt 0.8262863 0.5291542
vt 0.8262863 0.9825473
vt 0.848345 0.9825473
vt 0.8262863 0.9825473
vt 0.848345 0.9825473
vt 0.8262863 0.9825473
vt 0.848345 0.9825473
vt 0.8262863 0.9825473
vt 0.848345 0.9825473
vt 0.8262863 0.9825473
vt 0.848345 0.9825473
vt 0.8262863 0.9825473
vt 0.848345 0.9825473
vt 0.8262863 0.9825473
vt 0.848345 0.9825473
vt 0.848345 0.5291542
vt 0.8262863 0.5291542
vt 0.8262863 0.9825473
vt 0.848345 0.9825473
vt 0.848345 0.5291542
vt 0.8262863 0.5291542
vt 0.8262863 0.9825473
vt 0.848345 0.9825473
vt 0.848345 0.5291542
vt 0.8262863 0.5291542
vt 0.8262863 0.9825473
vt 0.848345 0.9825473
vt 0.848345 0.5291542
vt 0.8262863 0.5291542
vt 0.8262863 0.9825473
vt 0.848345 0.9825473
vt 0.848345 0.5291542
vt 0.8262863 0.5291542
vt 0.8262863 0.9825473
vt 0.848345 0.9825473
vt 0.848345 0.5291542
vt 0.8262863 0.5291542
vt 0.8262863 0.9825473
vt 0.848345 0.9825473
vt 0.848345 0.5291542
vt 0.8262863 0.5291542
vt 0.8262863 0.9825473
vt 0.848345 0.9825473
vt 0.848345 0.5291542
vt 0.8262863 0.5291542
vn -1 0 0
vn -1 0 0
vn -1 0 0
vn -1 0 0
vn -1 0 0
vn -1 0 0
vn -1 0 0
vn -1 0 0
vn -1 0 0
vn -1 0 0
vn -1 0 0
vn -1 0 0
vn -1 0 0
vn -1 0 0
vn -1 0 0
vn -1 0 0
vn -1 0 0
vn -1 0 0
vn -1 0 0
vn -1 0 0
vn -1 0 0
vn -1 0 0
vn -1 0 0
vn -1 0 0
vn -1 0 0
vn -1 0 0
vn -1 0 0
vn -1 0 0
vn -1 0 0
vn -1 0 0
vn -1 0 0
vn -1 0 0
vn -1 0 0
vn -1 0 0
vn -1 0 0
vn -1 0 0
vn -1 0 0
vn -1 0 0
vn -1 0 0
vn -1 0 0
vn -1 0 0
vn -1 0 0
vn -1 0 0
vn -1 0 0
vn -1 0 0
vn -1 0 0
vn -1 0 0
vn -1 0 0
vn -1 0 0
vn -1 0 0
vn -1 0 0
vn -1 0 0
vn -1 0 0
vn -1 0 0
vn -1 0 0
vn -1 0 0
vn -1 0 0
vn -1 0 0
vn -1 0 0
vn -1 0 0
vn -1 0 0
vn -1 0 0
vn -1 0 0
vn -1 0 0
vn -1 0 0
vn -1 0 0
vn -1 0 0
vn -1 0 0
vn -1 0 0
vn -1 0 0
vn -1 0 0
vn -1 0 0
vn -1 0 0
vn -1 0 0
vn -1 0 0
vn -1 0 0
vn -1 0 0
vn -1 0 0
vn -1 0 0
vn -1 0 0
vn -1 0 0
vn -1 0 0
vn -1 0 0
vn -1 0 0
vn -1 0 0
vn -1 0 0
vn -1 0 0
vn -1 0 0
g legendary_lightning2_2_mesh_0
f 3/3/3 12/12/12 1/1/1
f 12/12/12 11/11/11 1/1/1
f 12/12/12 8/8/8 11/11/11
f 8/8/8 7/7/7 11/11/11
f 8/8/8 14/14/14 7/7/7
f 14/14/14 13/13/13 7/7/7
f 14/14/14 5/5/5 13/13/13
f 5/5/5 6/6/6 13/13/13
f 5/5/5 16/16/16 6/6/6
f 16/16/16 15/15/15 6/6/6
f 16/16/16 10/10/10 15/15/15
f 10/10/10 9/9/9 15/15/15
f 10/10/10 18/18/18 9/9/9
f 18/18/18 17/17/17 9/9/9
f 18/18/18 4/4/4 17/17/17
f 4/4/4 2/2/2 17/17/17
f 22/22/22 2/2/2 41/41/41
f 23/23/23 22/22/22 41/41/41
f 19/19/19 38/38/38 37/37/37
f 20/20/20 19/19/19 37/37/37
f 21/21/21 39/39/39 1/1/1
f 40/40/40 21/21/21 1/1/1
f 24/24/24 43/43/43 42/42/42
f 44/44/44 24/24/24 42/42/42
f 26/26/26 46/46/46 45/45/45
f 25/25/25 26/26/26 45/45/45
f 27/27/27 48/48/48 47/47/47
f 28/28/28 27/27/27 47/47/47
f 29/29/29 50/50/50 49/49/49
f 30/30/30 29/29/29 49/49/49
f 32/32/32 52/52/52 51/51/51
f 31/31/31 32/32/32 51/51/51
f 33/33/33 54/54/54 53/53/53
f 34/34/34 33/33/33 53/53/53
f 36/36/36 56/56/56 55/55/55
f 35/35/35 36/36/36 55/55/55
f 59/59/59 58/58/58 57/57/57
f 60/60/60 59/59/59 57/57/57
f 63/63/63 62/62/62 61/61/61
f 64/64/64 63/63/63 61/61/61
f 67/67/67 66/66/66 65/65/65
f 68/68/68 67/67/67 65/65/65
f 71/71/71 70/70/70 69/69/69
f 72/72/72 71/71/71 69/69/69
f 75/75/75 74/74/74 73/73/73
f 76/76/76 75/75/75 73/73/73
f 79/79/79 78/78/78 77/77/77
f 80/80/80 79/79/79 77/77/77
f 83/83/83 82/82/82 81/81/81
f 84/84/84 83/83/83 81/81/81
f 87/87/87 86/86/86 85/85/85
f 88/88/88 87/87/87 85/85/85
