g legendary_lightning2_3_mesh
v 0.09967855 0 -0.874784
v 0.5626438 0 -0.1285281
v 0.03128482 0 -0.6768079
v 0.5280754 0 -0.1460528
v 0.3308163 0 -0.7406468
v 0.3280792 0 -0.4889603
v 0.1909245 0 -0.9259572
v 0.1983187 0 -1.017034
v 0.4385327 0 0.1986499
v 0.443391 0 -0.1705918
v 0.1653951 0 -1.09725
v 0.1740655 0 -1.353335
v 0.2713597 0 0.09950781
v 0.2828884 0 -0.3157277
v 0.4099832 0 -0.1480508
v 0.4105639 0 -0.3152556
v 0.4859165 0 -0.005884171
v 0.474092 0 -0.1854787
v 0.1168517 0 -0.3792119
v 0.1526106 -7.450581E-09 -0.5338488
v -0.1726282 1.610383E-15 0.01926875
v 0.7739198 -1.325302E-15 -0.1781539
v 0.5316317 0 -0.6666703
v 0.1922965 7.450581E-09 -2.022489
v 0.3227206 7.450581E-09 -1.38188
v 0.4355223 0 -0.7801723
v 0.3420006 -7.450581E-09 0.1383858
v 0.3753552 0 0.2772179
v 0.1649019 -7.450581E-09 -0.4650695
v 0.2670199 0 0.9163156
v 0.2395812 7.450581E-09 -1.366827
v 0.2816624 0 -1.017863
v 0.4219509 0 0.8430676
v 0.50205 -7.450581E-09 0.4973168
v 0.4541328 0 -0.6981583
v 0.4747975 7.450581E-09 -0.7081785
vt 0.8346331 0.9844121
vt 0.8454028 0.9847109
vt 0.8337952 0.9857891
vt 0.8454028 0.9859772
vt 0.8401051 0.9862357
vt 0.8401052 0.9844525
vt 0.8378721 0.98445
vt 0.8369506 0.9864407
vt 0.8423038 0.9844491
vt 0.8423038 0.9862391
vt 0.8370143 0.9844564
vt 0.8345197 0.986389
vt 0.839087 0.9844539
vt 0.839087 0.9862343
vt 0.8413211 0.9844573
vt 0.8413211 0.9862309
vt 0.8441039 0.9842272
vt 0.8441039 0.9864609
vt 0.830422 0.4775913
vt 0.8368443 0.4772613
vt 0.8245696 0.4796787
vt 0.8541452 0.478908
vt 0.8541452 0.4809504
vt 0.8259207 0.4818029
vt 0.8401449 0.4826031
vt 0.8412074 0.4825957
vt 0.8401449 0.4772553
vt 0.8412074 0.4772626
vt 0.8379062 0.4772516
vt 0.8390162 0.4772575
vt 0.833938 0.4827495
vt 0.8390162 0.4826009
vt 0.8422412 0.4772503
vt 0.8482696 0.4772915
vt 0.8422412 0.4826081
vt 0.8482696 0.482567
vn 0 -1 0
vn 0 -1 0
vn 0 -1 0
vn 0 -1 0
vn 0 -1 0
vn 0 -1 0
vn 0 -1 0
vn 0 -1 0
vn 0 -1 0
vn 0 -1 0
vn 0 -1 0
vn 0 -1 0
vn 0 -1 0
vn 0 -1 0
vn 0 -1 0
vn 0 -1 0
vn 0 -1 0
vn 0 -1 0
vn 0 -1 0
vn 0 -1 0
vn 0 -1 0
vn 0 -1 0
vn 0 -1 0
vn 0 -1 0
vn 0 -1 0
vn 0 -1 0
vn 0 -1 0
vn 0 -1 0
vn 0 -1 0
vn 0 -1 0
vn 0 -1 0
vn 0 -1 0
vn 0 -1 0
vn 0 -1 0
vn 0 -1 0
vn 0 -1 0
g legendary_lightning2_3_mesh_0
f 19/19/19 1/1/1 11/11/11
f 20/20/20 19/19/19 11/11/11
f 19/19/19 21/21/21 1/1/1
f 21/21/21 3/3/3 1/1/1
f 21/21/21 24/24/24 3/3/3
f 3/3/3 12/12/12 1/1/1
f 24/24/24 12/12/12 3/3/3
f 12/12/12 11/11/11 1/1/1
f 24/24/24 31/31/31 12/12/12
f 31/31/31 8/8/8 12/12/12
f 12/12/12 8/8/8 11/11/11
f 31/31/31 32/32/32 8/8/8
f 20/20/20 11/11/11 7/7/7
f 8/8/8 7/7/7 11/11/11
f 29/29/29 20/20/20 7/7/7
f 32/32/32 14/14/14 8/8/8
f 8/8/8 14/14/14 7/7/7
f 32/32/32 25/25/25 14/14/14
f 29/29/29 7/7/7 13/13/13
f 14/14/14 13/13/13 7/7/7
f 30/30/30 29/29/29 13/13/13
f 25/25/25 5/5/5 14/14/14
f 14/14/14 5/5/5 13/13/13
f 25/25/25 26/26/26 5/5/5
f 30/30/30 13/13/13 6/6/6
f 5/5/5 6/6/6 13/13/13
f 27/27/27 30/30/30 6/6/6
f 26/26/26 16/16/16 5/5/5
f 5/5/5 16/16/16 6/6/6
f 26/26/26 35/35/35 16/16/16
f 27/27/27 6/6/6 15/15/15
f 16/16/16 15/15/15 6/6/6
f 28/28/28 27/27/27 15/15/15
f 35/35/35 10/10/10 16/16/16
f 16/16/16 10/10/10 15/15/15
f 35/35/35 36/36/36 10/10/10
f 28/28/28 15/15/15 9/9/9
f 10/10/10 9/9/9 15/15/15
f 33/33/33 28/28/28 9/9/9
f 36/36/36 18/18/18 10/10/10
f 10/10/10 18/18/18 9/9/9
f 36/36/36 23/23/23 18/18/18
f 33/33/33 9/9/9 17/17/17
f 18/18/18 17/17/17 9/9/9
f 34/34/34 33/33/33 17/17/17
f 23/23/23 4/4/4 18/18/18
f 18/18/18 4/4/4 17/17/17
f 23/23/23 22/22/22 4/4/4
f 34/34/34 17/17/17 2/2/2
f 4/4/4 2/2/2 17/17/17
f 22/22/22 2/2/2 4/4/4
f 22/22/22 34/34/34 2/2/2
