g legendary_shockwave1_mesh
v 0.9036914 -0.3765681 0.2038098
v 0.727378 -0.6849288 0.04235303
v 0.4403279 -0.8890152 -0.1255515
v 0.08624199 -0.9577571 -0.274342
v -0.2809736 -0.8806893 -0.3813664
v -0.6054134 -0.6695443 -0.4303312
v -0.8376846 -0.3564674 -0.413782
v -0.9424258 0.01087858 -0.3342382
v -0.9036912 0.3765683 -0.2038096
v -0.7273778 0.684929 -0.04235291
v -0.4403277 0.8890153 0.1255516
v -0.08624166 0.9577571 0.2743421
v 0.2809739 0.880689 0.3813665
v 0.6054137 0.6695441 0.4303312
v 0.8376848 0.356467 0.4137819
v 0.9424258 -0.01087891 0.3342381
v 0.3215337 -0.133983 0.07251556
v 0.2588013 -0.2436979 0.01506925
v 0.1566688 -0.3163118 -0.04467127
v 0.03068493 -0.3407702 -0.09761098
v -0.09997048 -0.3133495 -0.1356903
v -0.2154063 -0.2382241 -0.153112
v -0.2980484 -0.1268312 -0.1472238
v -0.3353154 0.00387062 -0.1189221
v -0.3215336 0.1339832 -0.07251553
v -0.2588013 0.2436979 -0.01506919
v -0.1566688 0.316312 0.04467133
v -0.0306848 0.3407704 0.09761101
v 0.0999706 0.3133495 0.1356903
v 0.2154064 0.238224 0.153112
v 0.2980485 0.1268311 0.1472238
v 0.3353154 -0.003870712 0.118922
v 0.4658358 0.198231 0.2301038
v 0.3366701 0.3723329 0.2393069
v 0.1562494 0.4897505 0.2120776
v -0.04795891 0.5326079 0.1525614
v -0.2448659 0.4943807 0.06981915
v -0.4044942 0.3808885 -0.02355242
v -0.5025419 0.2094094 -0.1133384
v -0.5240822 0.006049587 -0.1858696
v -0.4658357 -0.1982312 -0.2301038
v -0.33667 -0.372333 -0.2393069
v -0.1562492 -0.4897505 -0.2120776
v 0.04795909 -0.5326079 -0.1525614
v 0.244866 -0.4943806 -0.06981909
v 0.4044943 -0.3808884 0.02355248
v 0.502542 -0.2094092 0.1133384
v 0.5240822 -0.006049738 0.1858695
vt 0.8230578 0.9945031
vt 0.8265818 0.9942901
vt 0.8318559 0.9941477
vt 0.8380768 0.9940978
vt 0.8442981 0.9941478
vt 0.8495721 0.9942902
vt 0.8530961 0.9945031
vt 0.8543336 0.9947548
vt 0.8530961 0.9950062
vt 0.8495721 0.9952195
vt 0.8442982 0.9953619
vt 0.8380769 0.995412
vt 0.8318557 0.9953621
vt 0.8265817 0.9952193
vt 0.8230578 0.9950062
vt 0.8218203 0.9947547
vt 0.8200349 0.5566776
vt 0.8252088 0.5564803
vt 0.8329518 0.5563484
vt 0.8420854 0.5563022
vt 0.8512191 0.5563484
vt 0.8589621 0.5564803
vt 0.8641359 0.5566776
vt 0.8659526 0.5569103
vt 0.8641358 0.5571431
vt 0.8589621 0.5573405
vt 0.851219 0.5574723
vt 0.8420853 0.5575186
vt 0.8329518 0.5574723
vt 0.8252087 0.5573405
vt 0.8200349 0.5571431
vt 0.8182182 0.5569103
vt 0.8189004 0.9190872
vt 0.8231454 0.9225913
vt 0.8294985 0.9249325
vt 0.8369927 0.9257548
vt 0.8444865 0.9249327
vt 0.8508398 0.9225913
vt 0.8550848 0.9190874
vt 0.8565754 0.9149538
vt 0.8550848 0.9108204
vt 0.8508398 0.9073163
vt 0.8444865 0.904975
vt 0.8369926 0.9041529
vt 0.8294986 0.9049749
vt 0.8231454 0.9073163
vt 0.8189003 0.9108205
vt 0.8174097 0.9149537
vn 0.3231035 0.2873724 -0.901677
vn 0.3231035 0.2873724 -0.9016768
vn 0.3231035 0.2873723 -0.901677
vn 0.3231035 0.2873723 -0.901677
vn 0.3231035 0.2873723 -0.901677
vn 0.3231035 0.2873724 -0.901677
vn 0.3231034 0.2873724 -0.901677
vn 0.3231034 0.2873724 -0.901677
vn 0.3231035 0.2873723 -0.901677
vn 0.3231035 0.2873723 -0.901677
vn 0.3231035 0.2873724 -0.901677
vn 0.3231035 0.2873724 -0.901677
vn 0.3231036 0.2873724 -0.9016768
vn 0.3231036 0.2873724 -0.9016768
vn 0.3231035 0.2873724 -0.901677
vn 0.3231035 0.2873724 -0.901677
vn 0.3231035 0.2873723 -0.901677
vn 0.3231036 0.2873724 -0.9016768
vn 0.3231036 0.2873723 -0.9016768
vn 0.3231035 0.2873724 -0.9016768
vn 0.3231034 0.2873725 -0.9016768
vn 0.3231035 0.2873725 -0.9016768
vn 0.3231036 0.2873724 -0.9016768
vn 0.3231035 0.2873723 -0.901677
vn 0.3231036 0.2873725 -0.9016768
vn 0.3231036 0.2873724 -0.9016768
vn 0.3231034 0.2873722 -0.901677
vn 0.3231034 0.2873722 -0.901677
vn 0.3231035 0.2873723 -0.901677
vn 0.3231035 0.2873723 -0.901677
vn 0.3231035 0.2873723 -0.901677
vn 0.3231035 0.2873723 -0.9016768
vn 0.3231035 0.2873724 -0.901677
vn 0.3231035 0.2873723 -0.9016768
vn 0.3231035 0.2873724 -0.9016768
vn 0.3231035 0.2873724 -0.9016768
vn 0.3231035 0.2873723 -0.901677
vn 0.3231035 0.2873724 -0.901677
vn 0.3231035 0.2873724 -0.901677
vn 0.3231033 0.2873724 -0.901677
vn 0.3231034 0.2873724 -0.901677
vn 0.3231035 0.2873724 -0.9016768
vn 0.3231035 0.2873723 -0.901677
vn 0.3231035 0.2873724 -0.901677
vn 0.3231035 0.2873724 -0.9016768
vn 0.3231035 0.2873724 -0.9016768
vn 0.3231035 0.2873724 -0.9016768
vn 0.3231035 0.2873724 -0.901677
g legendary_shockwave1_mesh_0
f 46/46/46 47/47/47 1/1/1
f 2/2/2 46/46/46 1/1/1
f 1/1/1 47/47/47 16/16/16
f 45/45/45 46/46/46 2/2/2
f 3/3/3 45/45/45 2/2/2
f 47/47/47 48/48/48 16/16/16
f 16/16/16 48/48/48 15/15/15
f 44/44/44 45/45/45 3/3/3
f 4/4/4 44/44/44 3/3/3
f 48/48/48 33/33/33 15/15/15
f 15/15/15 33/33/33 14/14/14
f 43/43/43 44/44/44 4/4/4
f 5/5/5 43/43/43 4/4/4
f 33/33/33 34/34/34 14/14/14
f 14/14/14 34/34/34 13/13/13
f 42/42/42 43/43/43 5/5/5
f 6/6/6 42/42/42 5/5/5
f 34/34/34 35/35/35 13/13/13
f 13/13/13 35/35/35 12/12/12
f 41/41/41 42/42/42 6/6/6
f 7/7/7 41/41/41 6/6/6
f 35/35/35 36/36/36 12/12/12
f 12/12/12 36/36/36 11/11/11
f 40/40/40 41/41/41 7/7/7
f 8/8/8 40/40/40 7/7/7
f 36/36/36 37/37/37 11/11/11
f 11/11/11 37/37/37 10/10/10
f 39/39/39 40/40/40 8/8/8
f 9/9/9 39/39/39 8/8/8
f 10/10/10 38/38/38 9/9/9
f 37/37/37 38/38/38 10/10/10
f 38/38/38 39/39/39 9/9/9
f 41/41/41 23/23/23 42/42/42
f 23/23/23 22/22/22 42/42/42
f 24/24/24 23/23/23 41/41/41
f 40/40/40 24/24/24 41/41/41
f 42/42/42 22/22/22 43/43/43
f 25/25/25 24/24/24 40/40/40
f 39/39/39 25/25/25 40/40/40
f 22/22/22 21/21/21 43/43/43
f 26/26/26 25/25/25 39/39/39
f 38/38/38 26/26/26 39/39/39
f 43/43/43 21/21/21 44/44/44
f 27/27/27 26/26/26 38/38/38
f 37/37/37 27/27/27 38/38/38
f 21/21/21 20/20/20 44/44/44
f 28/28/28 27/27/27 37/37/37
f 44/44/44 20/20/20 45/45/45
f 36/36/36 28/28/28 37/37/37
f 20/20/20 19/19/19 45/45/45
f 29/29/29 28/28/28 36/36/36
f 45/45/45 19/19/19 46/46/46
f 35/35/35 29/29/29 36/36/36
f 19/19/19 18/18/18 46/46/46
f 30/30/30 29/29/29 35/35/35
f 46/46/46 18/18/18 47/47/47
f 34/34/34 30/30/30 35/35/35
f 18/18/18 17/17/17 47/47/47
f 31/31/31 30/30/30 34/34/34
f 47/47/47 17/17/17 48/48/48
f 33/33/33 31/31/31 34/34/34
f 17/17/17 32/32/32 48/48/48
f 32/32/32 31/31/31 33/33/33
f 48/48/48 32/32/32 33/33/33
