g lightningShard01_mesh
v -1.320559 -0.2328267 -0.6490163
v -0.02007928 0.187992 -0.2143128
v 0.02007929 0.06595045 0.2143128
v 0.5893844 -0.1541844 -0.6490163
v -1.320559 -0.2328267 -0.6490163
v -0.02007928 -0.09598422 -0.2143128
v -0.02007928 0.187992 -0.2143128
v 0.5893844 -0.1541844 -0.6490163
v -1.320559 -0.2328267 -0.6490163
v 0.02007929 0.06595045 0.2143128
v -0.02007928 -0.09598422 -0.2143128
v 0.5893844 -0.1541844 -0.6490163
vt 0.3031529 0.4360673
vt 0.3065415 0.4379157
vt 0.3065415 0.4314463
vt 0.3099302 0.4360673
vt 0.3031529 0.4360673
vt 0.3065415 0.4422285
vt 0.3065415 0.4379157
vt 0.3099302 0.4360673
vt 0.3031529 0.4360673
vt 0.3065415 0.4465414
vt 0.3065415 0.4422285
vt 0.3099302 0.4360673
vn -0.3802274 0.8795452 0.2860548
vn -0.03477364 0.9603297 0.2766903
vn -0.08648057 0.9560077 0.2803042
vn 0.5735987 0.8004085 0.174157
vn 0.317022 0 -0.9484182
vn 0.002993851 0 -0.9999956
vn 0.02420112 0 -0.999707
vn -0.5806828 0 -0.8141299
vn -0.0203201 -0.9346412 0.355011
vn 0.02794594 -0.9359627 0.3509881
vn 0.0403579 -0.9359475 0.3498195
vn 0.1515419 -0.9292721 0.3368806
g lightningShard01_mesh_0
f 3/3/3 2/2/2 1/1/1
f 4/4/4 2/2/2 3/3/3
f 7/7/7 6/6/6 5/5/5
f 7/7/7 8/8/8 6/6/6
f 11/11/11 10/10/10 9/9/9
f 11/11/11 12/12/12 10/10/10
