g lightningShardsHighEnd01_mesh
v -1.320559 -0.2328267 -0.6490163
v 0.03391301 0.0481365 0.2058585
v 0.1992739 0.06732152 0.9188227
v -1.320559 -0.2328267 -0.6490163
v -2.497038 -0.3507087 -1.101742
v -1.320559 -0.2328267 -0.6490163
v 0.002973058 -0.07662531 -0.1243739
v -0.03858883 -0.6920136 -0.4484631
v -1.320559 -0.2328267 -0.6490163
v -2.497038 -0.3507087 -1.101742
v 0.03391301 0.0481365 0.2058585
v 0.5893845 -0.1541844 -0.6490163
v 1.240064 -0.2817173 -1.163338
v 0.03391301 0.0481365 0.2058585
v 1.240064 -0.2817173 -1.163338
v 0.1992739 0.06732152 0.9188227
v 0.03391301 0.0481365 0.2058585
v 0.002973058 0.1421629 -0.1243739
v -0.02964596 0.6687101 -0.5638558
v 0.03391301 0.0481365 0.2058585
v -0.02964596 0.6687101 -0.5638558
v 0.1992739 0.06732152 0.9188227
v 0.002973058 -0.07662531 -0.1243739
v 0.03391301 0.0481365 0.2058585
v 0.1992739 0.06732152 0.9188227
v 0.002973058 -0.07662531 -0.1243739
v -0.03858883 -0.6920136 -0.4484631
v -1.320559 -0.2328267 -0.6490163
v 0.002973058 0.1421629 -0.1243739
v 0.03391301 0.0481365 0.2058585
v -1.320559 -0.2328267 -0.6490163
v 0.002973058 -0.07662531 -0.1243739
v 0.002973058 0.1421629 -0.1243739
v -1.320559 -0.2328267 -0.6490163
v 0.03391301 0.0481365 0.2058585
v 0.002973058 -0.07662531 -0.1243739
v 0.03391301 0.0481365 0.2058585
v 0.002973058 0.1421629 -0.1243739
v 0.5893845 -0.1541844 -0.6490163
v 0.002973058 -0.07662531 -0.1243739
v 0.5893845 -0.1541844 -0.6490163
v 0.002973058 0.1421629 -0.1243739
v 0.03391301 0.0481365 0.2058585
v 0.5893845 -0.1541844 -0.6490163
v 0.002973058 -0.07662531 -0.1243739
v -1.320559 -0.2328267 -0.6490163
v -2.497038 -0.3507087 -1.101742
v 0.1992739 0.06732152 0.9188227
v -1.320559 -0.2328267 -0.6490163
v 0.03391301 0.0481365 0.2058585
v -1.320559 -0.2328267 -0.6490163
v -2.497038 -0.3507087 -1.101742
v -0.03858883 -0.6920136 -0.4484631
v -1.320559 -0.2328267 -0.6490163
v 0.002973058 -0.07662531 -0.1243739
v 0.03391301 0.0481365 0.2058585
v 0.1992739 0.06732152 0.9188227
v 1.240064 -0.2817173 -1.163338
v 0.03391301 0.0481365 0.2058585
v 1.240064 -0.2817173 -1.163338
v 0.5893845 -0.1541844 -0.6490163
v 0.03391301 0.0481365 0.2058585
v 0.1992739 0.06732152 0.9188227
v -0.02964596 0.6687101 -0.5638558
v 0.03391301 0.0481365 0.2058585
v -0.02964596 0.6687101 -0.5638558
v 0.002973058 0.1421629 -0.1243739
v 0.002973058 -0.07662531 -0.1243739
v -0.03858883 -0.6920136 -0.4484631
v 0.1992739 0.06732152 0.9188227
v 0.002973058 -0.07662531 -0.1243739
v 0.03391301 0.0481365 0.2058585
v -1.320559 -0.2328267 -0.6490163
v 0.002973058 0.1421629 -0.1243739
v -0.02964596 0.6687101 -0.5638558
v -2.497038 -0.3507087 -1.101742
v 0.002973058 0.1421629 -0.1243739
v 0.5893845 -0.1541844 -0.6490163
v 1.240064 -0.2817173 -1.163338
v -0.02964596 0.6687101 -0.5638558
v 0.002973058 -0.07662531 -0.1243739
v 0.5893845 -0.1541844 -0.6490163
v 1.240064 -0.2817173 -1.163338
v -0.03858883 -0.6920136 -0.4484631
v 0.002973058 0.1421629 -0.1243739
v 0.002973058 -0.07662531 -0.1243739
v -0.03858883 -0.6920136 -0.4484631
v -0.02964596 0.6687101 -0.5638558
v -1.320559 -0.2328267 -0.6490163
v -2.497038 -0.3507087 -1.101742
v -0.02964596 0.6687101 -0.5638558
v 0.002973058 0.1421629 -0.1243739
v 0.002973058 0.1421629 -0.1243739
v -0.02964596 0.6687101 -0.5638558
v 1.240064 -0.2817173 -1.163338
v 0.5893845 -0.1541844 -0.6490163
v 0.002973058 -0.07662531 -0.1243739
v -0.03858883 -0.6920136 -0.4484631
v 1.240064 -0.2817173 -1.163338
v 0.5893845 -0.1541844 -0.6490163
v 0.002973058 0.1421629 -0.1243739
v -0.02964596 0.6687101 -0.5638558
v -0.03858883 -0.6920136 -0.4484631
v 0.002973058 -0.07662531 -0.1243739
vt 0.3638212 0.1487295
vt 0.4624387 0.1487295
vt 0.4624387 0.4910083
vt 0.3638212 0.1487295
vt 0.3638212 0.4910083
vt 0.3638212 0.1487295
vt 0.4562751 0.1487295
vt 0.4562751 0.4910083
vt 0.3638212 0.1487295
vt 0.3638212 0.4910083
vt 0.4624387 0.1487295
vt 0.3652898 0.1487295
vt 0.3652898 0.4910083
vt 0.4624387 0.1487295
vt 0.3652898 0.4910083
vt 0.4624387 0.4910083
vt 0.4624387 0.1487295
vt 0.4562751 0.1487295
vt 0.4562751 0.4910083
vt 0.4624387 0.1487295
vt 0.4562751 0.4910083
vt 0.4624387 0.4910083
vt 0.4562751 0.1487295
vt 0.4624387 0.1487295
vt 0.4624387 0.4910083
vt 0.4562751 0.1487295
vt 0.4562751 0.4910083
vt 0.3935837 0.03832577
vt 0.3969723 0.04954557
vt 0.3969723 0.01027618
vt 0.3935837 0.03832577
vt 0.3969723 0.07572518
vt 0.3969723 0.04954557
vt 0.3935837 0.03832577
vt 0.3969723 0.1019047
vt 0.3969723 0.07572518
vt 0.3969723 0.01027618
vt 0.3969723 0.04954557
vt 0.400361 0.03832577
vt 0.3969723 0.07572518
vt 0.400361 0.03832577
vt 0.3969723 0.04954557
vt 0.3969723 0.1019047
vt 0.400361 0.03832577
vt 0.3969723 0.07572518
vt 0.3638212 0.1487295
vt 0.3638212 0.4910083
vt 0.4624387 0.4910083
vt 0.3638212 0.1487295
vt 0.4624387 0.1487295
vt 0.3638212 0.1487295
vt 0.3638212 0.4910083
vt 0.4562751 0.4910083
vt 0.3638212 0.1487295
vt 0.4562751 0.1487295
vt 0.4624387 0.1487295
vt 0.4624387 0.4910083
vt 0.3652898 0.4910083
vt 0.4624387 0.1487295
vt 0.3652898 0.4910083
vt 0.3652898 0.1487295
vt 0.4624387 0.1487295
vt 0.4624387 0.4910083
vt 0.4562751 0.4910083
vt 0.4624387 0.1487295
vt 0.4562751 0.4910083
vt 0.4562751 0.1487295
vt 0.4562751 0.1487295
vt 0.4562751 0.4910083
vt 0.4624387 0.4910083
vt 0.4562751 0.1487295
vt 0.4624387 0.1487295
vt 0.3638212 0.1487295
vt 0.4562751 0.1487295
vt 0.4562751 0.4910083
vt 0.3638212 0.4910083
vt 0.4562751 0.1487295
vt 0.3652898 0.1487295
vt 0.3652898 0.4910083
vt 0.4562751 0.4910083
vt 0.4562751 0.1487295
vt 0.3652898 0.1487295
vt 0.3652898 0.4910083
vt 0.4562751 0.4910083
vt 0.4562751 0.1487295
vt 0.4562751 0.1487295
vt 0.4562751 0.4910083
vt 0.4562751 0.4910083
vt 0.3638212 0.1487295
vt 0.3638212 0.4910083
vt 0.4562751 0.4910083
vt 0.4562751 0.1487295
vt 0.4562751 0.1487295
vt 0.4562751 0.4910083
vt 0.3652898 0.4910083
vt 0.3652898 0.1487295
vt 0.4562751 0.1487295
vt 0.4562751 0.4910083
vt 0.3652898 0.4910083
vt 0.3652898 0.1487295
vt 0.4562751 0.1487295
vt 0.4562751 0.4910083
vt 0.4562751 0.4910083
vt 0.4562751 0.1487295
vn -0.1164065 0.9902334 -0.0767288
vn -0.1164065 0.9902334 -0.07672879
vn -0.1164065 0.9902334 -0.07672879
vn -0.1164065 0.9902334 -0.0767288
vn -0.1164065 0.9902334 -0.07672879
vn -0.2876694 -0.4291781 0.8561848
vn -0.2876694 -0.4291781 0.8561848
vn -0.2876694 -0.4291781 0.8561848
vn -0.2876694 -0.4291781 0.8561848
vn -0.2876694 -0.4291781 0.8561848
vn 0.1549096 0.982823 -0.1003096
vn 0.1549096 0.982823 -0.1003096
vn 0.1549096 0.9828231 -0.1003096
vn 0.1549096 0.982823 -0.1003096
vn 0.1549096 0.9828231 -0.1003096
vn 0.1549096 0.9828231 -0.1003096
vn -0.9712554 0.1396362 0.1927813
vn -0.9712554 0.1396362 0.1927813
vn -0.9712554 0.1396362 0.1927813
vn -0.9712554 0.1396362 0.1927813
vn -0.9712554 0.1396362 0.1927813
vn -0.9712554 0.1396362 0.1927813
vn -0.9779336 -0.07617969 0.1945319
vn -0.9779336 -0.07617969 0.1945319
vn -0.9779336 -0.07617969 0.1945319
vn -0.9779336 -0.07617969 0.1945319
vn -0.9779336 -0.07617969 0.1945319
vn -0.3645742 0.8860256 0.2864338
vn -0.3645743 0.8860256 0.2864338
vn -0.3645742 0.8860256 0.2864337
vn 0.3685004 0 -0.9296276
vn 0.3685004 0 -0.9296276
vn 0.3685004 0 -0.9296276
vn -0.03079045 -0.9340646 0.3557743
vn -0.03079045 -0.9340646 0.3557743
vn -0.03079045 -0.9340645 0.3557743
vn 0.5651663 0.8058743 0.1765037
vn 0.5651664 0.8058743 0.1765037
vn 0.5651664 0.8058743 0.1765036
vn -0.6667655 0 -0.7452676
vn -0.6667656 0 -0.7452676
vn -0.6667655 0 -0.7452676
vn 0.1758273 -0.9262251 0.3334544
vn 0.1758273 -0.9262251 0.3334544
vn 0.1758273 -0.926225 0.3334544
vn 0.1164065 -0.9902334 0.07672877
vn 0.1164065 -0.9902334 0.07672877
vn 0.1164065 -0.9902334 0.07672877
vn 0.1164065 -0.9902334 0.07672877
vn 0.1164065 -0.9902334 0.07672877
vn 0.2876694 0.4291781 -0.8561848
vn 0.2876694 0.4291781 -0.8561848
vn 0.2876694 0.4291781 -0.8561848
vn 0.2876694 0.4291781 -0.8561848
vn 0.2876694 0.4291781 -0.8561848
vn -0.1549096 -0.9828231 0.1003096
vn -0.1549096 -0.9828231 0.1003096
vn -0.1549096 -0.9828231 0.1003096
vn -0.1549096 -0.9828231 0.1003096
vn -0.1549096 -0.9828231 0.1003096
vn -0.1549096 -0.982823 0.1003095
vn 0.9712554 -0.1396362 -0.1927813
vn 0.9712554 -0.1396362 -0.1927813
vn 0.9712554 -0.1396362 -0.1927813
vn 0.9712554 -0.1396362 -0.1927813
vn 0.9712554 -0.1396362 -0.1927813
vn 0.9712554 -0.1396362 -0.1927813
vn 0.9779336 0.07617968 -0.1945319
vn 0.9779336 0.07617968 -0.1945319
vn 0.9779336 0.07617967 -0.1945319
vn 0.9779336 0.07617968 -0.1945319
vn 0.9779336 0.07617968 -0.1945319
vn 0.3991123 -0.4988165 -0.7693449
vn 0.3991123 -0.4988164 -0.7693449
vn 0.3991123 -0.4988165 -0.7693449
vn 0.3991123 -0.4988165 -0.7693449
vn -0.6618593 -0.4346865 -0.6107289
vn -0.6618593 -0.4346865 -0.6107289
vn -0.6618593 -0.4346865 -0.6107289
vn -0.6618593 -0.4346865 -0.610729
vn 0.5584447 -0.3763872 0.7392375
vn 0.5584447 -0.3763872 0.7392376
vn 0.5584447 -0.3763872 0.7392376
vn 0.5584447 -0.3763872 0.7392376
vn -0.9953752 0.01259312 0.09523547
vn -0.9953752 0.01259312 0.09523547
vn -0.9953752 0.01259312 0.09523547
vn -0.9953752 0.01259312 0.09523547
vn -0.3991123 0.4988165 0.7693448
vn -0.3991123 0.4988165 0.7693448
vn -0.3991123 0.4988165 0.7693448
vn -0.3991123 0.4988165 0.7693448
vn 0.6618593 0.4346864 0.610729
vn 0.6618593 0.4346864 0.610729
vn 0.6618593 0.4346864 0.610729
vn 0.6618593 0.4346864 0.610729
vn -0.5584447 0.3763872 -0.7392376
vn -0.5584447 0.3763872 -0.7392376
vn -0.5584447 0.3763872 -0.7392376
vn -0.5584447 0.3763872 -0.7392376
vn 0.9953752 -0.01259312 -0.09523547
vn 0.9953752 -0.01259312 -0.09523547
vn 0.9953752 -0.01259312 -0.09523547
vn 0.9953752 -0.01259312 -0.09523547
g lightningShardsHighEnd01_mesh_0
f 3/3/3 2/2/2 1/1/1
f 5/5/5 3/3/3 4/4/4
f 8/8/8 7/7/7 6/6/6
f 10/10/10 8/8/8 9/9/9
f 13/13/13 12/12/12 11/11/11
f 16/16/16 15/15/15 14/14/14
f 19/19/19 18/18/18 17/17/17
f 22/22/22 21/21/21 20/20/20
f 25/25/25 24/24/24 23/23/23
f 27/27/27 25/25/25 26/26/26
f 30/30/30 29/29/29 28/28/28
f 33/33/33 32/32/32 31/31/31
f 36/36/36 35/35/35 34/34/34
f 39/39/39 38/38/38 37/37/37
f 42/42/42 41/41/41 40/40/40
f 45/45/45 44/44/44 43/43/43
f 48/48/48 47/47/47 46/46/46
f 50/50/50 48/48/48 49/49/49
f 53/53/53 52/52/52 51/51/51
f 55/55/55 53/53/53 54/54/54
f 58/58/58 57/57/57 56/56/56
f 61/61/61 60/60/60 59/59/59
f 64/64/64 63/63/63 62/62/62
f 67/67/67 66/66/66 65/65/65
f 70/70/70 69/69/69 68/68/68
f 72/72/72 70/70/70 71/71/71
f 75/75/75 74/74/74 73/73/73
f 76/76/76 75/75/75 73/73/73
f 79/79/79 78/78/78 77/77/77
f 80/80/80 79/79/79 77/77/77
f 83/83/83 82/82/82 81/81/81
f 84/84/84 83/83/83 81/81/81
f 87/87/87 86/86/86 85/85/85
f 88/88/88 87/87/87 85/85/85
f 91/91/91 90/90/90 89/89/89
f 92/92/92 91/91/91 89/89/89
f 95/95/95 94/94/94 93/93/93
f 96/96/96 95/95/95 93/93/93
f 99/99/99 98/98/98 97/97/97
f 100/100/100 99/99/99 97/97/97
f 103/103/103 102/102/102 101/101/101
f 104/104/104 103/103/103 101/101/101
