g lightningShard03_mesh
v -1.485486 0.4804623 -0.5193561
v -0.2324697 0.345254 -0.7162879
v -0.3518919 0.2279606 -0.5325506
v 0.02609514 -0.2166794 0.3495267
v 0.2413303 -0.07713836 -0.1212278
v 1.314205 0.4313576 -0.1665416
v -1.485486 0.4804623 -0.5193561
v -0.2957455 0.1770183 -0.7073515
v -0.2324697 0.345254 -0.7162879
v 0.2413303 -0.07713836 -0.1212278
v 0.2413303 -0.4080673 -0.1212276
v 1.314205 0.4313576 -0.1665416
v -1.485486 0.4804623 -0.5193561
v -0.3518919 0.2279606 -0.5325506
v -0.2957455 0.1770183 -0.7073515
v 0.2413303 -0.4080673 -0.1212276
v 0.02609514 -0.2166794 0.3495267
v 1.314205 0.4313576 -0.1665416
vt 0.3068286 0.4291945
vt 0.3068466 0.4333768
vt 0.3084677 0.4333199
vt 0.3096813 0.4361717
vt 0.3069504 0.4361717
vt 0.3070368 0.443149
vt 0.3068286 0.4291945
vt 0.3057409 0.4334154
vt 0.3068466 0.4333768
vt 0.3069504 0.4361717
vt 0.3051299 0.4361717
vt 0.3070368 0.443149
vt 0.3068286 0.4291945
vt 0.3047001 0.4333199
vt 0.3057409 0.4334154
vt 0.3051299 0.4361717
vt 0.3033093 0.4361717
vt 0.3070368 0.443149
vn 0.1791238 0.7723208 0.609455
vn 0.1657126 0.8583443 0.4855763
vn 0.165357 0.8601037 0.4825751
vn -0.1163682 0.9520453 0.2829635
vn -0.1296049 0.9526713 0.2749908
vn -0.4246017 0.9024035 0.07335698
vn -0.1546583 0.005691139 -0.9879516
vn 0.4827451 -0.07549016 -0.8725012
vn 0.4449692 -0.07087436 -0.8927369
vn 0.4012319 -0.06094341 -0.9139468
vn 0.4012064 -0.06093994 -0.9139583
vn -0.04219813 0 -0.9991092
vn -0.2101977 -0.9546829 0.210707
vn -0.6327548 -0.7742602 0.01193306
vn -0.6417781 -0.7668616 0.006637384
vn -0.09201647 -0.9354095 0.3413822
vn -0.1192716 -0.93659 0.3295049
vn 0.5408975 -0.663415 0.5170208
g lightningShard03_mesh_0
f 3/3/3 2/2/2 1/1/1
f 3/3/3 4/4/4 2/2/2
f 4/4/4 5/5/5 2/2/2
f 6/6/6 5/5/5 4/4/4
f 9/9/9 8/8/8 7/7/7
f 9/9/9 10/10/10 8/8/8
f 10/10/10 11/11/11 8/8/8
f 10/10/10 12/12/12 11/11/11
f 15/15/15 14/14/14 13/13/13
f 15/15/15 16/16/16 14/14/14
f 16/16/16 17/17/17 14/14/14
f 16/16/16 18/18/18 17/17/17
