g lowerjaw
v 2.140295 -0.03493771 -0.5014192
v 2.125048 -0.02472868 -0.3663217
v 2.054678 0.169582 -0.3470365
v 1.715334 -0.01930758 -0.2945858
v 2.054678 0.169582 -0.3470365
v 2.125048 -0.02472868 -0.3663217
v 1.719965 0.4058793 -0.2502953
v 2.054678 0.169582 -0.3470365
v 1.715334 -0.01930758 -0.2945858
v 2.054678 -0.2140121 -0.3180486
v 2.125048 -0.02472868 -0.3663217
v 2.140295 -0.03493771 -0.5014192
v 1.715334 -0.01930758 -0.2945858
v 2.125048 -0.02472868 -0.3663217
v 2.054678 -0.2140121 -0.3180486
v 1.719965 -0.4331763 -0.1868902
v 1.715334 -0.01930758 -0.2945858
v 2.054678 -0.2140121 -0.3180486
v 2.054678 -0.2140121 -0.3180486
v 1.970906 -0.1645967 -0.5774299
v 1.704989 -0.420232 -0.4659978
v 2.003165 -0.04185399 -0.5929433
v 1.970906 -0.1645967 -0.5774299
v 2.140295 -0.03493771 -0.5014192
v 2.140295 -0.03493771 -0.5014192
v 2.054678 0.169582 -0.3470365
v 1.970906 0.08177528 -0.5960475
v 1.970906 -0.1645967 -0.5774299
v 2.054678 -0.2140121 -0.3180486
v 2.140295 -0.03493771 -0.5014192
v 2.003165 -0.04185399 -0.5929433
v 2.140295 -0.03493771 -0.5014192
v 1.970906 0.08177528 -0.5960475
v 2.054678 0.169582 -0.3470365
v 1.704989 0.3511515 -0.5242902
v 1.970906 0.08177528 -0.5960475
v 0.4436 0.3864837 0.2043332
v 0.607529 0.3429962 -0.4670917
v 0.2766135 0.3532268 -0.331709
v 0.70797 0.3885047 0.04820193
v 0.8176807 0.3511572 -0.5419704
v 0.5078872 0.3563842 -0.4728013
v 0.9417194 0.3766124 -0.0548688
v 1.008854 0.3537584 -0.4160119
v 0.7765964 0.3501038 -0.4848448
v 1.119494 0.3857994 -0.07106458
v 1.171179 0.368205 -0.3490959
v 0.9681895 0.3615097 -0.4650508
v 1.332667 0.3779288 -0.05514966
v 1.379414 0.3400431 -0.3145458
v 1.232445 0.3917666 -0.3318077
v 1.556643 0.2816078 -0.0278536
v 1.59825 0.2319118 -0.2791549
v 1.462004 0.309179 -0.3050114
v 1.69524 0.1299782 -0.03354417
v 1.717398 0.04069102 -0.3055812
v 1.630963 0.1581741 -0.3205038
v 0.4436 -0.3456596 0.2596596
v 0.2766135 -0.3933384 -0.2752925
v 0.607529 -0.4035689 -0.4106752
v 0.70797 -0.3711261 0.1056055
v 0.5078872 -0.4176682 -0.4143077
v 0.8176807 -0.4228952 -0.4834768
v 0.9417194 -0.3748564 0.001918687
v 0.7765964 -0.4132669 -0.427159
v 1.008854 -0.4065354 -0.3585578
v 1.119494 -0.386377 -0.01271211
v 0.9681895 -0.4215726 -0.4058753
v 1.171179 -0.4107656 -0.2902304
v 1.332667 -0.3762007 0.001838101
v 1.232445 -0.4314702 -0.2695976
v 1.379414 -0.3777194 -0.2603055
v 1.556643 -0.2768336 0.01434745
v 1.462004 -0.345761 -0.2555195
v 1.59825 -0.265455 -0.2415696
v 1.69524 -0.1277228 -0.01407109
v 1.630963 -0.1987412 -0.293532
v 1.717398 -0.08030412 -0.2964374
v 0.2012389 0.2737371 0.06302442
v 0.2256549 0.01005832 0.09401836
v 0.008396455 0.03008381 0.297161
v 0.2012389 -0.2553896 0.1030101
v 0.008396455 0.03008381 0.297161
v 0.2256549 0.01005832 0.09401836
v 0.009195634 -0.02432874 -0.3610297
v 0.6848014 -0.05021432 -0.7035776
v 0.6322864 0.5183344 -0.7437612
v 1.211018 -0.04134485 -0.586207
v 1.213847 0.4941904 -0.5932385
v 1.685604 -0.03524014 -0.5054218
v 1.685604 -0.03524014 -0.5054218
v 1.704989 0.3511515 -0.5242902
v 1.970906 0.08177528 -0.5960475
v 0.6322864 -0.6186069 -0.6578456
v 0.009195634 -0.02432874 -0.3610297
v 1.211018 -0.04134485 -0.586207
v 1.213847 -0.5720651 -0.5126635
v 1.685604 -0.03524014 -0.5054218
v 1.704989 -0.420232 -0.4659978
v 1.685604 -0.03524014 -0.5054218
v 1.970906 -0.1645967 -0.5774299
v 0.2068466 0.4534543 -0.4571296
v 0.2012389 0.2737371 0.06302442
v 0.008396455 0.03008381 0.297161
v 0.009195634 -0.02432874 -0.3610297
v 0.6322864 0.5183344 -0.7437612
v 2.003165 -0.04185399 -0.5929433
v 1.970906 0.08177528 -0.5960475
v 1.685604 -0.03524014 -0.5054218
v 1.970906 -0.1645967 -0.5774299
v 0.6322864 0.5183344 -0.7437612
v 0.2882999 0.5651067 -0.3769981
v 0.2068466 0.4534543 -0.4571296
v 0.2012389 0.2737371 0.06302442
v 0.3558314 0.4586763 -0.2917186
v 0.6427997 0.5744268 -0.5317489
v 0.2012389 0.2737371 0.06302442
v 0.3558314 0.4586763 -0.2917186
v 0.3558314 -0.01637819 -0.2558194
v 0.2256549 0.01005832 0.09401836
v 0.6427997 0.5744268 -0.5317489
v 1.228239 0.5539383 -0.3229147
v 1.224747 -0.02251372 -0.3370115
v 0.6784099 -0.036751 -0.5254151
v 0.3558314 0.4586763 -0.2917186
v 0.6427997 0.5744268 -0.5317489
v 0.6784099 -0.036751 -0.5254151
v 0.3558314 -0.01637819 -0.2558194
v 0.3558314 -0.4916202 -0.2199069
v 0.6427997 -0.642217 -0.439809
v 1.228239 0.5539383 -0.3229147
v 1.719965 0.4058793 -0.2502953
v 1.715334 -0.01930758 -0.2945858
v 1.224747 -0.02251372 -0.3370115
v 2.054678 0.169582 -0.3470365
v 1.719965 0.4058793 -0.2502953
v 1.704989 0.3511515 -0.5242902
v 1.213847 0.4941904 -0.5932385
v 1.228239 0.5539383 -0.3229147
v 0.6427997 0.5744268 -0.5317489
v 0.6322864 0.5183344 -0.7437612
v 0.2882999 0.5651067 -0.3769981
v 0.2068466 -0.5113178 -0.3842241
v 0.6322864 -0.6186069 -0.6578456
v 0.009195634 -0.02432874 -0.3610297
v 0.008396455 0.03008381 0.297161
v 0.2012389 -0.2553896 0.1030101
v 0.6322864 -0.6186069 -0.6578456
v 0.2068466 -0.5113178 -0.3842241
v 0.2882999 -0.609701 -0.2882205
v 0.2012389 -0.2553896 0.1030101
v 0.3558314 -0.4916202 -0.2199069
v 0.6427997 -0.642217 -0.439809
v 0.2012389 -0.2553896 0.1030101
v 0.2256549 0.01005832 0.09401836
v 0.3558314 -0.01637819 -0.2558194
v 0.3558314 -0.4916202 -0.2199069
v 0.6427997 -0.642217 -0.439809
v 0.6784099 -0.036751 -0.5254151
v 1.224747 -0.02251372 -0.3370115
v 1.228239 -0.5905262 -0.2364298
v 1.228239 -0.5905262 -0.2364298
v 1.224747 -0.02251372 -0.3370115
v 1.715334 -0.01930758 -0.2945858
v 1.719965 -0.4331763 -0.1868902
v 2.054678 -0.2140121 -0.3180486
v 1.704989 -0.420232 -0.4659978
v 1.719965 -0.4331763 -0.1868902
v 1.228239 -0.5905262 -0.2364298
v 1.213847 -0.5720651 -0.5126635
v 0.6427997 -0.642217 -0.439809
v 0.6322864 -0.6186069 -0.6578456
v 0.2882999 -0.609701 -0.2882205
v 0.607529 0.3429962 -0.4670917
v 0.4436 0.3864837 0.2043332
v 0.4189685 0.5022935 -0.3828994
v 0.2766135 0.3532268 -0.331709
v 0.8176807 0.3511572 -0.5419704
v 0.70797 0.3885047 0.04820193
v 0.6471484 0.5045307 -0.5361701
v 0.5078872 0.3563842 -0.4728013
v 0.896992 0.4619416 -0.484635
v 1.008854 0.3537584 -0.4160119
v 0.9417194 0.3766124 -0.0548688
v 0.7765964 0.3501038 -0.4848448
v 1.085266 0.4510915 -0.399912
v 1.171179 0.368205 -0.3490959
v 1.119494 0.3857994 -0.07106458
v 0.9681895 0.3615097 -0.4650508
v 1.32354 0.4339262 -0.3304254
v 1.379414 0.3400431 -0.3145458
v 1.332667 0.3779288 -0.05514966
v 1.232445 0.3917666 -0.3318077
v 1.557392 0.3317105 -0.2941548
v 1.59825 0.2319118 -0.2791549
v 1.556643 0.2816078 -0.0278536
v 1.462004 0.309179 -0.3050114
v 1.712817 0.141261 -0.3231713
v 1.717398 0.04069102 -0.3055812
v 1.69524 0.1299782 -0.03354417
v 1.630963 0.1581741 -0.3205038
v 0.607529 -0.4035689 -0.4106752
v 0.4189685 -0.5484639 -0.3034965
v 0.4436 -0.3456596 0.2596596
v 0.2766135 -0.3933384 -0.2752925
v 0.8176807 -0.4228952 -0.4834768
v 0.6471484 -0.5737141 -0.4546891
v 0.70797 -0.3711261 0.1056055
v 0.5078872 -0.4176682 -0.4143077
v 0.896992 -0.5238463 -0.4101416
v 0.9417194 -0.3748564 0.001918687
v 1.008854 -0.4065354 -0.3585578
v 0.7765964 -0.4132669 -0.427159
v 1.085266 -0.5003809 -0.3280116
v 1.119494 -0.386377 -0.01271211
v 1.171179 -0.4107656 -0.2902304
v 0.9681895 -0.4215726 -0.4058753
v 1.32354 -0.4729595 -0.2618943
v 1.332667 -0.3762007 0.001838101
v 1.379414 -0.3777194 -0.2603055
v 1.232445 -0.4314702 -0.2695976
v 1.557392 -0.3664134 -0.2413994
v 1.556643 -0.2768336 0.01434745
v 1.59825 -0.265455 -0.2415696
v 1.462004 -0.345761 -0.2555195
v 1.712817 -0.1824147 -0.2987124
v 1.69524 -0.1277228 -0.01407109
v 1.717398 -0.08030412 -0.2964374
v 1.630963 -0.1987412 -0.293532
vt 0.4884373 0.8810254
vt 0.4835238 0.8810254
vt 0.4835238 0.8586318
vt 0.09106559 0.1943988
vt 0.1107704 0.1522639
vt 0.1139067 0.1455796
vt 0.1067765 0.1607759
vt 0.1107704 0.1522639
vt 0.09106559 0.1943988
vt 0.4835238 0.8586318
vt 0.4835238 0.8810254
vt 0.4884373 0.8810254
vt 0.09106559 0.1943988
vt 0.1139067 0.1455796
vt 0.1107704 0.1522639
vt 0.1067765 0.1607759
vt 0.09106559 0.1943988
vt 0.1107704 0.1522639
vt 0.4835238 0.8586318
vt 0.4941961 0.8655127
vt 0.4941961 0.830115
vt 0.4941961 0.8810254
vt 0.4941961 0.8655127
vt 0.4884373 0.8810254
vt 0.4884373 0.8810254
vt 0.4835238 0.8586318
vt 0.4941961 0.8655127
vt 0.4941961 0.8655127
vt 0.4835238 0.8586318
vt 0.4884373 0.8810254
vt 0.4941961 0.8810254
vt 0.4884373 0.8810254
vt 0.4941961 0.8655127
vt 0.4835238 0.8586318
vt 0.4941961 0.830115
vt 0.4941961 0.8655127
vt 0.5198069 0.3315715
vt 0.5179513 0.327261
vt 0.5221004 0.3275679
vt 0.5198069 0.3315715
vt 0.5179513 0.327261
vt 0.5221004 0.3275679
vt 0.5198069 0.3315715
vt 0.5184441 0.3284059
vt 0.5221004 0.3275679
vt 0.5198069 0.3315715
vt 0.5187476 0.3291109
vt 0.5219084 0.327903
vt 0.5198069 0.3315715
vt 0.518744 0.3291027
vt 0.5213684 0.3288458
vt 0.5198069 0.3315715
vt 0.5187724 0.3291684
vt 0.5213634 0.3288545
vt 0.5198069 0.3315715
vt 0.5188426 0.3293315
vt 0.521124 0.3292724
vt 0.5198069 0.3315715
vt 0.5221004 0.3275679
vt 0.5179513 0.327261
vt 0.5198069 0.3315715
vt 0.5221004 0.3275679
vt 0.5179513 0.327261
vt 0.5198069 0.3315715
vt 0.5221004 0.3275679
vt 0.5184441 0.3284059
vt 0.5198069 0.3315715
vt 0.5219084 0.327903
vt 0.5187476 0.3291109
vt 0.5198069 0.3315715
vt 0.5213684 0.3288458
vt 0.518744 0.3291027
vt 0.5198069 0.3315715
vt 0.5213634 0.3288545
vt 0.5187724 0.3291684
vt 0.5198069 0.3315715
vt 0.521124 0.3292724
vt 0.5188426 0.3293315
vt 0.1019742 0.1491047
vt 0.08842648 0.1878047
vt 0.08820282 0.1877824
vt 0.1019742 0.1491047
vt 0.08820282 0.1877824
vt 0.08842648 0.1878047
vt 0.9624729 0.9196808
vt 0.9624729 0.920495
vt 0.9624729 0.9354429
vt 0.9624729 0.9290047
vt 0.9624729 0.951505
vt 0.9624729 0.9418958
vt 0.9624729 0.9418958
vt 0.9624729 0.9657249
vt 0.9624729 0.9742074
vt 0.9624729 0.9354429
vt 0.9624729 0.9196808
vt 0.9624729 0.9290047
vt 0.9624729 0.951505
vt 0.9624729 0.9418958
vt 0.9624729 0.9657249
vt 0.9624729 0.9418958
vt 0.9624729 0.9742074
vt 0.9624729 0.9203575
vt 0.9624729 0.9222327
vt 0.9551951 0.9168758
vt 0.9624729 0.9196808
vt 0.9624729 0.9354429
vt 0.9624729 0.9779247
vt 0.9624729 0.9742074
vt 0.9624729 0.9418958
vt 0.9624729 0.9742074
vt 0.4941961 0.7300861
vt 0.4882072 0.6468504
vt 0.494196 0.6468504
vt 0.4941544 0.5903928
vt 0.4835238 0.6468504
vt 0.4835238 0.7300861
vt 0.1019742 0.1491047
vt 0.1091865 0.1499171
vt 0.09244055 0.1882037
vt 0.08842648 0.1878047
vt 0.11346 0.1526202
vt 0.1086034 0.1568848
vt 0.09210783 0.1921788
vt 0.09487861 0.1897458
vt 0.1091865 0.1499171
vt 0.11346 0.1526202
vt 0.09487861 0.1897458
vt 0.09244055 0.1882037
vt 0.1091865 0.1499171
vt 0.11346 0.1526202
vt 0.1086034 0.1568848
vt 0.1067765 0.1607759
vt 0.09106559 0.1943988
vt 0.09210783 0.1921788
vt 0.4835238 0.8586318
vt 0.4835238 0.830115
vt 0.4941961 0.830115
vt 0.494196 0.7791673
vt 0.4835238 0.7791673
vt 0.4835238 0.7300861
vt 0.4941961 0.7300861
vt 0.4882072 0.6468504
vt 0.9624729 0.9203575
vt 0.9624729 0.9354429
vt 0.9624729 0.9196808
vt 0.9551951 0.9168758
vt 0.9624729 0.9222327
vt 0.4941961 0.7300861
vt 0.494196 0.6468504
vt 0.4882072 0.6468504
vt 0.4941544 0.5903928
vt 0.4835238 0.6468504
vt 0.4835238 0.7300861
vt 0.1019742 0.1491047
vt 0.08842648 0.1878047
vt 0.09244055 0.1882037
vt 0.1091865 0.1499171
vt 0.11346 0.1526202
vt 0.09487861 0.1897458
vt 0.09210783 0.1921788
vt 0.1086034 0.1568848
vt 0.1086034 0.1568848
vt 0.09210783 0.1921788
vt 0.09106559 0.1943988
vt 0.1067765 0.1607759
vt 0.4835238 0.8586318
vt 0.4941961 0.830115
vt 0.4835238 0.830115
vt 0.4835238 0.7791673
vt 0.494196 0.7791673
vt 0.4835238 0.7300861
vt 0.4941961 0.7300861
vt 0.4882072 0.6468504
vt 0.5181934 0.3270555
vt 0.5189815 0.3452376
vt 0.5738559 0.3270555
vt 0.5181934 0.3270555
vt 0.5181934 0.3270555
vt 0.5189815 0.3452376
vt 0.5738559 0.3270555
vt 0.5181934 0.3270555
vt 0.5738559 0.3270555
vt 0.5181934 0.3270555
vt 0.5189815 0.3452376
vt 0.5181934 0.3270555
vt 0.5738559 0.3270555
vt 0.5181934 0.3270555
vt 0.5189815 0.3452376
vt 0.5181934 0.3270555
vt 0.5738559 0.3270555
vt 0.5181934 0.3270555
vt 0.5189815 0.3452376
vt 0.5181934 0.3270555
vt 0.5738559 0.3270555
vt 0.5181934 0.3270555
vt 0.5189815 0.3452376
vt 0.5181934 0.3270555
vt 0.5738559 0.3270555
vt 0.5181934 0.3270555
vt 0.5189815 0.3452376
vt 0.5181934 0.3270555
vt 0.5181934 0.3270555
vt 0.5738559 0.3270555
vt 0.5189815 0.3452376
vt 0.5181934 0.3270555
vt 0.5181934 0.3270555
vt 0.5738559 0.3270555
vt 0.5189815 0.3452376
vt 0.5181934 0.3270555
vt 0.5738559 0.3270555
vt 0.5189815 0.3452376
vt 0.5181934 0.3270555
vt 0.5181934 0.3270555
vt 0.5738559 0.3270555
vt 0.5189815 0.3452376
vt 0.5181934 0.3270555
vt 0.5181934 0.3270555
vt 0.5738559 0.3270555
vt 0.5189815 0.3452376
vt 0.5181934 0.3270555
vt 0.5181934 0.3270555
vt 0.5738559 0.3270555
vt 0.5189815 0.3452376
vt 0.5181934 0.3270555
vt 0.5181934 0.3270555
vt 0.5738559 0.3270555
vt 0.5189815 0.3452376
vt 0.5181934 0.3270555
vt 0.5181934 0.3270555
vn 0.9396985 0.3322867 0.08094627
vn 0.9396985 0.3322867 0.08094628
vn 0.9396985 0.3322867 0.08094627
vn 0.1718975 -0.03545193 0.9844767
vn 0.1718975 -0.03545192 0.9844767
vn 0.1718975 -0.03545193 0.9844767
vn 0.2079941 -0.1035815 0.9726301
vn 0.2079941 -0.1035815 0.9726301
vn 0.2079941 -0.1035815 0.9726301
vn 0.9397411 -0.3162242 0.129958
vn 0.9397411 -0.3162242 0.129958
vn 0.9397411 -0.3162241 0.129958
vn 0.1719019 0.1829543 0.967976
vn 0.1719019 0.1829543 0.967976
vn 0.1719019 0.1829543 0.967976
vn 0.2079921 0.2485018 0.9460371
vn 0.2079922 0.2485018 0.9460371
vn 0.2079921 0.2485018 0.9460371
vn 0.5791061 -0.7458608 -0.3291318
vn 0.579106 -0.7458608 -0.3291318
vn 0.5791061 -0.7458608 -0.3291318
vn 0.5467451 -0.2448994 -0.8006836
vn 0.5467451 -0.2448994 -0.8006835
vn 0.5467451 -0.2448994 -0.8006835
vn 0.662972 0.6076457 -0.4373041
vn 0.662972 0.6076457 -0.4373042
vn 0.6629719 0.6076457 -0.4373041
vn 0.6630855 -0.6663108 -0.3410975
vn 0.6630856 -0.6663108 -0.3410975
vn 0.6630856 -0.6663108 -0.3410975
vn 0.5467344 0.1218725 -0.8283891
vn 0.5467344 0.1218725 -0.8283891
vn 0.5467344 0.1218725 -0.8283891
vn 0.5789905 0.6880674 -0.4374166
vn 0.5789905 0.6880674 -0.4374166
vn 0.5789905 0.6880674 -0.4374166
vn -0.004898116 -0.9979735 0.06344198
vn -0.004898116 -0.9979735 0.06344198
vn -0.004898116 -0.9979735 0.06344198
vn -0.002856213 -0.9980329 0.06262734
vn -0.002856213 -0.9980329 0.06262734
vn -0.002856213 -0.9980329 0.06262734
vn -0.002856403 -0.998033 0.06262638
vn -0.002856403 -0.998033 0.06262638
vn -0.002856403 -0.998033 0.06262638
vn -0.002856717 -0.9980329 0.06262822
vn -0.002856717 -0.9980329 0.06262822
vn -0.002856717 -0.9980329 0.06262822
vn -0.3389301 -0.9377468 0.07587776
vn -0.3389302 -0.9377468 0.07587776
vn -0.3389302 -0.9377468 0.07587776
vn -0.5038331 -0.8594548 0.08654336
vn -0.5038331 -0.8594548 0.08654336
vn -0.5038331 -0.8594548 0.08654336
vn -0.8067312 -0.5777767 0.1239312
vn -0.8067312 -0.5777767 0.1239312
vn -0.8067312 -0.5777767 0.1239312
vn -0.00490049 0.9961738 -0.0872563
vn -0.00490049 0.9961738 -0.08725631
vn -0.004900491 0.9961738 -0.08725632
vn -0.002856891 0.99611 -0.08807191
vn -0.002856891 0.99611 -0.08807193
vn -0.002856892 0.99611 -0.08807192
vn -0.002856746 0.9961101 -0.08807077
vn -0.002856746 0.9961101 -0.08807078
vn -0.002856746 0.9961101 -0.08807078
vn -0.002858617 0.9961099 -0.08807255
vn -0.002858617 0.9961099 -0.08807257
vn -0.002858617 0.9961099 -0.08807255
vn -0.339047 0.9384587 -0.06589762
vn -0.339047 0.9384587 -0.06589762
vn -0.339047 0.9384587 -0.06589761
vn -0.5039809 0.8626145 -0.04358327
vn -0.5039809 0.8626145 -0.04358327
vn -0.5039809 0.8626145 -0.04358327
vn -0.8068371 0.5896934 0.03571744
vn -0.8068371 0.5896932 0.03571744
vn -0.8068371 0.5896933 0.03571744
vn 0.6827357 0.1473451 0.7156545
vn 0.6827357 0.1473451 0.7156545
vn 0.6827357 0.1473451 0.7156545
vn 0.680625 -0.0378275 0.7316546
vn 0.680625 -0.0378275 0.7316546
vn 0.680625 -0.0378275 0.7316547
vn -0.4529247 -0.1044168 -0.8854131
vn -0.02916569 -0.06267143 -0.9976079
vn 0.03640172 0.2490922 -0.9677954
vn 0.215591 -0.02609446 -0.9761351
vn 0.2621881 0.4819146 -0.8360717
vn 0.1679657 -0.01382973 -0.9856959
vn -0.06814397 -0.04524922 -0.9966488
vn 0.2864535 0.6591976 -0.6952718
vn -0.2905953 -0.03211919 -0.9563069
vn 0.0364464 -0.3916138 -0.9194075
vn -0.4529279 -0.02984301 -0.8910475
vn 0.2155931 -0.1208738 -0.9689732
vn 0.2622397 -0.601925 -0.7542656
vn 0.1679645 -0.1344322 -0.9765837
vn 0.2865236 -0.7560616 -0.5884515
vn -0.06815881 -0.1050294 -0.9921306
vn -0.2905964 -0.1119442 -0.9502748
vn -0.7994092 0.3396969 -0.4955309
vn -0.6296849 0.7363316 0.247614
vn -0.8882595 0.4587259 0.02377992
vn -0.921676 0.3459646 -0.1755617
vn -0.5683445 0.1880486 -0.8010132
vn -0.2663425 -0.09358399 -0.9593247
vn -0.2663425 -0.093584 -0.9593247
vn -0.2663425 -0.09358399 -0.9593247
vn -0.2663454 -0.05164914 -0.9624929
vn -0.5683445 0.1880486 -0.8010132
vn -0.4781314 0.8699768 0.1205445
vn -0.7994092 0.3396969 -0.4955309
vn -0.5672336 0.7338809 0.3737175
vn 0.3627933 0.711948 0.6012579
vn 0.2699364 0.7005723 0.6605549
vn 0.9199546 0.06541116 0.3865294
vn 0.9199545 0.06541117 0.3865294
vn 0.9199545 0.06541117 0.3865294
vn 0.9199545 0.06541117 0.3865294
vn -0.331216 -0.01512479 0.9434337
vn -0.331216 -0.01512479 0.9434337
vn -0.331216 -0.01512479 0.9434337
vn -0.331216 -0.01512479 0.9434337
vn 0.6359069 0.0507875 0.7700929
vn 0.6359069 0.0507875 0.7700929
vn 0.6359069 0.05078751 0.7700929
vn 0.6359069 0.0507875 0.7700929
vn 0.6359059 0.06551517 0.7689808
vn 0.6359059 0.06551518 0.7689808
vn -0.1243831 -0.05673549 0.9906109
vn -0.1243831 -0.05673549 0.9906109
vn -0.1243831 -0.05673549 0.9906109
vn -0.1243831 -0.05673549 0.9906109
vn 0.5277271 0.8269581 -0.194022
vn 0.3650727 0.9073659 -0.2083485
vn 0.2864535 0.6591976 -0.6952718
vn 0.2621881 0.4819146 -0.8360717
vn 0.2256801 0.9482231 -0.2234761
vn 0.05786731 0.9688461 -0.2408082
vn 0.03640172 0.2490922 -0.9677954
vn -0.1331931 0.9597369 -0.2473149
vn -0.7998689 -0.4103234 -0.4380004
vn -0.5683718 -0.3062018 -0.7636713
vn -0.9222423 -0.3687719 -0.1160876
vn -0.8890366 -0.4475172 0.09665533
vn -0.6503464 -0.6755633 0.3473668
vn -0.5683718 -0.3062018 -0.7636713
vn -0.7998689 -0.4103234 -0.4380004
vn -0.4782529 -0.8418929 0.2499808
vn -0.5673808 -0.6692272 0.4798062
vn 0.3628351 -0.6133585 0.7015284
vn 0.2699237 -0.5931825 0.7584693
vn 0.9199554 -0.006568021 0.391968
vn 0.9199554 -0.00656802 0.391968
vn 0.9199554 -0.00656802 0.391968
vn 0.9199554 -0.00656802 0.391968
vn -0.3312183 0.1566935 0.9304523
vn -0.3312183 0.1566935 0.9304523
vn -0.3312182 0.1566935 0.9304523
vn -0.3312183 0.1566935 0.9304523
vn -0.1243814 0.204907 0.9708462
vn -0.1243814 0.204907 0.9708462
vn -0.1243814 0.204907 0.9708462
vn -0.1243814 0.204907 0.9708462
vn 0.5278728 -0.8466297 -0.06758948
vn 0.2865236 -0.7560616 -0.5884515
vn 0.3651909 -0.9283215 -0.06967595
vn 0.2257842 -0.9710094 -0.07849902
vn 0.2622397 -0.601925 -0.7542656
vn 0.05791759 -0.9940229 -0.09254194
vn 0.0364464 -0.3916138 -0.9194075
vn -0.1333423 -0.9859779 -0.1003367
vn 0.6707582 0.7324973 0.116323
vn 0.1284109 0.9739891 0.1866973
vn 0.2545679 0.9507517 0.1768229
vn -0.6832376 0.710426 0.168764
vn 0.6681554 0.739987 0.07737987
vn 0.08357764 0.9790474 0.1856911
vn 0.1215733 0.9759186 0.1811151
vn -0.6654164 0.7159114 0.2114042
vn -0.2665452 0.9396935 0.2143124
vn 0.6681793 0.7399649 0.07738327
vn -0.05015946 0.978609 0.1995205
vn -0.6653924 0.7159372 0.2113928
vn -0.3948866 0.8924198 0.2182921
vn 0.6681427 0.7399985 0.07737831
vn -0.1265203 0.9703734 0.2058354
vn -0.6654196 0.7159081 0.2114059
vn 0.2179109 0.9577681 0.1876035
vn 0.8509167 0.5195566 0.0774708
vn 0.3684534 0.9133002 0.1735656
vn -0.4144123 0.8890424 0.1945921
vn 0.3627948 0.9156153 0.1732879
vn 0.9187857 0.3874711 0.07549069
vn 0.5310313 0.8324686 0.1581192
vn -0.2453878 0.9528357 0.1785751
vn 0.7785941 0.623437 0.07153674
vn 0.9964443 0.0563186 0.06266524
vn 0.8445932 0.5305557 0.07192382
vn 0.2036653 0.97774 0.05044789
vn 0.6708942 -0.7065613 0.2251046
vn 0.2546452 -0.9133323 0.3177733
vn 0.1284501 -0.9348345 0.3310362
vn -0.6833637 -0.6768569 0.2736399
vn 0.6682967 -0.7198195 0.1877218
vn 0.1216142 -0.9375826 0.3258049
vn 0.08360358 -0.9399898 0.3308015
vn -0.6655354 -0.6758768 0.3166278
vn -0.2666189 -0.8967586 0.3531834
vn -0.05018942 -0.9374757 0.3444128
vn 0.6683043 -0.7198125 0.1877216
vn -0.6655304 -0.6758845 0.316622
vn -0.394988 -0.8494017 0.3500017
vn -0.1265732 -0.9283788 0.3494168
vn 0.6682823 -0.7198336 0.1877186
vn -0.6655418 -0.6758693 0.3166303
vn 0.2179776 -0.9186548 0.3294832
vn 0.3686501 -0.8767459 0.3088911
vn 0.8509963 -0.5018812 0.1546625
vn -0.4145326 -0.8496181 0.3260552
vn 0.3628933 -0.8791109 0.3089862
vn 0.5312769 -0.7990812 0.2814501
vn 0.9188353 -0.3716042 0.1328608
vn -0.2454685 -0.9151308 0.3198138
vn 0.7787042 -0.6054628 0.164422
vn 0.8447538 -0.5134618 0.1508244
vn 0.9964454 -0.0462328 0.07042092
vn 0.2037391 -0.9590317 0.196847
g lowerjaw_0
f 3/3/3 2/2/2 1/1/1
f 6/6/6 5/5/5 4/4/4
f 9/9/9 8/8/8 7/7/7
f 12/12/12 11/11/11 10/10/10
f 15/15/15 14/14/14 13/13/13
f 18/18/18 17/17/17 16/16/16
f 21/21/21 20/20/20 19/19/19
f 24/24/24 23/23/23 22/22/22
f 27/27/27 26/26/26 25/25/25
f 30/30/30 29/29/29 28/28/28
f 33/33/33 32/32/32 31/31/31
f 36/36/36 35/35/35 34/34/34
f 39/39/39 38/38/38 37/37/37
f 42/42/42 41/41/41 40/40/40
f 45/45/45 44/44/44 43/43/43
f 48/48/48 47/47/47 46/46/46
f 51/51/51 50/50/50 49/49/49
f 54/54/54 53/53/53 52/52/52
f 57/57/57 56/56/56 55/55/55
f 60/60/60 59/59/59 58/58/58
f 63/63/63 62/62/62 61/61/61
f 66/66/66 65/65/65 64/64/64
f 69/69/69 68/68/68 67/67/67
f 72/72/72 71/71/71 70/70/70
f 75/75/75 74/74/74 73/73/73
f 78/78/78 77/77/77 76/76/76
f 81/81/81 80/80/80 79/79/79
f 84/84/84 83/83/83 82/82/82
f 87/87/87 86/86/86 85/85/85
f 88/88/88 86/86/86 87/87/87
f 89/89/89 88/88/88 87/87/87
f 90/90/90 88/88/88 89/89/89
f 92/92/92 91/91/91 89/89/89
f 92/92/92 93/93/93 91/91/91
f 95/95/95 86/86/86 94/94/94
f 86/86/86 96/96/96 94/94/94
f 96/96/96 97/97/97 94/94/94
f 96/96/96 98/98/98 97/97/97
f 100/100/100 99/99/99 97/97/97
f 101/101/101 99/99/99 100/100/100
f 104/104/104 103/103/103 102/102/102
f 104/104/104 102/102/102 105/105/105
f 106/106/106 105/105/105 102/102/102
f 109/109/109 108/108/108 107/107/107
f 110/110/110 109/109/109 107/107/107
f 113/113/113 112/112/112 111/111/111
f 112/112/112 113/113/113 114/114/114
f 115/115/115 112/112/112 114/114/114
f 112/112/112 115/115/115 116/116/116
f 119/119/119 118/118/118 117/117/117
f 120/120/120 119/119/119 117/117/117
f 123/123/123 122/122/122 121/121/121
f 124/124/124 123/123/123 121/121/121
f 127/127/127 126/126/126 125/125/125
f 128/128/128 127/127/127 125/125/125
f 127/127/127 128/128/128 129/129/129
f 130/130/130 127/127/127 129/129/129
f 133/133/133 132/132/132 131/131/131
f 134/134/134 133/133/133 131/131/131
f 137/137/137 136/136/136 135/135/135
f 137/137/137 138/138/138 136/136/136
f 138/138/138 139/139/139 136/136/136
f 140/140/140 139/139/139 138/138/138
f 141/141/141 140/140/140 138/138/138
f 142/142/142 140/140/140 141/141/141
f 145/145/145 144/144/144 143/143/143
f 143/143/143 146/146/146 145/145/145
f 147/147/147 146/146/146 143/143/143
f 150/150/150 149/149/149 148/148/148
f 149/149/149 150/150/150 151/151/151
f 150/150/150 152/152/152 151/151/151
f 152/152/152 150/150/150 153/153/153
f 156/156/156 155/155/155 154/154/154
f 157/157/157 156/156/156 154/154/154
f 160/160/160 159/159/159 158/158/158
f 161/161/161 160/160/160 158/158/158
f 164/164/164 163/163/163 162/162/162
f 165/165/165 164/164/164 162/162/162
f 168/168/168 167/167/167 166/166/166
f 168/168/168 169/169/169 167/167/167
f 169/169/169 170/170/170 167/167/167
f 169/169/169 171/171/171 170/170/170
f 171/171/171 172/172/172 170/170/170
f 173/173/173 172/172/172 171/171/171
f 176/176/176 175/175/175 174/174/174
f 177/177/177 175/175/175 176/176/176
f 180/180/180 179/179/179 178/178/178
f 181/181/181 179/179/179 180/180/180
f 184/184/184 183/183/183 182/182/182
f 184/184/184 182/182/182 185/185/185
f 188/188/188 187/187/187 186/186/186
f 188/188/188 186/186/186 189/189/189
f 192/192/192 191/191/191 190/190/190
f 192/192/192 190/190/190 193/193/193
f 196/196/196 195/195/195 194/194/194
f 196/196/196 194/194/194 197/197/197
f 200/200/200 199/199/199 198/198/198
f 200/200/200 198/198/198 201/201/201
f 204/204/204 203/203/203 202/202/202
f 204/204/204 205/205/205 203/203/203
f 208/208/208 207/207/207 206/206/206
f 208/208/208 209/209/209 207/207/207
f 212/212/212 211/211/211 210/210/210
f 210/210/210 211/211/211 213/213/213
f 216/216/216 215/215/215 214/214/214
f 214/214/214 215/215/215 217/217/217
f 220/220/220 219/219/219 218/218/218
f 218/218/218 219/219/219 221/221/221
f 224/224/224 223/223/223 222/222/222
f 222/222/222 223/223/223 225/225/225
f 228/228/228 227/227/227 226/226/226
f 226/226/226 227/227/227 229/229/229
