g mage_tier1_head
v -0.003645182 1.504749 -0.00467211
v -0.003645182 1.504749 0.007955134
v 0.007290363 1.504749 0.001641518
v 1.953737E-14 1.513167 0.001641518
v -0.003645182 1.504749 -0.00467211
v -0.003645182 1.504749 0.007955134
v -0.003645182 1.504749 0.007955134
v 1.953737E-14 1.513167 0.001641518
v 0.007290363 1.504749 0.001641518
v 0.007290363 1.504749 0.001641518
v 1.953737E-14 1.513167 0.001641518
v -0.003645182 1.504749 -0.00467211
vt 1 0.5
vt 0.3333333 0.5
vt 0.6666667 0.5
vt 0.1666667 1
vt 0 0.5
vt 0.3333333 0.5
vt 0.3333333 0.5
vt 0.5 1
vt 0.6666667 0.5
vt 0.6666667 0.5
vt 0.8333334 1
vt 1 0.5
vn 0 -1 0
vn 0 -1 0
vn 0 -1 0
vn -0.9176632 0.3973591 0
vn -0.9176632 0.3973591 0
vn -0.9176632 0.3973591 0
vn 0.4588305 0.3973581 0.7947207
vn 0.4588305 0.3973581 0.7947207
vn 0.4588305 0.3973581 0.7947207
vn 0.458831 0.3973586 -0.7947202
vn 0.458831 0.3973586 -0.7947202
vn 0.458831 0.3973586 -0.7947202
g mage_tier1_head_0
f 1/1/1 3/3/3 2/2/2
f 6/6/6 4/4/4 5/5/5
f 9/9/9 8/8/8 7/7/7
f 12/12/12 11/11/11 10/10/10
