g mage_library_orbs
v 0.4308355 0.04455531 0.2568215
v 0.450919 0.07516241 0.2377546
v 0.4396968 0.1100078 0.2186878
v 0.4037432 0.1286795 0.21079
v 0.3641189 0.12024 0.2186878
v 0.3440357 0.08963287 0.2377546
v 0.3552575 0.05478752 0.2568215
v 0.3912114 0.03611577 0.2647192
v 0.4320882 0.05380821 0.2729941
v 0.4521717 0.0844152 0.2539272
v 0.4409495 0.1192605 0.2348604
v 0.4049959 0.1379323 0.2269626
v 0.3653716 0.1294928 0.2348604
v 0.3452883 0.09888566 0.2539272
v 0.3565102 0.0640403 0.2729941
v 0.3924641 0.04536855 0.2808918
v 0.4209225 0.07990313 0.2860571
v 0.4333347 0.09881926 0.2742731
v 0.4263991 0.1203549 0.2624891
v 0.4041785 0.1318947 0.257608
v 0.3796894 0.1266787 0.2624891
v 0.367277 0.1077626 0.2742731
v 0.3742128 0.08622694 0.2860571
v 0.3964334 0.07468712 0.2909381
v 0.3974374 0.08210301 0.2372398
v 0.4008925 0.1076227 0.2818444
v 0.4057902 0.1437993 0.2178651
v 0.4481949 0.1217775 0.2271799
v 0.4614303 0.08068013 0.2496678
v 0.4377436 0.04458141 0.2721556
v 0.3910099 0.03462756 0.2814704
v 0.3486053 0.05664945 0.2721556
v 0.3353696 0.09774685 0.2496678
v 0.3590566 0.1338456 0.2271799
v 0.3800179 -0.3307986 -0.03813374
v 0.3956707 -0.3329179 0
v 0.3800179 -0.3307986 0.03813374
v 0.3422291 -0.3256826 0.05392924
v 0.30444 -0.3205665 0.03813374
v 0.2887874 -0.3184474 0
v 0.30444 -0.3205665 -0.03813374
v 0.3422291 -0.3256826 -0.05392924
v 0.3775125 -0.3493042 -0.03813374
v 0.3931653 -0.3514235 0
v 0.3775126 -0.3493042 0.03813374
v 0.3397237 -0.3441885 0.05392924
v 0.3019345 -0.3390721 0.03813374
v 0.286282 -0.3369529 0
v 0.3019346 -0.3390721 -0.03813374
v 0.3397237 -0.3441885 -0.05392924
v 0.3599266 -0.3706311 -0.02356794
v 0.3696005 -0.3719409 0
v 0.3599266 -0.3706311 0.02356794
v 0.3365718 -0.3674693 0.03333011
v 0.3132169 -0.3643073 0.02356794
v 0.3035429 -0.3629977 0
v 0.3132169 -0.3643073 -0.02356794
v 0.3365718 -0.3674693 -0.03333011
v 0.3423088 -0.3250935 0
v 0.3353988 -0.376133 0
v 0.3403836 -0.3393145 0.06360535
v 0.3849527 -0.3453481 0.04497579
v 0.4034137 -0.3478477 -2.980232E-08
v 0.3849527 -0.3453481 -0.04497579
v 0.3403835 -0.3393145 -0.0636054
v 0.2958144 -0.3332803 -0.04497579
v 0.2773531 -0.3307809 -2.980232E-08
v 0.2958144 -0.3332803 0.04497579
v 0.4396968 0.1100078 -0.2186878
v 0.450919 0.07516241 -0.2377546
v 0.4308355 0.04455531 -0.2568215
v 0.3912114 0.03611577 -0.2647192
v 0.3552575 0.05478752 -0.2568215
v 0.3440356 0.08963287 -0.2377546
v 0.3641189 0.12024 -0.2186878
v 0.4037432 0.1286795 -0.21079
v 0.4409495 0.1192605 -0.2348604
v 0.4521717 0.0844152 -0.2539272
v 0.4320882 0.05380821 -0.2729941
v 0.3924641 0.04536855 -0.2808918
v 0.3565102 0.0640403 -0.2729941
v 0.3452883 0.09888566 -0.2539272
v 0.3653715 0.1294928 -0.2348604
v 0.4049959 0.1379323 -0.2269626
v 0.4263991 0.1203549 -0.2624891
v 0.4333347 0.09881926 -0.2742731
v 0.4209225 0.07990313 -0.2860571
v 0.3964334 0.07468712 -0.2909381
v 0.3742128 0.08622694 -0.2860571
v 0.3672771 0.1077626 -0.2742731
v 0.3796894 0.1266787 -0.2624891
v 0.4041785 0.1318947 -0.257608
v 0.3974374 0.08210301 -0.2372398
v 0.4008924 0.1076227 -0.2818444
v 0.3910099 0.03462756 -0.2814704
v 0.4377436 0.04458141 -0.2721556
v 0.4614303 0.08068013 -0.2496678
v 0.4481949 0.1217775 -0.2271799
v 0.4057902 0.1437993 -0.2178651
v 0.3590565 0.1338456 -0.2271799
v 0.3353697 0.09774685 -0.2496678
v 0.3486053 0.05664945 -0.2721556
v 0.4308355 0.04455531 0.2568215
v 0.450919 0.07516241 0.2377546
v 0.4396968 0.1100078 0.2186878
v 0.4037432 0.1286795 0.21079
v 0.3641189 0.12024 0.2186878
v 0.3440357 0.08963287 0.2377546
v 0.3552575 0.05478752 0.2568215
v 0.3912114 0.03611577 0.2647192
v 0.4481949 0.1217775 0.2271799
v 0.4409495 0.1192605 0.2348604
v 0.4049959 0.1379323 0.2269626
v 0.4057902 0.1437993 0.2178651
v 0.4614303 0.08068013 0.2496678
v 0.4521717 0.0844152 0.2539272
v 0.4377436 0.04458141 0.2721556
v 0.4320882 0.05380821 0.2729941
v 0.3910099 0.03462756 0.2814704
v 0.3924641 0.04536855 0.2808918
v 0.3486053 0.05664945 0.2721556
v 0.3565102 0.0640403 0.2729941
v 0.3353696 0.09774685 0.2496678
v 0.3452883 0.09888566 0.2539272
v 0.3590566 0.1338456 0.2271799
v 0.3653716 0.1294928 0.2348604
v 0.3800179 -0.3307986 -0.03813374
v 0.3956707 -0.3329179 0
v 0.3800179 -0.3307986 0.03813374
v 0.3422291 -0.3256826 0.05392924
v 0.30444 -0.3205665 0.03813374
v 0.2887874 -0.3184474 0
v 0.30444 -0.3205665 -0.03813374
v 0.3422291 -0.3256826 -0.05392924
v 0.3849527 -0.3453481 0.04497579
v 0.3775126 -0.3493042 0.03813374
v 0.3397237 -0.3441885 0.05392924
v 0.3403836 -0.3393145 0.06360535
v 0.4034137 -0.3478477 -2.980232E-08
v 0.3931653 -0.3514235 0
v 0.3849527 -0.3453481 -0.04497579
v 0.3775125 -0.3493042 -0.03813374
v 0.3403835 -0.3393145 -0.0636054
v 0.3397237 -0.3441885 -0.05392924
v 0.2958144 -0.3332803 -0.04497579
v 0.3019346 -0.3390721 -0.03813374
v 0.2773531 -0.3307809 -2.980232E-08
v 0.286282 -0.3369529 0
v 0.2958144 -0.3332803 0.04497579
v 0.3019345 -0.3390721 0.03813374
v 0.4396968 0.1100078 -0.2186878
v 0.450919 0.07516241 -0.2377546
v 0.4308355 0.04455531 -0.2568215
v 0.3912114 0.03611577 -0.2647192
v 0.3552575 0.05478752 -0.2568215
v 0.3440356 0.08963287 -0.2377546
v 0.3641189 0.12024 -0.2186878
v 0.4037432 0.1286795 -0.21079
v 0.4377436 0.04458141 -0.2721556
v 0.4320882 0.05380821 -0.2729941
v 0.3924641 0.04536855 -0.2808918
v 0.3910099 0.03462756 -0.2814704
v 0.4614303 0.08068013 -0.2496678
v 0.4521717 0.0844152 -0.2539272
v 0.4481949 0.1217775 -0.2271799
v 0.4409495 0.1192605 -0.2348604
v 0.4057902 0.1437993 -0.2178651
v 0.4049959 0.1379323 -0.2269626
v 0.3590565 0.1338456 -0.2271799
v 0.3653715 0.1294928 -0.2348604
v 0.3353697 0.09774685 -0.2496678
v 0.3452883 0.09888566 -0.2539272
v 0.3486053 0.05664945 -0.2721556
v 0.3565102 0.0640403 -0.2729941
vt 0.2458062 0.1816613
vt 0.2501357 0.1712088
vt 0.2458062 0.1607564
vt 0.2353538 0.1564269
vt 0.2249013 0.1607564
vt 0.2205718 0.1712088
vt 0.2249013 0.1816613
vt 0.2353537 0.1859909
vt 0.1984465 0.4040951
vt 0.1823143 0.4107773
vt 0.1661822 0.4040952
vt 0.1595001 0.3879631
vt 0.1661822 0.3718309
vt 0.1823143 0.3651489
vt 0.1984465 0.3718309
vt 0.2051286 0.387963
vt 0.1922845 0.3979333
vt 0.1823143 0.402063
vt 0.1723442 0.3979333
vt 0.1682144 0.3879631
vt 0.1723442 0.3779929
vt 0.1823143 0.373863
vt 0.1922845 0.3779929
vt 0.1964143 0.3879631
vt 0.2353538 0.1712088
vt 0.1823143 0.387963
vt 0.2292172 0.1484623
vt 0.2117944 0.1556789
vt 0.2045777 0.1731017
vt 0.2117944 0.1905244
vt 0.2292172 0.1977412
vt 0.24664 0.1905244
vt 0.2538566 0.1731017
vt 0.2466399 0.155679
vt 0.2458062 0.1816613
vt 0.2501357 0.1712088
vt 0.2458062 0.1607564
vt 0.2353538 0.1564269
vt 0.2249013 0.1607564
vt 0.2205718 0.1712088
vt 0.2249013 0.1816613
vt 0.2353537 0.1859909
vt 0.1984465 0.4040951
vt 0.1823143 0.4107773
vt 0.1661822 0.4040952
vt 0.1595001 0.3879631
vt 0.1661822 0.3718309
vt 0.1823143 0.3651489
vt 0.1984465 0.3718309
vt 0.2051286 0.387963
vt 0.1922845 0.3979333
vt 0.1823143 0.402063
vt 0.1723442 0.3979333
vt 0.1682144 0.3879631
vt 0.1723442 0.3779929
vt 0.1823143 0.373863
vt 0.1922845 0.3779929
vt 0.1964143 0.3879631
vt 0.2353538 0.1712088
vt 0.1823143 0.387963
vt 0.2292172 0.1484623
vt 0.2117944 0.1556789
vt 0.2045777 0.1731017
vt 0.2117944 0.1905244
vt 0.2292172 0.1977412
vt 0.24664 0.1905244
vt 0.2538566 0.1731017
vt 0.2466399 0.155679
vt 0.2458062 0.1816613
vt 0.2501357 0.1712088
vt 0.2458062 0.1607564
vt 0.2353538 0.1564269
vt 0.2249013 0.1607564
vt 0.2205718 0.1712088
vt 0.2249013 0.1816613
vt 0.2353537 0.1859909
vt 0.1984465 0.4040951
vt 0.1823143 0.4107773
vt 0.1661822 0.4040952
vt 0.1595001 0.3879631
vt 0.1661822 0.3718309
vt 0.1823143 0.3651489
vt 0.1984465 0.3718309
vt 0.2051286 0.387963
vt 0.1922845 0.3979333
vt 0.1823143 0.402063
vt 0.1723442 0.3979333
vt 0.1682144 0.3879631
vt 0.1723442 0.3779929
vt 0.1823143 0.373863
vt 0.1922845 0.3779929
vt 0.1964143 0.3879631
vt 0.2353538 0.1712088
vt 0.1823143 0.387963
vt 0.2292172 0.1484623
vt 0.2117944 0.1556789
vt 0.2045777 0.1731017
vt 0.2117944 0.1905244
vt 0.2292172 0.1977412
vt 0.24664 0.1905244
vt 0.2538566 0.1731017
vt 0.2466399 0.155679
vt 0.214445 0.187874
vt 0.208326 0.1731017
vt 0.2144449 0.1583295
vt 0.2292172 0.1522106
vt 0.2439894 0.1583295
vt 0.2501083 0.1731017
vt 0.2439895 0.187874
vt 0.2292172 0.1939929
vt 0.2042667 0.1556789
vt 0.2069172 0.1583295
vt 0.2216894 0.1522106
vt 0.2216894 0.1484623
vt 0.19705 0.1731017
vt 0.2007983 0.1731017
vt 0.2042667 0.1905244
vt 0.2069172 0.187874
vt 0.2216894 0.1977412
vt 0.2216895 0.1939929
vt 0.2464831 0.1905244
vt 0.2438326 0.187874
vt 0.2303324 0.1731017
vt 0.226584 0.1731017
vt 0.2464831 0.155679
vt 0.2438326 0.1583295
vt 0.214445 0.187874
vt 0.208326 0.1731017
vt 0.2144449 0.1583295
vt 0.2292172 0.1522106
vt 0.2439894 0.1583295
vt 0.2501083 0.1731017
vt 0.2439895 0.187874
vt 0.2292172 0.1939929
vt 0.2042667 0.1556789
vt 0.2069172 0.1583295
vt 0.2216894 0.1522106
vt 0.2216894 0.1484623
vt 0.19705 0.1731017
vt 0.2007983 0.1731017
vt 0.2042667 0.1905244
vt 0.2069172 0.187874
vt 0.2216894 0.1977412
vt 0.2216895 0.1939929
vt 0.2464831 0.1905244
vt 0.2438326 0.187874
vt 0.2303324 0.1731017
vt 0.226584 0.1731017
vt 0.2464831 0.155679
vt 0.2438326 0.1583295
vt 0.214445 0.187874
vt 0.208326 0.1731017
vt 0.2144449 0.1583295
vt 0.2292172 0.1522106
vt 0.2439894 0.1583295
vt 0.2501083 0.1731017
vt 0.2439895 0.187874
vt 0.2292172 0.1939929
vt 0.2042667 0.1556789
vt 0.2069172 0.1583295
vt 0.2216894 0.1522106
vt 0.2216894 0.1484623
vt 0.19705 0.1731017
vt 0.2007983 0.1731017
vt 0.2042667 0.1905244
vt 0.2069172 0.187874
vt 0.2216894 0.1977412
vt 0.2216895 0.1939929
vt 0.2464831 0.1905244
vt 0.2438326 0.187874
vt 0.2303324 0.1731017
vt 0.226584 0.1731017
vt 0.2464831 0.155679
vt 0.2438326 0.1583295
vn 0.2206193 -0.7597449 -0.6116493
vn 0.3894414 -0.5024615 -0.7719247
vn 0.2951078 -0.2095505 -0.9322017
vn -0.007120565 -0.05259436 -0.9985905
vn -0.3402031 -0.1235377 -0.9322019
vn -0.5090244 -0.3808222 -0.7719252
vn -0.4146914 -0.6737332 -0.6116491
vn -0.1124636 -0.8306881 -0.5452607
vn 0.4312626 -0.0369257 0.9014704
vn 0.6589441 0.3100628 0.6853127
vn 0.5317211 0.7051005 0.4691545
vn 0.1241188 0.9167795 0.3796182
vn -0.3250961 0.8211015 0.4691533
vn -0.5527789 0.4741128 0.6853119
vn -0.4255558 0.07907519 0.9014707
vn -0.01795207 -0.1326036 0.9910066
vn 0.3792628 0.05779053 0.9234825
vn 0.5731144 0.3532208 0.7394423
vn 0.4647957 0.6895602 0.5554023
vn 0.1203277 0.8695146 0.4790257
vn -0.2622777 0.7888669 0.5557871
vn -0.458561 0.4928956 0.7394428
vn -0.350242 0.1565555 0.9234831
vn -0.003204002 -0.02367062 0.9997147
vn -0.06708099 -0.4954795 -0.8660255
vn 0.06833933 0.495439 0.8659503
vn 0.05643883 0.4168734 -0.9072107
vn 0.6017338 0.1336863 -0.787429
vn 0.7719341 -0.3947976 -0.4982495
vn 0.4673379 -0.8590016 -0.209073
vn -0.1336258 -0.9870011 -0.08929247
vn -0.6789201 -0.7038152 -0.2090736
vn -0.8491202 -0.1753305 -0.4982511
vn -0.5445248 0.2888747 -0.7874288
vn 0.4374216 0.8406343 -0.3193685
vn 0.568814 0.8224662 0
vn 0.4374217 0.8406342 0.3193687
vn 0.1195829 0.8832842 0.4533309
vn -0.1981535 0.926681 0.3193705
vn -0.3296452 0.9441049 0
vn -0.1981534 0.9266812 -0.3193702
vn 0.1195829 0.8832844 -0.4533305
vn 0.3222468 -0.8421742 -0.4323189
vn 0.4996982 -0.8661996 0
vn 0.3222471 -0.8421741 0.4323189
vn -0.1061641 -0.7841764 0.611389
vn -0.5345762 -0.7261757 0.4323161
vn -0.7120273 -0.7021518 0
vn -0.5345758 -0.7261763 -0.4323157
vn -0.1061641 -0.7841769 -0.6113885
vn 0.2502044 -0.8954964 -0.3680815
vn 0.4012885 -0.9159518 0
vn 0.2502042 -0.8954965 0.3680813
vn -0.1145511 -0.8461159 0.5205439
vn -0.4793063 -0.7967319 0.368081
vn -0.630391 -0.7762778 0
vn -0.4793063 -0.7967319 -0.3680813
vn -0.114551 -0.8461159 -0.5205439
vn 0.1341617 0.9909595 0
vn -0.1341609 -0.9909596 0
vn 0.07718629 0.5701287 0.8179215
vn 0.6503156 0.492538 0.5783563
vn 0.8877133 0.4603968 0
vn 0.6503154 0.4925386 -0.578356
vn 0.07718637 0.5701296 -0.8179208
vn -0.4959415 0.6477219 -0.5783584
vn -0.7333394 0.6798628 0
vn -0.4959417 0.6477212 0.5783589
vn 0.2951074 -0.2095509 0.9322017
vn 0.3894413 -0.5024614 0.7719249
vn 0.2206194 -0.7597449 0.6116492
vn -0.1124633 -0.8306882 0.5452607
vn -0.4146914 -0.6737333 0.611649
vn -0.5090246 -0.3808222 0.7719251
vn -0.340203 -0.1235381 0.9322018
vn -0.007120699 -0.05259512 0.9985905
vn 0.5317218 0.7051005 -0.4691538
vn 0.6589447 0.3100628 -0.6853123
vn 0.4312626 -0.03692558 -0.9014704
vn -0.01795217 -0.1326032 -0.9910066
vn -0.4255559 0.07907548 -0.9014707
vn -0.5527791 0.4741128 -0.6853119
vn -0.3250962 0.8211014 -0.4691533
vn 0.1241191 0.9167795 -0.3796177
vn 0.4647958 0.6895601 -0.5554022
vn 0.5731141 0.3532211 -0.7394424
vn 0.3792623 0.05779066 -0.9234828
vn -0.003204157 -0.02367084 -0.9997147
vn -0.3502419 0.1565554 -0.9234831
vn -0.4585609 0.4928958 -0.7394427
vn -0.2622775 0.788867 -0.5557871
vn 0.120328 0.8695145 -0.4790258
vn -0.06708088 -0.4954794 0.8660256
vn 0.06833926 0.495439 -0.8659503
vn -0.1336257 -0.9870011 0.08929223
vn 0.4673384 -0.8590015 0.2090728
vn 0.7719339 -0.3947976 0.4982498
vn 0.6017331 0.1336853 0.7874296
vn 0.05643859 0.4168719 0.9072114
vn -0.5445247 0.2888737 0.7874293
vn -0.8491206 -0.1753307 0.4982502
vn -0.6789204 -0.7038152 0.2090727
vn 0.2206193 -0.7597449 -0.6116493
vn 0.3894414 -0.5024615 -0.7719247
vn 0.2951078 -0.2095505 -0.9322017
vn -0.007120565 -0.05259436 -0.9985905
vn -0.3402031 -0.1235377 -0.9322019
vn -0.5090244 -0.3808222 -0.7719252
vn -0.4146914 -0.6737332 -0.6116491
vn -0.1124636 -0.8306881 -0.5452607
vn 0.4145352 0.6736795 0.6118141
vn 0.5317211 0.7051005 0.4691545
vn 0.1241188 0.9167795 0.3796182
vn 0.1124456 0.830564 0.5454535
vn 0.5088263 0.3809015 0.7720168
vn 0.6589441 0.3100628 0.6853127
vn 0.3400829 0.1237352 0.9322195
vn 0.4312626 -0.0369257 0.9014704
vn 0.007151408 0.05282366 0.9985783
vn -0.01795207 -0.1326036 0.9910066
vn -0.2949404 0.2097066 0.9322195
vn -0.4255558 0.07907519 0.9014707
vn -0.3892306 0.5024854 0.7720155
vn -0.5527789 0.4741128 0.6853119
vn -0.2204852 0.7596536 0.611811
vn -0.3250961 0.8211015 0.4691533
vn 0.4374216 0.8406343 -0.3193685
vn 0.568814 0.8224662 0
vn 0.4374217 0.8406342 0.3193687
vn 0.1195829 0.8832842 0.4533309
vn -0.1981535 0.926681 0.3193705
vn -0.3296452 0.9441049 0
vn -0.1981534 0.9266812 -0.3193702
vn 0.1195829 0.8832844 -0.4533305
vn 0.1979202 -0.9263714 0.3204116
vn 0.3222471 -0.8421741 0.4323189
vn -0.1061641 -0.7841764 0.611389
vn -0.1195952 -0.8833872 0.453127
vn 0.3294353 -0.9441781 0
vn 0.4996982 -0.8661996 0
vn 0.1979193 -0.9263718 -0.320411
vn 0.3222468 -0.8421742 -0.4323189
vn -0.1195953 -0.8833879 -0.4531257
vn -0.1061641 -0.7841769 -0.6113885
vn -0.4371095 -0.8404019 -0.3204059
vn -0.5345758 -0.7261763 -0.4323157
vn -0.5686249 -0.822597 0
vn -0.7120273 -0.7021518 0
vn -0.4371103 -0.8404011 0.3204069
vn -0.5345762 -0.7261757 0.4323161
vn 0.2951074 -0.2095509 0.9322017
vn 0.3894413 -0.5024614 0.7719249
vn 0.2206194 -0.7597449 0.6116492
vn -0.1124633 -0.8306882 0.5452607
vn -0.4146914 -0.6737333 0.611649
vn -0.5090246 -0.3808222 0.7719251
vn -0.340203 -0.1235381 0.9322018
vn -0.007120699 -0.05259512 0.9985905
vn 0.3400836 0.1237348 -0.9322194
vn 0.4312626 -0.03692558 -0.9014704
vn -0.01795217 -0.1326032 -0.9910066
vn 0.007151461 0.05282416 -0.9985783
vn 0.5088277 0.3809013 -0.7720159
vn 0.6589447 0.3100628 -0.6853123
vn 0.4145367 0.6736799 -0.6118127
vn 0.5317218 0.7051005 -0.4691538
vn 0.1124462 0.8305646 -0.5454524
vn 0.1241191 0.9167795 -0.3796177
vn -0.220486 0.7596539 -0.6118103
vn -0.3250962 0.8211014 -0.4691533
vn -0.3892316 0.5024854 -0.7720151
vn -0.5527791 0.4741128 -0.6853119
vn -0.2949406 0.2097069 -0.9322194
vn -0.4255559 0.07907548 -0.9014707
g mage_library_orbs_0
f 1/1/1 25/25/25 2/2/2
f 2/2/2 25/25/25 3/3/3
f 8/8/8 25/25/25 1/1/1
f 3/3/3 25/25/25 4/4/4
f 7/7/7 25/25/25 8/8/8
f 4/4/4 25/25/25 5/5/5
f 6/6/6 25/25/25 7/7/7
f 5/5/5 25/25/25 6/6/6
f 35/35/35 59/59/59 36/36/36
f 36/36/36 59/59/59 37/37/37
f 42/42/42 59/59/59 35/35/35
f 37/37/37 59/59/59 38/38/38
f 41/41/41 59/59/59 42/42/42
f 38/38/38 59/59/59 39/39/39
f 40/40/40 59/59/59 41/41/41
f 39/39/39 59/59/59 40/40/40
f 69/69/69 93/93/93 70/70/70
f 70/70/70 93/93/93 71/71/71
f 76/76/76 93/93/93 69/69/69
f 71/71/71 93/93/93 72/72/72
f 75/75/75 93/93/93 76/76/76
f 72/72/72 93/93/93 73/73/73
f 74/74/74 93/93/93 75/75/75
f 73/73/73 93/93/93 74/74/74
f 18/18/18 17/17/17 9/9/9
f 18/18/18 26/26/26 17/17/17
f 10/10/10 18/18/18 9/9/9
f 9/9/9 17/17/17 16/16/16
f 19/19/19 18/18/18 10/10/10
f 19/19/19 26/26/26 18/18/18
f 11/11/11 19/19/19 10/10/10
f 17/17/17 24/24/24 16/16/16
f 17/17/17 26/26/26 24/24/24
f 16/16/16 24/24/24 15/15/15
f 20/20/20 19/19/19 11/11/11
f 20/20/20 26/26/26 19/19/19
f 12/12/12 20/20/20 11/11/11
f 24/24/24 23/23/23 15/15/15
f 24/24/24 26/26/26 23/23/23
f 15/15/15 23/23/23 14/14/14
f 21/21/21 20/20/20 12/12/12
f 21/21/21 26/26/26 20/20/20
f 13/13/13 21/21/21 12/12/12
f 14/14/14 22/22/22 13/13/13
f 23/23/23 22/22/22 14/14/14
f 23/23/23 26/26/26 22/22/22
f 22/22/22 21/21/21 13/13/13
f 22/22/22 26/26/26 21/21/21
f 27/27/27 28/28/28 105/105/105
f 105/105/105 28/28/28 104/104/104
f 106/106/106 27/27/27 105/105/105
f 28/28/28 29/29/29 104/104/104
f 34/34/34 27/27/27 106/106/106
f 104/104/104 29/29/29 103/103/103
f 107/107/107 34/34/34 106/106/106
f 29/29/29 30/30/30 103/103/103
f 33/33/33 34/34/34 107/107/107
f 103/103/103 30/30/30 110/110/110
f 108/108/108 33/33/33 107/107/107
f 30/30/30 31/31/31 110/110/110
f 32/32/32 33/33/33 108/108/108
f 110/110/110 31/31/31 109/109/109
f 109/109/109 32/32/32 108/108/108
f 31/31/31 32/32/32 109/109/109
f 52/52/52 51/51/51 43/43/43
f 52/52/52 60/60/60 51/51/51
f 44/44/44 52/52/52 43/43/43
f 43/43/43 51/51/51 50/50/50
f 53/53/53 52/52/52 44/44/44
f 53/53/53 60/60/60 52/52/52
f 45/45/45 53/53/53 44/44/44
f 51/51/51 58/58/58 50/50/50
f 51/51/51 60/60/60 58/58/58
f 50/50/50 58/58/58 49/49/49
f 54/54/54 53/53/53 45/45/45
f 54/54/54 60/60/60 53/53/53
f 46/46/46 54/54/54 45/45/45
f 58/58/58 57/57/57 49/49/49
f 58/58/58 60/60/60 57/57/57
f 49/49/49 57/57/57 48/48/48
f 55/55/55 54/54/54 46/46/46
f 55/55/55 60/60/60 54/54/54
f 47/47/47 55/55/55 46/46/46
f 48/48/48 56/56/56 47/47/47
f 57/57/57 56/56/56 48/48/48
f 57/57/57 60/60/60 56/56/56
f 56/56/56 55/55/55 47/47/47
f 56/56/56 60/60/60 55/55/55
f 61/61/61 62/62/62 129/129/129
f 129/129/129 62/62/62 128/128/128
f 130/130/130 61/61/61 129/129/129
f 62/62/62 63/63/63 128/128/128
f 68/68/68 61/61/61 130/130/130
f 128/128/128 63/63/63 127/127/127
f 131/131/131 68/68/68 130/130/130
f 63/63/63 64/64/64 127/127/127
f 67/67/67 68/68/68 131/131/131
f 127/127/127 64/64/64 134/134/134
f 132/132/132 67/67/67 131/131/131
f 64/64/64 65/65/65 134/134/134
f 66/66/66 67/67/67 132/132/132
f 134/134/134 65/65/65 133/133/133
f 133/133/133 66/66/66 132/132/132
f 65/65/65 66/66/66 133/133/133
f 86/86/86 85/85/85 77/77/77
f 86/86/86 94/94/94 85/85/85
f 78/78/78 86/86/86 77/77/77
f 77/77/77 85/85/85 84/84/84
f 87/87/87 86/86/86 78/78/78
f 87/87/87 94/94/94 86/86/86
f 79/79/79 87/87/87 78/78/78
f 85/85/85 92/92/92 84/84/84
f 85/85/85 94/94/94 92/92/92
f 84/84/84 92/92/92 83/83/83
f 88/88/88 87/87/87 79/79/79
f 88/88/88 94/94/94 87/87/87
f 80/80/80 88/88/88 79/79/79
f 92/92/92 91/91/91 83/83/83
f 92/92/92 94/94/94 91/91/91
f 83/83/83 91/91/91 82/82/82
f 89/89/89 88/88/88 80/80/80
f 89/89/89 94/94/94 88/88/88
f 81/81/81 89/89/89 80/80/80
f 82/82/82 90/90/90 81/81/81
f 91/91/91 90/90/90 82/82/82
f 91/91/91 94/94/94 90/90/90
f 90/90/90 89/89/89 81/81/81
f 90/90/90 94/94/94 89/89/89
f 95/95/95 96/96/96 153/153/153
f 153/153/153 96/96/96 152/152/152
f 154/154/154 95/95/95 153/153/153
f 96/96/96 97/97/97 152/152/152
f 102/102/102 95/95/95 154/154/154
f 152/152/152 97/97/97 151/151/151
f 155/155/155 102/102/102 154/154/154
f 97/97/97 98/98/98 151/151/151
f 101/101/101 102/102/102 155/155/155
f 151/151/151 98/98/98 158/158/158
f 156/156/156 101/101/101 155/155/155
f 98/98/98 99/99/99 158/158/158
f 100/100/100 101/101/101 156/156/156
f 158/158/158 99/99/99 157/157/157
f 157/157/157 100/100/100 156/156/156
f 99/99/99 100/100/100 157/157/157
f 113/113/113 112/112/112 111/111/111
f 114/114/114 113/113/113 111/111/111
f 111/111/111 112/112/112 115/115/115
f 126/126/126 113/113/113 114/114/114
f 112/112/112 116/116/116 115/115/115
f 125/125/125 126/126/126 114/114/114
f 115/115/115 116/116/116 117/117/117
f 124/124/124 126/126/126 125/125/125
f 116/116/116 118/118/118 117/117/117
f 123/123/123 124/124/124 125/125/125
f 117/117/117 118/118/118 119/119/119
f 122/122/122 124/124/124 123/123/123
f 118/118/118 120/120/120 119/119/119
f 121/121/121 122/122/122 123/123/123
f 119/119/119 120/120/120 121/121/121
f 120/120/120 122/122/122 121/121/121
f 137/137/137 136/136/136 135/135/135
f 138/138/138 137/137/137 135/135/135
f 135/135/135 136/136/136 139/139/139
f 150/150/150 137/137/137 138/138/138
f 136/136/136 140/140/140 139/139/139
f 149/149/149 150/150/150 138/138/138
f 139/139/139 140/140/140 141/141/141
f 148/148/148 150/150/150 149/149/149
f 140/140/140 142/142/142 141/141/141
f 147/147/147 148/148/148 149/149/149
f 141/141/141 142/142/142 143/143/143
f 146/146/146 148/148/148 147/147/147
f 142/142/142 144/144/144 143/143/143
f 145/145/145 146/146/146 147/147/147
f 143/143/143 144/144/144 145/145/145
f 144/144/144 146/146/146 145/145/145
f 161/161/161 160/160/160 159/159/159
f 162/162/162 161/161/161 159/159/159
f 159/159/159 160/160/160 163/163/163
f 174/174/174 161/161/161 162/162/162
f 160/160/160 164/164/164 163/163/163
f 173/173/173 174/174/174 162/162/162
f 163/163/163 164/164/164 165/165/165
f 172/172/172 174/174/174 173/173/173
f 164/164/164 166/166/166 165/165/165
f 171/171/171 172/172/172 173/173/173
f 165/165/165 166/166/166 167/167/167
f 170/170/170 172/172/172 171/171/171
f 166/166/166 168/168/168 167/167/167
f 169/169/169 170/170/170 171/171/171
f 167/167/167 168/168/168 169/169/169
f 168/168/168 170/170/170 169/169/169
