g mesh1
v 0.05016304 -0.07375171 -0.1543858
v 6.41071E-09 -0.1090045 4.044757E-09
v 0.1313283 -0.07375171 -0.09541567
v -0.05016302 -0.07375171 -0.1543858
v 6.41071E-09 -0.1090045 4.044757E-09
v 0.05016304 -0.07375171 0.1543857
v -0.05016302 -0.07375171 0.1543858
v -0.1313283 -0.07375171 -0.09541561
v 6.41071E-09 -0.1090045 4.044757E-09
v 0.1313283 -0.07375171 0.09541563
v -0.1623309 -0.07375171 4.044757E-09
v 0.1623309 -0.07375171 4.044757E-09
v 0.1313283 -0.07375171 -0.09541567
v 6.41071E-09 -0.1090045 4.044757E-09
v -0.1313283 -0.07375171 0.09541566
v -0.05016302 -0.07375171 0.1543858
v 6.41071E-09 -0.1090045 4.044757E-09
v 0.1313283 0.07454107 -0.09541567
v 6.41071E-09 0.1097939 4.044757E-09
v 0.05016304 0.07454107 -0.1543858
v 0.1623309 0.07454107 4.044757E-09
v 6.41071E-09 0.1097939 4.044757E-09
v 0.1313283 0.07454107 0.09541563
v 0.05016304 0.07454107 0.1543857
v 6.41071E-09 0.1097939 4.044757E-09
v 0.05016304 0.07454107 -0.1543858
v 6.41071E-09 0.1097939 4.044757E-09
v -0.05016302 0.07454107 -0.1543858
v -0.05016302 0.07454107 0.1543858
v 0.05016304 0.07454107 0.1543857
v -0.05016302 0.07454107 -0.1543858
v 6.41071E-09 0.1097939 4.044757E-09
v -0.1313283 0.07454107 -0.09541561
v 6.41071E-09 0.1097939 4.044757E-09
v -0.1623309 0.07454107 4.044757E-09
v -0.1313283 0.07454107 0.09541566
v 6.41071E-09 0.1097939 4.044757E-09
v -0.05016302 0.07454107 0.1543858
v 0.1313283 -0.07375171 -0.09541567
v 0.1313283 0.07454107 -0.09541567
v 0.05016304 0.07454107 -0.1543858
v 0.05016304 -0.07375171 -0.1543858
v 0.05016304 -0.07375171 -0.1543858
v 0.05016304 0.07454107 -0.1543858
v -0.05016302 0.07454107 -0.1543858
v -0.05016302 -0.07375171 -0.1543858
v -0.05016302 -0.07375171 -0.1543858
v -0.05016302 0.07454107 -0.1543858
v -0.1313283 0.07454107 -0.09541561
v -0.1313283 -0.07375171 -0.09541561
v -0.1313283 -0.07375171 -0.09541561
v -0.1313283 0.07454107 -0.09541561
v -0.1623309 0.07454107 4.044757E-09
v -0.1623309 -0.07375171 4.044757E-09
v -0.1623309 -0.07375171 4.044757E-09
v -0.1623309 0.07454107 4.044757E-09
v -0.1313283 0.07454107 0.09541566
v -0.1313283 -0.07375171 0.09541566
v -0.1313283 -0.07375171 0.09541566
v -0.1313283 0.07454107 0.09541566
v -0.05016302 0.07454107 0.1543858
v -0.05016302 -0.07375171 0.1543858
v -0.05016302 -0.07375171 0.1543858
v -0.05016302 0.07454107 0.1543858
v 0.05016304 0.07454107 0.1543857
v 0.05016304 -0.07375171 0.1543857
v 0.05016304 -0.07375171 0.1543857
v 0.05016304 0.07454107 0.1543857
v 0.1313283 0.07454107 0.09541563
v 0.1313283 -0.07375171 0.09541563
v 0.1313283 -0.07375171 0.09541563
v 0.1313283 0.07454107 0.09541563
v 0.1623309 0.07454107 4.044757E-09
v 0.1623309 -0.07375171 4.044757E-09
v 0.1623309 -0.07375171 4.044757E-09
v 0.1623309 0.07454107 4.044757E-09
v 0.1313283 0.07454107 -0.09541567
v 0.1313283 -0.07375171 -0.09541567
vt 0.5652581 0.6088628
vt 0.5958745 0.5612575
vt 0.566982 0.6061059
vt 0.5652581 0.6122704
vt 0.5958745 0.5612575
vt 0.5742849 0.6088628
vt 0.5742849 0.6122706
vt 0.566982 0.6150274
vt 0.5958745 0.5612575
vt 0.5725607 0.6061057
vt 0.5697712 0.6160806
vt 0.5697712 0.6050527
vt 0.566982 0.6061059
vt 0.5958745 0.5612575
vt 0.5725607 0.6150274
vt 0.5742849 0.6122706
vt 0.5958745 0.5612575
vt 0.5429563 0.6108301
vt 0.5179862 0.5556742
vt 0.5534093 0.6108301
vt 0.5260429 0.6108298
vt 0.5179862 0.5556742
vt 0.5091296 0.6108301
vt 0.4986767 0.6108301
vt 0.5179862 0.5556742
vt 0.5534093 0.6108301
vt 0.5179862 0.5556742
vt 0.5534093 0.6108301
vt 0.4986767 0.6108301
vt 0.4986767 0.6108301
vt 0.5534093 0.6108301
vt 0.5179862 0.5556742
vt 0.5429563 0.6108301
vt 0.5179862 0.5556742
vt 0.5260429 0.6108298
vt 0.5091296 0.6108301
vt 0.5179862 0.5556742
vt 0.4986767 0.6108301
vt 0.9352232 0.9267338
vt 0.9967741 0.9267339
vt 0.9967742 0.9639136
vt 0.9352232 0.9639135
vt 0.7943363 0.6320686
vt 0.7943363 0.6765898
vt 0.8170864 0.6765898
vt 0.8170864 0.6320686
vt 0.9352232 0.9267338
vt 0.9967741 0.9267339
vt 0.9967742 0.9639136
vt 0.9352232 0.9639135
vt 0.9352232 0.9267338
vt 0.9967741 0.9267339
vt 0.9967742 0.9639136
vt 0.9352232 0.9639135
vt 0.9352232 0.9267338
vt 0.9967741 0.9267339
vt 0.9967742 0.9639136
vt 0.9352232 0.9639135
vt 0.9352232 0.9267338
vt 0.9967741 0.9267339
vt 0.9967742 0.9639136
vt 0.9352232 0.9639135
vt 0.9352232 0.9267338
vt 0.9967741 0.9267339
vt 0.9967742 0.9639136
vt 0.9352232 0.9639135
vt 0.9352232 0.9267338
vt 0.9967741 0.9267339
vt 0.9967742 0.9639136
vt 0.9352232 0.9639135
vt 0.9352232 0.9267338
vt 0.9967741 0.9267339
vt 0.9967742 0.9639136
vt 0.9352232 0.9639135
vt 0.9352232 0.9267338
vt 0.9967741 0.9267339
vt 0.9967742 0.9639136
vt 0.9352232 0.9639135
vn 0.2867176 -0.372983 -0.8824266
vn 0 -1 0
vn 0.7506368 -0.372983 -0.5453698
vn -0.2867178 -0.3729829 -0.8824266
vn 0 -1 0
vn 0.2867179 -0.3729829 0.8824266
vn -0.2867177 -0.3729829 0.8824266
vn -0.7506368 -0.3729831 -0.5453697
vn 0 -1 0
vn 0.7506368 -0.372983 0.5453697
vn -0.9278383 -0.3729828 0
vn 0.9278383 -0.3729829 0
vn 0.7506368 -0.372983 -0.5453698
vn 0 -1 0
vn -0.7506368 -0.3729831 0.5453697
vn -0.2867177 -0.3729829 0.8824266
vn 0 -1 0
vn 0.7506369 0.372983 -0.5453696
vn 0 1 0
vn 0.2867177 0.372983 -0.8824266
vn 0.9278383 0.3729828 0
vn 0 1 0
vn 0.7506369 0.372983 0.5453695
vn 0.2867179 0.3729829 0.8824266
vn 0 1 0
vn 0.2867177 0.372983 -0.8824266
vn 0 1 0
vn -0.2867178 0.3729829 -0.8824266
vn -0.2867178 0.3729829 0.8824266
vn 0.2867179 0.3729829 0.8824266
vn -0.2867178 0.3729829 -0.8824266
vn 0 1 0
vn -0.7506369 0.3729831 -0.5453695
vn 0 1 0
vn -0.9278383 0.3729827 0
vn -0.7506369 0.372983 0.5453695
vn 0 1 0
vn -0.2867178 0.3729829 0.8824266
vn 0.7506368 -0.372983 -0.5453698
vn 0.7506369 0.372983 -0.5453696
vn 0.2867177 0.372983 -0.8824266
vn 0.2867176 -0.372983 -0.8824266
vn 0.2867176 -0.372983 -0.8824266
vn 0.2867177 0.372983 -0.8824266
vn -0.2867178 0.3729829 -0.8824266
vn -0.2867178 -0.3729829 -0.8824266
vn -0.2867178 -0.3729829 -0.8824266
vn -0.2867178 0.3729829 -0.8824266
vn -0.7506369 0.3729831 -0.5453695
vn -0.7506368 -0.3729831 -0.5453697
vn -0.7506368 -0.3729831 -0.5453697
vn -0.7506369 0.3729831 -0.5453695
vn -0.9278383 0.3729827 0
vn -0.9278383 -0.3729828 0
vn -0.9278383 -0.3729828 0
vn -0.9278383 0.3729827 0
vn -0.7506369 0.372983 0.5453695
vn -0.7506368 -0.3729831 0.5453697
vn -0.7506368 -0.3729831 0.5453697
vn -0.7506369 0.372983 0.5453695
vn -0.2867178 0.3729829 0.8824266
vn -0.2867177 -0.3729829 0.8824266
vn -0.2867177 -0.3729829 0.8824266
vn -0.2867178 0.3729829 0.8824266
vn 0.2867179 0.3729829 0.8824266
vn 0.2867179 -0.3729829 0.8824266
vn 0.2867179 -0.3729829 0.8824266
vn 0.2867179 0.3729829 0.8824266
vn 0.7506369 0.372983 0.5453695
vn 0.7506368 -0.372983 0.5453697
vn 0.7506368 -0.372983 0.5453697
vn 0.7506369 0.372983 0.5453695
vn 0.9278383 0.3729828 0
vn 0.9278383 -0.3729829 0
vn 0.9278383 -0.3729829 0
vn 0.9278383 0.3729828 0
vn 0.7506369 0.372983 -0.5453696
vn 0.7506368 -0.372983 -0.5453698
g mesh1_0
f 3/3/3 2/2/2 1/1/1
f 1/1/1 5/5/5 4/4/4
f 7/7/7 5/5/5 6/6/6
f 4/4/4 9/9/9 8/8/8
f 6/6/6 9/9/9 10/10/10
f 8/8/8 9/9/9 11/11/11
f 10/10/10 9/9/9 12/12/12
f 12/12/12 14/14/14 13/13/13
f 11/11/11 14/14/14 15/15/15
f 15/15/15 17/17/17 16/16/16
f 20/20/20 19/19/19 18/18/18
f 18/18/18 22/22/22 21/21/21
f 21/21/21 22/22/22 23/23/23
f 23/23/23 25/25/25 24/24/24
f 28/28/28 27/27/27 26/26/26
f 30/30/30 27/27/27 29/29/29
f 33/33/33 32/32/32 31/31/31
f 35/35/35 34/34/34 33/33/33
f 36/36/36 34/34/34 35/35/35
f 38/38/38 37/37/37 36/36/36
f 41/41/41 40/40/40 39/39/39
f 42/42/42 41/41/41 39/39/39
f 45/45/45 44/44/44 43/43/43
f 46/46/46 45/45/45 43/43/43
f 49/49/49 48/48/48 47/47/47
f 50/50/50 49/49/49 47/47/47
f 53/53/53 52/52/52 51/51/51
f 54/54/54 53/53/53 51/51/51
f 57/57/57 56/56/56 55/55/55
f 58/58/58 57/57/57 55/55/55
f 61/61/61 60/60/60 59/59/59
f 62/62/62 61/61/61 59/59/59
f 65/65/65 64/64/64 63/63/63
f 66/66/66 65/65/65 63/63/63
f 69/69/69 68/68/68 67/67/67
f 70/70/70 69/69/69 67/67/67
f 73/73/73 72/72/72 71/71/71
f 74/74/74 73/73/73 71/71/71
f 77/77/77 76/76/76 75/75/75
f 78/78/78 77/77/77 75/75/75
