g mesh
v 0.002338663 -0.3796159 -0.0006336598
v 0.2114495 -0.007795691 0
v 0.1200924 -0.01153028 -0.06624228
v 0.002338663 -0.3796159 -0.0006336598
v 0.1200924 -0.01153028 -0.06624228
v 0.003758684 -0.2203461 -0.06624228
v -0.002704129 0.3796159 0
v 0.003758684 0.2204868 -0.06624231
v 0.002704158 0.3796159 9.313226E-10
v 0.2114495 0.007934928 0
v 0.1200924 0.01166856 -0.06624228
v 0.1200924 -0.01153028 -0.06624228
v 0.2114495 0.007934928 0
v 0.1200924 -0.01153028 -0.06624228
v 0.2114495 -0.007795691 0
v 0.1089308 6.92606E-05 -0.06624228
v -0.002704129 -0.2003115 -0.06624228
v 0.003758684 0.2204868 -0.06624231
v -0.002704129 0.200452 -0.06624231
v -0.009166703 0.2204868 -0.06624231
v -0.002704129 0.3796159 0
v -0.009166703 -0.2203461 -0.06624228
v -0.002725348 -0.3794757 0
v 0.002338663 -0.3796159 -0.0006336598
v 0.009166732 -0.2203461 0.06624228
v -0.003758654 -0.2203461 0.06624228
v 0.002704158 -0.2003115 0.06624228
v -0.1200924 -0.01153028 0.06624228
v 0.1143394 6.92606E-05 0.06624228
v -0.1200924 0.01166856 0.06624228
v -0.1089308 6.92606E-05 0.06624228
v -0.003758654 0.2204868 0.06624231
v 0.1255009 0.01166856 0.06624228
v 0.002704158 0.200452 0.06624231
v 0.009166732 0.2204868 0.06624231
v 0.002704158 0.3796159 9.313226E-10
v 0.2114495 0.007934928 0
v 0.009166732 0.2204868 0.06624231
v -0.002725348 -0.3794757 0
v -0.2114495 -0.007795691 0
v -0.1200924 -0.01153028 0.06624228
v -0.002725348 -0.3794757 0
v -0.1200924 -0.01153028 0.06624228
v -0.003758654 -0.2203461 0.06624228
v 0.002704158 0.3796159 9.313226E-10
v -0.003758654 0.2204868 0.06624231
v -0.002704129 0.3796159 0
v -0.2114495 0.007934928 0
v -0.1200924 0.01166856 0.06624228
v -0.1200924 -0.01153028 0.06624228
v -0.2114495 0.007934928 0
v -0.1200924 -0.01153028 0.06624228
v -0.2114495 -0.007795691 0
v -0.1089308 6.92606E-05 0.06624228
v 0.002704158 -0.2003115 0.06624228
v -0.003758654 0.2204868 0.06624231
v 0.002704158 0.200452 0.06624231
v 0.009166732 0.2204868 0.06624231
v 0.002704158 0.3796159 9.313226E-10
v 0.009166732 -0.2203461 0.06624228
v 0.002338663 -0.3796159 -0.0006336598
v -0.002725348 -0.3794757 0
v -0.009166703 -0.2203461 -0.06624228
v 0.003758684 -0.2203461 -0.06624228
v -0.002704129 -0.2003115 -0.06624228
v 0.1200924 -0.01153028 -0.06624228
v -0.1143393 6.92606E-05 -0.06624228
v 0.1200924 0.01166856 -0.06624228
v 0.1089308 6.92606E-05 -0.06624228
v 0.003758684 0.2204868 -0.06624231
v -0.1255009 0.01166856 -0.06624228
v -0.002704129 0.200452 -0.06624231
v -0.009166703 0.2204868 -0.06624231
v -0.002704129 0.3796159 0
v -0.2114495 0.007934928 0
v -0.009166703 0.2204868 -0.06624231
v 0.003758684 0.2204868 -0.06624231
v 0.1200924 0.01166856 -0.06624228
v 0.2114495 0.007934928 0
v 0.002704158 0.3796159 9.313226E-10
v -0.2114495 -0.007795691 0
v -0.002725348 -0.3794757 0
v -0.009166703 -0.2203461 -0.06624228
v -0.1255009 -0.01153028 -0.06624228
v -0.1143393 6.92606E-05 -0.06624228
v -0.002704129 -0.2003115 -0.06624228
v 0.1089308 6.92606E-05 -0.06624228
v -0.002704129 0.200452 -0.06624231
v -0.1255009 0.01166856 -0.06624228
v -0.2114495 0.007934928 0
v -0.2114495 -0.007795691 0
v -0.1255009 -0.01153028 -0.06624228
v -0.1143393 6.92606E-05 -0.06624228
v -0.009166703 -0.2203461 -0.06624228
v -0.003758654 0.2204868 0.06624231
v -0.1200924 0.01166856 0.06624228
v -0.2114495 0.007934928 0
v -0.002704129 0.3796159 0
v 0.2114495 -0.007795691 0
v 0.002338663 -0.3796159 -0.0006336598
v 0.009166732 -0.2203461 0.06624228
v 0.1255009 -0.01153028 0.06624228
v 0.1143394 6.92606E-05 0.06624228
v 0.002704158 -0.2003115 0.06624228
v -0.1089308 6.92606E-05 0.06624228
v 0.002704158 0.200452 0.06624231
v 0.1255009 0.01166856 0.06624228
v 0.2114495 0.007934928 0
v 0.2114495 -0.007795691 0
v 0.1255009 -0.01153028 0.06624228
v 0.1143394 6.92606E-05 0.06624228
v 0.009166732 -0.2203461 0.06624228
vt 0.9525933 0.9926763
vt 0.9656943 0.9915701
vt 0.9617715 0.990296
vt 0.9525933 0.9926763
vt 0.9617715 0.990296
vt 0.9525121 0.9920251
vt 0.9485086 0.8870677
vt 0.948396 0.8876844
vt 0.9485115 0.8867525
vt 0.9842961 0.8916411
vt 0.9645402 0.8920692
vt 0.9453078 0.8913719
vt 0.9842961 0.8916411
vt 0.9453078 0.8913719
vt 0.9843197 0.8922579
vt 0.942592 0.8911351
vt 0.9536726 0.8946286
vt 0.948396 0.8876844
vt 0.9446004 0.8894511
vt 0.9447138 0.8892159
vt 0.9485086 0.8870677
vt 0.9750589 0.8962787
vt 0.9847589 0.9099553
vt 0.9849772 0.9098432
vt 0.9750589 0.8962787
vt 0.9540565 0.8951022
vt 0.9536726 0.8946286
vt 0.9453078 0.8913719
vt 0.9411673 0.8888215
vt 0.9645402 0.8920692
vt 0.942592 0.8911351
vt 0.948396 0.8876844
vt 0.9409363 0.8879604
vt 0.9446004 0.8894511
vt 0.9447138 0.8892159
vt 0.9727394 0.89889
vt 0.94958 0.8865415
vt 0.9497155 0.901684
vt 0.9525933 0.9926763
vt 0.9656943 0.9915701
vt 0.9617715 0.990296
vt 0.9525933 0.9926763
vt 0.9617715 0.990296
vt 0.9525121 0.9920251
vt 0.9485086 0.8870677
vt 0.948396 0.8876844
vt 0.9485115 0.8867525
vt 0.9842961 0.8916411
vt 0.9645402 0.8920692
vt 0.9453078 0.8913719
vt 0.9842961 0.8916411
vt 0.9453078 0.8913719
vt 0.9843197 0.8922579
vt 0.942592 0.8911351
vt 0.9536726 0.8946286
vt 0.948396 0.8876844
vt 0.9446004 0.8894511
vt 0.9447138 0.8892159
vt 0.9485086 0.8870677
vt 0.9750589 0.8962787
vt 0.9849772 0.9098432
vt 0.9849772 0.9098432
vt 0.9750589 0.8962787
vt 0.9540565 0.8951022
vt 0.9536726 0.8946286
vt 0.9453078 0.8913719
vt 0.9411673 0.8888215
vt 0.9645402 0.8920692
vt 0.942592 0.8911351
vt 0.948396 0.8876844
vt 0.9409363 0.8879604
vt 0.9446004 0.8894511
vt 0.9447138 0.8892159
vt 0.9727394 0.89889
vt 0.94958 0.8865415
vt 0.9497155 0.901684
vt 0.9562606 0.9864846
vt 0.9524248 0.9829147
vt 0.9439816 0.9834088
vt 0.9515132 0.9882493
vt 0.9720182 0.9893279
vt 0.9463795 0.9835033
vt 0.9404665 0.9835867
vt 0.9664087 0.9892445
vt 0.9721553 0.9832281
vt 0.9376783 0.9760144
vt 0.9486063 0.9882573
vt 0.9822546 0.9945425
vt 0.9411769 0.8885255
vt 0.9511228 0.8781686
vt 0.9509075 0.8788319
vt 0.9444027 0.8885202
vt 0.9411673 0.8888215
vt 0.9750589 0.8962787
vt 0.9562606 0.9864846
vt 0.9524248 0.9829147
vt 0.9439816 0.9834088
vt 0.9515132 0.9882493
vt 0.9720182 0.9893279
vt 0.9463795 0.9835033
vt 0.9404665 0.9835867
vt 0.9664087 0.9892445
vt 0.9721553 0.9832281
vt 0.9376783 0.9760144
vt 0.9486063 0.9882573
vt 0.9822546 0.9945425
vt 0.9411769 0.8885255
vt 0.9511228 0.8781686
vt 0.9509075 0.8788319
vt 0.9444027 0.8885202
vt 0.9411673 0.8888215
vt 0.9750589 0.8962787
vn 0.840862 -0.538087 -0.0584252
vn 0.8896869 -0.4554793 -0.03155546
vn 0.5292777 -0.2813798 -0.8004314
vn 0.840862 -0.538087 -0.0584252
vn 0.5292777 -0.2813798 -0.8004314
vn 0.5381322 -0.3117364 -0.7830927
vn -0.8404233 0.5391048 0.05526983
vn 0.5392286 0.3125668 -0.7820067
vn 0.8404234 0.5391047 -0.05526936
vn 0.8898101 0.4551742 -0.03247123
vn 0.529983 0.282287 -0.7996449
vn 0.5292777 -0.2813798 -0.8004314
vn 0.8898101 0.4551742 -0.03247123
vn 0.5292777 -0.2813798 -0.8004314
vn 0.8896869 -0.4554793 -0.03155546
vn 0 0 -1
vn 0 0 -1
vn 0.5392286 0.3125668 -0.7820067
vn 0 0 -1
vn -0.5587792 0.3235717 -0.7635883
vn -0.8404233 0.5391048 0.05526983
vn -0.5596593 -0.3232685 -0.763072
vn -0.8403791 -0.5386519 0.06014163
vn 0.840862 -0.538087 -0.0584252
vn 0.5609048 -0.3251953 0.7613369
vn -0.5388512 -0.3126616 0.7822289
vn 0 0 1
vn -0.5299586 -0.2822574 0.7996716
vn 0 0 1
vn -0.5299826 0.2822869 0.7996453
vn 0 0 1
vn -0.5392282 0.3125666 0.7820071
vn 0.5486297 0.2921735 0.7833518
vn 0 0 1
vn 0.5587791 0.3235717 0.7635885
vn 0.8404234 0.5391047 -0.05526936
vn 0.8898101 0.4551742 -0.03247123
vn 0.5587791 0.3235717 0.7635885
vn -0.8403791 -0.5386519 0.06014163
vn -0.8898208 -0.4551532 0.03247276
vn -0.5299586 -0.2822574 0.7996716
vn -0.8403791 -0.5386519 0.06014163
vn -0.5299586 -0.2822574 0.7996716
vn -0.5388512 -0.3126616 0.7822289
vn 0.8404234 0.5391047 -0.05526936
vn -0.5392282 0.3125666 0.7820071
vn -0.8404233 0.5391048 0.05526983
vn -0.8898101 0.4551742 0.0324717
vn -0.5299826 0.2822869 0.7996453
vn -0.5299586 -0.2822574 0.7996716
vn -0.8898101 0.4551742 0.0324717
vn -0.5299586 -0.2822574 0.7996716
vn -0.8898208 -0.4551532 0.03247276
vn 0 0 1
vn 0 0 1
vn -0.5392282 0.3125666 0.7820071
vn 0 0 1
vn 0.5587791 0.3235717 0.7635885
vn 0.8404234 0.5391047 -0.05526936
vn 0.5609048 -0.3251953 0.7613369
vn 0.840862 -0.538087 -0.0584252
vn -0.8403791 -0.5386519 0.06014163
vn -0.5596593 -0.3232685 -0.763072
vn 0.5381322 -0.3117364 -0.7830927
vn 0 0 -1
vn 0.5292777 -0.2813798 -0.8004314
vn 0 0 -1
vn 0.529983 0.282287 -0.7996449
vn 0 0 -1
vn 0.5392286 0.3125668 -0.7820067
vn -0.54863 0.2921737 -0.7833515
vn 0 0 -1
vn -0.5587792 0.3235717 -0.7635883
vn -0.8404233 0.5391048 0.05526983
vn -0.8898101 0.4551742 0.0324717
vn -0.5587792 0.3235717 -0.7635883
vn 0.5392286 0.3125668 -0.7820067
vn 0.529983 0.282287 -0.7996449
vn 0.8898101 0.4551742 -0.03247123
vn 0.8404234 0.5391047 -0.05526936
vn -0.8898208 -0.4551532 0.03247276
vn -0.8403791 -0.5386519 0.06014163
vn -0.5596593 -0.3232685 -0.763072
vn -0.5486048 -0.292143 -0.7833805
vn 0 0 -1
vn 0 0 -1
vn 0 0 -1
vn 0 0 -1
vn -0.54863 0.2921737 -0.7833515
vn -0.8898101 0.4551742 0.0324717
vn -0.8898208 -0.4551532 0.03247276
vn -0.5486048 -0.292143 -0.7833805
vn 0 0 -1
vn -0.5596593 -0.3232685 -0.763072
vn -0.5392282 0.3125666 0.7820071
vn -0.5299826 0.2822869 0.7996453
vn -0.8898101 0.4551742 0.0324717
vn -0.8404233 0.5391048 0.05526983
vn 0.8896869 -0.4554793 -0.03155546
vn 0.840862 -0.538087 -0.0584252
vn 0.5609048 -0.3251953 0.7613369
vn 0.5499465 -0.2939028 0.78178
vn 0 0 1
vn 0 0 1
vn 0 0 1
vn 0 0 1
vn 0.5486297 0.2921735 0.7833518
vn 0.8898101 0.4551742 -0.03247123
vn 0.8896869 -0.4554793 -0.03155546
vn 0.5499465 -0.2939028 0.78178
vn 0 0 1
vn 0.5609048 -0.3251953 0.7613369
g mesh_0
f 3/3/3 2/2/2 1/1/1
f 6/6/6 5/5/5 4/4/4
f 9/9/9 8/8/8 7/7/7
f 12/12/12 11/11/11 10/10/10
f 15/15/15 14/14/14 13/13/13
f 17/17/17 16/16/16 14/14/14
f 16/16/16 19/19/19 18/18/18
f 18/18/18 19/19/19 20/20/20
f 18/18/18 20/20/20 21/21/21
f 24/24/24 23/23/23 22/22/22
f 26/26/26 23/23/23 25/25/25
f 25/25/25 27/27/27 26/26/26
f 26/26/26 27/27/27 28/28/28
f 29/29/29 27/27/27 25/25/25
f 28/28/28 31/31/31 30/30/30
f 30/30/30 31/31/31 32/32/32
f 34/34/34 29/29/29 33/33/33
f 35/35/35 34/34/34 33/33/33
f 33/33/33 37/37/37 36/36/36
f 38/38/38 33/33/33 36/36/36
f 41/41/41 40/40/40 39/39/39
f 44/44/44 43/43/43 42/42/42
f 47/47/47 46/46/46 45/45/45
f 50/50/50 49/49/49 48/48/48
f 53/53/53 52/52/52 51/51/51
f 55/55/55 54/54/54 52/52/52
f 54/54/54 57/57/57 56/56/56
f 56/56/56 57/57/57 58/58/58
f 56/56/56 58/58/58 59/59/59
f 62/62/62 61/61/61 60/60/60
f 64/64/64 61/61/61 63/63/63
f 63/63/63 65/65/65 64/64/64
f 64/64/64 65/65/65 66/66/66
f 67/67/67 65/65/65 63/63/63
f 66/66/66 69/69/69 68/68/68
f 68/68/68 69/69/69 70/70/70
f 72/72/72 67/67/67 71/71/71
f 73/73/73 72/72/72 71/71/71
f 71/71/71 75/75/75 74/74/74
f 76/76/76 71/71/71 74/74/74
f 79/79/79 78/78/78 77/77/77
f 80/80/80 79/79/79 77/77/77
f 83/83/83 82/82/82 81/81/81
f 84/84/84 83/83/83 81/81/81
f 87/87/87 86/86/86 85/85/85
f 88/88/88 87/87/87 85/85/85
f 91/91/91 90/90/90 89/89/89
f 92/92/92 91/91/91 89/89/89
f 89/89/89 93/93/93 92/92/92
f 92/92/92 93/93/93 94/94/94
f 97/97/97 96/96/96 95/95/95
f 98/98/98 97/97/97 95/95/95
f 101/101/101 100/100/100 99/99/99
f 102/102/102 101/101/101 99/99/99
f 105/105/105 104/104/104 103/103/103
f 106/106/106 105/105/105 103/103/103
f 109/109/109 108/108/108 107/107/107
f 110/110/110 109/109/109 107/107/107
f 107/107/107 111/111/111 110/110/110
f 110/110/110 111/111/111 112/112/112
