g monkeyking_eyes
v 0.2489538 -0.2261564 -0.03742366
v 0.2517641 -0.2308028 -0.06076492
v 0.2710009 -0.2344699 -0.05094722
v 0.2518159 -0.22516 -0.1077151
v 0.3021789 -0.2371886 -0.1066124
v 0.2552781 -0.212433 -0.1295779
v 0.300227 -0.2214233 -0.133139
v 0.2819208 -0.1687754 -0.1655661
v 0.2965518 -0.241322 -0.07411519
v 0.2950264 -0.1927176 -0.1527021
v 0.2634411 -0.1908334 -0.1477186
v 0.2522347 -0.2321151 -0.08318003
v 0.2832447 -0.2326665 -0.1070269
v 0.2880086 -0.2189794 -0.132171
v 0.2489537 -0.2261564 0.03742366
v 0.2517641 -0.2308028 0.06076491
v 0.2710008 -0.2344699 0.05094723
v 0.2518159 -0.22516 0.1077151
v 0.3021789 -0.2371886 0.1066124
v 0.2552781 -0.212433 0.1295779
v 0.3002271 -0.2214233 0.133139
v 0.2819208 -0.1687754 0.1655661
v 0.2965518 -0.241322 0.07411519
v 0.2950264 -0.1927176 0.1527021
v 0.2634411 -0.1908334 0.1477186
v 0.2522347 -0.2321151 0.08318003
v 0.2713665 -0.2357928 0.07376002
v 0.2832447 -0.2326665 -0.1070269
v 0.2950264 -0.1927176 -0.1527021
v 0.2880086 -0.2189794 -0.132171
v 0.3021789 -0.2371886 -0.1066124
v 0.2710008 -0.2344699 0.05094723
v 0.2713665 -0.2357928 0.07376002
v 0.2965518 -0.241322 0.07411519
vt 0.364238 0.949982
vt 0.3730621 0.9145852
vt 0.4014887 0.9320188
vt 0.3777017 0.8418139
vt 0.2693816 0.8736667
vt 0.3821209 0.803198
vt 0.2813967 0.8740263
vt 0.4106513 0.739867
vt 0.4445574 0.9002304
vt 0.4387588 0.752264
vt 0.3905081 0.7592921
vt 0.3770747 0.8806342
vt 0.4265698 0.8475127
vt 0.2820026 0.8692055
vt 0.364238 0.949982
vt 0.3730621 0.9145852
vt 0.4014887 0.9320188
vt 0.3777017 0.8418139
vt 0.45601 0.8509458
vt 0.3821209 0.803198
vt 0.4521048 0.8040408
vt 0.4106513 0.739867
vt 0.2774437 0.8758329
vt 0.4387588 0.752264
vt 0.3905081 0.7592921
vt 0.3770747 0.8806342
vt 0.4054008 0.8974499
vt 0.2711005 0.8662949
vt 0.2949198 0.8721305
vt 0.433081 0.8038117
vt 0.45601 0.8509458
vt 0.2706172 0.8639885
vt 0.2792767 0.8659766
vt 0.4445574 0.9002304
vn -0.2621001 -0.9520256 0.1579583
vn -0.2299394 -0.9692065 0.08812917
vn -0.2380701 -0.9654623 0.105855
vn -0.193643 -0.9102367 -0.3660214
vn -0.2153923 -0.9181384 -0.3326081
vn -0.1879611 -0.7260348 -0.6614711
vn -0.192315 -0.726703 -0.6594828
vn -0.1627327 -0.5346385 -0.8292646
vn -0.2106777 -0.9751514 -0.06851744
vn -0.1704987 -0.5658057 -0.8067182
vn -0.1665244 -0.5606571 -0.8111308
vn -0.2004044 -0.9762097 -0.08278171
vn -0.2045419 -0.9143698 -0.3494144
vn -0.1901358 -0.7263706 -0.6604802
vn -0.2621001 -0.9520258 -0.1579571
vn -0.2381013 -0.9654812 -0.1056123
vn -0.2299529 -0.9692026 -0.08813742
vn -0.1962133 -0.9150664 0.3523547
vn -0.2030468 -0.9356121 0.2887938
vn -0.188702 -0.7270297 0.6601662
vn -0.188702 -0.7270297 0.6601662
vn -0.1627327 -0.5346382 0.8292648
vn -0.2148501 -0.9751786 0.05353595
vn -0.1672365 -0.5597693 0.8115974
vn -0.1672365 -0.5597693 0.8115974
vn -0.2023884 -0.9767554 0.07062401
vn -0.2086373 -0.9760212 0.06207488
vn -0.2045419 -0.9143698 -0.3494144
vn -0.1704987 -0.5658057 -0.8067182
vn -0.1901358 -0.7263706 -0.6604802
vn -0.2153923 -0.9181384 -0.3326081
vn -0.2299529 -0.9692026 -0.08813742
vn -0.2086373 -0.9760212 0.06207488
vn -0.2148501 -0.9751786 0.05353595
g monkeyking_eyes_0
f 2/2/2 3/3/3 1/1/1
f 9/9/9 3/3/3 2/2/2
f 12/12/12 9/9/9 2/2/2
f 9/9/9 12/12/12 4/4/4
f 13/13/13 9/9/9 4/4/4
f 13/13/13 31/31/31 9/9/9
f 13/13/13 4/4/4 30/30/30
f 4/4/4 6/6/6 30/30/30
f 30/30/30 6/6/6 10/10/10
f 6/6/6 11/11/11 10/10/10
f 8/8/8 10/10/10 11/11/11
f 17/17/17 16/16/16 15/15/15
f 26/26/26 16/16/16 17/17/17
f 27/27/27 26/26/26 17/17/17
f 26/26/26 27/27/27 19/19/19
f 27/27/27 34/34/34 19/19/19
f 18/18/18 26/26/26 19/19/19
f 18/18/18 19/19/19 21/21/21
f 20/20/20 18/18/18 21/21/21
f 20/20/20 21/21/21 24/24/24
f 25/25/25 20/20/20 24/24/24
f 24/24/24 22/22/22 25/25/25
g monkeyking_eyes_1
f 33/33/33 32/32/32 23/23/23
f 5/5/5 28/28/28 7/7/7
f 28/28/28 14/14/14 7/7/7
f 7/7/7 14/14/14 29/29/29
