g monkeyking_blink
v 0.2205826 -0.2185611 -0.1117263
v 0.2264585 -0.2313776 -0.05918616
v 0.305453 -0.1948476 -0.1540419
v 0.2655469 -0.2234569 -0.1477186
v 0.2556882 -0.2455245 -0.1295779
v 0.2467392 -0.2637475 -0.05094726
v 0.2816037 -0.171129 -0.1655661
v 0.2488563 -0.2623935 -0.06076492
v 0.2562472 -0.2468721 -0.1336628
v 0.2486367 -0.22851 -0.03742364
v 0.2663105 -0.220788 -0.1527021
v 0.2502975 -0.2624319 -0.1068543
v 0.2522066 -0.2570075 -0.1077151
v 0.3175359 -0.2207444 -0.1333475
v 0.2616827 -0.1827024 -0.0918864
v 0.2491735 -0.2689137 -0.07411519
v 0.3147788 -0.2499506 -0.06625846
v 0.2181365 -0.2271501 -0.08327749
v 0.2502727 -0.2635237 -0.08318003
v 0.3200848 -0.2404933 -0.1033335
v 0.2801379 -0.2378839 -0.03917216
v 0.2294219 -0.2012299 -0.1361167
v 0.2453404 -0.1795083 -0.1551466
v 0.2992562 -0.2436258 -0.04804055
v 0.2193926 -0.218406 0.1118008
v 0.2264585 -0.2313776 0.05918616
v 0.305453 -0.1948476 0.1540419
v 0.2667945 -0.223626 0.1477186
v 0.2585538 -0.2459127 0.1295779
v 0.2451149 -0.2635276 0.05094722
v 0.2816038 -0.171129 0.1655661
v 0.2475134 -0.2622118 0.06076489
v 0.2580354 -0.2471143 0.1336628
v 0.2486368 -0.22851 0.03742364
v 0.2664534 -0.2208076 0.1527021
v 0.2520677 -0.2626712 0.1068543
v 0.2539366 -0.2572418 0.1077151
v 0.3175359 -0.2207444 0.1333474
v 0.2616827 -0.1827024 0.09188642
v 0.247277 -0.268657 0.07411519
v 0.3147789 -0.2499506 0.06625845
v 0.2175915 -0.2270792 0.08331132
v 0.249318 -0.2633942 0.08318001
v 0.3200848 -0.2404933 0.1033335
v 0.2801379 -0.2378839 0.03917213
v 0.2288842 -0.20116 0.1361512
v 0.2453405 -0.1795083 0.1551466
v 0.2992563 -0.2436258 0.04804058
v 0.2556882 -0.2455245 -0.1295779
v 0.2655469 -0.2234569 -0.1477186
v 0.2616827 -0.1827024 -0.0918864
v 0.2655469 -0.2234569 -0.1477186
v 0.2522066 -0.2570075 -0.1077151
v 0.2556882 -0.2455245 -0.1295779
v 0.2663105 -0.220788 -0.1527021
v 0.2562472 -0.2468721 -0.1336628
v 0.2467392 -0.2637475 -0.05094726
v 0.2486367 -0.22851 -0.03742364
v 0.2486367 -0.22851 -0.03742364
v 0.2488563 -0.2623935 -0.06076492
v 0.2816037 -0.171129 -0.1655661
v 0.2663105 -0.220788 -0.1527021
v 0.2562472 -0.2468721 -0.1336628
v 0.2488563 -0.2623935 -0.06076492
v 0.2502727 -0.2635237 -0.08318003
v 0.2502975 -0.2624319 -0.1068543
v 0.2491735 -0.2689137 -0.07411519
v 0.2502975 -0.2624319 -0.1068543
v 0.2816037 -0.171129 -0.1655661
v 0.2522066 -0.2570075 -0.1077151
v 0.2467392 -0.2637475 -0.05094726
v 0.2585538 -0.2459127 0.1295779
v 0.2667945 -0.223626 0.1477186
v 0.2616827 -0.1827024 0.09188642
v 0.2667945 -0.223626 0.1477186
v 0.2539366 -0.2572418 0.1077151
v 0.2585538 -0.2459127 0.1295779
v 0.2664534 -0.2208076 0.1527021
v 0.2580354 -0.2471143 0.1336628
v 0.2451149 -0.2635276 0.05094722
v 0.2486368 -0.22851 0.03742364
v 0.2486368 -0.22851 0.03742364
v 0.2475134 -0.2622118 0.06076489
v 0.2816038 -0.171129 0.1655661
v 0.2664534 -0.2208076 0.1527021
v 0.2580354 -0.2471143 0.1336628
v 0.2475134 -0.2622118 0.06076489
v 0.249318 -0.2633942 0.08318001
v 0.2520677 -0.2626712 0.1068543
v 0.247277 -0.268657 0.07411519
v 0.2520677 -0.2626712 0.1068543
v 0.2816038 -0.171129 0.1655661
v 0.2539366 -0.2572418 0.1077151
v 0.2451149 -0.2635276 0.05094722
vt 0.1272696 0.8422656
vt 0.08259916 0.8550083
vt 0.1719886 0.9146632
vt 0.1686341 0.889303
vt 0.1459406 0.8871925
vt 0.237123 0.7994782
vt 0.2381771 0.8055305
vt 0.08229947 0.8725774
vt 0.1455024 0.8917512
vt 0.06826702 0.8734911
vt 0.1681955 0.8934235
vt 0.2360488 0.8020243
vt 0.1214946 0.8826824
vt 0.147567 0.9343736
vt 0.238704 0.802169
vt 0.2361022 0.8006586
vt 0.08776136 0.9283563
vt 0.102708 0.8429899
vt 0.09937219 0.8775821
vt 0.1182394 0.9374646
vt 0.06836656 0.9021916
vt 0.1532661 0.8518097
vt 0.1752045 0.866888
vt 0.07690573 0.9137114
vt 0.1272696 0.8422656
vt 0.08259916 0.8550083
vt 0.1719886 0.9146632
vt 0.1686341 0.889303
vt 0.1459406 0.8871925
vt 0.237123 0.7994782
vt 0.2381771 0.8055305
vt 0.08229947 0.8725774
vt 0.1455024 0.8917512
vt 0.06826702 0.8734911
vt 0.1681955 0.8934235
vt 0.2360488 0.8020243
vt 0.1214946 0.8826824
vt 0.147567 0.9343736
vt 0.238704 0.802169
vt 0.2361022 0.8006586
vt 0.08776136 0.9283563
vt 0.102708 0.8429899
vt 0.09937219 0.8775821
vt 0.1182394 0.9374646
vt 0.06836656 0.9021916
vt 0.1532661 0.8518097
vt 0.1752045 0.866888
vt 0.07690573 0.9137114
vt 0.2401892 0.8031213
vt 0.2396068 0.8042299
vt 0.238704 0.802169
vt 0.2396068 0.8042299
vt 0.240397 0.8020447
vt 0.2401892 0.8031213
vt 0.2372049 0.8045161
vt 0.2363636 0.8033038
vt 0.237123 0.7994782
vt 0.2388754 0.7990857
vt 0.2388754 0.7990857
vt 0.239728 0.7999879
vt 0.2381771 0.8055305
vt 0.2372049 0.8045161
vt 0.2363636 0.8033038
vt 0.239728 0.7999879
vt 0.2402169 0.8009146
vt 0.2360488 0.8020243
vt 0.09851776 0.8826231
vt 0.1209358 0.8880727
vt 0.1786401 0.8959789
vt 0.240397 0.8020447
vt 0.08141936 0.8766851
vt 0.2401892 0.8031213
vt 0.2396068 0.8042299
vt 0.238704 0.802169
vt 0.2396068 0.8042299
vt 0.240397 0.8020447
vt 0.2401892 0.8031213
vt 0.2372049 0.8045161
vt 0.2363636 0.8033038
vt 0.237123 0.7994782
vt 0.2388754 0.7990857
vt 0.2388754 0.7990857
vt 0.239728 0.7999879
vt 0.2381771 0.8055305
vt 0.2372049 0.8045161
vt 0.2363636 0.8033038
vt 0.239728 0.7999879
vt 0.2402169 0.8009146
vt 0.2360488 0.8020243
vt 0.09851776 0.8826231
vt 0.1209358 0.8880727
vt 0.1786401 0.8959789
vt 0.240397 0.8020447
vt 0.08141936 0.8766851
vn -0.7095012 -0.5925826 -0.3813844
vn -0.7204876 -0.5745417 0.3883291
vn 0.2298735 -0.4410615 -0.8675384
vn -0.3543731 -0.3234549 -0.8773805
vn -0.5890688 -0.4658138 -0.6603149
vn -0.9841956 0.1123097 -0.136915
vn 0.9506414 -0.2155897 0.223164
vn -0.7204876 -0.5745417 0.3883291
vn 0.3067276 -0.7066302 -0.6376457
vn -0.3384649 -0.4282081 0.8379017
vn 0.2298735 -0.4410615 -0.8675384
vn -0.9861414 0.1529051 -0.06438284
vn -0.7095012 -0.5925826 -0.3813844
vn 0.3067276 -0.7066302 -0.6376457
vn 0.9779723 -0.1598324 0.134253
vn -0.9892537 0.1295799 -0.06772121
vn 0.2609843 -0.9539574 0.1478265
vn -0.7628989 -0.6408308 -0.08556343
vn -0.7628989 -0.6408308 -0.08556343
vn 0.3099021 -0.887325 -0.3414893
vn 0.06642696 -0.4832254 0.8729722
vn -0.5890688 -0.4658138 -0.6603149
vn -0.3543731 -0.3234549 -0.8773805
vn 0.2474566 -0.8207942 0.5148418
vn -0.6823168 -0.6074721 0.4067202
vn -0.729314 -0.5596104 -0.3936206
vn 0.2314081 -0.4364504 0.8694604
vn -0.3475905 -0.3336841 0.8762623
vn -0.5625474 -0.4831943 0.6708679
vn -0.9828165 0.1413064 0.1187615
vn 0.954593 -0.1917837 -0.2279722
vn -0.729314 -0.5596104 -0.3936206
vn 0.3139292 -0.7018009 0.6394717
vn -0.342446 -0.4189414 -0.8409631
vn 0.2314081 -0.4364504 0.8694604
vn -0.9817626 0.1417528 0.1266814
vn -0.6823168 -0.6074721 0.4067202
vn 0.3139292 -0.7018009 0.6394717
vn 0.975729 -0.150268 -0.1592869
vn -0.9828314 0.139832 0.1203729
vn 0.2556216 -0.9541168 -0.1559446
vn -0.7610605 -0.641488 0.09633243
vn -0.7610605 -0.641488 0.09633243
vn 0.3154368 -0.889698 0.3300559
vn 0.06408162 -0.4873883 -0.8708308
vn -0.5625474 -0.4831943 0.6708679
vn -0.3475905 -0.3336841 0.8762623
vn 0.2392953 -0.8265434 -0.5094739
vn 0.9694381 -0.1874601 0.1582668
vn 0.9477322 -0.2228987 0.2282978
vn -0.976634 0.1641037 -0.1387658
vn 0.9477322 -0.2228987 0.2282978
vn 0.9883156 -0.1392453 0.06199223
vn 0.9694381 -0.1874601 0.1582668
vn -0.9505287 0.2255576 -0.213586
vn -0.9677606 0.1897826 -0.1655956
vn -0.9841956 0.1123097 -0.136915
vn -0.9835597 0.1083949 -0.1444328
vn 0.9833567 -0.09870346 0.1525354
vn 0.9870862 -0.1155429 0.1109528
vn -0.9469996 0.234872 -0.2191505
vn -0.9505287 0.2255576 -0.213586
vn -0.9677606 0.1897826 -0.1655956
vn 0.9870862 -0.1155429 0.1109528
vn 0.9894596 -0.1336944 0.05563577
vn -0.9861414 0.1529051 -0.06438284
vn 0.2874542 -0.9408142 0.1795517
vn 0.3099021 -0.887325 -0.3414893
vn -0.02494439 -0.280388 -0.9595625
vn 0.9883156 -0.1392453 0.06199223
vn 0.1703334 -0.6795235 0.7136067
vn 0.971666 -0.154669 -0.1787256
vn 0.9571826 -0.1846291 -0.2229651
vn -0.9753144 0.1624456 0.1495769
vn 0.9571826 -0.1846291 -0.2229651
vn 0.9804994 -0.1326779 -0.1449738
vn 0.971666 -0.154669 -0.1787256
vn -0.9578022 0.2037098 0.2027739
vn -0.97412 0.1592161 0.1604382
vn -0.9828165 0.1413064 0.1187615
vn -0.9829844 0.1432627 0.1149672
vn 0.9835585 -0.1238262 -0.1314524
vn 0.9851077 -0.1328156 -0.1091914
vn -0.9475532 0.2320715 0.2197405
vn -0.9578022 0.2037098 0.2027739
vn -0.97412 0.1592161 0.1604382
vn 0.9851077 -0.1328156 -0.1091914
vn 0.9832906 -0.1378426 -0.118908
vn -0.9817626 0.1417528 0.1266814
vn 0.2797787 -0.9424831 -0.182892
vn 0.3154368 -0.889698 0.3300559
vn -0.02407951 -0.282299 0.9590243
vn 0.9804994 -0.1326779 -0.1449738
vn 0.1644954 -0.6845966 -0.7101188
g monkeyking_blink_0
f 50/50/50 15/15/15 49/49/49
f 7/7/7 15/15/15 52/52/52
f 54/54/54 15/15/15 53/53/53
f 60/60/60 15/15/15 59/59/59
f 65/65/65 15/15/15 64/64/64
f 65/65/65 70/70/70 15/15/15
f 56/56/56 51/51/51 55/55/55
f 58/58/58 51/51/51 57/57/57
f 62/62/62 51/51/51 61/61/61
f 12/12/12 51/51/51 63/63/63
f 6/6/6 51/51/51 16/16/16
f 16/16/16 51/51/51 66/66/66
f 39/39/39 73/73/73 72/72/72
f 39/39/39 31/31/31 75/75/75
f 39/39/39 77/77/77 76/76/76
f 39/39/39 83/83/83 82/82/82
f 39/39/39 88/88/88 87/87/87
f 93/93/93 88/88/88 39/39/39
f 74/74/74 79/79/79 78/78/78
f 74/74/74 81/81/81 80/80/80
f 74/74/74 85/85/85 84/84/84
f 74/74/74 36/36/36 86/86/86
f 74/74/74 30/30/30 40/40/40
f 74/74/74 40/40/40 89/89/89
f 8/8/8 10/10/10 2/2/2
f 8/8/8 2/2/2 18/18/18
f 19/19/19 8/8/8 18/18/18
f 19/19/19 18/18/18 1/1/1
f 13/13/13 19/19/19 1/1/1
f 13/13/13 1/1/1 5/5/5
f 1/1/1 22/22/22 5/5/5
f 4/4/4 5/5/5 22/22/22
f 23/23/23 4/4/4 22/22/22
f 4/4/4 23/23/23 69/69/69
f 71/71/71 21/21/21 10/10/10
f 21/21/21 71/71/71 24/24/24
f 71/71/71 67/67/67 24/24/24
f 24/24/24 67/67/67 17/17/17
f 20/20/20 17/17/17 67/67/67
f 68/68/68 20/20/20 67/67/67
f 20/20/20 68/68/68 14/14/14
f 68/68/68 9/9/9 14/14/14
f 14/14/14 9/9/9 3/3/3
f 11/11/11 69/69/69 3/3/3
f 9/9/9 11/11/11 3/3/3
f 34/34/34 32/32/32 26/26/26
f 26/26/26 32/32/32 42/42/42
f 32/32/32 43/43/43 42/42/42
f 42/42/42 43/43/43 25/25/25
f 43/43/43 37/37/37 25/25/25
f 25/25/25 37/37/37 29/29/29
f 46/46/46 25/25/25 29/29/29
f 29/29/29 28/28/28 46/46/46
f 28/28/28 47/47/47 46/46/46
f 47/47/47 28/28/28 92/92/92
f 45/45/45 94/94/94 34/34/34
f 94/94/94 45/45/45 48/48/48
f 90/90/90 94/94/94 48/48/48
f 90/90/90 48/48/48 41/41/41
f 41/41/41 44/44/44 90/90/90
f 44/44/44 91/91/91 90/90/90
f 91/91/91 44/44/44 38/38/38
f 33/33/33 91/91/91 38/38/38
f 33/33/33 38/38/38 27/27/27
f 92/92/92 35/35/35 27/27/27
f 35/35/35 33/33/33 27/27/27
