g new3
v -0.1456587 0 -0.02674937
v 0.1182601 -0.0009896075 -0.02542537
v -0.1360207 0.05706856 -0.03586185
v 0.05278444 0.3199641 -0.06754843
v -0.0008118153 0.9391971 -0.05458546
v -0.260812 0.06725304 0.03501794
v 0.2352414 0.0702588 0.105068
v 0.1096613 0.05953261 -0.01453268
v 0.1339655 0.5413882 0.004056795
v -0.07781482 0.2610523 -0.08362321
v -0.05404615 -0.002218604 -0.09230471
v -0.192344 0.41118 -0.009359073
v -0.09281731 -0.005808415 -0.06017055
v 0.05410886 -0.005076296 -0.07272235
v 0.005365849 -0.002713159 -0.1014521
vt 0.1766404 0.06515064
vt 0.1857876 0.06515064
vt 0.1778985 0.06781341
vt 0.1845847 0.06912807
vt 0.1810237 0.08207363
vt 0.1757329 0.06920482
vt 0.1872985 0.07134047
vt 0.1862065 0.07045024
vt 0.1855193 0.06988996
vt 0.1798353 0.07665108
vt 0.1809521 0.06515065
vt 0.1789812 0.07275356
vt 0.1787835 0.06515065
vt 0.1838534 0.06515064
vt 0.1823773 0.06515065
vn -0.5098893 -0.05100363 -0.8587267
vn 0.7075642 0.04970109 -0.704899
vn -0.5757529 -0.04304071 -0.8164901
vn 0.4686316 0.03259826 -0.8827921
vn 0.08520834 0.04382326 -0.9953989
vn -0.4965054 -0.0544766 -0.8663225
vn 0.6622687 0.2228323 -0.7153641
vn 0.7086917 0.04385494 -0.704154
vn 0.6686228 0.01587655 -0.7434323
vn -0.190724 0.02929491 -0.9812065
vn -0.210674 0.02355713 -0.9772725
vn -0.5736559 -0.03044806 -0.8185302
vn -0.5849946 -0.04161083 -0.8099689
vn 0.5137486 0.03215462 -0.8573381
vn 0.1270085 0.04356743 -0.9909444
g new3_0
f 6/6/6 3/3/3 1/1/1
f 3/3/3 13/13/13 1/1/1
f 3/3/3 12/12/12 13/13/13
f 12/12/12 11/11/11 13/13/13
f 10/10/10 11/11/11 12/12/12
f 10/10/10 5/5/5 11/11/11
f 5/5/5 15/15/15 11/11/11
f 5/5/5 4/4/4 15/15/15
f 4/4/4 14/14/14 15/15/15
f 14/14/14 4/4/4 9/9/9
f 2/2/2 14/14/14 9/9/9
f 8/8/8 2/2/2 9/9/9
f 7/7/7 2/2/2 8/8/8
