g NpcHelper_tier1_magicball
v 0.01854681 -0.05534613 -0.01347505
v 0.00708425 -0.05534613 -0.02180309
v -0.007084254 -0.05534613 -0.02180308
v -0.01854681 -0.05534613 -0.01347505
v -0.02292512 -0.05534613 1.366443E-09
v -0.01854681 -0.05534613 0.01347505
v -0.00708425 -0.05534613 0.02180308
v 0.007084251 -0.05534613 0.02180308
v 0.01854681 -0.05534613 0.01347505
v 0.02292512 -0.05534613 0
v 0.03427003 -0.04236009 -0.02489864
v 0.01308999 -0.04236009 -0.04028685
v -0.01308999 -0.04236009 -0.04028684
v -0.03427004 -0.04236009 -0.02489864
v -0.04236009 -0.04236009 2.524858E-09
v -0.03427003 -0.04236009 0.02489864
v -0.01308999 -0.04236009 0.04028684
v 0.01308999 -0.04236009 0.04028684
v 0.03427003 -0.04236009 0.02489864
v 0.04236009 -0.04236009 0
v 0.04477596 -0.02292511 -0.03253164
v 0.01710289 -0.02292511 -0.05263731
v -0.0171029 -0.02292511 -0.05263729
v -0.04477596 -0.02292511 -0.03253163
v -0.05534613 -0.02292511 3.298886E-09
v -0.04477596 -0.02292511 0.03253164
v -0.01710289 -0.02292511 0.05263729
v 0.0171029 -0.02292511 0.05263729
v 0.04477595 -0.02292511 0.03253163
v 0.05534613 -0.02292511 0
v 0.04846515 0 -0.035212
v 0.01851203 0 -0.05697421
v -0.01851205 0 -0.0569742
v -0.04846516 0 -0.03521199
v -0.05990621 0 3.570689E-09
v -0.04846515 0 0.035212
v -0.01851204 0 0.0569742
v 0.01851204 0 0.0569742
v 0.04846515 0 0.03521199
v 0.05990621 0 0
v 0.04477596 0.02292511 -0.03253164
v 0.01710289 0.02292511 -0.05263731
v -0.0171029 0.02292511 -0.05263729
v -0.04477596 0.02292511 -0.03253163
v -0.05534613 0.02292511 3.298886E-09
v -0.04477596 0.02292511 0.03253164
v -0.01710289 0.02292511 0.05263729
v 0.0171029 0.02292511 0.05263729
v 0.04477595 0.02292511 0.03253163
v 0.05534613 0.02292511 0
v 0.03427003 0.04236009 -0.02489864
v 0.01308999 0.04236009 -0.04028685
v -0.01308999 0.04236009 -0.04028684
v -0.03427004 0.04236009 -0.02489864
v -0.04236009 0.04236009 2.524858E-09
v -0.03427003 0.04236009 0.02489864
v -0.01308999 0.04236009 0.04028684
v 0.01308999 0.04236009 0.04028684
v 0.03427003 0.04236009 0.02489864
v 0.04236009 0.04236009 0
v 0.01854681 0.05534613 -0.01347505
v 0.00708425 0.05534613 -0.02180309
v -0.007084254 0.05534613 -0.02180308
v -0.01854681 0.05534613 -0.01347505
v -0.02292512 0.05534613 1.366443E-09
v -0.01854681 0.05534613 0.01347505
v -0.00708425 0.05534613 0.02180308
v 0.007084251 0.05534613 0.02180308
v 0.01854681 0.05534613 0.01347505
v 0.02292512 0.05534613 0
v 0 -0.05990621 0
v 0 0.05990621 0
v 0.03427003 -0.04236009 -0.02489864
v 0.01854681 -0.05534613 -0.01347505
v 0.04477596 -0.02292511 -0.03253164
v 0.04846515 0 -0.035212
v 0.04477596 0.02292511 -0.03253164
v 0.03427003 0.04236009 -0.02489864
v 0.01854681 0.05534613 -0.01347505
v 0 -0.05990621 0
v 0 -0.05990621 0
v 0 -0.05990621 0
v 0 -0.05990621 0
v 0 -0.05990621 0
v 0 -0.05990621 0
v 0 -0.05990621 0
v 0 -0.05990621 0
v 0 -0.05990621 0
v 0 0.05990621 0
v 0 0.05990621 0
v 0 0.05990621 0
v 0 0.05990621 0
v 0 0.05990621 0
v 0 0.05990621 0
v 0 0.05990621 0
v 0 0.05990621 0
v 0 0.05990621 0
vt 0.2100074 0.9840755
vt 0.2112241 0.9840755
vt 0.2124408 0.9840755
vt 0.2136575 0.9840755
vt 0.2148742 0.9840755
vt 0.2160909 0.9840755
vt 0.2173076 0.9840755
vt 0.2185243 0.9840755
vt 0.2197411 0.9840755
vt 0.2209578 0.9840755
vt 0.2100074 0.9855964
vt 0.2112241 0.9855964
vt 0.2124408 0.9855964
vt 0.2136575 0.9855964
vt 0.2148742 0.9855964
vt 0.2160909 0.9855964
vt 0.2173076 0.9855964
vt 0.2185243 0.9855964
vt 0.2197411 0.9855964
vt 0.2209578 0.9855964
vt 0.2100074 0.9871173
vt 0.2112241 0.9871173
vt 0.2124408 0.9871173
vt 0.2136575 0.9871173
vt 0.2148742 0.9871173
vt 0.2160909 0.9871173
vt 0.2173076 0.9871173
vt 0.2185243 0.9871173
vt 0.2197411 0.9871173
vt 0.2209578 0.9871173
vt 0.2100074 0.9886382
vt 0.2112241 0.9886382
vt 0.2124408 0.9886382
vt 0.2136575 0.9886382
vt 0.2148742 0.9886382
vt 0.2160909 0.9886382
vt 0.2173076 0.9886382
vt 0.2185243 0.9886382
vt 0.2197411 0.9886382
vt 0.2209578 0.9886382
vt 0.2100074 0.990159
vt 0.2112241 0.990159
vt 0.2124408 0.990159
vt 0.2136575 0.990159
vt 0.2148742 0.990159
vt 0.2160909 0.990159
vt 0.2173076 0.990159
vt 0.2185243 0.990159
vt 0.2197411 0.990159
vt 0.2209578 0.990159
vt 0.2100074 0.99168
vt 0.2112241 0.99168
vt 0.2124408 0.99168
vt 0.2136575 0.99168
vt 0.2148742 0.99168
vt 0.2160909 0.99168
vt 0.2173076 0.99168
vt 0.2185243 0.99168
vt 0.2197411 0.99168
vt 0.2209578 0.99168
vt 0.2100074 0.9932008
vt 0.2112241 0.9932008
vt 0.2124408 0.9932008
vt 0.2136575 0.9932008
vt 0.2148742 0.9932008
vt 0.2160909 0.9932008
vt 0.2173076 0.9932008
vt 0.2185243 0.9932008
vt 0.2197411 0.9932008
vt 0.2209578 0.9932008
vt 0.2106157 0.9825546
vt 0.2106157 0.9947217
vt 0.2221745 0.9855964
vt 0.2221745 0.9840755
vt 0.2221745 0.9871173
vt 0.2221745 0.9886382
vt 0.2221745 0.990159
vt 0.2221745 0.99168
vt 0.2221745 0.9932008
vt 0.2118324 0.9825546
vt 0.2130491 0.9825546
vt 0.2142659 0.9825546
vt 0.2154826 0.9825546
vt 0.2166993 0.9825546
vt 0.217916 0.9825546
vt 0.2191327 0.9825546
vt 0.2203494 0.9825546
vt 0.2215661 0.9825546
vt 0.2118324 0.9947217
vt 0.2130491 0.9947217
vt 0.2142659 0.9947217
vt 0.2154826 0.9947217
vt 0.2166993 0.9947217
vt 0.217916 0.9947217
vt 0.2191327 0.9947217
vt 0.2203494 0.9947217
vt 0.2215661 0.9947217
vn 0.3085543 -0.9244126 -0.2241778
vn 0.1178572 -0.9244125 -0.3627273
vn -0.1178573 -0.9244126 -0.3627273
vn -0.3085543 -0.9244125 -0.2241778
vn -0.3813941 -0.9244125 0
vn -0.3085543 -0.9244125 0.2241779
vn -0.1178572 -0.9244125 0.3627274
vn 0.1178573 -0.9244125 0.3627274
vn 0.3085543 -0.9244126 0.2241779
vn 0.3813941 -0.9244125 0
vn 0.5709686 -0.708455 -0.4148329
vn 0.2180906 -0.708455 -0.6712139
vn -0.2180906 -0.708455 -0.6712138
vn -0.5709687 -0.7084549 -0.4148329
vn -0.705756 -0.708455 0
vn -0.5709686 -0.708455 0.414833
vn -0.2180906 -0.7084549 0.6712139
vn 0.2180906 -0.7084548 0.6712139
vn 0.5709686 -0.7084549 0.4148329
vn 0.705756 -0.708455 0
vn 0.7470291 -0.3838903 -0.5427483
vn 0.2853397 -0.3838903 -0.8781853
vn -0.2853398 -0.3838904 -0.8781853
vn -0.7470292 -0.3838903 -0.5427483
vn -0.9233786 -0.3838903 0
vn -0.7470291 -0.3838903 0.5427485
vn -0.2853397 -0.3838904 0.8781853
vn 0.2853398 -0.3838904 0.8781853
vn 0.7470291 -0.3838903 0.5427484
vn 0.9233786 -0.3838903 0
vn 0.809017 0 -0.5877852
vn 0.309017 0 -0.9510565
vn -0.3090171 0 -0.9510565
vn -0.8090171 0 -0.5877851
vn -1 0 0
vn -0.809017 0 0.5877854
vn -0.3090169 0 0.9510565
vn 0.3090171 0 0.9510565
vn 0.809017 0 0.5877852
vn 1 0 0
vn 0.7470291 0.3838903 -0.5427484
vn 0.2853397 0.3838904 -0.8781853
vn -0.2853398 0.3838904 -0.8781853
vn -0.7470292 0.3838904 -0.5427483
vn -0.9233786 0.3838903 0
vn -0.7470291 0.3838903 0.5427485
vn -0.2853397 0.3838903 0.8781853
vn 0.2853398 0.3838904 0.8781853
vn 0.7470291 0.3838903 0.5427484
vn 0.9233786 0.3838903 0
vn 0.5709686 0.708455 -0.4148329
vn 0.2180906 0.708455 -0.6712138
vn -0.2180906 0.7084549 -0.6712138
vn -0.5709687 0.708455 -0.4148329
vn -0.705756 0.708455 0
vn -0.5709686 0.7084549 0.4148331
vn -0.2180906 0.7084549 0.6712139
vn 0.2180906 0.7084549 0.6712139
vn 0.5709686 0.7084548 0.4148329
vn 0.705756 0.708455 0
vn 0.3085543 0.9244126 -0.2241778
vn 0.1178572 0.9244125 -0.3627273
vn -0.1178573 0.9244126 -0.3627273
vn -0.3085543 0.9244125 -0.2241778
vn -0.3813941 0.9244125 0
vn -0.3085543 0.9244125 0.2241779
vn -0.1178572 0.9244125 0.3627273
vn 0.1178573 0.9244125 0.3627274
vn 0.3085543 0.9244125 0.2241778
vn 0.3813941 0.9244125 0
vn 0 -1 0
vn 0 1 0
vn 0.5709686 -0.708455 -0.4148329
vn 0.3085543 -0.9244126 -0.2241778
vn 0.7470291 -0.3838903 -0.5427483
vn 0.809017 0 -0.5877852
vn 0.7470291 0.3838903 -0.5427484
vn 0.5709686 0.708455 -0.4148329
vn 0.3085543 0.9244126 -0.2241778
vn 0 -1 0
vn 0 -1 0
vn 0 -1 0
vn 0 -1 0
vn 0 -1 0
vn 0 -1 0
vn 0 -1 0
vn 0 -1 0
vn 0 -1 0
vn 0 1 0
vn 0 1 0
vn 0 1 0
vn 0 1 0
vn 0 1 0
vn 0 1 0
vn 0 1 0
vn 0 1 0
vn 0 1 0
g NpcHelper_tier1_magicball_0
f 1/1/1 71/71/71 2/2/2
f 2/2/2 12/12/12 1/1/1
f 12/12/12 11/11/11 1/1/1
f 12/12/12 22/22/22 11/11/11
f 22/22/22 21/21/21 11/11/11
f 22/22/22 32/32/32 21/21/21
f 32/32/32 31/31/31 21/21/21
f 32/32/32 42/42/42 31/31/31
f 42/42/42 41/41/41 31/31/31
f 42/42/42 52/52/52 41/41/41
f 52/52/52 51/51/51 41/41/41
f 52/52/52 62/62/62 51/51/51
f 62/62/62 61/61/61 51/51/51
f 62/62/62 72/72/72 61/61/61
f 63/63/63 62/62/62 52/52/52
f 63/63/63 89/89/89 62/62/62
f 53/53/53 52/52/52 42/42/42
f 53/53/53 63/63/63 52/52/52
f 43/43/43 42/42/42 32/32/32
f 43/43/43 53/53/53 42/42/42
f 33/33/33 32/32/32 22/22/22
f 33/33/33 43/43/43 32/32/32
f 64/64/64 63/63/63 53/53/53
f 64/64/64 90/90/90 63/63/63
f 54/54/54 53/53/53 43/43/43
f 54/54/54 64/64/64 53/53/53
f 23/23/23 33/33/33 22/22/22
f 23/23/23 22/22/22 12/12/12
f 44/44/44 43/43/43 33/33/33
f 44/44/44 54/54/54 43/43/43
f 65/65/65 64/64/64 54/54/54
f 65/65/65 91/91/91 64/64/64
f 55/55/55 65/65/65 54/54/54
f 55/55/55 54/54/54 44/44/44
f 34/34/34 44/44/44 33/33/33
f 34/34/34 33/33/33 23/23/23
f 13/13/13 23/23/23 12/12/12
f 13/13/13 12/12/12 2/2/2
f 66/66/66 65/65/65 55/55/55
f 66/66/66 92/92/92 65/65/65
f 45/45/45 55/55/55 44/44/44
f 45/45/45 44/44/44 34/34/34
f 24/24/24 34/34/34 23/23/23
f 24/24/24 23/23/23 13/13/13
f 3/3/3 13/13/13 2/2/2
f 2/2/2 80/80/80 3/3/3
f 56/56/56 66/66/66 55/55/55
f 56/56/56 55/55/55 45/45/45
f 35/35/35 45/45/45 34/34/34
f 35/35/35 34/34/34 24/24/24
f 14/14/14 13/13/13 3/3/3
f 14/14/14 24/24/24 13/13/13
f 67/67/67 66/66/66 56/56/56
f 67/67/67 93/93/93 66/66/66
f 46/46/46 56/56/56 45/45/45
f 46/46/46 45/45/45 35/35/35
f 25/25/25 35/35/35 24/24/24
f 25/25/25 24/24/24 14/14/14
f 4/4/4 14/14/14 3/3/3
f 3/3/3 81/81/81 4/4/4
f 57/57/57 67/67/67 56/56/56
f 57/57/57 56/56/56 46/46/46
f 36/36/36 46/46/46 35/35/35
f 36/36/36 35/35/35 25/25/25
f 15/15/15 14/14/14 4/4/4
f 15/15/15 25/25/25 14/14/14
f 68/68/68 67/67/67 57/57/57
f 68/68/68 94/94/94 67/67/67
f 47/47/47 57/57/57 46/46/46
f 47/47/47 46/46/46 36/36/36
f 26/26/26 36/36/36 25/25/25
f 26/26/26 25/25/25 15/15/15
f 5/5/5 15/15/15 4/4/4
f 4/4/4 82/82/82 5/5/5
f 58/58/58 68/68/68 57/57/57
f 58/58/58 57/57/57 47/47/47
f 37/37/37 47/47/47 36/36/36
f 37/37/37 36/36/36 26/26/26
f 16/16/16 15/15/15 5/5/5
f 16/16/16 26/26/26 15/15/15
f 69/69/69 68/68/68 58/58/58
f 69/69/69 95/95/95 68/68/68
f 48/48/48 58/58/58 47/47/47
f 48/48/48 47/47/47 37/37/37
f 27/27/27 37/37/37 26/26/26
f 27/27/27 26/26/26 16/16/16
f 6/6/6 16/16/16 5/5/5
f 5/5/5 83/83/83 6/6/6
f 59/59/59 69/69/69 58/58/58
f 59/59/59 58/58/58 48/48/48
f 38/38/38 48/48/48 37/37/37
f 38/38/38 37/37/37 27/27/27
f 17/17/17 16/16/16 6/6/6
f 17/17/17 27/27/27 16/16/16
f 70/70/70 69/69/69 59/59/59
f 70/70/70 96/96/96 69/69/69
f 49/49/49 59/59/59 48/48/48
f 49/49/49 48/48/48 38/38/38
f 28/28/28 38/38/38 27/27/27
f 28/28/28 27/27/27 17/17/17
f 7/7/7 17/17/17 6/6/6
f 6/6/6 84/84/84 7/7/7
f 60/60/60 70/70/70 59/59/59
f 60/60/60 59/59/59 49/49/49
f 39/39/39 49/49/49 38/38/38
f 39/39/39 38/38/38 28/28/28
f 18/18/18 17/17/17 7/7/7
f 18/18/18 28/28/28 17/17/17
f 79/79/79 70/70/70 60/60/60
f 79/79/79 97/97/97 70/70/70
f 78/78/78 79/79/79 60/60/60
f 50/50/50 60/60/60 49/49/49
f 78/78/78 60/60/60 50/50/50
f 50/50/50 49/49/49 39/39/39
f 77/77/77 78/78/78 50/50/50
f 77/77/77 50/50/50 40/40/40
f 40/40/40 50/50/50 39/39/39
f 76/76/76 77/77/77 40/40/40
f 29/29/29 39/39/39 28/28/28
f 40/40/40 39/39/39 29/29/29
f 29/29/29 28/28/28 18/18/18
f 76/76/76 40/40/40 30/30/30
f 30/30/30 40/40/40 29/29/29
f 75/75/75 76/76/76 30/30/30
f 19/19/19 29/29/29 18/18/18
f 30/30/30 29/29/29 19/19/19
f 75/75/75 30/30/30 20/20/20
f 20/20/20 30/30/30 19/19/19
f 73/73/73 75/75/75 20/20/20
f 19/19/19 18/18/18 8/8/8
f 8/8/8 18/18/18 7/7/7
f 7/7/7 85/85/85 8/8/8
f 9/9/9 19/19/19 8/8/8
f 20/20/20 19/19/19 9/9/9
f 8/8/8 86/86/86 9/9/9
f 73/73/73 20/20/20 10/10/10
f 10/10/10 20/20/20 9/9/9
f 9/9/9 87/87/87 10/10/10
f 74/74/74 73/73/73 10/10/10
f 10/10/10 88/88/88 74/74/74
