g NpcHelper_eyes
v 0.244255 -0.4173126 0.1105037
v 0.4218002 -0.3419676 0.4048728
v 0.2247189 -0.4185262 0.1568367
v 0.2196685 -0.4141746 0.2217679
v 0.2341575 -0.399478 0.294158
v 0.2683181 -0.3852725 0.3485099
v 0.4380532 -0.450881 0.3196654
v 0.4362448 -0.4798937 0.2743803
v 0.3072439 -0.3597126 0.3777243
v 0.3569237 -0.3497467 0.399352
v 0.3361726 -0.4648056 0.1391385
v 0.4161345 -0.4909158 0.227097
v 0.2512144 -0.4486113 0.150876
v 0.2735616 -0.4591894 0.2100744
v 0.2987215 -0.4572058 0.2684774
v 0.3282723 -0.4408698 0.319993
v 0.3662837 -0.4073014 0.3680274
v 0.4370791 -0.414814 0.3600717
v 0.4285473 -0.3741388 0.3850871
v 0.3393537 -0.4678322 0.1909028
v 0.3522274 -0.470811 0.2075209
v 0.3776332 -0.4764648 0.2108917
v 0.4007137 -0.4815913 0.1998047
v 0.3437628 -0.4653728 0.1661762
v 0.3551923 -0.4662606 0.1523826
v 0.244255 -0.4173126 -0.1105036
v 0.4218002 -0.3419676 -0.4048728
v 0.2247189 -0.4185262 -0.1568367
v 0.2196685 -0.4141746 -0.2217679
v 0.2341575 -0.399478 -0.2941579
v 0.2683181 -0.3852725 -0.3485099
v 0.4380532 -0.450881 -0.3196654
v 0.4362448 -0.4798937 -0.2743803
v 0.307244 -0.3597126 -0.3777243
v 0.3569237 -0.3497467 -0.399352
v 0.3361726 -0.4648056 -0.1391385
v 0.3849568 -0.4839439 -0.1745468
v 0.4161345 -0.4909158 -0.227097
v 0.2512144 -0.4486113 -0.150876
v 0.2735616 -0.4591894 -0.2100744
v 0.2987215 -0.4572058 -0.2684774
v 0.3282723 -0.4408698 -0.319993
v 0.3662838 -0.4073014 -0.3680274
v 0.4370791 -0.414814 -0.3600718
v 0.3566011 -0.4506145 -0.292482
v 0.3796827 -0.4564787 -0.2898964
v 0.4097765 -0.4519485 -0.3051299
v 0.428289 -0.4387797 -0.326765
v 0.4351926 -0.4173591 -0.3508117
v 0.4240281 -0.3970178 -0.3680526
v 0.3990879 -0.3955592 -0.3701367
v 0.3695163 -0.4101223 -0.3572295
v 0.3491745 -0.425831 -0.3344561
v 0.3437856 -0.4414434 -0.311021
vt 0.9261578 0.75213
vt 0.5692131 0.8905191
vt 0.8766494 0.7339271
vt 0.809916 0.7273613
vt 0.7336911 0.7361897
vt 0.6730338 0.7621426
vt 0.6994423 0.937016
vt 0.7527233 0.944499
vt 0.6262474 0.789125
vt 0.593468 0.832286
vt 0.8945385 0.8518978
vt 0.8034186 0.9304947
vt 0.8799995 0.7709261
vt 0.8239187 0.7938862
vt 0.7667073 0.8139982
vt 0.7117918 0.8342475
vt 0.650529 0.8576239
vt 0.6465931 0.9249726
vt 0.6033868 0.905735
vt 0.843016 0.8553968
vt 0.8246965 0.868665
vt 0.8207026 0.8930048
vt 0.8313718 0.9152879
vt 0.8668366 0.8597929
vt 0.8805878 0.8703443
vt 0.6229712 0.75213
vt 0.9799159 0.8905191
vt 0.6724796 0.7339271
vt 0.7392129 0.7273613
vt 0.8154379 0.7361897
vt 0.8760952 0.7621426
vt 0.8496867 0.937016
vt 0.7964056 0.944499
vt 0.9228815 0.789125
vt 0.9556611 0.832286
vt 0.6545904 0.8518978
vt 0.6918878 0.9012148
vt 0.7457103 0.9304947
vt 0.6691294 0.7709261
vt 0.7252102 0.7938862
vt 0.7824217 0.8139982
vt 0.8373372 0.8342475
vt 0.8985999 0.8576239
vt 0.9025359 0.9249726
vt 0.8103358 0.8643586
vt 0.8090602 0.8870373
vt 0.8292826 0.9127856
vt 0.8571463 0.9253656
vt 0.8899165 0.9250818
vt 0.913438 0.9088511
vt 0.9107468 0.8854573
vt 0.8861647 0.8626642
vt 0.8568141 0.8494101
vt 0.8288857 0.8496411
vn -0.5082148 -0.7208655 -0.4712436
vn 0.01207512 -0.4989534 0.8665447
vn -0.7235065 -0.6763329 -0.1382461
vn -0.6152688 -0.7617397 0.2029701
vn -0.5237105 -0.7603394 0.3842021
vn -0.3775718 -0.6816571 0.6267242
vn -0.04995064 -0.7937096 0.6062426
vn -0.1373348 -0.9026991 0.4077663
vn -0.2736893 -0.5500637 0.789002
vn -0.140582 -0.4908352 0.8598357
vn -0.2091437 -0.9347425 -0.287255
vn -0.2504987 -0.9678623 0.02219884
vn -0.4265247 -0.8816565 -0.2018871
vn -0.3570779 -0.9326358 0.05182488
vn -0.3523992 -0.8994999 0.2582923
vn -0.2162453 -0.794973 0.5667943
vn -0.0809544 -0.6047545 0.7922868
vn 0.01863579 -0.6388512 0.7691045
vn 0.04119687 -0.5171362 0.8549111
vn -0.1540459 -0.9839337 -0.09024492
vn -0.1914673 -0.9814377 -0.01096606
vn -0.2843936 -0.9520248 -0.1130009
vn -0.2868929 -0.9444118 -0.160558
vn -0.1643212 -0.9853368 -0.04593328
vn -0.1676606 -0.9854914 0.02639419
vn -0.5082149 -0.7208656 0.4712435
vn -0.01941025 -0.547527 -0.8365629
vn -0.7235067 -0.6763328 0.1382459
vn -0.6152687 -0.7617397 -0.2029701
vn -0.5237104 -0.7603396 -0.384202
vn -0.3775719 -0.6816571 -0.6267241
vn -0.4792494 -0.6594743 -0.5791491
vn -0.2339373 -0.8437972 -0.4829903
vn -0.2736896 -0.5500635 -0.789002
vn -0.1405827 -0.4908348 -0.8598359
vn -0.2374184 -0.9021149 0.3603072
vn -0.2250413 -0.9722219 0.06435138
vn -0.2138091 -0.9490907 -0.231328
vn -0.5029327 -0.8242702 0.2600716
vn -0.4009854 -0.9134231 -0.069778
vn -0.2864818 -0.8962296 -0.3386749
vn 0.00368069 -0.8718751 -0.4897143
vn 0.05345073 -0.7133773 -0.6987388
vn -0.6661972 -0.5508527 -0.5027352
vn -0.08750243 -0.9001266 -0.4267497
vn -0.1898702 -0.8698254 -0.4553604
vn -0.2474924 -0.7614768 -0.5990832
vn -0.3231996 -0.6591491 -0.6790174
vn -0.6777605 -0.5808126 -0.450885
vn -0.3274037 -0.6309086 -0.7033925
vn 0.1728299 -0.7107118 -0.6819227
vn 0.3506069 -0.8865896 -0.3017179
vn 0.3305036 -0.8595169 -0.3898694
vn 0.100451 -0.9161998 -0.3879272
g NpcHelper_eyes_0
f 25/25/25 24/24/24 11/11/11
f 24/24/24 13/13/13 11/11/11
f 11/11/11 13/13/13 1/1/1
f 13/13/13 3/3/3 1/1/1
f 13/13/13 24/24/24 14/14/14
f 13/13/13 14/14/14 3/3/3
f 24/24/24 20/20/20 14/14/14
f 14/14/14 4/4/4 3/3/3
f 14/14/14 15/15/15 4/4/4
f 21/21/21 14/14/14 20/20/20
f 21/21/21 15/15/15 14/14/14
f 15/15/15 5/5/5 4/4/4
f 21/21/21 22/22/22 15/15/15
f 22/22/22 12/12/12 15/15/15
f 12/12/12 22/22/22 23/23/23
f 15/15/15 12/12/12 8/8/8
f 15/15/15 16/16/16 5/5/5
f 16/16/16 15/15/15 8/8/8
f 16/16/16 6/6/6 5/5/5
f 6/6/6 16/16/16 17/17/17
f 16/16/16 8/8/8 7/7/7
f 17/17/17 16/16/16 7/7/7
f 9/9/9 6/6/6 17/17/17
f 18/18/18 17/17/17 7/7/7
f 17/17/17 10/10/10 9/9/9
f 18/18/18 19/19/19 17/17/17
f 2/2/2 10/10/10 17/17/17
f 19/19/19 2/2/2 17/17/17
f 39/39/39 36/36/36 26/26/26
f 28/28/28 39/39/39 26/26/26
f 36/36/36 39/39/39 37/37/37
f 40/40/40 39/39/39 28/28/28
f 39/39/39 40/40/40 37/37/37
f 29/29/29 40/40/40 28/28/28
f 37/37/37 40/40/40 38/38/38
f 41/41/41 40/40/40 29/29/29
f 41/41/41 38/38/38 40/40/40
f 30/30/30 41/41/41 29/29/29
f 42/42/42 41/41/41 30/30/30
f 31/31/31 42/42/42 30/30/30
f 42/42/42 31/31/31 43/43/43
f 31/31/31 34/34/34 43/43/43
f 35/35/35 43/43/43 34/34/34
f 35/35/35 27/27/27 43/43/43
f 41/41/41 45/45/45 38/38/38
f 45/45/45 46/46/46 38/38/38
f 54/54/54 45/45/45 41/41/41
f 54/54/54 41/41/41 42/42/42
f 38/38/38 46/46/46 33/33/33
f 54/54/54 42/42/42 53/53/53
f 46/46/46 47/47/47 33/33/33
f 52/52/52 53/53/53 42/42/42
f 43/43/43 52/52/52 42/42/42
f 52/52/52 43/43/43 51/51/51
f 27/27/27 51/51/51 43/43/43
f 27/27/27 50/50/50 51/51/51
f 50/50/50 27/27/27 44/44/44
f 49/49/49 50/50/50 44/44/44
f 47/47/47 32/32/32 33/33/33
f 49/49/49 44/44/44 32/32/32
f 47/47/47 48/48/48 32/32/32
f 49/49/49 32/32/32 48/48/48
