g ParticleEmitterTunnel_mesh
v 1.199856 0 -2.319811
v 0.8834746 0.8834765 -2.319811
v 0.8834763 0.8834765 2.319811
v 1.199855 0 2.319811
v 0.8834746 -0.8834765 -2.319811
v 0.8834763 -0.8834765 2.319811
v -1.199855 0 -2.319811
v -0.8834763 -0.8834765 -2.319811
v -0.8834746 -0.8834765 2.319811
v -1.199856 0 2.319811
v -0.8834763 0.8834765 -2.319811
v -0.8834746 0.8834765 2.319811
v 1.192093E-07 -3.263704 -2.319811
v -2.319811 -2.319811 -2.319811
v -2.319811 -2.319811 2.319811
v -1.192093E-07 -3.263704 2.319811
v 2.319811 -2.319811 -2.319811
v 2.319811 -2.319811 2.319811
v 3.263704 0 -2.319811
v 3.263704 0 2.319811
v 2.319811 2.319811 -2.319811
v 2.319811 2.319811 2.319811
v 1.192093E-07 3.263704 -2.319811
v -1.192093E-07 3.263704 2.319811
v -2.319811 2.319811 -2.319811
v -2.319811 2.319811 2.319811
v -3.263704 0 -2.319811
v -3.263704 0 2.319811
v -2.319811 -2.319811 -2.319811
v -2.319811 -2.319811 2.319811
v -1.199855 0 -2.319811
v -3.263704 0 -2.319811
v -2.319811 2.319811 -2.319811
v -0.8834763 0.8834765 -2.319811
v -0.8834763 -0.8834765 -2.319811
v 2.980232E-08 1.199856 -2.319811
v 1.192093E-07 3.263704 -2.319811
v -0.8834746 0.8834765 2.319811
v 2.319811 2.319811 -2.319811
v 2.980232E-08 -1.199856 -2.319811
v 1.192093E-07 -3.263704 -2.319811
v 2.319811 -2.319811 -2.319811
v -2.980232E-08 -1.199856 2.319811
v -0.8834746 -0.8834765 2.319811
v -3.263704 0 2.319811
v -1.199856 0 2.319811
v -2.319811 2.319811 2.319811
v -1.192093E-07 -3.263704 2.319811
v -1.192093E-07 3.263704 2.319811
v 0.8834763 -0.8834765 2.319811
v 2.319811 -2.319811 2.319811
v 0.8834746 -0.8834765 -2.319811
v 1.199855 0 2.319811
v 3.263704 0 2.319811
v 1.199856 0 -2.319811
v 3.263704 0 -2.319811
v 0.8834763 0.8834765 2.319811
v 0.8834746 0.8834765 -2.319811
v 2.319811 2.319811 2.319811
v -2.980232E-08 1.199856 2.319811
vt 0.125 0.125
vt 0.125 0.25
vt 0.875 0.25
vt 0.875 0.125
vt 0.125 0
vt 0.875 0
vt 0.375 0.125
vt 0.375 0
vt 0.625 0
vt 0.625 0.125
vt 0.375 0.25
vt 0.625 0.25
vt 0.375 0.875
vt 0.375 1
vt 0.625 1
vt 0.625 0.875
vt 0.375 0.75
vt 0.625 0.75
vt 0.375 0.625
vt 0.625 0.625
vt 0.375 0.5
vt 0.625 0.5
vt 0.375 0.375
vt 0.625 0.375
vt 0.375 0.25
vt 0.625 0.25
vt 0.375 0.125
vt 0.625 0.125
vt 0.375 0
vt 0.625 0
vt 0.375 0.125
vt 0.375 0.125
vt 0.375 0.25
vt 0.375 0.25
vt 0.375 0
vt 0.25 0.25
vt 0.25 0.25
vt 0.625 0.25
vt 0.125 0.25
vt 0.25 0
vt 0.25 0
vt 0.125 0
vt 0.75 0
vt 0.625 0
vt 0.625 0.125
vt 0.625 0.125
vt 0.625 0.25
vt 0.75 0
vt 0.75 0.25
vt 0.875 0
vt 0.875 0
vt 0.125 0
vt 0.875 0.125
vt 0.875 0.125
vt 0.125 0.125
vt 0.125 0.125
vt 0.875 0.25
vt 0.125 0.25
vt 0.875 0.25
vt 0.75 0.25
vn -0.71847 0 -0.695558
vn -0.4853493 -0.4853494 -0.7272359
vn -0.4853492 -0.4853491 0.7272362
vn -0.7184705 0 0.6955574
vn -0.4853494 0.4853494 -0.7272359
vn -0.4853492 0.4853491 0.7272362
vn 0.7184705 0 -0.6955574
vn 0.4853492 0.4853491 -0.7272361
vn 0.4853493 0.4853494 0.7272359
vn 0.71847 0 0.695558
vn 0.4853491 -0.485349 -0.7272362
vn 0.4853494 -0.4853494 0.7272359
vn 0 -0.9749656 -0.2223555
vn -0.6895897 -0.6895897 -0.2212059
vn -0.6895897 -0.6895897 0.2212058
vn 0 -0.9749656 0.2223555
vn 0.6895897 -0.6895897 -0.2212058
vn 0.6895897 -0.6895897 0.2212059
vn 0.9749656 0 -0.2223557
vn 0.9749656 0 0.2223556
vn 0.6895897 0.6895897 -0.2212058
vn 0.6895897 0.6895897 0.2212059
vn 0 0.9749656 -0.2223555
vn 0 0.9749656 0.2223555
vn -0.6895897 0.6895897 -0.2212059
vn -0.6895897 0.6895897 0.2212058
vn -0.9749656 0 -0.2223556
vn -0.9749656 0 0.2223558
vn -0.6895897 -0.6895897 -0.2212059
vn -0.6895897 -0.6895897 0.2212058
vn 0.7184705 0 -0.6955574
vn -0.9749656 0 -0.2223556
vn -0.6895897 0.6895897 -0.2212059
vn 0.4853491 -0.485349 -0.7272362
vn 0.4853492 0.4853491 -0.7272361
vn 0 -0.7184701 -0.6955579
vn 0 0.9749656 -0.2223555
vn 0.4853494 -0.4853494 0.7272359
vn 0.6895897 0.6895897 -0.2212058
vn 0 0.7184702 -0.6955578
vn 0 -0.9749656 -0.2223555
vn 0.6895897 -0.6895897 -0.2212058
vn 0 0.7184701 0.6955579
vn 0.4853493 0.4853494 0.7272359
vn -0.9749656 0 0.2223558
vn 0.71847 0 0.695558
vn -0.6895897 0.6895897 0.2212058
vn 0 -0.9749656 0.2223555
vn 0 0.9749656 0.2223555
vn -0.4853492 0.4853491 0.7272362
vn 0.6895897 -0.6895897 0.2212059
vn -0.4853494 0.4853494 -0.7272359
vn -0.7184705 0 0.6955574
vn 0.9749656 0 0.2223556
vn -0.71847 0 -0.695558
vn 0.9749656 0 -0.2223557
vn -0.4853492 -0.4853491 0.7272362
vn -0.4853493 -0.4853494 -0.7272359
vn 0.6895897 0.6895897 0.2212059
vn 0 -0.7184701 0.6955578
g ParticleEmitterTunnel_mesh_0
f 3/3/3 2/2/2 1/1/1
f 4/4/4 3/3/3 1/1/1
f 4/4/4 1/1/1 5/5/5
f 6/6/6 4/4/4 5/5/5
f 9/9/9 8/8/8 7/7/7
f 10/10/10 9/9/9 7/7/7
f 10/10/10 7/7/7 11/11/11
f 12/12/12 10/10/10 11/11/11
f 15/15/15 14/14/14 13/13/13
f 16/16/16 15/15/15 13/13/13
f 16/16/16 13/13/13 17/17/17
f 18/18/18 16/16/16 17/17/17
f 18/18/18 17/17/17 19/19/19
f 20/20/20 18/18/18 19/19/19
f 20/20/20 19/19/19 21/21/21
f 22/22/22 20/20/20 21/21/21
f 22/22/22 21/21/21 23/23/23
f 24/24/24 22/22/22 23/23/23
f 24/24/24 23/23/23 25/25/25
f 26/26/26 24/24/24 25/25/25
f 26/26/26 25/25/25 27/27/27
f 28/28/28 26/26/26 27/27/27
f 28/28/28 27/27/27 29/29/29
f 30/30/30 28/28/28 29/29/29
f 32/32/32 31/31/31 29/29/29
f 32/32/32 33/33/33 31/31/31
f 33/33/33 34/34/34 31/31/31
f 31/31/31 35/35/35 29/29/29
f 36/36/36 34/34/34 33/33/33
f 37/37/37 36/36/36 33/33/33
f 38/38/38 34/34/34 36/36/36
f 37/37/37 39/39/39 36/36/36
f 29/29/29 35/35/35 40/40/40
f 41/41/41 29/29/29 40/40/40
f 41/41/41 40/40/40 42/42/42
f 43/43/43 40/40/40 35/35/35
f 44/44/44 43/43/43 35/35/35
f 43/43/43 44/44/44 30/30/30
f 30/30/30 44/44/44 45/45/45
f 44/44/44 46/46/46 45/45/45
f 45/45/45 46/46/46 47/47/47
f 46/46/46 38/38/38 47/47/47
f 48/48/48 43/43/43 30/30/30
f 47/47/47 38/38/38 49/49/49
f 50/50/50 43/43/43 48/48/48
f 43/43/43 50/50/50 40/40/40
f 51/51/51 50/50/50 48/48/48
f 50/50/50 52/52/52 40/40/40
f 40/40/40 52/52/52 42/42/42
f 53/53/53 50/50/50 51/51/51
f 54/54/54 53/53/53 51/51/51
f 42/42/42 52/52/52 55/55/55
f 56/56/56 42/42/42 55/55/55
f 56/56/56 55/55/55 39/39/39
f 57/57/57 53/53/53 54/54/54
f 55/55/55 58/58/58 39/39/39
f 59/59/59 57/57/57 54/54/54
f 39/39/39 58/58/58 36/36/36
f 60/60/60 57/57/57 59/59/59
f 57/57/57 60/60/60 58/58/58
f 60/60/60 36/36/36 58/58/58
f 49/49/49 60/60/60 59/59/59
f 60/60/60 38/38/38 36/36/36
f 38/38/38 60/60/60 49/49/49
