g pirate_eyes
v 0.1272007 -0.1889898 0.1330708
v 0.08502943 -0.1842713 0.1192186
v 0.1249936 -0.2054075 0.1130165
v 0.1218725 -0.2151917 0.08676753
v 0.07666775 -0.194206 0.0989064
v 0.1069935 -0.2112105 0.05672802
v 0.07502604 -0.1973187 0.07486231
v 0.09887979 -0.1707823 0.1337738
v 0.1254422 -0.1639628 0.1447514
v 0.08151729 -0.1987686 0.04447564
v 0.1163077 -0.2136157 0.07496187
v 0.1018759 -0.2079183 0.07492707
v 0.1018759 -0.2079183 0.07492707
v 0.1069935 -0.2112105 0.05672802
v 0.1163077 -0.2136157 0.07496187
vt 0.3861996 0.2193507
vt 0.4497298 0.1921743
vt 0.3802181 0.1795279
vt 0.3804411 0.1357948
vt 0.4563571 0.1554436
vt 0.3579604 0.6059418
vt 0.4564542 0.1184549
vt 0.4376589 0.2276346
vt 0.4038304 0.2583778
vt 0.4449653 0.08148205
vt 0.3597684 0.6071504
vt 0.4132312 0.1181178
vt 0.3597817 0.6054482
vt 0.4071843 0.09432893
vt 0.3899988 0.1179366
vn -0.2890974 -0.5658405 0.7721705
vn -0.3149677 -0.7108362 0.6288938
vn -0.3062769 -0.7881336 0.5338913
vn -0.3617779 -0.8922567 0.2701752
vn -0.3630941 -0.9034039 0.2280875
vn -0.3851176 -0.92245 0.02775618
vn -0.3848013 -0.921402 0.05427844
vn -0.2852147 -0.4757666 0.8320448
vn -0.2508693 -0.4238214 0.8703103
vn -0.4202063 -0.9062352 -0.0465229
vn -0.3784345 -0.9221102 0.08062345
vn -0.3719559 -0.9236243 0.09255789
vn -0.3719559 -0.9236243 0.09255789
vn -0.3851176 -0.92245 0.02775618
vn -0.3784345 -0.9221102 0.08062345
g pirate_eyes_0
f 11/11/11 13/13/13 6/6/6
f 1/1/1 9/9/9 8/8/8
f 1/1/1 8/8/8 2/2/2
f 2/2/2 3/3/3 1/1/1
f 3/3/3 2/2/2 4/4/4
f 2/2/2 5/5/5 4/4/4
f 4/4/4 5/5/5 12/12/12
f 15/15/15 4/4/4 12/12/12
f 12/12/12 5/5/5 7/7/7
f 7/7/7 14/14/14 12/12/12
f 7/7/7 10/10/10 14/14/14
