g portal_plane_tut1_mesh
v -0.04536697 23.14243 50.98908
v -0.1002978 23.96771 50.98908
v -4.913872 23.96771 50.98908
v -4.964433 23.14243 50.98908
v -4.998833 22.24559 50.98908
v -0.01508287 22.24559 50.98908
v -0.05007416 21.34875 50.98908
v -4.962349 21.34875 50.98908
v -0.1030026 20.45191 50.98908
v -4.909853 20.45191 50.98908
v -0.05596799 19.55507 50.98908
v -4.960527 19.55507 50.98908
v -0.01170778 18.65823 50.98908
v -5.000503 18.65823 50.98908
v -0.05007416 17.76139 50.98908
v -4.962349 17.76139 50.98908
v -4.906084 16.86455 50.98908
v -0.1084099 16.86455 50.98908
v -4.954787 15.96771 50.98908
v -0.05793279 15.96771 50.98908
v -5.000391 14.96771 50.98908
v -0.01205423 14.96771 50.98908
v -4.952983 13.96771 50.98908
v -0.06342143 13.96771 50.98908
v -0.1061896 12.96771 50.98908
v -4.906977 12.96771 50.98908
v -0.05793279 11.96771 50.98908
v -4.954787 11.96771 50.98908
v -4.998494 10.96771 50.98908
v -0.0178785 10.96771 50.98908
v -4.954787 9.967712 50.98908
v -0.05793279 9.967712 50.98908
v -0.1061896 8.967711 50.98908
v -4.906977 8.967711 50.98908
v -0.1112231 7.967712 50.98908
v -4.905332 7.967712 50.98908
v -5.372317 23.96771 40
v -4.964433 23.14243 40
v -4.913872 23.96771 40
v -5.510101 23.55507 40
v -5.67932 23.14243 40
v -5.830811 22.69401 40
v -4.998833 22.24559 40
v -5.889136 22.24559 40
v -5.830726 21.79717 40
v -4.962349 21.34875 40
v -5.679252 21.34875 40
v -5.496052 20.90033 40
v -4.909853 20.45191 40
v -5.355423 20.45191 40
v -5.495857 20.00349 40
v -4.960527 19.55507 40
v -5.679057 19.55507 40
v -5.830709 19.10665 40
v -5.000503 18.65823 40
v -5.889286 18.65823 40
v -5.830911 18.20981 40
v -4.962349 17.76139 40
v -5.679252 17.76139 40
v -5.495857 17.31297 40
v -4.906084 16.86455 40
v -5.355236 16.86455 40
v -5.457167 16.41613 40
v -4.954787 15.96771 40
v -5.637171 15.96771 40
v -5.817316 15.46771 40
v -5.000391 14.96771 40
v -5.88927 14.96771 40
v -5.817081 14.46771 40
v -4.952983 13.96771 40
v -5.636974 13.96771 40
v -5.438961 13.46771 40
v -4.906977 12.96771 40
v -5.322114 12.96771 40
v -5.439186 12.46771 40
v -4.954787 11.96771 40
v -5.637171 11.96771 40
v -5.817081 11.46771 40
v -4.998494 10.96771 40
v -5.88907 10.96771 40
v -5.817081 10.46771 40
v -4.954787 9.967712 40
v -5.637171 9.967712 40
v -5.439186 9.467712 40
v -4.906977 8.967712 40
v -5.322114 8.967712 40
v -5.487956 8.467712 40
v -4.905332 7.967712 40
v -5.733735 7.967712 40
v -0.1002979 23.96771 40
v 0.493165 23.55507 40
v 0.3562938 23.96771 40
v -0.04536694 23.14243 40
v 0.6613342 23.14243 40
v 0.8119542 22.69401 40
v -0.0150829 22.24559 40
v 0.8700047 22.24559 40
v 0.8119467 21.79717 40
v -0.05007416 21.34875 40
v 0.6613311 21.34875 40
v 0.4792502 20.90033 40
v -0.1030025 20.45191 40
v 0.3395698 20.45191 40
v 0.4792241 20.00349 40
v -0.05596799 19.55507 40
v 0.661305 19.55507 40
v 0.811945 19.10666 40
v -0.01170778 18.65823 40
v 0.8700263 18.65823 40
v 0.8119717 18.20981 40
v -0.05007416 17.76139 40
v 0.6613311 17.76139 40
v 0.4792241 17.31297 40
v -0.1084099 16.86455 40
v 0.3395444 16.86455 40
v 0.4407937 16.41613 40
v -0.05793279 15.96771 40
v 0.6195313 15.96771 40
v 0.7984633 15.46771 40
v -0.0120542 14.96771 40
v 0.8700242 14.96771 40
v 0.7984315 14.46771 40
v -0.06342143 13.96771 40
v 0.6195052 13.96771 40
v 0.4227167 13.46771 40
v -0.1061896 12.96771 40
v 0.3064843 12.96771 40
v 0.4227468 12.46771 40
v -0.05793279 11.96771 40
v 0.6195313 11.96771 40
v 0.7984315 11.46771 40
v -0.01787847 10.96771 40
v 0.8699969 10.96771 40
v 0.7984315 10.46771 40
v -0.05793279 9.967712 40
v 0.6195313 9.967712 40
v 0.4227468 9.467712 40
v -0.1061896 8.967712 40
v 0.3064843 8.967712 40
v 0.4713975 8.467712 40
v -0.1112231 7.967712 40
v 0.7156432 7.967712 40
v -4.964433 23.14243 40
v -4.913872 23.96771 50.98908
v -4.913872 23.96771 40
v -4.964433 23.14243 50.98908
v -4.998833 22.24559 40
v -4.998833 22.24559 50.98908
v -4.913872 23.96771 40
v -4.913872 23.96771 50.98908
v -0.1002978 23.96771 50.98908
v -0.1002979 23.96771 40
v -0.1002979 23.96771 40
v -0.1002978 23.96771 50.98908
v -0.04536697 23.14243 50.98908
v -0.04536694 23.14243 40
v -0.01508287 22.24559 50.98908
v -0.0150829 22.24559 40
v -5.000503 18.65823 40
v -5.000503 18.65823 50.98908
v -4.960527 19.55507 50.98908
v -4.960527 19.55507 40
v -4.909853 20.45191 50.98908
v -4.909853 20.45191 40
v -0.05596799 19.55507 40
v -0.01170778 18.65823 50.98908
v -0.01170778 18.65823 40
v -0.05596799 19.55507 50.98908
v -0.1030025 20.45191 40
v -0.1030026 20.45191 50.98908
v -0.05793279 15.96771 40
v -0.01205423 14.96771 50.98908
v -0.0120542 14.96771 40
v -0.05793279 15.96771 50.98908
v -0.1084099 16.86455 40
v -0.1084099 16.86455 50.98908
v -5.000391 14.96771 40
v -5.000391 14.96771 50.98908
v -4.954787 15.96771 50.98908
v -4.954787 15.96771 40
v -4.906084 16.86455 50.98908
v -4.906084 16.86455 40
v -0.01787847 10.96771 40
v -0.0178785 10.96771 50.98908
v -0.05793279 9.967712 50.98908
v -0.05793279 9.967712 40
v -0.1061896 8.967711 50.98908
v -0.1061896 8.967712 40
v -0.1112231 7.967712 50.98908
v -0.1112231 7.967712 40
v -4.954787 9.967712 40
v -4.998494 10.96771 50.98908
v -4.998494 10.96771 40
v -4.954787 9.967712 50.98908
v -4.906977 8.967712 40
v -4.906977 8.967711 50.98908
v -4.905332 7.967712 40
v -4.905332 7.967712 50.98908
v -4.954787 11.96771 40
v -4.906977 12.96771 50.98908
v -4.906977 12.96771 40
v -4.954787 11.96771 50.98908
v -4.998494 10.96771 40
v -4.998494 10.96771 50.98908
v -0.1061896 12.96771 40
v -0.1061896 12.96771 50.98908
v -0.05793279 11.96771 50.98908
v -0.05793279 11.96771 40
v -0.0178785 10.96771 50.98908
v -0.01787847 10.96771 40
v -4.906977 12.96771 40
v -4.906977 12.96771 50.98908
v -4.952983 13.96771 50.98908
v -4.952983 13.96771 40
v -5.000391 14.96771 50.98908
v -5.000391 14.96771 40
v -0.06342143 13.96771 40
v -0.1061896 12.96771 50.98908
v -0.1061896 12.96771 40
v -0.06342143 13.96771 50.98908
v -0.0120542 14.96771 40
v -0.01205423 14.96771 50.98908
v -0.1112231 7.967712 40
v -0.1112231 7.967712 50.98908
v -4.905332 7.967712 50.98908
v -4.905332 7.967712 40
v -0.05007416 17.76139 40
v -0.1084099 16.86455 50.98908
v -0.1084099 16.86455 40
v -0.05007416 17.76139 50.98908
v -0.01170778 18.65823 40
v -0.01170778 18.65823 50.98908
v -4.906084 16.86455 40
v -4.906084 16.86455 50.98908
v -4.962349 17.76139 50.98908
v -4.962349 17.76139 40
v -5.000503 18.65823 50.98908
v -5.000503 18.65823 40
v -4.909853 20.45191 40
v -4.909853 20.45191 50.98908
v -4.962349 21.34875 50.98908
v -4.962349 21.34875 40
v -4.998833 22.24559 50.98908
v -4.998833 22.24559 40
v -0.05007416 21.34875 40
v -0.1030026 20.45191 50.98908
v -0.1030025 20.45191 40
v -0.05007416 21.34875 50.98908
v -0.0150829 22.24559 40
v -0.01508287 22.24559 50.98908
vt 0.2138069 0.9362517
vt 0.213807 0.9859258
vt 0.7913074 0.9859258
vt 0.7913074 0.9362518
vt 0.7913074 0.8822705
vt 0.2138069 0.8822705
vt 0.2138068 0.8282892
vt 0.7913074 0.8282892
vt 0.2138067 0.7743079
vt 0.7913074 0.774308
vt 0.2138066 0.7203267
vt 0.7913074 0.7203267
vt 0.2138066 0.6663454
vt 0.7913074 0.6663454
vt 0.2138065 0.6123642
vt 0.7913074 0.6123642
vt 0.7913074 0.5583829
vt 0.2138064 0.5583829
vt 0.7913074 0.5044016
vt 0.2138063 0.5044016
vt 0.7913073 0.4442111
vt 0.2138063 0.4442111
vt 0.7913073 0.3840206
vt 0.2138062 0.3840206
vt 0.2138061 0.3238301
vt 0.7913073 0.3238301
vt 0.213806 0.2636395
vt 0.7913073 0.2636395
vt 0.7913073 0.203449
vt 0.2138059 0.203449
vt 0.7913073 0.1432585
vt 0.2138059 0.1432585
vt 0.2138058 0.08306798
vt 0.7913073 0.08306798
vt 0.2138057 0.02287745
vt 0.7913073 0.02287745
vt 0.863495 0.9859258
vt 0.7913074 0.9362518
vt 0.7913074 0.9859258
vt 0.863495 0.9610888
vt 0.863495 0.9362517
vt 0.863495 0.9092611
vt 0.7913074 0.8822705
vt 0.863495 0.8822705
vt 0.863495 0.8552798
vt 0.7913074 0.8282892
vt 0.863495 0.8282892
vt 0.863495 0.8012985
vt 0.7913074 0.774308
vt 0.863495 0.7743079
vt 0.863495 0.7473173
vt 0.7913074 0.7203267
vt 0.863495 0.7203267
vt 0.863495 0.693336
vt 0.7913074 0.6663454
vt 0.863495 0.6663454
vt 0.863495 0.6393548
vt 0.7913074 0.6123642
vt 0.863495 0.6123642
vt 0.863495 0.5853735
vt 0.7913074 0.5583829
vt 0.863495 0.5583829
vt 0.863495 0.5313922
vt 0.7913074 0.5044016
vt 0.863495 0.5044016
vt 0.863495 0.4743063
vt 0.7913073 0.4442111
vt 0.863495 0.4442111
vt 0.863495 0.4141158
vt 0.7913073 0.3840206
vt 0.863495 0.3840206
vt 0.863495 0.3539253
vt 0.7913073 0.3238301
vt 0.863495 0.3238301
vt 0.863495 0.2937348
vt 0.7913073 0.2636395
vt 0.863495 0.2636395
vt 0.863495 0.2335443
vt 0.7913073 0.203449
vt 0.863495 0.203449
vt 0.863495 0.1733538
vt 0.7913073 0.1432585
vt 0.863495 0.1432585
vt 0.863495 0.1131632
vt 0.7913073 0.08306798
vt 0.863495 0.08306798
vt 0.863495 0.05297272
vt 0.7913073 0.02287745
vt 0.863495 0.02287745
vt 0.213807 0.9859258
vt 0.1416194 0.9610888
vt 0.1416194 0.9859258
vt 0.2138069 0.9362517
vt 0.1416194 0.9362517
vt 0.1416193 0.9092612
vt 0.2138069 0.8822705
vt 0.1416193 0.8822705
vt 0.1416193 0.8552798
vt 0.2138068 0.8282892
vt 0.1416192 0.8282892
vt 0.1416192 0.8012985
vt 0.2138067 0.7743079
vt 0.1416191 0.7743079
vt 0.1416191 0.7473173
vt 0.2138066 0.7203267
vt 0.1416191 0.7203267
vt 0.141619 0.6933361
vt 0.2138066 0.6663454
vt 0.141619 0.6663454
vt 0.1416189 0.6393548
vt 0.2138065 0.6123642
vt 0.1416189 0.6123642
vt 0.1416188 0.5853736
vt 0.2138064 0.5583829
vt 0.1416188 0.5583829
vt 0.1416188 0.5313922
vt 0.2138063 0.5044016
vt 0.1416187 0.5044016
vt 0.1416187 0.4743063
vt 0.2138063 0.4442111
vt 0.1416186 0.4442111
vt 0.1416186 0.4141158
vt 0.2138062 0.3840206
vt 0.1416185 0.3840206
vt 0.1416185 0.3539253
vt 0.2138061 0.3238301
vt 0.1416185 0.3238301
vt 0.1416184 0.2937348
vt 0.213806 0.2636395
vt 0.1416184 0.2636395
vt 0.1416183 0.2335443
vt 0.2138059 0.203449
vt 0.1416183 0.203449
vt 0.1416182 0.1733538
vt 0.2138059 0.1432585
vt 0.1416182 0.1432585
vt 0.1416182 0.1131632
vt 0.2138058 0.08306798
vt 0.1416181 0.08306798
vt 0.141618 0.05297271
vt 0.2138057 0.02287745
vt 0.141618 0.02287745
vt 0.7913074 0.9362518
vt 0.7913074 0.9859258
vt 0.7913074 0.9859258
vt 0.7913074 0.9362518
vt 0.7913074 0.8822705
vt 0.7913074 0.8822705
vt 0.7913074 0.9859258
vt 0.7913074 0.9859258
vt 0.213807 0.9859258
vt 0.213807 0.9859258
vt 0.213807 0.9859258
vt 0.213807 0.9859258
vt 0.2138069 0.9362517
vt 0.2138069 0.9362517
vt 0.2138069 0.8822705
vt 0.2138069 0.8822705
vt 0.7913074 0.6663454
vt 0.7913074 0.6663454
vt 0.7913074 0.7203267
vt 0.7913074 0.7203267
vt 0.7913074 0.774308
vt 0.7913074 0.774308
vt 0.2138066 0.7203267
vt 0.2138066 0.6663454
vt 0.2138066 0.6663454
vt 0.2138066 0.7203267
vt 0.2138067 0.7743079
vt 0.2138067 0.7743079
vt 0.2138063 0.5044016
vt 0.2138063 0.4442111
vt 0.2138063 0.4442111
vt 0.2138063 0.5044016
vt 0.2138064 0.5583829
vt 0.2138064 0.5583829
vt 0.7913073 0.4442111
vt 0.7913073 0.4442111
vt 0.7913074 0.5044016
vt 0.7913074 0.5044016
vt 0.7913074 0.5583829
vt 0.7913074 0.5583829
vt 0.2138059 0.203449
vt 0.2138059 0.203449
vt 0.2138059 0.1432585
vt 0.2138059 0.1432585
vt 0.2138058 0.08306798
vt 0.2138058 0.08306798
vt 0.2138057 0.02287745
vt 0.2138057 0.02287745
vt 0.7913073 0.1432585
vt 0.7913073 0.203449
vt 0.7913073 0.203449
vt 0.7913073 0.1432585
vt 0.7913073 0.08306798
vt 0.7913073 0.08306798
vt 0.7913073 0.02287745
vt 0.7913073 0.02287745
vt 0.7913073 0.2636395
vt 0.7913073 0.3238301
vt 0.7913073 0.3238301
vt 0.7913073 0.2636395
vt 0.7913073 0.203449
vt 0.7913073 0.203449
vt 0.2138061 0.3238301
vt 0.2138061 0.3238301
vt 0.213806 0.2636395
vt 0.213806 0.2636395
vt 0.2138059 0.203449
vt 0.2138059 0.203449
vt 0.7913073 0.3238301
vt 0.7913073 0.3238301
vt 0.7913073 0.3840206
vt 0.7913073 0.3840206
vt 0.7913073 0.4442111
vt 0.7913073 0.4442111
vt 0.2138062 0.3840206
vt 0.2138061 0.3238301
vt 0.2138061 0.3238301
vt 0.2138062 0.3840206
vt 0.2138063 0.4442111
vt 0.2138063 0.4442111
vt 0.2138057 0.02287745
vt 0.2138057 0.02287745
vt 0.7913073 0.02287745
vt 0.7913073 0.02287745
vt 0.2138065 0.6123642
vt 0.2138064 0.5583829
vt 0.2138064 0.5583829
vt 0.2138065 0.6123642
vt 0.2138066 0.6663454
vt 0.2138066 0.6663454
vt 0.7913074 0.5583829
vt 0.7913074 0.5583829
vt 0.7913074 0.6123642
vt 0.7913074 0.6123642
vt 0.7913074 0.6663454
vt 0.7913074 0.6663454
vt 0.7913074 0.774308
vt 0.7913074 0.774308
vt 0.7913074 0.8282892
vt 0.7913074 0.8282892
vt 0.7913074 0.8822705
vt 0.7913074 0.8822705
vt 0.2138068 0.8282892
vt 0.2138067 0.7743079
vt 0.2138067 0.7743079
vt 0.2138068 0.8282892
vt 0.2138069 0.8822705
vt 0.2138069 0.8822705
vn 0 0 -1
vn 0 0 -1
vn 0 0 -1
vn 0 0 -1
vn 0 0 -1
vn 0 0 -1
vn 0 0 -1
vn 0 0 -1
vn 0 0 -1
vn 0 0 -1
vn 0 0 -1
vn 0 0 -1
vn 0 0 -1
vn 0 0 -1
vn 0 0 -1
vn 0 0 -1
vn 0 0 -1
vn 0 0 -1
vn 0 0 -1
vn 0 0 -1
vn 0 0 -1
vn 0 0 -1
vn 0 0 -1
vn 0 0 -1
vn 0 0 -1
vn 0 0 -1
vn 0 0 -1
vn 0 0 -1
vn 0 0 -1
vn 0 0 -1
vn 0 0 -1
vn 0 0 -1
vn 0 0 -1
vn 0 0 -1
vn 0 0 -1
vn 0 0 -1
vn 0 0 -1
vn 0 0 -1
vn 0 0 -1
vn 0 0 -1
vn 0 0 -1
vn 0 0 -1
vn 0 0 -1
vn 0 0 -1
vn 0 0 -1
vn 0 0 -1
vn 0 0 -1
vn 0 0 -1
vn 0 0 -1
vn 0 0 -1
vn 0 0 -1
vn 0 0 -1
vn 0 0 -1
vn 0 0 -1
vn 0 0 -1
vn 0 0 -1
vn 0 0 -1
vn 0 0 -1
vn 0 0 -1
vn 0 0 -1
vn 0 0 -1
vn 0 0 -1
vn 0 0 -1
vn 0 0 -1
vn 0 0 -1
vn 0 0 -1
vn 0 0 -1
vn 0 0 -1
vn 0 0 -1
vn 0 0 -1
vn 0 0 -1
vn 0 0 -1
vn 0 0 -1
vn 0 0 -1
vn 0 0 -1
vn 0 0 -1
vn 0 0 -1
vn 0 0 -1
vn 0 0 -1
vn 0 0 -1
vn 0 0 -1
vn 0 0 -1
vn 0 0 -1
vn 0 0 -1
vn 0 0 -1
vn 0 0 -1
vn 0 0 -1
vn 0 0 -1
vn 0 0 -1
vn 0 0 -1
vn 0 0 -1
vn 0 0 -1
vn 0 0 -1
vn 0 0 -1
vn 0 0 -1
vn 0 0 -1
vn 0 0 -1
vn 0 0 -1
vn 0 0 -1
vn 0 0 -1
vn 0 0 -1
vn 0 0 -1
vn 0 0 -1
vn 0 0 -1
vn 0 0 -1
vn 0 0 -1
vn 0 0 -1
vn 0 0 -1
vn 0 0 -1
vn 0 0 -1
vn 0 0 -1
vn 0 0 -1
vn 0 0 -1
vn 0 0 -1
vn 0 0 -1
vn 0 0 -1
vn 0 0 -1
vn 0 0 -1
vn 0 0 -1
vn 0 0 -1
vn 0 0 -1
vn 0 0 -1
vn 0 0 -1
vn 0 0 -1
vn 0 0 -1
vn 0 0 -1
vn 0 0 -1
vn 0 0 -1
vn 0 0 -1
vn 0 0 -1
vn 0 0 -1
vn 0 0 -1
vn 0 0 -1
vn 0 0 -1
vn 0 0 -1
vn 0 0 -1
vn 0 0 -1
vn 0 0 -1
vn 0 0 -1
vn 0 0 -1
vn 0 0 -1
vn 0 0 -1
vn 0.9981286 -0.06115046 0
vn 0.9981286 -0.06115046 0
vn 0.9981286 -0.06115046 0
vn 0.9981286 -0.06115046 0
vn 0.9992651 -0.03832912 0
vn 0.9992651 -0.03832912 0
vn 0 -1 0
vn 0 -1 0
vn 0 -1 0
vn 0 -1 0
vn -0.9977922 -0.0664133 0
vn -0.9977922 -0.0664133 0
vn -0.9977922 -0.0664133 0
vn -0.9977922 -0.0664133 0
vn -0.9994304 -0.03374826 0
vn -0.9994304 -0.03374826 0
vn 0.9990081 -0.04452936 0
vn 0.9990081 -0.04452936 0
vn 0.9990081 -0.04452936 0
vn 0.9990081 -0.04452936 0
vn 0.9984075 -0.05641344 0
vn 0.9984075 -0.05641344 0
vn -0.9987845 -0.04929123 0
vn -0.9987845 -0.04929123 0
vn -0.9987845 -0.04929123 0
vn -0.9987845 -0.04929123 0
vn -0.9986275 -0.05237283 0
vn -0.9986275 -0.05237283 0
vn -0.9989492 -0.04583037 0
vn -0.9989492 -0.04583037 0
vn -0.9989492 -0.04583037 0
vn -0.9989492 -0.04583037 0
vn -0.9984199 -0.05619435 0
vn -0.9984199 -0.05619435 0
vn 0.9989618 -0.04555652 0
vn 0.9989618 -0.04555652 0
vn 0.9989618 -0.04555652 0
vn 0.9989618 -0.04555652 0
vn 0.9985287 -0.05422499 0
vn 0.9985287 -0.05422499 0
vn -0.9991989 0.04002222 0
vn -0.9991989 0.04002222 0
vn -0.9991989 0.04002222 0
vn -0.9991989 0.04002222 0
vn -0.9988376 0.0482007 0
vn -0.9988376 0.04820071 0
vn -0.9999874 0.005033412 0
vn -0.9999874 0.005033412 0
vn 0.9990461 0.04366577 0
vn 0.9990461 0.04366577 0
vn 0.9990461 0.04366577 0
vn 0.9990461 0.04366577 0
vn 0.998859 0.04775532 0
vn 0.998859 0.04775533 0
vn 0.9999987 0.001645073 0
vn 0.9999987 0.001645073 0
vn 0.998859 -0.04775536 0
vn 0.998859 -0.04775536 0
vn 0.998859 -0.04775536 0
vn 0.998859 -0.04775536 0
vn 0.9990461 -0.04366577 0
vn 0.9990461 -0.04366577 0
vn -0.9988376 -0.04820074 0
vn -0.9988376 -0.04820074 0
vn -0.9988376 -0.04820074 0
vn -0.9988376 -0.04820074 0
vn -0.9991989 -0.04002222 0
vn -0.9991989 -0.04002222 0
vn 0.9989434 0.04595758 0
vn 0.9989434 0.04595758 0
vn 0.9989434 0.04595758 0
vn 0.9989434 0.04595758 0
vn 0.9988782 0.0473544 0
vn 0.9988782 0.0473544 0
vn -0.9990867 0.04272914 0
vn -0.9990867 0.04272914 0
vn -0.9990867 0.04272914 0
vn -0.9990867 0.04272914 0
vn -0.9986833 0.05129957 0
vn -0.9986833 0.05129957 0
vn 0 1 0
vn 0 1 0
vn 0 1 0
vn 0 1 0
vn -0.9978912 0.06490856 0
vn -0.9978912 0.06490856 0
vn -0.9978912 0.06490856 0
vn -0.9978912 0.06490856 0
vn -0.9990863 0.04274047 0
vn -0.9990863 0.04274047 0
vn 0.9980379 0.06261385 0
vn 0.9980379 0.06261385 0
vn 0.9980379 0.06261385 0
vn 0.9980379 0.06261385 0
vn 0.9990963 0.04250429 0
vn 0.9990963 0.04250429 0
vn 0.9982912 0.05843432 0
vn 0.9982912 0.05843432 0
vn 0.9982912 0.05843432 0
vn 0.9982912 0.05843432 0
vn 0.9991735 0.04064733 0
vn 0.9991735 0.04064733 0
vn -0.9982631 0.05891408 0
vn -0.9982631 0.05891408 0
vn -0.9982631 0.05891408 0
vn -0.9982631 0.05891408 0
vn -0.9992397 0.03898657 0
vn -0.9992397 0.03898657 0
g portal_plane_tut1_mesh_0
f 3/3/3 2/2/2 1/1/1
f 4/4/4 3/3/3 1/1/1
f 4/4/4 1/1/1 5/5/5
f 1/1/1 6/6/6 5/5/5
f 5/5/5 6/6/6 7/7/7
f 8/8/8 5/5/5 7/7/7
f 8/8/8 7/7/7 9/9/9
f 10/10/10 8/8/8 9/9/9
f 10/10/10 9/9/9 11/11/11
f 12/12/12 10/10/10 11/11/11
f 12/12/12 11/11/11 13/13/13
f 14/14/14 12/12/12 13/13/13
f 14/14/14 13/13/13 15/15/15
f 16/16/16 14/14/14 15/15/15
f 17/17/17 16/16/16 15/15/15
f 18/18/18 17/17/17 15/15/15
f 17/17/17 18/18/18 19/19/19
f 18/18/18 20/20/20 19/19/19
f 21/21/21 19/19/19 20/20/20
f 22/22/22 21/21/21 20/20/20
f 23/23/23 21/21/21 22/22/22
f 24/24/24 23/23/23 22/22/22
f 23/23/23 24/24/24 25/25/25
f 26/26/26 23/23/23 25/25/25
f 26/26/26 25/25/25 27/27/27
f 28/28/28 26/26/26 27/27/27
f 29/29/29 28/28/28 27/27/27
f 30/30/30 29/29/29 27/27/27
f 31/31/31 29/29/29 30/30/30
f 32/32/32 31/31/31 30/30/30
f 31/31/31 32/32/32 33/33/33
f 34/34/34 31/31/31 33/33/33
f 33/33/33 35/35/35 34/34/34
f 35/35/35 36/36/36 34/34/34
f 39/39/39 38/38/38 37/37/37
f 38/38/38 40/40/40 37/37/37
f 38/38/38 41/41/41 40/40/40
f 42/42/42 41/41/41 38/38/38
f 42/42/42 38/38/38 43/43/43
f 43/43/43 44/44/44 42/42/42
f 45/45/45 44/44/44 43/43/43
f 45/45/45 43/43/43 46/46/46
f 46/46/46 47/47/47 45/45/45
f 48/48/48 47/47/47 46/46/46
f 48/48/48 46/46/46 49/49/49
f 49/49/49 50/50/50 48/48/48
f 51/51/51 50/50/50 49/49/49
f 51/51/51 49/49/49 52/52/52
f 52/52/52 53/53/53 51/51/51
f 54/54/54 53/53/53 52/52/52
f 54/54/54 52/52/52 55/55/55
f 55/55/55 56/56/56 54/54/54
f 57/57/57 56/56/56 55/55/55
f 57/57/57 55/55/55 58/58/58
f 58/58/58 59/59/59 57/57/57
f 60/60/60 59/59/59 58/58/58
f 58/58/58 61/61/61 60/60/60
f 61/61/61 62/62/62 60/60/60
f 63/63/63 62/62/62 61/61/61
f 61/61/61 64/64/64 63/63/63
f 64/64/64 65/65/65 63/63/63
f 66/66/66 65/65/65 64/64/64
f 64/64/64 67/67/67 66/66/66
f 67/67/67 68/68/68 66/66/66
f 69/69/69 68/68/68 67/67/67
f 67/67/67 70/70/70 69/69/69
f 70/70/70 71/71/71 69/69/69
f 72/72/72 71/71/71 70/70/70
f 70/70/70 73/73/73 72/72/72
f 73/73/73 74/74/74 72/72/72
f 75/75/75 74/74/74 73/73/73
f 75/75/75 73/73/73 76/76/76
f 76/76/76 77/77/77 75/75/75
f 78/78/78 77/77/77 76/76/76
f 78/78/78 76/76/76 79/79/79
f 79/79/79 80/80/80 78/78/78
f 81/81/81 80/80/80 79/79/79
f 79/79/79 82/82/82 81/81/81
f 82/82/82 83/83/83 81/81/81
f 84/84/84 83/83/83 82/82/82
f 82/82/82 85/85/85 84/84/84
f 85/85/85 86/86/86 84/84/84
f 87/87/87 86/86/86 85/85/85
f 85/85/85 88/88/88 87/87/87
f 88/88/88 89/89/89 87/87/87
f 92/92/92 91/91/91 90/90/90
f 91/91/91 93/93/93 90/90/90
f 91/91/91 94/94/94 93/93/93
f 93/93/93 94/94/94 95/95/95
f 96/96/96 93/93/93 95/95/95
f 95/95/95 97/97/97 96/96/96
f 96/96/96 97/97/97 98/98/98
f 99/99/99 96/96/96 98/98/98
f 98/98/98 100/100/100 99/99/99
f 99/99/99 100/100/100 101/101/101
f 102/102/102 99/99/99 101/101/101
f 101/101/101 103/103/103 102/102/102
f 102/102/102 103/103/103 104/104/104
f 105/105/105 102/102/102 104/104/104
f 104/104/104 106/106/106 105/105/105
f 105/105/105 106/106/106 107/107/107
f 107/107/107 108/108/108 105/105/105
f 107/107/107 109/109/109 108/108/108
f 108/108/108 109/109/109 110/110/110
f 110/110/110 111/111/111 108/108/108
f 110/110/110 112/112/112 111/111/111
f 111/111/111 112/112/112 113/113/113
f 114/114/114 111/111/111 113/113/113
f 113/113/113 115/115/115 114/114/114
f 114/114/114 115/115/115 116/116/116
f 117/117/117 114/114/114 116/116/116
f 116/116/116 118/118/118 117/117/117
f 117/117/117 118/118/118 119/119/119
f 119/119/119 120/120/120 117/117/117
f 119/119/119 121/121/121 120/120/120
f 120/120/120 121/121/121 122/122/122
f 122/122/122 123/123/123 120/120/120
f 122/122/122 124/124/124 123/123/123
f 123/123/123 124/124/124 125/125/125
f 125/125/125 126/126/126 123/123/123
f 125/125/125 127/127/127 126/126/126
f 126/126/126 127/127/127 128/128/128
f 128/128/128 129/129/129 126/126/126
f 128/128/128 130/130/130 129/129/129
f 129/129/129 130/130/130 131/131/131
f 131/131/131 132/132/132 129/129/129
f 131/131/131 133/133/133 132/132/132
f 132/132/132 133/133/133 134/134/134
f 134/134/134 135/135/135 132/132/132
f 134/134/134 136/136/136 135/135/135
f 135/135/135 136/136/136 137/137/137
f 137/137/137 138/138/138 135/135/135
f 137/137/137 139/139/139 138/138/138
f 138/138/138 139/139/139 140/140/140
f 141/141/141 138/138/138 140/140/140
f 140/140/140 142/142/142 141/141/141
f 145/145/145 144/144/144 143/143/143
f 144/144/144 146/146/146 143/143/143
f 143/143/143 146/146/146 147/147/147
f 146/146/146 148/148/148 147/147/147
f 151/151/151 150/150/150 149/149/149
f 152/152/152 151/151/151 149/149/149
f 155/155/155 154/154/154 153/153/153
f 156/156/156 155/155/155 153/153/153
f 157/157/157 155/155/155 156/156/156
f 158/158/158 157/157/157 156/156/156
f 161/161/161 160/160/160 159/159/159
f 162/162/162 161/161/161 159/159/159
f 163/163/163 161/161/161 162/162/162
f 164/164/164 163/163/163 162/162/162
f 167/167/167 166/166/166 165/165/165
f 166/166/166 168/168/168 165/165/165
f 165/165/165 168/168/168 169/169/169
f 168/168/168 170/170/170 169/169/169
f 173/173/173 172/172/172 171/171/171
f 172/172/172 174/174/174 171/171/171
f 171/171/171 174/174/174 175/175/175
f 174/174/174 176/176/176 175/175/175
f 179/179/179 178/178/178 177/177/177
f 180/180/180 179/179/179 177/177/177
f 181/181/181 179/179/179 180/180/180
f 182/182/182 181/181/181 180/180/180
f 185/185/185 184/184/184 183/183/183
f 186/186/186 185/185/185 183/183/183
f 187/187/187 185/185/185 186/186/186
f 188/188/188 187/187/187 186/186/186
f 189/189/189 187/187/187 188/188/188
f 190/190/190 189/189/189 188/188/188
f 193/193/193 192/192/192 191/191/191
f 192/192/192 194/194/194 191/191/191
f 191/191/191 194/194/194 195/195/195
f 194/194/194 196/196/196 195/195/195
f 195/195/195 196/196/196 197/197/197
f 196/196/196 198/198/198 197/197/197
f 201/201/201 200/200/200 199/199/199
f 200/200/200 202/202/202 199/199/199
f 199/199/199 202/202/202 203/203/203
f 202/202/202 204/204/204 203/203/203
f 207/207/207 206/206/206 205/205/205
f 208/208/208 207/207/207 205/205/205
f 209/209/209 207/207/207 208/208/208
f 210/210/210 209/209/209 208/208/208
f 213/213/213 212/212/212 211/211/211
f 214/214/214 213/213/213 211/211/211
f 215/215/215 213/213/213 214/214/214
f 216/216/216 215/215/215 214/214/214
f 219/219/219 218/218/218 217/217/217
f 218/218/218 220/220/220 217/217/217
f 217/217/217 220/220/220 221/221/221
f 220/220/220 222/222/222 221/221/221
f 225/225/225 224/224/224 223/223/223
f 226/226/226 225/225/225 223/223/223
f 229/229/229 228/228/228 227/227/227
f 228/228/228 230/230/230 227/227/227
f 227/227/227 230/230/230 231/231/231
f 230/230/230 232/232/232 231/231/231
f 235/235/235 234/234/234 233/233/233
f 236/236/236 235/235/235 233/233/233
f 237/237/237 235/235/235 236/236/236
f 238/238/238 237/237/237 236/236/236
f 241/241/241 240/240/240 239/239/239
f 242/242/242 241/241/241 239/239/239
f 243/243/243 241/241/241 242/242/242
f 244/244/244 243/243/243 242/242/242
f 247/247/247 246/246/246 245/245/245
f 246/246/246 248/248/248 245/245/245
f 245/245/245 248/248/248 249/249/249
f 248/248/248 250/250/250 249/249/249
