g potion_speed_liquid
v -0.1345145 -0.6035191 0
v -0.12621 -0.6641929 0
v -0.102106 -0.6641932 -0.07418436
v -0.1088245 -0.6035195 -0.07906569
v -0.1088245 -0.1893846 -0.07906569
v -0.1345145 -0.1893845 0
v -0.1345145 0.2224991 0
v -0.1088245 0.2381214 -0.07906569
v -0.04156727 -0.1893846 -0.1279309
v -0.04156727 0.279021 -0.1279309
v 0.04156727 0.329576 -0.1279309
v -0.04156727 -0.6035195 -0.1279309
v 0.04156727 -0.1893846 -0.1279309
v 0.1088245 -0.1893846 -0.07906564
v 0.1088245 0.3704757 -0.07906564
v -0.03900103 -0.6641932 -0.1200328
v 0.04156727 -0.6035195 -0.1279309
v 0.1345145 -0.1893845 0
v 0.1345145 0.3860978 0
v 0.1088245 -0.6035195 -0.07906564
v 0.1345145 -0.6035191 0
v 0.12621 -0.6641929 0
v 0.102106 -0.6641932 -0.07418436
v 0.03900103 -0.6641932 -0.1200328
v -0.02921722 -0.7172827 -0.0899214
v 0.02921721 -0.7172827 -0.0899214
v 0.07649168 -0.7172827 -0.05557445
v 0.0945489 -0.7172824 0
v 0.12621 -0.6641929 0
v 0.05198815 -0.75099 0
v 0.04205928 -0.7509903 -0.03055791
v -0.000437069 -0.762516 -0.00106802
v 0.01606521 -0.7509903 -0.04944367
v -0.07649168 -0.7172827 -0.0555745
v -0.12621 -0.6641929 0
v -0.09454893 -0.7172824 0
v -0.01606522 -0.7509903 -0.04944367
v -0.04205929 -0.7509903 -0.03055791
v -0.05198817 -0.75099 0
v 0.1345145 -0.6035191 0
v 0.12621 -0.6641929 0
v 0.102106 -0.6641929 0.07418436
v 0.1088245 -0.6035191 0.07906559
v 0.1345145 -0.1893845 0
v 0.1088245 -0.1893845 0.07906559
v 0.1345145 0.3860978 0
v 0.1088245 0.3704756 0.07906559
v 0.04156727 -0.1893845 0.1279308
v 0.04156727 0.329576 0.1279308
v 0.04156727 -0.6035191 0.1279308
v -0.04156727 -0.1893845 0.1279308
v -0.04156727 0.279021 0.1279308
v 0.03900103 -0.6641929 0.1200328
v -0.04156727 -0.6035191 0.1279308
v -0.1088245 -0.1893845 0.07906569
v -0.1088245 0.2381214 0.07906569
v -0.1345145 -0.1893845 0
v -0.1345145 0.2224991 0
v -0.1345145 -0.6035191 0
v -0.1088245 -0.6035191 0.07906569
v -0.12621 -0.6641929 0
v -0.102106 -0.6641929 0.07418436
v -0.03900103 -0.6641929 0.1200328
v -0.02921722 -0.7172824 0.08992135
v -0.07649168 -0.7172824 0.05557445
v -0.09454893 -0.7172824 0
v -0.12621 -0.6641929 0
v -0.05198817 -0.75099 0
v -0.04205929 -0.75099 0.03055786
v -0.000437069 -0.762516 -0.00106802
v 0.02921721 -0.7172824 0.08992135
v -0.01606522 -0.75099 0.04944362
v 0.07649168 -0.7172824 0.05557445
v 0.12621 -0.6641929 0
v 0.0945489 -0.7172824 0
v 0.01606521 -0.75099 0.04944362
v 0.04205928 -0.75099 0.03055786
v 0.05198815 -0.75099 0
v -0.1345145 0.2224991 0
v -0.1088245 0.2381214 -0.07906569
v -0.1088245 0.2381214 0.07906569
v -0.04156727 0.279021 -0.1279309
v -0.04156727 0.279021 0.1279308
v 0.04156727 0.329576 -0.1279309
v 0.04156727 0.329576 0.1279308
v 0.1088245 0.3704757 -0.07906564
v 0.1088245 0.3704756 0.07906559
v 0.1345145 0.3860978 0
vt 0.4575755 0.552628
vt 0.456327 0.5525303
vt 0.456327 0.5522464
vt 0.4575755 0.5523255
vt 0.4660973 0.5523255
vt 0.4660973 0.552628
vt 0.4745727 0.552628
vt 0.4748942 0.5523255
vt 0.4660972 0.5515337
vt 0.4757358 0.5515337
vt 0.4767761 0.5505549
vt 0.4575755 0.5515338
vt 0.4660974 0.5505549
vt 0.4660973 0.5497631
vt 0.4776177 0.5497631
vt 0.456327 0.5515036
vt 0.4575756 0.5505549
vt 0.4660974 0.5494606
vt 0.4779391 0.5494606
vt 0.4575755 0.5497631
vt 0.4575756 0.5494606
vt 0.456327 0.5495584
vt 0.456327 0.5498422
vt 0.456327 0.5505852
vt 0.4552346 0.5513883
vt 0.4552345 0.5507004
vt 0.4552346 0.5501438
vt 0.4552346 0.5499312
vt 0.456327 0.5495584
vt 0.454541 0.5504323
vt 0.454541 0.5505492
vt 0.4543039 0.5510495
vt 0.454541 0.5508552
vt 0.4552346 0.5519449
vt 0.456327 0.5525303
vt 0.4552346 0.5521575
vt 0.454541 0.5512335
vt 0.454541 0.5515395
vt 0.454541 0.5516564
vt 0.4575756 0.5494606
vt 0.456327 0.5495584
vt 0.456327 0.5498422
vt 0.4575755 0.5497631
vt 0.4660974 0.5494606
vt 0.4660973 0.5497631
vt 0.4779391 0.5494606
vt 0.4776177 0.5497631
vt 0.4660974 0.5505549
vt 0.4767761 0.5505549
vt 0.4575756 0.5505549
vt 0.4660972 0.5515337
vt 0.4757358 0.5515337
vt 0.4563271 0.5505852
vt 0.4575755 0.5515338
vt 0.4660973 0.5523255
vt 0.4748942 0.5523255
vt 0.4660973 0.552628
vt 0.4745727 0.552628
vt 0.4575755 0.552628
vt 0.4575755 0.5523255
vt 0.456327 0.5525303
vt 0.456327 0.5522464
vt 0.456327 0.5515036
vt 0.4552346 0.5513883
vt 0.4552346 0.5519449
vt 0.4552346 0.5521575
vt 0.456327 0.5525303
vt 0.454541 0.5516564
vt 0.454541 0.5515395
vt 0.4543039 0.5510495
vt 0.4552345 0.5507004
vt 0.4545411 0.5512335
vt 0.4552346 0.5501438
vt 0.456327 0.5495584
vt 0.4552346 0.5499312
vt 0.454541 0.5508552
vt 0.454541 0.5505491
vt 0.454541 0.5504323
vt 0.5041243 0.552628
vt 0.5038028 0.5523255
vt 0.5038028 0.5523255
vt 0.5029612 0.5515337
vt 0.5029612 0.5515337
vt 0.5019209 0.5505549
vt 0.5019209 0.5505549
vt 0.5010793 0.5497631
vt 0.5010793 0.5497631
vt 0.5007579 0.5494606
vn -0.999862 -0.01661623 0
vn -0.9530722 -0.3027432 0
vn -0.7710518 -0.3027437 -0.5602012
vn -0.808905 -0.0166163 -0.5877044
vn -0.8058226 0 -0.5921571
vn -1 0 0
vn -0.9991595 0.04099073 0
vn -0.7990769 0.2228336 -0.5584098
vn -0.3010224 0 -0.9536171
vn -0.3805708 0.3395572 -0.860155
vn 0.1926324 0.3732066 -0.9075294
vn -0.3089741 -0.01661622 -0.9509252
vn 0.3165985 0 -0.9485596
vn 0.8117967 0 -0.5839401
vn 0.7772124 0.2627726 -0.5717443
vn -0.2945155 -0.3027433 -0.9064255
vn 0.3089744 -0.01661621 -0.9509251
vn 1 0 0
vn 0.9991841 0.04038743 0
vn 0.8089052 -0.01661629 -0.5877044
vn 0.999862 -0.01661623 0
vn 0.9530722 -0.3027431 0
vn 0.7710518 -0.3027437 -0.5602012
vn 0.2945156 -0.3027433 -0.9064254
vn -0.2461369 -0.6046179 -0.7575314
vn 0.246137 -0.604618 -0.7575313
vn 0.6443954 -0.6046182 -0.4681788
vn 0.7965161 -0.6046175 0
vn 0.9530722 -0.3027431 0
vn 0.5499626 -0.8351892 0.0002210712
vn 0.4460413 -0.8343953 -0.3237771
vn -0.000917356 -0.9999971 -0.002239082
vn 0.1707899 -0.8337085 -0.5251294
vn -0.6443953 -0.6046183 -0.468179
vn -0.9530722 -0.3027432 0
vn -0.796516 -0.6046174 0
vn -0.1707671 -0.8334 -0.5256262
vn -0.4469599 -0.8335938 -0.324574
vn -0.5514464 -0.8342102 0.0002251751
vn 0.999862 -0.01661623 0
vn 0.9530722 -0.3027431 0
vn 0.7710515 -0.3027433 0.5602019
vn 0.8089052 -0.01661624 0.5877042
vn 1 0 0
vn 0.8117965 0 0.5839403
vn 0.9991841 0.04038743 0
vn 0.7772121 0.2627726 0.5717446
vn 0.3165984 0 0.9485596
vn 0.192632 0.3732068 0.9075294
vn 0.3089743 -0.01661624 0.9509252
vn -0.301022 0 0.9536172
vn -0.3805705 0.3395574 0.860155
vn 0.2945154 -0.3027432 0.9064256
vn -0.3089738 -0.01661628 0.9509254
vn -0.8058224 0 0.5921572
vn -0.7990767 0.2228336 0.5584099
vn -1 0 0
vn -0.9991595 0.04099073 0
vn -0.999862 -0.01661623 0
vn -0.8089052 -0.01661628 0.5877044
vn -0.9530722 -0.3027432 0
vn -0.7710513 -0.3027434 0.5602019
vn -0.2945152 -0.3027433 0.9064256
vn -0.2461368 -0.6046176 0.7575318
vn -0.6443947 -0.6046177 0.4681804
vn -0.796516 -0.6046174 0
vn -0.9530722 -0.3027432 0
vn -0.5514464 -0.8342102 0.0002251751
vn -0.445016 -0.8350081 0.3236079
vn -0.000917356 -0.9999971 -0.002239082
vn 0.2461368 -0.6046176 0.7575318
vn -0.1695734 -0.8356801 0.5223827
vn 0.6443947 -0.6046177 0.4681804
vn 0.9530722 -0.3027431 0
vn 0.7965161 -0.6046175 0
vn 0.1695939 -0.8359768 0.5219009
vn 0.4441167 -0.8357909 0.3228218
vn 0.5499626 -0.8351892 0.0002210712
vn -0.9991595 0.04099073 0
vn -0.7990769 0.2228336 -0.5584098
vn -0.7990767 0.2228336 0.5584099
vn -0.3805708 0.3395572 -0.860155
vn -0.3805705 0.3395574 0.860155
vn 0.1926324 0.3732066 -0.9075294
vn 0.192632 0.3732068 0.9075294
vn 0.7772124 0.2627726 -0.5717443
vn 0.7772121 0.2627726 0.5717446
vn 0.9991841 0.04038743 0
g potion_speed_liquid_0
f 3/3/3 2/2/2 1/1/1
f 4/4/4 3/3/3 1/1/1
f 5/5/5 4/4/4 1/1/1
f 6/6/6 5/5/5 1/1/1
f 6/6/6 7/7/7 5/5/5
f 7/7/7 8/8/8 5/5/5
f 5/5/5 8/8/8 9/9/9
f 5/5/5 9/9/9 4/4/4
f 8/8/8 10/10/10 9/9/9
f 10/10/10 11/11/11 9/9/9
f 9/9/9 12/12/12 4/4/4
f 11/11/11 13/13/13 9/9/9
f 9/9/9 13/13/13 12/12/12
f 13/13/13 11/11/11 14/14/14
f 11/11/11 15/15/15 14/14/14
f 16/16/16 3/3/3 4/4/4
f 12/12/12 16/16/16 4/4/4
f 13/13/13 17/17/17 12/12/12
f 13/13/13 14/14/14 17/17/17
f 14/14/14 15/15/15 18/18/18
f 15/15/15 19/19/19 18/18/18
f 14/14/14 18/18/18 20/20/20
f 14/14/14 20/20/20 17/17/17
f 18/18/18 21/21/21 20/20/20
f 21/21/21 22/22/22 20/20/20
f 22/22/22 23/23/23 20/20/20
f 20/20/20 23/23/23 17/17/17
f 17/17/17 24/24/24 12/12/12
f 24/24/24 16/16/16 12/12/12
f 23/23/23 24/24/24 17/17/17
f 16/16/16 25/25/25 3/3/3
f 24/24/24 26/26/26 16/16/16
f 26/26/26 25/25/25 16/16/16
f 23/23/23 27/27/27 24/24/24
f 27/27/27 26/26/26 24/24/24
f 28/28/28 27/27/27 23/23/23
f 29/29/29 28/28/28 23/23/23
f 28/28/28 30/30/30 27/27/27
f 30/30/30 31/31/31 27/27/27
f 27/27/27 31/31/31 26/26/26
f 30/30/30 32/32/32 31/31/31
f 31/31/31 33/33/33 26/26/26
f 26/26/26 33/33/33 25/25/25
f 31/31/31 32/32/32 33/33/33
f 25/25/25 34/34/34 3/3/3
f 3/3/3 34/34/34 35/35/35
f 34/34/34 36/36/36 35/35/35
f 33/33/33 37/37/37 25/25/25
f 33/33/33 32/32/32 37/37/37
f 25/25/25 37/37/37 34/34/34
f 34/34/34 38/38/38 36/36/36
f 37/37/37 38/38/38 34/34/34
f 37/37/37 32/32/32 38/38/38
f 38/38/38 39/39/39 36/36/36
f 38/38/38 32/32/32 39/39/39
f 42/42/42 41/41/41 40/40/40
f 43/43/43 42/42/42 40/40/40
f 40/40/40 44/44/44 43/43/43
f 44/44/44 45/45/45 43/43/43
f 44/44/44 46/46/46 45/45/45
f 46/46/46 47/47/47 45/45/45
f 45/45/45 47/47/47 48/48/48
f 47/47/47 49/49/49 48/48/48
f 43/43/43 45/45/45 50/50/50
f 45/45/45 48/48/48 50/50/50
f 48/48/48 49/49/49 51/51/51
f 49/49/49 52/52/52 51/51/51
f 53/53/53 42/42/42 43/43/43
f 50/50/50 53/53/53 43/43/43
f 50/50/50 48/48/48 54/54/54
f 48/48/48 51/51/51 54/54/54
f 51/51/51 52/52/52 55/55/55
f 52/52/52 56/56/56 55/55/55
f 55/55/55 56/56/56 57/57/57
f 56/56/56 58/58/58 57/57/57
f 55/55/55 57/57/57 59/59/59
f 51/51/51 55/55/55 60/60/60
f 60/60/60 55/55/55 59/59/59
f 54/54/54 51/51/51 60/60/60
f 59/59/59 61/61/61 60/60/60
f 61/61/61 62/62/62 60/60/60
f 60/60/60 62/62/62 54/54/54
f 54/54/54 63/63/63 50/50/50
f 63/63/63 53/53/53 50/50/50
f 62/62/62 63/63/63 54/54/54
f 63/63/63 64/64/64 53/53/53
f 62/62/62 65/65/65 63/63/63
f 65/65/65 64/64/64 63/63/63
f 66/66/66 65/65/65 62/62/62
f 67/67/67 66/66/66 62/62/62
f 66/66/66 68/68/68 65/65/65
f 68/68/68 69/69/69 65/65/65
f 65/65/65 69/69/69 64/64/64
f 68/68/68 70/70/70 69/69/69
f 64/64/64 71/71/71 53/53/53
f 53/53/53 71/71/71 42/42/42
f 69/69/69 72/72/72 64/64/64
f 69/69/69 70/70/70 72/72/72
f 64/64/64 72/72/72 71/71/71
f 71/71/71 73/73/73 42/42/42
f 42/42/42 73/73/73 74/74/74
f 73/73/73 75/75/75 74/74/74
f 72/72/72 76/76/76 71/71/71
f 72/72/72 70/70/70 76/76/76
f 71/71/71 76/76/76 73/73/73
f 73/73/73 77/77/77 75/75/75
f 76/76/76 77/77/77 73/73/73
f 76/76/76 70/70/70 77/77/77
f 77/77/77 78/78/78 75/75/75
f 77/77/77 70/70/70 78/78/78
f 81/81/81 80/80/80 79/79/79
f 80/80/80 81/81/81 82/82/82
f 81/81/81 83/83/83 82/82/82
f 84/84/84 82/82/82 83/83/83
f 85/85/85 84/84/84 83/83/83
f 84/84/84 85/85/85 86/86/86
f 85/85/85 87/87/87 86/86/86
f 88/88/88 86/86/86 87/87/87
