g potion_coin_liquid
v 0.5 0.951908 -0.1769364
v 0.5 0.951908 0.1771452
v -0.5 0.951908 0.1771452
v -0.5 0.951908 -0.1769364
v 0.5 0.2756588 -0.1769364
v 0.5 0.951908 0.1771452
v 0.5 0.951908 -0.1769364
v 0.5 0.2756588 0.1771452
v 0.3749576 0.1358486 -0.1769364
v 0.3749576 0.1358486 0.1771452
v -0.3749576 0.1358486 0.1771452
v -0.3749576 0.1358486 -0.1769364
v -0.5 0.2756588 0.1771452
v -0.5 0.2756588 -0.1769364
v -0.5 0.951908 0.1771452
v -0.5 0.951908 -0.1769364
v 0.3749576 0.1358486 -0.1769364
v -0.5 0.2756588 -0.1769364
v -0.3749576 0.1358486 -0.1769364
v 0.5 0.2756588 -0.1769364
v -0.2074422 0.4444103 -0.1769364
v 0.2113869 0.4444103 -0.1769364
v -0.2074422 0.8437698 -0.1769364
v 0.5 0.951908 -0.1769364
v -0.5 0.951908 -0.1769364
v 0.2113869 0.8437698 -0.1769364
v 0.3749576 0.1358486 0.1771452
v -0.3749576 0.1358486 0.1771452
v -0.5 0.2756588 0.1771452
v 0.5 0.2756588 0.1771452
v -0.2074422 0.4444103 0.1771452
v 0.2113869 0.4444103 0.1771452
v -0.2074422 0.8437698 0.1771452
v 0.5 0.951908 0.1771452
v -0.5 0.951908 0.1771452
v 0.2113869 0.8437698 0.1771452
v -0.2074422 0.4444103 -0.1769364
v -0.2074422 0.4444103 0.1771452
v -0.2074422 0.8437698 0.1771452
v 0.2113869 0.4444103 0.1771452
v -0.2074422 0.8437698 -0.1769364
v 0.2113869 0.4444103 -0.1769364
v 0.2113869 0.8437698 0.1771452
v 0.2113869 0.8437698 -0.1769364
vt 0.9305916 0.3096381
vt 0.9305916 0.3096381
vt 0.9305916 0.2873596
vt 0.9305916 0.2873596
vt 0.9589028 0.3096381
vt 0.9744833 0.3096381
vt 0.9744833 0.3096381
vt 0.9589028 0.3096381
vt 0.9556817 0.3068523
vt 0.9556817 0.3068523
vt 0.9556817 0.2901453
vt 0.9556817 0.2901453
vt 0.9589028 0.2873596
vt 0.9589028 0.2873596
vt 0.9744833 0.2873596
vt 0.9744833 0.2873596
vt 0.9556817 0.3068523
vt 0.9589028 0.2873596
vt 0.9556817 0.2901453
vt 0.9589028 0.3096381
vt 0.9627908 0.2938773
vt 0.9627909 0.3032083
vt 0.9719918 0.2938773
vt 0.9744833 0.3096381
vt 0.9744833 0.2873596
vt 0.9719918 0.3032082
vt 0.9556817 0.3068523
vt 0.9556817 0.2901453
vt 0.9589028 0.2873596
vt 0.9589028 0.3096381
vt 0.9627908 0.2938773
vt 0.9627909 0.3032083
vt 0.9719918 0.2938773
vt 0.9744833 0.3096381
vt 0.9744833 0.2873596
vt 0.9719918 0.3032082
vt 0.9627908 0.2938773
vt 0.9627908 0.2938773
vt 0.9719918 0.2938773
vt 0.9627909 0.3032083
vt 0.9719918 0.2938773
vt 0.9627909 0.3032083
vt 0.9719918 0.3032082
vt 0.9719918 0.3032082
vn 0.4082482 0.4082483 -0.8164966
vn 0.4082483 0.4082483 0.8164966
vn -0.4082483 0.4082483 0.8164966
vn -0.4082482 0.4082483 -0.8164966
vn 0.4938497 -0.1886252 -0.8488421
vn 0.4082483 0.4082483 0.8164966
vn 0.4082482 0.4082483 -0.8164966
vn 0.4938497 -0.1886252 0.8488421
vn 0.358069 -0.800634 -0.4803869
vn 0.358069 -0.800634 0.4803869
vn -0.358069 -0.800634 0.4803869
vn -0.358069 -0.800634 -0.4803869
vn -0.4938497 -0.1886252 0.8488421
vn -0.4938497 -0.1886252 -0.8488421
vn -0.4082483 0.4082483 0.8164966
vn -0.4082482 0.4082483 -0.8164966
vn 0.358069 -0.800634 -0.4803869
vn -0.4938497 -0.1886252 -0.8488421
vn -0.358069 -0.800634 -0.4803869
vn 0.4938497 -0.1886252 -0.8488421
vn 0.4082483 0.4082483 -0.8164966
vn -0.4082483 0.4082483 -0.8164966
vn 0.4082483 -0.4082483 -0.8164966
vn 0.4082482 0.4082483 -0.8164966
vn -0.4082482 0.4082483 -0.8164966
vn -0.4082483 -0.4082483 -0.8164966
vn 0.358069 -0.800634 0.4803869
vn -0.358069 -0.800634 0.4803869
vn -0.4938497 -0.1886252 0.8488421
vn 0.4938497 -0.1886252 0.8488421
vn 0.4082482 0.4082483 0.8164966
vn -0.4082482 0.4082483 0.8164966
vn 0.4082482 -0.4082483 0.8164966
vn 0.4082483 0.4082483 0.8164966
vn -0.4082483 0.4082483 0.8164966
vn -0.4082482 -0.4082483 0.8164966
vn 0.4082483 0.4082483 -0.8164966
vn 0.4082482 0.4082483 0.8164966
vn 0.4082482 -0.4082483 0.8164966
vn -0.4082482 0.4082483 0.8164966
vn 0.4082483 -0.4082483 -0.8164966
vn -0.4082483 0.4082483 -0.8164966
vn -0.4082482 -0.4082483 0.8164966
vn -0.4082483 -0.4082483 -0.8164966
g potion_coin_liquid_0
f 3/3/3 2/2/2 1/1/1
f 4/4/4 3/3/3 1/1/1
f 7/7/7 6/6/6 5/5/5
f 6/6/6 8/8/8 5/5/5
f 5/5/5 8/8/8 9/9/9
f 8/8/8 10/10/10 9/9/9
f 10/10/10 11/11/11 9/9/9
f 11/11/11 12/12/12 9/9/9
f 11/11/11 13/13/13 12/12/12
f 13/13/13 14/14/14 12/12/12
f 13/13/13 15/15/15 14/14/14
f 15/15/15 16/16/16 14/14/14
f 19/19/19 18/18/18 17/17/17
f 18/18/18 20/20/20 17/17/17
f 18/18/18 21/21/21 20/20/20
f 21/21/21 22/22/22 20/20/20
f 23/23/23 21/21/21 18/18/18
f 24/24/24 20/20/20 22/22/22
f 25/25/25 23/23/23 18/18/18
f 26/26/26 24/24/24 22/22/22
f 23/23/23 25/25/25 26/26/26
f 25/25/25 24/24/24 26/26/26
f 29/29/29 28/28/28 27/27/27
f 30/30/30 29/29/29 27/27/27
f 31/31/31 29/29/29 30/30/30
f 32/32/32 31/31/31 30/30/30
f 31/31/31 33/33/33 29/29/29
f 30/30/30 34/34/34 32/32/32
f 33/33/33 35/35/35 29/29/29
f 34/34/34 36/36/36 32/32/32
f 35/35/35 33/33/33 36/36/36
f 34/34/34 35/35/35 36/36/36
f 39/39/39 38/38/38 37/37/37
f 38/38/38 40/40/40 37/37/37
f 41/41/41 39/39/39 37/37/37
f 40/40/40 42/42/42 37/37/37
f 43/43/43 39/39/39 41/41/41
f 40/40/40 43/43/43 42/42/42
f 44/44/44 43/43/43 41/41/41
f 43/43/43 44/44/44 42/42/42
