g powerSlamFire1_mesh
v 0.1514559 0.1150843 -0.1541575
v -0.04602353 -0.02273086 -0.1765305
v 0.3363563 0.1948343 -0.4058241
v 0.1514559 0.1150843 -0.1541575
v 0.3363563 0.1948343 -0.4058241
v -0.05203091 0.1050037 -0.1765305
v -0.1080717 0.008352716 0.212702
v -0.07767324 -0.1162909 0.212702
v -0.3770205 -0.1859309 0.3431039
v 0.3363563 0.1948343 -0.4058241
v -0.04602353 -0.02273086 -0.1765305
v -0.05203091 0.1050037 -0.1765305
v -0.04602353 -0.02273086 -0.1765305
v 0.04588445 -0.1147275 -0.06489611
v -0.1214986 -0.0919082 -0.08811357
v -0.1214986 -0.0919082 -0.08811357
v 0.04588445 -0.1147275 -0.06489611
v -0.07122633 -0.08744454 -0.003692053
v -0.07122633 -0.08744454 -0.003692053
v 0.04588445 -0.1147275 -0.06489611
v 0.009179745 -0.04732301 0.05607693
v 0.1514559 0.1150843 -0.1541575
v 0.04588445 -0.1147275 -0.06489611
v -0.04602353 -0.02273086 -0.1765305
v 0.009179745 -0.04732301 0.05607693
v 0.04588445 -0.1147275 -0.06489611
v 0.1095188 0.06850232 -0.02295997
v 0.1095188 0.06850232 -0.02295997
v 0.04588445 -0.1147275 -0.06489611
v 0.1514559 0.1150843 -0.1541575
v -0.1331447 0.01748287 -0.08811357
v -0.004476513 0.1562001 -0.06489611
v -0.05203091 0.1050037 -0.1765305
v 0.1514559 0.1150843 -0.1541575
v -0.004476513 0.1562001 -0.06489611
v 0.1095188 0.06850232 -0.02295997
v 0.1095188 0.06850232 -0.02295997
v -0.004476513 0.1562001 -0.06489611
v -0.01376945 0.07880241 0.05607693
v -0.05203091 0.1050037 -0.1765305
v -0.004476513 0.1562001 -0.06489611
v 0.1514559 0.1150843 -0.1541575
v 0.1095188 0.06850232 -0.02295997
v 0.02254698 -0.05932871 0.1211363
v 0.009179745 -0.04732301 0.05607693
v 0.1197433 0.03720444 0.1113086
v -0.07767324 -0.1162909 0.212702
v -0.07955701 -0.05555623 0.2991656
v -0.3770205 -0.1859309 0.3431039
v 0.1095188 0.06850232 -0.02295997
v -0.01376945 0.07880241 0.05607693
v -0.004336949 0.0667589 0.1211363
v 0.1197433 0.03720444 0.1113086
v -0.1080717 0.008352716 0.212702
v -0.07955701 -0.05555623 0.2991656
v -0.3770205 -0.1859309 0.3431039
v -0.01376945 0.07880241 0.05607693
v 0.009179745 -0.04732301 0.05607693
v 0.02254698 -0.05932871 0.1211363
v -0.004336949 0.0667589 0.1211363
v -0.004336949 0.0667589 0.1211363
v 0.02254698 -0.05932871 0.1211363
v -0.07767324 -0.1162909 0.212702
v -0.1080717 0.008352716 0.212702
v -0.05203091 0.1050037 -0.1765305
v -0.04602353 -0.02273086 -0.1765305
v -0.1214986 -0.0919082 -0.08811357
v -0.1331447 0.01748287 -0.08811357
v -0.1331447 0.01748287 -0.08811357
v -0.1214986 -0.0919082 -0.08811357
v -0.07122633 -0.08744454 -0.003692053
v -0.0888887 0.02107841 -0.003692053
v -0.0888887 0.02107841 -0.003692053
v -0.07122633 -0.08744454 -0.003692053
v 0.009179745 -0.04732301 0.05607693
v -0.01376945 0.07880241 0.05607693
v -0.01376945 0.07880241 0.05607693
v -0.004476513 0.1562001 -0.06489611
v -0.0888887 0.02107841 -0.003692053
v -0.1331447 0.01748287 -0.08811357
vt 0.3242047 0.4384784
vt 0.3149568 0.4435773
vt 0.3242047 0.4435773
vt 0.3242047 0.4384784
vt 0.3242047 0.4435773
vt 0.3149568 0.4435773
vt 0.3149568 0.4384784
vt 0.3149568 0.4384784
vt 0.3149568 0.4339645
vt 0.3242047 0.4435773
vt 0.3149568 0.4435773
vt 0.3149568 0.4435773
vt 0.3149568 0.4435773
vt 0.3094259 0.4407616
vt 0.3149568 0.4427927
vt 0.3149568 0.4427927
vt 0.3094259 0.4407616
vt 0.3149568 0.441971
vt 0.3149568 0.441971
vt 0.3094259 0.4407616
vt 0.3149568 0.4412858
vt 0.3242047 0.4384784
vt 0.3094259 0.4407616
vt 0.3149568 0.4435773
vt 0.3149568 0.4412858
vt 0.3094259 0.4407616
vt 0.3242047 0.4364642
vt 0.3242047 0.4364642
vt 0.3094259 0.4407616
vt 0.3242047 0.4384784
vt 0.3149568 0.4427927
vt 0.3094259 0.4407616
vt 0.3149568 0.4435773
vt 0.3242047 0.4384784
vt 0.3094259 0.4407616
vt 0.3242047 0.4364642
vt 0.3242047 0.4364642
vt 0.3094259 0.4407616
vt 0.3149568 0.4412858
vt 0.3149568 0.4435773
vt 0.3094259 0.4407616
vt 0.3242047 0.4384784
vt 0.3242047 0.4364642
vt 0.3149568 0.4406542
vt 0.3149568 0.4412858
vt 0.3242047 0.4339645
vt 0.3149568 0.4384784
vt 0.3209485 0.4339645
vt 0.3149568 0.4339645
vt 0.3242047 0.4364642
vt 0.3149568 0.4412858
vt 0.3149568 0.4406542
vt 0.3242047 0.4339645
vt 0.3149568 0.4384784
vt 0.3209485 0.4339645
vt 0.3149568 0.4339645
vt 0.3149568 0.4412858
vt 0.3149568 0.4412858
vt 0.3149568 0.4406542
vt 0.3149568 0.4406542
vt 0.3149568 0.4406542
vt 0.3149568 0.4406542
vt 0.3149568 0.4384784
vt 0.3149568 0.4384784
vt 0.3149568 0.4435773
vt 0.3149568 0.4435773
vt 0.3149568 0.4427927
vt 0.3149568 0.4427927
vt 0.3149568 0.4427927
vt 0.3149568 0.4427927
vt 0.3149568 0.441971
vt 0.3149568 0.441971
vt 0.3149568 0.441971
vt 0.3149568 0.441971
vt 0.3149568 0.4412858
vt 0.3149568 0.4412858
vt 0.3149568 0.4412858
vt 0.3094259 0.4407616
vt 0.3149568 0.441971
vt 0.3149568 0.4427927
vn -0.5546517 0.8188084 -0.1480346
vn -0.5546517 0.8188084 -0.1480346
vn -0.5546517 0.8188084 -0.1480346
vn 0.07535541 -0.965182 -0.25049
vn 0.07535541 -0.965182 -0.2504901
vn 0.0753554 -0.965182 -0.25049
vn 0.3794835 0.09254957 0.9205579
vn 0.3794835 0.09254957 0.9205579
vn 0.3794835 0.09254957 0.9205579
vn 0.5041724 0.02371135 0.8632775
vn 0.5041723 0.02371135 0.8632775
vn 0.5041724 0.02371135 0.8632775
vn 0.01937485 0.7793438 0.626297
vn 0.01937485 0.7793438 0.6262969
vn 0.01937485 0.7793438 0.6262969
vn 0.1531255 0.9778222 -0.1428858
vn 0.1531256 0.9778222 -0.1428858
vn 0.1531255 0.9778222 -0.1428858
vn -0.0598009 0.8641641 -0.4996442
vn -0.05980091 0.8641641 -0.4996442
vn -0.0598009 0.8641641 -0.4996442
vn -0.4288292 0.4914235 0.7580293
vn -0.4288292 0.4914235 0.7580294
vn -0.4288292 0.4914234 0.7580294
vn -0.8025635 0.3833419 -0.4571002
vn -0.8025635 0.383342 -0.4571002
vn -0.8025635 0.3833419 -0.4571002
vn -0.9189487 0.3573354 -0.1668674
vn -0.9189487 0.3573354 -0.1668674
vn -0.9189487 0.3573354 -0.1668674
vn 0.7332035 -0.6800092 -0.000475326
vn 0.7332035 -0.6800092 -0.0004753259
vn 0.7332035 -0.6800092 -0.0004753259
vn -0.4495962 -0.7867053 -0.4230342
vn -0.4495962 -0.7867054 -0.4230343
vn -0.4495962 -0.7867054 -0.4230342
vn -0.394611 -0.7599324 -0.5165123
vn -0.3946109 -0.7599324 -0.5165123
vn -0.3946109 -0.7599324 -0.5165123
vn -0.0008423057 -0.908834 0.4171571
vn -0.0008423057 -0.908834 0.4171571
vn -0.0008423057 -0.908834 0.4171571
vn -0.6614423 0.7128366 0.2331481
vn -0.7074493 0.6714171 -0.2207137
vn -0.6614424 0.7128365 0.2331481
vn -0.7034671 0.7107211 0.003081592
vn -0.5842165 0.6697445 -0.4584031
vn -0.548535 0.6878023 -0.4754338
vn -0.4046569 0.744136 -0.5315208
vn -0.2211686 -0.9572688 -0.1863355
vn -0.2211686 -0.9572688 -0.1863355
vn -0.1917082 -0.8541623 -0.4833783
vn -0.2028608 -0.895164 -0.3968994
vn -0.04340783 -0.7803138 -0.6238798
vn 0.06495223 -0.7732177 -0.6308055
vn 0.2333573 -0.7435977 -0.6265834
vn 0.9720757 0.1920661 -0.134831
vn 0.9720757 0.1920662 -0.1348311
vn 0.9720757 0.1920661 -0.134831
vn 0.9720757 0.1920661 -0.134831
vn 0.6161774 0.1407727 0.7749249
vn 0.6161774 0.1407726 0.7749249
vn 0.6161774 0.1407727 0.7749249
vn 0.6161774 0.1407727 0.7749249
vn 0.7234105 0.05385634 0.6883144
vn 0.7234104 0.05385634 0.6883144
vn 0.7234104 0.05385634 0.6883144
vn 0.7234104 0.05385634 0.6883144
vn 0.864268 0.1162402 -0.4894169
vn 0.864268 0.1162402 -0.4894169
vn 0.864268 0.1162402 -0.489417
vn 0.864268 0.1162402 -0.4894169
vn 0.5669208 0.09811933 -0.817908
vn 0.5669208 0.09811933 -0.817908
vn 0.5669208 0.09811933 -0.817908
vn 0.5669208 0.09811933 -0.817908
vn 0.7261215 -0.6031401 -0.3301052
vn 0.7261215 -0.6031401 -0.3301052
vn 0.7261215 -0.6031401 -0.3301052
vn 0.7154188 -0.6051342 -0.3492687
g powerSlamFire1_mesh_0
f 3/3/3 2/2/2 1/1/1
f 6/6/6 5/5/5 4/4/4
f 9/9/9 8/8/8 7/7/7
f 12/12/12 11/11/11 10/10/10
f 15/15/15 14/14/14 13/13/13
f 18/18/18 17/17/17 16/16/16
f 21/21/21 20/20/20 19/19/19
f 24/24/24 23/23/23 22/22/22
f 27/27/27 26/26/26 25/25/25
f 30/30/30 29/29/29 28/28/28
f 33/33/33 32/32/32 31/31/31
f 36/36/36 35/35/35 34/34/34
f 39/39/39 38/38/38 37/37/37
f 42/42/42 41/41/41 40/40/40
f 45/45/45 44/44/44 43/43/43
f 44/44/44 46/46/46 43/43/43
f 44/44/44 47/47/47 46/46/46
f 47/47/47 48/48/48 46/46/46
f 47/47/47 49/49/49 48/48/48
f 52/52/52 51/51/51 50/50/50
f 53/53/53 52/52/52 50/50/50
f 54/54/54 52/52/52 53/53/53
f 55/55/55 54/54/54 53/53/53
f 56/56/56 54/54/54 55/55/55
f 59/59/59 58/58/58 57/57/57
f 60/60/60 59/59/59 57/57/57
f 63/63/63 62/62/62 61/61/61
f 64/64/64 63/63/63 61/61/61
f 67/67/67 66/66/66 65/65/65
f 68/68/68 67/67/67 65/65/65
f 71/71/71 70/70/70 69/69/69
f 72/72/72 71/71/71 69/69/69
f 75/75/75 74/74/74 73/73/73
f 76/76/76 75/75/75 73/73/73
f 79/79/79 78/78/78 77/77/77
f 80/80/80 78/78/78 79/79/79
