g powerSlamDustLow1_mesh
v 0.1977583 0.05099813 -0.2314508
v 0.2511041 -0.2221462 -0.1509133
v 0.3955972 -0.1029285 -0.07961847
v 0.05449489 -0.0005863979 -0.2914066
v 0.02500324 -0.2929008 -0.2084285
v 0.09100915 -0.207533 -0.1796695
v -0.08227313 -0.3342368 -0.2244014
v 0.05449489 -0.0005863979 -0.2914066
v -0.1190626 0.0559677 -0.1969904
v 0.009874159 0.1675774 -0.2332746
v -0.003621825 0.2816216 -0.07103887
v -0.2193649 0.2319126 -0.07175285
v -0.3353193 -0.09300599 -0.06192973
v -0.220751 -0.1008934 -0.08307286
v -0.4071667 -0.03397266 -0.02020654
v -0.1190626 0.0559677 -0.1969904
v 0.2511041 -0.2221462 -0.1509133
v 0.1977583 0.05099813 -0.2314508
v 0.009874159 0.1675774 -0.2332746
v 0.3955972 -0.1029285 -0.07961847
v 0.2039021 0.1815699 -0.1389962
v 0.2039021 0.1815699 -0.1389962
v 0.009874159 0.1675774 -0.2332746
v 0.3955972 -0.1029285 -0.07961847
v 0.4324177 -0.003622456 -0.01952481
v 0.2039021 0.1815699 -0.1389962
v 0.3432986 0.259756 0.09586877
v 0.2517121 0.3152493 0.1597203
v 0.2039021 0.1815699 -0.1389962
v -0.003621825 0.2816216 -0.07103887
v 0.1598499 0.3159453 0.1904553
v 0.07010928 0.2841957 0.1954276
v 0.2517121 0.3152493 0.1597203
v 0.2039021 0.1815699 -0.1389962
v -0.003621825 0.2816216 -0.07103887
v 0.009874159 0.1675774 -0.2332746
v -0.1190626 0.0559677 -0.1969904
v -0.2643412 -0.2219355 -0.1382459
v -0.2136885 -0.3006083 -0.2020884
v -0.2136885 -0.3006083 -0.2020884
v -0.08227313 -0.3342368 -0.2244014
v -0.1190626 0.0559677 -0.1969904
v -0.003621825 0.2816216 -0.07103887
v -0.01379874 0.3723149 0.2472302
v -0.1675518 0.3936544 0.2512695
v -0.2193649 0.2319126 -0.07175285
v -0.4139121 0.2181626 0.1434251
v -0.4265595 0.07166865 0.04881911
v 0.009874159 0.1675774 -0.2332746
v -0.2193649 0.2319126 -0.07175285
v -0.1190626 0.0559677 -0.1969904
v -0.1675518 0.3936544 0.2512695
v -0.2193649 0.2319126 -0.07175285
v -0.003621825 0.2816216 -0.07103887
v -0.4265595 0.07166865 0.04881911
v -0.4071667 -0.03397266 -0.02020654
v -0.2193649 0.2319126 -0.07175285
v -0.220751 -0.1008934 -0.08307286
v -0.2643412 -0.2219355 -0.1382459
v -0.1190626 0.0559677 -0.1969904
v 0.07010928 0.2841957 0.1954276
v -0.01379874 0.3723149 0.2472302
v -0.003621825 0.2816216 -0.07103887
v 0.09100915 -0.207533 -0.1796695
v 0.2511041 -0.2221462 -0.1509133
v 0.05449489 -0.0005863979 -0.2914066
v 0.2517121 0.3152493 0.1597203
v 0.1598499 0.3159453 0.1904553
v -0.003621825 0.2816216 -0.07103887
v -0.1675518 0.3936544 0.2512695
v -0.3179277 0.3418287 0.214874
v -0.2193649 0.2319126 -0.07175285
v -0.3179277 0.3418287 0.214874
v -0.4139121 0.2181626 0.1434251
v -0.2193649 0.2319126 -0.07175285
v -0.4071667 -0.03397266 -0.02020654
v -0.1190626 0.0559677 -0.1969904
v -0.2193649 0.2319126 -0.07175285
v 0.2039021 0.1815699 -0.1389962
v 0.4258117 0.1250623 0.05548858
v 0.3432986 0.259756 0.09586877
v 0.4324177 -0.003622456 -0.01952481
vt 0.5816611 0.3386448
vt 0.5743633 0.3391953
vt 0.5743668 0.3391816
vt 0.581659 0.3386379
vt 0.574342 0.3392043
vt 0.5730796 0.3396524
vt 0.574334 0.339201
vt 0.581659 0.3386379
vt 0.5816568 0.3385574
vt 0.5838692 0.3383824
vt 0.5830632 0.3395031
vt 0.5829344 0.3384555
vt 0.5743135 0.3391679
vt 0.5730494 0.3399519
vt 0.574315 0.3391619
vt 0.5816568 0.3385574
vt 0.5743633 0.3391953
vt 0.5816611 0.3386448
vt 0.5838692 0.3383824
vt 0.5743668 0.3391816
vt 0.582936 0.3385856
vt 0.582936 0.3385856
vt 0.5838692 0.3383824
vt 0.5743668 0.3391816
vt 0.5743686 0.3391747
vt 0.582936 0.3385856
vt 0.5770923 0.3379939
vt 0.5778958 0.3379795
vt 0.582936 0.3385856
vt 0.5830632 0.3395031
vt 0.5785794 0.3379671
vt 0.5787049 0.3400186
vt 0.5778958 0.3379795
vt 0.582936 0.3385856
vt 0.5830632 0.3395031
vt 0.5838692 0.3383824
vt 0.5816568 0.3385574
vt 0.5743204 0.3391953
vt 0.5743256 0.3391975
vt 0.5743256 0.3391975
vt 0.574334 0.339201
vt 0.5816568 0.3385574
vt 0.5830632 0.3395031
vt 0.5807437 0.3391315
vt 0.5795345 0.3391337
vt 0.5829344 0.3384555
vt 0.5743204 0.3391404
vt 0.574317 0.3391542
vt 0.5838692 0.3383824
vt 0.5829344 0.3384555
vt 0.5816568 0.3385574
vt 0.5795345 0.3391337
vt 0.5829344 0.3384555
vt 0.5830632 0.3395031
vt 0.574317 0.3391542
vt 0.574315 0.3391619
vt 0.5829344 0.3384555
vt 0.5730494 0.3399519
vt 0.5743204 0.3391953
vt 0.5816568 0.3385574
vt 0.5787049 0.3400186
vt 0.5807437 0.3391315
vt 0.5830632 0.3395031
vt 0.5730796 0.3396524
vt 0.5743633 0.3391953
vt 0.581659 0.3386379
vt 0.5778958 0.3379795
vt 0.5785794 0.3379671
vt 0.5830632 0.3395031
vt 0.5795345 0.3391337
vt 0.5767347 0.3391373
vt 0.5829344 0.3384555
vt 0.5767347 0.3391373
vt 0.5743204 0.3391404
vt 0.5829344 0.3384555
vt 0.574315 0.3391619
vt 0.5816568 0.3385574
vt 0.5829344 0.3384555
vt 0.582936 0.3385856
vt 0.5743703 0.3391679
vt 0.5770923 0.3379939
vt 0.5743686 0.3391747
vn 0.5119441 0.2370139 -0.8256741
vn 0.5049266 -0.1519197 -0.8496879
vn 0.5302323 -0.1428618 -0.8357297
vn -0.01181137 0.06659294 -0.9977103
vn -0.2015503 -0.1004708 -0.9743116
vn 0.6537569 -0.26695 -0.7080534
vn -0.2722096 -0.08097307 -0.9588249
vn -0.01181137 0.06659294 -0.9977103
vn -0.4200051 0.2235013 -0.8795696
vn -0.08575702 0.5800882 -0.8100268
vn -0.07277882 0.8515349 -0.5192221
vn -0.4137908 0.5594544 -0.7181838
vn -0.5385062 0.1286562 -0.8327417
vn -0.1906023 -0.4929526 -0.848922
vn -0.5537872 0.1730073 -0.8144864
vn -0.4200051 0.2235013 -0.8795696
vn 0.5049266 -0.1519197 -0.8496879
vn 0.5119441 0.2370139 -0.8256741
vn -0.08575702 0.5800882 -0.8100268
vn 0.67536 0.3159801 -0.6663673
vn 0.4017226 0.6705912 -0.6236396
vn 0.4017226 0.6705912 -0.6236396
vn -0.08575702 0.5800882 -0.8100268
vn 0.67536 0.3159801 -0.6663673
vn 0.67536 0.3159801 -0.6663674
vn 0.4017226 0.6705912 -0.6236396
vn 0.2310325 0.8737539 -0.427993
vn 0.2310326 0.8737539 -0.427993
vn 0.2310325 0.8737539 -0.427993
vn -0.07277882 0.8515349 -0.5192221
vn 0.1301388 0.9447865 -0.3007366
vn -0.3283874 0.9409966 0.08177456
vn 0.1938666 0.9171668 -0.348168
vn 0.4017226 0.6705912 -0.6236396
vn -0.07277882 0.8515349 -0.5192221
vn -0.08575702 0.5800882 -0.8100268
vn -0.8003474 0.309907 -0.5132267
vn -0.7150557 0.2346056 -0.6585252
vn -0.6481876 0.1825814 -0.7392679
vn -0.1534873 0.05483726 -0.9866279
vn -0.1534873 0.05483726 -0.9866279
vn -0.1534873 0.05483726 -0.9866279
vn 0.3507982 0.9034965 -0.2462415
vn 0.2863759 0.9238111 -0.2540901
vn 0.1255225 0.95516 -0.2681667
vn -0.6274542 0.5696045 -0.5308972
vn -0.6193843 0.5859141 -0.5225589
vn -0.6805637 0.4380489 -0.5873211
vn -0.08575702 0.5800882 -0.8100268
vn -0.4137908 0.5594544 -0.7181838
vn -0.4200051 0.2235013 -0.8795696
vn -0.2032773 0.8881677 -0.4121122
vn -0.4137908 0.5594544 -0.7181838
vn -0.07277882 0.8515349 -0.5192221
vn -0.6515126 0.3275183 -0.6842975
vn -0.6515126 0.3275183 -0.6842974
vn -0.6515126 0.3275183 -0.6842975
vn -0.8833701 0.4162778 -0.2153369
vn -0.7150557 0.2346056 -0.6585252
vn -0.8003474 0.309907 -0.5132267
vn 0.6537406 0.7330008 -0.1879706
vn 0.2863759 0.9238111 -0.2540901
vn 0.3507982 0.9034965 -0.2462415
vn 0.1168874 -0.4557987 -0.8823746
vn 0.1168874 -0.4557987 -0.8823746
vn 0.1168874 -0.4557986 -0.8823746
vn 0.1938666 0.9171668 -0.348168
vn 0.1301388 0.9447865 -0.3007366
vn -0.07277882 0.8515349 -0.5192221
vn -0.2063881 0.8877731 -0.4114155
vn -0.2063881 0.8877732 -0.4114155
vn -0.2063881 0.8877732 -0.4114156
vn -0.5549255 0.6949253 -0.4573144
vn -0.6193843 0.5859141 -0.5225589
vn -0.6274542 0.5696045 -0.5308972
vn -0.5537872 0.1730073 -0.8144864
vn -0.4200051 0.2235013 -0.8795696
vn -0.4137908 0.5594544 -0.7181838
vn 0.6430832 0.4845984 -0.5929658
vn 0.645918 0.4722903 -0.5997764
vn 0.625497 0.5492938 -0.5541025
vn 0.658987 0.4037532 -0.6346018
g powerSlamDustLow1_mesh_0
f 3/3/3 2/2/2 1/1/1
f 6/6/6 5/5/5 4/4/4
f 8/8/8 5/5/5 7/7/7
f 9/9/9 8/8/8 7/7/7
f 8/8/8 9/9/9 10/10/10
f 12/12/12 11/11/11 10/10/10
f 14/14/14 13/13/13 9/9/9
f 16/16/16 13/13/13 15/15/15
f 8/8/8 18/18/18 17/17/17
f 8/8/8 19/19/19 18/18/18
f 18/18/18 21/21/21 20/20/20
f 23/23/23 22/22/22 18/18/18
f 26/26/26 25/25/25 24/24/24
f 29/29/29 28/28/28 27/27/27
f 32/32/32 31/31/31 30/30/30
f 34/34/34 30/30/30 33/33/33
f 34/34/34 36/36/36 35/35/35
f 39/39/39 38/38/38 37/37/37
f 42/42/42 41/41/41 40/40/40
f 45/45/45 44/44/44 43/43/43
f 48/48/48 47/47/47 46/46/46
f 51/51/51 50/50/50 49/49/49
f 54/54/54 53/53/53 52/52/52
f 57/57/57 56/56/56 55/55/55
f 60/60/60 59/59/59 58/58/58
f 63/63/63 62/62/62 61/61/61
f 66/66/66 65/65/65 64/64/64
f 69/69/69 68/68/68 67/67/67
f 72/72/72 71/71/71 70/70/70
f 75/75/75 74/74/74 73/73/73
f 78/78/78 77/77/77 76/76/76
f 81/81/81 80/80/80 79/79/79
f 79/79/79 80/80/80 82/82/82
