g powerslamHighEndEmitter_mesh
v 0.9510571 -0.06224072 -0.3090172
v 0.9510571 0.06224072 -0.3090172
v 0.8090175 0.06224072 -0.5877856
v 0.8090175 -0.06224072 -0.5877856
v 0.5877856 0.06224072 -0.8090175
v 0.5877856 -0.06224072 -0.8090175
v 0.3090172 0.06224072 -0.951057
v 0.3090172 -0.06224072 -0.951057
v 0 0.06224072 -1
v 0 -0.06224072 -1
v -0.3090172 0.06224072 -0.951057
v -0.3090172 -0.06224072 -0.951057
v -0.5877855 0.06224072 -0.8090173
v -0.5877855 -0.06224072 -0.8090173
v -0.8090172 0.06224072 -0.5877854
v -0.8090172 -0.06224072 -0.5877854
v -0.9510568 0.06224072 -0.3090171
v -0.9510568 -0.06224072 -0.3090171
v -1 0.06224072 0
v -1 -0.06224072 0
v -0.9510568 0.06224072 0.3090171
v -0.9510568 -0.06224072 0.3090171
v -0.8090172 0.06224072 0.5877854
v -0.8090172 -0.06224072 0.5877854
v -0.5877854 0.06224072 0.8090171
v -0.5877854 -0.06224072 0.8090171
v -0.3090171 0.06224072 0.9510567
v -0.3090171 -0.06224072 0.9510567
v -2.980232E-08 0.06224072 1
v -2.980232E-08 -0.06224072 1
v 0.309017 0.06224072 0.9510566
v 0.309017 -0.06224072 0.9510566
v 0.5877852 0.06224072 0.8090171
v 0.5877852 -0.06224072 0.8090171
v 0.809017 0.06224072 0.5877853
v 0.809017 -0.06224072 0.5877853
v 0.9510565 0.06224072 0.309017
v 0.9510565 -0.06224072 0.309017
v 1 0.06224072 0
v 1 -0.06224072 0
v 0.9510571 0.06224072 -0.3090172
v 0.9510571 -0.06224072 -0.3090172
vt 0.375 0.3125
vt 0.375 0.6884398
vt 0.3875 0.6884398
vt 0.3875 0.3125
vt 0.4 0.6884398
vt 0.4 0.3125
vt 0.4125 0.6884398
vt 0.4125 0.3125
vt 0.425 0.6884398
vt 0.425 0.3125
vt 0.4374999 0.6884398
vt 0.4374999 0.3125
vt 0.4499999 0.6884398
vt 0.4499999 0.3125
vt 0.4624999 0.6884398
vt 0.4624999 0.3125
vt 0.4749999 0.6884398
vt 0.4749999 0.3125
vt 0.4874999 0.6884398
vt 0.4874999 0.3125
vt 0.4999999 0.6884398
vt 0.4999999 0.3125
vt 0.5124999 0.6884398
vt 0.5124999 0.3125
vt 0.5249999 0.6884398
vt 0.5249999 0.3125
vt 0.5374998 0.6884398
vt 0.5374998 0.3125
vt 0.5499998 0.6884398
vt 0.5499998 0.3125
vt 0.5624998 0.6884398
vt 0.5624998 0.3125
vt 0.5749998 0.6884398
vt 0.5749998 0.3125
vt 0.5874998 0.6884398
vt 0.5874998 0.3125
vt 0.5999998 0.6884398
vt 0.5999998 0.3125
vt 0.6124998 0.6884398
vt 0.6124998 0.3125
vt 0.6249998 0.6884398
vt 0.6249998 0.3125
vn 0.9510568 0 -0.309016
vn 0.9510568 0 -0.309016
vn 0.809017 0 -0.5877854
vn 0.809017 0 -0.5877854
vn 0.5877851 0 -0.8090171
vn 0.5877851 0 -0.8090171
vn 0.3090169 0 -0.9510565
vn 0.3090169 0 -0.9510565
vn 0 0 -1
vn 0 0 -1
vn -0.3090171 0 -0.9510565
vn -0.3090171 0 -0.9510565
vn -0.5877854 0 -0.8090169
vn -0.5877854 0 -0.8090169
vn -0.8090171 0 -0.5877851
vn -0.8090171 0 -0.5877851
vn -0.9510565 0 -0.3090169
vn -0.9510565 0 -0.3090169
vn -1 0 0
vn -1 0 0
vn -0.9510565 0 0.309017
vn -0.9510565 0 0.309017
vn -0.8090169 0 0.5877854
vn -0.8090169 0 0.5877854
vn -0.5877852 0 0.8090171
vn -0.5877852 0 0.8090171
vn -0.3090169 0 0.9510565
vn -0.3090169 0 0.9510565
vn 0 0 1
vn 0 0 1
vn 0.309017 0 0.9510565
vn 0.309017 0 0.9510565
vn 0.5877853 0 0.809017
vn 0.5877853 0 0.809017
vn 0.809017 0 0.5877853
vn 0.809017 0 0.5877853
vn 0.9510565 0 0.3090169
vn 0.9510565 0 0.3090169
vn 1 0 0
vn 1 0 0
vn 0.9510568 0 -0.309016
vn 0.9510568 0 -0.309016
g powerslamHighEndEmitter_mesh_0
f 3/3/3 2/2/2 1/1/1
f 4/4/4 3/3/3 1/1/1
f 5/5/5 3/3/3 4/4/4
f 6/6/6 5/5/5 4/4/4
f 7/7/7 5/5/5 6/6/6
f 8/8/8 7/7/7 6/6/6
f 9/9/9 7/7/7 8/8/8
f 10/10/10 9/9/9 8/8/8
f 11/11/11 9/9/9 10/10/10
f 12/12/12 11/11/11 10/10/10
f 13/13/13 11/11/11 12/12/12
f 14/14/14 13/13/13 12/12/12
f 15/15/15 13/13/13 14/14/14
f 16/16/16 15/15/15 14/14/14
f 17/17/17 15/15/15 16/16/16
f 18/18/18 17/17/17 16/16/16
f 19/19/19 17/17/17 18/18/18
f 20/20/20 19/19/19 18/18/18
f 21/21/21 19/19/19 20/20/20
f 22/22/22 21/21/21 20/20/20
f 23/23/23 21/21/21 22/22/22
f 24/24/24 23/23/23 22/22/22
f 25/25/25 23/23/23 24/24/24
f 26/26/26 25/25/25 24/24/24
f 27/27/27 25/25/25 26/26/26
f 28/28/28 27/27/27 26/26/26
f 29/29/29 27/27/27 28/28/28
f 30/30/30 29/29/29 28/28/28
f 31/31/31 29/29/29 30/30/30
f 32/32/32 31/31/31 30/30/30
f 33/33/33 31/31/31 32/32/32
f 34/34/34 33/33/33 32/32/32
f 35/35/35 33/33/33 34/34/34
f 36/36/36 35/35/35 34/34/34
f 37/37/37 35/35/35 36/36/36
f 38/38/38 37/37/37 36/36/36
f 39/39/39 37/37/37 38/38/38
f 40/40/40 39/39/39 38/38/38
f 41/41/41 39/39/39 40/40/40
f 42/42/42 41/41/41 40/40/40
