g projectile_cloud2_mesh
v -0.1890573 0.2147216 0.1158905
v -0.2287474 -0.01536313 0.2874294
v -0.3838615 0.0005762577 0.1614944
v -0.2287474 -0.01536313 0.2874294
v -0.1890573 0.2147216 0.1158905
v -0.04003645 0.2309265 0.1815431
v -0.208028 0.2207741 -0.04297442
v -0.4351232 0.03203993 -0.09836879
v -0.3634411 0.08193024 -0.2360423
v -0.3634411 0.08193024 -0.2360423
v -0.2788112 0.06501126 -0.3260208
v -0.208028 0.2207741 -0.04297442
v 0.1247376 0.1903943 0.06560507
v 0.2843985 -0.02528875 0.2381629
v 0.2420478 -0.02247798 0.3431843
v 0.2420478 -0.02247798 0.3431843
v 0.1142928 -0.02522603 0.393878
v 0.1247376 0.1903943 0.06560507
v -0.01087802 0.2277029 -0.1800095
v -0.02207602 0.03027165 -0.4455647
v 0.1296214 0.04004738 -0.4772507
v 0.4182229 0.004852019 -0.1205766
v 0.4090045 -0.004629329 0.006410923
v 0.2073726 0.1980298 -0.1575872
v 0.2582465 0.004555933 0.1327737
v 0.2843985 -0.02528875 0.2381629
v 0.1247376 0.1903943 0.06560507
v -0.09756054 0.0177801 -0.3376985
v -0.02207602 0.03027165 -0.4455647
v -0.01087802 0.2277029 -0.1800095
v -0.06869643 0.01634982 0.2804411
v -0.2287474 -0.01536313 0.2874294
v -0.04003645 0.2309265 0.1815431
v -0.4298339 0.01329275 0.04945197
v -0.4351232 0.03203993 -0.09836879
v -0.208028 0.2207741 -0.04297442
v 0.1296214 0.04004738 -0.4772507
v 0.2845955 0.03740624 -0.4262651
v 0.2073726 0.1980298 -0.1575872
v -0.04003645 0.2309265 0.1815431
v 0.003946284 -0.01275715 0.3601114
v -0.06869643 0.01634982 0.2804411
v 0.1142928 -0.02522603 0.393878
v 0.1247376 0.1903943 0.06560507
v -0.00912651 0.2870886 0.009671597
v -0.3838615 0.0005762577 0.1614944
v -0.4298339 0.01329275 0.04945197
v -0.208028 0.2207741 -0.04297442
v -0.1890573 0.2147216 0.1158905
v -0.00912651 0.2870886 0.009671597
v -0.04003645 0.2309265 0.1815431
v -0.01087802 0.2277029 -0.1800095
v 0.2073726 0.1980298 -0.1575872
v 0.1247376 0.1903943 0.06560507
v 0.1296214 0.04004738 -0.4772507
v -0.01087802 0.2277029 -0.1800095
v -0.1887928 0.04104099 -0.3525898
v -0.09756054 0.0177801 -0.3376985
v -0.2788112 0.06501126 -0.3260208
v -0.208028 0.2207741 -0.04297442
v 0.2073726 0.1980298 -0.1575872
v 0.391649 0.01888297 -0.2928196
v 0.4182229 0.004852019 -0.1205766
v 0.2845955 0.03740624 -0.4262651
v 0.1247376 0.1903943 0.06560507
v 0.3431939 -0.007426687 0.0841859
v 0.2582465 0.004555933 0.1327737
v 0.4090045 -0.004629329 0.006410923
v 0.2073726 0.1980298 -0.1575872
vt 0.5820351 0.339489
vt 0.5713312 0.3391953
vt 0.5709215 0.3391816
vt 0.5713312 0.3391953
vt 0.5820351 0.339489
vt 0.582034 0.3394821
vt 0.5774236 0.3385856
vt 0.5653787 0.3376907
vt 0.5541778 0.3373609
vt 0.5541778 0.3373609
vt 0.5518127 0.3373464
vt 0.5774236 0.3385856
vt 0.579643 0.3385574
vt 0.5713094 0.3391953
vt 0.5713121 0.3391975
vt 0.5713121 0.3391975
vt 0.5713163 0.339201
vt 0.579643 0.3385574
vt 0.5665902 0.338659
vt 0.5469471 0.3384984
vt 0.5463341 0.3385006
vt 0.5628663 0.338521
vt 0.5628652 0.3385288
vt 0.5665249 0.3376113
vt 0.56924 0.3399519
vt 0.5713094 0.3391953
vt 0.579643 0.3385574
vt 0.5522229 0.3393855
vt 0.5469471 0.3384984
vt 0.5665902 0.338659
vt 0.5706804 0.3396524
vt 0.5713312 0.3391953
vt 0.582034 0.3394821
vt 0.5680546 0.3391747
vt 0.5653787 0.3376907
vt 0.5774236 0.3385856
vt 0.5463341 0.3385006
vt 0.5512242 0.3385042
vt 0.5665249 0.3376113
vt 0.582034 0.3394821
vt 0.5713204 0.3392043
vt 0.5706804 0.3396524
vt 0.5713163 0.339201
vt 0.579643 0.3385574
vt 0.5807645 0.3383824
vt 0.5709215 0.3391816
vt 0.5680546 0.3391747
vt 0.5774236 0.3385856
vt 0.5820351 0.339489
vt 0.5807645 0.3383824
vt 0.582034 0.3394821
vt 0.5665902 0.338659
vt 0.5665249 0.3376113
vt 0.579643 0.3385574
vt 0.5463341 0.3385006
vt 0.5665902 0.338659
vt 0.5521592 0.337334
vt 0.5522229 0.3393855
vt 0.5518127 0.3373464
vt 0.5774236 0.3385856
vt 0.5665249 0.3376113
vt 0.554126 0.3385073
vt 0.5628663 0.338521
vt 0.5512242 0.3385042
vt 0.579643 0.3385574
vt 0.5680266 0.3391679
vt 0.56924 0.3399519
vt 0.5628652 0.3385288
vt 0.5665249 0.3376113
vn -0.485043 0.7995043 0.3542966
vn -0.4520696 0.5819607 0.6759842
vn -0.4785534 0.5763927 0.6623881
vn -0.4520696 0.5819607 0.6759842
vn -0.485043 0.7995043 0.3542966
vn 0.05629715 0.8323724 0.5513499
vn -0.6429235 0.7654235 0.02785979
vn -0.6446312 0.7633416 0.04195444
vn -0.63142 0.7739354 -0.04830023
vn -0.2650886 0.871226 -0.4131505
vn -0.2650887 0.871226 -0.4131505
vn -0.2650887 0.871226 -0.4131505
vn 0.8030826 0.5958652 0.001722313
vn 0.7299718 0.6653768 0.1562523
vn 0.6705847 0.6978122 0.2517424
vn 0.1977228 0.816425 0.5425457
vn 0.1977228 0.8164251 0.5425457
vn 0.1977228 0.816425 0.5425457
vn -0.3952482 0.7450671 -0.5372652
vn -0.3319462 0.7636547 -0.5537539
vn -0.172924 0.7938977 -0.5829442
vn 0.6619685 0.742354 0.1034815
vn 0.6619685 0.742354 0.1034815
vn 0.6619685 0.7423539 0.1034815
vn 0.8644912 0.4241456 -0.2697318
vn 0.7299718 0.6653768 0.1562523
vn 0.8030826 0.5958652 0.001722313
vn -0.6891861 0.5950998 -0.4133748
vn -0.3319462 0.7636547 -0.5537539
vn -0.3952482 0.7450671 -0.5372652
vn -0.04430661 0.4230426 0.9050259
vn -0.0443066 0.4230426 0.9050259
vn -0.04430659 0.4230426 0.9050259
vn -0.6515846 0.749288 0.1183423
vn -0.6446312 0.7633416 0.04195444
vn -0.6429235 0.7654235 0.02785979
vn 0.1692132 0.8665972 -0.4694425
vn 0.1692132 0.8665972 -0.4694425
vn 0.1692132 0.8665971 -0.4694425
vn 0.05629715 0.8323724 0.5513499
vn 0.2549334 0.7121702 0.6540813
vn -0.6000066 0.3995711 0.6930621
vn 0.3233638 0.7117399 0.6235881
vn 0.4473889 0.8340599 0.3227806
vn 0.08808047 0.9957902 0.02537001
vn -0.660754 0.7211041 0.208358
vn -0.660754 0.7211041 0.208358
vn -0.4127059 0.9029151 -0.120076
vn -0.485043 0.7995043 0.3542966
vn 0.08808047 0.9957902 0.02537001
vn 0.05629715 0.8323724 0.5513499
vn 0.043617 0.9301159 -0.364667
vn 0.4118798 0.9103441 -0.04035626
vn 0.4473889 0.8340599 0.3227806
vn 0.1661213 0.86739 -0.4690822
vn 0.043617 0.9301159 -0.364667
vn -0.1752717 0.8134369 -0.554617
vn 0.2633153 0.5075406 -0.820407
vn -0.2347136 0.8342802 -0.4988849
vn -0.4127059 0.9029151 -0.120076
vn 0.6150499 0.7678734 -0.17912
vn 0.6055583 0.7711771 -0.1964304
vn 0.6791359 0.7326257 -0.04509843
vn 0.5311663 0.7857096 -0.3170535
vn 0.4473889 0.8340599 0.3227806
vn 0.5692664 0.7391957 0.3598965
vn 0.2629223 0.37389 0.8894257
vn 0.5807772 0.7516874 0.3125124
vn 0.4118798 0.9103441 -0.04035626
g projectile_cloud2_mesh_0
f 3/3/3 2/2/2 1/1/1
f 6/6/6 5/5/5 4/4/4
f 9/9/9 8/8/8 7/7/7
f 12/12/12 11/11/11 10/10/10
f 15/15/15 14/14/14 13/13/13
f 18/18/18 17/17/17 16/16/16
f 21/21/21 20/20/20 19/19/19
f 24/24/24 23/23/23 22/22/22
f 27/27/27 26/26/26 25/25/25
f 30/30/30 29/29/29 28/28/28
f 33/33/33 32/32/32 31/31/31
f 36/36/36 35/35/35 34/34/34
f 39/39/39 38/38/38 37/37/37
f 42/42/42 41/41/41 40/40/40
f 40/40/40 41/41/41 43/43/43
f 44/44/44 40/40/40 43/43/43
f 40/40/40 44/44/44 45/45/45
f 48/48/48 47/47/47 46/46/46
f 49/49/49 48/48/48 46/46/46
f 50/50/50 48/48/48 49/49/49
f 51/51/51 50/50/50 49/49/49
f 48/48/48 50/50/50 52/52/52
f 53/53/53 52/52/52 50/50/50
f 54/54/54 53/53/53 50/50/50
f 52/52/52 53/53/53 55/55/55
f 58/58/58 57/57/57 56/56/56
f 56/56/56 57/57/57 59/59/59
f 60/60/60 56/56/56 59/59/59
f 63/63/63 62/62/62 61/61/61
f 61/61/61 62/62/62 64/64/64
f 67/67/67 66/66/66 65/65/65
f 65/65/65 66/66/66 68/68/68
f 69/69/69 65/65/65 68/68/68
