g projectile_cloud1_mesh
v -0.1910616 0.2392403 0.140696
v -0.2605225 -0.004868627 0.2812336
v -0.361284 0.006126344 0.1964881
v -0.2341744 0.2460929 0.006830305
v -0.4069054 0.0128003 0.0685925
v -0.3988824 0.01045772 -0.1076211
v -0.1840556 0.2091637 -0.1477301
v -0.3186551 -0.001178071 -0.2040677
v -0.2591994 0.002023548 -0.3514791
v -5.415757E-18 0.2689054 -0.2193307
v 0.03631869 0.002579808 -0.4212832
v 0.1588968 0.01160073 -0.3680711
v 0.1910615 0.2054593 -0.1675811
v 0.3308184 0.01399188 -0.2323463
v 0.3911935 0.01059518 -0.1068845
v -0.1503899 -0.01151568 0.3021899
v -0.2605225 -0.004868627 0.2812336
v -0.1910616 0.2392403 0.140696
v 0.2175691 0.01788983 -0.2765519
v 0.3308184 0.01399188 -0.2323463
v 0.1910615 0.2054593 -0.1675811
v -0.1434709 -0.002984971 -0.4113774
v 0.03631869 0.002579808 -0.4212832
v -5.415757E-18 0.2689054 -0.2193307
v -5.415757E-18 0.2566722 0.2339179
v -0.005884562 -3.087521E-05 0.4349415
v -0.1072377 -0.009295404 0.3804392
v 0.1323801 -0.0006296933 0.4285324
v -0.1072377 -0.009295404 0.3804392
v -0.1503899 -0.01151568 0.3021899
v -0.1910616 0.2392403 0.140696
v -5.415757E-18 0.2566722 0.2339179
v -0.361284 0.006126344 0.1964881
v -0.4069054 0.0128003 0.0685925
v -0.2341744 0.2460929 0.006830305
v -0.1910616 0.2392403 0.140696
v -0.3988824 0.01045772 -0.1076211
v -0.3186551 -0.001178071 -0.2040677
v -0.1840556 0.2091637 -0.1477301
v -0.2341744 0.2460929 0.006830305
v 0.1651551 0.1924221 0.05936389
v 0.3127832 -0.01173832 0.2444214
v 0.2402089 -0.0100989 0.3749614
v 0.2902009 0.01153205 0.1136802
v 0.2402089 -0.0100989 0.3749614
v 0.1323801 -0.0006296933 0.4285324
v -5.415757E-18 0.2566722 0.2339179
v 0.1651551 0.1924221 0.05936389
v -5.415757E-18 0.3484176 0.009670198
v -0.1910616 0.2392403 0.140696
v -0.2341744 0.2460929 0.006830305
v -0.1840556 0.2091637 -0.1477301
v -5.415757E-18 0.2689054 -0.2193307
v -0.2591994 0.002023548 -0.3514791
v -0.1434709 -0.002984971 -0.4113774
v 0.1651551 0.1924221 0.05936389
v 0.3936122 0.002456873 0.01316569
v 0.2902009 0.01153205 0.1136802
v 0.3911935 0.01059518 -0.1068845
v 0.1910615 0.2054593 -0.1675811
v -5.415757E-18 0.3484176 0.009670198
v -5.415757E-18 0.2689054 -0.2193307
v 0.1588968 0.01160073 -0.3680711
v 0.2175691 0.01788983 -0.2765519
vt 0.5813036 0.3382799
vt 0.5673511 0.33911
vt 0.5655742 0.3394982
vt 0.5809835 0.3382494
vt 0.5684428 0.3394845
vt 0.5568772 0.3374659
vt 0.5673266 0.3378926
vt 0.5561437 0.3391404
vt 0.5483646 0.3391381
vt 0.5632326 0.3370289
vt 0.5461621 0.3391315
vt 0.5461595 0.3391337
vt 0.5673245 0.3378658
vt 0.5502768 0.3391404
vt 0.55548 0.3391542
vt 0.573046 0.3392981
vt 0.5673511 0.33911
vt 0.5813036 0.3382799
vt 0.5561263 0.3391368
vt 0.5502768 0.3391404
vt 0.5673245 0.3378658
vt 0.5461665 0.3391351
vt 0.5461621 0.3391315
vt 0.5632326 0.3370289
vt 0.5813751 0.3382764
vt 0.5686789 0.3395208
vt 0.5697569 0.3395187
vt 0.5671061 0.3393815
vt 0.5697569 0.3395187
vt 0.573046 0.3392981
vt 0.5813036 0.3382799
vt 0.5813751 0.3382764
vt 0.5655742 0.3394982
vt 0.5684428 0.3394845
vt 0.5809835 0.3382494
vt 0.5813036 0.3382799
vt 0.5568772 0.3374659
vt 0.5561437 0.3391404
vt 0.5673266 0.3378926
vt 0.5809835 0.3382494
vt 0.5813035 0.3398247
vt 0.5684201 0.3395119
vt 0.5668994 0.3392583
vt 0.5702185 0.3399843
vt 0.5668994 0.3392583
vt 0.5671061 0.3393815
vt 0.5813751 0.3382764
vt 0.5813035 0.3398247
vt 0.5815254 0.3379543
vt 0.5813036 0.3382799
vt 0.5809835 0.3382494
vt 0.5673266 0.3378926
vt 0.5632326 0.3370289
vt 0.5483646 0.3391381
vt 0.5461665 0.3391351
vt 0.5813035 0.3398247
vt 0.5643643 0.33959
vt 0.5702185 0.3399843
vt 0.55548 0.3391542
vt 0.5673245 0.3378658
vt 0.5815254 0.3379543
vt 0.5632326 0.3370289
vt 0.5461595 0.3391337
vt 0.5561263 0.3391368
vn -0.3577873 0.5402895 0.761627
vn -0.3334811 0.5398536 0.7728832
vn -0.5095085 0.5336061 0.6750299
vn -0.5888497 0.8070301 -0.04425184
vn -0.7718232 0.6121228 0.1720308
vn -0.808498 0.5868057 -0.04461166
vn -0.4850285 0.7414241 -0.4637215
vn -0.690037 0.5995032 -0.4055181
vn -0.766319 0.5698433 -0.2967047
vn 0.06250662 0.6084368 -0.7911369
vn 0.07889536 0.6091456 -0.7891243
vn 0.2795292 0.6040465 -0.7463183
vn 0.5681221 0.6038201 -0.5591407
vn 0.6032535 0.6129381 -0.5102864
vn 0.7085931 0.6268225 -0.3240207
vn -0.1289182 0.5220717 0.8431021
vn -0.3334811 0.5398536 0.7728832
vn -0.3577873 0.5402895 0.761627
vn 0.3281814 0.5087661 -0.7958982
vn 0.6032535 0.6129381 -0.5102864
vn 0.5681221 0.6038201 -0.5591407
vn -0.06253842 0.5976087 -0.7993452
vn 0.07889536 0.6091456 -0.7891243
vn 0.06250662 0.6084368 -0.7911369
vn -0.1615956 0.6107373 0.7751689
vn -0.1630166 0.6106133 0.7749689
vn -0.4308821 0.5624791 0.7056612
vn 0.0391533 0.6155177 0.7871498
vn -0.5440272 0.4802267 0.6880528
vn -0.5440272 0.4802267 0.6880528
vn -0.5299651 0.7431987 0.4084026
vn 0.1047644 0.8344666 0.5410082
vn -0.737727 0.6134795 0.281783
vn -0.7718232 0.6121228 0.1720308
vn -0.5888497 0.8070301 -0.04425184
vn -0.5299651 0.7431987 0.4084026
vn -0.6489679 0.6097787 -0.4549842
vn -0.690037 0.5995032 -0.4055181
vn -0.4850285 0.7414241 -0.4637215
vn -0.5888497 0.8070301 -0.04425184
vn 0.7059363 0.6824015 0.1896891
vn 0.6540579 0.709857 0.2613644
vn 0.6014628 0.7297078 0.3252215
vn 0.8278663 0.5592397 -0.04345499
vn 0.5494161 0.7193995 0.424978
vn 0.5494161 0.7193996 0.424978
vn 0.1047644 0.8344666 0.5410082
vn 0.6014959 0.7760957 0.1894152
vn 0.0745025 0.9971617 -0.0108503
vn -0.5299651 0.7431987 0.4084026
vn -0.5888497 0.8070301 -0.04425184
vn -0.4850285 0.7414241 -0.4637215
vn 0.04676536 0.8932244 -0.4471723
vn -0.3937547 0.6856026 -0.6122959
vn -0.3937547 0.6856026 -0.6122959
vn 0.6014959 0.7760957 0.1894152
vn 0.6641297 0.7315128 0.1543394
vn 0.594062 0.5785013 0.5589513
vn 0.6636826 0.7425512 0.090238
vn 0.5995707 0.7694134 -0.2202685
vn 0.0745025 0.9971617 -0.0108503
vn 0.04676536 0.8932244 -0.4471723
vn 0.5010528 0.5805867 -0.6417673
vn 0.5010527 0.5805867 -0.6417673
g projectile_cloud1_mesh_0
f 3/3/3 2/2/2 1/1/1
f 6/6/6 5/5/5 4/4/4
f 9/9/9 8/8/8 7/7/7
f 12/12/12 11/11/11 10/10/10
f 15/15/15 14/14/14 13/13/13
f 18/18/18 17/17/17 16/16/16
f 21/21/21 20/20/20 19/19/19
f 24/24/24 23/23/23 22/22/22
f 27/27/27 26/26/26 25/25/25
f 25/25/25 26/26/26 28/28/28
f 31/31/31 30/30/30 29/29/29
f 32/32/32 31/31/31 29/29/29
f 35/35/35 34/34/34 33/33/33
f 36/36/36 35/35/35 33/33/33
f 39/39/39 38/38/38 37/37/37
f 40/40/40 39/39/39 37/37/37
f 43/43/43 42/42/42 41/41/41
f 41/41/41 42/42/42 44/44/44
f 47/47/47 46/46/46 45/45/45
f 48/48/48 47/47/47 45/45/45
f 47/47/47 48/48/48 49/49/49
f 47/47/47 49/49/49 50/50/50
f 49/49/49 51/51/51 50/50/50
f 51/51/51 49/49/49 52/52/52
f 49/49/49 53/53/53 52/52/52
f 52/52/52 53/53/53 54/54/54
f 53/53/53 55/55/55 54/54/54
f 58/58/58 57/57/57 56/56/56
f 56/56/56 57/57/57 59/59/59
f 60/60/60 56/56/56 59/59/59
f 56/56/56 60/60/60 61/61/61
f 60/60/60 62/62/62 61/61/61
f 62/62/62 60/60/60 63/63/63
f 60/60/60 64/64/64 63/63/63
