g ram_eyes
v 0.5823693 0.2833794 -0.433346
v 0.6171793 0.2979194 -0.4367982
v 0.7529098 0.3630673 -0.2614308
v 0.6842989 0.3304964 -0.4253064
v 0.7506891 0.366966 -0.2998695
v 0.6424238 0.2360356 -0.4201366
v 0.7034734 0.2395779 -0.4018841
v 0.7609808 0.2784908 -0.3081328
v 0.7463673 0.2654153 -0.3600789
v 0.6004216 0.3559786 -0.4140311
v 0.6364456 0.3933754 -0.4048629
v 0.6983265 0.4252861 -0.3070984
v 0.673972 0.4238517 -0.3605081
v 0.7191418 0.3482139 -0.3855467
v 0.5823687 0.2833794 0.4333452
v 0.6171786 0.2979194 0.4367975
v 0.7529094 0.3630673 0.2614302
v 0.6842983 0.3304964 0.4253057
v 0.6424232 0.2360357 0.4201359
v 0.7034729 0.2395779 0.4018835
v 0.7609804 0.2784908 0.3081322
v 0.7463668 0.2654153 0.3600783
v 0.600421 0.3559786 0.4140304
v 0.6364451 0.3933754 0.404862
v 0.6983261 0.4252861 0.3070977
v 0.6739715 0.4238517 0.3605074
v 0.7191413 0.3482139 0.3855461
v 0.7380642 0.3594618 0.3341548
v 0.5823693 0.2833794 -0.433346
v 0.6171793 0.2979194 -0.4367982
v 0.6842989 0.3304964 -0.4253064
v 0.7191418 0.3482139 -0.3855467
v 0.6364456 0.3933754 -0.4048629
v 0.6983261 0.4252861 0.3070977
v 0.7529094 0.3630673 0.2614302
v 0.7380642 0.3594618 0.3341548
vt 0.2875663 0.1408397
vt 0.2535913 0.137
vt 0.09924445 0.1303982
vt 0.2115364 0.1354949
vt 0.1280166 0.1331026
vt 0.2550964 0.08808324
vt 0.2177288 0.08013081
vt 0.1401734 0.08013809
vt 0.1765498 0.07986075
vt 0.1019667 0.9863437
vt 0.09290836 0.9884915
vt 0.1332683 0.1803105
vt 0.1696966 0.187309
vt 0.181208 0.1338685
vt 0.06740851 0.1410836
vt 0.1007908 0.1373107
vt 0.2542283 0.1303982
vt 0.1421122 0.1358319
vt 0.09837632 0.08808324
vt 0.1357439 0.08013081
vt 0.2132993 0.08013809
vt 0.1769229 0.07986075
vt 0.1104185 0.1743501
vt 0.142335 0.1824489
vt 0.2202044 0.1803105
vt 0.1837761 0.187309
vt 0.1719798 0.1344222
vt 0.2040562 0.1336307
vt 0.1136841 0.9770216
vt 0.1044278 0.9759755
vt 0.0929701 0.9755654
vt 0.08466873 0.9752287
vt 0.2113096 0.1829393
vt 0.09871469 0.9745736
vt 0.1086673 0.9890516
vt 0.09399109 0.9881139
vn -0.1084984 0.02379308 -0.9938118
vn 0.06524659 0.008651072 -0.9978316
vn 0.9101289 0.4141903 -0.0105699
vn 0.4727394 0.1571539 -0.8670756
vn 0.8819768 0.3990968 -0.2506767
vn 0.1527889 -0.1983372 -0.9681517
vn 0.4308082 -0.1235148 -0.893951
vn 0.9761208 0.1298131 -0.1741746
vn 0.8467618 0.08394974 -0.5253066
vn -0.1241101 0.3132238 -0.9415347
vn 0.3096405 0.4894487 -0.8152072
vn 0.744127 0.6479709 -0.1625077
vn 0.6480194 0.5733377 -0.501353
vn 0.6966577 0.3954128 -0.5985956
vn -0.1084999 0.02379237 0.9938117
vn 0.0652454 0.008650862 0.9978318
vn 0.8974321 0.3918684 0.2026202
vn 0.4727381 0.1571541 0.8670762
vn 0.1527873 -0.198339 0.9681516
vn 0.4308071 -0.123515 0.8939515
vn 0.9426535 0.1906517 0.2739637
vn 0.8090245 0.06190038 0.5845063
vn -0.1241112 0.3132249 0.9415343
vn 0.3096386 0.4894491 0.8152077
vn 0.770093 0.5718662 0.2827116
vn 0.6062561 0.5578931 0.5667528
vn 0.7031072 0.3975818 0.5895497
vn 0.8758603 0.3896811 0.2846355
vn -0.1084984 0.02379308 -0.9938118
vn 0.06524659 0.008651072 -0.9978316
vn 0.4727394 0.1571539 -0.8670756
vn 0.6966577 0.3954128 -0.5985956
vn 0.3096405 0.4894487 -0.8152072
vn 0.770093 0.5718662 0.2827116
vn 0.8974321 0.3918684 0.2026202
vn 0.8758603 0.3896811 0.2846355
g ram_eyes_0
f 36/36/36 35/35/35 34/34/34
f 6/6/6 1/1/1 2/2/2
f 7/7/7 6/6/6 2/2/2
f 7/7/7 2/2/2 4/4/4
f 9/9/9 7/7/7 4/4/4
f 9/9/9 4/4/4 14/14/14
f 14/14/14 5/5/5 9/9/9
f 8/8/8 9/9/9 5/5/5
f 8/8/8 5/5/5 3/3/3
f 12/12/12 3/3/3 5/5/5
f 13/13/13 12/12/12 5/5/5
f 5/5/5 14/14/14 13/13/13
f 13/13/13 14/14/14 33/33/33
f 10/10/10 30/30/30 29/29/29
f 10/10/10 11/11/11 30/30/30
f 11/11/11 31/31/31 30/30/30
f 32/32/32 31/31/31 11/11/11
f 17/17/17 28/28/28 21/21/21
f 21/21/21 28/28/28 22/22/22
f 28/28/28 27/27/27 22/22/22
f 27/27/27 28/28/28 26/26/26
f 28/28/28 25/25/25 26/26/26
f 27/27/27 26/26/26 24/24/24
f 18/18/18 22/22/22 27/27/27
f 18/18/18 27/27/27 24/24/24
f 20/20/20 22/22/22 18/18/18
f 18/18/18 24/24/24 16/16/16
f 16/16/16 20/20/20 18/18/18
f 24/24/24 23/23/23 16/16/16
f 19/19/19 20/20/20 16/16/16
f 16/16/16 23/23/23 15/15/15
f 15/15/15 19/19/19 16/16/16
