g rarity3_boomGlow_mesh
v -1.028576 -0.288763 -0.3447205
v -0.6560218 1.697579E-08 -0.198452
v -1.075034 1.697579E-08 -0.3252067
v -0.6276716 -0.1762129 -0.21036
v -6.934783E-09 1.697579E-08 1.129857E-08
v -0.5571587 -0.3405889 -0.2081374
v -6.934783E-09 1.697579E-08 1.129857E-08
v -0.9130254 -0.558129 -0.3410784
v -0.7343636 -0.7889152 -0.3138598
v -0.4481333 -0.4814225 -0.1915277
v -6.934783E-09 1.697579E-08 1.129857E-08
v -0.3090053 -0.5899174 -0.1620526
v -6.934783E-09 1.697579E-08 1.129857E-08
v -0.5063723 -0.9667076 -0.2655583
v -0.243379 -1.077678 -0.1989006
v -0.148518 -0.6576353 -0.1213758
v -6.934783E-09 1.697579E-08 1.129857E-08
v 0.02194572 -0.6811779 -0.0725459
v 0.03596284 -1.116258 -0.1188821
v 0.3128188 -1.077678 -0.03064616
v 0.1908925 -0.6576353 -0.01870133
v -6.934783E-09 1.697579E-08 1.129857E-08
v 0.3470165 -0.5899174 0.03639947
v 0.5686618 -0.9667076 0.05964838
v 0.7851971 -0.7889152 0.1458199
v 0.4791536 -0.4814225 0.08898418
v -6.934783E-09 1.697579E-08 1.129857E-08
v 0.5791044 -0.3405889 0.1355916
v -6.934783E-09 1.697579E-08 1.129857E-08
v 0.9489883 -0.558129 0.2221962
v 1.047183 -0.288763 0.2832136
v 0.6390258 -0.1762129 0.1728265
v -6.934783E-09 1.697579E-08 1.129857E-08
v 0.6560218 1.697579E-08 0.198452
v 1.075034 1.697579E-08 0.3252067
v -6.934783E-09 1.697579E-08 1.129857E-08
v -0.6560218 1.697579E-08 -0.198452
v -1.047183 0.2887631 -0.2832136
v -1.075034 1.697579E-08 -0.3252067
v -0.6390258 0.1762128 -0.1728264
v -6.934783E-09 1.697579E-08 1.129857E-08
v -0.5791044 0.340589 -0.1355916
v -6.934783E-09 1.697579E-08 1.129857E-08
v -0.9489883 0.558129 -0.2221962
v -0.7851971 0.7889152 -0.1458199
v -0.4791536 0.4814226 -0.08898421
v -6.934783E-09 1.697579E-08 1.129857E-08
v -0.3470165 0.5899173 -0.0363995
v -6.934783E-09 1.697579E-08 1.129857E-08
v -0.5686618 0.9667076 -0.05964841
v -0.3128188 1.077678 0.03064619
v -0.1908925 0.6576353 0.0187013
v -6.934783E-09 1.697579E-08 1.129857E-08
v -0.02194572 0.6811779 0.07254587
v -0.03596284 1.116258 0.1188822
v 0.243379 1.077678 0.1989007
v 0.148518 0.6576353 0.1213758
v -6.934783E-09 1.697579E-08 1.129857E-08
v 0.3090053 0.5899173 0.1620526
v 0.5063723 0.9667076 0.2655583
v 0.7343636 0.7889152 0.3138598
v 0.4481333 0.4814226 0.1915278
v -6.934783E-09 1.697579E-08 1.129857E-08
v 0.5571587 0.340589 0.2081374
v -6.934783E-09 1.697579E-08 1.129857E-08
v 0.9130255 0.558129 0.3410784
v 1.028576 0.2887631 0.3447205
v 0.6276716 0.1762128 0.21036
v -6.934783E-09 1.697579E-08 1.129857E-08
v 0.6560218 1.697579E-08 0.198452
v 1.075034 1.697579E-08 0.3252067
v -6.934783E-09 1.697579E-08 1.129857E-08
vt 0.7948499 0.5127376
vt 0.8317387 0.8229852
vt 0.7915868 0.5107503
vt 0.8324448 0.8234153
vt 0.8485738 0.9929308
vt 0.8331507 0.8238451
vt 0.8485738 0.9929308
vt 0.7981132 0.514725
vt 0.8070283 0.5161796
vt 0.8350797 0.82416
vt 0.8485738 0.9929308
vt 0.8370086 0.8244748
vt 0.8485738 0.9929308
vt 0.8159432 0.5176344
vt 0.8281214 0.518167
vt 0.8396436 0.8245901
vt 0.8485738 0.9929308
vt 0.8422786 0.8247051
vt 0.8402997 0.5186995
vt 0.852478 0.5181669
vt 0.8449137 0.82459
vt 0.8485738 0.9929308
vt 0.8475486 0.8244748
vt 0.8646563 0.5176346
vt 0.873571 0.5161796
vt 0.8494775 0.82416
vt 0.8485738 0.9929308
vt 0.8514065 0.8238451
vt 0.8485738 0.9929308
vt 0.8824859 0.5147247
vt 0.8857492 0.5127376
vt 0.8521125 0.8234152
vt 0.8485738 0.9929308
vt 0.8528185 0.8229852
vt 0.8890124 0.5107505
vt 0.8485738 0.9929308
vt 0.8317387 0.8229852
vt 0.7948502 0.5087633
vt 0.7915868 0.5107503
vt 0.8324448 0.8225552
vt 0.8485738 0.9929308
vt 0.8331507 0.8221252
vt 0.8485738 0.9929308
vt 0.7981132 0.506776
vt 0.8070283 0.5053213
vt 0.8350797 0.8218105
vt 0.8485738 0.9929308
vt 0.8370086 0.8214958
vt 0.8485738 0.9929308
vt 0.8159432 0.5038664
vt 0.8281216 0.5033337
vt 0.8396436 0.8213806
vt 0.8485738 0.9929308
vt 0.8422786 0.8212653
vt 0.8402997 0.5028014
vt 0.852478 0.503334
vt 0.8449136 0.8213806
vt 0.8485738 0.9929308
vt 0.8475485 0.8214959
vt 0.8646561 0.5038665
vt 0.873571 0.505321
vt 0.8494775 0.8218105
vt 0.8485738 0.9929308
vt 0.8514065 0.8221252
vt 0.8485738 0.9929308
vt 0.8824861 0.5067757
vt 0.8857491 0.5087632
vt 0.8521125 0.8225552
vt 0.8485738 0.9929308
vt 0.8528185 0.8229852
vt 0.8890124 0.5107505
vt 0.8485738 0.9929308
vn 0.2877738 0.1105845 -0.9512925
vn 0.2877738 0.1105845 -0.9512925
vn 0.2877738 0.1105845 -0.9512925
vn 0.2877738 0.1105845 -0.9512925
vn 0.2877738 0.1105846 -0.9512925
vn 0.2877738 0.1105845 -0.9512925
vn 0.2877737 0.1105844 -0.9512925
vn 0.2877739 0.1105846 -0.9512925
vn 0.287774 0.1105845 -0.9512925
vn 0.2877739 0.1105845 -0.9512925
vn 0.2877737 0.1105844 -0.9512925
vn 0.2877738 0.1105845 -0.9512925
vn 0.2877737 0.1105846 -0.9512925
vn 0.2877739 0.1105845 -0.9512925
vn 0.2877738 0.1105845 -0.9512925
vn 0.2877738 0.1105845 -0.9512925
vn 0.2877739 0.1105846 -0.9512925
vn 0.2877739 0.1105845 -0.9512925
vn 0.2877739 0.1105844 -0.9512925
vn 0.2877739 0.1105845 -0.9512925
vn 0.2877738 0.1105845 -0.9512925
vn 0.2877738 0.1105845 -0.9512925
vn 0.2877738 0.1105846 -0.9512925
vn 0.2877739 0.1105846 -0.9512925
vn 0.2877739 0.1105846 -0.9512925
vn 0.2877739 0.1105846 -0.9512925
vn 0.2877738 0.1105845 -0.9512925
vn 0.2877738 0.1105846 -0.9512925
vn 0.2877738 0.1105846 -0.9512925
vn 0.2877739 0.1105846 -0.9512925
vn 0.2877738 0.1105845 -0.9512925
vn 0.2877738 0.1105845 -0.9512925
vn 0.2877738 0.1105846 -0.9512925
vn 0.2877738 0.1105845 -0.9512925
vn 0.2877738 0.1105845 -0.9512925
vn 0.2877738 0.1105845 -0.9512925
vn 0.2877738 0.1105845 -0.9512925
vn 0.2877738 0.1105846 -0.9512925
vn 0.2877738 0.1105845 -0.9512925
vn 0.2877738 0.1105845 -0.9512925
vn 0.2877738 0.1105846 -0.9512925
vn 0.2877737 0.1105844 -0.9512925
vn 0.287774 0.1105845 -0.9512925
vn 0.2877736 0.1105844 -0.9512925
vn 0.2877738 0.1105845 -0.9512925
vn 0.2877737 0.1105845 -0.9512925
vn 0.287774 0.1105845 -0.9512925
vn 0.2877739 0.1105846 -0.9512925
vn 0.2877738 0.1105845 -0.9512925
vn 0.287774 0.1105846 -0.9512925
vn 0.2877738 0.1105846 -0.9512925
vn 0.2877739 0.1105845 -0.9512925
vn 0.2877738 0.1105845 -0.9512925
vn 0.287774 0.1105845 -0.9512925
vn 0.2877738 0.1105845 -0.9512925
vn 0.2877738 0.1105845 -0.9512925
vn 0.2877739 0.1105845 -0.9512925
vn 0.2877742 0.1105845 -0.9512923
vn 0.2877738 0.1105846 -0.9512925
vn 0.2877738 0.1105846 -0.9512925
vn 0.2877738 0.1105846 -0.9512925
vn 0.2877737 0.1105846 -0.9512925
vn 0.2877737 0.1105846 -0.9512925
vn 0.2877738 0.1105846 -0.9512925
vn 0.2877738 0.1105846 -0.9512925
vn 0.2877738 0.1105846 -0.9512925
vn 0.2877739 0.1105846 -0.9512925
vn 0.2877739 0.1105846 -0.9512925
vn 0.2877738 0.1105846 -0.9512925
vn 0.2877738 0.1105845 -0.9512925
vn 0.2877738 0.1105845 -0.9512925
vn 0.2877738 0.1105845 -0.9512925
g rarity3_boomGlow_mesh_0
f 3/3/3 2/2/2 1/1/1
f 2/2/2 4/4/4 1/1/1
f 4/4/4 2/2/2 5/5/5
f 1/1/1 4/4/4 6/6/6
f 7/7/7 6/6/6 4/4/4
f 8/8/8 1/1/1 6/6/6
f 8/8/8 6/6/6 9/9/9
f 6/6/6 10/10/10 9/9/9
f 10/10/10 6/6/6 11/11/11
f 9/9/9 10/10/10 12/12/12
f 13/13/13 12/12/12 10/10/10
f 14/14/14 9/9/9 12/12/12
f 14/14/14 12/12/12 15/15/15
f 12/12/12 16/16/16 15/15/15
f 16/16/16 12/12/12 17/17/17
f 17/17/17 18/18/18 16/16/16
f 15/15/15 16/16/16 18/18/18
f 19/19/19 15/15/15 18/18/18
f 19/19/19 18/18/18 20/20/20
f 18/18/18 21/21/21 20/20/20
f 21/21/21 18/18/18 22/22/22
f 22/22/22 23/23/23 21/21/21
f 20/20/20 21/21/21 23/23/23
f 24/24/24 20/20/20 23/23/23
f 24/24/24 23/23/23 25/25/25
f 23/23/23 26/26/26 25/25/25
f 26/26/26 23/23/23 27/27/27
f 25/25/25 26/26/26 28/28/28
f 29/29/29 28/28/28 26/26/26
f 30/30/30 25/25/25 28/28/28
f 30/30/30 28/28/28 31/31/31
f 28/28/28 32/32/32 31/31/31
f 32/32/32 28/28/28 33/33/33
f 31/31/31 32/32/32 34/34/34
f 35/35/35 31/31/31 34/34/34
f 36/36/36 34/34/34 32/32/32
f 39/39/39 38/38/38 37/37/37
f 38/38/38 40/40/40 37/37/37
f 41/41/41 37/37/37 40/40/40
f 42/42/42 40/40/40 38/38/38
f 40/40/40 42/42/42 43/43/43
f 44/44/44 42/42/42 38/38/38
f 44/44/44 45/45/45 42/42/42
f 45/45/45 46/46/46 42/42/42
f 47/47/47 42/42/42 46/46/46
f 48/48/48 46/46/46 45/45/45
f 46/46/46 48/48/48 49/49/49
f 50/50/50 48/48/48 45/45/45
f 50/50/50 51/51/51 48/48/48
f 51/51/51 52/52/52 48/48/48
f 53/53/53 48/48/48 52/52/52
f 52/52/52 54/54/54 53/53/53
f 54/54/54 52/52/52 51/51/51
f 55/55/55 54/54/54 51/51/51
f 55/55/55 56/56/56 54/54/54
f 56/56/56 57/57/57 54/54/54
f 58/58/58 54/54/54 57/57/57
f 57/57/57 59/59/59 58/58/58
f 59/59/59 57/57/57 56/56/56
f 60/60/60 59/59/59 56/56/56
f 60/60/60 61/61/61 59/59/59
f 61/61/61 62/62/62 59/59/59
f 63/63/63 59/59/59 62/62/62
f 64/64/64 62/62/62 61/61/61
f 62/62/62 64/64/64 65/65/65
f 66/66/66 64/64/64 61/61/61
f 66/66/66 67/67/67 64/64/64
f 67/67/67 68/68/68 64/64/64
f 69/69/69 64/64/64 68/68/68
f 70/70/70 68/68/68 67/67/67
f 71/71/71 70/70/70 67/67/67
f 68/68/68 70/70/70 72/72/72
