g rarity3_shockwave2_mesh
v -0.4276618 0.2783453 -0.8573014
v -0.4206632 0.2403862 -0.3630025
v -0.6932251 0.3961404 -0.5982041
v -0.2595137 0.1689054 -0.5202283
v -0.1987402 0.1135692 -0.1714988
v -0.09699082 0.1181745 -0.9858822
v -0.1226061 0.07979863 -0.2457798
v -0.05885589 0.07171064 -0.5982531
v 0.248446 -0.05998725 -0.9643714
v -0.02780637 0.03387945 -0.2826424
v 0.1507615 -0.0364011 -0.5852001
v 0.5560592 -0.2290164 -0.7960438
v 0.07122707 -0.01719792 -0.2764753
v 0.3374281 -0.1389719 -0.4830557
v 0.7790174 -0.3631799 -0.5065258
v 0.1594162 -0.06565661 -0.2282173
v 0.4727233 -0.2203848 -0.3073701
v 0.8833773 -0.4420525 -0.1398937
v 0.2233364 -0.1041201 -0.1452157
v 0.5360511 -0.2682464 -0.08489037
v 0.853251 -0.4536268 0.2480358
v 0.2532553 -0.1267319 -0.04010627
v 0.5177703 -0.27527 0.1505128
v 0.6932253 -0.3961405 0.5982038
v 0.2446181 -0.13005 0.07110947
v 0.4206629 -0.240386 0.363002
v 0.1987402 -0.1135693 0.1714986
v 0.4276621 -0.2783454 0.8573011
v 0.4206629 -0.240386 0.363002
v 0.6932253 -0.3961405 0.5982038
v 0.2595136 -0.1689055 0.5202276
v 0.1987402 -0.1135693 0.1714986
v 0.09699118 -0.1181746 0.9858821
v 0.1226062 -0.07979877 0.2457796
v 0.05885625 -0.07171077 0.5982532
v -0.2484458 0.05998712 0.9643716
v 0.0278064 -0.03387959 0.2826424
v -0.1507617 0.0364012 0.5852001
v -0.5560589 0.2290162 0.7960441
v -0.07122672 0.01719754 0.2764754
v -0.337428 0.1389717 0.4830558
v -0.7790173 0.3631799 0.5065261
v -0.1594162 0.06565648 0.2282173
v -0.4727235 0.2203849 0.3073701
v -0.8833773 0.4420525 0.139894
v -0.2233364 0.1041199 0.1452156
v -0.536051 0.2682464 0.08489037
v -0.853251 0.4536268 -0.2480357
v -0.2532553 0.1267319 0.04010615
v -0.5177702 0.2752699 -0.1505127
v -0.6932251 0.3961404 -0.5982041
v -0.2446183 0.1300501 -0.07110924
v -0.4206632 0.2403862 -0.3630025
v -0.1987402 0.1135692 -0.1714988
vt 0.853096 0.9943618
vt 0.8570859 0.9204382
vt 0.8543336 0.9947121
vt 0.85557 0.9199683
vt 0.8659526 0.5567042
vt 0.8495721 0.9940647
vt 0.8641357 0.5564714
vt 0.8512524 0.91957
vt 0.8442982 0.9938661
vt 0.8589621 0.5562741
vt 0.8447907 0.9193042
vt 0.8380768 0.9937965
vt 0.8512189 0.5561422
vt 0.8371688 0.9192106
vt 0.8318559 0.9938661
vt 0.8420852 0.5560959
vt 0.8295466 0.9193041
vt 0.8265817 0.9940645
vt 0.8329518 0.5561422
vt 0.8230851 0.91957
vt 0.8230577 0.9943618
vt 0.8252087 0.5562741
vt 0.8187677 0.9199684
vt 0.8218204 0.9947121
vt 0.8200349 0.5564714
vt 0.8172515 0.9204382
vt 0.8182181 0.5567042
vt 0.8230578 0.9950627
vt 0.8172515 0.9204382
vt 0.8218204 0.9947121
vt 0.8187676 0.9209079
vt 0.8182181 0.5567042
vt 0.8265817 0.9953595
vt 0.8200349 0.5569369
vt 0.823085 0.9213063
vt 0.8318557 0.9955583
vt 0.8252087 0.5571342
vt 0.8295467 0.9215721
vt 0.8380769 0.9956278
vt 0.8329518 0.557266
vt 0.8371688 0.9216656
vt 0.8442982 0.9955581
vt 0.8420854 0.5573124
vt 0.8447908 0.9215721
vt 0.8495721 0.9953598
vt 0.8512189 0.557266
vt 0.8512524 0.9213063
vt 0.8530961 0.9950627
vt 0.8589619 0.5571342
vt 0.8555699 0.9209079
vt 0.8543336 0.9947121
vt 0.8641359 0.5569369
vt 0.8570859 0.9204382
vt 0.8659526 0.5567042
vn 0.4544632 0.8886188 0.06180569
vn 0.4544633 0.8886188 0.06180573
vn 0.4544632 0.8886188 0.06180561
vn 0.4544632 0.8886188 0.06180582
vn 0.4544633 0.8886186 0.06180606
vn 0.4544632 0.8886188 0.06180579
vn 0.4544632 0.8886188 0.06180614
vn 0.4544632 0.8886188 0.061806
vn 0.4544632 0.8886188 0.06180618
vn 0.4544632 0.8886188 0.06180657
vn 0.4544632 0.8886186 0.06180624
vn 0.4544632 0.8886188 0.06180598
vn 0.4544633 0.8886186 0.06180639
vn 0.4544632 0.8886188 0.06180592
vn 0.4544631 0.8886188 0.06180574
vn 0.4544632 0.8886188 0.06180577
vn 0.4544631 0.8886188 0.06180567
vn 0.4544632 0.8886186 0.06180589
vn 0.454463 0.8886188 0.06180545
vn 0.4544632 0.8886188 0.06180592
vn 0.4544632 0.8886186 0.06180591
vn 0.4544631 0.8886188 0.061806
vn 0.4544632 0.8886186 0.06180606
vn 0.4544632 0.8886188 0.06180598
vn 0.454463 0.8886188 0.0618065
vn 0.4544632 0.8886188 0.06180598
vn 0.4544629 0.8886188 0.06180596
vn 0.4544633 0.8886186 0.0618058
vn 0.4544632 0.8886188 0.06180598
vn 0.4544632 0.8886188 0.06180598
vn 0.4544632 0.8886188 0.06180575
vn 0.4544629 0.8886188 0.06180596
vn 0.4544633 0.8886188 0.06180584
vn 0.4544631 0.8886188 0.06180561
vn 0.4544632 0.8886188 0.06180578
vn 0.4544631 0.8886188 0.06180611
vn 0.4544632 0.8886188 0.06180559
vn 0.4544632 0.8886188 0.06180605
vn 0.4544632 0.8886186 0.06180609
vn 0.4544632 0.8886188 0.06180587
vn 0.4544632 0.8886188 0.06180603
vn 0.4544633 0.8886186 0.06180609
vn 0.4544632 0.8886188 0.06180584
vn 0.4544633 0.8886186 0.06180606
vn 0.4544632 0.8886186 0.06180612
vn 0.4544633 0.8886186 0.06180595
vn 0.4544633 0.8886186 0.06180603
vn 0.4544632 0.8886188 0.06180575
vn 0.4544633 0.8886186 0.06180578
vn 0.4544633 0.8886188 0.06180574
vn 0.4544632 0.8886188 0.06180561
vn 0.4544632 0.8886188 0.06180566
vn 0.4544633 0.8886188 0.06180573
vn 0.4544633 0.8886186 0.06180606
g rarity3_shockwave2_mesh_0
f 3/3/3 2/2/2 1/1/1
f 2/2/2 4/4/4 1/1/1
f 2/2/2 5/5/5 4/4/4
f 1/1/1 4/4/4 6/6/6
f 5/5/5 7/7/7 4/4/4
f 4/4/4 8/8/8 6/6/6
f 4/4/4 7/7/7 8/8/8
f 6/6/6 8/8/8 9/9/9
f 7/7/7 10/10/10 8/8/8
f 8/8/8 11/11/11 9/9/9
f 8/8/8 10/10/10 11/11/11
f 9/9/9 11/11/11 12/12/12
f 10/10/10 13/13/13 11/11/11
f 11/11/11 14/14/14 12/12/12
f 11/11/11 13/13/13 14/14/14
f 12/12/12 14/14/14 15/15/15
f 13/13/13 16/16/16 14/14/14
f 14/14/14 17/17/17 15/15/15
f 14/14/14 16/16/16 17/17/17
f 15/15/15 17/17/17 18/18/18
f 16/16/16 19/19/19 17/17/17
f 17/17/17 20/20/20 18/18/18
f 17/17/17 19/19/19 20/20/20
f 18/18/18 20/20/20 21/21/21
f 19/19/19 22/22/22 20/20/20
f 20/20/20 23/23/23 21/21/21
f 20/20/20 22/22/22 23/23/23
f 21/21/21 23/23/23 24/24/24
f 22/22/22 25/25/25 23/23/23
f 23/23/23 26/26/26 24/24/24
f 23/23/23 25/25/25 26/26/26
f 25/25/25 27/27/27 26/26/26
f 30/30/30 29/29/29 28/28/28
f 29/29/29 31/31/31 28/28/28
f 29/29/29 32/32/32 31/31/31
f 28/28/28 31/31/31 33/33/33
f 32/32/32 34/34/34 31/31/31
f 31/31/31 35/35/35 33/33/33
f 31/31/31 34/34/34 35/35/35
f 33/33/33 35/35/35 36/36/36
f 34/34/34 37/37/37 35/35/35
f 35/35/35 38/38/38 36/36/36
f 35/35/35 37/37/37 38/38/38
f 36/36/36 38/38/38 39/39/39
f 37/37/37 40/40/40 38/38/38
f 38/38/38 41/41/41 39/39/39
f 38/38/38 40/40/40 41/41/41
f 39/39/39 41/41/41 42/42/42
f 40/40/40 43/43/43 41/41/41
f 41/41/41 44/44/44 42/42/42
f 41/41/41 43/43/43 44/44/44
f 42/42/42 44/44/44 45/45/45
f 43/43/43 46/46/46 44/44/44
f 44/44/44 47/47/47 45/45/45
f 44/44/44 46/46/46 47/47/47
f 45/45/45 47/47/47 48/48/48
f 46/46/46 49/49/49 47/47/47
f 47/47/47 50/50/50 48/48/48
f 47/47/47 49/49/49 50/50/50
f 48/48/48 50/50/50 51/51/51
f 49/49/49 52/52/52 50/50/50
f 50/50/50 53/53/53 51/51/51
f 50/50/50 52/52/52 53/53/53
f 52/52/52 54/54/54 53/53/53
