g rarity3_lightning4_1_mesh
v -0.02283141 -0.3949106 -1.211314
v -0.1813711 -1.004521 -2.372968
v -0.07329026 -0.4298036 -1.821362
v -0.1799903 -0.8229871 -1.719085
v -0.1813711 -1.004521 -2.372968
v -0.0199469 -0.3955796 -1.196589
v 0.04675332 0.05338334 -1.166401
v 0.03870678 0.03170084 -0.7187126
v 0.03637815 0.0583794 -1.221495
v -0.07329026 -0.4298036 -1.821362
v -0.001372339 0.04348468 -1.814328
v 0.0004912603 0.3167412 -1.238639
v 0.04174623 0.229429 -0.687053
v 0.03870678 0.03170084 -0.7187126
v -0.02762494 -0.7391946 -1.454389
v -0.001187355 -0.1558478 -0.6989
v -0.0008721065 0.6063774 -1.736544
v -0.001372339 0.04348468 -1.814328
v -0.1395187 0.7950542 -2.494924
v 0.03637815 0.0583794 -1.221495
v -0.0008721065 0.6063774 -1.736544
v 0.02661717 0.7291048 -1.062541
v 0.01122907 0.4755666 -0.4584744
v 0.04174623 0.229429 -0.687053
v -0.1799903 -0.8229871 -1.719085
v -0.02762494 -0.7391946 -1.454389
v -0.03386036 -0.9218347 -0.8966296
v -0.01208189 -0.9020255 -0.8671153
v 0.1557211 -1.132529 -0.1562789
v -0.0148114 -0.4958255 -0.7362783
v 0.04227471 -0.6343808 -0.5659893
v 0.1336888 -1.101337 -0.1370838
v 0.04227471 -0.6343808 -0.5659893
v 0.02979165 -0.7423465 -0.05679872
v -0.01072183 -1.89017 0.2412831
v -0.0185602 -1.240638 0.2157643
v 0.0004912305 -1.072482 0.9075778
v 0.0004912305 -1.517336 1.028523
v 0.01770624 -2.564831 0.2858944
v -0.001187355 -0.1558478 -0.6989
v -0.0148114 -0.4958255 -0.7362783
v -0.0185602 -1.240638 0.2157643
v 0.02979165 -0.7423465 -0.05679872
v 0.01024792 -0.6860211 0.1815343
v 0.1557211 -1.132529 -0.1562789
v 0.01770624 -2.564831 0.2858944
v 0.1796939 -1.564517 -0.352495
v -0.03386036 -0.9218347 -0.8966296
v 0.1796939 -1.564517 -0.352495
v -0.04242459 -1.283248 -1.285262
v -0.1799903 -0.8229871 -1.719085
v -0.04242459 -1.283248 -1.285262
v -0.1813711 -1.004521 -2.372968
v 0.03674239 1.278522 1.089807
v -0.01813355 0.3375609 0.642839
v 0.03852805 0.6829126 0.5171676
v 0.07872942 1.560792 1.312841
v 0.0004912305 0.611799 1.261751
v 0.0004912305 0.611799 1.261751
v -0.01813355 0.3375609 0.642839
v 0.00185123 0.6363943 1.317464
v 0.0525541 2.005698 1.732674
v 0.001851528 0.8783314 2.055416
v 0.01418382 0.05224084 1.192757
v 0.0170891 0.1919038 1.270557
v 0.02026701 0.03829669 0.6025684
v -0.01813355 0.3375609 0.642839
v -0.003774853 -0.2996068 1.612903
v -0.01104406 -0.3223665 0.6809421
v 0.02026701 0.03829669 0.6025684
v 0.002093642 -0.5295634 0.6178496
v -0.01104406 -0.3223665 0.6809421
v -0.003774853 -0.2996068 1.612903
v -0.03186873 -0.6249001 1.147196
v 0.002094059 -0.5876656 0.5507305
v 0.002093642 -0.5295634 0.6178496
v 0.0004911113 -0.9849708 0.8713295
v 0.00185123 0.6363943 1.317464
v 0.001851528 0.8783314 2.055416
v -0.00159678 0.1454398 1.885493
v 0.01024792 -0.6860211 0.1815343
v 0.002094059 -0.5876656 0.5507305
v -0.0185602 -1.240638 0.2157643
v -0.03186861 -0.6486948 1.208526
v -0.03186873 -0.6249001 1.147196
v -0.0359017 -1.294977 1.693008
v 0.0004912305 -1.517336 1.028523
v 0.01475409 -0.3803232 2.045098
v 0.05435285 -0.5132749 2.610272
v -0.0359017 -1.294977 1.693008
v 0.01475409 -0.3803232 2.045098
v -0.003774853 -0.2996068 1.612903
v -0.00159678 0.1454398 1.885493
v 0.05435285 -0.5132749 2.610272
v -0.0199469 -0.3955796 -1.196589
v 0.03870678 0.03170084 -0.7187126
v -0.001187355 -0.1558478 -0.6989
v 0.01583144 1.207843 0.1743574
v 0.07872942 1.560792 1.312841
v 0.03674239 1.278522 1.089807
v 0.00304526 1.144996 0.1668219
v -0.006771059 1.723815 -0.1234045
v -0.01035687 2.360316 -0.2219584
v 0.008904724 1.923519 0.721812
v -0.006771059 1.723815 -0.1234045
v -0.001089276 1.217557 -0.1412444
v 0.01033559 1.09965 -0.5442908
v 0.008023529 1.7101 -0.8400915
v -0.01035687 2.360316 -0.2219584
v 0.01033559 1.09965 -0.5442908
v 0.07872942 1.560792 1.312841
v 0.008904724 1.923519 0.721812
v 0.0525541 2.005698 1.732674
v 0.01998296 1.096233 -1.52967
v 0.008023529 1.7101 -0.8400915
v 0.02661717 0.7527711 -1.086207
v -0.1395187 0.7950542 -2.494924
v 0.01998296 1.096233 -1.52967
v -0.0008721065 0.6063774 -1.736544
v 0.02661717 0.7527711 -1.086207
v 0.007179199 1.063833 -0.5530436
v -0.001089276 1.217557 -0.1412444
v -0.004346014 0.7684314 -0.1067725
v 0.008023529 0.5651543 -0.3980005
v 0.008023529 0.5651543 -0.3980005
v 0.01122907 0.4755666 -0.4584744
v -0.001089276 1.217557 -0.1412444
v 0.01771042 0.8205106 0.1497645
v -0.004346014 0.7684314 -0.1067725
v 0.00304526 1.144996 0.1668219
v 0.03852805 0.6829126 0.5171676
v 0.01771042 0.8205106 0.1497645
vt 0.8322144 0.9905764
vt 0.8494825 0.5218146
vt 0.8255845 0.5229127
vt 0.8328836 0.9911633
vt 0.8494825 0.5218146
vt 0.8320264 0.9896927
vt 0.831812 0.9904788
vt 0.8151485 0.5114743
vt 0.8317857 0.9913818
vt 0.8487542 0.5218481
vt 0.8248559 0.5229461
vt 0.8312016 0.9903468
vt 0.8240912 0.5103687
vt 0.8479894 0.5114668
vt 0.8325077 0.9903404
vt 0.8155127 0.5114575
vt 0.830858 0.9911761
vt 0.8381178 0.5229311
vt 0.8142197 0.5218329
vt 0.8317857 0.9913818
vt 0.830858 0.9911761
vt 0.8306615 0.9899859
vt 0.8340209 0.5101302
vt 0.8542808 0.5132574
vt 0.8328836 0.9911633
vt 0.8325077 0.9903404
vt 0.8336502 0.9906208
vt 0.8330154 0.9899859
vt 0.8342056 0.9897895
vt 0.809021 0.5132574
vt 0.8292809 0.5101302
vt 0.8333762 0.9894459
vt 0.8061748 0.5154679
vt 0.819712 0.5107877
vt 0.8344007 0.988809
vt 0.8335029 0.988809
vt 0.8342056 0.9878286
vt 0.8568345 0.5119886
vt 0.8615882 0.5175092
vt 0.8155127 0.5114575
vt 0.8394108 0.5103594
vt 0.8335029 0.988809
vt 0.807207 0.5177617
vt 0.8119608 0.512241
vt 0.8342056 0.9897895
vt 0.8615882 0.5145214
vt 0.8568346 0.5200421
vt 0.8336502 0.9906208
vt 0.8617842 0.5172817
vt 0.8482469 0.5219619
vt 0.8328836 0.9911633
vt 0.8573926 0.5198492
vt 0.8371328 0.5229764
vt 0.8306615 0.9876321
vt 0.8542808 0.5187733
vt 0.8340209 0.5219005
vt 0.8300267 0.9869972
vt 0.8312016 0.9872712
vt 0.8312016 0.9872712
vt 0.8542808 0.5187733
vt 0.830858 0.9864419
vt 0.8059092 0.5121815
vt 0.8261691 0.5090544
vt 0.8318385 0.9871445
vt 0.8318385 0.9862468
vt 0.8479892 0.520564
vt 0.8240912 0.5216621
vt 0.8324754 0.9872712
vt 0.8392105 0.521662
vt 0.8153123 0.520564
vt 0.8292809 0.5219005
vt 0.809021 0.5187733
vt 0.8324754 0.9872712
vt 0.8330154 0.987632
vt 0.819712 0.521243
vt 0.8061748 0.5165628
vt 0.8333762 0.9881721
vt 0.830858 0.9864419
vt 0.8142196 0.5101976
vt 0.8381178 0.5090996
vt 0.8119607 0.5197896
vt 0.8072071 0.514269
vt 0.8335029 0.988809
vt 0.8336502 0.9869972
vt 0.8330154 0.987632
vt 0.8482469 0.5100688
vt 0.8617842 0.5147489
vt 0.832819 0.9864419
vt 0.8371328 0.5090543
vt 0.8573926 0.5121815
vt 0.832819 0.9864419
vt 0.8324754 0.9872712
vt 0.825184 0.5090996
vt 0.8490821 0.5101978
vt 0.8320264 0.9896927
vt 0.8151485 0.5114743
vt 0.8390466 0.5103762
vt 0.8294713 0.9878286
vt 0.8300267 0.9869972
vt 0.8306615 0.9876321
vt 0.8303007 0.9881721
vt 0.8292763 0.988809
vt 0.8017135 0.5175092
vt 0.8064672 0.5119885
vt 0.8292763 0.988809
vt 0.8301741 0.988809
vt 0.8294713 0.9897895
vt 0.8064672 0.5200421
vt 0.8017135 0.5145214
vt 0.8294713 0.9897895
vt 0.8300267 0.9869972
vt 0.8015175 0.5147489
vt 0.8150548 0.5100688
vt 0.8150549 0.5219619
vt 0.8015176 0.5172817
vt 0.8300267 0.9906208
vt 0.8261691 0.5229764
vt 0.8059092 0.5198492
vt 0.830858 0.9911761
vt 0.8300267 0.9906208
vt 0.8303008 0.9894459
vt 0.8301741 0.988809
vt 0.851341 0.5122411
vt 0.8560947 0.5177617
vt 0.8435897 0.5107877
vt 0.857127 0.5154679
vt 0.8301741 0.988809
vt 0.8560947 0.5142691
vt 0.851341 0.5197897
vt 0.8303007 0.9881721
vt 0.857127 0.5165628
vt 0.8435897 0.5212431
vn -0.9869097 0.09251186 0.1321017
vn -0.9981238 0.004102168 0.06109075
vn -0.9766432 0.2136007 0.02329592
vn -0.9973305 0.008520445 0.07252096
vn -0.9981238 0.004102168 0.06109075
vn -0.9981447 0.03407866 0.05045412
vn -0.9997713 0.02130246 -0.001899364
vn -0.9983426 0.05725458 -0.005825512
vn -0.9968418 0.03743016 0.0700388
vn -0.9766432 0.2136007 0.02329592
vn -0.9935776 0.03653334 0.1070928
vn -0.9992293 -0.03859531 0.007151979
vn -0.9991235 -0.0373622 0.01887391
vn -0.9983426 0.05725458 -0.005825512
vn -0.9550752 0.1663394 0.2452804
vn -0.9935538 0.1128479 -0.01078228
vn -0.993189 -0.01029713 0.1160587
vn -0.9935776 0.03653334 0.1070928
vn -0.9923795 -0.01234818 0.1225988
vn -0.9968418 0.03743016 0.0700388
vn -0.993189 -0.01029713 0.1160587
vn -0.9999381 0.00719471 0.008485974
vn -0.9998561 -0.01430951 -0.009109839
vn -0.9991235 -0.0373622 0.01887391
vn -0.9973305 0.008520445 0.07252096
vn -0.9550752 0.1663394 0.2452804
vn -0.9812878 -0.06463765 0.1813731
vn -0.9947053 -0.002264321 0.1027436
vn -0.9918107 -0.09611048 -0.08410911
vn -0.9987111 -0.005498165 0.05045727
vn -0.9924697 -0.0945578 0.07786356
vn -0.9798852 -0.08771012 -0.1792537
vn -0.9924697 -0.0945578 0.07786356
vn -0.9910856 -0.0987881 -0.08938845
vn -0.991639 -0.01370087 -0.1283143
vn -0.9926308 -0.01226427 -0.1205557
vn -0.9997445 -0.02015911 -0.01022528
vn -0.999728 -0.02323334 -0.001994106
vn -0.9946068 -0.01484006 -0.1026506
vn -0.9935538 0.1128479 -0.01078228
vn -0.9987111 -0.005498165 0.05045727
vn -0.9926308 -0.01226427 -0.1205557
vn -0.9910856 -0.0987881 -0.08938845
vn -0.9964129 0.003922085 -0.08453386
vn -0.9918107 -0.09611048 -0.08410911
vn -0.9946068 -0.01484006 -0.1026506
vn -0.9940102 -0.07962333 -0.07485904
vn -0.9812878 -0.06463765 0.1813731
vn -0.9940102 -0.07962333 -0.07485904
vn -0.9740759 -0.1791737 0.1381047
vn -0.9973305 0.008520445 0.07252096
vn -0.9740759 -0.1791737 0.1381047
vn -0.9981238 0.004102168 0.06109075
vn -0.9967312 0.07982247 0.01247068
vn -0.999917 0.00868549 -0.009518851
vn -0.9996928 0.02414274 -0.005612378
vn -0.9999837 -0.003705692 0.004360744
vn -0.9991989 0.03984567 -0.003735425
vn -0.9991989 0.03984567 -0.003735425
vn -0.999917 0.00868549 -0.009518851
vn -0.9993733 0.03004993 -0.01871449
vn -0.9999367 0.003763126 -0.01060633
vn -0.998413 0.03659267 -0.04280763
vn -0.9995868 0.02482852 0.01448536
vn -0.9999729 0.0008954233 0.007299123
vn -0.9999187 0.004539021 0.01192011
vn -0.999917 0.00868549 -0.009518851
vn -0.9982865 0.05388973 0.02279688
vn -0.9983112 0.0575942 -0.007596715
vn -0.9999187 0.004539021 0.01192011
vn -0.9992742 0.007504626 -0.03734843
vn -0.9983112 0.0575942 -0.007596715
vn -0.9982865 0.05388973 0.02279688
vn -0.9995916 0.02158686 -0.01872184
vn -0.9997521 0.01487496 -0.01656702
vn -0.9992742 0.007504626 -0.03734843
vn -0.999998 -0.000711237 -0.001924061
vn -0.9993733 0.03004993 -0.01871449
vn -0.998413 0.03659267 -0.04280763
vn -0.9998417 -0.01775843 0.001062659
vn -0.9964129 0.003922085 -0.08453386
vn -0.9997521 0.01487496 -0.01656702
vn -0.9926308 -0.01226427 -0.1205557
vn -0.9997398 0.01242332 0.01913166
vn -0.9995916 0.02158686 -0.01872184
vn -0.9996713 0.01363348 0.02171025
vn -0.999728 -0.02323334 -0.001994106
vn -0.998965 0.01451509 0.04310704
vn -0.9985849 0.02055874 0.04904726
vn -0.9996713 0.01363348 0.02171025
vn -0.998965 0.01451509 0.04310704
vn -0.9982865 0.05388973 0.02279688
vn -0.9998417 -0.01775843 0.001062659
vn -0.9985849 0.02055874 0.04904726
vn -0.9981447 0.03407866 0.05045412
vn -0.9983426 0.05725458 -0.005825512
vn -0.9935538 0.1128479 -0.01078228
vn -0.9993777 0.007542239 0.03445692
vn -0.9999837 -0.003705692 0.004360744
vn -0.9967312 0.07982247 0.01247068
vn -0.9992499 0.004548507 0.0384575
vn -0.9999093 -0.0127718 0.004287755
vn -0.9999051 -0.01337951 0.00330138
vn -0.9970655 -0.05811504 0.0498306
vn -0.9999093 -0.0127718 0.004287755
vn -0.9999917 -0.002287217 0.003379507
vn -0.999787 -0.01215002 -0.01668388
vn -0.99978 -0.01355308 -0.01600933
vn -0.9999051 -0.01337951 0.00330138
vn -0.999787 -0.01215002 -0.01668388
vn -0.9999837 -0.003705692 0.004360744
vn -0.9970655 -0.05811504 0.0498306
vn -0.9999367 0.003763126 -0.01060633
vn -0.9982091 -0.01164273 0.05867595
vn -0.99978 -0.01355308 -0.01600933
vn -0.999731 -0.001430827 0.02315014
vn -0.9923795 -0.01234818 0.1225988
vn -0.9982091 -0.01164273 0.05867595
vn -0.993189 -0.01029713 0.1160587
vn -0.999731 -0.001430827 0.02315014
vn -0.9995201 -0.003569779 -0.03077012
vn -0.9999917 -0.002287217 0.003379507
vn -0.9999607 -0.00612321 -0.0064211
vn -0.9995179 -0.008714726 -0.02979681
vn -0.9995179 -0.008714726 -0.02979681
vn -0.9998561 -0.01430951 -0.009109839
vn -0.9999917 -0.002287217 0.003379507
vn -0.9984017 -0.03664243 0.04302844
vn -0.9999607 -0.00612321 -0.0064211
vn -0.9992499 0.004548507 0.0384575
vn -0.9996928 0.02414274 -0.005612378
vn -0.9984017 -0.03664243 0.04302844
g rarity3_lightning4_1_mesh_0
f 3/3/3 2/2/2 1/1/1
f 5/5/5 4/4/4 1/1/1
f 6/6/6 1/1/1 4/4/4
f 6/6/6 7/7/7 1/1/1
f 8/8/8 7/7/7 6/6/6
f 7/7/7 9/9/9 1/1/1
f 10/10/10 1/1/1 9/9/9
f 11/11/11 10/10/10 9/9/9
f 7/7/7 12/12/12 9/9/9
f 13/13/13 12/12/12 7/7/7
f 14/14/14 13/13/13 7/7/7
f 16/16/16 6/6/6 15/15/15
f 18/18/18 9/9/9 17/17/17
f 19/19/19 18/18/18 17/17/17
f 12/12/12 21/21/21 20/20/20
f 12/12/12 22/22/22 21/21/21
f 23/23/23 22/22/22 12/12/12
f 24/24/24 23/23/23 12/12/12
f 26/26/26 6/6/6 25/25/25
f 26/26/26 25/25/25 27/27/27
f 28/28/28 26/26/26 27/27/27
f 28/28/28 27/27/27 29/29/29
f 30/30/30 26/26/26 28/28/28
f 31/31/31 30/30/30 28/28/28
f 32/32/32 28/28/28 29/29/29
f 33/33/33 28/28/28 32/32/32
f 34/34/34 33/33/33 32/32/32
f 32/32/32 29/29/29 35/35/35
f 36/36/36 32/32/32 35/35/35
f 36/36/36 35/35/35 37/37/37
f 38/38/38 37/37/37 35/35/35
f 39/39/39 38/38/38 35/35/35
f 41/41/41 40/40/40 26/26/26
f 43/43/43 32/32/32 42/42/42
f 44/44/44 43/43/43 42/42/42
f 46/46/46 35/35/35 45/45/45
f 47/47/47 46/46/46 45/45/45
f 49/49/49 45/45/45 48/48/48
f 50/50/50 49/49/49 48/48/48
f 52/52/52 48/48/48 51/51/51
f 53/53/53 52/52/52 51/51/51
f 56/56/56 55/55/55 54/54/54
f 54/54/54 58/58/58 57/57/57
f 60/60/60 59/59/59 54/54/54
f 59/59/59 61/61/61 57/57/57
f 62/62/62 57/57/57 61/61/61
f 63/63/63 62/62/62 61/61/61
f 59/59/59 64/64/64 61/61/61
f 64/64/64 65/65/65 61/61/61
f 66/66/66 64/64/64 59/59/59
f 67/67/67 66/66/66 59/59/59
f 64/64/64 68/68/68 65/65/65
f 69/69/69 68/68/68 64/64/64
f 70/70/70 69/69/69 64/64/64
f 72/72/72 71/71/71 68/68/68
f 71/71/71 74/74/74 73/73/73
f 76/76/76 75/75/75 74/74/74
f 75/75/75 77/77/77 74/74/74
f 79/79/79 78/78/78 65/65/65
f 80/80/80 79/79/79 65/65/65
f 82/82/82 81/81/81 77/77/77
f 81/81/81 83/83/83 77/77/77
f 77/77/77 83/83/83 37/37/37
f 77/77/77 37/37/37 84/84/84
f 85/85/85 77/77/77 84/84/84
f 86/86/86 84/84/84 37/37/37
f 87/87/87 86/86/86 37/37/37
f 85/85/85 84/84/84 88/88/88
f 89/89/89 88/88/88 84/84/84
f 90/90/90 89/89/89 84/84/84
f 92/92/92 85/85/85 91/91/91
f 92/92/92 91/91/91 65/65/65
f 93/93/93 65/65/65 91/91/91
f 94/94/94 93/93/93 91/91/91
f 97/97/97 96/96/96 95/95/95
f 100/100/100 99/99/99 98/98/98
f 101/101/101 100/100/100 98/98/98
f 101/101/101 98/98/98 102/102/102
f 103/103/103 102/102/102 98/98/98
f 104/104/104 103/103/103 98/98/98
f 106/106/106 101/101/101 105/105/105
f 106/106/106 105/105/105 107/107/107
f 109/109/109 108/108/108 102/102/102
f 108/108/108 110/110/110 102/102/102
f 112/112/112 98/98/98 111/111/111
f 113/113/113 112/112/112 111/111/111
f 115/115/115 114/114/114 110/110/110
f 114/114/114 116/116/116 110/110/110
f 118/118/118 117/117/117 116/116/116
f 117/117/117 119/119/119 116/116/116
f 22/22/22 120/120/120 119/119/119
f 22/22/22 121/121/121 120/120/120
f 121/121/121 107/107/107 120/120/120
f 121/121/121 122/122/122 107/107/107
f 123/123/123 122/122/122 121/121/121
f 124/124/124 123/123/123 121/121/121
f 125/125/125 121/121/121 22/22/22
f 126/126/126 125/125/125 22/22/22
f 129/129/129 128/128/128 127/127/127
f 128/128/128 130/130/130 127/127/127
f 131/131/131 54/54/54 130/130/130
f 132/132/132 131/131/131 130/130/130
