g rarity3_lightning1_3_mesh
v -1.462289 5.960464E-08 2.299156
v -0.6343962 5.960464E-08 0.5741119
v -1.47296 5.960464E-08 0.9635849
v -1.365133 2.884155E-08 -5.316473
v -2.366618 1.788139E-07 -6.541466
v -1.462289 5.960464E-08 2.299156
v -1.47296 5.960464E-08 0.9635849
v -2.223042 5.960464E-08 11.4285
v -0.4265318 5.960464E-08 -1.816963
v -0.1908177 5.960464E-08 -2.212814
v -0.4634017 5.960464E-08 -2.35096
v -0.1972903 5.960464E-08 -1.964005
v -0.1908177 5.960464E-08 -2.212814
v -0.2159616 3.368463E-07 6.425297
v -0.2891538 2.976316E-07 6.9307
v -0.4463633 5.960464E-08 -0.9972229
v -0.4634017 5.960464E-08 -2.35096
v -0.3733834 3.760609E-07 7.902972
v -0.4766072 5.960464E-08 -1.110466
v -0.4304905 5.960464E-08 0.4894524
v -0.435534 -1.192093E-07 8.787758
v -0.5064039 5.960464E-08 -0.1819267
v -0.6235878 5.960464E-08 1.06012
v -2.223042 5.960464E-08 11.4285
v -0.6343962 5.960464E-08 0.5741119
v -1.462289 5.960464E-08 2.299156
v -0.04998957 5.960464E-08 -2.812675
v -0.1908177 5.960464E-08 -2.212814
v -0.08402534 5.960464E-08 -2.122616
v -0.1486369 1.995954E-07 6.57693
v -1.47296 5.960464E-08 0.9635849
v -0.6343962 5.960464E-08 0.5741119
v -1.365133 2.884155E-08 -5.316473
v -1.203258 8.908648E-08 -6.272634
v -1.365133 2.884155E-08 -5.316473
v -0.5064039 5.960464E-08 -0.1819267
v -1.160185 6.864142E-07 -7.614973
v -0.4766072 5.960464E-08 -1.110466
v -1.210591 5.960464E-08 -10.65153
v -0.4634017 5.960464E-08 -2.35096
v 0.526143 5.960464E-08 -0.1180039
v 0.560225 5.960464E-08 -0.7390366
v 0.647236 -2.242851E-08 -7.604184
v -0.1972903 5.960464E-08 -1.964005
v -0.2159616 3.368463E-07 6.425297
v -0.1486369 1.995954E-07 6.57693
v -0.08402534 5.960464E-08 -2.122616
v -0.0419126 1.603812E-07 7.165499
v 0.01353927 5.960464E-08 -0.7242508
v 0.006083391 3.564534E-07 8.203974
v 0.06370837 5.960464E-08 -1.120186
v -0.04998957 5.960464E-08 -2.812675
v 0.2094212 5.960464E-08 -0.1166229
v 0.1796462 5.960464E-08 0.6827393
v 0.009766937 5.960464E-08 9.834366
v 0.1796462 5.960464E-08 0.6827393
v 0.3549414 5.960464E-08 0.02102661
v 0.3523542 5.960464E-08 -0.2652664
v 0.009766937 5.960464E-08 9.834366
v 0.471654 5.960464E-08 8.09082
v 0.3523542 5.960464E-08 -0.2652664
v 0.2094212 5.960464E-08 -0.1166229
v 0.3549414 5.960464E-08 0.02102661
v 0.526143 5.960464E-08 -0.1180039
v 0.5538701 5.960464E-08 0.2187958
v 0.471654 5.960464E-08 8.09082
v 0.9757563 3.576279E-07 8.826757
v 0.5712324 5.960464E-08 -0.5342865
v 1.120174 5.960464E-07 8.939071
v 0.6601586 5.960464E-08 -0.1714096
v 0.6187506 5.960464E-08 -0.465889
v 0.560225 5.960464E-08 -0.7390366
v 0.5538701 5.960464E-08 0.2187958
v 0.560225 5.960464E-08 -0.7390366
v 0.526143 5.960464E-08 -0.1180039
v 0.5712324 5.960464E-08 -0.5342865
v 0.9757563 3.576279E-07 8.826757
v 0.6187506 5.960464E-08 -0.465889
v 2.026964 6.735325E-06 6.511522
v 1.054343 3.576279E-07 -7.243832
v 0.6601586 5.960464E-08 -0.1714096
v 1.120174 5.960464E-07 8.939071
v 0.2094212 5.960464E-08 -0.1166229
v 0.4301396 -1.917951E-07 -8.426301
v 0.3922132 -1.917951E-07 -8.38685
v 0.3523542 5.960464E-08 -0.2652664
v 0.55091 -7.08189E-08 -8.323994
v 0.526143 5.960464E-08 -0.1180039
v 0.647236 -2.242851E-08 -7.604184
v 0.560225 5.960464E-08 -0.7390366
v 1.054343 3.576279E-07 -7.243832
v 0.6187506 5.960464E-08 -0.465889
v -0.04998957 5.960464E-08 -2.812675
v 0.2941293 -2.159901E-07 -9.062404
v 0.264448 -8.940697E-07 -12.81905
v 0.06370837 5.960464E-08 -1.120186
v 0.3922132 -1.917951E-07 -8.38685
v 0.2094212 5.960464E-08 -0.1166229
v -0.4634017 5.960464E-08 -2.35096
v -0.1908177 5.960464E-08 -2.212814
v -0.3471473 -5.364418E-07 -10.21395
v -1.210591 5.960464E-08 -10.65153
v -0.1908177 5.960464E-08 -2.212814
v -0.04998957 5.960464E-08 -2.812675
v 0.264448 -8.940697E-07 -12.81905
v -0.3471473 -5.364418E-07 -10.21395
vt 0.8345087 0.9844095
vt 0.8341153 0.9863873
vt 0.8337516 0.9857963
vt 0.8253293 0.4817466
vt 0.8244704 0.4796781
vt 0.8345087 0.9844095
vt 0.8337516 0.9857963
vt 0.8302035 0.4775968
vt 0.8372805 0.9844552
vt 0.8375025 0.98625
vt 0.8372805 0.9862329
vt 0.8375025 0.9844381
vt 0.8375025 0.98625
vt 0.8373246 0.4772596
vt 0.8372067 0.4772533
vt 0.8371747 0.9844511
vt 0.8372805 0.9862329
vt 0.8367687 0.477235
vt 0.8371747 0.986237
vt 0.8370283 0.9844381
vt 0.8362526 0.4772793
vt 0.8360544 0.9864622
vt 0.8365777 0.9844677
vt 0.8302035 0.4775968
vt 0.8341153 0.9863873
vt 0.8345087 0.9844095
vt 0.8379362 0.9862204
vt 0.8375025 0.98625
vt 0.8379361 0.9844677
vt 0.8377426 0.4772351
vt 0.8337516 0.9857963
vt 0.8341153 0.9863873
vt 0.8253293 0.4817466
vt 0.8326752 0.4827492
vt 0.8253293 0.4817466
vt 0.8360544 0.9864622
vt 0.8372067 0.482605
vt 0.8371747 0.986237
vt 0.8373247 0.4825988
vt 0.8372805 0.9862329
vt 0.8423038 0.9862391
vt 0.8441039 0.9864609
vt 0.8482696 0.482567
vt 0.8375025 0.9844381
vt 0.8373246 0.4772596
vt 0.8377426 0.4772351
vt 0.8379361 0.9844677
vt 0.8382807 0.4772793
vt 0.839087 0.9844539
vt 0.8390162 0.4772575
vt 0.839087 0.9862343
vt 0.8379362 0.9862204
vt 0.8401051 0.9862357
vt 0.8401052 0.9844525
vt 0.8401449 0.4772553
vt 0.8401052 0.9844525
vt 0.8413211 0.9844573
vt 0.8413211 0.9862309
vt 0.8401449 0.4772553
vt 0.8412074 0.4772626
vt 0.8413211 0.9862309
vt 0.8401051 0.9862357
vt 0.8413211 0.9844573
vt 0.8423038 0.9862391
vt 0.8423038 0.9844491
vt 0.8412074 0.4772626
vt 0.8422412 0.4772503
vt 0.8441039 0.9842272
vt 0.8482696 0.4772915
vt 0.8454028 0.9847109
vt 0.8454028 0.9859772
vt 0.8441039 0.9864609
vt 0.8423038 0.9844491
vt 0.8441039 0.9864609
vt 0.8423038 0.9862391
vt 0.8441039 0.9842272
vt 0.8422412 0.4772503
vt 0.8454028 0.9859772
vt 0.8541452 0.478908
vt 0.8541452 0.4809504
vt 0.8454028 0.9847109
vt 0.8482696 0.4772915
vt 0.8401051 0.9862357
vt 0.8412074 0.4825957
vt 0.8401449 0.4826031
vt 0.8413211 0.9862309
vt 0.8422412 0.4826081
vt 0.8423038 0.9862391
vt 0.8482696 0.482567
vt 0.8441039 0.9864609
vt 0.8541452 0.4809504
vt 0.8454028 0.9859772
vt 0.8379362 0.9862204
vt 0.8390162 0.4826009
vt 0.8382806 0.482579
vt 0.839087 0.9862343
vt 0.8401449 0.4826031
vt 0.8401051 0.9862357
vt 0.8372805 0.9862329
vt 0.8375025 0.98625
vt 0.8377426 0.4826233
vt 0.8373247 0.4825988
vt 0.8375025 0.98625
vt 0.8379362 0.9862204
vt 0.8382806 0.482579
vt 0.8377426 0.4826233
vn 0 -1 0
vn 0 -1 0
vn 0 -1 0
vn 0 -1 0
vn 0 -1 0
vn 0 -1 0
vn 0 -1 0
vn 0 -1 0
vn 0 -1 0
vn 0 -1 0
vn 0 -1 0
vn 0 -1 0
vn 0 -1 0
vn 0 -1 0
vn 0 -1 0
vn 0 -1 0
vn 0 -1 0
vn 0 -1 0
vn 0 -1 0
vn 0 -1 0
vn 0 -1 0
vn 0 -1 0
vn 0 -1 0
vn 0 -1 0
vn 0 -1 0
vn 0 -1 0
vn 0 -1 0
vn 0 -1 0
vn 0 -1 0
vn 0 -1 0
vn 0 -1 0
vn 0 -1 0
vn 0 -1 0
vn 0 -1 0
vn 0 -1 0
vn 0 -1 0
vn 0 -1 0
vn 0 -1 0
vn 0 -1 0
vn 0 -1 0
vn 0 -1 0
vn 0 -1 0
vn 0 -1 0
vn 0 -1 0
vn 0 -1 0
vn 0 -1 0
vn 0 -1 0
vn 0 -1 0
vn 0 -1 0
vn 0 -1 0
vn 0 -1 0
vn 0 -1 0
vn 0 -1 0
vn 0 -1 0
vn 0 -1 0
vn 0 -1 0
vn 0 -1 0
vn 0 -1 0
vn 0 -1 0
vn 0 -1 0
vn 0 -1 0
vn 0 -1 0
vn 0 -1 0
vn 0 -1 0
vn 0 -1 0
vn 0 -1 0
vn 0 -1 0
vn 0 -1 0
vn 0 -1 0
vn 0 -1 0
vn 0 -1 0
vn 0 -1 0
vn 0 -1 0
vn 0 -1 0
vn 0 -1 0
vn 0 -1 0
vn 0 -1 0
vn 0 -1 0
vn 0 -1 0
vn 0 -1 0
vn 0 -1 0
vn 0 -1 0
vn 0 -1 0
vn 0 -1 0
vn 0 -1 0
vn 0 -1 0
vn 0 -1 0
vn 0 -1 0
vn 0 -1 0
vn 0 -1 0
vn 0 -1 0
vn 0 -1 0
vn 0 -1 0
vn 0 -1 0
vn 0 -1 0
vn 0 -1 0
vn 0 -1 0
vn 0 -1 0
vn 0 -1 0
vn 0 -1 0
vn 0 -1 0
vn 0 -1 0
vn 0 -1 0
vn 0 -1 0
vn 0 -1 0
vn 0 -1 0
g rarity3_lightning1_3_mesh_0
f 3/3/3 2/2/2 1/1/1
f 5/5/5 4/4/4 3/3/3
f 5/5/5 7/7/7 6/6/6
f 8/8/8 5/5/5 6/6/6
f 11/11/11 10/10/10 9/9/9
f 13/13/13 12/12/12 9/9/9
f 14/14/14 9/9/9 12/12/12
f 14/14/14 15/15/15 9/9/9
f 15/15/15 16/16/16 9/9/9
f 17/17/17 9/9/9 16/16/16
f 15/15/15 18/18/18 16/16/16
f 19/19/19 17/17/17 16/16/16
f 18/18/18 20/20/20 16/16/16
f 19/19/19 16/16/16 20/20/20
f 18/18/18 21/21/21 20/20/20
f 22/22/22 19/19/19 20/20/20
f 21/21/21 23/23/23 20/20/20
f 22/22/22 20/20/20 23/23/23
f 21/21/21 24/24/24 23/23/23
f 25/25/25 22/22/22 23/23/23
f 24/24/24 26/26/26 23/23/23
f 25/25/25 23/23/23 26/26/26
f 28/28/28 27/27/27 12/12/12
f 27/27/27 29/29/29 12/12/12
f 30/30/30 12/12/12 29/29/29
f 33/33/33 32/32/32 31/31/31
f 35/35/35 34/34/34 32/32/32
f 34/34/34 36/36/36 32/32/32
f 34/34/34 37/37/37 36/36/36
f 37/37/37 38/38/38 36/36/36
f 37/37/37 39/39/39 38/38/38
f 39/39/39 40/40/40 38/38/38
f 43/43/43 42/42/42 41/41/41
f 46/46/46 45/45/45 44/44/44
f 48/48/48 46/46/46 47/47/47
f 48/48/48 47/47/47 49/49/49
f 50/50/50 48/48/48 49/49/49
f 51/51/51 49/49/49 47/47/47
f 52/52/52 51/51/51 47/47/47
f 51/51/51 53/53/53 49/49/49
f 53/53/53 54/54/54 49/49/49
f 50/50/50 49/49/49 54/54/54
f 55/55/55 50/50/50 54/54/54
f 58/58/58 57/57/57 56/56/56
f 59/59/59 56/56/56 57/57/57
f 60/60/60 59/59/59 57/57/57
f 62/62/62 61/61/61 56/56/56
f 61/61/61 64/64/64 63/63/63
f 64/64/64 65/65/65 63/63/63
f 66/66/66 63/63/63 65/65/65
f 67/67/67 66/66/66 65/65/65
f 69/69/69 67/67/67 68/68/68
f 69/69/69 68/68/68 70/70/70
f 71/71/71 70/70/70 68/68/68
f 72/72/72 71/71/71 68/68/68
f 75/75/75 74/74/74 73/73/73
f 74/74/74 76/76/76 73/73/73
f 77/77/77 73/73/73 76/76/76
f 80/80/80 79/79/79 78/78/78
f 79/79/79 81/81/81 78/78/78
f 79/79/79 82/82/82 81/81/81
f 85/85/85 84/84/84 83/83/83
f 84/84/84 86/86/86 83/83/83
f 84/84/84 87/87/87 86/86/86
f 87/87/87 88/88/88 86/86/86
f 87/87/87 89/89/89 88/88/88
f 89/89/89 91/91/91 90/90/90
f 91/91/91 92/92/92 90/90/90
f 95/95/95 94/94/94 93/93/93
f 94/94/94 96/96/96 93/93/93
f 94/94/94 97/97/97 96/96/96
f 97/97/97 98/98/98 96/96/96
f 101/101/101 100/100/100 99/99/99
f 102/102/102 101/101/101 99/99/99
f 105/105/105 104/104/104 103/103/103
f 106/106/106 105/105/105 103/103/103
