g rarity3_lightning4_2_mesh
v -1.084763E-08 0.7213325 -0.4675353
v 1.083617E-07 0.5165696 -0.2584701
v -7.045227E-08 0.5208296 -0.2516069
v -1.084763E-08 0.7903184 0.2538936
v -1.084763E-08 0.6279888 0.3187203
v -1.300569E-07 0.4293651 0.09198617
v -1.300569E-07 0.4293651 0.09198617
v -2.492662E-07 0.5102724 0.05967545
v -1.084763E-08 0.7969713 -0.05007435
v -2.492662E-07 0.5102724 0.05967545
v -1.084763E-08 0.5128006 -0.05582691
v -1.084763E-08 0.06781526 0.703552
v -1.300569E-07 -0.3478346 0.3810847
v -1.084763E-08 0.1352324 0.4242117
v -1.084763E-08 0.06781526 0.703552
v -1.084763E-08 -0.3030592 0.6704412
v -1.084763E-08 0.06781526 0.7590606
v -1.084763E-08 -0.3496624 0.7829506
v -1.084763E-08 -0.6381322 0.8105657
v -1.084763E-08 -0.6945243 0.9559214
v 1.083617E-07 -0.2747584 1.063358
v 5.255941E-07 -0.9549509 1.404519
v -1.084763E-08 -0.01823573 1.048679
v 1.083617E-07 -0.2747584 1.063358
v -1.084763E-08 0.4365177 1.030601
v 1.083617E-07 0.5890836 1.495954
v -1.084763E-08 -0.01823573 1.048679
v -1.084763E-08 0.3480272 0.8169663
v -1.084763E-08 -0.6588975 0.5707667
v -1.084763E-08 -0.6381322 0.8105657
v -1.084763E-08 0.3480272 0.8169663
v -1.084763E-08 0.1352324 0.4242117
v -7.045227E-08 0.2227792 0.4596457
v 4.875701E-08 -0.7140818 0.5936244
v 4.875701E-08 -0.8484455 0.1714587
v -1.084763E-08 -0.6945243 0.9559214
v 5.255941E-07 -0.9549509 1.404519
v 4.875701E-08 -0.994607 0.6698921
v -1.084763E-08 0.6279888 0.3187203
v -7.045227E-08 0.2227792 0.4596457
v -1.300569E-07 0.4293651 0.09198617
v -1.084763E-08 0.6538171 0.3340442
v -1.084763E-08 0.4365177 1.030601
v 2.27571E-07 0.866774 0.6058123
v 1.083617E-07 0.5890836 1.495954
v -1.084763E-08 0.9414634 0.3164999
v -1.084763E-08 0.7903184 0.2538936
v 5.255941E-07 1.28495 0.5803068
v 2.27571E-07 0.866774 0.6058123
v -1.084763E-08 0.8671545 -0.05007435
v -1.084763E-08 0.9414634 0.3164999
v -1.084763E-08 0.9414634 0.3164999
v 4.875701E-08 1.156253 -0.05456782
v 5.255941E-07 1.28495 0.5803068
v -1.084763E-08 0.8671545 -0.05007435
v -1.084763E-08 0.7969713 -0.05007435
v -1.084763E-08 0.9238791 -0.3826838
v -1.084763E-08 0.7362556 -0.4824588
v -1.084763E-08 0.8023095 -0.3370755
v -1.084763E-08 0.7969713 -0.05007435
v -1.084763E-08 0.8023095 -0.3370755
v -1.084763E-08 0.5128006 -0.05582691
v 1.083617E-07 0.5165696 -0.2584701
v -1.084763E-08 0.7213325 -0.4675353
v 1.083617E-07 0.5165696 -0.2584701
v -1.084763E-08 0.1651587 -0.7674968
v -1.084763E-08 0.1619639 -0.7597835
v -7.045227E-08 0.5208296 -0.2516069
v -7.045227E-08 0.06190725 -0.4913757
v -1.084763E-08 -0.01395611 -1.09783
v -7.045227E-08 0.02740856 -1.617832
v 2.27571E-07 0.3722925 -0.9817789
v -1.084763E-08 0.7362556 -0.4824588
v 2.27571E-07 0.3722925 -0.9817789
v 1.083617E-07 0.8664674 -0.7351329
v -1.084763E-08 0.9238791 -0.3826838
v 1.083617E-07 0.8664674 -0.7351329
v -1.084763E-08 1.238572 -0.5372536
v -1.084763E-08 0.8671545 -0.05007435
v -1.084763E-08 1.238572 -0.5372536
v 4.875701E-08 1.156253 -0.05456782
v -1.084763E-08 -0.01395611 -1.09783
v -1.084763E-08 -0.01395611 -0.8013794
v -1.084763E-08 -0.3641992 -0.6424358
v -7.045227E-08 0.06190725 -0.4913757
v 1.083617E-07 0.01759048 -0.5018547
v -1.084763E-08 -0.3602453 -0.6374848
v 1.083617E-07 0.01759048 -0.5018547
v -1.084763E-08 -0.3602453 -0.6374848
v -7.045227E-08 -0.2816682 -0.3602192
v -1.084763E-08 -0.4936638 -0.6227133
v -7.045227E-08 -0.2816682 -0.3602192
v -1.70958E-06 -0.424073 -0.4159787
v -1.084763E-08 -0.4985514 -0.6370828
v -1.084763E-08 -0.3641992 -0.6424358
v 4.875701E-08 -0.8329883 -0.7684491
v -1.084763E-08 -0.6608372 -0.5831373
v 4.875701E-08 -0.7255841 -0.5054529
v -1.70958E-06 -0.424073 -0.4159787
v -1.70958E-06 -0.4536639 -0.4089706
v 3.467802E-07 -0.5427375 -0.9197757
v 1.083617E-07 -0.4158865 -0.9248312
v -1.084763E-08 -0.4985514 -0.6370828
v -7.85708E-07 -1.3472 -1.2758
v 3.467802E-07 -0.5427375 -0.9197757
v -1.084763E-08 -0.01395611 -1.09783
v 1.083617E-07 -0.4158865 -0.9248312
v -7.045227E-08 0.02740856 -1.617832
v 4.875701E-08 -0.7255841 -0.5054529
v 4.875701E-08 -0.7027732 -0.4960029
v 4.875701E-08 -0.932251 0.1714587
v -1.70958E-06 -0.4536639 -0.4089706
v 1.926303E-06 -0.4696041 -0.325073
v 4.875701E-08 -0.8484455 0.1714587
v 1.926303E-06 -0.4696041 -0.325073
v -1.084763E-08 -0.5500599 0.1372466
v 4.875701E-08 -0.932251 0.1714587
v 4.875701E-08 -0.994607 0.6698921
v 4.875701E-08 -1.237884 0.1991429
v -1.084763E-08 -0.6381322 0.8105657
v -1.084763E-08 -0.4440718 0.390918
v -3.088709E-07 -0.3885561 0.398114
v -1.084763E-08 -0.6381322 0.8105657
v -1.084763E-08 -0.6588975 0.5707667
v 4.875701E-08 -0.8484455 0.1714587
v -1.084763E-08 -0.5500599 0.1372466
v -1.084763E-08 -0.4440718 0.390918
v 4.875701E-08 -0.8329883 -0.7684491
v -7.045227E-08 -1.026972 -0.4916704
v -7.85708E-07 -1.3472 -1.2758
v 4.875701E-08 -0.7255841 -0.5054529
v 4.875701E-08 -0.932251 0.1714587
v 4.875701E-08 -1.237884 0.1991429
v -7.045227E-08 -1.026972 -0.4916704
v -1.084763E-08 -0.3030592 0.6704412
v -1.084763E-08 -0.6381322 0.8105657
v -3.088709E-07 -0.3885561 0.398114
v -1.300569E-07 -0.3478346 0.3810847
vt 0.8306615 0.9899859
vt 0.8435897 0.5107877
vt 0.857127 0.5154679
vt 0.8303007 0.9881721
vt 0.8306615 0.9876321
vt 0.857127 0.5165628
vt 0.857127 0.5165628
vt 0.8435897 0.5212431
vt 0.8301741 0.988809
vt 0.8560947 0.5142691
vt 0.851341 0.5197897
vt 0.8318385 0.9871445
vt 0.8392105 0.521662
vt 0.8153123 0.520564
vt 0.8318385 0.9871445
vt 0.8324754 0.9872712
vt 0.8318385 0.9862468
vt 0.832819 0.9864419
vt 0.8330154 0.987632
vt 0.8336502 0.9869972
vt 0.8371328 0.5090543
vt 0.8573926 0.5121815
vt 0.825184 0.5090996
vt 0.8490821 0.5101978
vt 0.830858 0.9864419
vt 0.8142196 0.5101976
vt 0.8381178 0.5090996
vt 0.8312016 0.9872712
vt 0.8333762 0.9881721
vt 0.8330154 0.987632
vt 0.8312016 0.9872712
vt 0.8479892 0.520564
vt 0.8240912 0.5216621
vt 0.8342056 0.9878286
vt 0.8335029 0.988809
vt 0.8336502 0.9869972
vt 0.8482469 0.5100688
vt 0.8617842 0.5147489
vt 0.8306615 0.9876321
vt 0.8542808 0.5187733
vt 0.8340209 0.5219005
vt 0.8300267 0.9869972
vt 0.830858 0.9864419
vt 0.8059092 0.5121815
vt 0.8261691 0.5090544
vt 0.8294713 0.9878286
vt 0.8303007 0.9881721
vt 0.8015175 0.5147489
vt 0.8150548 0.5100688
vt 0.8292763 0.988809
vt 0.8294713 0.9878286
vt 0.8294713 0.9878286
vt 0.8017135 0.5175092
vt 0.8064672 0.5119885
vt 0.8292763 0.988809
vt 0.8301741 0.988809
vt 0.8294713 0.9897895
vt 0.8300267 0.9906208
vt 0.8303008 0.9894459
vt 0.8301741 0.988809
vt 0.8303008 0.9894459
vt 0.851341 0.5122411
vt 0.8560947 0.5177617
vt 0.8306615 0.9899859
vt 0.8435897 0.5107877
vt 0.830858 0.9911761
vt 0.8312016 0.9903468
vt 0.8340209 0.5101302
vt 0.8542808 0.5132574
vt 0.8317857 0.9913818
vt 0.8381178 0.5229311
vt 0.8142197 0.5218329
vt 0.8300267 0.9906208
vt 0.8261691 0.5229764
vt 0.8059092 0.5198492
vt 0.8294713 0.9897895
vt 0.8150549 0.5219619
vt 0.8015176 0.5172817
vt 0.8292763 0.988809
vt 0.8064672 0.5200421
vt 0.8017135 0.5145214
vt 0.8317857 0.9913818
vt 0.831812 0.9904788
vt 0.8322144 0.9905764
vt 0.8240912 0.5103687
vt 0.8479894 0.5114668
vt 0.8320264 0.9896927
vt 0.8151485 0.5114743
vt 0.8320264 0.9896927
vt 0.8390466 0.5103762
vt 0.8325077 0.9903404
vt 0.8155127 0.5114575
vt 0.8394108 0.5103594
vt 0.8328836 0.9911633
vt 0.8322144 0.9905764
vt 0.8336502 0.9906208
vt 0.8330154 0.9899859
vt 0.8342056 0.9897895
vt 0.809021 0.5132574
vt 0.8292809 0.5101302
vt 0.8494825 0.5218146
vt 0.8255845 0.5229127
vt 0.8328836 0.9911633
vt 0.8573926 0.5198492
vt 0.8371328 0.5229764
vt 0.8317857 0.9913818
vt 0.8487542 0.5218481
vt 0.8248559 0.5229461
vt 0.8342056 0.9897895
vt 0.8333762 0.9894459
vt 0.8344007 0.988809
vt 0.8061748 0.5154679
vt 0.819712 0.5107877
vt 0.8335029 0.988809
vt 0.807207 0.5177617
vt 0.8119608 0.512241
vt 0.8344007 0.988809
vt 0.8568345 0.5119886
vt 0.8615882 0.5175092
vt 0.8330154 0.987632
vt 0.819712 0.521243
vt 0.8061748 0.5165628
vt 0.8330154 0.987632
vt 0.8333762 0.9881721
vt 0.8335029 0.988809
vt 0.8119607 0.5197896
vt 0.8072071 0.514269
vt 0.8336502 0.9906208
vt 0.8617842 0.5172817
vt 0.8482469 0.5219619
vt 0.8342056 0.9897895
vt 0.8344007 0.988809
vt 0.8615882 0.5145214
vt 0.8568346 0.5200421
vt 0.8324754 0.9872712
vt 0.8330154 0.987632
vt 0.8292809 0.5219005
vt 0.809021 0.5187733
vn -1 0 0
vn -1 0 0
vn -1 0 0
vn -1 0 0
vn -1 0 0
vn -1 0 0
vn -1 0 0
vn -1 0 0
vn -1 0 0
vn -1 0 0
vn -1 0 0
vn -1 0 0
vn -1 0 0
vn -1 0 0
vn -1 0 0
vn -1 0 0
vn -1 0 0
vn -1 0 0
vn -1 0 0
vn -1 0 0
vn -1 0 0
vn -1 0 0
vn -1 0 0
vn -1 0 0
vn -1 0 0
vn -1 0 0
vn -1 0 0
vn -1 0 0
vn -1 0 0
vn -1 0 0
vn -1 0 0
vn -1 0 0
vn -1 0 0
vn -1 0 0
vn -1 0 0
vn -1 0 0
vn -1 0 0
vn -1 0 0
vn -1 0 0
vn -1 0 0
vn -1 0 0
vn -1 0 0
vn -1 0 0
vn -1 0 0
vn -1 0 0
vn -1 0 0
vn -1 0 0
vn -1 0 0
vn -1 0 0
vn -1 0 0
vn -1 0 0
vn -1 0 0
vn -1 0 0
vn -1 0 0
vn -1 0 0
vn -1 0 0
vn -1 0 0
vn -1 0 0
vn -1 0 0
vn -1 0 0
vn -1 0 0
vn -1 0 0
vn -1 0 0
vn -1 0 0
vn -1 0 0
vn -1 0 0
vn -1 0 0
vn -1 0 0
vn -1 0 0
vn -1 0 0
vn -1 0 0
vn -1 0 0
vn -1 0 0
vn -1 0 0
vn -1 0 0
vn -1 0 0
vn -1 0 0
vn -1 0 0
vn -1 0 0
vn -1 0 0
vn -1 0 0
vn -1 0 0
vn -1 0 0
vn -1 0 0
vn -1 0 0
vn -1 0 0
vn -1 0 0
vn -1 0 0
vn -1 0 0
vn -1 0 0
vn -1 0 0
vn -1 0 0
vn -1 0 0
vn -1 0 0
vn -1 0 0
vn -1 0 0
vn -1 0 0
vn -1 0 0
vn -1 0 0
vn -1 0 0
vn -1 0 0
vn -1 0 0
vn -1 0 0
vn -1 0 0
vn -1 0 0
vn -1 0 0
vn -1 0 0
vn -1 0 0
vn -1 0 0
vn -1 0 0
vn -1 0 0
vn -1 0 0
vn -1 0 0
vn -1 0 0
vn -1 0 0
vn -1 0 0
vn -1 0 0
vn -1 0 0
vn -1 0 0
vn -1 0 0
vn -1 0 0
vn -1 0 0
vn -1 0 0
vn -1 0 0
vn -1 0 0
vn -1 0 0
vn -1 0 0
vn -1 0 0
vn -1 0 0
vn -1 0 0
vn -1 0 0
vn -1 0 0
vn -1 0 0
vn -1 0 0
vn -1 0 0
vn -1 0 0
vn -1 0 0
vn -1 0 0
g rarity3_lightning4_2_mesh_0
f 3/3/3 2/2/2 1/1/1
f 6/6/6 5/5/5 4/4/4
f 8/8/8 7/7/7 4/4/4
f 10/10/10 4/4/4 9/9/9
f 11/11/11 10/10/10 9/9/9
f 14/14/14 13/13/13 12/12/12
f 13/13/13 16/16/16 15/15/15
f 15/15/15 16/16/16 17/17/17
f 16/16/16 18/18/18 17/17/17
f 16/16/16 19/19/19 18/18/18
f 19/19/19 20/20/20 18/18/18
f 21/21/21 18/18/18 20/20/20
f 22/22/22 21/21/21 20/20/20
f 23/23/23 17/17/17 18/18/18
f 24/24/24 23/23/23 18/18/18
f 15/15/15 17/17/17 25/25/25
f 26/26/26 25/25/25 17/17/17
f 27/27/27 26/26/26 17/17/17
f 28/28/28 15/15/15 25/25/25
f 30/30/30 29/29/29 20/20/20
f 32/32/32 15/15/15 31/31/31
f 33/33/33 32/32/32 31/31/31
f 29/29/29 35/35/35 34/34/34
f 29/29/29 34/34/34 36/36/36
f 37/37/37 36/36/36 34/34/34
f 38/38/38 37/37/37 34/34/34
f 40/40/40 31/31/31 39/39/39
f 41/41/41 40/40/40 39/39/39
f 39/39/39 28/28/28 42/42/42
f 28/28/28 43/43/43 42/42/42
f 44/44/44 42/42/42 43/43/43
f 45/45/45 44/44/44 43/43/43
f 39/39/39 42/42/42 46/46/46
f 47/47/47 39/39/39 46/46/46
f 48/48/48 46/46/46 42/42/42
f 49/49/49 48/48/48 42/42/42
f 47/47/47 51/51/51 50/50/50
f 53/53/53 50/50/50 52/52/52
f 54/54/54 53/53/53 52/52/52
f 56/56/56 47/47/47 55/55/55
f 56/56/56 55/55/55 57/57/57
f 59/59/59 57/57/57 58/58/58
f 61/61/61 60/60/60 57/57/57
f 62/62/62 60/60/60 61/61/61
f 63/63/63 62/62/62 61/61/61
f 64/64/64 61/61/61 58/58/58
f 65/65/65 61/61/61 64/64/64
f 64/64/64 58/58/58 66/66/66
f 67/67/67 64/64/64 66/66/66
f 68/68/68 64/64/64 67/67/67
f 69/69/69 68/68/68 67/67/67
f 67/67/67 66/66/66 70/70/70
f 71/71/71 70/70/70 66/66/66
f 72/72/72 71/71/71 66/66/66
f 74/74/74 66/66/66 73/73/73
f 75/75/75 74/74/74 73/73/73
f 77/77/77 73/73/73 76/76/76
f 78/78/78 77/77/77 76/76/76
f 80/80/80 76/76/76 79/79/79
f 81/81/81 80/80/80 79/79/79
f 83/83/83 67/67/67 82/82/82
f 83/83/83 82/82/82 84/84/84
f 85/85/85 67/67/67 83/83/83
f 86/86/86 85/85/85 83/83/83
f 87/87/87 83/83/83 84/84/84
f 88/88/88 83/83/83 87/87/87
f 90/90/90 88/88/88 89/89/89
f 92/92/92 87/87/87 91/91/91
f 93/93/93 92/92/92 91/91/91
f 91/91/91 87/87/87 94/94/94
f 87/87/87 95/95/95 94/94/94
f 91/91/91 94/94/94 96/96/96
f 97/97/97 91/91/91 96/96/96
f 97/97/97 96/96/96 98/98/98
f 99/99/99 91/91/91 97/97/97
f 100/100/100 99/99/99 97/97/97
f 102/102/102 101/101/101 95/95/95
f 101/101/101 103/103/103 95/95/95
f 104/104/104 96/96/96 103/103/103
f 105/105/105 104/104/104 103/103/103
f 107/107/107 95/95/95 106/106/106
f 108/108/108 107/107/107 106/106/106
f 110/110/110 97/97/97 109/109/109
f 110/110/110 109/109/109 111/111/111
f 112/112/112 97/97/97 110/110/110
f 113/113/113 112/112/112 110/110/110
f 115/115/115 110/110/110 114/114/114
f 116/116/116 115/115/115 114/114/114
f 114/114/114 110/110/110 117/117/117
f 114/114/114 117/117/117 34/34/34
f 118/118/118 34/34/34 117/117/117
f 119/119/119 118/118/118 117/117/117
f 122/122/122 121/121/121 120/120/120
f 121/121/121 124/124/124 123/123/123
f 126/126/126 125/125/125 124/124/124
f 127/127/127 126/126/126 124/124/124
f 130/130/130 129/129/129 128/128/128
f 129/129/129 131/131/131 128/128/128
f 133/133/133 132/132/132 131/131/131
f 134/134/134 133/133/133 131/131/131
f 137/137/137 136/136/136 135/135/135
f 138/138/138 137/137/137 135/135/135
