g rewardBeamInner_mesh
v -1.083749 -1.355908 -0.3521328
v -0.6469843 14.45262 0.0001058578
v -1.139521 -1.355908 -1.907349E-06
v -0.6153188 14.45262 -0.1998196
v -0.9218917 -1.355908 -0.669795
v -0.5234227 14.45262 -0.3801765
v -0.6697938 -1.355908 -0.921895
v -0.3802907 14.45262 -0.5233088
v -0.3521317 -1.355908 -1.08375
v -0.1999341 14.45262 -0.6152039
v -3.576279E-07 -1.355908 -1.139523
v -7.390976E-06 14.45262 -0.6468706
v 0.352131 -1.355908 -1.08375
v 0.1999196 14.45262 -0.6152039
v 0.6697932 -1.355908 -0.9218922
v 0.3802763 14.45262 -0.5233097
v 0.9218915 -1.355908 -0.6697922
v 0.5234081 14.45262 -0.3801765
v 1.083748 -1.355908 -0.3521318
v 0.6153044 14.45262 -0.1998186
v 1.13952 -1.355908 0
v 0.6469693 14.45262 0.0001077652
v -1.139521 -1.355908 -1.907349E-06
v -0.6153188 14.45262 0.2000351
v -0.6469843 14.45262 0.0001058578
v -1.083749 -1.355908 0.352129
v -0.5234227 14.45262 0.3803902
v -0.9218917 -1.355908 0.6697922
v -0.3802906 14.45262 0.5235224
v -0.6697934 -1.355908 0.9218884
v -0.199934 14.45262 0.6154184
v -0.3521316 -1.355908 1.083746
v -7.390976E-06 14.45262 0.6470852
v -3.576279E-07 -1.355908 1.139518
v 0.1999194 14.45262 0.6154184
v 0.3521307 -1.355908 1.083746
v 0.3802759 14.45262 0.5235224
v 0.6697928 -1.355908 0.9218903
v 0.5234077 14.45262 0.3803902
v 0.9218909 -1.355908 0.6697941
v 0.6153039 14.45262 0.200037
v 1.083748 -1.355908 0.3521309
v 0.6469693 14.45262 0.0001077652
v 1.13952 -1.355908 0
v -1.139521 -1.355908 -1.907349E-06
v -0.6469843 14.45262 0.0001058578
v -1.327801 14.46651 0.0001058578
v -1.969033 -1.342022 -1.907349E-06
v 1.13952 -1.355908 0
v 1.969033 -1.342022 0
v 1.327782 14.46651 0.0001077652
v 0.6469693 14.45262 0.0001077652
vt 0.4581363 0.4786162
vt 0.4400299 0.005697608
vt 0.4604483 0.4786162
vt 0.4387171 0.005697489
vt 0.4514263 0.4786163
vt 0.4349075 0.005697489
vt 0.4409754 0.4786162
vt 0.4289739 0.005697489
vt 0.4278065 0.4786162
vt 0.421497 0.005697608
vt 0.4132087 0.4786163
vt 0.413209 0.005697489
vt 0.3986109 0.4786162
vt 0.4049209 0.005697489
vt 0.3854418 0.4786162
vt 0.397444 0.005697489
vt 0.374991 0.4786162
vt 0.3915105 0.005697489
vt 0.368281 0.4786163
vt 0.3877008 0.005697489
vt 0.365969 0.4786162
vt 0.3863881 0.005697489
vt 0.5038971 0.9628735
vt 0.4745362 0.01655042
vt 0.4763098 0.01655084
vt 0.5007733 0.9628735
vt 0.469389 0.01655042
vt 0.4917075 0.962874
vt 0.461372 0.01655042
vt 0.4775873 0.9628735
vt 0.4512702 0.01655084
vt 0.4597948 0.962874
vt 0.4400721 0.01655042
vt 0.4400717 0.962874
vt 0.4288741 0.01655042
vt 0.4203487 0.9628735
vt 0.4187721 0.01655042
vt 0.4025561 0.9628735
vt 0.4107554 0.01655042
vt 0.3884359 0.9628735
vt 0.4056081 0.01655042
vt 0.3793701 0.962874
vt 0.4038346 0.01655042
vt 0.3762464 0.9628735
vt 0.3623888 0.9463073
vt 0.4595674 0
vt 0.4595674 0.9878787
vt 0.3623888 0.9878787
vt 0.3623888 0.9463073
vt 0.3623888 0.9878787
vt 0.4595674 0.9878787
vt 0.4595674 0
vn -0.9505948 0.0311434 -0.3088681
vn -0.9872208 0.0307593 -0.1563613
vn -0.9872208 0.0307593 -0.1563613
vn -0.9505953 0.03114341 -0.3088669
vn -0.8086252 0.0311454 -0.5874991
vn -0.8086259 0.0311454 -0.5874982
vn -0.587499 0.03114707 -0.8086252
vn -0.5874999 0.03114707 -0.8086246
vn -0.3088658 0.03114811 -0.9505954
vn -0.3088663 0.03114811 -0.9505953
vn 0 0.03114859 -0.9995147
vn 0 0.03114859 -0.9995147
vn 0.3088673 0.03114833 -0.950595
vn 0.3088676 0.03114833 -0.9505948
vn 0.5875007 0.03114746 -0.808624
vn 0.5875013 0.03114745 -0.8086236
vn 0.808625 0.03114602 -0.5874994
vn 0.8086256 0.03114602 -0.5874986
vn 0.9505952 0.03114425 -0.3088669
vn 0.9505956 0.03114425 -0.3088657
vn 0.9872213 0.03076019 -0.1563585
vn 0.9872213 0.03076019 -0.1563585
vn 0.9872211 -0.03075715 -0.1563603
vn 0.9505952 -0.03113915 -0.3088673
vn 0.9872211 -0.03075715 -0.1563603
vn 0.9505956 -0.03113916 -0.3088661
vn 0.8086237 -0.03113731 -0.5875017
vn 0.8086242 -0.0311373 -0.5875009
vn 0.5874993 -0.03113585 -0.8086254
vn 0.5875 -0.03113585 -0.808625
vn 0.3088685 -0.03113497 -0.950595
vn 0.3088689 -0.03113497 -0.950595
vn 0 -0.03113476 -0.9995152
vn 0 -0.03113476 -0.9995152
vn -0.3088668 -0.03113526 -0.9505955
vn -0.3088673 -0.03113526 -0.9505954
vn -0.5874982 -0.03113645 -0.8086262
vn -0.5874989 -0.03113645 -0.8086257
vn -0.8086232 -0.03113808 -0.5875022
vn -0.8086239 -0.03113808 -0.5875013
vn -0.9505951 -0.03114003 -0.3088678
vn -0.9505955 -0.03114003 -0.3088665
vn -0.9872211 -0.03075803 -0.1563599
vn -0.9872211 -0.03075803 -0.15636
vn 0 0 -1
vn 0 0 -1
vn 0 0 -1
vn 0 0 -1
vn 0 0 -1
vn 0 0 -1
vn 0 0 -1
vn 0 0 -1
g rewardBeamInner_mesh_0
f 3/3/3 2/2/2 1/1/1
f 2/2/2 4/4/4 1/1/1
f 1/1/1 4/4/4 5/5/5
f 4/4/4 6/6/6 5/5/5
f 5/5/5 6/6/6 7/7/7
f 6/6/6 8/8/8 7/7/7
f 7/7/7 8/8/8 9/9/9
f 8/8/8 10/10/10 9/9/9
f 9/9/9 10/10/10 11/11/11
f 10/10/10 12/12/12 11/11/11
f 11/11/11 12/12/12 13/13/13
f 12/12/12 14/14/14 13/13/13
f 13/13/13 14/14/14 15/15/15
f 14/14/14 16/16/16 15/15/15
f 15/15/15 16/16/16 17/17/17
f 16/16/16 18/18/18 17/17/17
f 17/17/17 18/18/18 19/19/19
f 18/18/18 20/20/20 19/19/19
f 19/19/19 20/20/20 21/21/21
f 20/20/20 22/22/22 21/21/21
g rewardBeamInner_mesh_1
f 25/25/25 24/24/24 23/23/23
f 24/24/24 26/26/26 23/23/23
f 24/24/24 27/27/27 26/26/26
f 27/27/27 28/28/28 26/26/26
f 27/27/27 29/29/29 28/28/28
f 29/29/29 30/30/30 28/28/28
f 29/29/29 31/31/31 30/30/30
f 31/31/31 32/32/32 30/30/30
f 31/31/31 33/33/33 32/32/32
f 33/33/33 34/34/34 32/32/32
f 33/33/33 35/35/35 34/34/34
f 35/35/35 36/36/36 34/34/34
f 35/35/35 37/37/37 36/36/36
f 37/37/37 38/38/38 36/36/36
f 37/37/37 39/39/39 38/38/38
f 39/39/39 40/40/40 38/38/38
f 39/39/39 41/41/41 40/40/40
f 41/41/41 42/42/42 40/40/40
f 41/41/41 43/43/43 42/42/42
f 43/43/43 44/44/44 42/42/42
f 47/47/47 46/46/46 45/45/45
f 48/48/48 47/47/47 45/45/45
f 51/51/51 50/50/50 49/49/49
f 52/52/52 51/51/51 49/49/49
