g roll_frontDust01_mesh
v -5.415757E-18 0.3417989 -0.06141433
v 0.1323801 0.3397339 0.2611919
v -0.13088 0.3218457 0.2510753
v 0.1651551 0.1641734 -0.1166081
v 0.3803459 0.09300084 0.1422109
v 0.2402089 0.2914554 0.2361183
v 0.2402089 0.2914554 0.2361183
v 0.1323801 0.3397339 0.2611919
v -5.415757E-18 0.3417989 -0.06141433
v 0.2402089 0.2914554 0.2361183
v -5.415757E-18 0.3417989 -0.06141433
v 0.1651551 0.1641734 -0.1166081
v -5.415757E-18 0.2196304 -0.2706489
v 0.1651551 0.1641734 -0.1166081
v -5.415757E-18 0.2196304 -0.2706489
v -5.415757E-18 -0.01049294 -0.3468515
v 0.1910615 -0.008017067 -0.2650145
v 0.3911935 -0.07838649 -0.07343099
v 0.4017742 0.01788936 0.00762073
v 0.1651551 0.1641734 -0.1166081
v 0.1651551 0.1641734 -0.1166081
v 0.3803459 0.09300084 0.1422109
v 0.3911935 -0.07838649 -0.07343099
v 0.1910615 -0.008017067 -0.2650145
v -5.415757E-18 0.2196304 -0.2706489
v 0.3424565 -0.1939848 -0.160648
v 0.3911935 -0.07838649 -0.07343099
v 0.1910615 -0.008017067 -0.2650145
v -5.415757E-18 -0.01049294 -0.3468515
v 0.1726075 -0.3063827 -0.2427768
v -0.1910616 0.2572062 -0.1042893
v -0.2341744 0.1551285 -0.1911635
v -0.1840556 0.009991841 -0.2558785
v -0.2675641 -0.2795213 -0.2214438
v -0.4026705 -0.1382046 -0.1196536
v -0.4069054 0.06222731 0.03156805
v -0.4026705 -0.1382046 -0.1196536
v -0.2789438 0.2401582 0.1845035
v -5.415757E-18 0.3417989 -0.06141433
v -5.415757E-18 0.3417989 -0.06141433
v -0.13088 0.3218457 0.2510753
v -5.415757E-18 0.2196304 -0.2706489
v -5.415757E-18 -0.01049294 -0.3468515
v -5.415757E-18 0.2196304 -0.2706489
v -0.2675641 -0.2795213 -0.2214438
v -0.1434709 -0.3283173 -0.247887
v 0.1726075 -0.3063827 -0.2427768
v -5.415757E-18 -0.01049294 -0.3468515
v -0.1434709 -0.3283173 -0.247887
vt 0.5827288 0.3379598
vt 0.5811539 0.3390649
vt 0.5816414 0.3392021
vt 0.58258 0.3395081
vt 0.5776225 0.3396677
vt 0.5807239 0.3389417
vt 0.5807239 0.3389417
vt 0.5811539 0.3390649
vt 0.5827288 0.3379598
vt 0.5807239 0.3389417
vt 0.5827288 0.3379598
vt 0.58258 0.3395081
vt 0.5830414 0.3376378
vt 0.58258 0.3395081
vt 0.5830414 0.3376378
vt 0.5818331 0.3378731
vt 0.5819117 0.3378658
vt 0.5781204 0.3391542
vt 0.5781184 0.3391679
vt 0.58258 0.3395081
vt 0.58258 0.3395081
vt 0.5776225 0.3396677
vt 0.5781204 0.3391542
vt 0.5819117 0.3378658
vt 0.5830414 0.3376378
vt 0.5781221 0.3391404
vt 0.5781204 0.3391542
vt 0.5819117 0.3378658
vt 0.5818331 0.3378731
vt 0.5781305 0.3391337
vt 0.5825801 0.3379634
vt 0.581914 0.3379329
vt 0.5819138 0.3378926
vt 0.5781415 0.3391381
vt 0.5781461 0.3391542
vt 0.5781479 0.3391679
vt 0.5781461 0.3391542
vt 0.5796012 0.3387934
vt 0.5827288 0.3379598
vt 0.5827288 0.3379598
vt 0.5816414 0.3392021
vt 0.5830414 0.3376378
vt 0.5818331 0.3378731
vt 0.5830414 0.3376378
vt 0.5781415 0.3391381
vt 0.5781378 0.3391351
vt 0.5781305 0.3391337
vt 0.5818331 0.3378731
vt 0.5781378 0.3391351
vn -0.06907996 0.9970065 0.03472872
vn -0.06907997 0.9970065 0.03472872
vn -0.06907997 0.9970065 0.03472872
vn 0.6645112 0.6465464 -0.3747034
vn 0.6645112 0.6465464 -0.3747034
vn 0.6645113 0.6465464 -0.3747033
vn 0.5494161 0.7749335 -0.3124422
vn 0.5494161 0.7749335 -0.3124422
vn 0.0783412 0.9383838 -0.3365982
vn 0.5494161 0.7749335 -0.3124422
vn 0.0783412 0.9383838 -0.3365982
vn 0.5998195 0.6171044 -0.509312
vn 0.07450261 0.597999 -0.7980267
vn 0.5998195 0.6171044 -0.509312
vn 0.07450261 0.597999 -0.7980267
vn 0.0761935 0.1728572 -0.9819953
vn 0.5572965 0.2199264 -0.8006579
vn 0.6554472 0.511969 -0.5552267
vn 0.6495849 0.586411 -0.4839025
vn 0.5998195 0.6171044 -0.509312
vn 0.5998195 0.6171044 -0.509312
vn 0.6121573 0.7279509 -0.3087893
vn 0.6554472 0.511969 -0.5552267
vn 0.5572965 0.2199264 -0.8006579
vn 0.07450261 0.597999 -0.7980267
vn 0.5214044 -0.01441756 -0.853188
vn 0.7134722 0.2047708 -0.6700943
vn 0.5572965 0.2199264 -0.8006579
vn 0.0761935 0.1728572 -0.9819953
vn 0.4363716 -0.09368616 -0.8948758
vn -0.523316 0.8007911 -0.2913314
vn -0.6082077 0.4940974 -0.6212497
vn -0.4639488 0.1050722 -0.8796087
vn -0.5744539 0.1007202 -0.8123167
vn -0.5744539 0.1007202 -0.8123167
vn -0.770323 0.5469391 -0.3278111
vn -0.8058393 0.34569 -0.4807509
vn -0.5517593 0.8197997 -0.1532647
vn 0.0783412 0.9383838 -0.3365982
vn 0.0783412 0.9383838 -0.3365982
vn -0.4134628 0.9055828 -0.0947016
vn 0.07450261 0.597999 -0.7980267
vn 0.0761935 0.1728572 -0.9819953
vn 0.07450261 0.597999 -0.7980267
vn -0.3682252 -0.06608003 -0.9273854
vn -0.3682252 -0.06608003 -0.9273854
vn 0.03701949 -0.3122938 -0.949264
vn 0.03701949 -0.3122938 -0.949264
vn 0.0370195 -0.3122938 -0.949264
g roll_frontDust01_mesh_0
f 3/3/3 2/2/2 1/1/1
f 6/6/6 5/5/5 4/4/4
f 9/9/9 8/8/8 7/7/7
f 12/12/12 11/11/11 10/10/10
f 11/11/11 14/14/14 13/13/13
f 17/17/17 16/16/16 15/15/15
f 20/20/20 19/19/19 18/18/18
f 22/22/22 19/19/19 21/21/21
f 24/24/24 21/21/21 23/23/23
f 21/21/21 24/24/24 25/25/25
f 27/27/27 26/26/26 24/24/24
f 29/29/29 28/28/28 26/26/26
f 30/30/30 29/29/29 26/26/26
f 25/25/25 32/32/32 31/31/31
f 32/32/32 25/25/25 33/33/33
f 32/32/32 33/33/33 34/34/34
f 35/35/35 32/32/32 34/34/34
f 31/31/31 32/32/32 36/36/36
f 37/37/37 36/36/36 32/32/32
f 38/38/38 31/31/31 36/36/36
f 39/39/39 31/31/31 38/38/38
f 41/41/41 40/40/40 38/38/38
f 40/40/40 42/42/42 31/31/31
f 44/44/44 43/43/43 33/33/33
f 33/33/33 43/43/43 45/45/45
f 43/43/43 46/46/46 45/45/45
f 49/49/49 48/48/48 47/47/47
