g scoreScreen_beam_front
v -0.9247873 -0.3972928 -0.8778985
v -1.926647 -0.3972928 -0.8778985
v -1.829669 0.6929861 -0.8778985
v -0.8911299 0.6929862 -0.8778985
v -0.9247873 -0.3972928 -0.8778985
v -1.317279 6.453522 -0.8778985
v -0.7132996 6.453522 -0.8778985
v -0.01766123 0.6929862 -0.8778985
v -0.1936599 6.453522 -0.8778985
v -0.01766123 0.6929862 -0.8778985
v 0.0156495 -0.3972928 -0.8778985
v -0.8911299 0.6929862 -0.8778985
v -0.9247873 -0.3972928 -0.8778985
v 1.795586 0.6929862 -0.8778985
v 1.957946 -0.3972928 -0.8778985
v 0.8872738 -0.3972928 -0.8778985
v 0.8872738 -0.3972928 -0.8778985
v 0.7936078 0.6929862 -0.8778985
v 0.9377518 6.453522 -0.8778985
v 0.2987193 6.453522 -0.8778985
v -0.01766123 0.6929862 -0.8778985
v -0.1936599 6.453522 -0.8778985
v 0.0156495 -0.3972928 -0.8778985
v -0.01766123 0.6929862 -0.8778985
v 0.7936078 0.6929862 -0.8778985
v 0.8872738 -0.3972928 -0.8778985
vt 0.5383583 0.5562031
vt 0.5383583 0.5244666
vt 0.5644949 0.52335
vt 0.5644949 0.6813182
vt 0.5383583 0.5562031
vt 0.6742308 0.5251296
vt 0.6742307 0.6986808
vt 0.5644948 0.7276411
vt 0.6742306 0.7256103
vt 0.5644948 0.7276411
vt 0.5383582 0.5657347
vt 0.5644949 0.6813182
vt 0.5383583 0.5562031
vt 0.564495 0.52335
vt 0.5383584 0.5244666
vt 0.5383583 0.5562031
vt 0.5383583 0.5562031
vt 0.564495 0.6813182
vt 0.6742308 0.5251297
vt 0.6742307 0.6986808
vt 0.5644948 0.7276411
vt 0.6742306 0.7256103
vt 0.5383582 0.5657347
vt 0.5644948 0.7276411
vt 0.564495 0.6813182
vt 0.5383583 0.5562031
vn 0 0 1
vn 0 0 1
vn 0 0 1
vn 0 0 1
vn 0 0 1
vn 0 0 1
vn 0 0 1
vn 0 0 1
vn 0 0 1
vn 0 0 1
vn 0 0 1
vn 0 0 1
vn 0 0 1
vn 0 0 1
vn 0 0 1
vn 0 0 1
vn 0 0 1
vn 0 0 1
vn 0 0 1
vn 0 0 1
vn 0 0 1
vn 0 0 1
vn 0 0 1
vn 0 0 1
vn 0 0 1
vn 0 0 1
g scoreScreen_beam_front_0
f 3/3/3 2/2/2 1/1/1
f 5/5/5 4/4/4 3/3/3
f 3/3/3 4/4/4 6/6/6
f 4/4/4 7/7/7 6/6/6
f 4/4/4 8/8/8 7/7/7
f 8/8/8 9/9/9 7/7/7
f 11/11/11 10/10/10 4/4/4
f 13/13/13 11/11/11 12/12/12
f 16/16/16 15/15/15 14/14/14
f 14/14/14 18/18/18 17/17/17
f 14/14/14 19/19/19 18/18/18
f 19/19/19 20/20/20 18/18/18
f 18/18/18 20/20/20 21/21/21
f 20/20/20 22/22/22 21/21/21
f 18/18/18 24/24/24 23/23/23
f 26/26/26 25/25/25 23/23/23
