g shield1_mesh
v -1.188821 -0.3862715 0.5533025
v -1.054177 -0.3425227 0.6150859
v -0.8967362 -0.6515169 0.6150858
v -1.011272 -0.734732 0.5533025
v -1.25 0 0.5533025
v -0.651517 -0.8967361 0.6150858
v -0.734732 -1.011272 0.5533025
v -1.108426 4.27726E-09 0.6150858
v -1.188821 0.3862712 0.5533025
v -0.436501 -0.4365008 1.082532
v -0.6097053 1.043081E-07 1.082532
v -1.192093E-07 -0.6097054 1.082532
v -0.3425227 -1.054176 0.6150859
v -0.3862714 -1.188821 0.5533025
v -1.054176 0.3425226 0.6150859
v -1.011271 0.7347316 0.5533025
v -2.851506E-09 -1.108427 0.6150859
v 0 -1.250001 0.5533025
v -0.8967355 0.6515166 0.6150859
v -0.7347316 1.011271 0.5533025
v -0.4365006 0.4365006 1.082532
v 0.3425227 -1.054176 0.6150859
v 0.3862714 -1.188821 0.5533025
v 0.4365006 -0.4365008 1.082532
v -0.6515165 0.8967356 0.6150859
v -0.3862712 1.188821 0.5533025
v 0.6515168 -0.896736 0.6150858
v 0.7347319 -1.011272 0.5533025
v -0.3425225 1.054176 0.6150858
v 3.72529E-08 1.25 0.5533025
v 8.381903E-08 0.6097052 1.082532
v 0.8967359 -0.6515167 0.6150858
v 1.011272 -0.7347318 0.5533025
v 0.6097053 -1.192093E-07 1.082532
v 3.018217E-08 1.108426 0.6150859
v 0.3862713 1.188821 0.5533025
v 1.054176 -0.3425226 0.6150859
v 1.188821 -0.3862713 0.5533025
v 0.3425226 1.054176 0.6150859
v 0.7347317 1.011271 0.5533025
v 1.108426 4.27726E-09 0.6150858
v 1.25 0 0.5533025
v 0.6515167 0.8967357 0.6150858
v 1.011271 0.7347317 0.5533025
v 0.4365008 0.4365006 1.082532
v 1.054176 0.3425226 0.6150858
v 1.188821 0.3862713 0.5533025
v 0.8967358 0.6515166 0.6150858
vt 0.0244714 0.3454916
vt 0.07832927 0.3629911
vt 0.1413054 0.2393934
vt 0.09549117 0.2061074
vt -5.960464E-08 0.5000001
vt 0.2393931 0.1413058
vt 0.2061071 0.09549153
vt 0.05662942 0.5000001
vt 0.02447164 0.6545086
vt 0.3253995 0.3253999
vt 0.2561178 0.5000001
vt 0.4999998 0.256118
vt 0.3629908 0.07832968
vt 0.3454913 0.02447176
vt 0.07832956 0.6370091
vt 0.09549141 0.7938926
vt 0.4999999 0.05662954
vt 0.4999999 0
vt 0.1413057 0.7606066
vt 0.2061073 0.9045086
vt 0.3253996 0.6746004
vt 0.6370089 0.07832968
vt 0.6545085 0.02447176
vt 0.6746001 0.3253999
vt 0.2393934 0.8586943
vt 0.3454914 0.9755282
vt 0.7606065 0.1413058
vt 0.7938926 0.09549159
vt 0.3629909 0.9216704
vt 0.4999999 1
vt 0.4999999 0.7438822
vt 0.8586942 0.2393935
vt 0.9045085 0.2061075
vt 0.7438819 0.5000001
vt 0.4999999 0.9433706
vt 0.6545084 0.9755284
vt 0.9216703 0.3629911
vt 0.9755282 0.3454916
vt 0.6370089 0.9216704
vt 0.7938925 0.9045086
vt 0.9433703 0.5000001
vt 0.9999999 0.5000001
vt 0.7606065 0.8586943
vt 0.9045084 0.7938927
vt 0.6746001 0.6746004
vt 0.9216703 0.6370091
vt 0.9755282 0.6545086
vt 0.8586941 0.7606068
vn -0.8487217 -0.2757654 0.4512483
vn -0.8095136 -0.2824156 0.5147128
vn -0.7224494 -0.4632204 0.5133164
vn -0.7219656 -0.5245386 0.4512483
vn -0.8923985 0 0.451248
vn -0.4632204 -0.7224494 0.5133163
vn -0.5245386 -0.7219656 0.4512483
vn -0.8733293 0 0.4871303
vn -0.8487214 0.2757663 0.4512481
vn -0.5656486 -0.5656484 0.6000696
vn -0.7967775 0 0.6042727
vn 0 -0.7967775 0.6042729
vn -0.2824162 -0.8095133 0.5147126
vn -0.2757662 -0.8487214 0.4512482
vn -0.8095134 0.2824165 0.5147125
vn -0.7219656 0.5245387 0.451248
vn 0 -0.8733292 0.4871304
vn 0 -0.8923985 0.4512481
vn -0.7224495 0.4632205 0.5133161
vn -0.5245387 0.7219656 0.4512481
vn -0.5656487 0.5656487 0.6000691
vn 0.2824165 -0.8095133 0.5147127
vn 0.2757664 -0.8487213 0.4512481
vn 0.5656487 -0.5656484 0.6000693
vn -0.4632206 0.7224495 0.5133161
vn -0.2757664 0.8487215 0.451248
vn 0.4632207 -0.7224494 0.5133162
vn 0.5245389 -0.7219654 0.451248
vn -0.2824166 0.8095134 0.5147124
vn 0 0.8923987 0.4512479
vn 0 0.7967776 0.6042727
vn 0.7224495 -0.4632204 0.5133162
vn 0.7219656 -0.5245386 0.4512482
vn 0.7967775 0 0.6042728
vn 0 0.8733293 0.4871303
vn 0.2757663 0.8487215 0.451248
vn 0.8095135 -0.2824163 0.5147125
vn 0.8487215 -0.2757661 0.4512481
vn 0.2824164 0.8095134 0.5147125
vn 0.5245387 0.7219656 0.4512481
vn 0.8733293 0 0.4871304
vn 0.8923987 0 0.451248
vn 0.4632206 0.7224495 0.5133162
vn 0.7219655 0.5245388 0.4512481
vn 0.5656486 0.5656486 0.6000693
vn 0.8095133 0.2824164 0.5147126
vn 0.8487214 0.2757663 0.4512482
vn 0.7224494 0.4632206 0.5133162
g shield1_mesh_0
f 3/3/3 2/2/2 1/1/1
f 4/4/4 3/3/3 1/1/1
f 1/1/1 2/2/2 5/5/5
f 6/6/6 3/3/3 4/4/4
f 7/7/7 6/6/6 4/4/4
f 2/2/2 8/8/8 5/5/5
f 5/5/5 8/8/8 9/9/9
f 3/3/3 10/10/10 2/2/2
f 6/6/6 10/10/10 3/3/3
f 10/10/10 11/11/11 2/2/2
f 2/2/2 11/11/11 8/8/8
f 12/12/12 10/10/10 6/6/6
f 13/13/13 6/6/6 7/7/7
f 13/13/13 12/12/12 6/6/6
f 14/14/14 13/13/13 7/7/7
f 8/8/8 15/15/15 9/9/9
f 8/8/8 11/11/11 15/15/15
f 9/9/9 15/15/15 16/16/16
f 17/17/17 13/13/13 14/14/14
f 17/17/17 12/12/12 13/13/13
f 18/18/18 17/17/17 14/14/14
f 15/15/15 11/11/11 19/19/19
f 15/15/15 19/19/19 16/16/16
f 16/16/16 19/19/19 20/20/20
f 11/11/11 21/21/21 19/19/19
f 22/22/22 12/12/12 17/17/17
f 22/22/22 17/17/17 18/18/18
f 23/23/23 22/22/22 18/18/18
f 24/24/24 12/12/12 22/22/22
f 19/19/19 25/25/25 20/20/20
f 19/19/19 21/21/21 25/25/25
f 20/20/20 25/25/25 26/26/26
f 27/27/27 22/22/22 23/23/23
f 27/27/27 24/24/24 22/22/22
f 28/28/28 27/27/27 23/23/23
f 25/25/25 21/21/21 29/29/29
f 25/25/25 29/29/29 26/26/26
f 26/26/26 29/29/29 30/30/30
f 21/21/21 31/31/31 29/29/29
f 32/32/32 24/24/24 27/27/27
f 32/32/32 27/27/27 28/28/28
f 33/33/33 32/32/32 28/28/28
f 34/34/34 24/24/24 32/32/32
f 29/29/29 35/35/35 30/30/30
f 29/29/29 31/31/31 35/35/35
f 30/30/30 35/35/35 36/36/36
f 37/37/37 32/32/32 33/33/33
f 37/37/37 34/34/34 32/32/32
f 38/38/38 37/37/37 33/33/33
f 35/35/35 39/39/39 36/36/36
f 35/35/35 31/31/31 39/39/39
f 36/36/36 39/39/39 40/40/40
f 41/41/41 37/37/37 38/38/38
f 41/41/41 34/34/34 37/37/37
f 42/42/42 41/41/41 38/38/38
f 39/39/39 31/31/31 43/43/43
f 39/39/39 43/43/43 40/40/40
f 40/40/40 43/43/43 44/44/44
f 31/31/31 45/45/45 43/43/43
f 46/46/46 34/34/34 41/41/41
f 46/46/46 41/41/41 42/42/42
f 45/45/45 34/34/34 46/46/46
f 47/47/47 46/46/46 42/42/42
f 44/44/44 48/48/48 47/47/47
f 43/43/43 48/48/48 44/44/44
f 43/43/43 45/45/45 48/48/48
f 48/48/48 46/46/46 47/47/47
f 48/48/48 45/45/45 46/46/46
