g shockwave_mesh
v 0.9510573 0 -0.309017
v 1.192093E-07 0 1.788139E-07
v 0.8090177 0 -0.5877854
v 0.8090177 0 -0.5877854
v 1.192093E-07 0 1.788139E-07
v 0.5877857 0 -0.8090173
v 1.192093E-07 0 -1
v 1.192093E-07 0 1.788139E-07
v -0.309017 0 -0.9510568
v -0.309017 0 -0.9510568
v 1.192093E-07 0 1.788139E-07
v -0.5877854 0 -0.8090171
v -0.5877854 0 -0.8090171
v 1.192093E-07 0 1.788139E-07
v -0.8090171 0 -0.5877852
v 1 0 1.788139E-07
v 1.192093E-07 0 1.788139E-07
v 0.9510573 0 -0.309017
v 0.5877857 0 -0.8090173
v 1.192093E-07 0 1.788139E-07
v 0.3090173 0 -0.9510568
v 1.192093E-07 0 -1
v -0.8090171 0 -0.5877852
v 1.192093E-07 0 1.788139E-07
v -0.9510567 0 -0.3090169
v -1 0 1.788139E-07
vt 0.7875233 0.9939907
vt 0.8868446 0.4955724
vt 0.8872995 0.9939907
vt 0.8872995 0.9939907
vt 0.8868446 0.4955724
vt 0.7888551 0.9939907
vt 0.7919208 0.9939907
vt 0.8868446 0.4955724
vt 0.7907966 0.9939909
vt 0.7907966 0.9939909
vt 0.8868446 0.4955724
vt 0.8800305 0.9939907
vt 0.8800305 0.9939907
vt 0.8868446 0.4955724
vt 0.7922095 0.9939904
vt 0.8888959 0.9939909
vt 0.8868446 0.4955724
vt 0.7875233 0.9939907
vt 0.7888551 0.9939907
vt 0.8868446 0.4955724
vt 0.7891914 0.9939904
vt 0.7919208 0.9939907
vt 0.7922095 0.9939904
vt 0.8868446 0.4955724
vt 0.7924647 0.9939907
vt 0.884207 0.9939904
vn 0 1 0
vn 0 1 0
vn 0 1 0
vn 0 1 0
vn 0 1 0
vn 0 1 0
vn 0 1 0
vn 0 1 0
vn 0 1 0
vn 0 1 0
vn 0 1 0
vn 0 1 0
vn 0 1 0
vn 0 1 0
vn 0 1 0
vn 0 1 0
vn 0 1 0
vn 0 1 0
vn 0 1 0
vn 0 1 0
vn 0 1 0
vn 0 1 0
vn 0 1 0
vn 0 1 0
vn 0 1 0
vn 0 1 0
g shockwave_mesh_0
f 3/3/3 2/2/2 1/1/1
f 6/6/6 5/5/5 4/4/4
f 9/9/9 8/8/8 7/7/7
f 12/12/12 11/11/11 10/10/10
f 15/15/15 14/14/14 13/13/13
f 18/18/18 17/17/17 16/16/16
f 21/21/21 20/20/20 19/19/19
f 22/22/22 20/20/20 21/21/21
f 25/25/25 24/24/24 23/23/23
f 26/26/26 24/24/24 25/25/25
