g spiderBox
v -0.01717153 0.9970375 -0.4805356
v -0.00651475 0.9924141 -0.492912
v -0.006514751 0.9924141 0.491345
v -0.9928964 0.9924141 -0.492912
v -0.00651475 0.9924141 -0.492912
v -0.9804732 0.9970375 -0.4805356
v -0.9928964 0.9924141 0.4913449
v -0.9804732 0.9970375 0.4742673
v -0.006514751 0.9924141 0.491345
v -0.9928964 0.9924141 0.4913449
v -0.01717153 0.9970375 0.4742673
v -0.01717153 0.9970375 -0.4805356
v -0.006514751 0.9924141 0.491345
v -0.9928964 0.02999629 0.4913449
v -0.9804732 0.9785437 0.4970375
v -0.9804732 0.0818485 0.4970375
v -0.9928964 0.02999629 0.4913449
v -0.9928964 0.9924141 0.4913449
v -0.01717153 0.9785437 0.4970375
v -0.006514751 0.9924141 0.491345
v -0.01717153 0.08201534 0.4970375
v -0.00651475 0.03019649 0.491345
v -0.00651475 0.03019649 0.491345
v -0.006514751 0.9924141 0.491345
v -0.002962492 0.9785437 0.4742673
v -0.00651475 0.03019649 0.491345
v -0.002962492 0.08201534 0.4742673
v -0.006514751 0.9924141 0.491345
v -0.002962491 0.9785437 -0.4805356
v -0.00651475 0.9924141 -0.492912
v -0.002962491 0.08209878 -0.4805356
v -0.00651475 0.08208211 -0.492912
v -0.02203898 0.04178521 -0.4726839
v -0.02545489 0.02787241 -0.4850603
v -0.00651475 0.007600092 -0.4101745
v -0.002962491 0.02151289 -0.4095825
v -0.00651475 0.007600092 0.4550591
v -0.002962491 0.02151289 0.4024818
v -4.623249E-17 0.2082127 -0.5
v -8.227138E-17 0.3705174 -0.5
v -0.09701778 0.1121762 -0.5
v -0.02292589 0.1266031 -0.5
v -0.02553253 0.06458896 -0.5
v -3.358337E-17 0.1512461 -0.5
v -1.250991E-17 0.05633962 -0.5
v -0.03540578 0.0310795 -0.5
v -0.09848872 0.02895169 -0.5
v -0.2450726 6.236398E-17 -0.5
v -0.07896829 1.753448E-17 -0.5
v -0.1545022 1.75147E-17 -0.5
v -0.07896829 0 0.5
v -0.1577584 0 0.5
v -0.09848872 0.02895169 0.5
v -0.03540578 0.0310795 0.5
v -0.02553253 0.06458896 0.5
v 1.876486E-17 0.05633962 0.5
v 5.037506E-17 0.1512461 0.5
v 6.934874E-17 0.2082127 0.5
v -1 0.2082127 -0.5
v -0.9029822 0.1121762 -0.5
v -1 0.3705174 -0.5
v -0.9770741 0.1266031 -0.5
v -1 0.1512461 -0.5
v -0.9744675 0.06458896 -0.5
v -1 0.05633962 -0.5
v -0.9645942 0.0310795 -0.5
v -0.9210317 1.753448E-17 -0.5
v -0.9015113 0.02895169 -0.5
v -0.8454978 1.75147E-17 -0.5
v -0.7549275 6.236398E-17 -0.5
v -0.9015113 0.02895169 0.5
v -0.8422416 0 0.5
v -0.9210317 0 0.5
v -0.9744675 0.06458896 0.5
v -0.9645942 0.0310795 0.5
v -1 0.05633962 0.5
v -1 0.1512461 0.5
v -1 0.2082127 0.5
v -0.9928964 0.007600092 -0.4093136
v -0.9928964 0.007600092 0.4550591
v -0.9804732 0.002962491 0.4024817
v -0.9804732 0.002962491 -0.4087474
v -0.9739788 0.02787241 -0.4850603
v -0.9620324 0.02323481 -0.4726839
v -0.9330156 0.007600092 -0.492912
v -0.9219936 0.002962491 -0.4805356
v -0.07032746 0.007600092 -0.492912
v -0.07949111 0.002962491 -0.4805356
v -0.02545489 0.02787241 -0.4850603
v -0.03570267 0.02323481 -0.4726839
v -0.01717153 0.002962491 -0.4095825
v -0.02545489 0.02787241 -0.4850603
v -0.00651475 0.007600092 -0.4101745
v -0.01717153 0.002962491 0.4024818
v -0.00651475 0.007600092 0.4550591
v -0.9970375 0.0818485 0.4742673
v -0.9928964 0.9924141 0.4913449
v -0.9928964 0.02999629 0.4913449
v -0.9970375 0.9785437 0.4742673
v -0.9970375 0.9785437 -0.4805356
v -0.9928964 0.9924141 0.4913449
v -0.9928964 0.9924141 -0.492912
v -0.9928964 0.08209878 -0.492912
v -0.9970375 0.08209878 -0.4805356
v -0.9739788 0.02787241 -0.4850603
v -0.9779611 0.04178521 -0.4726839
v -0.9970376 0.02151289 -0.4087474
v -0.9928964 0.007600092 -0.4093136
v -0.9970375 0.02151289 0.4024817
v -0.9928964 0.007600092 0.4550591
v -0.9782487 0.007600092 0.4913449
v -0.02386495 0.007600092 0.4913449
v -0.08410571 0.002962491 0.4742673
v -0.9161783 0.002962491 0.4742672
v -0.08410571 0.02151289 0.4970375
v -0.02386495 0.007600092 0.4913449
v -0.9782487 0.007600092 0.4913449
v -0.9161783 0.02151289 0.4970375
v -0.9928964 0.9924141 -0.492912
v -0.9804732 0.9785437 -0.4970375
v -0.01717153 0.9785437 -0.4970375
v -0.9804732 0.08209878 -0.4970375
v -0.00651475 0.9924141 -0.492912
v -0.9928964 0.08209878 -0.492912
v -0.00651475 0.08208211 -0.492912
v -0.01717153 0.08209878 -0.4970375
v -0.9620324 0.04178521 -0.4891858
v -0.9739788 0.02787241 -0.4850603
v -0.9330156 0.007600092 -0.492912
v -0.9219936 0.02151289 -0.4970375
v -0.07032746 0.007600092 -0.492912
v -0.07949112 0.02151289 -0.4970375
v -0.02545489 0.02787241 -0.4850603
v -0.03570267 0.04178521 -0.4891858
vt 0.6214265 0.4958499
vt 0.625 0.4958499
vt 0.625 0.2557265
vt 0.3760414 0.5001252
vt 0.6238089 0.5015504
vt 0.3791658 0.4958499
vt 0.375 0.2528632
vt 0.3791658 0.2557265
vt 0.6255382 0.2488372
vt 0.3744798 0.2484497
vt 0.6214265 0.2557265
vt 0.6214265 0.4958499
vt 0.625 0.2557265
vt 0.3746023 0.0154912
vt 0.3791658 0.245349
vt 0.3791658 0.01860782
vt 0.3746023 0.0154912
vt 0.3744798 0.2484497
vt 0.6214265 0.245349
vt 0.6255382 0.2488372
vt 0.6214265 0.0206558
vt 0.6255382 0.01762108
vt 0.6255382 0.01762108
vt 0.6255382 0.2488372
vt 0.6307265 0.245349
vt 0.6255382 0.01762108
vt 0.6307265 0.0206558
vt 0.6255382 0.2488372
vt 0.8708499 0.245349
vt 0.8736166 0.2484497
vt 0.8708499 0.02155707
vt 0.8736166 0.01888281
vt 0.8708499 0.004665242
vt 0.8736166 0.001555081
vt 0.8556967 0.001526998
vt 0.8535046 0.004665242
vt 0.6447288 0.001196384
vt 0.6493017 0.004665242
vt 0.6249999 0.3541063
vt 0.625 0.4352587
vt 0.5361625 0.2776746
vt 0.6025811 0.3133014
vt 0.6122336 0.2822943
vt 0.625 0.325623
vt 0.625 0.2781698
vt 0.6072971 0.2655398
vt 0.5757555 0.2644757
vt 0.4845689 0.25
vt 0.5855159 0.25
vt 0.5461208 0.25
vt 0.5855159 0.25
vt 0.5461208 0.25
vt 0.5757555 0.2644757
vt 0.6072971 0.2655398
vt 0.6122336 0.2822943
vt 0.625 0.2781698
vt 0.625 0.325623
vt 0.6249999 0.3541063
vt 0.6249999 0.3541063
vt 0.5361625 0.2776746
vt 0.625 0.4352587
vt 0.6025811 0.3133014
vt 0.625 0.325623
vt 0.6122336 0.2822943
vt 0.625 0.2781698
vt 0.6072971 0.2655398
vt 0.5855159 0.25
vt 0.5757555 0.2644757
vt 0.5461208 0.25
vt 0.4845689 0.25
vt 0.5757555 0.2644757
vt 0.5461208 0.25
vt 0.5855159 0.25
vt 0.6122336 0.2822943
vt 0.6072971 0.2655398
vt 0.625 0.2781698
vt 0.625 0.325623
vt 0.6249999 0.3541063
vt 0.3760718 0.7715599
vt 0.3763579 0.976162
vt 0.3791658 0.9730595
vt 0.3791658 0.7751313
vt 0.3760414 0.7498712
vt 0.3791658 0.75415
vt 0.3910828 0.7497846
vt 0.3938728 0.75415
vt 0.6077799 0.7485372
vt 0.6057538 0.75415
vt 0.6238089 0.748445
vt 0.6214265 0.75415
vt 0.6214265 0.7714954
vt 0.625 0.75415
vt 0.6249139 0.7717712
vt 0.6214265 0.9756984
vt 0.623901 0.9792206
vt 0.3692735 0.01860782
vt 0.3744798 0.2484497
vt 0.3746023 0.0154912
vt 0.3692735 0.245349
vt 0.1291501 0.245349
vt 0.3744798 0.2484497
vt 0.1263833 0.2484497
vt 0.1263833 0.02190991
vt 0.1291501 0.02450803
vt 0.1263833 0.001555081
vt 0.1291501 0.004665242
vt 0.1501313 0.004665242
vt 0.1480726 0.001521111
vt 0.3480595 0.004665242
vt 0.35268 0.001200657
vt 0.3929025 0.9980912
vt 0.6066171 0.9980912
vt 0.6045932 0.9942735
vt 0.3953353 0.9942735
vt 0.6045932 0.004665242
vt 0.6081027 0.00116631
vt 0.3913579 0.00116631
vt 0.3953353 0.004665242
vt 0.3760414 0.5001252
vt 0.3791658 0.504651
vt 0.6214265 0.504651
vt 0.3791658 0.7254921
vt 0.6238089 0.5015504
vt 0.3760414 0.7292813
vt 0.6238089 0.7311172
vt 0.6214265 0.728443
vt 0.3791658 0.7453348
vt 0.3760414 0.7498712
vt 0.3910828 0.7497846
vt 0.3938728 0.7453348
vt 0.6077799 0.7485372
vt 0.6057538 0.7453348
vt 0.6238089 0.748445
vt 0.6214265 0.7453348
vn 0.1986991 0.9618176 -0.1882175
vn 0.1752505 0.9621831 -0.2085447
vn 0.1120128 0.9745947 0.1939547
vn -0.1801698 0.9669555 -0.1803769
vn 0.1752505 0.9621831 -0.2085447
vn -0.1796439 0.9669548 -0.1809045
vn -0.1208852 0.976845 0.1765238
vn -0.1638825 0.9757718 0.1449549
vn 0.1120128 0.9745947 0.1939547
vn -0.1208852 0.976845 0.1765238
vn 0.1803604 0.9720025 0.150603
vn 0.1986991 0.9618176 -0.1882175
vn 0.1120128 0.9745947 0.1939547
vn -0.4165689 0 0.9091042
vn -0.206586 0.2074009 0.9561942
vn -0.4165688 0 0.9091042
vn -0.4165689 0 0.9091042
vn -0.1886484 0.2234997 0.9562738
vn 0.2272787 0.2151706 0.949761
vn 0.1804092 0.2516321 0.9508595
vn 0.4711621 0 0.8820466
vn 0.4711622 0 0.8820466
vn 0.9790445 0 0.2036464
vn 0.9872147 0.1003005 0.1238829
vn 0.9868575 0.1213318 0.1067272
vn 0.9790445 0 0.2036464
vn 0.9790445 0 0.2036464
vn 0.9872147 0.1003005 0.1238829
vn 0.9821922 0.1344159 -0.1312659
vn 0.9821904 0.1458171 -0.1184881
vn 0.9642545 -0.02204054 -0.2640595
vn 0.9641154 -0.02093408 -0.2646571
vn 0.9561406 -0.2167773 -0.1969842
vn 0.9568046 -0.1943583 -0.2162169
vn 0.9713371 -0.2365063 -0.0238548
vn 0.9716481 -0.2348264 -0.02750468
vn 0.9689169 -0.2473868 0
vn 0.9689169 -0.2473869 0
vn 0 0 -1
vn 0 0 -1
vn 0 0 -1
vn 0 0 -1
vn 0 0 -1
vn 0 0 -1
vn 0 0 -1
vn 0 0 -1
vn 0 0 -1
vn 0 0 -1
vn 0 0 -1
vn 0 0 -1
vn 0 0 1
vn 0 0 1
vn 0 0 1
vn 0 0 1
vn 0 0 1
vn 0 0 1
vn 0 0 1
vn 0 0 1
vn 0 0 -1
vn 0 0 -1
vn 0 0 -1
vn 0 0 -1
vn 0 0 -1
vn 0 0 -1
vn 0 0 -1
vn 0 0 -1
vn 0 0 -1
vn 0 0 -1
vn 0 0 -1
vn 0 0 -1
vn 0 0 1
vn 0 0 1
vn 0 0 1
vn 0 0 1
vn 0 0 1
vn 0 0 1
vn 0 0 1
vn 0 0 1
vn -0.3375927 -0.9409115 -0.02677272
vn -0.3497266 -0.9368519 0
vn -0.3497265 -0.9368519 0
vn -0.3367533 -0.9411585 -0.02860019
vn -0.2868208 -0.941466 -0.1771317
vn -0.2907778 -0.9413354 -0.1712775
vn -0.05627773 -0.9509701 -0.3041197
vn -0.01077984 -0.9396089 -0.3420804
vn 0.04984871 -0.9474697 -0.315937
vn 0.01188122 -0.9393774 -0.342679
vn 0.3074716 -0.9327475 -0.1882638
vn 0.300981 -0.9329056 -0.1977307
vn 0.3844314 -0.9227076 -0.02869267
vn 0.3074716 -0.9327475 -0.1882638
vn 0.3848467 -0.9225591 -0.02788791
vn 0.3990313 -0.9169374 0
vn 0.3990313 -0.9169374 0
vn -0.9718355 0 0.2356602
vn -0.9827425 0.1166431 0.1435667
vn -0.9718355 0 0.2356602
vn -0.9822662 0.1407277 0.1238894
vn -0.9760278 0.1557464 -0.1520289
vn -0.9827425 0.1166431 0.1435667
vn -0.9760276 0.1687324 -0.1374751
vn -0.9517261 -0.02117578 -0.3062175
vn -0.9518325 -0.02189871 -0.3058356
vn -0.9477118 -0.2187506 -0.2323589
vn -0.9468232 -0.2386502 -0.2158053
vn -0.961688 -0.2727137 -0.02798999
vn -0.961341 -0.2742622 -0.02457223
vn -0.9584455 -0.2852759 0
vn -0.9584455 -0.2852758 0
vn 0 -0.9650494 0.2620681
vn 0 -0.9650494 0.2620681
vn 0 -0.9650494 0.2620682
vn 0 -0.9650494 0.2620681
vn 0 -0.3786874 0.9255247
vn 0 -0.3786874 0.9255247
vn 0 -0.3786874 0.9255247
vn 0 -0.3786874 0.9255247
vn -0.1366819 0.1679514 -0.9762737
vn -0.1506645 0.1554322 -0.9762895
vn 0.1663978 0.1614802 -0.9727465
vn -0.3069821 -0.01655174 -0.9515714
vn 0.129571 0.1899134 -0.9732133
vn -0.3094793 -0.01151613 -0.9508364
vn 0.3541758 -0.01228823 -0.9350981
vn 0.3513485 -0.01732864 -0.9360843
vn -0.2127079 -0.1635225 -0.9633357
vn -0.2162778 -0.1522895 -0.9643816
vn -0.0272424 -0.2634474 -0.9642889
vn -0.009046128 -0.2774063 -0.9607102
vn 0.02443336 -0.2684986 -0.9629701
vn 0.009731591 -0.2780291 -0.9605234
vn 0.223377 -0.1682733 -0.9600973
vn 0.2215205 -0.1817391 -0.9580708
g spiderBox_0
f 3/3/3 2/2/2 1/1/1
f 1/1/1 5/5/5 4/4/4
f 6/6/6 1/1/1 4/4/4
f 6/6/6 4/4/4 7/7/7
f 8/8/8 6/6/6 7/7/7
f 10/10/10 9/9/9 8/8/8
f 9/9/9 11/11/11 8/8/8
f 11/11/11 13/13/13 12/12/12
f 16/16/16 15/15/15 14/14/14
f 15/15/15 18/18/18 17/17/17
f 15/15/15 19/19/19 18/18/18
f 19/19/19 20/20/20 18/18/18
f 19/19/19 21/21/21 20/20/20
f 21/21/21 22/22/22 20/20/20
f 25/25/25 24/24/24 23/23/23
f 27/27/27 25/25/25 26/26/26
f 25/25/25 29/29/29 28/28/28
f 29/29/29 30/30/30 28/28/28
f 29/29/29 31/31/31 30/30/30
f 31/31/31 32/32/32 30/30/30
f 31/31/31 33/33/33 32/32/32
f 33/33/33 34/34/34 32/32/32
f 35/35/35 34/34/34 33/33/33
f 36/36/36 35/35/35 33/33/33
f 37/37/37 35/35/35 36/36/36
f 38/38/38 37/37/37 36/36/36
f 41/41/41 40/40/40 39/39/39
f 42/42/42 41/41/41 39/39/39
f 43/43/43 42/42/42 39/39/39
f 39/39/39 44/44/44 43/43/43
f 43/43/43 44/44/44 45/45/45
f 46/46/46 43/43/43 45/45/45
f 41/41/41 42/42/42 47/47/47
f 43/43/43 47/47/47 42/42/42
f 47/47/47 43/43/43 46/46/46
f 47/47/47 48/48/48 41/41/41
f 46/46/46 49/49/49 47/47/47
f 47/47/47 50/50/50 48/48/48
f 49/49/49 50/50/50 47/47/47
f 53/53/53 52/52/52 51/51/51
f 53/53/53 51/51/51 54/54/54
f 54/54/54 55/55/55 53/53/53
f 55/55/55 54/54/54 56/56/56
f 57/57/57 55/55/55 56/56/56
f 55/55/55 57/57/57 53/53/53
f 57/57/57 58/58/58 53/53/53
f 61/61/61 60/60/60 59/59/59
f 60/60/60 62/62/62 59/59/59
f 63/63/63 59/59/59 62/62/62
f 64/64/64 63/63/63 62/62/62
f 63/63/63 64/64/64 65/65/65
f 64/64/64 66/66/66 65/65/65
f 67/67/67 66/66/66 64/64/64
f 62/62/62 68/68/68 64/64/64
f 67/67/67 64/64/64 68/68/68
f 68/68/68 62/62/62 60/60/60
f 68/68/68 69/69/69 67/67/67
f 69/69/69 68/68/68 60/60/60
f 60/60/60 70/70/70 69/69/69
f 73/73/73 72/72/72 71/71/71
f 71/71/71 74/74/74 73/73/73
f 74/74/74 75/75/75 73/73/73
f 75/75/75 74/74/74 76/76/76
f 74/74/74 77/77/77 76/76/76
f 77/77/77 74/74/74 71/71/71
f 78/78/78 77/77/77 71/71/71
f 81/81/81 80/80/80 79/79/79
f 82/82/82 81/81/81 79/79/79
f 82/82/82 79/79/79 83/83/83
f 84/84/84 82/82/82 83/83/83
f 83/83/83 85/85/85 84/84/84
f 85/85/85 86/86/86 84/84/84
f 85/85/85 87/87/87 86/86/86
f 87/87/87 88/88/88 86/86/86
f 87/87/87 89/89/89 88/88/88
f 89/89/89 90/90/90 88/88/88
f 90/90/90 92/92/92 91/91/91
f 92/92/92 93/93/93 91/91/91
f 91/91/91 93/93/93 94/94/94
f 93/93/93 95/95/95 94/94/94
f 98/98/98 97/97/97 96/96/96
f 97/97/97 99/99/99 96/96/96
f 99/99/99 101/101/101 100/100/100
f 101/101/101 102/102/102 100/100/100
f 100/100/100 102/102/102 103/103/103
f 104/104/104 100/100/100 103/103/103
f 104/104/104 103/103/103 105/105/105
f 106/106/106 104/104/104 105/105/105
f 107/107/107 106/106/106 105/105/105
f 108/108/108 107/107/107 105/105/105
f 109/109/109 107/107/107 108/108/108
f 110/110/110 109/109/109 108/108/108
f 113/113/113 112/112/112 111/111/111
f 114/114/114 113/113/113 111/111/111
f 117/117/117 116/116/116 115/115/115
f 118/118/118 117/117/117 115/115/115
f 121/121/121 120/120/120 119/119/119
f 120/120/120 122/122/122 119/119/119
f 123/123/123 121/121/121 119/119/119
f 122/122/122 124/124/124 119/119/119
f 123/123/123 125/125/125 121/121/121
f 125/125/125 126/126/126 121/121/121
f 122/122/122 127/127/127 124/124/124
f 127/127/127 128/128/128 124/124/124
f 129/129/129 128/128/128 127/127/127
f 130/130/130 129/129/129 127/127/127
f 131/131/131 129/129/129 130/130/130
f 132/132/132 131/131/131 130/130/130
f 125/125/125 133/133/133 126/126/126
f 133/133/133 131/131/131 132/132/132
f 133/133/133 134/134/134 126/126/126
f 134/134/134 133/133/133 132/132/132
