g staff_arcane_001_crystal1
v 0.2748345 -0.1093904 -0.04998817
v 0.2573715 -0.1388189 -0.05518843
v 0.2321752 -0.1211054 0.005783902
v 0.2483452 -0.1064875 -0.07934929
v 0.2453908 -0.09924907 -0.05390872
v 0.2150878 -0.1280844 -0.05011679
v 0.2573715 -0.1388189 -0.05518843
v 0.2150878 -0.1280844 -0.05011679
v 0.2321752 -0.1211054 0.005783902
v 0.2748345 -0.1093904 -0.04998817
v 0.2321752 -0.1211054 0.005783902
v 0.2453908 -0.09924907 -0.05390872
v 0.2150878 -0.1280844 -0.05011679
v 0.2453908 -0.09924907 -0.05390872
v 0.2321752 -0.1211054 0.005783902
v 0.2573715 -0.1388189 -0.05518843
v 0.2319761 -0.132416 -0.1464026
v 0.2150878 -0.1280844 -0.05011679
v 0.2573715 -0.1388189 -0.05518843
v 0.2748345 -0.1093904 -0.04998817
v 0.2483452 -0.1064875 -0.07934929
v 0.2748345 -0.1093904 -0.04998817
v 0.2453908 -0.09924907 -0.05390872
v 0.2483452 -0.1064875 -0.07934929
v 0.2573715 -0.1388189 -0.05518843
v 0.2483452 -0.1064875 -0.07934929
v 0.2319761 -0.132416 -0.1464026
v 0.2319761 -0.132416 -0.1464026
v 0.2483452 -0.1064875 -0.07934929
v 0.2150878 -0.1280844 -0.05011679
v -0.03716461 -0.1084291 0.2608552
v -0.03920809 -0.1432192 0.2473945
v -0.05614514 -0.1256029 0.2947903
v -0.05841763 -0.1073534 0.2170795
v -0.07492394 -0.127556 0.2250159
v -0.05614514 -0.1256029 0.1736605
v -0.03920809 -0.1432192 0.2473945
v -0.07512564 -0.1427729 0.2546091
v -0.05614514 -0.1256029 0.2947903
v -0.03716461 -0.1084291 0.2608552
v -0.05614514 -0.1256029 0.2947903
v -0.07308216 -0.1079828 0.2680694
v -0.07512564 -0.1427729 0.2546091
v -0.07308216 -0.1079828 0.2680694
v -0.05614514 -0.1256029 0.2947903
v -0.05387259 -0.1438486 0.2289702
v -0.05614514 -0.1256029 0.1736605
v -0.07492394 -0.127556 0.2250159
v -0.03736631 -0.123646 0.2210336
v -0.05841763 -0.1073534 0.2170795
v -0.05614514 -0.1256029 0.1736605
v -0.05387259 -0.1438486 0.2289702
v -0.03736631 -0.123646 0.2210336
v -0.05614514 -0.1256029 0.1736605
v -0.03736631 -0.123646 0.2210336
v -0.03716461 -0.1084291 0.2608552
v -0.07308216 -0.1079828 0.2680694
v -0.05841763 -0.1073534 0.2170795
v -0.03920809 -0.1432192 0.2473945
v -0.05387259 -0.1438486 0.2289702
v -0.07492394 -0.127556 0.2250159
v -0.07512564 -0.1427729 0.2546091
v -0.05841763 -0.1073534 0.2170795
v -0.07308216 -0.1079828 0.2680694
v -0.07512564 -0.1427729 0.2546091
v -0.07492394 -0.127556 0.2250159
v -0.05387259 -0.1438486 0.2289702
v -0.03920809 -0.1432192 0.2473945
v -0.03716461 -0.1084291 0.2608552
v -0.03736631 -0.123646 0.2210336
vt 0.05267359 0.5363088
vt 0.05236292 0.5327271
vt 0.05873021 0.529018
vt 0.04911131 0.532877
vt 0.05285692 0.5253089
vt 0.05254626 0.5217272
vt 0.05236292 0.5327271
vt 0.05254626 0.5217272
vt 0.05873021 0.529018
vt 0.05267359 0.5363088
vt 0.05873021 0.529018
vt 0.05285692 0.5253089
vt 0.05254626 0.5217272
vt 0.05285692 0.5253089
vt 0.05873021 0.529018
vt 0.05236292 0.5327271
vt 0.04510549 0.529018
vt 0.05254626 0.5217272
vt 0.05236292 0.5327271
vt 0.05267359 0.5363088
vt 0.04911131 0.532877
vt 0.05267359 0.5363088
vt 0.05285692 0.5253089
vt 0.04911131 0.532877
vt 0.05236292 0.5327271
vt 0.04911131 0.532877
vt 0.04510549 0.529018
vt 0.04510549 0.529018
vt 0.04911131 0.532877
vt 0.05254626 0.5217272
vt 0.05491314 0.5363477
vt 0.05339911 0.5355586
vt 0.05873021 0.529018
vt 0.04998922 0.5281404
vt 0.05088192 0.5217661
vt 0.04510549 0.529018
vt 0.05339911 0.5355586
vt 0.0542106 0.5216882
vt 0.05873021 0.529018
vt 0.05491314 0.5363477
vt 0.05873021 0.529018
vt 0.05572462 0.5224774
vt 0.0542106 0.5216882
vt 0.05572462 0.5224774
vt 0.05873021 0.529018
vt 0.05132672 0.5298955
vt 0.04510549 0.529018
vt 0.05088192 0.5217661
vt 0.05043404 0.5362698
vt 0.04998922 0.5281404
vt 0.04510549 0.529018
vt 0.05132672 0.5298955
vt 0.05043404 0.5362698
vt 0.04510549 0.529018
vt 0.05043404 0.5362698
vt 0.05491314 0.5363477
vt 0.05572462 0.5224774
vt 0.04998922 0.5281404
vt 0.05339911 0.5355586
vt 0.05132672 0.5298955
vt 0.05088192 0.5217661
vt 0.0542106 0.5216882
vt 0.04998922 0.5281404
vt 0.05572462 0.5224774
vt 0.0542106 0.5216882
vt 0.05088192 0.5217661
vt 0.05132672 0.5298955
vt 0.05339911 0.5355586
vt 0.05491314 0.5363477
vt 0.05043404 0.5362698
vn 0.7303763 -0.5130841 0.4508826
vn 0.7303762 -0.5130841 0.4508826
vn 0.7303763 -0.5130841 0.4508826
vn -0.6809353 0.6797636 -0.2724861
vn -0.6809352 0.6797636 -0.2724861
vn -0.6809353 0.6797636 -0.2724861
vn -0.2206007 -0.9572809 0.1869455
vn -0.2206007 -0.9572809 0.1869455
vn -0.2206007 -0.9572809 0.1869455
vn 0.2551414 0.8883502 0.3817547
vn 0.2551414 0.8883502 0.3817546
vn 0.2551414 0.8883502 0.3817546
vn -0.6770041 0.7267463 0.1162121
vn -0.6770042 0.7267463 0.1162121
vn -0.6770042 0.7267463 0.1162121
vn -0.2460122 -0.9692666 0.0004539911
vn -0.2460122 -0.9692666 0.0004539911
vn -0.2460122 -0.9692666 0.0004539911
vn 0.6944256 -0.2961877 -0.6557789
vn 0.6944256 -0.2961877 -0.6557789
vn 0.6944256 -0.2961877 -0.6557789
vn 0.3437311 0.9129725 -0.2198415
vn 0.3437311 0.9129725 -0.2198415
vn 0.3437311 0.9129725 -0.2198415
vn 0.9621422 0.07221979 -0.2628054
vn 0.9621422 0.0722198 -0.2628054
vn 0.9621422 0.0722198 -0.2628054
vn -0.6249325 0.7672591 -0.1441286
vn -0.6249325 0.7672591 -0.1441286
vn -0.6249324 0.7672591 -0.1441286
vn 0.8947574 -0.2058741 0.3962637
vn 0.8947574 -0.2058741 0.3962637
vn 0.8947574 -0.2058741 0.3962636
vn -0.794881 0.543385 -0.2699942
vn -0.794881 0.543385 -0.2699942
vn -0.794881 0.543385 -0.2699942
vn 0.06221984 -0.9280654 0.3671828
vn 0.06221984 -0.9280654 0.3671828
vn 0.06221985 -0.9280654 0.3671828
vn 0.110578 0.8604887 0.4973246
vn 0.110578 0.8604887 0.4973246
vn 0.110578 0.8604887 0.4973246
vn -0.8739598 -0.1298615 0.4683271
vn -0.8739598 -0.1298615 0.4683271
vn -0.8739598 -0.1298615 0.4683271
vn -0.5663506 -0.789319 -0.2371128
vn -0.5663505 -0.789319 -0.2371128
vn -0.5663505 -0.789319 -0.2371128
vn 0.6201556 0.7342628 -0.2761613
vn 0.6201555 0.7342628 -0.2761613
vn 0.6201556 0.7342629 -0.2761613
vn 0.6995166 -0.6695977 -0.2496306
vn 0.6995166 -0.6695977 -0.2496305
vn 0.6995166 -0.6695977 -0.2496305
vn 0.274418 0.9553267 -0.1097533
vn 0.274418 0.9553267 -0.1097534
vn 0.2744179 0.9553267 -0.1097533
vn 0.274418 0.9553267 -0.1097533
vn -0.286735 -0.9372486 -0.198364
vn -0.2867349 -0.9372486 -0.198364
vn -0.286735 -0.9372486 -0.198364
vn -0.2867349 -0.9372486 -0.198364
vn -0.9385672 0.3275151 -0.1087457
vn -0.9385672 0.3275151 -0.1087456
vn -0.9385672 0.3275151 -0.1087456
vn -0.9385672 0.3275151 -0.1087456
vn 0.9403392 -0.3013129 -0.1580278
vn 0.9403392 -0.3013129 -0.1580278
vn 0.9403392 -0.3013129 -0.1580278
vn 0.9403392 -0.3013129 -0.1580278
g staff_arcane_001_crystal1_0
f 3/3/3 2/2/2 1/1/1
f 6/6/6 5/5/5 4/4/4
f 9/9/9 8/8/8 7/7/7
f 12/12/12 11/11/11 10/10/10
f 15/15/15 14/14/14 13/13/13
f 18/18/18 17/17/17 16/16/16
f 21/21/21 20/20/20 19/19/19
f 24/24/24 23/23/23 22/22/22
f 27/27/27 26/26/26 25/25/25
f 30/30/30 29/29/29 28/28/28
f 33/33/33 32/32/32 31/31/31
f 36/36/36 35/35/35 34/34/34
f 39/39/39 38/38/38 37/37/37
f 42/42/42 41/41/41 40/40/40
f 45/45/45 44/44/44 43/43/43
f 48/48/48 47/47/47 46/46/46
f 51/51/51 50/50/50 49/49/49
f 54/54/54 53/53/53 52/52/52
f 57/57/57 56/56/56 55/55/55
f 58/58/58 57/57/57 55/55/55
f 61/61/61 60/60/60 59/59/59
f 62/62/62 61/61/61 59/59/59
f 65/65/65 64/64/64 63/63/63
f 66/66/66 65/65/65 63/63/63
f 69/69/69 68/68/68 67/67/67
f 70/70/70 69/69/69 67/67/67
