g steed_blink
v 0.5493368 0.3322575 0.5122851
v 0.5794883 0.3360918 0.4513372
v 0.7214723 0.2688214 0.4051357
v 0.6458039 0.280298 0.4351956
v 0.707465 0.3315146 0.4343045
v 0.7748816 0.2944446 0.3381839
v 0.5529435 0.360847 -0.5074598
v 0.579488 0.3360916 -0.4513377
v 0.721472 0.2688214 -0.4051362
v 0.6458037 0.280298 -0.435196
v 0.7236552 0.334136 -0.4294757
v 0.7748814 0.2944446 -0.3381854
v 0.7524827 0.399443 -0.2064687
v 0.7239048 0.5427214 -0.1958258
v 0.7908565 0.3253821 -0.2618886
v 0.5566972 0.4468617 -0.4216028
v 0.8349718 0.2766577 -0.2017841
v 0.7086073 0.1811631 -0.3662072
v 0.5771992 0.1700392 -0.4096335
v 0.791124 0.2053447 -0.2897707
v 0.4590842 0.3033855 -0.4188185
v 0.6385187 0.5307057 -0.3407854
v 0.7524828 0.399443 0.2064682
v 0.723905 0.5427215 0.1958252
v 0.7908567 0.3253821 0.2618881
v 0.5566975 0.4468617 0.4216025
v 0.8349719 0.2766577 0.2017835
v 0.7086075 0.1811631 0.3662067
v 0.5771995 0.1700392 0.4096321
v 0.7911242 0.2053447 0.2897702
v 0.4590845 0.3033855 0.4188181
v 0.6382058 0.5309865 0.3482153
v 0.6130021 0.3693721 0.4622848
v 0.6707195 0.4151728 0.4513996
v 0.7074676 0.4525905 0.4166741
v 0.7433882 0.4801447 0.3573921
v 0.7691796 0.4676095 0.2764621
v 0.7685104 0.4327497 0.2283453
v 0.7685102 0.4327497 -0.2283459
v 0.7691793 0.4676095 -0.2764632
v 0.7435445 0.4800045 -0.353678
v 0.7076237 0.4524503 -0.4129593
v 0.6707192 0.4151727 -0.4514
v 0.6130018 0.3693721 -0.4622853
v 0.5493368 0.3322575 0.5122851
v 0.6458039 0.280298 0.4351956
v 0.5529435 0.360847 -0.5074598
v 0.6458037 0.280298 -0.435196
v 0.7748814 0.2944446 -0.3381854
v 0.721472 0.2688214 -0.4051362
v 0.6458037 0.280298 -0.435196
v 0.579488 0.3360916 -0.4513377
v 0.7239048 0.5427214 -0.1958258
v 0.7076237 0.4524503 -0.4129593
v 0.7214723 0.2688214 0.4051357
v 0.7748816 0.2944446 0.3381839
v 0.6458039 0.280298 0.4351956
v 0.5794883 0.3360918 0.4513372
v 0.723905 0.5427215 0.1958252
v 0.7074676 0.4525905 0.4166741
v 0.723905 0.5427215 0.1958252
v 0.6458039 0.280298 0.4351956
v 0.7214723 0.2688214 0.4051357
v 0.7074676 0.4525905 0.4166741
v 0.7748816 0.2944446 0.3381839
v 0.7908567 0.3253821 0.2618881
v 0.7908565 0.3253821 -0.2618886
v 0.7748814 0.2944446 -0.3381854
v 0.721472 0.2688214 -0.4051362
v 0.7076237 0.4524503 -0.4129593
v 0.6458037 0.280298 -0.435196
v 0.7239048 0.5427214 -0.1958258
vt 0.9800653 0.667345
vt 0.9902315 0.667345
vt 0.9864844 0.6869575
vt 0.9871886 0.6771927
vt 0.9836243 0.6879601
vt 0.9888815 0.6979444
vt 0.9800653 0.667345
vt 0.9902315 0.667345
vt 0.9864844 0.6869575
vt 0.9871886 0.6771927
vt 0.9836243 0.6879601
vt 0.9888815 0.6979444
vt 0.6938255 0.4011961
vt 0.688085 0.4197004
vt 0.7194569 0.3976485
vt 0.7973522 0.4234473
vt 0.7224776 0.3710852
vt 0.7914511 0.3735543
vt 0.8269843 0.3859214
vt 0.7581895 0.3659351
vt 0.8336287 0.4065826
vt 0.7695385 0.4330302
vt 0.6938255 0.4011961
vt 0.688085 0.4197004
vt 0.7194569 0.3976485
vt 0.7973522 0.4234473
vt 0.7224776 0.3710852
vt 0.7914511 0.3735543
vt 0.8269843 0.3859214
vt 0.7581895 0.3659351
vt 0.8336287 0.4065826
vt 0.7695385 0.4330302
vt 0.8015316 0.4138915
vt 0.7907224 0.4182534
vt 0.7717722 0.421818
vt 0.7446319 0.4226359
vt 0.7144009 0.4170614
vt 0.7001249 0.4107913
vt 0.7001249 0.4107913
vt 0.7144009 0.4170614
vt 0.7446319 0.4226359
vt 0.7717722 0.421818
vt 0.7907224 0.4182534
vt 0.8015316 0.4138915
vt 0.9800653 0.667345
vt 0.9871886 0.6771927
vt 0.9800653 0.667345
vt 0.9871886 0.6771927
vt 0.7481873 0.3976485
vt 0.78131 0.3976485
vt 0.8044251 0.3976485
vt 0.8175975 0.4005931
vt 0.688085 0.4197004
vt 0.7717722 0.421818
vt 0.78131 0.3976485
vt 0.7481873 0.3976485
vt 0.8044251 0.3976485
vt 0.8175975 0.4005931
vt 0.688085 0.4197004
vt 0.7717722 0.421818
vt 0.688085 0.4197004
vt 0.805711 0.4043357
vt 0.7780951 0.4043357
vt 0.7717722 0.421818
vt 0.7355371 0.4043357
vt 0.714891 0.4043357
vt 0.714891 0.4043357
vt 0.7355371 0.4043357
vt 0.7780951 0.4043357
vt 0.7717722 0.421818
vt 0.805711 0.4043357
vt 0.688085 0.4197004
vn 0.6499699 0.667371 0.3635316
vn 0.6499699 0.667371 0.3635316
vn -0.6059918 0.2727759 -0.7472397
vn 0.6499699 0.667371 0.3635316
vn -0.6059918 0.2727759 -0.7472397
vn -0.7961045 0.09982938 -0.5968683
vn 0.6379741 0.7691433 0.03752011
vn 0.6379741 0.7691433 0.03752011
vn -0.5887932 0.3176468 0.7432517
vn 0.6379741 0.7691433 0.03752011
vn -0.5887932 0.3176468 0.7432517
vn -0.8017468 0.2320455 0.5507786
vn 0.881825 0.2347213 0.4090118
vn 0.8201877 0.5560312 0.1346161
vn 0.97706 0.21154 -0.02459032
vn -0.2237465 0.3691594 -0.9020305
vn 0.8994312 0.3307957 -0.285653
vn 0.5428398 -0.3579942 -0.7597138
vn 0.09800667 -0.3323681 -0.9380438
vn 0.8529656 -0.09876659 -0.5125377
vn -0.2148628 -0.02685082 -0.976275
vn 0.2436502 0.806306 -0.5389852
vn 0.8818241 0.2347205 -0.409014
vn 0.8217875 0.552742 -0.138353
vn 0.97706 0.2115399 0.0245903
vn -0.2270001 0.3600453 0.9048968
vn 0.899431 0.3307959 0.2856536
vn 0.5428399 -0.3579939 0.7597139
vn 0.09800487 -0.3323719 0.9380426
vn 0.8529659 -0.09876426 0.5125376
vn -0.2148624 -0.02685377 0.976275
vn 0.2484749 0.7974084 0.5499092
vn -0.0696006 0.01703193 0.9974295
vn 0.2481419 0.2489901 0.9361781
vn 0.5149926 0.4235918 0.7452198
vn 0.7257601 0.5469815 0.4172332
vn 0.9463404 0.312637 0.08184104
vn 0.9197265 0.1403956 -0.3665956
vn 0.9197271 0.1403964 0.3665937
vn 0.9453091 0.3146682 -0.08587496
vn 0.7178346 0.5534982 -0.4223188
vn 0.5219035 0.4422285 -0.7294181
vn 0.2621198 0.2639045 -0.9282498
vn -0.06960084 0.0170325 -0.9974294
vn -0.3621491 0.4215368 -0.8313572
vn -0.3621491 0.4215368 -0.8313572
vn -0.3230114 0.374748 0.8690382
vn -0.3230114 0.374748 0.8690382
vn 0.9097146 0.02943018 -0.4141901
vn 0.6079171 -0.1639501 -0.7768894
vn 0.1287512 -0.2857307 -0.9496216
vn -0.2267477 -0.05218858 -0.9725543
vn 0.8842824 0.3754148 0.2776839
vn 0.3853037 0.5573953 -0.7354261
vn 0.6018854 -0.1695429 0.7803776
vn 0.9110075 0.02647781 0.4115388
vn 0.1287502 -0.2857327 0.9496211
vn -0.2267474 -0.05219031 0.9725542
vn 0.8845063 0.3737792 -0.2791734
vn 0.3747185 0.5363726 0.7562344
vn 0.755401 0.6510813 0.07391018
vn 0.1287502 -0.2857327 0.9496211
vn 0.6018854 -0.1695429 0.7803776
vn 0.6627644 0.3015758 0.6854162
vn 0.9110075 0.02647781 0.4115388
vn 0.97706 0.2115399 0.0245903
vn 0.97706 0.21154 -0.02459032
vn 0.9097146 0.02943018 -0.4141901
vn 0.6079171 -0.1639501 -0.7768894
vn 0.6663224 0.3154805 -0.6756378
vn 0.1287512 -0.2857307 -0.9496216
vn 0.7519059 0.6544861 -0.07928182
g steed_blink_0
f 4/4/4 2/2/2 1/1/1
f 8/8/8 10/10/10 7/7/7
f 6/6/6 3/3/3 5/5/5
f 5/5/5 3/3/3 45/45/45
f 3/3/3 46/46/46 45/45/45
f 9/9/9 12/12/12 11/11/11
f 9/9/9 11/11/11 47/47/47
f 48/48/48 9/9/9 47/47/47
f 53/53/53 13/13/13 39/39/39
f 39/39/39 13/13/13 67/67/67
f 40/40/40 39/39/39 67/67/67
f 40/40/40 14/14/14 39/39/39
f 68/68/68 40/40/40 67/67/67
f 14/14/14 40/40/40 41/41/41
f 40/40/40 68/68/68 41/41/41
f 41/41/41 68/68/68 69/69/69
f 70/70/70 41/41/41 69/69/69
f 15/15/15 13/13/13 17/17/17
f 15/15/15 17/17/17 20/20/20
f 49/49/49 15/15/15 20/20/20
f 49/49/49 20/20/20 18/18/18
f 50/50/50 49/49/49 18/18/18
f 50/50/50 18/18/18 19/19/19
f 51/51/51 50/50/50 19/19/19
f 51/51/51 19/19/19 52/52/52
f 19/19/19 21/21/21 52/52/52
f 16/16/16 52/52/52 21/21/21
f 16/16/16 44/44/44 52/52/52
f 44/44/44 71/71/71 52/52/52
f 44/44/44 43/43/43 71/71/71
f 16/16/16 43/43/43 44/44/44
f 43/43/43 69/69/69 71/71/71
f 42/42/42 69/69/69 43/43/43
f 54/54/54 43/43/43 16/16/16
f 22/22/22 54/54/54 16/16/16
f 22/22/22 41/41/41 42/42/42
f 72/72/72 41/41/41 22/22/22
f 23/23/23 59/59/59 38/38/38
f 23/23/23 38/38/38 66/66/66
f 38/38/38 37/37/37 66/66/66
f 24/24/24 37/37/37 38/38/38
f 37/37/37 65/65/65 66/66/66
f 36/36/36 37/37/37 24/24/24
f 36/36/36 65/65/65 37/37/37
f 65/65/65 36/36/36 63/63/63
f 36/36/36 64/64/64 63/63/63
f 23/23/23 25/25/25 27/27/27
f 27/27/27 25/25/25 30/30/30
f 25/25/25 56/56/56 30/30/30
f 30/30/30 56/56/56 28/28/28
f 56/56/56 55/55/55 28/28/28
f 28/28/28 55/55/55 29/29/29
f 55/55/55 57/57/57 29/29/29
f 29/29/29 57/57/57 58/58/58
f 31/31/31 29/29/29 58/58/58
f 58/58/58 26/26/26 31/31/31
f 33/33/33 26/26/26 58/58/58
f 62/62/62 33/33/33 58/58/58
f 34/34/34 33/33/33 62/62/62
f 34/34/34 26/26/26 33/33/33
f 63/63/63 34/34/34 62/62/62
f 34/34/34 63/63/63 35/35/35
f 34/34/34 60/60/60 26/26/26
f 60/60/60 32/32/32 26/26/26
f 36/36/36 32/32/32 35/35/35
f 32/32/32 36/36/36 61/61/61
