g succubus_tier2_head
v 0 1.807146 0.2368556
v 0.06528538 1.72835 0.1681558
v 0.0456109 1.820409 0.1863923
v 0 1.820409 0.1023379
v 0 1.743566 0.1465379
v 0.1786082 1.851355 0.04265749
v 0.1288259 1.876109 0.07523569
v 0.07178789 1.831158 -0.04267001
v 0.1949515 2.085664 -0.1743789
v 0.1685138 2.092222 -0.1577987
v 0.172373 2.076504 -0.2076492
v 0.1053723 2.280934 -0.226112
v 0 2.013056 0.1003222
v 0.02395332 2.013056 0.06027025
v 0 2.013056 0.02980012
v 0 2.119223 0.08394891
v 0.2066505 1.927921 -0.04984677
v 0.1577328 1.945178 -0.0163542
v 0.1218926 1.887541 -0.1052349
v 0.2129061 1.997778 -0.1195695
v 0.1686116 2.014506 -0.1011971
v 0.1639758 1.974827 -0.1657753
v 0.1393062 1.792478 0.1133331
v 0.09005731 1.841904 0.1438325
v 0.04024315 1.825636 -0.01759422
v 0 1.768891 -0.06233466
v 0 1.978654 -0.09324467
v 0.02029049 1.963265 -0.120779
v 0 1.925861 -0.1572719
v 0 2.083118 -0.1257153
v 0.068308 1.751265 -0.07344055
v 0 1.681041 -0.1344345
v 0.04621738 1.716717 -0.09537315
v 0 1.920943 -0.2989707
v 0 1.790408 -0.2852898
v 0.01867616 1.820711 -0.2690673
v 0 1.834396 -0.2398961
v 0.1595974 2.16733 -0.2201491
v 0.1483996 2.174423 -0.1960183
v 0.09567764 2.137398 -0.2274216
v -0.06528538 1.72835 0.1681558
v -0.0456109 1.820409 0.1863923
v -0.1786082 1.851355 0.04265749
v -0.1288259 1.876109 0.07523569
v -0.07178789 1.831158 -0.04267001
v -0.1949515 2.085664 -0.1743789
v -0.1685138 2.092222 -0.1577987
v -0.172373 2.076504 -0.2076492
v -0.1053723 2.280934 -0.226112
v -0.02395332 2.013056 0.06027025
v -0.2066505 1.927921 -0.04984677
v -0.1577328 1.945178 -0.0163542
v -0.1218926 1.887541 -0.1052349
v -0.2129061 1.997778 -0.1195695
v -0.1686116 2.014506 -0.1011971
v -0.1639758 1.974827 -0.1657753
v -0.1393062 1.792478 0.1133331
v -0.09005731 1.841904 0.1438325
v -0.04024315 1.825636 -0.01759422
v -0.02029049 1.963265 -0.120779
v -0.068308 1.751265 -0.07344055
v -0.04621738 1.716717 -0.09537315
v -0.01867616 1.820711 -0.2690673
v -0.1595974 2.16733 -0.2201491
v -0.1483996 2.174423 -0.1960183
v -0.09567764 2.137398 -0.2274216
v 0 1.882463 0.186915
v 0.01933216 1.812768 0.2154668
v 0.05667841 1.768623 0.1761337
v -0.05676713 1.768208 0.1760515
v -0.02234504 1.813643 0.2121333
v 0.0456109 1.820409 0.1863923
v 0.07178789 1.831158 -0.04267001
v 0.1288259 1.876109 0.07523569
v 0.1483996 2.174423 -0.1960183
v 0.0456109 1.820409 0.1863923
v 0.02395332 2.013056 0.06027025
v 0 2.119223 0.08394891
v 0.1577328 1.945178 -0.0163542
v 0.1685138 2.092222 -0.1577987
v 0.1686116 2.014506 -0.1011971
v 0.04024315 1.825636 -0.01759422
v 0 1.768891 -0.06233466
v 0 1.925861 -0.1572719
v 0 1.820409 0.1023379
v 0 1.978654 -0.09324467
v 0.02029049 1.963265 -0.120779
v 0 2.083118 -0.1257153
v 0 2.083118 -0.1257153
v 0 1.820409 0.1023379
v 0.02029049 1.963265 -0.120779
v 0.04024315 1.825636 -0.01759422
v 0 1.820409 0.1023379
v 0 1.768891 -0.06233466
v 0.04024315 1.825636 -0.01759422
v 0.04024315 1.825636 -0.01759422
v 0.07178789 1.831158 -0.04267001
v 0 1.768891 -0.06233466
v 0.04621738 1.716717 -0.09537315
v 0.01867616 1.820711 -0.2690673
v 0.04621738 1.716717 -0.09537315
v 0 1.920943 -0.2989707
v 0.1053723 2.280934 -0.226112
v 0.1685138 2.092222 -0.1577987
v 0.172373 2.076504 -0.2076492
v 0.1949515 2.085664 -0.1743789
v 0.1595974 2.16733 -0.2201491
v 0.09567764 2.137398 -0.2274216
v 0.1053723 2.280934 -0.226112
v 0.09005731 1.841904 0.1438325
v 0 1.807146 0.2368556
v -0.06528538 1.72835 0.1681558
v -0.07178789 1.831158 -0.04267001
v -0.1288259 1.876109 0.07523569
v -0.1483996 2.174423 -0.1960183
v -0.05676713 1.768208 0.1760515
v -0.0456109 1.820409 0.1863923
v -0.0456109 1.820409 0.1863923
v 0 1.820409 0.1023379
v 0 2.013056 0.02980012
v 0 2.013056 0.1003222
v -0.02395332 2.013056 0.06027025
v 0 2.119223 0.08394891
v 0 2.119223 0.08394891
v 0 1.882463 0.186915
v -0.1577328 1.945178 -0.0163542
v -0.1686116 2.014506 -0.1011971
v -0.1685138 2.092222 -0.1577987
v -0.1393062 1.792478 0.1133331
v -0.04024315 1.825636 -0.01759422
v 0 1.768891 -0.06233466
v 0 1.925861 -0.1572719
v 0 1.768891 -0.06233466
v 0 1.820409 0.1023379
v 0 1.978654 -0.09324467
v 0 1.925861 -0.1572719
v 0 1.978654 -0.09324467
v -0.02029049 1.963265 -0.120779
v 0 2.083118 -0.1257153
v 0 2.083118 -0.1257153
v 0 2.083118 -0.1257153
v -0.02029049 1.963265 -0.120779
v 0 1.820409 0.1023379
v -0.04024315 1.825636 -0.01759422
v 0 1.768891 -0.06233466
v -0.04024315 1.825636 -0.01759422
v -0.04024315 1.825636 -0.01759422
v -0.07178789 1.831158 -0.04267001
v 0 1.768891 -0.06233466
v -0.04621738 1.716717 -0.09537315
v 0 1.834396 -0.2398961
v -0.01867616 1.820711 -0.2690673
v -0.04621738 1.716717 -0.09537315
v 0 1.681041 -0.1344345
v 0 1.790408 -0.2852898
v 0 1.920943 -0.2989707
v 0 1.920943 -0.2989707
v -0.1053723 2.280934 -0.226112
v -0.1685138 2.092222 -0.1577987
v -0.172373 2.076504 -0.2076492
v -0.09567764 2.137398 -0.2274216
v -0.1595974 2.16733 -0.2201491
v -0.1949515 2.085664 -0.1743789
v -0.1053723 2.280934 -0.226112
v -0.09005731 1.841904 0.1438325
v 0.01933216 1.812768 0.2154668
v 0 1.807146 0.2368556
v 0 1.882463 0.186915
v 0.05667841 1.768623 0.1761337
v 0.06528538 1.72835 0.1681558
v 0 1.807146 0.2368556
v 0.01933216 1.812768 0.2154668
v 0.1393062 1.792478 0.1133331
v -0.02234504 1.813643 0.2121333
v 0 1.807146 0.2368556
v 0 1.882463 0.186915
v 0 1.807146 0.2368556
v -0.1685138 2.092222 -0.1577987
v -0.09567764 2.137398 -0.2274216
v 0.09567764 2.137398 -0.2274216
v 0.1685138 2.092222 -0.1577987
vt 0.4399665 0.0655061
vt 0.475999 0.05608338
vt 0.403396 0.03262237
vt 0.3860584 0.06953929
vt 0.4399665 0.05959905
vt 0.4707962 0.005910033
vt 0.4707114 0.01780319
vt 0.4672136 0.007246524
vt 0.4501502 0.01256227
vt 0.4519958 0.01824957
vt 0.391503 0.006867059
vt 0.3735913 0.01813026
vt 0.4801773 0.03786202
vt 0.3871064 0.05882987
vt 0.3860584 0.05882987
vt 0.5002919 0.03796076
vt 0.45798 0.006628469
vt 0.4569777 0.01743208
vt 0.4412093 0.008416565
vt 0.4372779 0.007835368
vt 0.4362249 0.01551432
vt 0.4013507 0.007644169
vt 0.4523037 0.009456964
vt 0.4558636 0.02096805
vt 0.4348522 0.007109754
vt 0.3988643 0.0326938
vt 0.4688432 0.04965323
vt 0.4014214 0.04349925
vt 0.4030181 0.04141991
vt 0.5015757 0.04652704
vt 0.4358145 0.04277138
vt 0.3786435 0.05299068
vt 0.4281349 0.03218158
vt 0.3858425 0.0663271
vt 0.3852439 0.05907046
vt 0.4777527 0.02561499
vt 0.476251 0.02650995
vt 0.4681551 0.01245244
vt 0.4708461 0.01851549
vt 0.3824145 0.00622686
vt 0.475999 0.05608338
vt 0.403396 0.03262237
vt 0.4576996 0.01199616
vt 0.4576147 0.02388931
vt 0.4672136 0.007246524
vt 0.4457687 0.03577417
vt 0.4430284 0.04146147
vt 0.4445929 0.006867059
vt 0.4934717 0.01813026
vt 0.476262 0.02627384
vt 0.4448833 0.0127146
vt 0.443881 0.02351821
vt 0.4412093 0.008416565
vt 0.4241812 0.0139215
vt 0.4231282 0.02160045
vt 0.4013507 0.007644169
vt 0.2839289 0.1870057
vt 0.4673578 0.02368137
vt 0.4348522 0.007109754
vt 0.4757217 0.03161689
vt 0.4570892 0.06482434
vt 0.455952 0.0670839
vt 0.451808 0.04818684
vt 0.4553696 0.04337093
vt 0.4523005 0.04943398
vt 0.4530583 0.00622686
vt 0.4518924 0.02080576
vt 0.4330678 0.01280144
vt 0.4439746 0.01175574
vt 0.304239 0.1905361
vt 0.4736895 0.02552961
vt 0.4296532 0.01529244
vt 0.4672136 0.007246524
vt 0.4716256 0.0280413
vt 0.3809103 0.01429062
vt 0.3880541 0.06953929
vt 0.4812918 0.04728513
vt 0.3860584 0.05292793
vt 0.4407561 0.024653
vt 0.3859874 0.01592438
vt 0.4003721 0.01868089
vt 0.3969068 0.03584831
vt 0.4704342 0.035934
vt 0.4655474 0.04620039
vt 0.478911 0.03930348
vt 0.4781988 0.02773217
vt 0.4802065 0.02041526
vt 0.4016374 0.05016204
vt 0.4671716 0.05648559
vt 0.4088437 0.01805068
vt 0.4802065 0.02041526
vt 0.4392184 0.004154461
vt 0.418092 0.019864
vt 0.4260949 0.03218161
vt 0.4343699 0.03790723
vt 0.4343699 0.03790723
vt 0.4572684 0.05959904
vt 0.4260949 0.03218161
vt 0.4281349 0.03218158
vt 0.3845341 0.06075508
vt 0.3769345 0.05497388
vt 0.4792919 0.03217055
vt 0.486151 0.01511595
vt 0.3859874 0.01592438
vt 0.4401387 0.06679469
vt 0.4414622 0.06566387
vt 0.4402606 0.05966389
vt 0.4391944 0.06060529
vt 0.4376657 0.05495238
vt 0.4498788 0.03036174
vt 0.4399665 0.0655061
vt 0.3084939 0.1861289
vt 0.4672136 0.007246524
vt 0.4716256 0.0280413
vt 0.4515541 0.01429062
vt 0.4733154 0.01712296
vt 0.4760365 0.02773501
vt 0.4297104 0.04113589
vt 0.4329338 0.04370253
vt 0.4779549 0.0276217
vt 0.4227153 0.04083479
vt 0.4238298 0.0502579
vt 0.4049507 0.03418792
vt 0.4855454 0.01808868
vt 0.4321594 0.02688887
vt 0.4407561 0.024653
vt 0.4003721 0.01868089
vt 0.4390773 0.01592438
vt 0.4637979 0.01217029
vt 0.427342 0.02384778
vt 0.4264468 0.01623485
vt 0.4756264 0.02620473
vt 0.4704342 0.035934
vt 0.478911 0.03930348
vt 0.4688432 0.04965323
vt 0.4655474 0.04620039
vt 0.4617016 0.03520099
vt 0.4654855 0.03251391
vt 0.4661639 0.05344121
vt 0.4846398 0.0421011
vt 0.4671716 0.05648559
vt 0.4654855 0.03251391
vt 0.4348236 0.00757025
vt 0.4513054 0.008482877
vt 0.4535729 0.06367153
vt 0.4556445 0.05996019
vt 0.4556445 0.05996019
vt 0.4572684 0.05959904
vt 0.4411662 0.0447976
vt 0.442867 0.04138517
vt 0.4503063 0.0490818
vt 0.4734917 0.02438956
vt 0.4225338 0.02360815
vt 0.4227436 0.01820684
vt 0.4724715 0.02075565
vt 0.4827714 0.03170697
vt 0.4533473 0.0547424
vt 0.4879032 0.07514824
vt 0.4390773 0.01592438
vt 0.4401387 0.06679469
vt 0.4391944 0.06060529
vt 0.4402606 0.05966389
vt 0.4414622 0.06566387
vt 0.4376657 0.05495238
vt 0.4498788 0.03036174
vt 0.2468689 0.1908242
vt 0.2486596 0.189518
vt 0.2612576 0.1974998
vt 0.2727461 0.1916951
vt 0.2806853 0.1897345
vt 0.2496293 0.1904877
vt 0.2478387 0.191794
vt 0.2615508 0.1894099
vt 0.2830687 0.1965287
vt 0.2851384 0.1950188
vt 0.256527 0.1974976
vt 0.2851384 0.1950188
vt 0.4390773 0.01592438
vt 0.4530583 0.00622686
vt 0.3824145 0.00622686
vt 0.3859874 0.01592438
vn -0.3048509 -0.6208012 0.7222684
vn -0.3561937 -0.7640762 0.537879
vn -0.2170154 0.9760343 0.01616227
vn 0.9578063 -0.1119856 -0.2647005
vn 0 -0.8177078 0.5756335
vn 0.6511739 0.4439842 0.6155084
vn 0.6511739 0.4439842 0.6155084
vn -0.499906 0.8656027 0.02873904
vn 0.6183225 0.5115846 0.5966226
vn 0.6183225 0.5115846 0.5966226
vn -0.9140788 -0.3938569 0.09662645
vn -0.5258596 0.02776101 0.8501182
vn 0.7955881 0.254624 0.5497328
vn 0.821499 0.04464211 -0.5684596
vn 0.821499 0.04464211 -0.5684596
vn 0.8555518 0.07891063 0.511668
vn 0.5825152 0.5529261 0.5957757
vn 0.5825152 0.5529261 0.5957757
vn -0.8343063 0.5475742 0.06399505
vn 0.5289044 0.5557854 0.6413755
vn 0.5289044 0.5557854 0.6413755
vn -0.9758691 0.2181344 0.009844703
vn 0.6501281 0.1373734 0.7473032
vn 0.6630508 0.219058 0.7158054
vn -0.06760373 0.957004 -0.2820869
vn 0.9711089 -0.1111245 -0.2111843
vn -0.9643591 0.1437978 0.2221121
vn 0.9633667 0.1078317 -0.2455544
vn 0.9663359 -0.02651128 -0.2559143
vn 0.9580134 0.08510607 0.2738012
vn -0.3243937 0.4734399 -0.818916
vn 0.7984393 -0.469766 -0.3765827
vn 0.01788057 0.5816939 -0.8132112
vn 0.7184965 -0.07249875 -0.6917419
vn 0.7847601 -0.2805311 -0.5526789
vn 0.8397321 0.4371847 0.3220553
vn 0.8397321 0.4371847 0.3220553
vn 0.7956852 0.4649151 0.3882512
vn 0.7956852 0.4649151 0.3882512
vn -0.5685545 0.1192247 0.8139602
vn 0.3561937 -0.7640762 0.537879
vn 0.2170154 0.9760343 0.01616227
vn -0.6511739 0.4439842 0.6155084
vn -0.6511739 0.4439842 0.6155084
vn 0.499906 0.8656027 0.02873904
vn -0.6183225 0.5115846 0.5966226
vn -0.6183225 0.5115846 0.5966226
vn 0.9140788 -0.3938569 0.09662645
vn 0.5258596 0.02776101 0.8501182
vn -0.821499 0.04464211 -0.5684596
vn -0.5825152 0.5529261 0.5957757
vn -0.5825152 0.5529261 0.5957757
vn 0.8343063 0.5475742 0.06399505
vn -0.5289044 0.5557854 0.6413755
vn -0.5289044 0.5557854 0.6413755
vn 0.9758691 0.2181344 0.009844703
vn -0.6501164 0.137243 0.7473373
vn -0.663045 0.2188683 0.7158687
vn 0.06760373 0.957004 -0.2820869
vn -0.9633667 0.1078317 -0.2455544
vn 0.3243937 0.4734399 -0.818916
vn -0.01788057 0.5816939 -0.8132112
vn -0.8397321 0.4371847 0.3220553
vn -0.7956852 0.4649151 0.3882512
vn -0.7956852 0.4649151 0.3882512
vn 0.5685545 0.1192247 0.8139602
vn 0.6409426 0.4344671 0.6327962
vn 0.6887046 0.2377301 0.6849602
vn 0.6804851 0.02026784 0.7324815
vn -0.6804693 0.02017023 0.7324989
vn -0.6887046 0.2377297 0.6849602
vn 0.6851594 0.2416777 0.6871306
vn -0.5683496 0.8116867 -0.1346974
vn -0.7563838 0.6520612 0.05195793
vn -0.5685545 0.1192247 0.8139602
vn 0.8347858 -0.2145211 -0.5070636
vn 0.7955881 0.254624 0.5497328
vn 0.7497943 0.3006307 -0.5894317
vn -0.9332666 0.3574527 0.03522662
vn -0.9034365 -0.20008 0.3791707
vn -0.9959434 0.08901757 -0.01313798
vn 0.994054 0.0980586 -0.04734078
vn -0.9885599 0.1325494 -0.07197165
vn -0.9663359 -0.02651127 -0.2559142
vn -0.995721 0.06414773 -0.06651834
vn 0.9643591 0.1437978 0.2221121
vn 0.8583612 0.2788197 0.4306688
vn 0.9523303 0.06002115 -0.2991061
vn -0.9944217 0.1041116 -0.01692187
vn 0 0.9996376 0.02691965
vn 0.9906542 0.131164 -0.0374192
vn 0.994054 0.0980586 -0.04734078
vn 0.9647852 0.2012016 0.1694327
vn 0 0.5817869 -0.8133413
vn -0.242219 0.8629518 -0.4434459
vn -0.3243937 0.4734399 -0.818916
vn -0.6599808 0.730827 -0.1741188
vn 0.9459373 0.3037171 0.1138357
vn 0.7895947 0.5745947 0.2153628
vn 0.7847601 -0.2805311 -0.5526789
vn 0.7984393 -0.469766 -0.3765827
vn 0.8623443 0.2854443 0.4181912
vn 0.8620268 0.425885 0.2748305
vn -0.8957483 0.1389415 0.4222917
vn 0.4458145 -0.06020385 -0.8930985
vn 0.4458145 -0.06020385 -0.8930985
vn 0.2835582 -0.02983376 -0.9584908
vn 0.2835582 -0.02983376 -0.9584908
vn 0.1123626 0.001476856 -0.9936661
vn -0.5461984 0.8376395 0.005243633
vn 0.304851 -0.6208013 0.7222684
vn -0.6769185 -0.001141626 0.7360571
vn 0.5683496 0.8116867 -0.1346974
vn 0.7563838 0.6520612 0.05195793
vn 0.5685545 0.1192247 0.8139602
vn -0.6804693 0.02017023 0.7324989
vn -0.6851588 0.241583 0.6871645
vn -0.8347858 -0.2145211 -0.5070636
vn -0.9578063 -0.1119856 -0.2647005
vn -0.821499 0.04464211 -0.5684596
vn -0.7955881 0.254624 0.5497328
vn -0.7955881 0.254624 0.5497328
vn -0.8555518 0.07891063 0.511668
vn -0.7497943 0.3006307 -0.5894317
vn -0.6409429 0.4344666 0.6327962
vn 0.9332666 0.3574527 0.03522662
vn 0.9959434 0.08901757 -0.01313798
vn 0.9034365 -0.20008 0.3791707
vn -0.6501164 0.137243 0.7473373
vn -0.994054 0.0980586 -0.04734078
vn -0.9711089 -0.1111245 -0.2111843
vn -0.9663359 -0.02651127 -0.2559142
vn 0.9885599 0.1325494 -0.07197165
vn 0.995721 0.06414773 -0.06651834
vn 0.9643591 0.1437978 0.2221121
vn 0.9663359 -0.02651128 -0.2559143
vn -0.9643591 0.1437978 0.2221121
vn -0.8583612 0.2788197 0.4306688
vn -0.9580134 0.08510607 0.2738012
vn -0.9523303 0.06002115 -0.2991061
vn 0.9944217 0.1041116 -0.01692187
vn -0.9906542 0.131164 -0.0374192
vn -0.9647852 0.2012016 0.1694327
vn -0.994054 0.0980586 -0.04734078
vn 0 0.5817869 -0.8133413
vn 0.242219 0.8629518 -0.4434459
vn 0.3243937 0.4734399 -0.818916
vn 0.6599808 0.730827 -0.1741188
vn -0.9459373 0.3037171 0.1138357
vn -0.7895947 0.5745947 0.2153628
vn -0.8397321 0.4371847 0.3220553
vn -0.7847601 -0.2805311 -0.5526789
vn -0.7984393 -0.469766 -0.3765827
vn -0.7984393 -0.469766 -0.3765827
vn -0.7847601 -0.2805311 -0.5526789
vn -0.7184965 -0.07249875 -0.6917419
vn -0.8623443 0.2854443 0.4181912
vn -0.8620268 0.425885 0.2748305
vn 0.8957483 0.1389415 0.4222917
vn -0.4458145 -0.06020385 -0.8930985
vn -0.2835582 -0.02983376 -0.9584908
vn -0.2835582 -0.02983376 -0.9584908
vn -0.4458145 -0.06020385 -0.8930985
vn -0.1123626 0.001476856 -0.9936661
vn 0.5461984 0.8376395 0.005243633
vn 0.6887046 0.2377301 0.6849602
vn 0.6887042 0.2377302 0.6849604
vn 0.6409426 0.4344671 0.6327962
vn 0.6804851 0.02026784 0.7324815
vn 0.6769184 -0.001141543 0.7360572
vn 0.6671486 -0.1177243 0.7355636
vn 0.6887046 0.2377301 0.6849602
vn 0.6501281 0.1373734 0.7473032
vn -0.6887046 0.2377297 0.6849602
vn -0.6671492 -0.1177246 0.735563
vn -0.6409429 0.4344666 0.6327962
vn -0.688705 0.2377298 0.6849598
vn 0.9140788 -0.3938569 0.09662645
vn 0.6399173 -0.745697 0.1855855
vn -0.6399173 -0.745697 0.1855855
vn -0.9140788 -0.3938569 0.09662645
g succubus_tier2_head_0
f 2/2/2 1/1/1 5/5/5
f 111/111/111 41/41/41 5/5/5
f 87/87/87 30/30/30 86/86/86
f 86/86/86 93/93/93 91/91/91
f 93/93/93 92/92/92 91/91/91
f 97/97/97 31/31/31 96/96/96
f 31/31/31 33/33/33 94/94/94
f 95/95/95 31/31/31 94/94/94
f 139/139/139 138/138/138 137/137/137
f 143/143/143 137/137/137 142/142/142
f 144/144/144 143/143/143 142/142/142
f 61/61/61 148/148/148 147/147/147
f 61/61/61 146/146/146 145/145/145
f 62/62/62 61/61/61 145/145/145
f 168/168/168 167/167/167 166/166/166
f 174/174/174 177/177/177 176/176/176
f 175/175/175 174/174/174 70/70/70
f 112/112/112 175/175/175 70/70/70
f 57/57/57 112/112/112 70/70/70
f 179/179/179 178/178/178 48/48/48
f 48/48/48 128/128/128 56/56/56
f 128/128/128 127/127/127 56/56/56
f 127/127/127 126/126/126 56/56/56
f 56/56/56 126/126/126 53/53/53
f 126/126/126 114/114/114 53/53/53
f 53/53/53 114/114/114 113/113/113
f 114/114/114 165/165/165 113/113/113
f 113/113/113 165/165/165 42/42/42
f 45/45/45 42/42/42 59/59/59
f 59/59/59 42/42/42 90/90/90
f 3/3/3 25/25/25 90/90/90
f 3/3/3 8/8/8 25/25/25
f 110/110/110 73/73/73 3/3/3
f 110/110/110 74/74/74 73/73/73
f 74/74/74 19/19/19 73/73/73
f 74/74/74 79/79/79 19/19/19
f 79/79/79 22/22/22 19/19/19
f 79/79/79 81/81/81 22/22/22
f 81/81/81 80/80/80 22/22/22
f 80/80/80 11/11/11 22/22/22
f 181/181/181 180/180/180 11/11/11
f 75/75/75 12/12/12 40/40/40
f 104/104/104 75/75/75 40/40/40
f 4/4/4 15/15/15 76/76/76
f 15/15/15 14/14/14 76/76/76
f 15/15/15 78/78/78 14/14/14
f 77/77/77 16/16/16 13/13/13
f 77/77/77 13/13/13 72/72/72
f 13/13/13 67/67/67 72/72/72
f 67/67/67 68/68/68 72/72/72
f 68/68/68 69/69/69 72/72/72
f 72/72/72 69/69/69 24/24/24
f 69/69/69 23/23/23 24/24/24
f 23/23/23 6/6/6 24/24/24
f 6/6/6 7/7/7 24/24/24
f 6/6/6 17/17/17 7/7/7
f 17/17/17 18/18/18 7/7/7
f 17/17/17 20/20/20 18/18/18
f 20/20/20 21/21/21 18/18/18
f 20/20/20 9/9/9 21/21/21
f 9/9/9 10/10/10 21/21/21
f 9/9/9 38/38/38 10/10/10
f 38/38/38 39/39/39 10/10/10
f 38/38/38 103/103/103 39/39/39
f 26/26/26 29/29/29 82/82/82
f 29/29/29 28/28/28 82/82/82
f 29/29/29 88/88/88 28/28/28
f 85/85/85 27/27/27 83/83/83
f 27/27/27 84/84/84 83/83/83
f 27/27/27 89/89/89 84/84/84
f 99/99/99 36/36/36 98/98/98
f 36/36/36 37/37/37 98/98/98
f 36/36/36 102/102/102 37/37/37
f 101/101/101 32/32/32 100/100/100
f 32/32/32 35/35/35 100/100/100
f 100/100/100 35/35/35 34/34/34
f 107/107/107 106/106/106 105/105/105
f 108/108/108 107/107/107 105/105/105
f 108/108/108 109/109/109 107/107/107
f 49/49/49 115/115/115 66/66/66
f 66/66/66 115/115/115 159/159/159
f 120/120/120 119/119/119 118/118/118
f 50/50/50 120/120/120 118/118/118
f 124/124/124 120/120/120 50/50/50
f 123/123/123 122/122/122 121/121/121
f 121/121/121 122/122/122 117/117/117
f 125/125/125 121/121/121 117/117/117
f 125/125/125 117/117/117 71/71/71
f 71/71/71 117/117/117 116/116/116
f 116/116/116 117/117/117 58/58/58
f 129/129/129 116/116/116 58/58/58
f 43/43/43 129/129/129 58/58/58
f 44/44/44 43/43/43 58/58/58
f 51/51/51 43/43/43 44/44/44
f 52/52/52 51/51/51 44/44/44
f 54/54/54 51/51/51 52/52/52
f 55/55/55 54/54/54 52/52/52
f 46/46/46 54/54/54 55/55/55
f 47/47/47 46/46/46 55/55/55
f 64/64/64 46/46/46 47/47/47
f 65/65/65 64/64/64 47/47/47
f 158/158/158 64/64/64 65/65/65
f 132/132/132 131/131/131 130/130/130
f 60/60/60 132/132/132 130/130/130
f 140/140/140 132/132/132 60/60/60
f 135/135/135 134/134/134 133/133/133
f 136/136/136 135/135/135 133/133/133
f 141/141/141 135/135/135 136/136/136
f 63/63/63 150/150/150 149/149/149
f 151/151/151 63/63/63 149/149/149
f 157/157/157 63/63/63 151/151/151
f 154/154/154 153/153/153 152/152/152
f 155/155/155 154/154/154 152/152/152
f 155/155/155 152/152/152 156/156/156
f 163/163/163 162/162/162 160/160/160
f 162/162/162 161/161/161 160/160/160
f 164/164/164 161/161/161 162/162/162
f 172/172/172 171/171/171 169/169/169
f 171/171/171 170/170/170 169/169/169
f 170/170/170 173/173/173 169/169/169
