g succubus_blink
v 0.07558305 -0.2088683 8.769535E-15
v 0.2050091 -0.1900199 9.048829E-15
v 0.1153776 -0.1492161 -0.1500084
v 0.04184783 -0.2104309 -0.08654508
v 0.06888366 -0.1999209 -0.1204886
v 0.1158191 -0.2060916 -0.05372003
v 0.03754342 -0.2090361 -0.08988617
v 0.1084458 -0.1994357 -0.05654304
v 0.1274182 -0.1596952 -0.1510494
v 0.1555055 -0.1564612 -0.1849767
v 0.1012604 -0.1802774 -0.1430209
v 0.1434602 -0.2066137 -0.05013391
v 0.075279 -0.1994039 -0.03211899
v 0.1859379 -0.1937687 -0.06528538
v 0.06023347 -0.2009182 -0.1245164
v 0.008819699 -0.178297 -0.08770557
v 0.03433871 -0.2044299 -0.0643262
v 0.1340964 -0.1861356 -0.09619711
v 0.01824951 -0.1879918 -0.05570002
v 0.1400768 -0.1724769 -0.1332426
v 0.1024532 -0.2237833 0.0006749835
v 0.03495708 -0.1890682 -0.02955781
v 0.07061338 -0.1473186 -0.1558841
v 0.0925293 -0.1763915 -0.1487207
v 0.09685385 -0.2078887 -0.03449047
v 0.03621602 -0.1682704 -0.1336075
v 0.2376381 -0.1174053 9.126461E-15
v 0.1859139 -0.2141959 0.0006749835
v 0.1257591 -0.2338491 8.863035E-15
v 0.1564089 -0.2324772 0.0006749835
v 0.2169884 -0.1653874 -0.05354197
v 0.130354 -0.1622376 -0.1652258
v 0.1222008 -0.1633564 -0.1683718
v 0.1317525 -0.153726 -0.1683114
v 0.1153776 -0.1492161 0.1500084
v 0.04362082 -0.2106709 0.08654508
v 0.07047474 -0.2001363 0.1204886
v 0.1293437 -0.2079585 0.0585915
v 0.03779459 -0.2090231 0.09025396
v 0.1137049 -0.2001477 0.05654304
v 0.1274182 -0.1596952 0.1510494
v 0.1555055 -0.1564612 0.1849767
v 0.1014067 -0.1802972 0.1430209
v 0.1515113 -0.2077037 0.04936237
v 0.075279 -0.1994039 0.03211899
v 0.1910583 -0.1944619 0.06528538
v 0.06023347 -0.2009182 0.1245164
v 0.01129782 -0.1784612 0.09172121
v 0.03435099 -0.2044292 0.06434414
v 0.1402606 -0.1869702 0.09619711
v 0.01824951 -0.1879918 0.05570002
v 0.1409625 -0.1725968 0.1332426
v 0.03495708 -0.1890682 0.02955781
v 0.07061338 -0.1473186 0.1558841
v 0.0925293 -0.1763915 0.1487207
v 0.09695864 -0.2079029 0.03449047
v 0.03621602 -0.1682704 0.1336075
v 0.2169884 -0.1653874 0.05354197
v 0.130354 -0.1622376 0.1652258
v 0.1222008 -0.1633564 0.1683718
v 0.1317525 -0.153726 0.1683114
v 0.06340373 -0.211876 -0.04310331
v 0.08829021 -0.2212632 -0.06481612
v 0.116439 -0.2069788 -0.1043528
v 0.122509 -0.1811506 -0.1409809
v 0.06465316 -0.211723 0.04213406
v 0.09180629 -0.2217392 0.06481612
v 0.1203166 -0.2075038 0.1043528
v 0.1218589 -0.1814474 0.1412691
v 0.0925293 -0.1763915 -0.1487207
v 0.06023347 -0.2009182 -0.1245164
v 0.1012604 -0.1802774 -0.1430209
v 0.1274182 -0.1596952 -0.1510494
v 0.08829021 -0.2212632 -0.06481612
v 0.1317525 -0.153726 -0.1683114
v 0.1153776 -0.1492161 -0.1500084
v 0.0925293 -0.1763915 -0.1487207
v 0.03754342 -0.2090361 -0.08988617
v 0.03433871 -0.2044299 -0.0643262
v 0.116439 -0.2069788 -0.1043528
v 0.1153776 -0.1492161 -0.1500084
v 0.1222008 -0.1633564 -0.1683718
v 0.1274182 -0.1596952 -0.1510494
v 0.1555055 -0.1564612 -0.1849767
v 0.1555055 -0.1564612 -0.1849767
v 0.03435099 -0.2044292 0.06434414
v 0.0925293 -0.1763915 0.1487207
v 0.06023347 -0.2009182 0.1245164
v 0.1274182 -0.1596952 0.1510494
v 0.1014067 -0.1802972 0.1430209
v 0.09180629 -0.2217392 0.06481612
v 0.07047474 -0.2001363 0.1204886
v 0.1317525 -0.153726 0.1683114
v 0.0925293 -0.1763915 0.1487207
v 0.1153776 -0.1492161 0.1500084
v 0.04362082 -0.2106709 0.08654508
v 0.03435099 -0.2044292 0.06434414
v 0.03779459 -0.2090231 0.09025396
v 0.1014067 -0.1802972 0.1430209
v 0.1153776 -0.1492161 0.1500084
v 0.1222008 -0.1633564 0.1683718
v 0.1274182 -0.1596952 0.1510494
v 0.1555055 -0.1564612 0.1849767
v 0.1555055 -0.1564612 0.1849767
v 0.03433871 -0.2044299 -0.0643262
v 0.08829021 -0.2212632 -0.06481612
v 0.04184783 -0.2104309 -0.08654508
v 0.06888366 -0.1999209 -0.1204886
v 0.08829021 -0.2212632 -0.06481612
v 0.1012604 -0.1802774 -0.1430209
v 0.116439 -0.2069788 -0.1043528
v 0.09180629 -0.2217392 0.06481612
vt 0.01213575 0.6974325
vt 0.01213575 0.8246132
vt 0.1362894 0.9802482
vt 0.102905 0.9889681
vt 0.1177325 0.9924376
vt 0.05545967 0.7294455
vt 0.08360442 0.6731329
vt 0.06274257 0.7173654
vt 0.1379161 0.9846382
vt 0.1370394 0.9845366
vt 0.13116 0.9877253
vt 0.05452309 0.7576709
vt 0.04565397 0.6890187
vt 0.07168965 0.7861835
vt 0.116514 0.9880896
vt 0.09088719 0.6360519
vt 0.064352 0.6644783
vt 0.09616557 0.7312927
vt 0.05788561 0.6397564
vt 0.1259691 0.7270113
vt 0.01213575 0.7211471
vt 0.04852697 0.6573234
vt 0.148875 0.6884789
vt 0.1271749 0.9849222
vt 0.031561 0.7108231
vt 0.1243537 0.6621556
vt 0.06192733 0.8694556
vt 0.01213575 0.7841312
vt 0.01213575 0.7434213
vt 0.01213575 0.7694048
vt 0.07452191 0.8169322
vt 0.1369357 0.98457
vt 0.1367843 0.9841318
vt 0.1374505 0.9844878
vt 0.1362894 0.9802482
vt 0.08219332 0.6758456
vt 0.1177325 0.9924376
vt 0.05545967 0.7294455
vt 0.08360442 0.6731329
vt 0.06274257 0.7173654
vt 0.1379161 0.9846382
vt 0.1370394 0.9845366
vt 0.13116 0.9877253
vt 0.05452309 0.7576709
vt 0.04565397 0.6890187
vt 0.07168965 0.7861835
vt 0.116514 0.9880896
vt 0.09088719 0.6360519
vt 0.06332928 0.6664512
vt 0.09616557 0.7312927
vt 0.05788561 0.6397564
vt 0.1259691 0.7270113
vt 0.04852697 0.6573234
vt 0.148875 0.6884789
vt 0.1271749 0.9849222
vt 0.031561 0.7108231
vt 0.1243537 0.6621556
vt 0.07452191 0.8169322
vt 0.1369357 0.98457
vt 0.1367843 0.9841318
vt 0.1374505 0.9844878
vt 0.05502848 0.6770495
vt 0.07246795 0.6966055
vt 0.1019196 0.7099195
vt 0.1295841 0.7164595
vt 0.05449162 0.677735
vt 0.07246795 0.6966055
vt 0.1019196 0.7099195
vt 0.1297972 0.7158375
vt 0.137 0.7025266
vt 0.1081648 0.685806
vt 0.13116 0.9877253
vt 0.1379161 0.9846382
vt 0.07246795 0.6966055
vt 0.1374505 0.9844878
vt 0.1362894 0.9802482
vt 0.1271749 0.9849222
vt 0.1040077 0.9856553
vt 0.09661174 0.978178
vt 0.1019196 0.7099195
vt 0.1470287 0.7098218
vt 0.1367843 0.9841318
vt 0.1458967 0.7161028
vt 0.1370394 0.9845366
vt 0.1370394 0.9845366
vt 0.064352 0.6644783
vt 0.137 0.7025266
vt 0.1081648 0.685806
vt 0.1379161 0.9846382
vt 0.13116 0.9877253
vt 0.07246795 0.6966055
vt 0.1076736 0.6885462
vt 0.1374505 0.9844878
vt 0.1271749 0.9849222
vt 0.1362894 0.9802482
vt 0.102905 0.9889681
vt 0.09661174 0.978178
vt 0.1040077 0.9856553
vt 0.1331991 0.7059078
vt 0.1470287 0.7098218
vt 0.1367843 0.9841318
vt 0.1458967 0.7161028
vt 0.1370394 0.9845366
vt 0.1370394 0.9845366
vt 0.06332928 0.6664512
vt 0.07246795 0.6966055
vt 0.08219332 0.6758456
vt 0.1076736 0.6885462
vt 0.07246795 0.6966055
vt 0.1331991 0.7059078
vt 0.1019196 0.7099195
vt 0.07246795 0.6966055
vn -0.485394 -0.8742868 0.00390358
vn 0.8819645 -0.4713159 -6.130014E-05
vn 0.6232988 0.6773636 0.3907391
vn -0.1653366 -0.9827686 -0.08264126
vn 0.06997589 -0.9018167 -0.4264152
vn -0.207921 -0.89056 -0.4045637
vn -0.462998 -0.8705502 -0.1666592
vn 0.5472642 -0.7165909 0.4324341
vn 0.5013898 0.7710575 0.3925284
vn 0.2846386 -0.9550208 0.08316309
vn 0.2387299 -0.827036 -0.5089395
vn 0.06353011 -0.8822255 -0.4665213
vn 0.1406182 -0.6704717 0.7284877
vn 0.4554786 -0.8284572 -0.3258801
vn -0.2926436 -0.7065369 -0.6443331
vn -0.7032498 -0.659978 -0.2643268
vn -0.5446029 -0.8221973 0.165527
vn 0.7058858 -0.7081628 -0.01518938
vn -0.6574541 -0.733556 0.1721907
vn 0.6344348 -0.5901192 -0.4992512
vn -0.3954648 -0.9184425 0.008431727
vn -0.4030835 -0.7509575 0.5230551
vn -0.1586923 -0.3543238 -0.9215592
vn 0.02736687 -0.6225739 -0.7820823
vn -0.3693176 -0.8674803 -0.3332901
vn -0.4678053 -0.5391578 -0.7003335
vn 0.8819645 -0.4713159 -6.130014E-05
vn 0.7365489 -0.6760601 -0.02093796
vn -0.08264198 -0.9965225 -0.01063654
vn 0.2450641 -0.9694405 -0.01134452
vn 0.8031287 -0.5842649 -0.1166999
vn 0.3556794 -0.9344648 -0.01636531
vn -0.5381436 0.492084 -0.6842915
vn 0.5013898 0.7710575 0.3925284
vn 0.6232988 0.6773636 -0.3907391
vn -0.1586301 -0.9834015 0.08807894
vn 0.05618956 -0.8965848 0.439293
vn -0.1575598 -0.9044423 0.3964331
vn -0.4623049 -0.86919 0.1754509
vn 0.5210227 -0.7321974 -0.4386595
vn 0.5013898 0.7710575 -0.3925284
vn 0.2846386 -0.9550208 -0.08316309
vn 0.2317854 -0.8224889 0.5194107
vn 0.1043498 -0.8939673 0.4358138
vn 0.1306463 -0.6488534 -0.7496138
vn 0.4896566 -0.8247028 0.2830223
vn -0.2956598 -0.7013437 0.6486157
vn -0.7061296 -0.6501842 0.2804308
vn -0.5430775 -0.8248672 -0.1570378
vn 0.6793955 -0.7298303 0.07595752
vn -0.6651937 -0.7311764 -0.1513217
vn 0.5994956 -0.5808112 0.5506935
vn -0.3986701 -0.7471815 -0.5317724
vn -0.1586923 -0.3543238 0.9215592
vn 0.02312646 -0.6181632 0.7857094
vn -0.3743259 -0.8612708 0.3436461
vn -0.4639474 -0.5374062 0.7042354
vn 0.8290559 -0.5539905 0.0758997
vn 0.3562873 -0.9342256 0.01678682
vn -0.5381436 0.492084 0.6842915
vn 0.5013898 0.7710575 -0.3925284
vn -0.1367444 -0.8424194 0.5211818
vn 0.2901773 -0.8861857 0.3612091
vn 0.494143 -0.8581594 -0.1392305
vn 0.3682813 -0.6494086 -0.6653098
vn -0.1366842 -0.8343807 -0.5339721
vn 0.1975229 -0.9639333 -0.1783742
vn 0.3681474 -0.8788685 0.3034102
vn 0.3433605 -0.6347358 0.6922529
vn 0.02736687 -0.6225739 -0.7820823
vn -0.2926436 -0.7065369 -0.6443331
vn 0.3440731 -0.8945225 -0.2853826
vn 0.5250953 -0.8121324 0.2543931
vn 0.3946319 -0.8989516 0.1901359
vn -0.5381436 0.492084 -0.6842915
vn -0.6016191 0.5090768 -0.6155447
vn -0.6016191 0.5090768 -0.6155447
vn -0.462998 -0.8705502 -0.1666592
vn -0.5446029 -0.8221973 0.165527
vn 0.3921258 -0.8794273 -0.2698983
vn 0.1224522 -0.1494436 -0.9811585
vn 0.1419284 -0.946951 -0.2883403
vn 0.3130475 -0.4612316 -0.8302209
vn -0.4698012 0.4706409 -0.7468495
vn 0.3676261 0.846521 0.3850369
vn -0.5430775 -0.8248672 -0.1570378
vn 0.02312646 -0.6181632 0.7857094
vn -0.2956598 -0.7013437 0.6486157
vn 0.5264627 -0.8112097 -0.2545108
vn 0.3405648 -0.8930815 0.2939745
vn 0.1237358 -0.9922409 0.01214404
vn 0.05618956 -0.8965848 0.439293
vn -0.5381436 0.492084 0.6842915
vn -0.6016191 0.5090768 0.6155447
vn -0.6016191 0.5090768 0.6155447
vn -0.1586301 -0.9834015 0.08807894
vn -0.5430775 -0.8248672 -0.1570378
vn -0.4623049 -0.86919 0.1754509
vn 0.09591246 -0.7481809 0.6565258
vn 0.1224522 -0.1494436 0.9811585
vn 0.1414459 -0.9467511 0.2892327
vn 0.2942984 -0.4534718 0.8412798
vn -0.4698012 0.4706409 0.7468495
vn 0.3676261 0.846521 -0.3850369
vn -0.5446029 -0.8221973 0.165527
vn 0.01568658 -0.9890594 0.1466809
vn -0.1653366 -0.9827686 -0.08264126
vn 0.06997589 -0.9018167 -0.4264152
vn 0.1348176 -0.9908667 -0.002710129
vn 0.105382 -0.7557625 -0.6463109
vn 0.2532789 -0.8698673 -0.4232973
vn 0.2711191 -0.8919992 -0.3617067
g succubus_blink_0
f 62/62/62 63/63/63 8/8/8
f 13/13/13 62/62/62 8/8/8
f 22/22/22 62/62/62 13/13/13
f 22/22/22 105/105/105 62/62/62
f 62/62/62 105/105/105 106/106/106
f 105/105/105 107/107/107 106/106/106
f 74/74/74 64/64/64 8/8/8
f 64/64/64 18/18/18 8/8/8
f 17/17/17 22/22/22 19/19/19
f 17/17/17 19/19/19 16/16/16
f 16/16/16 7/7/7 17/17/17
f 71/71/71 7/7/7 16/16/16
f 71/71/71 16/16/16 26/26/26
f 71/71/71 26/26/26 23/23/23
f 71/71/71 23/23/23 70/70/70
f 23/23/23 81/81/81 70/70/70
f 109/109/109 107/107/107 80/80/80
f 18/18/18 80/80/80 20/20/20
f 107/107/107 108/108/108 80/80/80
f 80/80/80 65/65/65 20/20/20
f 111/111/111 108/108/108 65/65/65
f 83/83/83 20/20/20 65/65/65
f 108/108/108 110/110/110 65/65/65
f 83/83/83 65/65/65 110/110/110
f 3/3/3 9/9/9 34/34/34
f 34/34/34 9/9/9 85/85/85
f 73/73/73 72/72/72 32/32/32
f 73/73/73 32/32/32 10/10/10
f 10/10/10 32/32/32 82/82/82
f 82/82/82 32/32/32 11/11/11
f 24/24/24 82/82/82 11/11/11
f 24/24/24 11/11/11 15/15/15
f 11/11/11 5/5/5 15/15/15
f 15/15/15 5/5/5 78/78/78
f 5/5/5 4/4/4 78/78/78
f 79/79/79 78/78/78 4/4/4
f 77/77/77 76/76/76 75/75/75
f 33/33/33 77/77/77 75/75/75
f 33/33/33 75/75/75 84/84/84
f 41/41/41 35/35/35 61/61/61
f 41/41/41 61/61/61 104/104/104
f 90/90/90 89/89/89 59/59/59
f 59/59/59 89/89/89 42/42/42
f 59/59/59 42/42/42 101/101/101
f 59/59/59 101/101/101 43/43/43
f 101/101/101 55/55/55 43/43/43
f 43/43/43 55/55/55 47/47/47
f 37/37/37 43/43/43 47/47/47
f 37/37/37 47/47/47 98/98/98
f 96/96/96 37/37/37 98/98/98
f 98/98/98 97/97/97 96/96/96
f 95/95/95 94/94/94 93/93/93
f 94/94/94 60/60/60 93/93/93
f 93/93/93 60/60/60 103/103/103
f 100/100/100 54/54/54 87/87/87
f 54/54/54 88/88/88 87/87/87
f 57/57/57 88/88/88 54/54/54
f 48/48/48 88/88/88 57/57/57
f 39/39/39 88/88/88 48/48/48
f 39/39/39 48/48/48 86/86/86
f 51/51/51 86/86/86 48/48/48
f 53/53/53 86/86/86 51/51/51
f 66/66/66 53/53/53 45/45/45
f 49/49/49 53/53/53 66/66/66
f 66/66/66 45/45/45 40/40/40
f 112/112/112 66/66/66 40/40/40
f 49/49/49 66/66/66 67/67/67
f 36/36/36 49/49/49 67/67/67
f 68/68/68 67/67/67 40/40/40
f 50/50/50 68/68/68 40/40/40
f 68/68/68 50/50/50 52/52/52
f 69/69/69 68/68/68 52/52/52
f 69/69/69 52/52/52 102/102/102
f 69/69/69 102/102/102 99/99/99
f 99/99/99 92/92/92 69/69/69
f 92/92/92 68/68/68 69/69/69
f 92/92/92 36/36/36 91/91/91
f 68/68/68 92/92/92 91/91/91
f 1/1/1 25/25/25 21/21/21
f 56/56/56 1/1/1 21/21/21
f 6/6/6 21/21/21 25/25/25
f 21/21/21 38/38/38 56/56/56
f 6/6/6 29/29/29 21/21/21
f 29/29/29 38/38/38 21/21/21
f 6/6/6 12/12/12 29/29/29
f 44/44/44 38/38/38 29/29/29
f 29/29/29 12/12/12 30/30/30
f 44/44/44 29/29/29 30/30/30
f 30/30/30 12/12/12 14/14/14
f 28/28/28 30/30/30 14/14/14
f 44/44/44 30/30/30 46/46/46
f 30/30/30 28/28/28 46/46/46
f 28/28/28 14/14/14 31/31/31
f 46/46/46 28/28/28 58/58/58
f 28/28/28 31/31/31 27/27/27
f 58/58/58 28/28/28 27/27/27
f 2/2/2 28/28/28 27/27/27
f 28/28/28 2/2/2 27/27/27
