g sword_epic_002_glow
v -0.002939583 -0.008681592 0.2226337
v -0.1215765 -0.0457835 0.2200621
v -0.03360264 -0.04566571 0.2609063
v -0.03377575 -0.04524454 0.1820108
v -0.002618354 -0.03419606 0.37097
v -0.002985983 -0.05148709 0.08413423
v 0.02757714 -0.04566571 0.2609063
v 0.02786089 -0.04524454 0.1820108
v 0.1156045 -0.0457835 0.2200621
v -0.03360264 0.04623601 0.2609063
v -0.1215765 0.04635379 0.2200621
v -0.002939583 0.009250103 0.2226337
v -0.002618354 0.03476636 0.37097
v -0.03377575 0.04581484 0.1820108
v 0.02757714 0.04623601 0.2609063
v -0.002985983 0.05205739 0.08413423
v 0.1156045 0.04635379 0.2200621
v 0.02786089 0.04581484 0.1820108
vt 0.9722111 0.06575394
vt 0.9727397 0.5017816
vt 0.9140599 0.4877695
vt 0.913168 0.4877695
vt 0.9727397 0.5017816
vt 0.9727397 0.5017816
vt 0.9127324 0.4877695
vt 0.9138426 0.4877695
vt 0.9727397 0.5017816
vt 0.9140599 0.4877695
vt 0.9727397 0.5017816
vt 0.9722111 0.06575394
vt 0.9727397 0.5017816
vt 0.913168 0.4877695
vt 0.9127324 0.4877695
vt 0.9727397 0.5017816
vt 0.9727397 0.5017816
vt 0.9138426 0.4877695
vn 0.0005361922 -0.9999391 0.01102141
vn 0.298448 -0.9544246 0.001564763
vn 0.5281591 -0.7815244 -0.3320659
vn 0.4412588 -0.8073675 0.3917249
vn 0.001928243 -0.9855251 -0.1695187
vn 9.746508E-05 -0.9554093 0.2952846
vn -0.5308665 -0.7802643 -0.3307088
vn -0.4414373 -0.8072144 0.3918394
vn -0.2986641 -0.9543573 0.001402099
vn 0.5281725 0.7815102 -0.3320778
vn 0.2984612 0.9544205 0.001564687
vn 0.0005362457 0.9999392 0.01102071
vn 0.001928265 0.9855231 -0.1695303
vn 0.4412737 0.8073537 0.3917367
vn -0.5308799 0.7802501 -0.3307207
vn 9.746294E-05 0.9554059 0.2952958
vn -0.2986772 0.9543531 0.001402189
vn -0.4414522 0.8072006 0.3918511
g sword_epic_002_glow_0
f 3/3/3 2/2/2 1/1/1
f 2/2/2 4/4/4 1/1/1
f 5/5/5 3/3/3 1/1/1
f 4/4/4 6/6/6 1/1/1
f 7/7/7 5/5/5 1/1/1
f 6/6/6 8/8/8 1/1/1
f 9/9/9 7/7/7 1/1/1
f 8/8/8 9/9/9 1/1/1
f 12/12/12 11/11/11 10/10/10
f 12/12/12 10/10/10 13/13/13
f 12/12/12 14/14/14 11/11/11
f 12/12/12 13/13/13 15/15/15
f 12/12/12 16/16/16 14/14/14
f 12/12/12 15/15/15 17/17/17
f 12/12/12 18/18/18 16/16/16
f 12/12/12 17/17/17 18/18/18
