g sword_fire_001
v -0.1590137 0.03267479 1.27023
v -0.1248951 0.04741096 1.137439
v -0.09668732 0.04783058 1.278821
v -0.1873436 0 0.7803736
v -0.1445122 -0.02277946 0.711463
v -0.1493511 0.02213097 0.7123041
v -0.1806507 0 0.676959
v -0.1493511 0.02213097 0.7123041
v -0.1445122 -0.02277946 0.711463
v 0.07610893 -0.0466423 1.296458
v 0.1412964 -0.0376606 1.257316
v 0.1170464 -0.04512024 1.064742
v -0.2229939 0 1.331239
v -0.1590137 0.03267479 1.27023
v -0.09668732 0.04783058 1.278821
v -0.002086639 0.04910469 1.380524
v -0.002086639 0 1.534878
v -0.1302185 -0.04738235 1.242772
v -0.002086639 -0.04910469 1.380525
v -0.002086639 0.04910469 1.380524
v 0.0736351 0.04535866 0.2057676
v 0.1260433 0.04506874 1.242772
v -0.07781029 0.04767036 0.2057676
v -0.09668732 0.04783058 1.278821
v -0.1248951 0.04741096 1.137439
v 0.1260433 0.04506874 1.242772
v 0.0736351 0.04535866 0.2057676
v 0.1460037 0 0.2060728
v 0.2147121 0 1.267794
v 0.1796055 0.01904869 1.293847
v 0.1170464 -0.04512024 1.064742
v 0.0736351 -0.04535866 0.2057676
v 0.1412964 -0.0376606 1.257316
v 0.1906567 -0.01368141 1.304385
v -0.002086639 0.04910469 1.380524
v 0.1796055 0.01904869 1.293847
v 0.188345 0 1.35933
v -0.002086639 0 1.534878
v -0.002086639 -0.04910469 1.380525
v 0.1906567 -0.01368141 1.304385
v 0.07610893 -0.0466423 1.296458
v 0.1412964 -0.0376606 1.257316
v -0.002086639 -0.04910469 1.380525
v -0.07781029 -0.04767036 0.2057676
v -0.1302185 -0.04738235 1.242772
v 0.0736351 -0.04535866 0.2057676
v 0.07610893 -0.0466423 1.296458
v 0.1170464 -0.04512024 1.064742
v 0.1796055 0.01904869 1.293847
v 0.1906567 -0.01368141 1.304385
v 0.188345 0 1.35933
v 0.2147121 0 1.267794
v 0.2540169 0 0.2117147
v -0.000202179 0.07624245 0.2112761
v 0.207531 0.06754494 0.2114763
v -0.0002365112 0 0.2113161
v -0.2079372 0.06754494 0.2114763
v -0.2548256 0 0.2117147
v -0.2079372 -0.06754684 0.2114763
v -0.000202179 -0.07624435 0.2112761
v 0.207531 -0.06754684 0.2114763
v -0.2553692 0 0.09628773
v -0.06939316 0.07444 0.09454823
v -0.2077732 0.06751633 0.0952425
v -0.08525848 0 0.09489536
v -0.06939316 -0.07444191 0.09454823
v -0.2077732 -0.06751823 0.0952425
v -0.000202179 0 0.02310276
v -0.000202179 0.07790184 0.04812908
v 0.08498764 0 0.09489536
v -0.000202179 -0.07790375 0.04812908
v 0.0689888 0.07444 0.09454823
v 0.0689888 -0.07444191 0.09454823
v 0.2073689 0.06751633 0.0952425
v 0.2073689 -0.06751823 0.0952425
v 0.2553673 0 0.09628773
v -0.0002689362 -0.02987099 -0.3240137
v 0.04284477 0 -0.3239679
v -0.0002689362 0.03309059 -0.3240137
v -0.04338264 0 -0.3239679
v 0.2553673 0 0.09628773
v 0.2074165 0.06752586 0.13412
v 0.2073689 0.06751633 0.0952425
v 0.0689888 0.07444 0.09454823
v 0.2549725 0 0.1341066
v 0.06900215 0.07445908 0.1341276
v 0.2074165 -0.06752586 0.13412
v 0.2073689 -0.06751823 0.0952425
v 0.0689888 -0.07444191 0.09454823
v 0.06900215 -0.07445908 0.1341276
v -0.000202179 0.07790184 0.04812908
v -0.000202179 0.07792664 0.09323788
v -0.000202179 -0.07790375 0.04812908
v -0.000202179 -0.07792664 0.09323788
v -0.06940842 0.07445908 0.1341276
v -0.06939316 0.07444 0.09454823
v -0.06940842 -0.07445908 0.1341276
v -0.06939316 -0.07444191 0.09454823
v -0.2077732 0.06751633 0.0952425
v -0.2078209 0.06752586 0.13412
v -0.2077732 -0.06751823 0.0952425
v -0.2078209 -0.06752586 0.13412
v -0.2552109 0 0.1341066
v -0.2553692 0 0.09628773
v 0.0466404 0 0.07833195
v 0.04252243 0 -0.2686052
v -0.0002689362 -0.03309059 -0.2674627
v -0.0002689362 0.03309059 -0.2674627
v -0.0002689362 -0.03309059 0.07883549
v -0.0002689362 0.03309059 0.07883549
v -0.04717636 0 0.07833195
v -0.0430603 0 -0.2686052
v -0.0002689362 -0.02987099 -0.3240137
v -0.04338264 0 -0.3239679
v -0.0430603 0 -0.2686052
v -0.0002689362 0.03309059 -0.3240137
v -0.0002689362 -0.03309059 -0.2674627
v -0.0002689362 0.03309059 -0.2674627
v 0.04252243 0 -0.2686052
v 0.04284477 0 -0.3239679
v -0.1677361 0.0414753 0.1673269
v -0.2058506 0 0.1673288
v -0.2059402 0 0.1341066
v -0.1677361 -0.0414772 0.1673269
v -0.1677074 0.04147148 0.13412
v -0.1677074 -0.04147339 0.13412
v -0.0002002716 0.04696465 0.1673079
v -0.0002002716 -0.04696465 0.1673079
v -0.0560379 0.04585838 0.1341276
v -0.0002002716 0.04805183 0.1026774
v 0.05563354 0.04585838 0.1341276
v 0.1673336 0.0414753 0.1673269
v 0.1673069 0.04147148 0.13412
v -0.0560379 -0.04586029 0.1341276
v -0.0002002716 -0.04805183 0.1026774
v 0.05563354 -0.04586029 0.1341276
v 0.1673336 -0.0414772 0.1673269
v 0.1673069 -0.04147339 0.13412
v 0.2054482 0 0.1673288
v 0.2056732 0 0.1341066
v 0.2540169 0 0.2117147
v 0.2074509 0.06753159 0.1673269
v 0.2546921 0 0.1673288
v 0.2074509 -0.06753349 0.1673269
v 0.207531 0.06754494 0.2114763
v 0.207531 -0.06754684 0.2114763
v -0.000202179 0.07620811 0.1673079
v -0.000202179 -0.07620811 0.1673079
v -0.000202179 0.07624245 0.2112761
v -0.000202179 -0.07624435 0.2112761
v -0.2078552 0.06753159 0.1673269
v -0.2078552 -0.06753349 0.1673269
v -0.2079372 0.06754494 0.2114763
v -0.2079372 -0.06754684 0.2114763
v -0.2550964 0 0.1673288
v -0.2548256 0 0.2117147
v -0.150177 0 0.2060728
v -0.07781029 0.04767036 0.2057676
v -0.1493511 0.02213097 0.7123041
v -0.1248951 0.04741096 1.137439
v -0.1806507 0 0.676959
v -0.1873436 0 0.7803736
v -0.1445122 -0.02277946 0.711463
v -0.07781029 -0.04767036 0.2057676
v -0.1302185 -0.04738235 1.242772
v -0.1590137 0.03267479 1.27023
v -0.2229939 0 1.331239
v 0.2074165 0.06752586 0.13412
v 0.2549725 0 0.1341066
v 0.2056732 0 0.1341066
v 0.2074165 -0.06752586 0.13412
v 0.1673069 0.04147148 0.13412
v 0.1673069 -0.04147339 0.13412
v 0.06900215 0.07445908 0.1341276
v 0.06900215 -0.07445908 0.1341276
v 0.05563354 0.04585838 0.1341276
v 0.05563354 -0.04586029 0.1341276
v -0.000202179 0.07792664 0.09323788
v -0.000202179 -0.07792664 0.09323788
v -0.0002002716 0.04805183 0.1026774
v -0.0002002716 -0.04805183 0.1026774
v -0.06940842 0.07445908 0.1341276
v -0.06940842 -0.07445908 0.1341276
v -0.0560379 0.04585838 0.1341276
v -0.0560379 -0.04586029 0.1341276
v -0.2078209 0.06752586 0.13412
v -0.2078209 -0.06752586 0.13412
v -0.1677074 0.04147148 0.13412
v -0.1677074 -0.04147339 0.13412
v -0.2552109 0 0.1341066
v -0.2059402 0 0.1341066
v 0.2546921 0 0.1673288
v 0.1673336 0.0414753 0.1673269
v 0.2054482 0 0.1673288
v 0.1673336 -0.0414772 0.1673269
v 0.2074509 0.06753159 0.1673269
v 0.2074509 -0.06753349 0.1673269
v -0.0002002716 0.04696465 0.1673079
v -0.0002002716 -0.04696465 0.1673079
v -0.000202179 0.07620811 0.1673079
v -0.000202179 -0.07620811 0.1673079
v -0.1677361 0.0414753 0.1673269
v -0.1677361 -0.0414772 0.1673269
v -0.2078552 0.06753159 0.1673269
v -0.2078552 -0.06753349 0.1673269
v -0.2058506 0 0.1673288
v -0.2550964 0 0.1673288
vt 0.63479 0.345569
vt 0.633509 0.343058
vt 0.632762 0.346922
vt 0.632908 0.317605
vt 0.630124 0.317159
vt 0.629926 0.317842
vt 0.634714 0.321777
vt 0.632671 0.324012
vt 0.632869 0.323329
vt 0.63193 0.352676
vt 0.632865 0.352996
vt 0.629055 0.347751
vt 0.615727 0.351701
vt 0.617478 0.348662
vt 0.617562 0.345605
vt 0.615574 0.34084
vt 0.613241 0.341465
vt 0.618267 0.347294
vt 0.615574 0.34084
vt 0.622785 0.34553
vt 0.617922 0.315634
vt 0.630535 0.340358
vt 0.617922 0.315634
vt 0.628507 0.341711
vt 0.629254 0.337847
vt 0.628911 0.349522
vt 0.612164 0.320837
vt 0.618687 0.317262
vt 0.633702 0.349539
vt 0.632195 0.350646
vt 0.626036 0.344597
vt 0.612164 0.320837
vt 0.629846 0.349842
vt 0.632872 0.350877
vt 0.632734 0.356367
vt 0.629326 0.345564
vt 0.630972 0.34471
vt 0.63547 0.355106
vt 0.632734 0.356367
vt 0.629587 0.344854
vt 0.629882 0.351872
vt 0.628421 0.348023
vt 0.622785 0.34553
vt 0.617922 0.315634
vt 0.630535 0.340358
vt 0.617922 0.315634
vt 0.627515 0.342374
vt 0.62837 0.336114
vt 0.635077 0.355719
vt 0.635754 0.355951
vt 0.637481 0.356542
vt 0.636584 0.354613
vt 0.607288 0.285779
vt 0.61696 0.31989
vt 0.611813 0.305454
vt 0.626588 0.310636
vt 0.611948 0.305744
vt 0.607638 0.286532
vt 0.611948 0.305744
vt 0.61696 0.31989
vt 0.611813 0.305454
vt 0.540051 0.435756
vt 0.521126 0.439066
vt 0.528696 0.438324
vt 0.524911 0.432076
vt 0.521126 0.439066
vt 0.528696 0.438324
vt 0.517341 0.430236
vt 0.517341 0.439437
vt 0.525345 0.432076
vt 0.517341 0.439437
vt 0.521519 0.439066
vt 0.521519 0.439066
vt 0.529875 0.438324
vt 0.529875 0.438324
vt 0.541351 0.435756
vt 0.530904 0.432848
vt 0.528634 0.439247
vt 0.526363 0.432848
vt 0.528634 0.426449
vt 0.523067 0.427689
vt 0.534187 0.430756
vt 0.534187 0.427689
vt 0.544668 0.427689
vt 0.523843 0.430756
vt 0.544668 0.430756
vt 0.534187 0.430756
vt 0.534187 0.427689
vt 0.544668 0.427689
vt 0.544668 0.430756
vt 0.549908 0.427689
vt 0.549908 0.430756
vt 0.549908 0.427689
vt 0.549908 0.430756
vt 0.544668 0.430756
vt 0.544668 0.427689
vt 0.544668 0.430756
vt 0.544668 0.427689
vt 0.534187 0.427689
vt 0.534187 0.430756
vt 0.534187 0.427689
vt 0.534187 0.430756
vt 0.523843 0.430756
vt 0.523067 0.427689
vt 0.311596 0.513661
vt 0.44192 0.513661
vt 0.44192 0.500346
vt 0.44192 0.500346
vt 0.311596 0.500346
vt 0.311596 0.500346
vt 0.311596 0.487031
vt 0.44192 0.487031
vt 0.554977 0.428359
vt 0.528557 0.428359
vt 0.528557 0.437415
vt 0.554977 0.428359
vt 0.554977 0.437415
vt 0.554977 0.437415
vt 0.578116 0.437415
vt 0.578116 0.428359
vt 0.611612 0.328172
vt 0.606257 0.316851
vt 0.608461 0.315034
vt 0.611612 0.328172
vt 0.614115 0.326988
vt 0.614115 0.326988
vt 0.618296 0.342303
vt 0.618296 0.342303
vt 0.619844 0.339101
vt 0.622708 0.345157
vt 0.619844 0.339101
vt 0.611612 0.328172
vt 0.614115 0.326988
vt 0.619844 0.339101
vt 0.622708 0.345157
vt 0.619844 0.339101
vt 0.611612 0.328172
vt 0.614115 0.326988
vt 0.606257 0.316851
vt 0.608461 0.315034
vt 0.525714 0.438155
vt 0.534187 0.432922
vt 0.524391 0.432922
vt 0.534187 0.432922
vt 0.534187 0.438155
vt 0.534187 0.438155
vt 0.546415 0.432922
vt 0.546415 0.432922
vt 0.546415 0.438155
vt 0.546415 0.438155
vt 0.534187 0.432922
vt 0.534187 0.432922
vt 0.534187 0.438155
vt 0.534187 0.438155
vt 0.524391 0.432922
vt 0.525714 0.438155
vt 0.626734 0.309936
vt 0.621639 0.313273
vt 0.628965 0.32127
vt 0.631109 0.328709
vt 0.631008 0.319035
vt 0.631947 0.321033
vt 0.629164 0.320587
vt 0.621639 0.313273
vt 0.63218 0.330455
vt 0.63366 0.330834
vt 0.636948 0.331678
vt 0.616846 0.306415
vt 0.612888 0.296858
vt 0.612888 0.296858
vt 0.616846 0.306415
vt 0.616846 0.306415
vt 0.616846 0.306415
vt 0.620857 0.316098
vt 0.620857 0.316098
vt 0.620857 0.316098
vt 0.620857 0.316098
vt 0.622862 0.320939
vt 0.622862 0.320939
vt 0.622862 0.320939
vt 0.622862 0.320939
vt 0.620857 0.316098
vt 0.620857 0.316098
vt 0.620857 0.316098
vt 0.620857 0.316098
vt 0.616846 0.306415
vt 0.616846 0.306415
vt 0.616846 0.306415
vt 0.616846 0.306415
vt 0.612888 0.296858
vt 0.612888 0.296858
vt 0.611096 0.298193
vt 0.614845 0.307244
vt 0.611096 0.298193
vt 0.614845 0.307244
vt 0.614845 0.307244
vt 0.614845 0.307244
vt 0.619524 0.31854
vt 0.619524 0.31854
vt 0.619524 0.31854
vt 0.619524 0.31854
vt 0.614845 0.307244
vt 0.614845 0.307244
vt 0.614845 0.307244
vt 0.614845 0.307244
vt 0.611096 0.298193
vt 0.611096 0.298193
vn -0.3816779 0.9178333 0.1091053
vn -0.1602584 0.9870322 -0.009201094
vn -0.09211944 0.9926007 0.07910564
vn -0.9886872 -0.1370142 -0.06103273
vn -0.536314 -0.8434947 -0.02973336
vn -0.5270762 0.8492928 -0.02987144
vn -0.998546 -0.009360153 -0.05308738
vn -0.5270762 0.8492928 -0.02987144
vn -0.536314 -0.8434947 -0.02973336
vn 0.1114118 -0.9900276 0.08621385
vn 0.4413117 -0.8969498 0.02692505
vn 0.3198783 -0.9472849 -0.01814294
vn -0.8954189 0.01484149 0.4449774
vn -0.3816779 0.9178333 0.1091053
vn -0.09211944 0.9926007 0.07910564
vn 0.003522119 0.9879112 0.1549805
vn -0.01597284 -0.01627783 0.9997399
vn -0.1672276 -0.9850386 0.04163973
vn -0.000909041 -0.9876182 0.156874
vn 0.003522119 0.9879112 0.1549805
vn 0.2685289 0.9631374 -0.01607929
vn 0.3041877 0.9525216 0.01313464
vn -0.130411 0.9914027 -0.01066134
vn -0.09211944 0.9926007 0.07910564
vn -0.1602584 0.9870322 -0.009201094
vn 0.3041877 0.9525216 0.01313464
vn 0.2685289 0.9631374 -0.01607929
vn 0.998292 0.01001524 -0.05755698
vn 0.990953 -0.1222691 -0.05533936
vn 0.4359676 0.8980607 0.05847387
vn 0.3198783 -0.9472849 -0.01814294
vn 0.267866 -0.9633219 -0.01608118
vn 0.4413117 -0.8969498 0.02692505
vn 0.4365695 -0.8971269 0.06760588
vn 0.003522119 0.9879112 0.1549805
vn 0.4359676 0.8980607 0.05847387
vn 0.7177797 -0.071366 0.6926032
vn -0.01597284 -0.01627783 0.9997399
vn -0.000909041 -0.9876182 0.156874
vn 0.4365695 -0.8971269 0.06760588
vn 0.1114118 -0.9900276 0.08621385
vn 0.4413117 -0.8969498 0.02692505
vn -0.000909041 -0.9876182 0.156874
vn -0.1308951 -0.9913461 -0.009969357
vn -0.1672276 -0.9850386 0.04163973
vn 0.267866 -0.9633219 -0.01608118
vn 0.1114118 -0.9900276 0.08621385
vn 0.3198783 -0.9472849 -0.01814294
vn 0.4359676 0.8980607 0.05847387
vn 0.4365695 -0.8971269 0.06760588
vn 0.7177797 -0.071366 0.6926032
vn 0.990953 -0.1222691 -0.05533936
vn 0.2813119 0 0.9596164
vn 0 0.4961343 0.8682458
vn 0.1284044 0.4312786 0.8930347
vn 0 0 1
vn -0.1281907 0.4308974 0.8932495
vn -0.281725 0 0.9594952
vn -0.128191 -0.430893 0.8932515
vn 0 -0.4961286 0.8682491
vn 0.1284047 -0.4312743 0.8930367
vn -0.3726972 0 -0.927953
vn -0.284071 0.5495735 -0.785667
vn -0.1705847 0.4145691 -0.8938867
vn -0.2294802 0 -0.9733133
vn -0.2840712 -0.5495734 -0.7856669
vn -0.1705831 -0.4145671 -0.8938878
vn 5.180998E-05 0 -1
vn 0 0.468622 -0.8833988
vn 0.2290145 0 -0.973423
vn 0 -0.4686175 -0.8834012
vn 0.284129 0.5496536 -0.7855899
vn 0.2841293 -0.5496535 -0.7855899
vn 0.1702725 0.4144153 -0.8940176
vn 0.1702709 -0.4144131 -0.8940187
vn 0.3734128 0 -0.9276653
vn 0 -0.816615 -0.5771827
vn 0.8496121 4.952078E-05 -0.527408
vn 0 0.8358025 -0.5490301
vn -0.8496121 4.9381E-05 -0.5274082
vn 0.3734128 0 -0.9276653
vn 0.3177794 0.8058544 0.4996148
vn 0.1702725 0.4144153 -0.8940176
vn 0.284129 0.5496536 -0.7855899
vn 0.8166354 0 0.577154
vn -0.04644778 0.7961257 0.6033459
vn 0.317785 -0.8058438 0.4996284
vn 0.1702709 -0.4144131 -0.8940187
vn 0.2841293 -0.5496535 -0.7855899
vn -0.04644948 -0.7961239 0.6033484
vn 0 0.468622 -0.8833988
vn 0 0.9386135 0.3449705
vn 0 -0.4686175 -0.8834012
vn 0 -0.9386054 0.3449926
vn 0.04644326 0.7961286 0.6033427
vn -0.284071 0.5495735 -0.785667
vn 0.04644499 -0.7961266 0.603345
vn -0.2840712 -0.5495734 -0.7856669
vn -0.1705847 0.4145691 -0.8938867
vn -0.318337 0.8060457 0.4989509
vn -0.1705831 -0.4145671 -0.8938878
vn -0.3183425 -0.806035 0.4989645
vn -0.816975 0 0.576673
vn -0.3726972 0 -0.927953
vn 0.9999824 0 -0.005940111
vn 0.9999728 0 -0.007373102
vn 0 -0.9999739 -0.007237968
vn 0 0.9999938 -0.003517904
vn 0 -0.9999905 -0.004381204
vn 0 0.9999905 -0.004381204
vn -0.9999824 0 -0.005937361
vn -0.9999728 0 -0.007370736
vn 0 -0.816615 -0.5771827
vn -0.8496121 4.9381E-05 -0.5274082
vn -0.9999728 0 -0.007370736
vn 0 0.8358025 -0.5490301
vn 0 -0.9999739 -0.007237968
vn 0 0.9999938 -0.003517904
vn 0.9999728 0 -0.007373102
vn 0.8496121 4.952078E-05 -0.527408
vn -0.120938 0.4624411 -0.8783634
vn -0.2987551 0 -0.9543298
vn -0.2976194 0 0.9546846
vn -0.1209405 -0.4624413 -0.878363
vn -0.1476713 0.5654114 0.811482
vn -0.1476768 -0.5654208 0.8114744
vn 0 0.4565697 -0.8896876
vn 0 -0.4565775 -0.8896836
vn 0.08908361 0.8809164 0.4648124
vn -1.431165E-05 0.6571024 0.7538013
vn -0.08908197 0.880913 0.4648191
vn 0.1209507 0.4626855 -0.878233
vn 0.1476345 0.5654628 0.8114529
vn 0.08909216 -0.880919 0.4648057
vn -1.428525E-05 -0.6571196 0.7537863
vn -0.08909048 -0.8809156 0.4648124
vn 0.1209532 -0.4626856 -0.8782325
vn 0.14764 -0.5654721 0.8114454
vn 0.2994185 0 -0.9541219
vn 0.2965264 0 0.9550247
vn 0.2813119 0 0.9596164
vn 0.2632865 0.8773224 -0.4012304
vn 0.8542761 0 -0.5198195
vn 0.2632878 -0.8773156 -0.401244
vn 0.1284044 0.4312786 0.8930347
vn 0.1284047 -0.4312743 0.8930367
vn 0 0.8697099 -0.4935632
vn 0 -0.8697025 -0.4935765
vn 0 0.4961343 0.8682458
vn 0 -0.4961286 0.8682491
vn -0.2630053 0.8771076 -0.4018837
vn -0.2630065 -0.877101 -0.4018973
vn -0.1281907 0.4308974 0.8932495
vn -0.128191 -0.430893 0.8932515
vn -0.8533041 0 -0.5214137
vn -0.281725 0 0.9594952
vn -0.9975805 -0.03153752 -0.06195459
vn -0.130411 0.9914027 -0.01066134
vn -0.5270762 0.8492928 -0.02987144
vn -0.1602584 0.9870322 -0.009201094
vn -0.998546 -0.009360153 -0.05308738
vn -0.9886872 -0.1370142 -0.06103273
vn -0.536314 -0.8434947 -0.02973336
vn -0.1308951 -0.9913461 -0.009969357
vn -0.1672276 -0.9850386 0.04163973
vn -0.3816779 0.9178333 0.1091053
vn -0.8954189 0.01484149 0.4449774
vn 0.3177794 0.8058544 0.4996148
vn 0.8166354 0 0.577154
vn 0.2965264 0 0.9550247
vn 0.317785 -0.8058438 0.4996284
vn 0.1476345 0.5654628 0.8114529
vn 0.14764 -0.5654721 0.8114454
vn -0.04644778 0.7961257 0.6033459
vn -0.04644948 -0.7961239 0.6033484
vn -0.08908197 0.880913 0.4648191
vn -0.08909048 -0.8809156 0.4648124
vn 0 0.9386135 0.3449705
vn 0 -0.9386054 0.3449926
vn -1.431165E-05 0.6571024 0.7538013
vn -1.428525E-05 -0.6571196 0.7537863
vn 0.04644326 0.7961286 0.6033427
vn 0.04644499 -0.7961266 0.603345
vn 0.08908361 0.8809164 0.4648124
vn 0.08909216 -0.880919 0.4648057
vn -0.318337 0.8060457 0.4989509
vn -0.3183425 -0.806035 0.4989645
vn -0.1476713 0.5654114 0.811482
vn -0.1476768 -0.5654208 0.8114744
vn -0.816975 0 0.576673
vn -0.2976194 0 0.9546846
vn 0.8542761 0 -0.5198195
vn 0.1209507 0.4626855 -0.878233
vn 0.2994185 0 -0.9541219
vn 0.1209532 -0.4626856 -0.8782325
vn 0.2632865 0.8773224 -0.4012304
vn 0.2632878 -0.8773156 -0.401244
vn 0 0.4565697 -0.8896876
vn 0 -0.4565775 -0.8896836
vn 0 0.8697099 -0.4935632
vn 0 -0.8697025 -0.4935765
vn -0.120938 0.4624411 -0.8783634
vn -0.1209405 -0.4624413 -0.878363
vn -0.2630053 0.8771076 -0.4018837
vn -0.2630065 -0.877101 -0.4018973
vn -0.2987551 0 -0.9543298
vn -0.8533041 0 -0.5214137
g sword_fire_001_0
f 3/3/3 2/2/2 1/1/1
f 6/6/6 5/5/5 4/4/4
f 9/9/9 8/8/8 7/7/7
f 12/12/12 11/11/11 10/10/10
f 15/15/15 14/14/14 13/13/13
f 13/13/13 16/16/16 15/15/15
f 13/13/13 17/17/17 16/16/16
f 13/13/13 18/18/18 17/17/17
f 18/18/18 19/19/19 17/17/17
f 22/22/22 21/21/21 20/20/20
f 20/20/20 21/21/21 23/23/23
f 24/24/24 20/20/20 23/23/23
f 25/25/25 24/24/24 23/23/23
f 28/28/28 27/27/27 26/26/26
f 26/26/26 29/29/29 28/28/28
f 26/26/26 30/30/30 29/29/29
f 28/28/28 29/29/29 31/31/31
f 31/31/31 32/32/32 28/28/28
f 29/29/29 33/33/33 31/31/31
f 29/29/29 34/34/34 33/33/33
f 36/36/36 26/26/26 35/35/35
f 35/35/35 37/37/37 36/36/36
f 35/35/35 38/38/38 37/37/37
f 37/37/37 38/38/38 39/39/39
f 40/40/40 37/37/37 39/39/39
f 40/40/40 39/39/39 41/41/41
f 41/41/41 42/42/42 40/40/40
f 45/45/45 44/44/44 43/43/43
f 44/44/44 46/46/46 43/43/43
f 47/47/47 43/43/43 46/46/46
f 48/48/48 47/47/47 46/46/46
f 51/51/51 50/50/50 49/49/49
f 49/49/49 50/50/50 52/52/52
f 55/55/55 54/54/54 53/53/53
f 54/54/54 56/56/56 53/53/53
f 56/56/56 54/54/54 57/57/57
f 58/58/58 56/56/56 57/57/57
f 56/56/56 58/58/58 59/59/59
f 60/60/60 56/56/56 59/59/59
f 56/56/56 60/60/60 53/53/53
f 60/60/60 61/61/61 53/53/53
f 64/64/64 63/63/63 62/62/62
f 63/63/63 65/65/65 62/62/62
f 65/65/65 66/66/66 62/62/62
f 66/66/66 67/67/67 62/62/62
f 65/65/65 63/63/63 68/68/68
f 66/66/66 65/65/65 68/68/68
f 63/63/63 69/69/69 68/68/68
f 70/70/70 68/68/68 69/69/69
f 71/71/71 66/66/66 68/68/68
f 68/68/68 70/70/70 71/71/71
f 72/72/72 70/70/70 69/69/69
f 70/70/70 73/73/73 71/71/71
f 70/70/70 72/72/72 74/74/74
f 73/73/73 70/70/70 75/75/75
f 76/76/76 70/70/70 74/74/74
f 70/70/70 76/76/76 75/75/75
f 79/79/79 78/78/78 77/77/77
f 80/80/80 79/79/79 77/77/77
f 83/83/83 82/82/82 81/81/81
f 82/82/82 83/83/83 84/84/84
f 82/82/82 85/85/85 81/81/81
f 86/86/86 82/82/82 84/84/84
f 85/85/85 87/87/87 81/81/81
f 87/87/87 88/88/88 81/81/81
f 88/88/88 87/87/87 89/89/89
f 87/87/87 90/90/90 89/89/89
f 86/86/86 84/84/84 91/91/91
f 92/92/92 86/86/86 91/91/91
f 89/89/89 90/90/90 93/93/93
f 90/90/90 94/94/94 93/93/93
f 95/95/95 92/92/92 91/91/91
f 96/96/96 95/95/95 91/91/91
f 94/94/94 97/97/97 93/93/93
f 97/97/97 98/98/98 93/93/93
f 95/95/95 96/96/96 99/99/99
f 100/100/100 95/95/95 99/99/99
f 98/98/98 97/97/97 101/101/101
f 97/97/97 102/102/102 101/101/101
f 103/103/103 100/100/100 99/99/99
f 102/102/102 103/103/103 101/101/101
f 104/104/104 103/103/103 99/99/99
f 103/103/103 104/104/104 101/101/101
f 107/107/107 106/106/106 105/105/105
f 106/106/106 108/108/108 105/105/105
f 109/109/109 107/107/107 105/105/105
f 108/108/108 110/110/110 105/105/105
f 109/109/109 111/111/111 107/107/107
f 111/111/111 110/110/110 108/108/108
f 111/111/111 112/112/112 107/107/107
f 112/112/112 111/111/111 108/108/108
f 115/115/115 114/114/114 113/113/113
f 114/114/114 115/115/115 116/116/116
f 117/117/117 115/115/115 113/113/113
f 115/115/115 118/118/118 116/116/116
f 119/119/119 117/117/117 113/113/113
f 118/118/118 119/119/119 116/116/116
f 120/120/120 119/119/119 113/113/113
f 119/119/119 120/120/120 116/116/116
f 123/123/123 122/122/122 121/121/121
f 122/122/122 123/123/123 124/124/124
f 125/125/125 123/123/123 121/121/121
f 123/123/123 126/126/126 124/124/124
f 125/125/125 121/121/121 127/127/127
f 124/124/124 126/126/126 128/128/128
f 129/129/129 125/125/125 127/127/127
f 130/130/130 129/129/129 127/127/127
f 127/127/127 131/131/131 130/130/130
f 131/131/131 127/127/127 132/132/132
f 133/133/133 131/131/131 132/132/132
f 126/126/126 134/134/134 128/128/128
f 128/128/128 134/134/134 135/135/135
f 135/135/135 136/136/136 128/128/128
f 128/128/128 136/136/136 137/137/137
f 136/136/136 138/138/138 137/137/137
f 133/133/133 132/132/132 139/139/139
f 137/137/137 138/138/138 139/139/139
f 140/140/140 133/133/133 139/139/139
f 138/138/138 140/140/140 139/139/139
f 143/143/143 142/142/142 141/141/141
f 144/144/144 143/143/143 141/141/141
f 142/142/142 145/145/145 141/141/141
f 146/146/146 144/144/144 141/141/141
f 142/142/142 147/147/147 145/145/145
f 148/148/148 144/144/144 146/146/146
f 147/147/147 149/149/149 145/145/145
f 150/150/150 148/148/148 146/146/146
f 147/147/147 151/151/151 149/149/149
f 152/152/152 148/148/148 150/150/150
f 151/151/151 153/153/153 149/149/149
f 154/154/154 152/152/152 150/150/150
f 151/151/151 155/155/155 153/153/153
f 155/155/155 152/152/152 154/154/154
f 155/155/155 156/156/156 153/153/153
f 156/156/156 155/155/155 154/154/154
f 159/159/159 158/158/158 157/157/157
f 158/158/158 159/159/159 160/160/160
f 161/161/161 159/159/159 157/157/157
f 162/162/162 160/160/160 159/159/159
f 163/163/163 161/161/161 157/157/157
f 164/164/164 163/163/163 157/157/157
f 165/165/165 163/163/163 164/164/164
f 165/165/165 162/162/162 163/163/163
f 160/160/160 162/162/162 166/166/166
f 162/162/162 165/165/165 167/167/167
f 162/162/162 167/167/167 166/166/166
f 170/170/170 169/169/169 168/168/168
f 169/169/169 170/170/170 171/171/171
f 172/172/172 170/170/170 168/168/168
f 170/170/170 173/173/173 171/171/171
f 172/172/172 168/168/168 174/174/174
f 171/171/171 173/173/173 175/175/175
f 176/176/176 172/172/172 174/174/174
f 173/173/173 177/177/177 175/175/175
f 176/176/176 174/174/174 178/178/178
f 175/175/175 177/177/177 179/179/179
f 180/180/180 176/176/176 178/178/178
f 177/177/177 181/181/181 179/179/179
f 180/180/180 178/178/178 182/182/182
f 179/179/179 181/181/181 183/183/183
f 184/184/184 180/180/180 182/182/182
f 181/181/181 185/185/185 183/183/183
f 184/184/184 182/182/182 186/186/186
f 183/183/183 185/185/185 187/187/187
f 188/188/188 184/184/184 186/186/186
f 185/185/185 189/189/189 187/187/187
f 188/188/188 186/186/186 190/190/190
f 187/187/187 189/189/189 190/190/190
f 191/191/191 188/188/188 190/190/190
f 189/189/189 191/191/191 190/190/190
f 194/194/194 193/193/193 192/192/192
f 195/195/195 194/194/194 192/192/192
f 193/193/193 196/196/196 192/192/192
f 197/197/197 195/195/195 192/192/192
f 193/193/193 198/198/198 196/196/196
f 199/199/199 195/195/195 197/197/197
f 198/198/198 200/200/200 196/196/196
f 201/201/201 199/199/199 197/197/197
f 198/198/198 202/202/202 200/200/200
f 203/203/203 199/199/199 201/201/201
f 202/202/202 204/204/204 200/200/200
f 205/205/205 203/203/203 201/201/201
f 202/202/202 206/206/206 204/204/204
f 206/206/206 203/203/203 205/205/205
f 206/206/206 207/207/207 204/204/204
f 207/207/207 206/206/206 205/205/205
