g sword_basic_207_orb
v 0 0.067276 -9.536743E-07
v -0.1275215 0.0424614 -9.536743E-07
v -0.09017181 0.0424614 -0.09017181
v -0.09017181 0.0424614 0.09017086
v -0.09017181 -0.04246235 -0.09017181
v -0.1275215 -0.04246235 -9.536743E-07
v 0 -0.067276 -9.536743E-07
v 0 -0.04246235 -0.1275215
v -0.09017181 -0.04246235 0.09017086
v 0 0.0424614 -0.1275215
v 0 0.0424614 0.1275215
v 0.09016991 -0.04246235 -0.09017181
v 0 -0.04246235 0.1275215
v 0.09016991 0.0424614 -0.09017181
v 0.09016991 0.0424614 0.09017086
v 0.09016991 -0.04246235 0.09017086
v 0.1275215 -0.04246235 -9.536743E-07
v 0.1275215 0.0424614 -9.536743E-07
vt 0.6385173 0.149625
vt 0.6527473 0.4782136
vt 0.608875 0.4782136
vt 0.608875 0.4782136
vt 0.608875 0.4782136
vt 0.6527473 0.4782136
vt 0.6385173 0.149625
vt 0.6527473 0.4782136
vt 0.608875 0.4782136
vt 0.6527473 0.4782136
vt 0.6527473 0.4782136
vt 0.608875 0.4782136
vt 0.6527473 0.4782136
vt 0.608875 0.4782136
vt 0.608875 0.4782136
vt 0.608875 0.4782136
vt 0.6527473 0.4782136
vt 0.6527473 0.4782136
vn 0 1 0
vn -0.8906739 0.4546427 0
vn -0.6298003 0.4546402 -0.6298047
vn -0.6298037 0.4546428 0.6297992
vn -0.6297998 -0.4546415 -0.6298042
vn -0.8906732 -0.4546439 0
vn 0 -1 0
vn 0 -0.4546407 -0.8906749
vn -0.6298033 -0.454644 0.6297988
vn 0 0.4546395 -0.8906755
vn 0 0.4546424 0.8906741
vn 0.6297999 -0.454641 -0.6298044
vn 0 -0.4546436 0.8906734
vn 0.6298004 0.4546399 -0.6298048
vn 0.6298037 0.4546424 0.6297994
vn 0.6298033 -0.4546437 0.629799
vn 0.8906758 -0.454639 0
vn 0.8906763 0.4546378 0
g sword_basic_207_orb_0
f 3/3/3 2/2/2 1/1/1
f 2/2/2 4/4/4 1/1/1
f 2/2/2 3/3/3 5/5/5
f 4/4/4 2/2/2 6/6/6
f 6/6/6 2/2/2 5/5/5
f 7/7/7 6/6/6 5/5/5
f 5/5/5 3/3/3 8/8/8
f 7/7/7 5/5/5 8/8/8
f 9/9/9 4/4/4 6/6/6
f 7/7/7 9/9/9 6/6/6
f 3/3/3 10/10/10 8/8/8
f 10/10/10 3/3/3 1/1/1
f 11/11/11 4/4/4 9/9/9
f 4/4/4 11/11/11 1/1/1
f 8/8/8 10/10/10 12/12/12
f 7/7/7 8/8/8 12/12/12
f 13/13/13 11/11/11 9/9/9
f 7/7/7 13/13/13 9/9/9
f 10/10/10 14/14/14 12/12/12
f 14/14/14 10/10/10 1/1/1
f 11/11/11 15/15/15 1/1/1
f 15/15/15 11/11/11 13/13/13
f 7/7/7 16/16/16 13/13/13
f 16/16/16 15/15/15 13/13/13
f 7/7/7 12/12/12 17/17/17
f 12/12/12 14/14/14 17/17/17
f 7/7/7 17/17/17 16/16/16
f 15/15/15 18/18/18 1/1/1
f 18/18/18 14/14/14 1/1/1
f 18/18/18 15/15/15 16/16/16
f 17/17/17 18/18/18 16/16/16
f 14/14/14 18/18/18 17/17/17
