g sword_reward_001_blade
v 0.07283241 0.07260263 0.3337314
v 0.06414965 0.04838163 0.4017483
v -0.01628096 0.07260263 0.4513774
v 0.0688796 0.03814736 0.5592303
v -0.01628096 0.04979357 0.5592303
v -0.01628096 0.04438321 0.7192943
v 0.08741665 0.03554772 0.7192943
v -0.01628096 0.05074493 1.00531
v 0.08229846 0.03147976 1.00531
v -0.01628096 0.0572156 1.101382
v 0.05931127 0.03503174 1.101382
v -0.01628089 0.04465312 1.217557
v 0.01976294 0.03015631 1.217557
v -0.01628089 0.02860039 1.330709
v 0.06414965 -0.01683891 0.4017482
v 0.07358995 -0.04105994 0.3337314
v -0.01628096 -0.04105994 0.4513774
v 0.0688796 -0.006604686 0.5592303
v -0.01628096 -0.01825087 0.5592303
v 0.08741665 -0.004004993 0.7192943
v -0.01628096 -0.01284052 0.7192943
v 0.08229846 -0.007476658 1.00531
v -0.01628096 -0.01920222 1.00531
v 0.05931127 -0.003489047 1.101382
v -0.01628096 -0.02567285 1.101382
v 0.01976294 0.001386374 1.217557
v -0.01628089 -0.01311043 1.217557
v -0.01628089 0.002942324 1.330709
v -0.01628089 0.02860039 1.330709
v 0.01130252 0.01577136 1.33814
v -0.0134631 0.01657814 1.392048
v 0.06241754 0.01577136 1.217557
v 0.01976294 0.03015631 1.217557
v 0.112336 0.01577134 1.101382
v 0.05931127 0.03503174 1.101382
v 0.1316596 0.01577134 1.00531
v 0.08229846 0.03147976 1.00531
v 0.1187773 0.01577134 0.7192943
v 0.08741665 0.03554772 0.7192943
v 0.1039936 0.01577136 0.5592303
v 0.0688796 0.03814736 0.5592303
v 0.09945413 0.01577136 0.4017483
v 0.06414965 0.04838163 0.4017483
v 0.1342706 0.01577133 0.2699479
v 0.07283241 0.07260263 0.3337314
v 0.08214745 0.1062917 0.2699479
v 0.08214745 -0.07474893 0.2699479
v -0.01628096 0.1347595 0.2699479
v -0.01628096 -0.1032168 0.2699479
v -0.1029735 -0.07474893 0.2699479
v -0.1029735 0.1062917 0.2699479
v -0.1555802 0.01577133 0.2699479
v -0.0134631 0.01657814 1.392048
v 0.01130252 0.01577136 1.33814
v -0.01628089 0.002942324 1.330709
v 0.01976294 0.001386374 1.217557
v 0.06241754 0.01577136 1.217557
v 0.05931127 -0.003489047 1.101382
v 0.112336 0.01577134 1.101382
v 0.08229846 -0.007476658 1.00531
v 0.1316596 0.01577134 1.00531
v 0.08741665 -0.004004993 0.7192943
v 0.1187773 0.01577134 0.7192943
v 0.0688796 -0.006604686 0.5592303
v 0.1039936 0.01577136 0.5592303
v 0.06414965 -0.01683891 0.4017482
v 0.09945413 0.01577136 0.4017483
v 0.07358995 -0.04105994 0.3337314
v 0.1342706 0.01577133 0.2699479
v -0.0134631 0.01657814 1.392048
v -0.01628089 0.002942324 1.330709
v -0.03757505 0.01577136 1.33814
v -0.04744579 0.001386374 1.217557
v -0.08538127 0.01577136 1.217557
v -0.08021027 -0.003489047 1.101382
v -0.1336458 0.01577134 1.101382
v -0.103133 6.295741E-05 1.00531
v -0.1529694 0.01577134 1.00531
v -0.1082943 -0.004004993 0.7192943
v -0.140087 0.01577134 0.7192943
v -0.08980638 -0.006604686 0.5592303
v -0.1253034 0.01577136 0.5592303
v -0.08509171 -0.01683891 0.4017482
v -0.1207635 0.01577136 0.4017483
v -0.1555802 0.01577133 0.2699479
v -0.09501365 -0.04105994 0.3337313
v -0.08509171 0.04838163 0.4017483
v -0.1555802 0.01577133 0.2699479
v -0.09362546 0.07260263 0.3337314
v -0.1207635 0.01577136 0.4017483
v -0.08980638 0.03814736 0.5592303
v -0.1253034 0.01577136 0.5592303
v -0.1082943 0.03554772 0.7192943
v -0.140087 0.01577134 0.7192943
v -0.103133 0.03901935 1.00531
v -0.1529694 0.01577134 1.00531
v -0.08021027 0.03503174 1.101382
v -0.1336458 0.01577134 1.101382
v -0.04744579 0.03015631 1.217557
v -0.08538127 0.01577136 1.217557
v -0.01628089 0.02860039 1.330709
v -0.03757505 0.01577136 1.33814
v -0.0134631 0.01657814 1.392048
v -0.01628096 0.07260263 0.4513774
v -0.08509171 0.04838163 0.4017483
v -0.09362546 0.07260263 0.3337314
v -0.01628096 0.04979357 0.5592303
v -0.08980638 0.03814736 0.5592303
v -0.01628096 0.04438321 0.7192943
v -0.1082943 0.03554772 0.7192943
v -0.01628096 0.05074493 1.00531
v -0.103133 0.03901935 1.00531
v -0.01628096 0.0572156 1.101382
v -0.08021027 0.03503174 1.101382
v -0.01628089 0.04465312 1.217557
v -0.04744579 0.03015631 1.217557
v -0.01628089 0.02860039 1.330709
v -0.09501365 -0.04105994 0.3337313
v -0.08509171 -0.01683891 0.4017482
v -0.01628096 -0.04105994 0.4513774
v -0.08980638 -0.006604686 0.5592303
v -0.01628096 -0.01825087 0.5592303
v -0.1082943 -0.004004993 0.7192943
v -0.01628096 -0.01284052 0.7192943
v -0.103133 6.295741E-05 1.00531
v -0.01628096 -0.01920222 1.00531
v -0.08021027 -0.003489047 1.101382
v -0.01628096 -0.02567285 1.101382
v -0.04744579 0.001386374 1.217557
v -0.01628089 -0.01311043 1.217557
v -0.01628089 0.002942324 1.330709
v 0.1342706 0.01577133 0.2699479
v 0.07283241 0.07260263 0.3337314
v 0.08214745 0.1062917 0.2699479
v -0.01628096 0.07260263 0.4513774
v -0.01628096 0.1347595 0.2699479
v -0.1029735 0.1062917 0.2699479
v -0.09362546 0.07260263 0.3337314
v -0.1555802 0.01577133 0.2699479
v 0.08214745 -0.07474893 0.2699479
v 0.07358995 -0.04105994 0.3337314
v -0.01628096 -0.1032168 0.2699479
v -0.01628096 -0.04105994 0.4513774
v -0.09501365 -0.04105994 0.3337313
v -0.1029735 -0.07474893 0.2699479
vt 0.6087655 0.7703132
vt 0.6112875 0.7695061
vt 0.6147189 0.7614964
vt 0.6206293 0.7700104
vt 0.6205258 0.7615906
vt 0.6221732 0.7620735
vt 0.6221884 0.7704548
vt 0.6317269 0.7620006
vt 0.6317049 0.7700977
vt 0.6506524 0.761444
vt 0.6505229 0.7691443
vt 0.6649802 0.7614858
vt 0.6648391 0.7651864
vt 0.6690352 0.7615463
vt 0.612339 0.7696123
vt 0.6108314 0.7705304
vt 0.6163768 0.7620491
vt 0.6211345 0.7700748
vt 0.6212922 0.7619236
vt 0.6222934 0.7704765
vt 0.6223249 0.7623038
vt 0.6316532 0.7701251
vt 0.6316341 0.7622868
vt 0.6502774 0.7692151
vt 0.6501252 0.7618627
vt 0.6645411 0.7652882
vt 0.6643823 0.7617796
vt 0.668668 0.7616776
vt 0.5829353 0.4480185
vt 0.5831093 0.4491468
vt 0.5862482 0.4481189
vt 0.5761214 0.4512723
vt 0.5763742 0.4495285
vt 0.5688429 0.4533501
vt 0.5691187 0.4511989
vt 0.5558968 0.4537787
vt 0.556747 0.4519547
vt 0.5380443 0.4536356
vt 0.538121 0.4523906
vt 0.5340698 0.4530243
vt 0.5340651 0.4516199
vt 0.5280456 0.4528398
vt 0.5279097 0.4514527
vt 0.520281 0.4543079
vt 0.5237085 0.451901
vt 0.5196053 0.452419
vt 0.5208681 0.4518348
vt 0.5193443 0.4481598
vt 0.5210137 0.4477843
vt 0.5207964 0.4442794
vt 0.5195224 0.4442994
vt 0.5201603 0.4420522
vt 0.5900404 0.4541674
vt 0.5869015 0.4531395
vt 0.5862805 0.4543079
vt 0.5797385 0.4528198
vt 0.5799137 0.451014
vt 0.5724398 0.4511954
vt 0.5726352 0.4489362
vt 0.5602132 0.4505792
vt 0.559689 0.4485076
vt 0.5417743 0.4500256
vt 0.5418366 0.4486507
vt 0.5378658 0.4508001
vt 0.5378621 0.449262
vt 0.5319542 0.4510238
vt 0.5318379 0.4494465
vt 0.5281224 0.4507026
vt 0.5240733 0.4479784
vt 0.5922887 0.4429248
vt 0.5896578 0.443021
vt 0.5900587 0.4442267
vt 0.5842746 0.44469
vt 0.5843515 0.4468078
vt 0.5619193 0.4494518
vt 0.5619987 0.4524341
vt 0.5544456 0.4476711
vt 0.5544924 0.450445
vt 0.546436 0.4479127
vt 0.5464536 0.4497424
vt 0.5399296 0.4468943
vt 0.5399089 0.4489369
vt 0.5365695 0.446579
vt 0.5364729 0.4486844
vt 0.5310766 0.4505684
vt 0.5339131 0.4469846
vt 0.5321679 0.4484453
vt 0.5269051 0.4447905
vt 0.5292247 0.4478463
vt 0.5323014 0.4466745
vt 0.5357044 0.4482313
vt 0.5357374 0.446422
vt 0.5423101 0.4472261
vt 0.5422821 0.4456165
vt 0.5504819 0.4474746
vt 0.5503209 0.4449139
vt 0.5580068 0.4457138
vt 0.5578272 0.4429248
vt 0.5803456 0.4505427
vt 0.58018 0.4485511
vt 0.5857453 0.4522408
vt 0.5858872 0.4511322
vt 0.5881172 0.4524341
vt 0.6619909 0.7617746
vt 0.6649058 0.7645717
vt 0.6694338 0.7650633
vt 0.6549734 0.7616763
vt 0.6548927 0.7647164
vt 0.6447649 0.7616506
vt 0.6447695 0.7654786
vt 0.6264196 0.7616717
vt 0.6265915 0.7652884
vt 0.6201626 0.7616972
vt 0.6204734 0.7643039
vt 0.6148205 0.7581331
vt 0.6133462 0.7589318
vt 0.6112178 0.7540958
vt 0.6683348 0.7645098
vt 0.6643887 0.7642309
vt 0.6612286 0.7613124
vt 0.6547185 0.7644786
vt 0.6547066 0.7613994
vt 0.6447786 0.7652557
vt 0.6447782 0.7614175
vt 0.626891 0.7650709
vt 0.6269605 0.761386
vt 0.6208665 0.7641042
vt 0.6210142 0.7613582
vt 0.613717 0.7590798
vt 0.6155268 0.7584477
vt 0.6115723 0.7542796
vt 0.6710181 0.7582414
vt 0.6669997 0.760416
vt 0.6714536 0.7601511
vt 0.6409918 0.7635502
vt 0.6534991 0.7637941
vt 0.6713674 0.7667378
vt 0.6669691 0.7662236
vt 0.670899 0.7679318
vt 0.6705919 0.7598823
vt 0.6667763 0.7601986
vt 0.6523766 0.7629087
vt 0.6413594 0.7631238
vt 0.6667497 0.7656494
vt 0.6705244 0.7657189
vn 0.5279105 0.77173 0.3546029
vn 0.5042723 0.84767 0.1648185
vn 0.001726485 0.9582625 0.2858845
vn 0.3050695 0.9518369 0.03064686
vn -0.001196544 0.9977379 0.06721471
vn 0.01271438 0.9999191 0.0004021403
vn 0.2404391 0.9706559 -0.004016647
vn 0.02095591 0.9997446 -0.008462539
vn 0.2360591 0.9717283 0.004479886
vn 0.01914106 0.9985957 0.04939865
vn 0.2815526 0.9579206 0.055825
vn -0.001642646 0.991441 0.1305453
vn 0.3289738 0.9350362 0.1322252
vn -0.01221063 0.988663 0.1496539
vn 0.505147 -0.8468889 0.1661498
vn 0.5285848 -0.7719685 0.353076
vn 0.001662294 -0.9582633 0.2858823
vn 0.3050692 -0.9518369 0.03064689
vn -0.001196558 -0.9977379 0.06721462
vn 0.2494175 -0.9683062 -0.01318875
vn -0.01318484 -0.9999131 -0.0001121352
vn 0.2257627 -0.9741821 0.0006464212
vn -0.02116384 -0.9997407 -0.008406727
vn 0.282117 -0.9557713 0.08313329
vn -0.008202925 -0.9986464 0.05136137
vn 0.3289737 -0.9350363 0.1322252
vn -0.001642641 -0.991441 0.1305451
vn -0.01187532 -0.9884007 0.1514037
vn -0.01221063 0.988663 0.1496539
vn 0.9292117 -0.01358812 0.3692979
vn 0.1131591 0.1923055 0.974789
vn 0.9180307 0 0.3965094
vn 0.3289738 0.9350362 0.1322252
vn 0.9595776 0 0.2814443
vn 0.2815526 0.9579206 0.055825
vn 0.9987341 -0.03497107 0.03615551
vn 0.2360591 0.9717283 0.004479886
vn 0.9992425 0 -0.03891467
vn 0.2404391 0.9706559 -0.004016647
vn 0.9993247 0 -0.03674368
vn 0.3050695 0.9518369 0.03064686
vn 0.9830152 0.002844012 0.1835025
vn 0.5042723 0.84767 0.1648185
vn 0.8397461 0.003540443 -0.5429676
vn 0.5279105 0.77173 0.3546029
vn 0.2360488 0.5345041 -0.8115333
vn 0.2359601 -0.5384597 -0.8089401
vn 0.007830133 0.5884784 -0.808475
vn 0.007811588 -0.5924635 -0.8055595
vn -0.2651243 -0.5344546 -0.8025381
vn -0.2654042 0.5268098 -0.807485
vn -0.8369222 0.006464865 -0.5472838
vn 0.1131591 0.1923055 0.974789
vn 0.9292117 -0.01358812 0.3692979
vn -0.01187532 -0.9884007 0.1514037
vn 0.3289737 -0.9350363 0.1322252
vn 0.9180307 0 0.3965094
vn 0.282117 -0.9557713 0.08313329
vn 0.9595776 0 0.2814443
vn 0.2257627 -0.9741821 0.0006464212
vn 0.9987341 -0.03497107 0.03615551
vn 0.2494175 -0.9683062 -0.01318875
vn 0.9992425 0 -0.03891467
vn 0.3050692 -0.9518369 0.03064689
vn 0.9993247 0 -0.03674368
vn 0.505147 -0.8468889 0.1661498
vn 0.9830152 0.002844012 0.1835025
vn 0.5285848 -0.7719685 0.353076
vn 0.8397461 0.003540443 -0.5429676
vn 0.1131591 0.1923055 0.974789
vn -0.01187532 -0.9884007 0.1514037
vn -0.9398234 -0.01194793 0.3414516
vn -0.370448 -0.9195285 0.1312843
vn -0.9309108 0 0.3652467
vn -0.3102776 -0.9488741 0.05801501
vn -0.9627339 0 0.2704505
vn -0.2533057 -0.9673698 0.005661451
vn -0.9987286 0.03518182 0.03610252
vn -0.2594326 -0.9657499 -0.004665706
vn -0.99925 0 -0.0387215
vn -0.3316819 -0.9429921 0.02744023
vn -0.9993384 0 -0.03636729
vn -0.5364522 -0.8276588 0.1649239
vn -0.9828044 0.005212924 0.1845758
vn -0.8369222 0.006464865 -0.5472838
vn -0.5672853 -0.7473229 0.3459707
vn -0.5345315 0.8293929 0.1624298
vn -0.8369222 0.006464865 -0.5472838
vn -0.5663525 0.7466435 0.348953
vn -0.9828044 0.005212924 0.1845758
vn -0.3316822 0.942992 0.02744021
vn -0.9993384 0 -0.03636729
vn -0.2684052 0.9632074 -0.01379126
vn -0.99925 0 -0.0387215
vn -0.2437586 0.9698336 0.00213277
vn -0.9987286 0.03518182 0.03610252
vn -0.3090289 0.9472827 0.08459612
vn -0.9627339 0 0.2704505
vn -0.3704483 0.9195284 0.1312844
vn -0.9309108 0 0.3652467
vn -0.01221063 0.988663 0.1496539
vn -0.9398234 -0.01194793 0.3414516
vn 0.1131591 0.1923055 0.974789
vn 0.001726485 0.9582625 0.2858845
vn -0.5345315 0.8293929 0.1624298
vn -0.5663525 0.7466435 0.348953
vn -0.001196544 0.9977379 0.06721471
vn -0.3316822 0.942992 0.02744021
vn 0.01271438 0.9999191 0.0004021403
vn -0.2684052 0.9632074 -0.01379126
vn 0.02095591 0.9997446 -0.008462539
vn -0.2437586 0.9698336 0.00213277
vn 0.01914106 0.9985957 0.04939865
vn -0.3090289 0.9472827 0.08459612
vn -0.001642646 0.991441 0.1305453
vn -0.3704483 0.9195284 0.1312844
vn -0.01221063 0.988663 0.1496539
vn -0.5672853 -0.7473229 0.3459707
vn -0.5364522 -0.8276588 0.1649239
vn 0.001662294 -0.9582633 0.2858823
vn -0.3316819 -0.9429921 0.02744023
vn -0.001196558 -0.9977379 0.06721462
vn -0.2594326 -0.9657499 -0.004665706
vn -0.01318484 -0.9999131 -0.0001121352
vn -0.2533057 -0.9673698 0.005661451
vn -0.02116384 -0.9997407 -0.008406727
vn -0.3102776 -0.9488741 0.05801501
vn -0.008202925 -0.9986464 0.05136137
vn -0.370448 -0.9195285 0.1312843
vn -0.001642641 -0.991441 0.1305451
vn -0.01187532 -0.9884007 0.1514037
vn 0.8397461 0.003540443 -0.5429676
vn 0.5279105 0.77173 0.3546029
vn 0.2360488 0.5345041 -0.8115333
vn 0.001726485 0.9582625 0.2858845
vn 0.007830133 0.5884784 -0.808475
vn -0.2654042 0.5268098 -0.807485
vn -0.5663525 0.7466435 0.348953
vn -0.8369222 0.006464865 -0.5472838
vn 0.2359601 -0.5384597 -0.8089401
vn 0.5285848 -0.7719685 0.353076
vn 0.007811588 -0.5924635 -0.8055595
vn 0.001662294 -0.9582633 0.2858823
vn -0.5672853 -0.7473229 0.3459707
vn -0.2651243 -0.5344546 -0.8025381
g sword_reward_001_blade_0
f 3/3/3 2/2/2 1/1/1
f 2/2/2 3/3/3 4/4/4
f 3/3/3 5/5/5 4/4/4
f 5/5/5 6/6/6 4/4/4
f 6/6/6 7/7/7 4/4/4
f 6/6/6 8/8/8 7/7/7
f 8/8/8 9/9/9 7/7/7
f 8/8/8 10/10/10 9/9/9
f 10/10/10 11/11/11 9/9/9
f 10/10/10 12/12/12 11/11/11
f 12/12/12 13/13/13 11/11/11
f 12/12/12 14/14/14 13/13/13
f 17/17/17 16/16/16 15/15/15
f 17/17/17 15/15/15 18/18/18
f 19/19/19 17/17/17 18/18/18
f 19/19/19 18/18/18 20/20/20
f 21/21/21 19/19/19 20/20/20
f 21/21/21 20/20/20 22/22/22
f 23/23/23 21/21/21 22/22/22
f 23/23/23 22/22/22 24/24/24
f 25/25/25 23/23/23 24/24/24
f 25/25/25 24/24/24 26/26/26
f 27/27/27 25/25/25 26/26/26
f 27/27/27 26/26/26 28/28/28
f 31/31/31 30/30/30 29/29/29
f 29/29/29 30/30/30 32/32/32
f 33/33/33 29/29/29 32/32/32
f 33/33/33 32/32/32 34/34/34
f 35/35/35 33/33/33 34/34/34
f 35/35/35 34/34/34 36/36/36
f 37/37/37 35/35/35 36/36/36
f 37/37/37 36/36/36 38/38/38
f 39/39/39 37/37/37 38/38/38
f 39/39/39 38/38/38 40/40/40
f 41/41/41 39/39/39 40/40/40
f 41/41/41 40/40/40 42/42/42
f 43/43/43 41/41/41 42/42/42
f 43/43/43 42/42/42 44/44/44
f 45/45/45 43/43/43 44/44/44
f 47/47/47 46/46/46 44/44/44
f 48/48/48 46/46/46 47/47/47
f 49/49/49 48/48/48 47/47/47
f 49/49/49 50/50/50 48/48/48
f 50/50/50 51/51/51 48/48/48
f 50/50/50 52/52/52 51/51/51
f 55/55/55 54/54/54 53/53/53
f 55/55/55 56/56/56 54/54/54
f 56/56/56 57/57/57 54/54/54
f 56/56/56 58/58/58 57/57/57
f 58/58/58 59/59/59 57/57/57
f 58/58/58 60/60/60 59/59/59
f 60/60/60 61/61/61 59/59/59
f 60/60/60 62/62/62 61/61/61
f 62/62/62 63/63/63 61/61/61
f 62/62/62 64/64/64 63/63/63
f 64/64/64 65/65/65 63/63/63
f 64/64/64 66/66/66 65/65/65
f 66/66/66 67/67/67 65/65/65
f 66/66/66 68/68/68 67/67/67
f 68/68/68 69/69/69 67/67/67
f 72/72/72 71/71/71 70/70/70
f 71/71/71 72/72/72 73/73/73
f 72/72/72 74/74/74 73/73/73
f 73/73/73 74/74/74 75/75/75
f 74/74/74 76/76/76 75/75/75
f 75/75/75 76/76/76 77/77/77
f 76/76/76 78/78/78 77/77/77
f 77/77/77 78/78/78 79/79/79
f 78/78/78 80/80/80 79/79/79
f 79/79/79 80/80/80 81/81/81
f 80/80/80 82/82/82 81/81/81
f 81/81/81 82/82/82 83/83/83
f 82/82/82 84/84/84 83/83/83
f 83/83/83 84/84/84 85/85/85
f 86/86/86 83/83/83 85/85/85
f 89/89/89 88/88/88 87/87/87
f 88/88/88 90/90/90 87/87/87
f 87/87/87 90/90/90 91/91/91
f 90/90/90 92/92/92 91/91/91
f 91/91/91 92/92/92 93/93/93
f 92/92/92 94/94/94 93/93/93
f 93/93/93 94/94/94 95/95/95
f 94/94/94 96/96/96 95/95/95
f 95/95/95 96/96/96 97/97/97
f 96/96/96 98/98/98 97/97/97
f 97/97/97 98/98/98 99/99/99
f 98/98/98 100/100/100 99/99/99
f 99/99/99 100/100/100 101/101/101
f 100/100/100 102/102/102 101/101/101
f 102/102/102 103/103/103 101/101/101
f 106/106/106 105/105/105 104/104/104
f 104/104/104 105/105/105 107/107/107
f 105/105/105 108/108/108 107/107/107
f 107/107/107 108/108/108 109/109/109
f 108/108/108 110/110/110 109/109/109
f 109/109/109 110/110/110 111/111/111
f 110/110/110 112/112/112 111/111/111
f 111/111/111 112/112/112 113/113/113
f 112/112/112 114/114/114 113/113/113
f 113/113/113 114/114/114 115/115/115
f 114/114/114 116/116/116 115/115/115
f 115/115/115 116/116/116 117/117/117
f 120/120/120 119/119/119 118/118/118
f 121/121/121 119/119/119 120/120/120
f 122/122/122 121/121/121 120/120/120
f 123/123/123 121/121/121 122/122/122
f 124/124/124 123/123/123 122/122/122
f 125/125/125 123/123/123 124/124/124
f 126/126/126 125/125/125 124/124/124
f 127/127/127 125/125/125 126/126/126
f 128/128/128 127/127/127 126/126/126
f 129/129/129 127/127/127 128/128/128
f 130/130/130 129/129/129 128/128/128
f 131/131/131 129/129/129 130/130/130
f 134/134/134 133/133/133 132/132/132
f 135/135/135 133/133/133 134/134/134
f 136/136/136 135/135/135 134/134/134
f 136/136/136 137/137/137 135/135/135
f 137/137/137 138/138/138 135/135/135
f 138/138/138 137/137/137 139/139/139
f 141/141/141 140/140/140 132/132/132
f 142/142/142 140/140/140 141/141/141
f 143/143/143 142/142/142 141/141/141
f 143/143/143 144/144/144 142/142/142
f 144/144/144 139/139/139 145/145/145
f 144/144/144 145/145/145 142/142/142
