g sword_basic_206_disc
v -0.1608219 -0.02143574 2.220446E-16
v -0.113718 -0.02143764 -0.113719
v -0.113718 0.02143574 -0.113719
v 0 -0.02143669 -0.1608219
v -0.1608219 0.02143574 2.220446E-16
v 0 0.02143574 -0.1608219
v 0.113718 0.02143574 -0.113719
v 0.113718 -0.02143764 -0.113719
v 0.1608219 0.02143574 2.220446E-16
v 0.1608219 -0.02143574 2.220446E-16
v 0.113718 0.02143574 0.113718
v 0.113718 -0.02143764 0.113718
v 0 0.02143574 0.1608219
v 0 -0.02143669 0.1608219
v -0.113718 0.02143574 0.113718
v -0.113718 -0.02143764 0.113718
v 0 -0.02143669 0.08041096
v 0.05685997 -0.02143764 0.05685902
v 0 -0.05114174 2.220446E-16
v -0.05685806 -0.02143764 0.05685902
v 0.08041191 -0.02143574 2.220446E-16
v -0.08041 -0.02143574 2.220446E-16
v 0.05685997 -0.02143669 -0.05685902
v -0.05685806 -0.02143669 -0.05685902
v 0 -0.02143669 -0.08041096
v 0 0.05114174 2.220446E-16
v 0.05685997 0.02143574 0.05685902
v 0 0.02143574 0.08041096
v 0.08041191 0.02143574 2.220446E-16
v -0.05685806 0.02143574 0.05685902
v 0.05685997 0.02143574 -0.05685902
v -0.08041 0.02143574 2.220446E-16
v 0 0.02143574 -0.08041096
v -0.05685806 0.02143574 -0.05685902
v 0.113718 -0.02143764 0.113718
v 0.07736778 -0.04858494 0.07736897
v 0 -0.04858398 0.1094153
v 0 -0.02143669 0.1608219
v 0.1608219 -0.02143574 2.220446E-16
v -0.07736778 -0.04858494 0.07736897
v 0.1094151 -0.04858398 2.384186E-07
v -0.113718 -0.02143764 0.113718
v 0.113718 -0.02143764 -0.113719
v -0.1094151 -0.04858398 2.384186E-07
v 0.07736778 -0.04858398 -0.07736754
v -0.1608219 -0.02143574 2.220446E-16
v 0 -0.02143669 -0.1608219
v -0.07736778 -0.04858398 -0.07736754
v 0 -0.04858398 -0.1094148
v -0.113718 -0.02143764 -0.113719
v -0.05685806 0.02143574 0.05685902
v 0 0.02143574 0.08041096
v 0 0.04858208 0.1094151
v -0.07736778 0.04858208 0.07736874
v 0.07736778 0.04858208 0.07736874
v -0.08041 0.02143574 2.220446E-16
v 0.05685997 0.02143574 0.05685902
v -0.1094151 0.04858208 2.220446E-16
v 0.1094151 0.04858208 2.220446E-16
v -0.05685806 0.02143574 -0.05685902
v 0.08041191 0.02143574 2.220446E-16
v -0.07736778 0.04858208 -0.07736778
v 0.07736778 0.04858208 -0.07736778
v 0 0.02143574 -0.08041096
v 0.05685997 0.02143574 -0.05685902
v 0 0.04858208 -0.1094151
v 0.113718 0.02143574 -0.113719
v 0.1094151 0.04858208 2.220446E-16
v 0.07736778 0.04858208 -0.07736778
v 0.1608219 0.02143574 2.220446E-16
v 0 0.02143574 -0.1608219
v 0.07736778 0.04858208 0.07736874
v 0 0.04858208 -0.1094151
v 0.113718 0.02143574 0.113718
v -0.113718 0.02143574 -0.113719
v 0 0.04858208 0.1094151
v -0.07736778 0.04858208 -0.07736778
v 0 0.02143574 0.1608219
v -0.1608219 0.02143574 2.220446E-16
v -0.07736778 0.04858208 0.07736874
v -0.1094151 0.04858208 2.220446E-16
v -0.113718 0.02143574 0.113718
v 0 -0.02143669 0.08041096
v 0 -0.04858398 0.1094153
v 0.07736778 -0.04858494 0.07736897
v 0.05685997 -0.02143764 0.05685902
v -0.05685806 -0.02143764 0.05685902
v 0.1094151 -0.04858398 2.384186E-07
v -0.07736778 -0.04858494 0.07736897
v 0.08041191 -0.02143574 2.220446E-16
v -0.08041 -0.02143574 2.220446E-16
v 0.07736778 -0.04858398 -0.07736754
v -0.1094151 -0.04858398 2.384186E-07
v 0.05685997 -0.02143669 -0.05685902
v -0.05685806 -0.02143669 -0.05685902
v 0 -0.04858398 -0.1094148
v -0.07736778 -0.04858398 -0.07736754
v 0 -0.02143669 -0.08041096
vt 0.146563 0.089245
vt 0.146563 0.099105
vt 0.146563 0.099105
vt 0.146563 0.089245
vt 0.146563 0.089245
vt 0.146563 0.089245
vt 0.146563 0.065442
vt 0.146563 0.065442
vt 0.146563 0.041638
vt 0.146563 0.041638
vt 0.146563 0.031778
vt 0.146563 0.031778
vt 0.146563 0.041638
vt 0.146563 0.041638
vt 0.146563 0.065442
vt 0.146563 0.065442
vt 0.660413 0.766928
vt 0.660413 0.759021
vt 0.633468 0.762853
vt 0.660413 0.759021
vt 0.660413 0.766928
vt 0.660413 0.766928
vt 0.660413 0.759021
vt 0.660413 0.759021
vt 0.660413 0.766928
vt 0.633468 0.762853
vt 0.660413 0.759021
vt 0.660413 0.766928
vt 0.660413 0.766928
vt 0.660413 0.759021
vt 0.660413 0.759021
vt 0.660413 0.766928
vt 0.660413 0.766928
vt 0.660413 0.759021
vt 0.578388 0.479286
vt 0.57021 0.480235
vt 0.57021 0.484406
vt 0.578388 0.485417
vt 0.578388 0.485417
vt 0.57021 0.480235
vt 0.57021 0.484406
vt 0.578388 0.479286
vt 0.578388 0.479286
vt 0.57021 0.484406
vt 0.57021 0.480235
vt 0.578388 0.485417
vt 0.578388 0.485417
vt 0.57021 0.480235
vt 0.57021 0.484406
vt 0.578388 0.479286
vt 0.148561 0.112599
vt 0.154929 0.105368
vt 0.157315 0.110585
vt 0.148649 0.120424
vt 0.160709 0.089218
vt 0.142048 0.107123
vt 0.157423 0.089666
vt 0.139788 0.112972
vt 0.156842 0.06884
vt 0.139206 0.092147
vt 0.154581 0.07469
vt 0.135921 0.092594
vt 0.14798 0.061388
vt 0.1417 0.076444
vt 0.148069 0.069213
vt 0.139314 0.071227
vt 0.578388 0.479286
vt 0.57021 0.484406
vt 0.57021 0.480235
vt 0.578388 0.485417
vt 0.578388 0.485417
vt 0.57021 0.480235
vt 0.57021 0.484406
vt 0.578388 0.479286
vt 0.578388 0.479286
vt 0.57021 0.484406
vt 0.57021 0.480235
vt 0.578388 0.485417
vt 0.578388 0.485417
vt 0.57021 0.480235
vt 0.57021 0.484406
vt 0.578388 0.479286
vt 0.154929 0.105368
vt 0.157315 0.110585
vt 0.160709 0.089218
vt 0.157423 0.089666
vt 0.148561 0.112599
vt 0.156842 0.06884
vt 0.148649 0.120424
vt 0.154581 0.07469
vt 0.142048 0.107123
vt 0.14798 0.061388
vt 0.139788 0.112972
vt 0.148069 0.069213
vt 0.139206 0.092147
vt 0.139314 0.071227
vt 0.135921 0.092594
vt 0.1417 0.076444
vn -0.8741957 -0.4855737 0
vn -0.6181448 -0.4855844 -0.6181462
vn -0.6181446 0.4855824 -0.618148
vn 0 -0.4855812 -0.8741916
vn -0.8741908 0.4855825 0
vn 0 0.4855833 -0.8741904
vn 0.6181446 0.4855824 -0.6181479
vn 0.6181448 -0.4855845 -0.6181462
vn 0.8741908 0.4855825 0
vn 0.8741957 -0.4855737 0
vn 0.6181471 0.485579 0.6181481
vn 0.6181491 -0.4855776 0.6181473
vn 0 0.4855751 0.8741949
vn 0 -0.4855675 0.8741993
vn -0.6181471 0.485579 0.6181481
vn -0.618149 -0.4855776 0.6181473
vn 0 -0.9374793 -0.3480411
vn -0.2461139 -0.9374731 -0.246114
vn 0 -1 0
vn 0.2461104 -0.9374745 -0.2461123
vn -0.3480513 -0.9374754 0
vn 0.3480442 -0.9374782 0
vn -0.2461102 -0.9374743 0.2461133
vn 0.2461066 -0.9374756 0.2461116
vn 0 -0.9374765 0.3480487
vn 0 1 0
vn -0.2460939 0.9374843 -0.2460911
vn 0 0.9374849 -0.3480259
vn -0.3480321 0.9374825 0
vn 0.2460903 0.9374858 -0.2460894
vn -0.2460947 0.9374835 0.2460936
vn 0.3480248 0.9374853 0
vn 0 0.937484 0.3480283
vn 0.2460911 0.9374849 0.246092
vn 0.6181491 -0.4855776 0.6181473
vn 0.1520357 -0.9766126 0.1520295
vn 0 -0.9766119 0.2150101
vn 0 -0.4855675 0.8741993
vn 0.8741957 -0.4855737 0
vn -0.1520339 -0.9766124 0.152032
vn 0.2150113 -0.9766116 0
vn -0.618149 -0.4855776 0.6181473
vn 0.6181448 -0.4855845 -0.6181462
vn -0.21501 -0.9766119 0
vn 0.1520298 -0.9766147 -0.1520219
vn -0.8741957 -0.4855737 0
vn 0 -0.4855812 -0.8741916
vn -0.1520282 -0.9766145 -0.1520244
vn 0 -0.9766139 -0.2150006
vn -0.6181448 -0.4855844 -0.6181462
vn 0.2460903 0.9374858 -0.2460894
vn 0 0.9374849 -0.3480259
vn 0 0.9766139 0.2150007
vn -0.1520283 0.9766135 0.152031
vn 0.15203 0.9766136 0.1520285
vn 0.3480248 0.9374853 0
vn -0.2460939 0.9374843 -0.2460911
vn -0.2150012 0.9766138 0
vn 0.2150025 0.9766135 0
vn 0.2460911 0.9374849 0.246092
vn -0.3480321 0.9374825 0
vn -0.1520269 0.9766143 -0.1520276
vn 0.1520285 0.9766144 -0.152025
vn 0 0.937484 0.3480283
vn -0.2460947 0.9374835 0.2460936
vn 0 0.9766139 -0.2150007
vn 0.6181446 0.4855824 -0.6181479
vn 0.2150025 0.9766135 0
vn 0.1520285 0.9766144 -0.152025
vn 0.8741908 0.4855825 0
vn 0 0.4855833 -0.8741904
vn 0.15203 0.9766136 0.1520285
vn 0 0.9766139 -0.2150007
vn 0.6181471 0.485579 0.6181481
vn -0.6181446 0.4855824 -0.618148
vn 0 0.9766139 0.2150007
vn -0.1520269 0.9766143 -0.1520276
vn 0 0.4855751 0.8741949
vn -0.8741908 0.4855825 0
vn -0.1520283 0.9766135 0.152031
vn -0.2150012 0.9766138 0
vn -0.6181471 0.485579 0.6181481
vn 0 -0.9374793 -0.3480411
vn 0 -0.9766119 0.2150101
vn 0.1520357 -0.9766126 0.1520295
vn -0.2461139 -0.9374731 -0.246114
vn 0.2461104 -0.9374745 -0.2461123
vn 0.2150113 -0.9766116 0
vn -0.1520339 -0.9766124 0.152032
vn -0.3480513 -0.9374754 0
vn 0.3480442 -0.9374782 0
vn 0.1520298 -0.9766147 -0.1520219
vn -0.21501 -0.9766119 0
vn -0.2461102 -0.9374743 0.2461133
vn 0.2461066 -0.9374756 0.2461116
vn 0 -0.9766139 -0.2150006
vn -0.1520282 -0.9766145 -0.1520244
vn 0 -0.9374765 0.3480487
g sword_basic_206_disc_0
f 3/3/3 2/2/2 1/1/1
f 2/2/2 3/3/3 4/4/4
f 5/5/5 3/3/3 1/1/1
f 3/3/3 6/6/6 4/4/4
f 4/4/4 6/6/6 7/7/7
f 8/8/8 4/4/4 7/7/7
f 8/8/8 7/7/7 9/9/9
f 10/10/10 8/8/8 9/9/9
f 10/10/10 9/9/9 11/11/11
f 12/12/12 10/10/10 11/11/11
f 12/12/12 11/11/11 13/13/13
f 14/14/14 12/12/12 13/13/13
f 15/15/15 5/5/5 1/1/1
f 14/14/14 13/13/13 15/15/15
f 16/16/16 15/15/15 1/1/1
f 16/16/16 14/14/14 15/15/15
f 19/19/19 18/18/18 17/17/17
f 19/19/19 17/17/17 20/20/20
f 19/19/19 21/21/21 18/18/18
f 19/19/19 20/20/20 22/22/22
f 19/19/19 23/23/23 21/21/21
f 19/19/19 22/22/22 24/24/24
f 19/19/19 25/25/25 23/23/23
f 19/19/19 24/24/24 25/25/25
f 28/28/28 27/27/27 26/26/26
f 27/27/27 29/29/29 26/26/26
f 30/30/30 28/28/28 26/26/26
f 29/29/29 31/31/31 26/26/26
f 32/32/32 30/30/30 26/26/26
f 31/31/31 33/33/33 26/26/26
f 34/34/34 32/32/32 26/26/26
f 33/33/33 34/34/34 26/26/26
f 37/37/37 36/36/36 35/35/35
f 38/38/38 37/37/37 35/35/35
f 35/35/35 36/36/36 39/39/39
f 40/40/40 37/37/37 38/38/38
f 36/36/36 41/41/41 39/39/39
f 42/42/42 40/40/40 38/38/38
f 39/39/39 41/41/41 43/43/43
f 44/44/44 40/40/40 42/42/42
f 41/41/41 45/45/45 43/43/43
f 46/46/46 44/44/44 42/42/42
f 43/43/43 45/45/45 47/47/47
f 48/48/48 44/44/44 46/46/46
f 45/45/45 49/49/49 47/47/47
f 50/50/50 48/48/48 46/46/46
f 47/47/47 49/49/49 50/50/50
f 49/49/49 48/48/48 50/50/50
f 53/53/53 52/52/52 51/51/51
f 54/54/54 53/53/53 51/51/51
f 53/53/53 55/55/55 52/52/52
f 54/54/54 51/51/51 56/56/56
f 55/55/55 57/57/57 52/52/52
f 58/58/58 54/54/54 56/56/56
f 55/55/55 59/59/59 57/57/57
f 58/58/58 56/56/56 60/60/60
f 59/59/59 61/61/61 57/57/57
f 62/62/62 58/58/58 60/60/60
f 59/59/59 63/63/63 61/61/61
f 62/62/62 60/60/60 64/64/64
f 63/63/63 65/65/65 61/61/61
f 66/66/66 62/62/62 64/64/64
f 66/66/66 64/64/64 65/65/65
f 63/63/63 66/66/66 65/65/65
f 69/69/69 68/68/68 67/67/67
f 68/68/68 70/70/70 67/67/67
f 69/69/69 67/67/67 71/71/71
f 68/68/68 72/72/72 70/70/70
f 73/73/73 69/69/69 71/71/71
f 72/72/72 74/74/74 70/70/70
f 73/73/73 71/71/71 75/75/75
f 72/72/72 76/76/76 74/74/74
f 77/77/77 73/73/73 75/75/75
f 76/76/76 78/78/78 74/74/74
f 77/77/77 75/75/75 79/79/79
f 76/76/76 80/80/80 78/78/78
f 81/81/81 77/77/77 79/79/79
f 80/80/80 82/82/82 78/78/78
f 81/81/81 79/79/79 82/82/82
f 80/80/80 81/81/81 82/82/82
f 85/85/85 84/84/84 83/83/83
f 86/86/86 85/85/85 83/83/83
f 83/83/83 84/84/84 87/87/87
f 88/88/88 85/85/85 86/86/86
f 84/84/84 89/89/89 87/87/87
f 90/90/90 88/88/88 86/86/86
f 87/87/87 89/89/89 91/91/91
f 92/92/92 88/88/88 90/90/90
f 89/89/89 93/93/93 91/91/91
f 94/94/94 92/92/92 90/90/90
f 91/91/91 93/93/93 95/95/95
f 96/96/96 92/92/92 94/94/94
f 93/93/93 97/97/97 95/95/95
f 98/98/98 96/96/96 94/94/94
f 95/95/95 97/97/97 98/98/98
f 97/97/97 96/96/96 98/98/98
