g sword_epic_004_essence
v 0.03205872 -0.03051186 0.2842112
v -0.01718712 -0.03051186 0.2842417
v -0.01964378 -0.03051186 0.658124
v 0.02961159 -0.03051186 0.6581316
v -0.05925369 -0.03051186 0.6845255
v 0.07279396 -0.03051186 0.6845255
v 0.02943039 -0.03051186 0.7082109
v -0.01980972 -0.03051186 0.7083044
v -0.02205086 -0.03051186 1.256738
v 0.02720261 -0.03051186 1.256822
v -0.06102753 -0.03051186 1.282203
v 0.06473732 -0.03051186 1.282203
v 0.02714157 -0.03051186 1.306346
v -0.02210236 -0.03051186 1.306432
v -0.02200699 -0.03051186 1.761857
v 0.02723885 -0.03051186 1.762139
v 0.03205872 0.02810478 0.2842112
v -0.01964378 0.02810478 0.658124
v -0.01718712 0.02810478 0.2842417
v 0.02961159 0.02810478 0.6581316
v -0.05925369 0.02810478 0.6845255
v 0.07279396 0.02810478 0.6845255
v -0.01980972 0.02810478 0.7083044
v 0.02943039 0.02810478 0.7082109
v -0.02205086 0.02810478 1.256737
v 0.02720261 0.02810478 1.256821
v -0.06102753 0.02810478 1.282202
v 0.06473732 0.02810478 1.282202
v -0.02210236 0.02810478 1.306432
v 0.02714157 0.02810478 1.306346
v -0.02200699 0.02810478 1.761857
v 0.02723885 0.02810478 1.762139
vt 0.9599739 0.1778486
vt 0.9394912 0.1778636
vt 0.9394149 0.3376023
vt 0.9598821 0.3365673
vt 0.9179888 0.3493353
vt 0.9834242 0.3493353
vt 0.9598058 0.3599721
vt 0.9393386 0.3589067
vt 0.937345 0.5933487
vt 0.9578431 0.5926791
vt 0.9169694 0.5998009
vt 0.9793001 0.5998009
vt 0.9578133 0.6064818
vt 0.9373295 0.6059642
vt 0.9152794 0.8026056
vt 0.9805173 0.8027726
vt 0.9599739 0.1778486
vt 0.9394149 0.3376023
vt 0.9394912 0.1778636
vt 0.9598821 0.3365673
vt 0.9179888 0.3493353
vt 0.9834242 0.3493353
vt 0.9393386 0.3589067
vt 0.9598058 0.3599721
vt 0.937345 0.5933487
vt 0.9578431 0.5926791
vt 0.9169694 0.5998009
vt 0.9793001 0.5998009
vt 0.9373295 0.6059642
vt 0.9578133 0.6064818
vt 0.9152794 0.8026056
vt 0.9805173 0.8027726
vn 0 -1 0
vn 0 -1 0
vn 0 -1 0
vn 0 -1 0
vn 0 -1 0
vn 0 -1 0
vn 0 -1 0
vn 0 -1 0
vn 0 -1 0
vn 0 -1 0
vn 0 -1 0
vn 0 -1 0
vn 0 -1 0
vn 0 -1 0
vn 0 -1 0
vn 0 -1 0
vn 0 1 0
vn 0 1 0
vn 0 1 0
vn 0 1 0
vn 0 1 0
vn 0 1 0
vn 0 1 0
vn 0 1 0
vn 0 1 0
vn 0 1 0
vn 0 1 0
vn 0 1 0
vn 0 1 0
vn 0 1 0
vn 0 1 0
vn 0 1 0
g sword_epic_004_essence_0
f 3/3/3 2/2/2 1/1/1
f 4/4/4 3/3/3 1/1/1
f 5/5/5 3/3/3 4/4/4
f 4/4/4 6/6/6 5/5/5
f 6/6/6 7/7/7 5/5/5
f 7/7/7 8/8/8 5/5/5
f 9/9/9 8/8/8 7/7/7
f 10/10/10 9/9/9 7/7/7
f 11/11/11 9/9/9 10/10/10
f 10/10/10 12/12/12 11/11/11
f 12/12/12 13/13/13 11/11/11
f 13/13/13 14/14/14 11/11/11
f 14/14/14 13/13/13 15/15/15
f 13/13/13 16/16/16 15/15/15
f 19/19/19 18/18/18 17/17/17
f 18/18/18 20/20/20 17/17/17
f 20/20/20 18/18/18 21/21/21
f 21/21/21 22/22/22 20/20/20
f 21/21/21 23/23/23 22/22/22
f 23/23/23 24/24/24 22/22/22
f 23/23/23 25/25/25 24/24/24
f 25/25/25 26/26/26 24/24/24
f 26/26/26 25/25/25 27/27/27
f 27/27/27 28/28/28 26/26/26
f 27/27/27 29/29/29 28/28/28
f 29/29/29 30/30/30 28/28/28
f 30/30/30 29/29/29 31/31/31
f 32/32/32 30/30/30 31/31/31
