g sword_ice_007_runes
v -0.07859612 -0.06040001 0.7312059
v -0.005828857 -0.06014061 0.7304125
v -0.07875633 -0.0604229 0.6963415
v -0.04274559 -0.06031418 0.6769476
v 0.0283432 -0.06006241 0.6767473
v -0.005962372 -0.06039619 0.39993
v 0.06868744 -0.05991554 0.6944666
v 0.06863594 -0.05988693 0.7296
v 0.06761932 -0.05932808 1.498759
v -0.005619049 -0.05973434 1.411088
v 0.06748009 -0.05924988 1.593776
v -0.005649567 -0.05979347 1.329663
v -0.07526779 -0.05992699 1.499995
v -0.07481956 -0.05986404 1.595113
v -0.07588577 -0.06001663 1.369155
v -0.005691528 -0.05987358 1.217656
v -0.07633591 -0.06007957 1.273831
v -0.005720139 -0.0599308 1.136056
v 0.0679493 -0.05950928 1.272834
v 0.06781006 -0.05943108 1.368056
v -0.005765915 -0.06002045 1.010928
v -0.03746986 -0.06010056 1.051793
v -0.005737305 -0.05996323 1.092316
v 0.03252411 -0.0598259 1.051627
v 0.0683136 -0.05970955 1.020188
v 0.06840324 -0.05975723 0.9628916
v 0.03846359 -0.05990601 0.8081694
v 0.02839279 -0.05991364 0.9246969
v -0.04965019 -0.06023979 0.8088274
v -0.03866386 -0.06016922 0.9250059
v -0.0775032 -0.06024551 1.020041
v -0.07785416 -0.0602951 0.9633284
v -0.07875633 0.0539093 0.6963415
v -0.005828857 0.05362511 0.7304125
v -0.07859612 0.05388451 0.7312059
v -0.04274559 0.05379868 0.6769476
v 0.0283432 0.05354881 0.6767473
v -0.005962372 0.05388069 0.39993
v 0.06868744 0.05340004 0.6944666
v 0.06863594 0.05337143 0.7296
v 0.06748009 0.05273628 1.593776
v -0.005619049 0.05322075 1.411088
v 0.06761932 0.05281258 1.498759
v -0.005649567 0.05327797 1.329663
v -0.07526779 0.05341339 1.499995
v -0.07481956 0.05334854 1.595113
v -0.07633591 0.05356407 1.273831
v -0.005691528 0.05335808 1.217656
v -0.07588577 0.05350113 1.369155
v -0.005720139 0.0534153 1.136056
v 0.0679493 0.05299377 1.272834
v 0.06781006 0.05291748 1.368056
v -0.005737305 0.05344772 1.092316
v -0.03746986 0.05358696 1.051793
v -0.005765915 0.05350685 1.010928
v 0.03252411 0.0533123 1.051627
v 0.0683136 0.05319405 1.020188
v 0.03846359 0.0533905 0.8081694
v 0.06840324 0.05324173 0.9628913
v 0.02839279 0.05339813 0.9246969
v -0.04965019 0.05372429 0.8088274
v -0.03866386 0.05365372 0.9250059
v -0.0775032 0.05373001 1.020041
v -0.07785416 0.0537796 0.9633284
v -0.005880356 -0.05921364 1.865788
v -0.03887367 -0.05933952 1.832835
v -0.07228279 -0.05950356 1.833293
v -0.006793976 -0.05929375 1.939118
v -0.005449295 -0.05940628 1.571891
v 0.02794456 -0.05901146 1.83192
v -0.005462646 -0.0592041 1.707374
v 0.06669807 -0.05882072 1.831387
v -0.005880356 0.05269814 1.865788
v -0.07228279 0.05298996 1.833293
v -0.03887367 0.05282593 1.832835
v -0.006793976 0.05277824 1.939118
v -0.005449295 0.05289078 1.571891
v 0.02794456 0.05249596 1.83192
v -0.005462646 0.05269051 1.707374
v 0.06669807 0.05230522 1.831387
vt 0.9485935 0.2544321
vt 0.9628505 0.2540929
vt 0.9485608 0.2396471
vt 0.9556163 0.2314289
vt 0.9695467 0.231344
vt 0.9628245 0.1140259
vt 0.9774523 0.2388563
vt 0.9774405 0.2537403
vt 0.9772434 0.5797395
vt 0.9628927 0.5425729
vt 0.9772151 0.6200132
vt 0.9628856 0.5080749
vt 0.949244 0.5802618
vt 0.9493331 0.6205777
vt 0.9491242 0.5248084
vt 0.9628786 0.4605998
vt 0.9490349 0.4844081
vt 0.9628714 0.4260176
vt 0.9773068 0.4839844
vt 0.9772809 0.5243428
vt 0.9628622 0.3729787
vt 0.9566518 0.390305
vt 0.9628692 0.4074767
vt 0.9703662 0.3902347
vt 0.9773796 0.3769041
vt 0.9773959 0.3526163
vt 0.9715308 0.307146
vt 0.9695561 0.3364331
vt 0.9542639 0.3074282
vt 0.956417 0.3365601
vt 0.9488072 0.3768477
vt 0.9487368 0.3527995
vt 0.9485608 0.2396471
vt 0.9628505 0.2540929
vt 0.9485935 0.2544321
vt 0.9556163 0.2314289
vt 0.9695467 0.231344
vt 0.9628245 0.1140259
vt 0.9774523 0.2388563
vt 0.9774405 0.2537403
vt 0.9772151 0.6200132
vt 0.9628927 0.5425729
vt 0.9772434 0.5797395
vt 0.9628856 0.5080749
vt 0.949244 0.5802618
vt 0.9493331 0.6205777
vt 0.9490349 0.4844081
vt 0.9628786 0.4605998
vt 0.9491242 0.5248084
vt 0.9628714 0.4260176
vt 0.9773068 0.4839844
vt 0.9772809 0.5243428
vt 0.9628692 0.4074767
vt 0.9566518 0.390305
vt 0.9628622 0.3729787
vt 0.9703662 0.3902347
vt 0.9773796 0.3769041
vt 0.9715308 0.307146
vt 0.9773959 0.3526163
vt 0.9695561 0.3364331
vt 0.9542639 0.3074282
vt 0.956417 0.3365601
vt 0.9488072 0.3768477
vt 0.9487368 0.3527995
vt 0.9628409 0.7352973
vt 0.9563771 0.7213323
vt 0.9498309 0.7215302
vt 0.9626625 0.766378
vt 0.9629254 0.6107354
vt 0.9694692 0.7209365
vt 0.9629232 0.6681523
vt 0.9770626 0.7207111
vt 0.9628409 0.7352973
vt 0.9498309 0.7215302
vt 0.9563771 0.7213323
vt 0.9626625 0.766378
vt 0.9629254 0.6107354
vt 0.9694692 0.7209365
vt 0.9629232 0.6681523
vt 0.9770626 0.7207111
vn 0.003571738 -0.9999934 0.0006401819
vn 0.003490417 -0.9999937 0.0007697649
vn 0.003527115 -0.9999936 0.0007356902
vn 0.0035354 -0.9999934 0.0007797158
vn 0.00351819 -0.9999936 0.0007579114
vn 0.003543765 -0.9999934 0.0007666084
vn 0.003383803 -0.999994 0.0007534311
vn 0.003415603 -0.9999939 0.0008191252
vn 0.004565401 -0.9999893 0.0008200295
vn 0.004181205 -0.9999911 0.0007266896
vn 0.004553899 -0.9999893 0.0008296396
vn 0.004210166 -0.9999909 0.0007245818
vn 0.003597877 -0.9999933 0.0006518483
vn 0.003589003 -0.9999933 0.0006448968
vn 0.003428093 -0.9999939 0.0006441316
vn 0.003941626 -0.999992 0.0007073715
vn 0.003434295 -0.9999939 0.0006519038
vn 0.00396705 -0.9999919 0.0006997264
vn 0.004340674 -0.9999902 0.0008091923
vn 0.004326909 -0.9999903 0.0008275735
vn 0.003955357 -0.999992 0.0007016594
vn 0.003431404 -0.9999939 0.0007018705
vn 0.003954224 -0.999992 0.0007016599
vn 0.004335234 -0.9999903 0.0007015062
vn 0.00349408 -0.9999938 0.0004347014
vn 0.003494079 -0.9999938 0.0004347014
vn 0.003778094 -0.9999928 0.000268273
vn 0.003679252 -0.9999932 0.0003261932
vn 0.003789966 -0.9999928 0.000269316
vn 0.003744178 -0.999993 0.0003334584
vn 0.003657238 -0.9999932 0.0004552506
vn 0.003657238 -0.9999932 0.0004552506
vn 0.00354527 0.9999934 0.0007527425
vn 0.003487653 0.9999937 0.0007890458
vn 0.003572334 0.9999934 0.0006948765
vn 0.003516552 0.9999936 0.0007755886
vn 0.003497991 0.9999936 0.0007636751
vn 0.003516924 0.9999936 0.0007630602
vn 0.003394926 0.9999939 0.0007763955
vn 0.003415603 0.9999939 0.0008191252
vn 0.004603881 0.9999892 0.0008096666
vn 0.004197352 0.9999909 0.0007061804
vn 0.004615759 0.999989 0.0007997547
vn 0.004224376 0.9999908 0.0007011713
vn 0.003618516 0.9999932 0.0006679333
vn 0.003614453 0.9999933 0.0006647562
vn 0.003434291 0.9999939 0.0006519265
vn 0.00394315 0.999992 0.00070541
vn 0.003428089 0.9999939 0.0006441299
vn 0.003967052 0.9999919 0.0006998078
vn 0.004353506 0.9999902 0.000792094
vn 0.004341892 0.9999902 0.0008076071
vn 0.003952532 0.999992 0.0007250803
vn 0.003461586 0.9999938 0.0007252279
vn 0.003953597 0.9999919 0.0007250797
vn 0.004310315 0.9999905 0.0007249723
vn 0.003494084 0.9999938 0.0004346559
vn 0.003778092 0.9999928 0.0002682458
vn 0.003494085 0.9999938 0.0004346559
vn 0.003679252 0.9999932 0.0003261596
vn 0.003789964 0.9999928 0.0002692892
vn 0.003744177 0.999993 0.000333427
vn 0.003657239 0.9999932 0.0004552104
vn 0.003657239 0.9999932 0.0004552104
vn 0.00489952 -0.9999875 -0.001039603
vn 0.005932306 -0.9999824 0.0003123391
vn 0.006102718 -0.9999813 0.0005305152
vn 0.004899783 -0.9999875 -0.001039589
vn 0.004867135 -0.9999876 0.001082415
vn 0.004005943 -0.999992 0.0002922758
vn 0.004929444 -0.9999872 0.001082842
vn 0.003828238 -0.9999926 0.0005506068
vn 0.004910637 0.9999875 -0.001034459
vn 0.006095537 0.9999813 0.0005262763
vn 0.005929374 0.9999824 0.0003101947
vn 0.004910765 0.9999875 -0.001034507
vn 0.004877365 0.9999876 0.001075653
vn 0.004027317 0.9999919 0.0002895312
vn 0.00493862 0.9999872 0.001075973
vn 0.003853763 0.9999925 0.0005473286
g sword_ice_007_runes_0
f 3/3/3 2/2/2 1/1/1
f 4/4/4 2/2/2 3/3/3
f 2/2/2 4/4/4 5/5/5
f 6/6/6 5/5/5 4/4/4
f 7/7/7 2/2/2 5/5/5
f 8/8/8 2/2/2 7/7/7
f 11/11/11 10/10/10 9/9/9
f 12/12/12 9/9/9 10/10/10
f 10/10/10 13/13/13 12/12/12
f 14/14/14 13/13/13 10/10/10
f 17/17/17 16/16/16 15/15/15
f 18/18/18 16/16/16 17/17/17
f 18/18/18 19/19/19 16/16/16
f 20/20/20 16/16/16 19/19/19
f 23/23/23 22/22/22 21/21/21
f 21/21/21 24/24/24 23/23/23
f 27/27/27 26/26/26 25/25/25
f 28/28/28 27/27/27 25/25/25
f 29/29/29 27/27/27 28/28/28
f 30/30/30 29/29/29 28/28/28
f 29/29/29 30/30/30 31/31/31
f 32/32/32 29/29/29 31/31/31
f 35/35/35 34/34/34 33/33/33
f 33/33/33 34/34/34 36/36/36
f 37/37/37 36/36/36 34/34/34
f 36/36/36 37/37/37 38/38/38
f 37/37/37 34/34/34 39/39/39
f 39/39/39 34/34/34 40/40/40
f 43/43/43 42/42/42 41/41/41
f 42/42/42 43/43/43 44/44/44
f 44/44/44 45/45/45 42/42/42
f 42/42/42 45/45/45 46/46/46
f 49/49/49 48/48/48 47/47/47
f 47/47/47 48/48/48 50/50/50
f 48/48/48 51/51/51 50/50/50
f 51/51/51 48/48/48 52/52/52
f 55/55/55 54/54/54 53/53/53
f 53/53/53 56/56/56 55/55/55
f 59/59/59 58/58/58 57/57/57
f 58/58/58 60/60/60 57/57/57
f 58/58/58 61/61/61 60/60/60
f 61/61/61 62/62/62 60/60/60
f 62/62/62 61/61/61 63/63/63
f 61/61/61 64/64/64 63/63/63
f 67/67/67 66/66/66 65/65/65
f 68/68/68 67/67/67 65/65/65
f 67/67/67 69/69/69 66/66/66
f 68/68/68 65/65/65 70/70/70
f 69/69/69 71/71/71 66/66/66
f 72/72/72 68/68/68 70/70/70
f 72/72/72 70/70/70 71/71/71
f 69/69/69 72/72/72 71/71/71
f 75/75/75 74/74/74 73/73/73
f 74/74/74 76/76/76 73/73/73
f 77/77/77 74/74/74 75/75/75
f 73/73/73 76/76/76 78/78/78
f 79/79/79 77/77/77 75/75/75
f 76/76/76 80/80/80 78/78/78
f 80/80/80 77/77/77 79/79/79
f 78/78/78 80/80/80 79/79/79
