g sword_lightning_005_glow
v -0.004337311 0.02698135 1.3952
v -0.1540661 -0.004886627 1.483666
v -0.1024666 -0.004888535 0.2148886
v -0.004337311 -0.03675842 1.3952
v -0.004337311 0.02698326 0.1763639
v -0.004337311 -0.03675842 0.1763639
v 0.1065063 -0.004888535 0.2148886
v 0.1453915 -0.004886627 1.483666
vt 0.7419803 0.6530344
vt 0.7058206 0.6769885
vt 0.718282 0.3334428
vt 0.7419803 0.6530344
vt 0.7419803 0.3230115
vt 0.7419803 0.3230115
vt 0.7687492 0.3334428
vt 0.77814 0.6769885
vn 0 0.9999894 -0.004601823
vn -0.999785 0 -0.02073663
vn -0.999785 0 -0.02073664
vn 0 -0.9999894 -0.004601187
vn 0.003594437 0.9999831 -0.004590874
vn 0.003594576 -0.9999831 -0.004590238
vn 0.9998779 0 -0.01562803
vn 0.9998779 0 -0.01562803
g sword_lightning_005_glow_0
f 3/3/3 2/2/2 1/1/1
f 2/2/2 3/3/3 4/4/4
f 5/5/5 3/3/3 1/1/1
f 3/3/3 6/6/6 4/4/4
f 5/5/5 1/1/1 7/7/7
f 4/4/4 6/6/6 7/7/7
f 1/1/1 8/8/8 7/7/7
f 8/8/8 4/4/4 7/7/7
