g sword_basic_203
v -0.00147438 -0.09115505 0.2202644
v -0.2137089 -0.03111362 0.2209787
v 0.2077942 -0.03111362 0.2209787
v 0.2338123 0 0.2209787
v -0.239727 0 0.2209787
v -0.2137089 0.03111458 0.2209787
v 0.2077942 0.03111458 0.2209787
v -0.00147438 0.09115505 0.2202644
v -0.2323494 -0.002039909 0.2143564
v 0.08320999 -0.04413509 0.3850288
v -0.01412392 -0.05314827 0.2143459
v -0.1036491 -0.0009641647 0.3973818
v -0.06076431 0.002305031 0.5369329
v 0.1197357 -0.03856373 0.5466461
v 0.08086777 -0.04165649 0.7225533
v 0.08318901 0.04002762 0.3850193
v -0.01412392 0.0490675 0.2143459
v 0.1194782 0.03509426 0.5466642
v 0.08077431 0.03779888 0.7225533
v -0.06505394 0.001407623 0.6887827
v -0.1552677 -0.0005130768 0.824193
v -0.03134537 -0.03746223 0.8513813
v -0.03134537 0.03338146 0.8513813
v -0.09666061 -0.04506683 1.012769
v -0.09684181 0.04158783 1.012793
v -0.2283669 8.678436E-05 1.014194
v -0.148344 -0.001653671 1.190493
v -0.0523243 -0.03662586 1.168327
v -0.05235291 0.03258705 1.168331
v 0.02933884 -0.03610611 1.293768
v 0.02933693 0.03186321 1.293782
v -0.05556679 -0.002099991 1.30356
v -0.05327415 -0.002064705 1.404098
v 0.02017975 -0.0354681 1.403909
v 0.01995087 0.03080082 1.403898
v -0.04422188 -0.0260973 1.513926
v -0.04420662 0.0221014 1.513928
v -0.09360695 -0.001901627 1.511066
v -0.03828239 -0.02034092 1.576789
v -0.03821373 0.01629925 1.576789
v -0.0759449 -0.002038002 1.584764
v 0.01096725 -0.002039909 1.664982
v 0.2043762 -0.002094269 0.2143278
v -0.01412392 -0.05314827 0.2143459
v 0.08320999 -0.04413509 0.3850288
v 0.2628632 -0.003232956 0.3860416
v 0.2813969 -0.003634453 0.5567102
v 0.1197357 -0.03856373 0.5466461
v 0.08086777 -0.04165649 0.7225533
v 0.08318901 0.04002762 0.3850193
v -0.01412392 0.0490675 0.2143459
v 0.1194782 0.03509426 0.5466642
v 0.08077431 0.03779888 0.7225533
v 0.212532 -0.003546715 0.7532949
v 0.07781601 -0.001966476 0.8802357
v -0.03134537 -0.03746223 0.8513813
v -0.03134537 0.03338146 0.8513813
v -0.09666061 -0.04506683 1.012769
v -0.09684181 0.04158783 1.012793
v 0.02026558 -0.002007484 1.013524
v 0.03584099 -0.002039909 1.144576
v -0.0523243 -0.03662586 1.168327
v -0.05235291 0.03258705 1.168331
v 0.02933884 -0.03610611 1.293768
v 0.02933693 0.03186321 1.293782
v 0.1195145 -0.003834724 1.285462
v 0.1084633 -0.004364014 1.405806
v 0.02017975 -0.0354681 1.403909
v 0.01995087 0.03080082 1.403898
v -0.04422188 -0.0260973 1.513926
v -0.04420662 0.0221014 1.513928
v 0.0008659363 -0.002039909 1.516479
v -0.00592041 -0.002039909 1.571266
v -0.03828239 -0.02034092 1.576789
v -0.03821373 0.01629925 1.576789
v 0.01096725 -0.002039909 1.664982
v -0.00147438 -0.09115505 0.2202644
v -0.2137089 -0.03111458 0.1421242
v -0.2137089 -0.03111362 0.2209787
v -0.239727 0 0.2209787
v -0.00147438 -0.09079647 0.1419706
v -0.239727 0 0.1421242
v 0.2077942 -0.03111362 0.2209787
v 0.2077942 -0.03111458 0.1421242
v -0.2137089 0.03111458 0.1421242
v -0.2137089 0.03111458 0.2209787
v -0.00147438 0.09115505 0.2202644
v -0.00147438 0.09079647 0.1419706
v 0.2338123 0 0.1421242
v 0.2338123 0 0.2209787
v 0.2077942 0.03111458 0.2209787
v 0.2077942 0.03111458 0.1421242
v -0.2137089 -0.03111458 0.1421242
v -0.00147438 -0.09079647 0.1419706
v -0.04287113 0.0005598923 0.0706353
v -0.239727 0 0.1421242
v 1.569508E-05 -0.03564924 0.07011874
v 0.04263641 0.0005598923 0.0706353
v 0.2077942 -0.03111458 0.1421242
v -0.04494049 0.000100469 0.0705406
v -0.2137089 0.03111458 0.1421242
v -0.00147438 0.09079647 0.1419706
v 1.569508E-05 0.03676981 0.07011874
v 0.2077942 0.03111458 0.1421242
v 0.04058583 0.000100469 0.0705406
v 0.2338123 0 0.1421242
v 0.07098198 0.001119614 -0.3724661
v 0.00261879 0.06517315 -0.3732328
v 0.00261879 0.001119614 -0.4557323
v 0.00261879 -0.06293201 -0.3732328
v -0.06574249 0.001119614 -0.3724661
v 0.03424263 0.001119614 -0.3438692
v 0.04263641 0.0005598923 0.0706353
v 1.569508E-05 0.03676981 0.07011874
v 1.569508E-05 -0.03564924 0.07011874
v 0.00261879 0.02849388 -0.3438692
v 0.00261879 -0.02625179 -0.3438692
v -0.04287113 0.0005598923 0.0706353
v -0.02900314 0.001119614 -0.3438692
v -0.02900314 0.001119614 -0.3438692
v -0.06574249 0.001119614 -0.3724661
v 0.00261879 0.06517315 -0.3732328
v 0.00261879 0.02849388 -0.3438692
v 0.00261879 -0.02625179 -0.3438692
v 0.07098198 0.001119614 -0.3724661
v 0.00261879 -0.06293201 -0.3732328
v 0.03424263 0.001119614 -0.3438692
vt 0.608315 0.763969
vt 0.608314 0.756774
vt 0.608314 0.771165
vt 0.608314 0.771165
vt 0.608314 0.756774
vt 0.608314 0.756774
vt 0.608314 0.771165
vt 0.608315 0.763969
vt 0.529302 0.460104
vt 0.525018 0.461807
vt 0.529293 0.461809
vt 0.525029 0.460104
vt 0.523004 0.460104
vt 0.523004 0.461849
vt 0.535409 0.461956
vt 0.525018 0.461807
vt 0.529293 0.461809
vt 0.523004 0.461849
vt 0.535409 0.461956
vt 0.535433 0.460104
vt 0.547296 0.460104
vt 0.547264 0.462063
vt 0.547264 0.462063
vt 0.549078 0.462111
vt 0.549078 0.462111
vt 0.549114 0.460104
vt 0.538069 0.460104
vt 0.538031 0.462127
vt 0.538031 0.462127
vt 0.529043 0.462064
vt 0.529043 0.462064
vt 0.52908 0.460104
vt 0.529158 0.460104
vt 0.529124 0.461966
vt 0.529124 0.461966
vt 0.538513 0.461746
vt 0.538513 0.461746
vt 0.538543 0.460104
vt 0.541841 0.461889
vt 0.541841 0.461889
vt 0.538629 0.460104
vt 0.538756 0.460104
vt 0.523004 0.467659
vt 0.523004 0.463284
vt 0.533893 0.465084
vt 0.533976 0.467659
vt 0.553151 0.467659
vt 0.553517 0.465836
vt 0.547759 0.46507
vt 0.533893 0.465084
vt 0.523004 0.463284
vt 0.553517 0.465836
vt 0.547759 0.46507
vt 0.546821 0.467336
vt 0.529062 0.465231
vt 0.52886 0.462947
vt 0.52886 0.462947
vt 0.523004 0.461807
vt 0.523004 0.461807
vt 0.523004 0.464209
vt 0.530028 0.464477
vt 0.529391 0.462597
vt 0.529391 0.462597
vt 0.548089 0.46414
vt 0.548089 0.46414
vt 0.548409 0.465706
vt 0.544462 0.465398
vt 0.544468 0.463967
vt 0.544468 0.463967
vt 0.532956 0.462868
vt 0.532956 0.462868
vt 0.532947 0.46386
vt 0.528751 0.463741
vt 0.528727 0.462971
vt 0.528727 0.462971
vt 0.523004 0.464038
vt 0.641083 0.769055
vt 0.61313 0.761505
vt 0.61313 0.769055
vt 0.61313 0.769055
vt 0.641083 0.761505
vt 0.61313 0.761505
vt 0.669035 0.769055
vt 0.669035 0.761505
vt 0.61313 0.761505
vt 0.61313 0.769055
vt 0.641083 0.769055
vt 0.641083 0.761505
vt 0.669035 0.761505
vt 0.669035 0.769055
vt 0.669035 0.769055
vt 0.669035 0.761505
vt 0.61313 0.723877
vt 0.641083 0.723877
vt 0.61313 0.722361
vt 0.61313 0.723877
vt 0.641083 0.722361
vt 0.669035 0.722361
vt 0.669035 0.723877
vt 0.61313 0.722361
vt 0.61313 0.723877
vt 0.641083 0.723877
vt 0.641083 0.722361
vt 0.669035 0.723877
vt 0.669035 0.722361
vt 0.669035 0.723877
vt 0.669107 0.766028
vt 0.640241 0.766028
vt 0.640241 0.768585
vt 0.640241 0.766028
vt 0.611375 0.766028
vt 0.180857 0.520815
vt 0.31147 0.520815
vt 0.31147 0.541297
vt 0.31147 0.541297
vt 0.180857 0.541297
vt 0.180857 0.541297
vt 0.31147 0.520723
vt 0.180857 0.520723
vt 0.611375 0.716413
vt 0.611375 0.725657
vt 0.640241 0.725657
vt 0.640241 0.716414
vt 0.640241 0.716414
vt 0.669107 0.725657
vt 0.640241 0.725657
vt 0.669107 0.716413
vn 0 -0.8493749 0.5277901
vn -0.2385205 -0.6247064 0.7435387
vn 0.239492 -0.6194665 0.7475994
vn 0.3017932 0 0.9533734
vn -0.3017932 0 0.9533734
vn -0.2385184 0.6247023 0.7435429
vn 0.23949 0.6194624 0.7476035
vn 0 0.8493802 0.5277815
vn -0.7990242 -0.004930352 0.6012787
vn 0.02294713 -0.9994379 0.0244426
vn -0.07864063 -0.9927918 0.09044405
vn -0.8485318 -0.003070578 0.5291355
vn -0.9941545 0.007631674 0.1076967
vn 0.03124905 -0.9993253 0.01930071
vn 0.02482703 -0.9987375 0.04366945
vn 0.03642781 0.9992095 0.01591752
vn -0.0732815 0.9936361 0.08553988
vn 0.05821488 0.9981619 0.01684955
vn 0.05167246 0.9971436 0.05508659
vn -0.9230741 0.002735902 -0.3846126
vn -0.8768276 -0.005803334 -0.4807699
vn -0.04597756 -0.9985204 -0.02903653
vn -0.02731011 0.9995068 -0.01549775
vn -0.09478081 -0.9954954 0.00232362
vn -0.07928947 0.9968359 0.005604458
vn -0.9995431 -0.0002441141 -0.03022525
vn -0.8805721 -0.003623188 0.4738984
vn -0.03516174 -0.9977659 0.0568063
vn -0.02336275 0.9979607 0.05940278
vn 0.08126182 -0.9963529 -0.02602888
vn 0.1006948 0.9946759 -0.0219221
vn -0.9187616 -0.001873836 0.3948086
vn -0.9781365 -0.001888163 -0.2079554
vn 0.04777656 -0.9948559 0.08932606
vn 0.0703064 0.9932873 0.09185588
vn -0.1088129 -0.9926778 0.05244447
vn -0.09676828 0.9939289 0.05235618
vn -0.9834336 -0.0001527492 -0.1812685
vn -0.05782223 -0.9875788 0.146098
vn -0.05648398 0.9875171 0.1470363
vn -0.9072421 0.0004792602 0.4206086
vn 0.2338682 0.001232498 0.9722674
vn 0.9460418 0.0032071 -0.324029
vn -0.07864063 -0.9927918 0.09044405
vn 0.02294713 -0.9994379 0.0244426
vn 0.977939 -9.074992E-05 -0.2088904
vn 0.9966668 0.00275116 0.08153214
vn 0.03124905 -0.9993253 0.01930071
vn 0.02482703 -0.9987375 0.04366945
vn 0.03642781 0.9992095 0.01591752
vn -0.0732815 0.9936361 0.08553988
vn 0.05821488 0.9981619 0.01684955
vn 0.05167246 0.9971436 0.05508659
vn 0.9016702 0.0002995692 0.4324245
vn 0.8134837 0.003343307 0.5815781
vn -0.04597756 -0.9985204 -0.02903653
vn -0.02731011 0.9995068 -0.01549775
vn -0.09478081 -0.9954954 0.00232362
vn -0.07928947 0.9968359 0.005604458
vn 0.9922247 0.001034961 0.1244549
vn 0.9426962 0.003542783 -0.3336338
vn -0.03516174 -0.9977659 0.0568063
vn -0.02336275 0.9979607 0.05940278
vn 0.08126182 -0.9963529 -0.02602888
vn 0.1006948 0.9946759 -0.0219221
vn 0.9692452 0.001641985 -0.2460913
vn 0.9482475 -0.001186346 0.3175298
vn 0.04777656 -0.9948559 0.08932606
vn 0.0703064 0.9932873 0.09185588
vn -0.1088129 -0.9926778 0.05244447
vn -0.09676828 0.9939289 0.05235618
vn 0.8159094 0.006977771 0.5781376
vn 0.999977 -0.001367482 -0.006650004
vn -0.05782223 -0.9875788 0.146098
vn -0.05648398 0.9875171 0.1470363
vn 0.2338682 0.001232498 0.9722674
vn 0 -0.8493749 0.5277901
vn -0.3643265 -0.8888857 -0.2777562
vn -0.2385205 -0.6247064 0.7435387
vn -0.3017932 0 0.9533734
vn -0.000888344 -0.9673063 -0.2536092
vn -0.8650301 -8.355582E-05 -0.50172
vn 0.239492 -0.6194665 0.7475994
vn 0.3704557 -0.8867026 -0.2766244
vn -0.3657608 0.8878412 -0.2792076
vn -0.2385184 0.6247023 0.7435429
vn 0 0.8493802 0.5277815
vn -0.0008938348 0.9682298 -0.2500607
vn 0.8711596 -7.231658E-05 -0.4910001
vn 0.3017932 0 0.9533734
vn 0.23949 0.6194624 0.7476035
vn 0.3719119 0.8856431 -0.2780608
vn -0.3643265 -0.8888857 -0.2777562
vn -0.000888344 -0.9673063 -0.2536092
vn -0.842866 0.002783052 -0.5381162
vn -0.8650301 -8.355582E-05 -0.50172
vn -0.001627589 -0.9943903 -0.1057598
vn 0.7839712 0.002412761 -0.6207924
vn 0.3704557 -0.8867026 -0.2766244
vn -0.3413419 0 -0.9399391
vn -0.3657608 0.8878412 -0.2792076
vn -0.0008938348 0.9682298 -0.2500607
vn -0.001623168 0.9948438 -0.1014055
vn 0.3719119 0.8856431 -0.2780608
vn 0.3502552 0 -0.9366543
vn 0.8711596 -7.231658E-05 -0.4910001
vn 0.9869756 0 -0.1608705
vn 0 0.9875145 -0.1575278
vn 0 0 -1
vn 0 -0.9875157 -0.1575209
vn -0.9869763 0 -0.1608651
vn 0.989503 0.0005636599 0.1445115
vn 0.7839712 0.002412761 -0.6207924
vn -0.001623168 0.9948438 -0.1014055
vn -0.001627589 -0.9943903 -0.1057598
vn 0.002263655 0.9933025 0.1155209
vn 0.002261952 -0.9935892 0.1130285
vn -0.842866 0.002783052 -0.5381162
vn -0.9911708 0.0005631985 0.1325899
vn -0.9911708 0.0005631985 0.1325899
vn -0.9869763 0 -0.1608651
vn 0 0.9875145 -0.1575278
vn 0.002263655 0.9933025 0.1155209
vn 0.002261952 -0.9935892 0.1130285
vn 0.9869756 0 -0.1608705
vn 0 -0.9875157 -0.1575209
vn 0.989503 0.0005636599 0.1445115
g sword_basic_203_0
f 3/3/3 2/2/2 1/1/1
f 3/3/3 4/4/4 2/2/2
f 4/4/4 5/5/5 2/2/2
f 5/5/5 4/4/4 6/6/6
f 4/4/4 7/7/7 6/6/6
f 8/8/8 6/6/6 7/7/7
f 11/11/11 10/10/10 9/9/9
f 10/10/10 12/12/12 9/9/9
f 12/12/12 10/10/10 13/13/13
f 10/10/10 14/14/14 13/13/13
f 14/14/14 15/15/15 13/13/13
f 12/12/12 16/16/16 9/9/9
f 16/16/16 12/12/12 13/13/13
f 16/16/16 17/17/17 9/9/9
f 18/18/18 16/16/16 13/13/13
f 19/19/19 18/18/18 13/13/13
f 15/15/15 20/20/20 13/13/13
f 20/20/20 19/19/19 13/13/13
f 20/20/20 15/15/15 21/21/21
f 19/19/19 20/20/20 21/21/21
f 15/15/15 22/22/22 21/21/21
f 23/23/23 19/19/19 21/21/21
f 22/22/22 24/24/24 21/21/21
f 25/25/25 23/23/23 21/21/21
f 24/24/24 26/26/26 21/21/21
f 26/26/26 25/25/25 21/21/21
f 26/26/26 24/24/24 27/27/27
f 25/25/25 26/26/26 27/27/27
f 24/24/24 28/28/28 27/27/27
f 29/29/29 25/25/25 27/27/27
f 28/28/28 30/30/30 27/27/27
f 31/31/31 29/29/29 27/27/27
f 30/30/30 32/32/32 27/27/27
f 32/32/32 31/31/31 27/27/27
f 32/32/32 30/30/30 33/33/33
f 31/31/31 32/32/32 33/33/33
f 30/30/30 34/34/34 33/33/33
f 35/35/35 31/31/31 33/33/33
f 34/34/34 36/36/36 33/33/33
f 37/37/37 35/35/35 33/33/33
f 36/36/36 38/38/38 33/33/33
f 38/38/38 37/37/37 33/33/33
f 36/36/36 39/39/39 38/38/38
f 40/40/40 37/37/37 38/38/38
f 39/39/39 41/41/41 38/38/38
f 41/41/41 40/40/40 38/38/38
f 42/42/42 41/41/41 39/39/39
f 40/40/40 41/41/41 42/42/42
f 45/45/45 44/44/44 43/43/43
f 46/46/46 45/45/45 43/43/43
f 45/45/45 46/46/46 47/47/47
f 48/48/48 45/45/45 47/47/47
f 49/49/49 48/48/48 47/47/47
f 50/50/50 46/46/46 43/43/43
f 46/46/46 50/50/50 47/47/47
f 51/51/51 50/50/50 43/43/43
f 50/50/50 52/52/52 47/47/47
f 52/52/52 53/53/53 47/47/47
f 54/54/54 49/49/49 47/47/47
f 53/53/53 54/54/54 47/47/47
f 49/49/49 54/54/54 55/55/55
f 54/54/54 53/53/53 55/55/55
f 56/56/56 49/49/49 55/55/55
f 53/53/53 57/57/57 55/55/55
f 58/58/58 56/56/56 55/55/55
f 57/57/57 59/59/59 55/55/55
f 60/60/60 58/58/58 55/55/55
f 59/59/59 60/60/60 55/55/55
f 58/58/58 60/60/60 61/61/61
f 60/60/60 59/59/59 61/61/61
f 62/62/62 58/58/58 61/61/61
f 59/59/59 63/63/63 61/61/61
f 64/64/64 62/62/62 61/61/61
f 63/63/63 65/65/65 61/61/61
f 66/66/66 64/64/64 61/61/61
f 65/65/65 66/66/66 61/61/61
f 64/64/64 66/66/66 67/67/67
f 66/66/66 65/65/65 67/67/67
f 68/68/68 64/64/64 67/67/67
f 65/65/65 69/69/69 67/67/67
f 70/70/70 68/68/68 67/67/67
f 69/69/69 71/71/71 67/67/67
f 72/72/72 70/70/70 67/67/67
f 71/71/71 72/72/72 67/67/67
f 72/72/72 73/73/73 70/70/70
f 73/73/73 72/72/72 71/71/71
f 73/73/73 74/74/74 70/70/70
f 75/75/75 73/73/73 71/71/71
f 76/76/76 74/74/74 73/73/73
f 73/73/73 75/75/75 76/76/76
f 79/79/79 78/78/78 77/77/77
f 79/79/79 80/80/80 78/78/78
f 78/78/78 81/81/81 77/77/77
f 80/80/80 82/82/82 78/78/78
f 77/77/77 81/81/81 83/83/83
f 81/81/81 84/84/84 83/83/83
f 82/82/82 80/80/80 85/85/85
f 80/80/80 86/86/86 85/85/85
f 85/85/85 86/86/86 87/87/87
f 88/88/88 85/85/85 87/87/87
f 84/84/84 89/89/89 83/83/83
f 89/89/89 90/90/90 83/83/83
f 88/88/88 87/87/87 91/91/91
f 90/90/90 89/89/89 91/91/91
f 92/92/92 88/88/88 91/91/91
f 89/89/89 92/92/92 91/91/91
f 95/95/95 94/94/94 93/93/93
f 93/93/93 96/96/96 95/95/95
f 97/97/97 94/94/94 95/95/95
f 97/97/97 98/98/98 94/94/94
f 99/99/99 94/94/94 98/98/98
f 96/96/96 100/100/100 95/95/95
f 100/100/100 96/96/96 95/95/95
f 96/96/96 101/101/101 95/95/95
f 101/101/101 102/102/102 95/95/95
f 95/95/95 102/102/102 103/103/103
f 102/102/102 98/98/98 103/103/103
f 98/98/98 102/102/102 104/104/104
f 98/98/98 105/105/105 99/99/99
f 105/105/105 98/98/98 104/104/104
f 105/105/105 106/106/106 99/99/99
f 106/106/106 105/105/105 104/104/104
f 109/109/109 108/108/108 107/107/107
f 109/109/109 107/107/107 110/110/110
f 111/111/111 108/108/108 109/109/109
f 109/109/109 110/110/110 111/111/111
f 114/114/114 113/113/113 112/112/112
f 113/113/113 115/115/115 112/112/112
f 116/116/116 114/114/114 112/112/112
f 115/115/115 117/117/117 112/112/112
f 118/118/118 114/114/114 116/116/116
f 115/115/115 118/118/118 117/117/117
f 119/119/119 118/118/118 116/116/116
f 118/118/118 119/119/119 117/117/117
f 122/122/122 121/121/121 120/120/120
f 123/123/123 122/122/122 120/120/120
f 120/120/120 121/121/121 124/124/124
f 125/125/125 122/122/122 123/123/123
f 121/121/121 126/126/126 124/124/124
f 127/127/127 125/125/125 123/123/123
f 124/124/124 126/126/126 127/127/127
f 126/126/126 125/125/125 127/127/127
