g sword_lightning_006_glow
v 0.0013237 0.03571129 1.567828
v -0.1618328 -0.004823685 1.666986
v -0.1819267 -0.004823685 0.6859236
v 0.0013237 -0.04535866 1.567828
v 0.0013237 0.03571129 0.4327574
v 0.0013237 -0.04535866 0.4327574
v 0.184576 -0.004823685 0.6859236
v 0.1644802 -0.004823685 1.666986
vt 0.7447939 0.6648574
vt 0.7168685 0.6964177
vt 0.7134292 0.3841611
vt 0.7447939 0.6648574
vt 0.7447939 0.3035823
vt 0.7447939 0.3035823
vt 0.7761588 0.3841611
vt 0.7727193 0.6964177
vn 0 0.9999976 0.002201096
vn -0.9999549 0 0.009495153
vn -0.9999549 0 0.009495153
vn 0 -0.9999976 0.002201096
vn 0 0.9999976 0.002201096
vn 0 -0.9999976 0.002201096
vn 0.9999549 0 0.009496063
vn 0.9999549 0 0.009496062
g sword_lightning_006_glow_0
f 3/3/3 2/2/2 1/1/1
f 2/2/2 3/3/3 4/4/4
f 5/5/5 3/3/3 1/1/1
f 3/3/3 6/6/6 4/4/4
f 5/5/5 1/1/1 7/7/7
f 4/4/4 6/6/6 7/7/7
f 1/1/1 8/8/8 7/7/7
f 8/8/8 4/4/4 7/7/7
