g sword_novelty_003
v -0.1592445 0.04579926 1.37721
v -0.1108761 0.04590225 1.573834
v -0.197443 0.01485062 1.377114
v 0.05028152 0.04631424 0.2909937
v 0.07146835 0.0213356 0.2911654
v 0.09878731 0.04643631 0.5523424
v -0.1592445 0.04579926 1.37721
v -0.197443 0.01485062 1.377114
v -0.1668339 0.04578781 1.086267
v 0.03930855 -0.01638412 1.714051
v 0.09948921 -0.01958847 1.56638
v -0.04168701 -0.02257156 1.725842
v 0.2614708 0.05571747 0.2974634
v 0.2640724 0.03485107 0.3147249
v 0.08272743 0.05572891 0.3223658
v 0.07768631 -0.05572891 0.3293085
v 0.2590866 -0.03485107 0.3355112
v 0.2578106 -0.05571365 0.3181047
v -0.08302307 -0.04000473 0.2899027
v 0.1851559 -0.03935242 1.378064
v 0.07146835 -0.03968048 0.2911654
v -0.197443 -0.04033661 1.377114
v 0.05831146 -0.05192566 1.502343
v 0.1228599 -0.03897476 1.526204
v -0.04168701 -0.02257156 1.725842
v 0.09948921 -0.01958847 1.56638
v 0.0398922 0.04644012 1.714051
v 0.03930855 -0.01638412 1.714051
v -0.04168701 -0.02257156 1.725842
v -0.04210663 0.04605865 1.730103
v 0.1851559 0.04668427 1.378064
v 0.1851559 -0.03935242 1.378064
v 0.1228599 -0.03897476 1.526204
v 0.1277542 0.04664993 1.499177
v -0.04168701 -0.02257156 1.725842
v -0.197443 -0.04033661 1.377114
v -0.197443 0.01485062 1.377114
v -0.04210663 0.04605865 1.730103
v -0.1108761 0.04590225 1.573834
v 0.09948921 -0.01958847 1.56638
v 0.09160423 0.04862213 1.565984
v 0.02526283 0.04990768 1.453027
v 0.05831146 -0.05192566 1.502343
v 0.03930855 -0.01638412 1.714051
v 0.0398922 0.04644012 1.714051
v 0.09160423 0.04862213 1.565984
v 0.09948921 -0.01958847 1.56638
v 0.1277542 0.04664993 1.499177
v 0.1228599 -0.03897476 1.526204
v 0.05831146 -0.05192566 1.502343
v 0.02526283 0.04990768 1.453027
v -0.197443 -0.04033661 1.377114
v -0.1668339 0.04578781 1.086267
v -0.197443 0.01485062 1.377114
v -0.08302307 -0.04000473 0.2899027
v -0.08302307 0.04603195 0.2899027
v 0.05028152 0.04631424 0.2909937
v 0.07146835 0.0213356 0.2911654
v 0.07146835 -0.03968048 0.2911654
v 0.1851559 -0.03935242 1.378064
v 0.1851559 0.04668427 1.378064
v 0.09878731 0.04643631 0.5523424
v 0.1277542 0.04664993 1.499177
v 0.02526283 0.04990768 1.453027
v 0.1851559 0.04668427 1.378064
v -0.1592445 0.04579926 1.37721
v -0.1668339 0.04578781 1.086267
v 0.09878731 0.04643631 0.5523424
v -0.08302307 0.04603195 0.2899027
v 0.05028152 0.04631424 0.2909937
v -0.1108761 0.04590225 1.573834
v 0.09160423 0.04862213 1.565984
v 0.0398922 0.04644012 1.714051
v -0.04210663 0.04605865 1.730103
v 0.2614708 0.05571747 0.2974634
v 0.08272743 0.05572891 0.3223658
v 0.2401848 0.05629349 0.1561632
v -0.08242416 0.05612946 0.2274256
v -0.281971 0.05617142 0.2044725
v -0.2795429 0.0561142 0.2307367
v -0.2697029 0.05588913 0.3372126
v -0.2777309 0.05607224 0.2503405
v 0.2640724 0.005504608 0.3147249
v 0.2401848 0.006149292 0.1561632
v -0.2697029 0.005744934 0.3372126
v -0.281971 0.006027222 0.2044725
v -0.2697029 0.05588913 0.3372126
v -0.2794304 0.03088379 0.2414942
v -0.2777309 0.05607224 0.2503405
v -0.2697029 0.005744934 0.3372126
v 0.08272743 0.05572891 0.3223658
v 0.2640724 0.005504608 0.3147249
v 0.2640724 0.03485107 0.3147249
v 0.2401848 0.006149292 0.1561632
v 0.2614708 0.05571747 0.2974634
v 0.2401848 0.05629349 0.1561632
v -0.281971 0.05617142 0.2044725
v -0.281971 0.006027222 0.2044725
v -0.2795429 0.0561142 0.2307367
v -0.08242416 0.05612946 0.2274256
v -0.2794304 0.03088379 0.2414942
v -0.2795429 0.0561142 0.2307367
v -0.2777309 0.05607224 0.2503405
v 0.00998497 -0.05519485 -0.3454981
v -0.004384995 -0.02513313 -0.3526449
v -0.00304985 -0.04077721 -0.2746382
v -0.02625275 -0.04383278 -0.355197
v 0.02641678 0.04445076 -0.3506861
v -0.0004501343 -0.005178452 -0.3463774
v 0.03839111 0.01989937 -0.3028212
v 0.0549221 0.01714706 -0.3439474
v 0.07740784 -0.002382278 -0.3537607
v 0.03839111 0.01989937 -0.3028212
v 0.0549221 0.01714706 -0.3439474
v 0.05511284 0.000459671 -0.2494726
v 0.00998497 -0.05519485 -0.3454981
v -0.00304985 -0.04077721 -0.2746382
v -0.0009880066 -0.03564835 -0.2473936
v -0.05708694 0.000459671 -0.2494726
v -0.02625275 -0.04383278 -0.355197
v -0.07758522 0.005905151 -0.362668
v -0.02270889 0.05422592 -0.3470869
v -0.009277344 0.03621292 -0.2461748
v 0.02641678 0.04445076 -0.3506861
v 0.03839111 0.01989937 -0.3028212
v -0.0009880066 -0.03564835 -0.05696011
v -0.04325104 0.000459671 -0.05951977
v -0.0009880066 0.03656769 -0.05696011
v 0.04127502 0.000459671 -0.05951977
v 0.04619598 0.0004615784 0.2245073
v -0.0009880066 -0.03564835 0.2253008
v -0.0009880066 0.03656769 0.2253008
v -0.04817009 0.0004615784 0.2245073
v -0.02270889 0.05422592 -0.3470869
v -0.0004501343 -0.005178452 -0.3463774
v 0.02641678 0.04445076 -0.3506861
v -0.07758522 0.005905151 -0.362668
v -0.004384995 -0.02513313 -0.3526449
v -0.02625275 -0.04383278 -0.355197
v 0.07740784 -0.002382278 -0.3537607
v 0.0549221 0.01714706 -0.3439474
v 0.00998497 -0.05519485 -0.3454981
v 0.2473564 -0.05629349 0.1755953
v 0.07768631 -0.05572891 0.3293085
v 0.2578106 -0.05571365 0.3181047
v -0.07974625 -0.05612946 0.2220545
v -0.2748508 -0.05588913 0.3172503
v -0.2762318 -0.05607224 0.2300158
v -0.2769623 -0.0561676 0.1839571
v -0.2765446 -0.0561142 0.2103319
v -0.2748508 -0.005744934 0.3172503
v 0.2473564 -0.006149292 0.1755953
v 0.2590866 -0.005500793 0.3355112
v -0.2769623 -0.006027222 0.1839571
v -0.2748508 -0.05588913 0.3172503
v -0.2762318 -0.05607224 0.2300158
v -0.2772522 -0.03088379 0.2210665
v -0.2748508 -0.005744934 0.3172503
v 0.07768631 -0.05572891 0.3293085
v 0.2590866 -0.03485107 0.3355112
v 0.2590866 -0.005500793 0.3355112
v 0.2473564 -0.006149292 0.1755953
v 0.2578106 -0.05571365 0.3181047
v 0.2473564 -0.05629349 0.1755953
v -0.2769623 -0.0561676 0.1839571
v -0.2769623 -0.006027222 0.1839571
v -0.2765446 -0.0561142 0.2103319
v -0.2765446 -0.0561142 0.2103319
v -0.2772522 -0.03088379 0.2210665
v -0.07974625 -0.05612946 0.2220545
v -0.2762318 -0.05607224 0.2300158
vt 0.592719 0.389941
vt 0.592717 0.394951
vt 0.593107 0.389941
vt 0.593843 0.363843
vt 0.594319 0.363854
vt 0.593841 0.380472
vt 0.592719 0.378972
vt 0.593107 0.378972
vt 0.592718 0.371565
vt 0.591116 0.373154
vt 0.590415 0.367794
vt 0.591116 0.384389
vt 0.914168 0.573863
vt 0.919716 0.578502
vt 0.914165 0.574775
vt 0.914165 0.574775
vt 0.919716 0.578502
vt 0.914168 0.573863
vt 0.707427 0.418251
vt 0.750551 0.334368
vt 0.707427 0.378473
vt 0.750551 0.462911
vt 0.756891 0.38992
vt 0.761277 0.354211
vt 0.774392 0.418251
vt 0.764134 0.359497
vt 0.929625 0.503822
vt 0.934694 0.503822
vt 0.934716 0.504276
vt 0.929647 0.504276
vt 0.94701 0.49434
vt 0.952079 0.49434
vt 0.952085 0.498606
vt 0.947016 0.498409
vt 0.953807 0.504276
vt 0.953829 0.494313
vt 0.950577 0.494313
vt 0.948738 0.504276
vt 0.948748 0.499865
vt 0.593481 0.375066
vt 0.5924 0.37481
vt 0.592402 0.372421
vt 0.593484 0.372569
vt 0.952093 0.503822
vt 0.947024 0.503822
vt 0.947018 0.499458
vt 0.952087 0.499743
vt 0.598068 0.393637
vt 0.599149 0.393815
vt 0.599153 0.392343
vt 0.598071 0.392195
vt 0.95987 0.494313
vt 0.954796 0.486104
vt 0.956618 0.494313
vt 0.95985 0.463628
vt 0.954781 0.463628
vt 0.954765 0.463659
vt 0.956236 0.463664
vt 0.959831 0.463664
vt 0.959812 0.49434
vt 0.954743 0.49434
vt 0.954758 0.471035
vt 0.760782 0.353294
vt 0.756784 0.380008
vt 0.750551 0.334368
vt 0.750551 0.450078
vt 0.739015 0.450964
vt 0.717789 0.367875
vt 0.707427 0.418251
vt 0.707427 0.383929
vt 0.763837 0.438022
vt 0.76342 0.358175
vt 0.774392 0.378473
vt 0.774392 0.418251
vt 0.736704 0.441919
vt 0.728283 0.43985
vt 0.717789 0.367875
vt 0.711312 0.388528
vt 0.707427 0.383929
vt 0.707427 0.390719
vt 0.707427 0.418251
vt 0.707427 0.395788
vt 0.739015 0.450964
vt 0.717789 0.367875
vt 0.707427 0.418251
vt 0.707427 0.383929
vt 0.937337 0.567532
vt 0.948317 0.542248
vt 0.937288 0.544344
vt 0.950669 0.567532
vt 0.937379 0.574775
vt 0.950734 0.578502
vt 0.94293 0.578502
vt 0.950562 0.535888
vt 0.937383 0.573863
vt 0.93723 0.535888
vt 0.937262 0.532101
vt 0.950594 0.532101
vt 0.937277 0.539111
vt 0.927442 0.554156
vt 0.968805 0.554595
vt 0.927421 0.551458
vt 0.927462 0.556691
vt 0.592578 0.385912
vt 0.59092 0.368573
vt 0.591416 0.368573
vt 0.59068 0.385912
vt 0.5896 0.385615
vt 0.591414 0.369272
vt 0.591325 0.385615
vt 0.591071 0.385615
vt 0.74699 0.449824
vt 0.743721 0.440731
vt 0.74699 0.430135
vt 0.740916 0.449824
vt 0.74699 0.408554
vt 0.742649 0.408553
vt 0.740916 0.408553
vt 0.740916 0.367283
vt 0.74699 0.396233
vt 0.74699 0.367283
vt 0.74699 0.408554
vt 0.740916 0.408553
vt 0.74699 0.420533
vt 0.743571 0.437021
vt 0.73077 0.408554
vt 0.73077 0.367283
vt 0.73077 0.408554
vt 0.73077 0.449824
vt 0.678079 0.449824
vt 0.678079 0.408554
vt 0.678079 0.408554
vt 0.678079 0.367283
vt 0.591031 0.384236
vt 0.595736 0.376715
vt 0.593397 0.385232
vt 0.591057 0.366607
vt 0.597117 0.372857
vt 0.596808 0.369043
vt 0.599183 0.387666
vt 0.595294 0.38603
vt 0.599255 0.37008
vt 0.717789 0.367875
vt 0.728283 0.43985
vt 0.736704 0.441919
vt 0.711312 0.388528
vt 0.707427 0.418251
vt 0.707427 0.395788
vt 0.707427 0.383929
vt 0.707427 0.390719
vt 0.707427 0.418251
vt 0.717789 0.367875
vt 0.739015 0.450964
vt 0.707427 0.383929
vt 0.937337 0.567532
vt 0.937288 0.544344
vt 0.948317 0.542248
vt 0.950669 0.567532
vt 0.937379 0.574775
vt 0.94293 0.578502
vt 0.950734 0.578502
vt 0.950562 0.535888
vt 0.937383 0.573863
vt 0.93723 0.535888
vt 0.937262 0.532101
vt 0.950594 0.532101
vt 0.937277 0.539111
vt 0.927421 0.551458
vt 0.968805 0.554595
vt 0.927442 0.554156
vt 0.927462 0.556691
vn -0.110983 0.9937557 0.01150305
vn -0.8193238 0.4437203 0.3630714
vn -0.994478 0.08041337 0.06743187
vn 0.1056221 0.7467051 -0.6567157
vn 0.9545386 0.02660695 -0.2968971
vn 0.7298051 0.6793537 -0.07657135
vn -0.110983 0.9937557 0.01150305
vn -0.994478 0.08041337 0.06743187
vn -0.4679873 0.8823892 -0.04875604
vn 0.6855859 -0.4297151 0.5876368
vn 0.9241513 -0.3818925 0.01012803
vn -0.649 -0.5927032 0.4769716
vn 0.2271566 0.9689018 0.09812897
vn 0.1659405 0.05010245 0.9848622
vn 0.03401098 0.6030561 0.7969733
vn -0.02683016 -0.6030383 0.7972609
vn 0.09038641 -0.05008718 0.9946465
vn 0.2190128 -0.9689016 0.115165
vn -0.1114442 -0.9923199 -0.05367868
vn 0.3392282 -0.9405371 -0.01772487
vn 0.2789441 -0.9578366 -0.0688422
vn -0.257632 -0.966085 0.01747993
vn 0.0543111 -0.9949268 0.08468194
vn 0.4434109 -0.1601125 0.8819017
vn -0.649 -0.5927032 0.4769716
vn 0.9241513 -0.3818925 0.01012803
vn 0.506532 0.7424405 0.4384148
vn 0.6855859 -0.4297151 0.5876368
vn -0.649 -0.5927032 0.4769716
vn -0.7910146 0.2609492 0.5533547
vn 0.7306942 0.6819593 -0.03189861
vn 0.3392282 -0.9405371 -0.01772487
vn 0.4434109 -0.1601125 0.8819017
vn 0.4887136 0.5264904 0.6956773
vn -0.649 -0.5927032 0.4769716
vn -0.257632 -0.966085 0.01747993
vn -0.994478 0.08041337 0.06743187
vn -0.7910146 0.2609492 0.5533547
vn -0.8193238 0.4437203 0.3630714
vn 0.9241513 -0.3818925 0.01012803
vn 0.6585351 0.751366 -0.04219703
vn 0.05119753 0.9980382 0.03603515
vn 0.0543111 -0.9949268 0.08468194
vn 0.6855859 -0.4297151 0.5876368
vn 0.506532 0.7424405 0.4384148
vn 0.6585351 0.751366 -0.04219703
vn 0.9241513 -0.3818925 0.01012803
vn 0.4887136 0.5264904 0.6956773
vn 0.4434109 -0.1601125 0.8819017
vn 0.0543111 -0.9949268 0.08468194
vn 0.05119753 0.9980382 0.03603515
vn -0.257632 -0.966085 0.01747993
vn -0.4679873 0.8823892 -0.04875604
vn -0.994478 0.08041337 0.06743187
vn -0.1114442 -0.9923199 -0.05367868
vn -0.556725 0.7853984 -0.2705674
vn 0.1056221 0.7467051 -0.6567157
vn 0.9545386 0.02660695 -0.2968971
vn 0.2789441 -0.9578366 -0.0688422
vn 0.3392282 -0.9405371 -0.01772487
vn 0.7306942 0.6819593 -0.03189861
vn 0.7298051 0.6793537 -0.07657135
vn 0.4887136 0.5264904 0.6956773
vn 0.05119753 0.9980382 0.03603515
vn 0.7306942 0.6819593 -0.03189861
vn -0.110983 0.9937557 0.01150305
vn -0.4679873 0.8823892 -0.04875604
vn 0.7298051 0.6793537 -0.07657135
vn -0.556725 0.7853984 -0.2705674
vn 0.1056221 0.7467051 -0.6567157
vn -0.8193238 0.4437203 0.3630714
vn 0.6585351 0.751366 -0.04219703
vn 0.506532 0.7424405 0.4384148
vn -0.7910146 0.2609492 0.5533547
vn 0.2271566 0.9689018 0.09812897
vn 0.03401098 0.6030561 0.7969733
vn 0.03563336 0.5272313 -0.8489743
vn -8.153118E-05 0.9999957 0.002925135
vn -0.1245824 0.454132 -0.8821811
vn -0.09990888 0.9801835 0.1710511
vn -0.08751701 0.4218181 0.9024469
vn -0.4181701 0.8883606 -0.1896028
vn 0.0716386 -0.8499471 0.5219749
vn 0.01584102 -0.8478417 -0.5300128
vn -0.04756509 -0.8300085 0.5557188
vn -0.08742408 -0.7979161 -0.5963948
vn -0.08751701 0.4218181 0.9024469
vn -0.9693595 0.227158 0.09349591
vn -0.4181701 0.8883606 -0.1896028
vn -0.04756509 -0.8300085 0.5557188
vn 0.03401098 0.6030561 0.7969733
vn 0.0716386 -0.8499471 0.5219749
vn 0.1659405 0.05010245 0.9848622
vn 0.01584102 -0.8478417 -0.5300128
vn 0.2271566 0.9689018 0.09812897
vn 0.03563336 0.5272313 -0.8489743
vn -0.1245824 0.454132 -0.8821811
vn -0.08742408 -0.7979161 -0.5963948
vn -0.09990888 0.9801835 0.1710511
vn -8.153118E-05 0.9999957 0.002925135
vn -0.9693595 0.227158 0.09349591
vn -0.09990888 0.9801835 0.1710511
vn -0.4181701 0.8883606 -0.1896028
vn 0.3150983 -0.9405634 -0.1267021
vn 0.04642294 -0.315082 -0.9479284
vn -0.06238407 -0.9722666 0.225402
vn -0.4665406 -0.8698016 -0.1605776
vn 0.5913201 0.7078438 -0.3863903
vn 0.1744363 0.1654034 -0.970677
vn 0.581526 0.8094583 0.08127004
vn 0.0299966 0.8730074 -0.4867838
vn 0.7923412 -0.6080862 -0.04926006
vn 0.581526 0.8094583 0.08127004
vn 0.0299966 0.8730074 -0.4867838
vn 0.996704 -0.01407923 0.07989237
vn 0.3150983 -0.9405634 -0.1267021
vn -0.06238407 -0.9722666 0.225402
vn 0.001915909 -0.9992348 0.03906532
vn -0.9941187 -0.03128163 0.1036801
vn -0.4665406 -0.8698016 -0.1605776
vn -0.9855893 0.02991894 -0.1664886
vn -0.3281739 0.9131684 -0.2417134
vn -0.04838781 0.9965939 0.06677745
vn 0.5913201 0.7078438 -0.3863903
vn 0.581526 0.8094583 0.08127004
vn 0 -0.9999766 0.006836419
vn -0.9995649 -0.02560399 0.01464317
vn 0.006536575 0.9999591 0.006250401
vn 0.9997091 0.02349963 0.005434806
vn 0.9999623 0 -0.008689527
vn 0 -0.9999754 -0.007008926
vn 0 0.9999754 -0.00701529
vn -0.9999623 0 -0.00868616
vn -0.3281739 0.9131684 -0.2417134
vn 0.1744363 0.1654034 -0.970677
vn 0.5913201 0.7078438 -0.3863903
vn -0.9855893 0.02991894 -0.1664886
vn 0.04642294 -0.315082 -0.9479284
vn -0.4665406 -0.8698016 -0.1605776
vn 0.7923412 -0.6080862 -0.04926006
vn 0.0299966 0.8730074 -0.4867838
vn 0.3150983 -0.9405634 -0.1267021
vn 0.100257 -0.5272488 -0.8437756
vn -0.02683016 -0.6030383 0.7972609
vn 0.2190128 -0.9689016 0.115165
vn -0.0003062653 -0.9999958 0.002879992
vn -0.1560448 -0.4218092 0.8931556
vn -0.4024914 -0.8883647 -0.2209271
vn -0.05697205 -0.454134 -0.8891099
vn -0.1126602 -0.9801934 0.1628757
vn -0.08978562 0.8299994 0.5504901
vn 0.0561973 0.8478379 -0.5272693
vn 0.03164476 0.8499427 0.525924
vn -0.04170287 0.797938 -0.6012951
vn -0.1560448 -0.4218092 0.8931556
vn -0.4024914 -0.8883647 -0.2209271
vn -0.9736713 -0.227137 0.01931506
vn -0.08978562 0.8299994 0.5504901
vn -0.02683016 -0.6030383 0.7972609
vn 0.09038641 -0.05008718 0.9946465
vn 0.03164476 0.8499427 0.525924
vn 0.0561973 0.8478379 -0.5272693
vn 0.2190128 -0.9689016 0.115165
vn 0.100257 -0.5272488 -0.8437756
vn -0.05697205 -0.454134 -0.8891099
vn -0.04170287 0.797938 -0.6012951
vn -0.1126602 -0.9801934 0.1628757
vn -0.1126602 -0.9801934 0.1628757
vn -0.9736713 -0.227137 0.01931506
vn -0.0003062653 -0.9999958 0.002879992
vn -0.4024914 -0.8883647 -0.2209271
g sword_novelty_003_0
f 3/3/3 2/2/2 1/1/1
f 6/6/6 5/5/5 4/4/4
f 9/9/9 8/8/8 7/7/7
f 12/12/12 11/11/11 10/10/10
f 15/15/15 14/14/14 13/13/13
f 18/18/18 17/17/17 16/16/16
f 21/21/21 20/20/20 19/19/19
f 20/20/20 22/22/22 19/19/19
f 23/23/23 22/22/22 20/20/20
f 23/23/23 20/20/20 24/24/24
f 22/22/22 23/23/23 25/25/25
f 26/26/26 25/25/25 23/23/23
f 29/29/29 28/28/28 27/27/27
f 30/30/30 29/29/29 27/27/27
f 33/33/33 32/32/32 31/31/31
f 34/34/34 33/33/33 31/31/31
f 37/37/37 36/36/36 35/35/35
f 35/35/35 38/38/38 37/37/37
f 38/38/38 39/39/39 37/37/37
f 42/42/42 41/41/41 40/40/40
f 43/43/43 42/42/42 40/40/40
f 46/46/46 45/45/45 44/44/44
f 47/47/47 46/46/46 44/44/44
f 50/50/50 49/49/49 48/48/48
f 51/51/51 50/50/50 48/48/48
f 54/54/54 53/53/53 52/52/52
f 53/53/53 55/55/55 52/52/52
f 55/55/55 53/53/53 56/56/56
f 55/55/55 56/56/56 57/57/57
f 55/55/55 57/57/57 58/58/58
f 58/58/58 59/59/59 55/55/55
f 60/60/60 59/59/59 58/58/58
f 58/58/58 61/61/61 60/60/60
f 58/58/58 62/62/62 61/61/61
f 65/65/65 64/64/64 63/63/63
f 66/66/66 64/64/64 65/65/65
f 65/65/65 67/67/67 66/66/66
f 68/68/68 67/67/67 65/65/65
f 67/67/67 68/68/68 69/69/69
f 69/69/69 68/68/68 70/70/70
f 71/71/71 64/64/64 66/66/66
f 64/64/64 71/71/71 72/72/72
f 72/72/72 71/71/71 73/73/73
f 73/73/73 71/71/71 74/74/74
f 77/77/77 76/76/76 75/75/75
f 76/76/76 77/77/77 78/78/78
f 78/78/78 77/77/77 79/79/79
f 80/80/80 78/78/78 79/79/79
f 76/76/76 78/78/78 81/81/81
f 81/81/81 78/78/78 82/82/82
f 85/85/85 84/84/84 83/83/83
f 86/86/86 84/84/84 85/85/85
f 89/89/89 88/88/88 87/87/87
f 88/88/88 90/90/90 87/87/87
f 91/91/91 87/87/87 90/90/90
f 91/91/91 90/90/90 92/92/92
f 92/92/92 93/93/93 91/91/91
f 94/94/94 93/93/93 92/92/92
f 93/93/93 94/94/94 95/95/95
f 95/95/95 94/94/94 96/96/96
f 97/97/97 96/96/96 94/94/94
f 90/90/90 88/88/88 98/98/98
f 98/98/98 97/97/97 94/94/94
f 98/98/98 88/88/88 97/97/97
f 88/88/88 99/99/99 97/97/97
f 102/102/102 101/101/101 100/100/100
f 100/100/100 101/101/101 103/103/103
f 106/106/106 105/105/105 104/104/104
f 105/105/105 106/106/106 107/107/107
f 110/110/110 109/109/109 108/108/108
f 109/109/109 110/110/110 111/111/111
f 114/114/114 113/113/113 112/112/112
f 112/112/112 113/113/113 115/115/115
f 115/115/115 116/116/116 112/112/112
f 116/116/116 115/115/115 117/117/117
f 117/117/117 115/115/115 118/118/118
f 119/119/119 117/117/117 118/118/118
f 119/119/119 120/120/120 117/117/117
f 120/120/120 119/119/119 121/121/121
f 119/119/119 122/122/122 121/121/121
f 122/122/122 119/119/119 123/123/123
f 123/123/123 124/124/124 122/122/122
f 124/124/124 123/123/123 125/125/125
f 125/125/125 123/123/123 115/115/115
f 118/118/118 115/115/115 126/126/126
f 119/119/119 118/118/118 127/127/127
f 118/118/118 126/126/126 127/127/127
f 123/123/123 119/119/119 128/128/128
f 119/119/119 127/127/127 128/128/128
f 115/115/115 123/123/123 129/129/129
f 115/115/115 129/129/129 126/126/126
f 123/123/123 128/128/128 129/129/129
f 129/129/129 130/130/130 126/126/126
f 130/130/130 129/129/129 128/128/128
f 130/130/130 131/131/131 126/126/126
f 126/126/126 131/131/131 127/127/127
f 132/132/132 130/130/130 128/128/128
f 132/132/132 128/128/128 127/127/127
f 131/131/131 133/133/133 127/127/127
f 133/133/133 132/132/132 127/127/127
f 136/136/136 135/135/135 134/134/134
f 134/134/134 135/135/135 137/137/137
f 138/138/138 137/137/137 135/135/135
f 137/137/137 138/138/138 139/139/139
f 140/140/140 138/138/138 135/135/135
f 140/140/140 135/135/135 141/141/141
f 142/142/142 138/138/138 140/140/140
f 145/145/145 144/144/144 143/143/143
f 146/146/146 143/143/143 144/144/144
f 147/147/147 146/146/146 144/144/144
f 148/148/148 146/146/146 147/147/147
f 143/143/143 146/146/146 149/149/149
f 146/146/146 150/150/150 149/149/149
f 153/153/153 152/152/152 151/151/151
f 151/151/151 152/152/152 154/154/154
f 157/157/157 156/156/156 155/155/155
f 158/158/158 157/157/157 155/155/155
f 158/158/158 155/155/155 159/159/159
f 158/158/158 159/159/159 160/160/160
f 160/160/160 161/161/161 158/158/158
f 161/161/161 160/160/160 162/162/162
f 163/163/163 162/162/162 160/160/160
f 164/164/164 162/162/162 163/163/163
f 164/164/164 165/165/165 162/162/162
f 166/166/166 157/157/157 158/158/158
f 165/165/165 166/166/166 162/162/162
f 157/157/157 166/166/166 165/165/165
f 167/167/167 157/157/157 165/165/165
f 170/170/170 169/169/169 168/168/168
f 171/171/171 169/169/169 170/170/170
