g sword_epic_004_crystal
v -0.0423708 0.06977081 -0.02077866
v 9.536743E-07 0 0.08505249
v -0.07761097 -0.04571342 -0.02077866
v 0.0423708 -0.06977081 -0.02077866
v 0.07761097 0.04571342 -0.02077866
v -0.0423708 0.06977081 -0.02077866
v -0.07761097 -0.04571342 -0.02077866
v 9.536743E-07 0 -0.08505249
v 0.0423708 -0.06977081 -0.02077866
v 0.07761097 0.04571342 -0.02077866
v 0.0423708 -0.06977081 -0.02077866
v -0.07761097 -0.04571342 -0.02077866
v 9.536743E-07 0 0.08505249
v -0.0423708 0.06977081 -0.02077866
v 0.07761097 0.04571342 -0.02077866
v 9.536743E-07 0 -0.08505249
v -0.07761097 -0.04571342 -0.02077866
v 0.0423708 -0.06977081 -0.02077866
v 0.07761097 0.04571342 -0.02077866
v -0.0423708 0.06977081 -0.02077866
vt 0.199543 0.061028
vt 0.186106 0.073086
vt 0.186149 0.061028
vt 0.199543 0.061028
vt 0.186149 0.061028
vt 0.173511 0.09012
vt 0.199132 0.09012
vt 0.199165 0.121998
vt 0.173511 0.09012
vt 0.199132 0.09012
vt 0.174392 0.078519
vt 0.199212 0.078519
vt 0.199133 0.111986
vt 0.174392 0.078519
vt 0.199212 0.078519
vt 0.201072 0.031586
vt 0.20111 0.060525
vt 0.171501 0.060525
vt 0.20111 0.060525
vt 0.171501 0.060525
vn -0.5096366 0.8584253 0.05810815
vn 0 0 1
vn -0.8541806 -0.5143553 0.07624983
vn 0.5096285 -0.8584301 0.05810765
vn 0.8541771 0.5143611 0.07624871
vn -0.5096366 0.8584253 0.05810815
vn -0.8541806 -0.5143553 0.07624983
vn 0 0 -1
vn 0.5096285 -0.8584301 0.05810765
vn 0.8541771 0.5143611 0.07624871
vn 0.5096285 -0.8584301 0.05810765
vn -0.8541806 -0.5143553 0.07624983
vn 0 0 1
vn -0.5096366 0.8584253 0.05810815
vn 0.8541771 0.5143611 0.07624871
vn 0 0 -1
vn -0.8541806 -0.5143553 0.07624983
vn 0.5096285 -0.8584301 0.05810765
vn 0.8541771 0.5143611 0.07624871
vn -0.5096366 0.8584253 0.05810815
g sword_epic_004_crystal_0
f 3/3/3 2/2/2 1/1/1
f 5/5/5 2/2/2 4/4/4
f 8/8/8 7/7/7 6/6/6
f 8/8/8 10/10/10 9/9/9
f 13/13/13 12/12/12 11/11/11
f 13/13/13 15/15/15 14/14/14
f 18/18/18 17/17/17 16/16/16
f 20/20/20 19/19/19 16/16/16
