g sword_lightning_003_glow
v -0.07943726 0.03079414 0.6929102
v -0.07764435 -0.02524185 0.3175631
v -0.07764435 0.03082848 0.3175631
v 1.38204E-18 0.04979324 0.447011
v -0.07943726 -0.02520561 0.6929102
v -6.058129E-21 -0.04420471 0.447011
v -6.612991E-19 0.04976082 0.6929102
v -0.08905983 0.03076172 1.051232
v 0.07943916 0.03079414 0.6929102
v 0.07764435 0.03082848 0.3175631
v 0.07943916 -0.02520561 0.6929102
v 0.07764435 -0.02524185 0.3175631
v -4.688718E-21 -0.04417038 0.6929102
v 0.08905983 -0.02517128 1.051232
v 0.08905983 0.03076172 1.051232
v -0.08905983 -0.02517128 1.051232
v 0 -0.04413795 1.051232
v -1.938694E-17 -0.02515221 1.228024
v -1.332689E-18 0.04972649 1.051232
v -1.938693E-17 0.03074265 1.228024
vt 0.7173896 0.4723936
vt 0.719565 0.3501984
vt 0.7189885 0.3448931
vt 0.7453355 0.3871206
vt 0.7180024 0.4752619
vt 0.7454484 0.3946258
vt 0.7448733 0.4715254
vt 0.7130644 0.5966272
vt 0.77242 0.4726507
vt 0.7722157 0.3451013
vt 0.7719602 0.4755149
vt 0.7717639 0.3504043
vt 0.7450019 0.4763339
vt 0.7748646 0.5974088
vt 0.7753869 0.5969646
vt 0.7137676 0.5970778
vt 0.7443405 0.5973909
vt 0.7439768 0.6582659
vt 0.7441882 0.59664
vt 0.7438792 0.6590463
vn -0.699237 0.7148247 -0.009646904
vn -0.936152 -0.3515695 -0.004271571
vn -0.9361531 0.351567 -0.004273725
vn 0 0.9999999 -0.0005884081
vn -0.699234 -0.7148279 -0.009644966
vn 0 -0.9999999 -0.0005822099
vn 0 0.9999982 -0.001881602
vn -0.7279058 0.6790126 0.09536792
vn 0.6992334 0.7148284 -0.009646853
vn 0.9361503 0.3515739 -0.004278298
vn 0.6992303 -0.7148315 -0.009644913
vn 0.9361494 -0.3515766 -0.004276145
vn 0 -0.9999982 -0.001878829
vn 0.7279033 -0.679015 0.09537067
vn 0.7279017 0.6790167 0.09536979
vn -0.7279073 -0.6790109 0.0953688
vn 0 -0.9998074 0.01962827
vn 0 -0.4158683 0.9094249
vn 0 0.9998074 0.0196261
vn 0 0.4158669 0.9094255
g sword_lightning_003_glow_0
f 3/3/3 2/2/2 1/1/1
f 3/3/3 1/1/1 4/4/4
f 2/2/2 5/5/5 1/1/1
f 5/5/5 2/2/2 6/6/6
f 1/1/1 7/7/7 4/4/4
f 1/1/1 5/5/5 8/8/8
f 7/7/7 1/1/1 8/8/8
f 7/7/7 9/9/9 4/4/4
f 9/9/9 10/10/10 4/4/4
f 9/9/9 11/11/11 10/10/10
f 11/11/11 12/12/12 10/10/10
f 12/12/12 11/11/11 6/6/6
f 13/13/13 5/5/5 6/6/6
f 11/11/11 13/13/13 6/6/6
f 14/14/14 11/11/11 9/9/9
f 13/13/13 11/11/11 14/14/14
f 9/9/9 7/7/7 15/15/15
f 15/15/15 14/14/14 9/9/9
f 5/5/5 13/13/13 16/16/16
f 5/5/5 16/16/16 8/8/8
f 17/17/17 13/13/13 14/14/14
f 13/13/13 17/17/17 16/16/16
f 17/17/17 14/14/14 18/18/18
f 18/18/18 16/16/16 17/17/17
f 18/18/18 14/14/14 15/15/15
f 8/8/8 16/16/16 18/18/18
f 7/7/7 19/19/19 15/15/15
f 19/19/19 7/7/7 8/8/8
f 20/20/20 8/8/8 18/18/18
f 20/20/20 18/18/18 15/15/15
f 20/20/20 15/15/15 19/19/19
f 19/19/19 8/8/8 20/20/20
