g upperjaw
v 1.50854 0.3316414 0.1077473
v 1.906903 0.01143325 0.1122138
v 1.762753 0.01551199 0.1661884
v 0.6025661 0.3281558 -0.3001087
v 0.430714 0.3758894 0.2356073
v 0.7148708 0.3662739 0.1282784
v 1.438427 0.2696814 -0.4211105
v 1.330853 0.3504452 0.003186415
v 1.527602 0.2650795 -0.0376523
v 0.8381522 0.353885 -0.4370492
v 0.6975558 0.4051817 0.145818
v 0.9452937 0.395851 0.05494184
v 1.235079 0.3326145 -0.4290422
v 1.120707 0.4054058 0.008494089
v 1.326378 0.3411432 0.003591727
v 1.605429 0.1643208 -0.355759
v 1.527451 0.2558268 -0.0363286
v 1.673825 0.134689 -0.01667052
v 1.725026 0.01829511 -0.2566946
v 1.674519 0.1332003 -0.01775627
v 1.772221 -0.002014276 0.001331995
v 1.50854 -0.3059366 0.1559279
v 1.762753 0.01551199 0.1661884
v 1.906903 0.01143325 0.1122138
v 0.6025661 -0.3637928 -0.2478197
v 0.7148708 -0.3371031 0.1814315
v 0.430714 -0.3304808 0.2889854
v 1.438427 -0.3241472 -0.3762363
v 1.527602 -0.2619594 0.002175043
v 1.330853 -0.3402502 0.05538101
v 0.8381522 -0.4098228 -0.3793376
v 0.9452937 -0.3773787 0.1133735
v 0.6975558 -0.3729478 0.2046196
v 1.235079 -0.3875822 -0.3746188
v 1.326378 -0.3309891 0.05438442
v 1.120707 -0.3938101 0.06888837
v 1.605429 -0.2101197 -0.3274634
v 1.673825 -0.1298456 0.003320406
v 1.527451 -0.2526094 0.002092074
v 1.725026 -0.05080586 -0.2514723
v 1.772221 0.008082274 0.0005690557
v 1.674519 -0.1285365 0.002022932
v 0.1910785 0.05515167 0.6907451
v -0.009849242 0.00815076 0.006917666
v 0.1453689 0.2156312 0.1400916
v 0.1453689 -0.1863374 0.170468
v -0.009849242 0.00815076 0.006917666
v 0.1910785 0.05515167 0.6907451
v 1.606123 -0.4092036 -0.0154932
v 1.906903 0.01143325 0.1122138
v 1.892193 0.001831714 -0.01484471
v 1.606123 0.4079403 -0.07724266
v 1.892193 0.001831714 -0.01484471
v 1.906903 0.01143325 0.1122138
v 0.2407363 -0.3101549 0.2246129
v 0.2335914 0.01290101 0.1631095
v 0.1453689 -0.1863374 0.170468
v 0.1453689 0.2156312 0.1400916
v 0.2335914 0.01290101 0.1631095
v 0.2407363 0.34613 0.175018
v -0.009849242 0.00815076 0.006917666
v 0.2335914 0.01290101 0.1631095
v 0.1453689 0.2156312 0.1400916
v 0.2335914 0.01290101 0.1631095
v -0.009849242 0.00815076 0.006917666
v 0.1453689 -0.1863374 0.170468
v 0.8065913 0.6689749 -0.02231007
v 0.3422683 0.5769529 0.3242285
v 0.3912662 0.4159013 0.2585775
v 0.2407363 0.34613 0.175018
v 0.3238071 0.4926537 0.4034755
v 0.1453689 0.2156312 0.1400916
v 0.8080104 0.6818656 0.1918346
v 1.522936 0.02706236 0.3190371
v 1.50854 0.3316414 0.1077473
v 1.762753 0.01551199 0.1661884
v 1.189934 0.4473033 0.517863
v 1.205975 0.553834 0.1238915
v 0.7891181 0.4754222 0.629502
v 0.8080104 0.6818656 0.1918346
v 0.2439807 0.4052326 0.5528371
v 0.3238071 0.4926537 0.4034755
v 0.1453689 0.2156312 0.1400916
v 0.1910785 0.05515167 0.6907451
v 0.1453689 0.2156312 0.1400916
v 0.7946971 0.06682232 0.845185
v 1.225741 0.05547974 0.6950881
v 1.522936 0.02706236 0.3190371
v 1.205975 0.553834 0.1238915
v 1.230612 0.6262386 -0.07957583
v 1.606123 0.4079403 -0.07724266
v 0.8080104 0.6818656 0.1918346
v 0.3422683 0.5769529 0.3242285
v 0.8065913 0.6689749 -0.02231007
v 0.8080104 0.6818656 0.1918346
v 1.230612 0.6262386 -0.07957583
v 1.230612 0.6262386 -0.07957583
v 0.8065913 0.6689749 -0.02231007
v 0.8106921 0.01885414 0.2104156
v 1.228234 0.01202101 0.119991
v 1.606123 0.4079403 -0.07724266
v 1.892193 0.001831714 -0.01484471
v 0.3912662 0.4159013 0.2585775
v 0.2407363 0.34613 0.175018
v 0.2335914 0.01290101 0.1631095
v 0.3912662 0.02472747 0.2881376
v 0.8065913 0.6689749 -0.02231007
v 0.3912662 0.4159013 0.2585775
v 0.3912662 0.02472747 0.2881376
v 0.8106921 0.01885414 0.2104156
v 1.1302 0.3936208 0.01531572
v 1.069964 0.3946642 0.02673549
v 1.130547 0.3937583 0.01684303
v 1.044423 0.3556989 -0.4130467
v 0.9264472 0.3968102 0.05017776
v 0.430714 0.3758894 0.2356073
v 0.6025661 0.3281558 -0.3001087
v 0.6010211 0.502866 0.1601359
v 0.7148708 0.3662739 0.1282784
v 1.474537 0.4274005 0.006354521
v 1.330853 0.3504452 0.003186415
v 1.438427 0.2696814 -0.4211105
v 1.527602 0.2650795 -0.0376523
v 1.044423 0.3556989 -0.4130467
v 1.041703 0.5211416 0.03274078
v 0.9264472 0.3968102 0.05017776
v 1.1302 0.3936208 0.01531572
v 0.6975558 0.4051817 0.145818
v 0.8381522 0.353885 -0.4370492
v 0.8348067 0.5278596 0.05861063
v 0.9452937 0.395851 0.05494184
v 1.261883 0.4936857 -0.003085424
v 1.120707 0.4054058 0.008494089
v 1.235079 0.3326145 -0.4290422
v 1.326378 0.3411432 0.003591727
v 1.660246 0.2799566 -0.02991705
v 1.527451 0.2558268 -0.0363286
v 1.605429 0.1643208 -0.355759
v 1.673825 0.134689 -0.01667052
v 1.807408 0.09547484 -0.008196642
v 1.674519 0.1332003 -0.01775627
v 1.725026 0.01829511 -0.2566946
v 1.772221 -0.002014276 0.001331995
v 0.8065913 -0.6591179 0.07805175
v 0.3912662 -0.3666012 0.3177101
v 0.3422683 -0.5160182 0.4068229
v 0.2407363 -0.3101549 0.2246129
v 0.3238071 -0.4207324 0.4724986
v 0.1453689 -0.1863374 0.170468
v 0.8080104 -0.6396799 0.2917005
v 0.8080104 -0.6396799 0.2917005
v 1.205975 -0.5232651 0.2052857
v 1.230612 -0.6254578 0.01501245
v 1.606123 -0.4092036 -0.0154932
v 0.2439807 -0.3118204 0.6070239
v 0.3238071 -0.4207324 0.4724986
v 0.1453689 -0.1863374 0.170468
v 0.8080104 -0.6396799 0.2917005
v 0.7891181 -0.3697167 0.6933677
v 1.205975 -0.5232651 0.2052857
v 0.1910785 0.05515167 0.6907451
v 0.1453689 -0.1863374 0.170468
v 0.7946971 0.06682232 0.845185
v 1.189934 -0.3586865 0.5787684
v 1.225741 0.05547974 0.6950881
v 1.522936 0.02706236 0.3190371
v 1.50854 -0.3059366 0.1559279
v 1.522936 0.02706236 0.3190371
v 1.762753 0.01551199 0.1661884
v 1.205975 -0.5232651 0.2052857
v 1.50854 -0.3059366 0.1559279
v 1.606123 -0.4092036 -0.0154932
v 1.906903 0.01143325 0.1122138
v 1.230612 -0.6254578 0.01501245
v 0.8106921 0.01885414 0.2104156
v 0.8065913 -0.6591179 0.07805175
v 1.228234 0.01202101 0.119991
v 1.606123 -0.4092036 -0.0154932
v 1.892193 0.001831714 -0.01484471
v 0.3912662 -0.3666012 0.3177101
v 0.3912662 0.02472747 0.2881376
v 0.2335914 0.01290101 0.1631095
v 0.2407363 -0.3101549 0.2246129
v 0.8065913 -0.6591179 0.07805175
v 0.8106921 0.01885414 0.2104156
v 0.3912662 0.02472747 0.2881376
v 0.3912662 -0.3666012 0.3177101
v 1.1302 -0.381129 0.07386179
v 1.130547 -0.3810357 0.075391
v 1.069964 -0.3804443 0.08531017
v 1.044423 -0.4080089 -0.3553351
v 0.9264472 -0.3790435 0.1088078
v 0.430714 -0.3304808 0.2889854
v 0.6010211 -0.4674084 0.2334582
v 0.6025661 -0.3637928 -0.2478197
v 0.7148708 -0.3371031 0.1814315
v 1.474537 -0.4158851 0.07007999
v 1.438427 -0.3241472 -0.3762363
v 1.330853 -0.3402502 0.05538101
v 1.527602 -0.2619594 0.002175043
v 1.044423 -0.4080089 -0.3553351
v 0.9264472 -0.3790435 0.1088078
v 1.041703 -0.5046318 0.1102564
v 1.1302 -0.381129 0.07386179
v 0.6975558 -0.3729478 0.2046196
v 0.8348067 -0.5073878 0.1368424
v 0.8381522 -0.4098228 -0.3793376
v 0.9452937 -0.3773787 0.1133735
v 1.261883 -0.482862 0.07070989
v 1.235079 -0.3875822 -0.3746188
v 1.120707 -0.3938101 0.06888837
v 1.326378 -0.3309891 0.05438442
v 1.660246 -0.2755107 0.01205797
v 1.605429 -0.2101197 -0.3274634
v 1.527451 -0.2526094 0.002092074
v 1.673825 -0.1298456 0.003320406
v 1.807408 -0.08978802 0.005803297
v 1.725026 -0.05080586 -0.2514723
v 1.674519 -0.1285365 0.002022932
v 1.772221 0.008082274 0.0005690557
v 0.3422683 -0.5160182 0.4068229
v 0.8080104 -0.6396799 0.2917005
v 0.8065913 -0.6591179 0.07805175
v 1.230612 -0.6254578 0.01501245
v 1.50854 0.3316414 0.1077473
v 1.606123 0.4079403 -0.07724266
v 1.906903 0.01143325 0.1122138
v 1.205975 0.553834 0.1238915
vt 0.4835655 0.830115
vt 0.4885402 0.8810254
vt 0.4835655 0.8810254
vt 0.5198069 0.3315715
vt 0.5179513 0.327261
vt 0.5216244 0.3283989
vt 0.5198069 0.3315715
vt 0.5182691 0.3279994
vt 0.5216906 0.3282833
vt 0.5198069 0.3315715
vt 0.5179513 0.327261
vt 0.5217009 0.3282653
vt 0.5198069 0.3315715
vt 0.5182182 0.3278812
vt 0.5217065 0.3282557
vt 0.5198069 0.3315715
vt 0.5181695 0.3277681
vt 0.5218813 0.3279503
vt 0.5198069 0.3315715
vt 0.5181345 0.3276867
vt 0.5219193 0.3278841
vt 0.4835655 0.830115
vt 0.4835655 0.8810254
vt 0.4885402 0.8810254
vt 0.5198069 0.3315715
vt 0.5216244 0.3283989
vt 0.5179513 0.327261
vt 0.5198069 0.3315715
vt 0.5216906 0.3282833
vt 0.5182691 0.3279994
vt 0.5198069 0.3315715
vt 0.5217009 0.3282653
vt 0.5179513 0.327261
vt 0.5198069 0.3315715
vt 0.5217065 0.3282557
vt 0.5182182 0.3278812
vt 0.5198069 0.3315715
vt 0.5218813 0.3279503
vt 0.5181695 0.3277681
vt 0.5198069 0.3315715
vt 0.5219193 0.3278841
vt 0.5181345 0.3276867
vt 0.9465227 0.9229667
vt 0.9551951 0.9168758
vt 0.9624729 0.9222327
vt 0.9624729 0.9222327
vt 0.9551951 0.9168758
vt 0.9465227 0.9229667
vt 0.4941544 0.830115
vt 0.4885402 0.8810254
vt 0.4941544 0.8810254
vt 0.4941544 0.830115
vt 0.4941544 0.8810254
vt 0.4885402 0.8810254
vt 0.08955018 0.147673
vt 0.08390624 0.1880548
vt 0.09941757 0.1540213
vt 0.09926772 0.1532224
vt 0.08390624 0.1880548
vt 0.08954212 0.1476299
vt 0.1174177 0.1669024
vt 0.08390624 0.1880548
vt 0.09926772 0.1532224
vt 0.08390624 0.1880548
vt 0.1174177 0.1669024
vt 0.09941757 0.1540213
vt 0.4941544 0.7300861
vt 0.4895076 0.6468504
vt 0.4941544 0.6468504
vt 0.4941544 0.5903928
vt 0.4835655 0.6468504
vt 0.4941544 0.5903928
vt 0.4835655 0.7300861
vt 0.9518242 0.9747502
vt 0.9624729 0.967044
vt 0.9624729 0.9757183
vt 0.9490389 0.9648635
vt 0.9624729 0.9580248
vt 0.9482887 0.9505242
vt 0.9624729 0.9459109
vt 0.9543442 0.9278758
vt 0.9624729 0.9302551
vt 0.9624729 0.9222327
vt 0.9465227 0.9229667
vt 0.9624729 0.9222327
vt 0.9426946 0.9531696
vt 0.9446452 0.9670992
vt 0.9518242 0.9747502
vt 0.4835655 0.7791673
vt 0.4941544 0.7791673
vt 0.4941544 0.830115
vt 0.4835655 0.7300861
vt 0.4895076 0.6468504
vt 0.4941544 0.7300861
vt 0.4835655 0.7300861
vt 0.4941544 0.7791673
vt 0.1055125 0.1567808
vt 0.1041686 0.1534016
vt 0.08923104 0.1902233
vt 0.09045886 0.1929746
vt 0.1059135 0.1597784
vt 0.113302 0.1446095
vt 0.09879725 0.1501168
vt 0.08954212 0.1476299
vt 0.08390624 0.1880548
vt 0.08651331 0.1883176
vt 0.1041686 0.1534016
vt 0.09879725 0.1501168
vt 0.08651331 0.1883176
vt 0.08923104 0.1902233
vt 0.5215629 0.3285062
vt 0.5205827 0.3283299
vt 0.52157 0.3284939
vt 0.5198069 0.3315715
vt 0.518244 0.3279413
vt 0.5181934 0.3270555
vt 0.5189815 0.3452376
vt 0.5738559 0.3270555
vt 0.5181934 0.3270555
vt 0.5738559 0.3270555
vt 0.5181934 0.3270555
vt 0.5189815 0.3452376
vt 0.5181934 0.3270555
vt 0.5189815 0.3452376
vt 0.5738559 0.3270555
vt 0.5181934 0.3270555
vt 0.5181934 0.3270555
vt 0.5181934 0.3270555
vt 0.5189815 0.3452376
vt 0.5738559 0.3270555
vt 0.5181934 0.3270555
vt 0.5738559 0.3270555
vt 0.5181934 0.3270555
vt 0.5189815 0.3452376
vt 0.5181934 0.3270555
vt 0.5738559 0.3270555
vt 0.5181934 0.3270555
vt 0.5189815 0.3452376
vt 0.5181934 0.3270555
vt 0.5738559 0.3270555
vt 0.5181934 0.3270555
vt 0.5189815 0.3452376
vt 0.5181934 0.3270555
vt 0.4941544 0.7300861
vt 0.4941544 0.6468504
vt 0.4895076 0.6468504
vt 0.4941544 0.5903928
vt 0.4835655 0.6468504
vt 0.4941544 0.5903928
vt 0.4835655 0.7300861
vt 0.4835655 0.7300861
vt 0.4835655 0.7791673
vt 0.4941544 0.7791673
vt 0.4941544 0.830115
vt 0.9543442 0.9278758
vt 0.9624729 0.9302551
vt 0.9624729 0.9222327
vt 0.9624729 0.9459109
vt 0.9482887 0.9505242
vt 0.9624729 0.9580248
vt 0.9465227 0.9229667
vt 0.9624729 0.9222327
vt 0.9426946 0.9531696
vt 0.9490389 0.9648635
vt 0.9446452 0.9670992
vt 0.9518242 0.9747502
vt 0.9624729 0.967044
vt 0.9518242 0.9747502
vt 0.9624729 0.9757183
vt 0.4835655 0.7791673
vt 0.4835655 0.830115
vt 0.4941544 0.830115
vt 0.4885402 0.8810254
vt 0.1055125 0.1567808
vt 0.08923104 0.1902233
vt 0.1041686 0.1534016
vt 0.09045886 0.1929746
vt 0.1059135 0.1597784
vt 0.113302 0.1446095
vt 0.09879725 0.1501168
vt 0.08651331 0.1883176
vt 0.08390624 0.1880548
vt 0.08955018 0.147673
vt 0.1041686 0.1534016
vt 0.08923104 0.1902233
vt 0.08651331 0.1883176
vt 0.09879725 0.1501168
vt 0.5215629 0.3285062
vt 0.52157 0.3284939
vt 0.5205827 0.3283299
vt 0.5198069 0.3315715
vt 0.518244 0.3279413
vt 0.5181934 0.3270555
vt 0.5738559 0.3270555
vt 0.5189815 0.3452376
vt 0.5181934 0.3270555
vt 0.5738559 0.3270555
vt 0.5189815 0.3452376
vt 0.5181934 0.3270555
vt 0.5181934 0.3270555
vt 0.5189815 0.3452376
vt 0.5181934 0.3270555
vt 0.5738559 0.3270555
vt 0.5181934 0.3270555
vt 0.5181934 0.3270555
vt 0.5738559 0.3270555
vt 0.5189815 0.3452376
vt 0.5181934 0.3270555
vt 0.5738559 0.3270555
vt 0.5189815 0.3452376
vt 0.5181934 0.3270555
vt 0.5181934 0.3270555
vt 0.5738559 0.3270555
vt 0.5189815 0.3452376
vt 0.5181934 0.3270555
vt 0.5181934 0.3270555
vt 0.5738559 0.3270555
vt 0.5189815 0.3452376
vt 0.5181934 0.3270555
vt 0.5181934 0.3270555
vt 0.4895076 0.6468504
vt 0.4835655 0.7300861
vt 0.4941544 0.7300861
vt 0.4941544 0.7791673
vt 0.4835655 0.830115
vt 0.4941544 0.830115
vt 0.4885402 0.8810254
vt 0.4835655 0.7791673
vn 0.328551 0.4205442 0.8456931
vn 0.328551 0.4205443 0.8456931
vn 0.328551 0.4205443 0.8456931
vn -0.0002085746 -0.9960598 0.08868392
vn -0.0002085746 -0.9960598 0.0886839
vn -0.0002085746 -0.9960598 0.08868391
vn -0.3831385 -0.920387 0.07805461
vn -0.3831385 -0.920387 0.07805461
vn -0.3831385 -0.920387 0.07805461
vn -0.005880745 -0.9962554 0.08625893
vn -0.005880744 -0.9962554 0.08625893
vn -0.005880744 -0.9962554 0.08625893
vn -0.2954892 -0.9518957 0.08112225
vn -0.2954892 -0.9518957 0.08112226
vn -0.2954892 -0.9518957 0.08112226
vn -0.6413072 -0.7647325 0.06252441
vn -0.6413071 -0.7647325 0.06252439
vn -0.6413072 -0.7647325 0.0625244
vn -0.8130742 -0.5728625 0.1036281
vn -0.8130742 -0.5728626 0.1036281
vn -0.8130742 -0.5728626 0.1036281
vn 0.3285722 -0.2885524 0.8993208
vn 0.3285722 -0.2885524 0.8993208
vn 0.3285722 -0.2885524 0.8993208
vn -0.0002079088 0.998076 -0.06200287
vn -0.0002079088 0.998076 -0.06200287
vn -0.0002079088 0.998076 -0.06200288
vn -0.3832658 0.9216124 -0.06113965
vn -0.3832658 0.9216124 -0.06113965
vn -0.3832658 0.9216124 -0.06113965
vn -0.005883163 0.9979049 -0.06443
vn -0.005883162 0.9979049 -0.06443
vn -0.005883162 0.9979049 -0.06443
vn -0.2955953 0.9532441 -0.06284252
vn -0.2955953 0.9532441 -0.06284251
vn -0.2955953 0.9532441 -0.06284251
vn -0.6414472 0.7653272 -0.05310103
vn -0.6414472 0.7653272 -0.05310104
vn -0.6414472 0.7653272 -0.05310104
vn -0.8132116 0.5817382 0.01635642
vn -0.8132116 0.5817382 0.01635642
vn -0.8132116 0.5817382 0.01635642
vn -0.8430665 0.4934866 0.2137987
vn -0.8430665 0.4934866 0.2137987
vn -0.8430665 0.4934866 0.2137987
vn -0.8512626 -0.4434126 0.2806016
vn -0.8512626 -0.4434127 0.2806016
vn -0.8512626 -0.4434127 0.2806016
vn 0.8197166 -0.5704228 -0.05179228
vn 0.8197166 -0.5704228 -0.05179228
vn 0.8197166 -0.5704228 -0.05179228
vn 0.819612 0.5563161 -0.1369258
vn 0.819612 0.5563161 -0.1369258
vn 0.819612 0.5563161 -0.1369257
vn 0.3087938 -0.1712879 -0.9355783
vn 0.3087938 -0.1712879 -0.9355783
vn 0.3087938 -0.1712879 -0.9355783
vn 0.310626 0.02729489 -0.9501403
vn 0.310626 0.02729489 -0.9501403
vn 0.310626 0.02729489 -0.9501403
vn 0.5330113 0.1371493 -0.8349187
vn 0.5330113 0.1371493 -0.8349187
vn 0.5330112 0.1371492 -0.8349186
vn 0.5247286 -0.262254 -0.8098658
vn 0.5247287 -0.2622539 -0.8098659
vn 0.5247286 -0.2622539 -0.8098659
vn -0.609601 0.1330839 -0.7814572
vn -0.699357 0.6850954 -0.2038234
vn -0.4032013 0.2375727 -0.8837352
vn -0.84912 0.521765 -0.08219882
vn -0.7204251 0.6361765 0.2761651
vn -0.8818693 0.4711314 0.01848636
vn 0.05595106 0.6773353 0.7335436
vn 0.6751369 0.4417576 0.5907964
vn 0.6985654 0.5364199 0.4735613
vn 0.4779876 0.5158029 0.7109678
vn 0.4177999 0.676935 0.6059722
vn 0.3586155 0.87699 0.3198176
vn 0.02849549 0.6823868 0.7304357
vn 0.1022538 0.9180317 0.3830954
vn -0.4118395 0.5949066 0.6902712
vn -0.2650371 0.8912721 0.3679531
vn -0.8010861 0.5930387 -0.08103246
vn -0.3809712 0.4223 0.8225106
vn -0.9695864 0.2013351 0.1391626
vn 0.01132354 0.4419313 0.8969775
vn 0.4451979 0.4149932 0.7934604
vn 0.7533087 0.3269499 0.5706398
vn 0.3947967 0.8494558 0.3500861
vn 0.420983 0.8372734 0.3489219
vn 0.4699543 0.8120968 0.3458925
vn 0.3405648 0.8720251 0.3515506
vn -0.2347533 0.9703907 -0.05685811
vn -0.0351562 0.9975899 -0.05981844
vn -0.1289215 0.9899138 -0.05873484
vn 0.09201334 0.9939218 -0.06044057
vn -0.1820207 -0.3183427 -0.9303367
vn -0.1820207 -0.3183427 -0.9303367
vn -0.1820207 -0.3183427 -0.9303367
vn -0.1820207 -0.3183427 -0.9303367
vn -0.1951029 -0.2817739 -0.9394351
vn -0.1951029 -0.2817739 -0.9394351
vn 0.5649525 -0.02567083 -0.824724
vn 0.5649524 -0.02567083 -0.824724
vn 0.5649525 -0.02567083 -0.824724
vn 0.5649525 -0.02567083 -0.824724
vn -0.3250712 -0.2321923 -0.9167418
vn -0.3250712 -0.2321923 -0.9167418
vn -0.3250712 -0.2321923 -0.9167418
vn -0.3250712 -0.2321923 -0.9167418
vn -0.000232051 -0.9959629 0.08976506
vn -0.000232051 -0.9959629 0.08976506
vn -0.000232051 -0.9959629 0.08976507
vn -0.0004874612 -0.9960951 0.08828489
vn -0.0004874612 -0.9960951 0.08828489
vn -0.6497186 0.7099684 -0.2716812
vn -0.1391326 0.92566 -0.3518459
vn -0.2673094 0.9005898 -0.342759
vn 0.715634 0.6538029 -0.2457839
vn 0.1805035 0.9177171 -0.3538554
vn -0.4491141 0.8498932 -0.2756415
vn 0.3469467 0.8700052 -0.3503123
vn 0.9117305 0.35437 -0.2077724
vn -0.08563131 0.9339041 -0.3471177
vn -0.1524432 0.926257 -0.344687
vn -0.7282121 0.6410694 -0.2423573
vn 0.7897547 0.5766501 -0.209194
vn -0.7260437 0.6472945 -0.2320997
vn -0.09203265 0.9393668 -0.3303334
vn -0.2475524 0.9136731 -0.3223653
vn 0.7457485 0.6301875 -0.2161553
vn 0.232705 0.9047483 -0.3567618
vn -0.526169 0.8058403 -0.2716019
vn 0.2749474 0.8934602 -0.3551518
vn 0.9058157 0.3742757 -0.1985336
vn 0.6328255 0.6899952 -0.3513381
vn -0.155778 0.9388779 -0.3069877
vn 0.6531191 0.6723094 -0.348476
vn 0.9788015 0.0740516 -0.1909551
vn 0.7645941 0.498642 -0.4083527
vn 0.2783387 0.8872544 -0.3678412
vn 0.688581 0.5958267 -0.413336
vn 0.9162756 -0.3498057 -0.1951278
vn -0.6096111 -0.2489313 -0.7526004
vn -0.40317 -0.3675953 -0.8380499
vn -0.6994922 -0.707796 -0.09866898
vn -0.8492082 -0.5280504 -0.002870004
vn -0.7205688 -0.5872845 0.3686157
vn -0.8819416 -0.462866 0.08907355
vn 0.05595877 -0.5592552 0.8271047
vn 0.3406577 -0.8091884 0.4787134
vn 0.3949042 -0.7870851 0.4738648
vn 0.4210832 -0.7752169 0.4708796
vn 0.4700648 -0.7507718 0.4640915
vn -0.411873 -0.4842686 0.7719096
vn -0.2650987 -0.8257616 0.4978358
vn -0.8011892 -0.5983436 0.008993054
vn 0.1022863 -0.8499518 0.516836
vn 0.02850265 -0.5647219 0.8247889
vn 0.3587058 -0.8188723 0.4480829
vn -0.3809831 -0.2937719 0.8766698
vn -0.9695992 -0.1780687 0.1678357
vn 0.01132582 -0.3019865 0.9532449
vn 0.4178612 -0.5780327 0.7009068
vn 0.4452281 -0.290918 0.8468404
vn 0.7533337 -0.2373806 0.6133015
vn 0.6986479 -0.4590028 0.5488238
vn 0.6751543 -0.3478292 0.6505242
vn 0.4780226 -0.4029575 0.7804613
vn 0.5151584 -0.5723073 0.6380252
vn 0.5184725 -0.5692512 0.6380747
vn 0.5192609 -0.5685211 0.6380847
vn 0.5213841 -0.5665485 0.6381075
vn -0.1820249 0.174825 -0.9676276
vn -0.1820249 0.1748249 -0.9676276
vn -0.1820249 0.1748249 -0.9676276
vn -0.1820249 0.174825 -0.9676276
vn -0.1951048 0.1373206 -0.9711217
vn -0.1951048 0.1373206 -0.9711217
vn 0.5652987 -0.09874868 -0.8189542
vn 0.5652987 -0.09874869 -0.8189542
vn 0.5652987 -0.09874868 -0.8189542
vn 0.5652987 -0.09874869 -0.8189542
vn -0.3250768 0.0917265 -0.9412286
vn -0.3250768 0.0917265 -0.9412286
vn -0.3250768 0.0917265 -0.9412286
vn -0.3250769 0.0917265 -0.9412286
vn -0.0002214001 0.9981444 -0.06089169
vn -0.0002214001 0.9981444 -0.06089169
vn -0.0002214001 0.9981444 -0.06089168
vn -0.0004877907 0.9980507 -0.06240622
vn -0.0004877908 0.9980507 -0.06240622
vn -0.6498553 -0.7426012 -0.1619616
vn -0.2673886 -0.9418277 -0.2036268
vn -0.1391708 -0.9679946 -0.208849
vn 0.7157605 -0.6831719 -0.1447861
vn 0.1805892 -0.9604342 -0.212023
vn 0.3471815 -0.9126589 -0.215682
vn -0.4492417 -0.8815886 -0.1448572
vn 0.9117801 -0.381444 -0.1521756
vn -0.08563773 -0.9754411 -0.202931
vn -0.7283403 -0.6700611 -0.1433126
vn -0.1524777 -0.9675109 -0.2016759
vn 0.7898512 -0.601406 -0.1201917
vn -0.726154 -0.674697 -0.1322286
vn -0.2476147 -0.9517089 -0.1814856
vn -0.09205444 -0.9783214 -0.1855077
vn 0.7458707 -0.6553678 -0.1190375
vn 0.2327924 -0.9480416 -0.2168528
vn 0.2751698 -0.936596 -0.216955
vn -0.5263086 -0.8374054 -0.1474841
vn 0.9058818 -0.399704 -0.1400525
vn 0.6329298 -0.7348464 -0.2437224
vn 0.6533844 -0.7167807 -0.2435455
vn -0.1558332 -0.9743264 -0.1624933
vn 0.9788055 -0.1018716 -0.1776569
vn 0.7646846 -0.5541915 -0.3288302
vn 0.6888607 -0.6508353 -0.3191933
vn 0.2784256 -0.9324063 -0.2304289
vn 0.9163313 0.3163401 -0.245491
vn -0.2348389 -0.967894 0.08962033
vn -0.1289708 -0.9874918 0.09069979
vn -0.03517104 -0.9952495 0.09078221
vn 0.09204852 -0.9917138 0.08961505
vn 0.5183959 0.6588159 0.5451857
vn 0.5191853 0.6580947 0.5453055
vn 0.5213084 0.6561486 0.545625
vn 0.5150818 0.6618291 0.5446769
g upperjaw_0
f 3/3/3 2/2/2 1/1/1
f 6/6/6 5/5/5 4/4/4
f 9/9/9 8/8/8 7/7/7
f 12/12/12 11/11/11 10/10/10
f 15/15/15 14/14/14 13/13/13
f 18/18/18 17/17/17 16/16/16
f 21/21/21 20/20/20 19/19/19
f 24/24/24 23/23/23 22/22/22
f 27/27/27 26/26/26 25/25/25
f 30/30/30 29/29/29 28/28/28
f 33/33/33 32/32/32 31/31/31
f 36/36/36 35/35/35 34/34/34
f 39/39/39 38/38/38 37/37/37
f 42/42/42 41/41/41 40/40/40
f 45/45/45 44/44/44 43/43/43
f 48/48/48 47/47/47 46/46/46
f 51/51/51 50/50/50 49/49/49
f 54/54/54 53/53/53 52/52/52
f 57/57/57 56/56/56 55/55/55
f 60/60/60 59/59/59 58/58/58
f 63/63/63 62/62/62 61/61/61
f 66/66/66 65/65/65 64/64/64
f 69/69/69 68/68/68 67/67/67
f 68/68/68 69/69/69 70/70/70
f 71/71/71 68/68/68 70/70/70
f 72/72/72 71/71/71 70/70/70
f 68/68/68 71/71/71 73/73/73
f 76/76/76 75/75/75 74/74/74
f 74/74/74 75/75/75 77/77/77
f 75/75/75 78/78/78 77/77/77
f 77/77/77 78/78/78 79/79/79
f 78/78/78 80/80/80 79/79/79
f 79/79/79 80/80/80 81/81/81
f 80/80/80 82/82/82 81/81/81
f 82/82/82 83/83/83 81/81/81
f 79/79/79 81/81/81 84/84/84
f 85/85/85 84/84/84 81/81/81
f 86/86/86 79/79/79 84/84/84
f 79/79/79 86/86/86 77/77/77
f 86/86/86 87/87/87 77/77/77
f 88/88/88 77/77/77 87/87/87
f 91/91/91 90/90/90 89/89/89
f 89/89/89 90/90/90 92/92/92
f 95/95/95 94/94/94 93/93/93
f 96/96/96 94/94/94 95/95/95
f 99/99/99 98/98/98 97/97/97
f 100/100/100 99/99/99 97/97/97
f 100/100/100 97/97/97 101/101/101
f 100/100/100 101/101/101 102/102/102
f 105/105/105 104/104/104 103/103/103
f 106/106/106 105/105/105 103/103/103
f 109/109/109 108/108/108 107/107/107
f 110/110/110 109/109/109 107/107/107
f 113/113/113 112/112/112 111/111/111
f 111/111/111 112/112/112 114/114/114
f 112/112/112 115/115/115 114/114/114
f 118/118/118 117/117/117 116/116/116
f 117/117/117 118/118/118 119/119/119
f 122/122/122 121/121/121 120/120/120
f 122/122/122 120/120/120 123/123/123
f 126/126/126 125/125/125 124/124/124
f 124/124/124 125/125/125 127/127/127
f 130/130/130 129/129/129 128/128/128
f 129/129/129 130/130/130 131/131/131
f 134/134/134 133/133/133 132/132/132
f 134/134/134 132/132/132 135/135/135
f 138/138/138 137/137/137 136/136/136
f 138/138/138 136/136/136 139/139/139
f 142/142/142 141/141/141 140/140/140
f 142/142/142 140/140/140 143/143/143
f 146/146/146 145/145/145 144/144/144
f 145/145/145 146/146/146 147/147/147
f 146/146/146 148/148/148 147/147/147
f 148/148/148 149/149/149 147/147/147
f 148/148/148 146/146/146 150/150/150
f 153/153/153 152/152/152 151/151/151
f 154/154/154 152/152/152 153/153/153
f 157/157/157 156/156/156 155/155/155
f 156/156/156 158/158/158 155/155/155
f 158/158/158 159/159/159 155/155/155
f 158/158/158 160/160/160 159/159/159
f 155/155/155 159/159/159 161/161/161
f 161/161/161 162/162/162 155/155/155
f 159/159/159 163/163/163 161/161/161
f 160/160/160 164/164/164 159/159/159
f 159/159/159 164/164/164 163/163/163
f 164/164/164 165/165/165 163/163/163
f 164/164/164 166/166/166 165/165/165
f 160/160/160 167/167/167 164/164/164
f 164/164/164 167/167/167 168/168/168
f 167/167/167 169/169/169 168/168/168
f 172/172/172 171/171/171 170/170/170
f 173/173/173 171/171/171 172/172/172
f 176/176/176 175/175/175 174/174/174
f 175/175/175 177/177/177 174/174/174
f 174/174/174 177/177/177 178/178/178
f 178/178/178 177/177/177 179/179/179
f 182/182/182 181/181/181 180/180/180
f 183/183/183 182/182/182 180/180/180
f 186/186/186 185/185/185 184/184/184
f 187/187/187 186/186/186 184/184/184
f 190/190/190 189/189/189 188/188/188
f 190/190/190 188/188/188 191/191/191
f 192/192/192 190/190/190 191/191/191
f 195/195/195 194/194/194 193/193/193
f 194/194/194 195/195/195 196/196/196
f 199/199/199 198/198/198 197/197/197
f 197/197/197 198/198/198 200/200/200
f 203/203/203 202/202/202 201/201/201
f 203/203/203 201/201/201 204/204/204
f 207/207/207 206/206/206 205/205/205
f 206/206/206 207/207/207 208/208/208
f 211/211/211 210/210/210 209/209/209
f 209/209/209 210/210/210 212/212/212
f 215/215/215 214/214/214 213/213/213
f 213/213/213 214/214/214 216/216/216
f 219/219/219 218/218/218 217/217/217
f 217/217/217 218/218/218 220/220/220
f 223/223/223 222/222/222 221/221/221
f 224/224/224 222/222/222 223/223/223
f 227/227/227 226/226/226 225/225/225
f 225/225/225 226/226/226 228/228/228
