g WizSummonStaff03_mesh
v -0.6224878 0.3510904 -7.472822E-16
v -0.5743937 0.3065932 -9.516292E-16
v -0.5825928 0.2157766 -1.228206E-15
v -0.6344146 0.1506408 -1.483612E-15
v -0.7137882 0.3468957 -7.591716E-16
v -0.7626482 0.188741 -1.542259E-15
v -0.7895389 0.2764882 -1.167527E-15
v -0.7020962 0.1408078 -1.709129E-15
v -0.7137882 0.3468957 -7.591716E-16
v -0.7117767 0.1161827 -1.839757E-15
v -0.7020962 0.1408078 -1.709129E-15
v -0.600405 0.1301213 -1.403517E-15
v -0.5825928 0.2157766 -1.228206E-15
v -0.6224878 0.3510904 -7.472822E-16
v -0.5415921 0.2116234 -1.235222E-15
v -0.5743937 0.3065932 -9.516292E-16
v -0.5241165 0.3169529 -9.732968E-16
v -0.6224878 0.3510904 -7.472822E-16
v -0.6123701 0.3829232 -6.171015E-16
v -0.713805 0.3993316 -8.99471E-16
v -0.7895389 0.2764882 -1.167527E-15
v -1.326159 0.5230675 -1.166289E-15
v -0.7137882 0.3468957 -7.591716E-16
v -0.7895389 0.2764882 -1.167527E-15
v -0.6123701 0.3829232 -6.171015E-16
v -0.6224878 0.3510904 -7.472822E-16
v 0.041419 -0.07659607 -5.397268E-16
v 0.01959711 -0.05338211 -5.794182E-16
v 0.02659205 -0.01064569 -6.266081E-16
v 0.08568996 -0.1178019 -5.602233E-16
v 0.1248402 -0.04848629 -6.096453E-16
v 0.468722 -0.2348582 -6.054185E-16
v 0.08579507 -0.0785903 -5.371824E-16
v 0.1248402 -0.04848629 -6.096453E-16
v 0.02765936 -0.1032192 -4.96036E-16
v 0.041419 -0.07659607 -5.397268E-16
v -0.8287401 -0.8704242 -1.147139E-15
v -0.7955738 -0.9291219 -1.375807E-15
v -0.8077705 -0.9809172 -1.562434E-15
v -0.933012 -0.9987919 -1.107468E-15
v -0.9631906 -0.9211884 -7.55997E-16
v -0.9400458 -0.8543161 -7.318434E-16
v -1.001885 -0.9038697 -8.431984E-16
v -0.933012 -0.9987919 -1.107468E-15
v -1.026139 -1.093177 -1.044087E-15
v -0.9631906 -0.9211884 -7.55997E-16
v -0.933012 -0.9987919 -1.107468E-15
v -0.9606255 -0.8365379 -6.182155E-16
v -0.9400458 -0.8543161 -7.318434E-16
v 0.7009054 1.096968 -1.244145E-15
v 0.7446449 1.026117 -9.261849E-16
v 0.7339993 0.9561582 -9.151398E-16
v 0.6216172 0.951833 -1.289779E-15
v 0.5783649 1.00355 -1.489783E-15
v 0.5809753 1.056698 -1.664419E-15
v 0.7858365 1.016096 -1.031118E-15
v 0.7009054 1.096968 -1.244145E-15
v 0.7815838 1.216091 -1.206369E-15
v 0.7446449 1.026117 -9.261849E-16
v 0.7009054 1.096968 -1.244145E-15
v 0.7574594 0.9424027 -8.135733E-16
v 0.7339993 0.9561582 -9.151398E-16
v -0.8462948 0.2749778 1.221147E-16
v -0.6534214 -5.931809E-08 -2.634252E-23
v -0.8898469 1.969694E-08 8.7472E-24
v -0.6214406 0.2019183 8.966972E-17
v -0.538642 -4.846275E-08 -2.152179E-23
v -0.7199013 0.5230389 2.322759E-16
v -0.5122789 0.1664495 7.391841E-17
v -0.5286291 0.3840715 1.70562E-16
v -0.523039 0.7199013 3.197004E-16
v -0.4357705 0.3166058 1.406012E-16
v -0.3840715 0.5286291 2.347585E-16
v -0.2749779 0.8462949 3.758304E-16
v -0.3166058 0.4357706 1.93521E-16
v -0.2019183 0.6214409 2.759752E-16
v -1.313131E-08 0.8898471 3.951715E-16
v -0.1664495 0.5122791 2.274976E-16
v 4.346717E-08 0.6534216 2.901775E-16
v 0.2749779 0.846295 3.758305E-16
v 3.734647E-08 0.5386421 2.392051E-16
v 0.2019184 0.6214409 2.759752E-16
v 0.523039 0.7199015 3.197005E-16
v 0.1664496 0.5122791 2.274976E-16
v 0.3840717 0.5286291 2.347585E-16
v 0.7199016 0.5230391 2.32276E-16
v 0.316606 0.4357706 1.93521E-16
v 0.5286293 0.3840716 1.70562E-16
v 0.846295 0.2749779 1.221147E-16
v 0.4357707 0.3166059 1.406012E-16
v 0.6214411 0.2019184 8.966977E-17
v 0.8898466 1.969694E-08 8.7472E-24
v 0.5122792 0.1664496 7.391845E-17
v 0.6534213 -5.931809E-08 -2.634252E-23
v 0.5386419 -4.846275E-08 -2.152179E-23
v 0.8462945 -0.2749777 -1.221146E-16
v 0.6534213 -5.931809E-08 -2.634252E-23
v 0.8898466 1.969694E-08 8.7472E-24
v 0.6214406 -0.2019184 -8.966977E-17
v 0.5386419 -4.846275E-08 -2.152179E-23
v 0.719901 -0.5230388 -2.322759E-16
v 0.5122789 -0.1664495 -7.391845E-17
v 0.5286291 -0.3840715 -1.70562E-16
v 0.5230387 -0.7199011 -3.197003E-16
v 0.4357705 -0.3166058 -1.406012E-16
v 0.3840714 -0.5286291 -2.347585E-16
v 0.2749777 -0.8462945 -3.758303E-16
v 0.3166057 -0.4357705 -1.93521E-16
v 0.2019183 -0.6214408 -2.759751E-16
v -3.965079E-08 -0.8898467 -3.951713E-16
v 0.1664495 -0.512279 -2.274976E-16
v 2.399369E-08 -0.6534215 -2.901774E-16
v -0.2749778 -0.8462946 -3.758303E-16
v 2.129369E-08 -0.538642 -2.392051E-16
v -0.2019183 -0.6214408 -2.759752E-16
v -0.5230389 -0.7199011 -3.197003E-16
v -0.1664495 -0.512279 -2.274976E-16
v -0.3840714 -0.5286291 -2.347585E-16
v -0.7199012 -0.5230389 -2.322759E-16
v -0.3166057 -0.4357705 -1.93521E-16
v -0.528629 -0.3840715 -1.70562E-16
v -0.8462948 -0.2749778 -1.221147E-16
v -0.4357705 -0.3166058 -1.406012E-16
v -0.6214406 -0.2019184 -8.966977E-17
v -0.8898469 1.969694E-08 8.7472E-24
v -0.5122789 -0.1664496 -7.391845E-17
v -0.6534214 -5.931809E-08 -2.634252E-23
v -0.538642 -4.846275E-08 -2.152179E-23
v -1.326159 0.5230675 -1.166289E-15
v -0.7895389 0.2764882 -1.167527E-15
v -0.7626482 0.188741 -1.542259E-15
v -0.8225273 0.171507 -1.41839E-15
v -0.7020962 0.1408078 -1.709129E-15
v -0.7117767 0.1161827 -1.839757E-15
v 0.1147311 -0.005674809 -6.787913E-16
v 0.1248402 -0.04848629 -6.096453E-16
v 0.08579507 -0.0785903 -5.371824E-16
v 0.041419 -0.07659607 -5.397268E-16
v 0.05386749 0.01800115 -6.697302E-16
v 0.08579507 -0.0785903 -5.371824E-16
v 0.08698758 0.0197133 -7.111797E-16
v 0.0957661 0.04273295 -7.564343E-16
v 0.08698758 0.0197133 -7.111797E-16
v 0.0307813 0.04063919 -6.589618E-16
v 0.02659205 -0.01064569 -6.266081E-16
v 0.041419 -0.07659607 -5.397268E-16
v -0.0064812 -0.002474293 -6.308253E-16
v 0.01959711 -0.05338211 -5.794182E-16
v -0.02077648 -0.06124201 -5.802069E-16
v 0.041419 -0.07659607 -5.397268E-16
v 0.02765936 -0.1032192 -4.96036E-16
v 0.468722 -0.2348582 -6.054185E-16
v 0.1248402 -0.04848629 -6.096453E-16
v 0.1147311 -0.005674809 -6.787913E-16
v 0.1576399 0.005615503 -6.539414E-16
v 0.08698758 0.0197133 -7.111797E-16
v 0.0957661 0.04273295 -7.564343E-16
v -0.8077705 -0.9809172 -1.562434E-15
v -0.8605403 -1.008506 -1.424816E-15
v -0.8287401 -0.8704242 -1.147139E-15
v -0.8933916 -0.8345271 -8.986859E-16
v -0.933012 -0.9987919 -1.107468E-15
v -0.9400458 -0.8543161 -7.318434E-16
v -0.8138919 -0.8423887 -1.148106E-15
v -0.7706593 -0.9115102 -1.317376E-15
v -0.8865857 -0.7950414 -9.038894E-16
v -0.9400458 -0.8543161 -7.318434E-16
v -0.9606255 -0.8365379 -6.182155E-16
v -0.7955738 -0.9291219 -1.375807E-15
v -0.7923833 -0.9959993 -1.673543E-15
v -0.8077705 -0.9809172 -1.562434E-15
v -1.026139 -1.093177 -1.044087E-15
v -0.933012 -0.9987919 -1.107468E-15
v -0.8605403 -1.008506 -1.424816E-15
v -0.8650337 -1.057151 -1.345348E-15
v -0.8077705 -0.9809172 -1.562434E-15
v -0.7923833 -0.9959993 -1.673543E-15
v 0.7339993 0.9561582 -9.151398E-16
v 0.6917027 0.9282438 -1.073091E-15
v 0.7009054 1.096968 -1.244145E-15
v 0.627873 1.093391 -1.535259E-15
v 0.6216172 0.951833 -1.289779E-15
v 0.5809753 1.056698 -1.664419E-15
v 0.6120943 0.9215713 -1.294591E-15
v 0.5570537 0.9817159 -1.428767E-15
v 0.6921635 0.8881784 -1.088236E-15
v 0.7339993 0.9561582 -9.151398E-16
v 0.7574594 0.9424027 -8.135733E-16
v 0.5783649 1.00355 -1.489783E-15
v 0.5631101 1.068743 -1.76596E-15
v 0.5809753 1.056698 -1.664419E-15
v 0.7815838 1.216091 -1.206369E-15
v 0.7009054 1.096968 -1.244145E-15
v 0.627873 1.093391 -1.535259E-15
v 0.6234785 1.142045 -1.442296E-15
v 0.5809753 1.056698 -1.664419E-15
v 0.5631101 1.068743 -1.76596E-15
vt 0.8118148 0.980257
vt 0.8243712 0.9799566
vt 0.8342358 0.9797207
vt 0.8412516 0.9798885
vt 0.8188305 0.9803708
vt 0.8467922 0.980417
vt 0.8342358 0.9806209
vt 0.8566569 0.980257
vt 0.8188305 0.9803708
vt 0.879078 0.5487249
vt 0.8566569 0.980257
vt 0.8482673 0.5483317
vt 0.8342358 0.9797207
vt 0.8118148 0.980257
vt 0.8342358 0.5481527
vt 0.8243712 0.9799566
vt 0.8145065 0.5484045
vt 0.8118148 0.980257
vt 0.7893937 0.5487249
vt 0.8034251 0.5445448
vt 0.8342358 0.9806209
vt 0.8342358 0.5353661
vt 0.8188305 0.9803708
vt 0.8342358 0.9806209
vt 0.7893937 0.5487249
vt 0.8118148 0.980257
vt 0.8118148 0.980257
vt 0.8243712 0.9799566
vt 0.8342358 0.9797207
vt 0.8034251 0.5445448
vt 0.8342358 0.9806209
vt 0.8342358 0.5353661
vt 0.8188305 0.9803708
vt 0.8342358 0.9806209
vt 0.7893937 0.5487249
vt 0.8118148 0.980257
vt 0.8342358 0.9797207
vt 0.8412516 0.9798885
vt 0.8566569 0.980257
vt 0.8342358 0.9806209
vt 0.8188305 0.9803708
vt 0.8118148 0.980257
vt 0.8034251 0.5445448
vt 0.8342358 0.9806209
vt 0.8342358 0.5353661
vt 0.8188305 0.9803708
vt 0.8342358 0.9806209
vt 0.7893937 0.5487249
vt 0.8118148 0.980257
vt 0.8342358 0.9806209
vt 0.8188305 0.9803708
vt 0.8118148 0.980257
vt 0.8342358 0.9797207
vt 0.8412516 0.9798885
vt 0.8566569 0.980257
vt 0.8034251 0.5445448
vt 0.8342358 0.9806209
vt 0.8342358 0.5353661
vt 0.8188305 0.9803708
vt 0.8342358 0.9806209
vt 0.7893937 0.5487249
vt 0.8118148 0.980257
vt 0.7976819 0.4968013
vt 0.8102069 0.9502951
vt 0.7961892 0.4978163
vt 0.8110136 0.9497465
vt 0.8114388 0.9900582
vt 0.802014 0.4958857
vt 0.8121852 0.9895507
vt 0.8133546 0.9492518
vt 0.8087615 0.4951591
vt 0.8143512 0.9890929
vt 0.8170009 0.9488591
vt 0.8172636 0.4946925
vt 0.8177249 0.9887296
vt 0.8215953 0.948607
vt 0.8266884 0.4945318
vt 0.821976 0.9884963
vt 0.8266884 0.9485201
vt 0.8361132 0.4946925
vt 0.8266884 0.988416
vt 0.8317814 0.948607
vt 0.8446155 0.4951591
vt 0.8314008 0.9884963
vt 0.836376 0.9488591
vt 0.8513628 0.4958857
vt 0.8356519 0.9887296
vt 0.8400222 0.9492518
vt 0.855695 0.4968013
vt 0.8390256 0.9890929
vt 0.8423632 0.9497465
vt 0.8571876 0.4978163
vt 0.8411917 0.9895507
vt 0.8431699 0.9502951
vt 0.841938 0.9900582
vt 0.855695 0.4988312
vt 0.8431699 0.9502951
vt 0.8571876 0.4978163
vt 0.8423632 0.9508435
vt 0.841938 0.9900582
vt 0.8513628 0.4997469
vt 0.8411917 0.9905657
vt 0.8400222 0.9513384
vt 0.8446155 0.5004736
vt 0.8390256 0.9910235
vt 0.836376 0.951731
vt 0.8361132 0.50094
vt 0.8356519 0.9913868
vt 0.8317814 0.9519831
vt 0.8266884 0.5011008
vt 0.8314008 0.9916201
vt 0.8266884 0.95207
vt 0.8172636 0.50094
vt 0.8266884 0.9917005
vt 0.8215953 0.9519831
vt 0.8087614 0.5004736
vt 0.821976 0.9916201
vt 0.8170008 0.951731
vt 0.802014 0.4997469
vt 0.8177249 0.9913868
vt 0.8133546 0.9513384
vt 0.7976819 0.4988312
vt 0.8143512 0.9910235
vt 0.8110136 0.9508435
vt 0.7961892 0.4978163
vt 0.8121852 0.9905657
vt 0.8102069 0.9502951
vt 0.8114388 0.9900582
vt 0.8342358 0.5353661
vt 0.8342358 0.9806209
vt 0.8467922 0.980417
vt 0.8593487 0.5428474
vt 0.8566569 0.980257
vt 0.879078 0.5487249
vt 0.8467922 0.980417
vt 0.8342358 0.9806209
vt 0.8188305 0.9803708
vt 0.8118148 0.980257
vt 0.8412516 0.9798885
vt 0.8188305 0.9803708
vt 0.8566569 0.980257
vt 0.879078 0.5487249
vt 0.8566569 0.980257
vt 0.8482673 0.5483317
vt 0.8342358 0.9797207
vt 0.8118148 0.980257
vt 0.8342358 0.5481527
vt 0.8243712 0.9799566
vt 0.8145065 0.5484045
vt 0.8118148 0.980257
vt 0.7893937 0.5487249
vt 0.8342358 0.5353661
vt 0.8342358 0.9806209
vt 0.8467922 0.980417
vt 0.8593487 0.5428474
vt 0.8566569 0.980257
vt 0.879078 0.5487249
vt 0.8566569 0.980257
vt 0.8467922 0.980417
vt 0.8342358 0.9797207
vt 0.8243712 0.9799566
vt 0.8342358 0.9806209
vt 0.8118148 0.980257
vt 0.8342358 0.5481527
vt 0.8482673 0.5483317
vt 0.8145065 0.5484045
vt 0.8118148 0.980257
vt 0.7893937 0.5487249
vt 0.8412516 0.9798885
vt 0.879078 0.5487249
vt 0.8566569 0.980257
vt 0.8342358 0.5353661
vt 0.8342358 0.9806209
vt 0.8467922 0.980417
vt 0.8593487 0.5428474
vt 0.8566569 0.980257
vt 0.879078 0.5487249
vt 0.8118148 0.980257
vt 0.8243712 0.9799566
vt 0.8342358 0.9806209
vt 0.8467922 0.980417
vt 0.8342358 0.9797207
vt 0.8566569 0.980257
vt 0.8342358 0.5481527
vt 0.8482673 0.5483317
vt 0.8145065 0.5484045
vt 0.8118148 0.980257
vt 0.7893937 0.5487249
vt 0.8412516 0.9798885
vt 0.879078 0.5487249
vt 0.8566569 0.980257
vt 0.8342358 0.5353661
vt 0.8342358 0.9806209
vt 0.8467922 0.980417
vt 0.8593487 0.5428474
vt 0.8566569 0.980257
vt 0.879078 0.5487249
vn 0 0 1
vn 0 0 1
vn 0 0 1
vn 0 0 1
vn 0 0 1
vn 0 0 1
vn 0 0 1
vn 0 0 1
vn 0 0 1
vn 0 0 1
vn 0 0 1
vn 0 0 1
vn 0 0 1
vn 0 0 1
vn 0 0 1
vn 0 0 1
vn 0 0 1
vn 0 0 1
vn 0 0 1
vn 0 0 1
vn 0 0 1
vn 0 0 1
vn 0 0 1
vn 0 0 1
vn 0 0 1
vn 0 0 1
vn 0 0 1
vn 0 0 1
vn 0 0 1
vn 0 0 1
vn 0 0 1
vn 0 0 1
vn 0 0 1
vn 0 0 1
vn 0 0 1
vn 0 0 1
vn 0 0 1
vn 0 0 1
vn 0 0 1
vn 0 0 1
vn 0 0 1
vn 0 0 1
vn 0 0 1
vn 0 0 1
vn 0 0 1
vn 0 0 1
vn 0 0 1
vn 0 0 1
vn 0 0 1
vn 0 0 1
vn 0 0 1
vn 0 0 1
vn 0 0 1
vn 0 0 1
vn 0 0 1
vn 0 0 1
vn 0 0 1
vn 0 0 1
vn 0 0 1
vn 0 0 1
vn 0 0 1
vn 0 0 1
vn 0 0 1
vn 0 0 1
vn 0 0 1
vn 0 0 1
vn 0 0 1
vn 0 0 1
vn 0 0 1
vn 0 0 1
vn 0 0 1
vn 0 0 1
vn 0 0 1
vn 0 0 1
vn 0 0 1
vn 0 0 1
vn 0 0 1
vn 0 0 1
vn 0 0 1
vn 0 0 1
vn 0 0 1
vn 0 0 1
vn 0 0 1
vn 0 0 1
vn 0 0 1
vn 0 0 1
vn 0 0 1
vn 0 0 1
vn 0 0 1
vn 0 0 1
vn 0 0 1
vn 0 0 1
vn 0 0 1
vn 0 0 1
vn 0 0 1
vn 0 0 1
vn 0 0 1
vn 0 0 1
vn 0 0 1
vn 0 0 1
vn 0 0 1
vn 0 0 1
vn 0 0 1
vn 0 0 1
vn 0 0 1
vn 0 0 1
vn 0 0 1
vn 0 0 1
vn 0 0 1
vn 0 0 1
vn 0 0 1
vn 0 0 1
vn 0 0 1
vn 0 0 1
vn 0 0 1
vn 0 0 1
vn 0 0 1
vn 0 0 1
vn 0 0 1
vn 0 0 1
vn 0 0 1
vn 0 0 1
vn 0 0 1
vn 0 0 1
vn 0 0 1
vn 0 0 1
vn 0 0 1
vn 0 0 1
vn 0 0 1
vn 0 0 1
vn 0 0 1
vn 0 0 1
vn 0 0 1
vn 0 0 1
vn 0 0 1
vn 0 0 1
vn 0 0 1
vn 0 0 1
vn 0 0 1
vn 0 0 1
vn 0 0 1
vn 0 0 1
vn 0 0 1
vn 0 0 1
vn 0 0 1
vn 0 0 1
vn 0 0 1
vn 0 0 1
vn 0 0 1
vn 0 0 1
vn 0 0 1
vn 0 0 1
vn 0 0 1
vn 0 0 1
vn 0 0 1
vn 0 0 1
vn 0 0 1
vn 0 0 1
vn 0 0 1
vn 0 0 1
vn 0 0 1
vn 0 0 1
vn 0 0 1
vn 0 0 1
vn 0 0 1
vn 0 0 1
vn 0 0 1
vn 0 0 1
vn 0 0 1
vn 0 0 1
vn 0 0 1
vn 0 0 1
vn 0 0 1
vn 0 0 1
vn 0 0 1
vn 0 0 1
vn 0 0 1
vn 0 0 1
vn 0 0 1
vn 0 0 1
vn 0 0 1
vn 0 0 1
vn 0 0 1
vn 0 0 1
vn 0 0 1
vn 0 0 1
vn 0 0 1
vn 0 0 1
vn 0 0 1
vn 0 0 1
vn 0 0 1
vn 0 0 1
vn 0 0 1
vn 0 0 1
vn 0 0 1
vn 0 0 1
vn 0 0 1
g WizSummonStaff03_mesh_0
f 3/3/3 2/2/2 1/1/1
f 1/1/1 5/5/5 4/4/4
f 5/5/5 7/7/7 6/6/6
f 5/5/5 6/6/6 8/8/8
f 9/9/9 8/8/8 4/4/4
f 4/4/4 11/11/11 10/10/10
f 12/12/12 4/4/4 10/10/10
f 13/13/13 4/4/4 12/12/12
f 14/14/14 4/4/4 13/13/13
f 15/15/15 13/13/13 12/12/12
f 16/16/16 13/13/13 15/15/15
f 17/17/17 16/16/16 15/15/15
f 18/18/18 16/16/16 17/17/17
f 19/19/19 18/18/18 17/17/17
f 22/22/22 21/21/21 20/20/20
f 24/24/24 23/23/23 20/20/20
f 20/20/20 23/23/23 25/25/25
f 23/23/23 26/26/26 25/25/25
f 29/29/29 28/28/28 27/27/27
f 32/32/32 31/31/31 30/30/30
f 34/34/34 33/33/33 30/30/30
f 30/30/30 33/33/33 35/35/35
f 33/33/33 36/36/36 35/35/35
f 39/39/39 38/38/38 37/37/37
f 42/42/42 41/41/41 40/40/40
f 45/45/45 44/44/44 43/43/43
f 47/47/47 46/46/46 43/43/43
f 43/43/43 46/46/46 48/48/48
f 46/46/46 49/49/49 48/48/48
f 52/52/52 51/51/51 50/50/50
f 55/55/55 54/54/54 53/53/53
f 58/58/58 57/57/57 56/56/56
f 60/60/60 59/59/59 56/56/56
f 56/56/56 59/59/59 61/61/61
f 59/59/59 62/62/62 61/61/61
f 65/65/65 64/64/64 63/63/63
f 64/64/64 66/66/66 63/63/63
f 64/64/64 67/67/67 66/66/66
f 63/63/63 66/66/66 68/68/68
f 67/67/67 69/69/69 66/66/66
f 66/66/66 70/70/70 68/68/68
f 66/66/66 69/69/69 70/70/70
f 68/68/68 70/70/70 71/71/71
f 69/69/69 72/72/72 70/70/70
f 70/70/70 73/73/73 71/71/71
f 70/70/70 72/72/72 73/73/73
f 71/71/71 73/73/73 74/74/74
f 72/72/72 75/75/75 73/73/73
f 73/73/73 76/76/76 74/74/74
f 73/73/73 75/75/75 76/76/76
f 74/74/74 76/76/76 77/77/77
f 75/75/75 78/78/78 76/76/76
f 76/76/76 79/79/79 77/77/77
f 76/76/76 78/78/78 79/79/79
f 77/77/77 79/79/79 80/80/80
f 78/78/78 81/81/81 79/79/79
f 79/79/79 82/82/82 80/80/80
f 79/79/79 81/81/81 82/82/82
f 80/80/80 82/82/82 83/83/83
f 81/81/81 84/84/84 82/82/82
f 82/82/82 85/85/85 83/83/83
f 82/82/82 84/84/84 85/85/85
f 83/83/83 85/85/85 86/86/86
f 84/84/84 87/87/87 85/85/85
f 85/85/85 88/88/88 86/86/86
f 85/85/85 87/87/87 88/88/88
f 86/86/86 88/88/88 89/89/89
f 87/87/87 90/90/90 88/88/88
f 88/88/88 91/91/91 89/89/89
f 88/88/88 90/90/90 91/91/91
f 89/89/89 91/91/91 92/92/92
f 90/90/90 93/93/93 91/91/91
f 91/91/91 94/94/94 92/92/92
f 91/91/91 93/93/93 94/94/94
f 93/93/93 95/95/95 94/94/94
f 98/98/98 97/97/97 96/96/96
f 97/97/97 99/99/99 96/96/96
f 97/97/97 100/100/100 99/99/99
f 96/96/96 99/99/99 101/101/101
f 100/100/100 102/102/102 99/99/99
f 99/99/99 103/103/103 101/101/101
f 99/99/99 102/102/102 103/103/103
f 101/101/101 103/103/103 104/104/104
f 102/102/102 105/105/105 103/103/103
f 103/103/103 106/106/106 104/104/104
f 103/103/103 105/105/105 106/106/106
f 104/104/104 106/106/106 107/107/107
f 105/105/105 108/108/108 106/106/106
f 106/106/106 109/109/109 107/107/107
f 106/106/106 108/108/108 109/109/109
f 107/107/107 109/109/109 110/110/110
f 108/108/108 111/111/111 109/109/109
f 109/109/109 112/112/112 110/110/110
f 109/109/109 111/111/111 112/112/112
f 110/110/110 112/112/112 113/113/113
f 111/111/111 114/114/114 112/112/112
f 112/112/112 115/115/115 113/113/113
f 112/112/112 114/114/114 115/115/115
f 113/113/113 115/115/115 116/116/116
f 114/114/114 117/117/117 115/115/115
f 115/115/115 118/118/118 116/116/116
f 115/115/115 117/117/117 118/118/118
f 116/116/116 118/118/118 119/119/119
f 117/117/117 120/120/120 118/118/118
f 118/118/118 121/121/121 119/119/119
f 118/118/118 120/120/120 121/121/121
f 119/119/119 121/121/121 122/122/122
f 120/120/120 123/123/123 121/121/121
f 121/121/121 124/124/124 122/122/122
f 121/121/121 123/123/123 124/124/124
f 122/122/122 124/124/124 125/125/125
f 123/123/123 126/126/126 124/124/124
f 124/124/124 127/127/127 125/125/125
f 124/124/124 126/126/126 127/127/127
f 126/126/126 128/128/128 127/127/127
f 131/131/131 130/130/130 129/129/129
f 132/132/132 131/131/131 129/129/129
f 133/133/133 131/131/131 132/132/132
f 134/134/134 133/133/133 132/132/132
f 137/137/137 136/136/136 135/135/135
f 139/139/139 138/138/138 137/137/137
f 135/135/135 141/141/141 140/140/140
f 141/141/141 139/139/139 140/140/140
f 139/139/139 143/143/143 142/142/142
f 144/144/144 139/139/139 142/142/142
f 145/145/145 139/139/139 144/144/144
f 139/139/139 145/145/145 146/146/146
f 147/147/147 145/145/145 144/144/144
f 148/148/148 145/145/145 147/147/147
f 149/149/149 148/148/148 147/147/147
f 150/150/150 148/148/148 149/149/149
f 151/151/151 150/150/150 149/149/149
f 154/154/154 153/153/153 152/152/152
f 155/155/155 154/154/154 152/152/152
f 156/156/156 154/154/154 155/155/155
f 157/157/157 156/156/156 155/155/155
f 160/160/160 159/159/159 158/158/158
f 160/160/160 161/161/161 159/159/159
f 161/161/161 162/162/162 159/159/159
f 161/161/161 163/163/163 162/162/162
f 161/161/161 160/160/160 164/164/164
f 164/164/164 160/160/160 165/165/165
f 166/166/166 161/161/161 164/164/164
f 167/167/167 161/161/161 166/166/166
f 168/168/168 167/167/167 166/166/166
f 160/160/160 169/169/169 165/165/165
f 165/165/165 169/169/169 170/170/170
f 169/169/169 171/171/171 170/170/170
f 174/174/174 173/173/173 172/172/172
f 175/175/175 174/174/174 172/172/172
f 176/176/176 174/174/174 175/175/175
f 177/177/177 176/176/176 175/175/175
f 180/180/180 179/179/179 178/178/178
f 180/180/180 181/181/181 179/179/179
f 181/181/181 182/182/182 179/179/179
f 181/181/181 183/183/183 182/182/182
f 179/179/179 182/182/182 184/184/184
f 184/184/184 182/182/182 185/185/185
f 186/186/186 179/179/179 184/184/184
f 187/187/187 179/179/179 186/186/186
f 188/188/188 187/187/187 186/186/186
f 182/182/182 189/189/189 185/185/185
f 185/185/185 189/189/189 190/190/190
f 189/189/189 191/191/191 190/190/190
f 194/194/194 193/193/193 192/192/192
f 195/195/195 194/194/194 192/192/192
f 196/196/196 194/194/194 195/195/195
f 197/197/197 196/196/196 195/195/195
