g WizSummonStaff19_mesh
v 1.256827 -0.4083681 -1.813519E-16
v 1.195357 6.270462E-07 2.784645E-22
v 1.321507 -5.678767E-08 -2.521879E-23
v 1.195357 6.270462E-07 2.784645E-22
v 1.256828 0.4083682 1.813519E-16
v 1.321507 -5.678767E-08 -2.521879E-23
v 1.136859 0.3693876 1.64041E-16
v 1.069122 0.7767623 3.449518E-16
v 0.9670666 0.7025991 3.120167E-16
v 0.7767628 1.069122 4.747854E-16
v 0.4083681 1.256828 5.581438E-16
v -4.180309E-07 1.195357 5.308453E-16
v 2.461104E-08 1.321507 5.86867E-16
v -0.4083681 1.256828 5.581438E-16
v -0.3693873 1.13686 5.048674E-16
v -0.7767623 1.069122 4.747854E-16
v -1.069122 0.7767621 3.449517E-16
v -1.13686 0.3693876 1.64041E-16
v -1.256828 0.408368 1.813518E-16
v -1.321507 -5.678767E-08 -2.521879E-23
v -1.195358 6.270462E-07 2.784645E-22
v -1.195358 6.270462E-07 2.784645E-22
v -1.256828 -0.4083681 -1.813519E-16
v -1.321507 -5.678767E-08 -2.521879E-23
v -1.193499 -0.3978133 -1.640404E-16
v -1.069121 -0.776762 -3.449516E-16
v -1.023707 -0.7310246 -3.120159E-16
v -0.7767621 -1.069121 -4.747853E-16
v -0.7025988 -0.9670664 -4.294638E-16
v -0.408368 -1.256828 -5.581437E-16
v -0.3693873 -1.136859 -5.048667E-16
v -1.477297E-08 -1.321507 -5.868669E-16
v -4.536553E-07 -1.195356 -5.308445E-16
v 0.4083681 -1.256828 -5.581436E-16
v 0.3693862 -1.136859 -5.048666E-16
v 0.7767619 -1.069121 -4.747853E-16
v -2.017926 -0.05798848 -9.114629E-16
v -2.019105 -0.04198142 -9.051728E-16
v -1.993883 -0.04817144 -9.029799E-16
v -2.075806 -0.0816213 -9.318845E-16
v -2.079822 -0.02707976 -9.104516E-16
v -2.040499 -0.1233864 -9.422769E-16
v -2.007564 -0.07024586 -9.14513E-16
v -1.993883 -0.04817144 -9.029799E-16
v -1.987386 -0.1364216 -9.376591E-16
v -1.991976 -0.07407151 -9.131577E-16
v -1.936754 -0.1157483 -9.19795E-16
v -1.977117 -0.06800421 -9.079149E-16
v -1.993883 -0.04817144 -9.029799E-16
v -1.968661 -0.05436143 -9.00787E-16
v -1.977117 -0.06800421 -9.079149E-16
v -1.993883 -0.04817144 -9.029799E-16
v -1.907944 -0.06926293 -8.955081E-16
v -1.936754 -0.1157483 -9.19795E-16
v -1.91196 -0.01472119 -8.740751E-16
v -1.96984 -0.03835431 -8.944968E-16
v -1.993883 -0.04817144 -9.029799E-16
v -1.947267 0.0270436 -8.636828E-16
v -1.980202 -0.02609702 -8.914468E-16
v -1.993883 -0.04817144 -9.029799E-16
v -2.00038 0.04007907 -8.683005E-16
v -1.99579 -0.02227129 -8.928021E-16
v -2.051012 0.01940563 -8.861647E-16
v -2.010649 -0.02833864 -8.980449E-16
v -1.993883 -0.04817144 -9.029799E-16
v -2.079822 -0.02707976 -9.104516E-16
v -2.019105 -0.04198142 -9.051728E-16
v -1.993883 -0.04817144 -9.029799E-16
vt 0.8484434 0.7446984
vt 0.8571876 0.4978163
vt 0.841938 0.9900582
vt 0.8571876 0.4978163
vt 0.8411917 0.9895507
vt 0.841938 0.9900582
vt 0.855695 0.4968013
vt 0.8390256 0.9890929
vt 0.8513628 0.4958857
vt 0.8401337 0.7419443
vt 0.833757 0.7415944
vt 0.8266884 0.4945318
vt 0.8266884 0.988416
vt 0.821976 0.9884963
vt 0.8172636 0.4946925
vt 0.8132432 0.7419443
vt 0.8081826 0.7424893
vt 0.7976819 0.4968013
vt 0.8121852 0.9895507
vt 0.8114388 0.9900582
vt 0.7961892 0.4978163
vt 0.7961892 0.4978163
vt 0.8121852 0.9905657
vt 0.8114388 0.9900582
vt 0.7976819 0.4988312
vt 0.8143512 0.9910235
vt 0.802014 0.4997469
vt 0.8177249 0.9913868
vt 0.8087614 0.5004736
vt 0.821976 0.9916201
vt 0.8172636 0.50094
vt 0.8266884 0.9917005
vt 0.8266884 0.5011008
vt 0.8314008 0.9916201
vt 0.8361132 0.50094
vt 0.8401337 0.7459302
vt 0.8311702 0.9603171
vt 0.83394 0.9600856
vt 0.8266884 0.9883691
vt 0.8356519 0.5564553
vt 0.8411917 0.5559921
vt 0.8266884 0.5566323
vt 0.8266884 0.9604057
vt 0.8266884 0.9883691
vt 0.8177249 0.5564553
vt 0.8222067 0.9603171
vt 0.8121852 0.5559921
vt 0.8194368 0.9600856
vt 0.8266884 0.9883691
vt 0.8194368 0.9597993
vt 0.8194368 0.9600856
vt 0.8266884 0.9883691
vt 0.8121852 0.5554196
vt 0.8121852 0.5559921
vt 0.8177249 0.5549562
vt 0.8222066 0.9595677
vt 0.8266884 0.9883691
vt 0.8266884 0.5547793
vt 0.8266884 0.9594792
vt 0.8266884 0.9883691
vt 0.8356519 0.5549562
vt 0.8311702 0.9595677
vt 0.8411917 0.5554196
vt 0.83394 0.9597993
vt 0.8266884 0.9883691
vt 0.8411917 0.5559921
vt 0.83394 0.9600856
vt 0.8266884 0.9883691
vn 0 0 1
vn 0 0 1
vn 0 0 1
vn 0 0 1
vn 0 0 1
vn 0 0 1
vn 0 0 1
vn 0 0 1
vn 0 0 1
vn 0 0 1
vn 0 0 1
vn 0 0 1
vn 0 0 1
vn 0 0 1
vn 0 0 1
vn 0 0 1
vn 0 0 1
vn 0 0 1
vn 0 0 1
vn 0 0 1
vn 0 0 1
vn 0 0 1
vn 0 0 1
vn 0 0 1
vn 0 0 1
vn 0 0 1
vn 0 0 1
vn 0 0 1
vn 0 0 1
vn 0 0 1
vn 0 0 1
vn 0 0 1
vn 0 0 1
vn 0 0 1
vn 0 0 1
vn 0 0 1
vn 0 0 1
vn 0 0 1
vn 0 0 1
vn 0 0 1
vn 0 0 1
vn 0 0 1
vn 0 0 1
vn 0 0 1
vn 0 0 1
vn 0 0 1
vn 0 0 1
vn 0 0 1
vn 0 0 1
vn 0 0 1
vn 0 0 1
vn 0 0 1
vn 0 0 1
vn 0 0 1
vn 0 0 1
vn 0 0 1
vn 0 0 1
vn 0 0 1
vn 0 0 1
vn 0 0 1
vn 0 0 1
vn 0 0 1
vn 0 0 1
vn 0 0 1
vn 0 0 1
vn 0 0 1
vn 0 0 1
vn 0 0 1
g WizSummonStaff19_mesh_0
f 3/3/3 2/2/2 1/1/1
f 6/6/6 5/5/5 4/4/4
f 5/5/5 7/7/7 4/4/4
f 5/5/5 8/8/8 7/7/7
f 8/8/8 9/9/9 7/7/7
f 8/8/8 10/10/10 9/9/9
f 13/13/13 12/12/12 11/11/11
f 13/13/13 14/14/14 12/12/12
f 14/14/14 15/15/15 12/12/12
f 14/14/14 16/16/16 15/15/15
f 19/19/19 18/18/18 17/17/17
f 19/19/19 20/20/20 18/18/18
f 20/20/20 21/21/21 18/18/18
f 24/24/24 23/23/23 22/22/22
f 23/23/23 25/25/25 22/22/22
f 23/23/23 26/26/26 25/25/25
f 26/26/26 27/27/27 25/25/25
f 26/26/26 28/28/28 27/27/27
f 28/28/28 29/29/29 27/27/27
f 28/28/28 30/30/30 29/29/29
f 30/30/30 31/31/31 29/29/29
f 30/30/30 32/32/32 31/31/31
f 32/32/32 33/33/33 31/31/31
f 32/32/32 34/34/34 33/33/33
f 34/34/34 35/35/35 33/33/33
f 34/34/34 36/36/36 35/35/35
f 39/39/39 38/38/38 37/37/37
f 37/37/37 38/38/38 40/40/40
f 38/38/38 41/41/41 40/40/40
f 37/37/37 40/40/40 42/42/42
f 43/43/43 37/37/37 42/42/42
f 44/44/44 37/37/37 43/43/43
f 43/43/43 42/42/42 45/45/45
f 44/44/44 43/43/43 46/46/46
f 46/46/46 43/43/43 45/45/45
f 46/46/46 45/45/45 47/47/47
f 48/48/48 46/46/46 47/47/47
f 49/49/49 46/46/46 48/48/48
f 52/52/52 51/51/51 50/50/50
f 50/50/50 51/51/51 53/53/53
f 51/51/51 54/54/54 53/53/53
f 50/50/50 53/53/53 55/55/55
f 56/56/56 50/50/50 55/55/55
f 57/57/57 50/50/50 56/56/56
f 56/56/56 55/55/55 58/58/58
f 59/59/59 56/56/56 58/58/58
f 60/60/60 56/56/56 59/59/59
f 59/59/59 58/58/58 61/61/61
f 60/60/60 59/59/59 62/62/62
f 62/62/62 59/59/59 61/61/61
f 62/62/62 61/61/61 63/63/63
f 64/64/64 62/62/62 63/63/63
f 65/65/65 62/62/62 64/64/64
f 64/64/64 63/63/63 66/66/66
f 67/67/67 64/64/64 66/66/66
f 68/68/68 64/64/64 67/67/67
