g WizSummonStaff17_mesh
v -0.9930652 0.3226654 1.432922E-16
v -1.044171 6.764776E-07 3.004164E-22
v -1.254665 1.339153E-07 5.947034E-23
v -1.193257 0.3877124 1.721789E-16
v -1.321507 -5.678767E-08 -2.521879E-23
v -0.8447438 0.6137339 2.725526E-16
v -1.256828 0.408368 1.813518E-16
v -1.015043 0.7374697 3.275023E-16
v -0.6137336 0.8447441 3.751418E-16
v -1.069122 0.7767621 3.449517E-16
v -0.7374697 1.015043 4.507698E-16
v -0.3226651 0.9930655 4.410097E-16
v -0.7767623 1.069122 4.747854E-16
v -0.3877125 1.193258 5.299129E-16
v -4.515058E-07 1.04417 4.637046E-16
v -0.4083681 1.256828 5.581438E-16
v -9.864351E-08 1.254665 5.571832E-16
v 0.322664 0.9930658 4.410098E-16
v 2.461104E-08 1.321507 5.86867E-16
v 0.3877122 1.193258 5.299129E-16
v 0.6137325 0.8447441 3.751418E-16
v 0.4083681 1.256828 5.581438E-16
v 0.7374698 1.015043 4.507698E-16
v 0.8447427 0.6137339 2.725526E-16
v 0.7767628 1.069122 4.747854E-16
v 1.015043 0.7374698 3.275024E-16
v 0.9930641 0.3226654 1.432922E-16
v 1.069122 0.7767623 3.449518E-16
v 1.193257 0.3877127 1.72179E-16
v 1.04417 6.764776E-07 3.004164E-22
v 1.256828 0.4083682 1.813519E-16
v 1.254664 1.339153E-07 5.947034E-23
v 1.321507 -5.678767E-08 -2.521879E-23
v 0.9930641 -0.322664 -1.432916E-16
v 1.04417 6.764776E-07 3.004164E-22
v 1.254664 1.339153E-07 5.947034E-23
v 1.193257 -0.3877122 -1.721788E-16
v 1.321507 -5.678767E-08 -2.521879E-23
v 0.8447427 -0.6137322 -2.725519E-16
v 1.256827 -0.4083681 -1.813519E-16
v 1.015043 -0.7374691 -3.275021E-16
v 0.6137325 -0.8447424 -3.75141E-16
v 1.069121 -0.776762 -3.449516E-16
v 0.7374691 -1.015043 -4.507695E-16
v 0.322664 -0.9930639 -4.410089E-16
v 0.7767619 -1.069121 -4.747853E-16
v 0.3877121 -1.193257 -5.299125E-16
v -4.826253E-07 -1.044168 -4.637038E-16
v 0.4083681 -1.256828 -5.581436E-16
v -1.360357E-07 -1.254664 -5.571829E-16
v -0.3226651 -0.9930641 -4.410091E-16
v -1.477297E-08 -1.321507 -5.868669E-16
v -0.3877124 -1.193257 -5.299127E-16
v -0.6137336 -0.8447424 -3.75141E-16
v -0.408368 -1.256828 -5.581437E-16
v -0.7374696 -1.015043 -4.507695E-16
v -0.8447438 -0.6137322 -2.725519E-16
v -0.7767621 -1.069121 -4.747853E-16
v -1.015043 -0.7374691 -3.275021E-16
v -0.9930652 -0.322664 -1.432916E-16
v -1.069121 -0.776762 -3.449516E-16
v -1.193257 -0.3877122 -1.721788E-16
v -1.044171 6.764776E-07 3.004164E-22
v -1.256828 -0.4083681 -1.813519E-16
v -1.254665 1.339153E-07 5.947034E-23
v -1.321507 -5.678767E-08 -2.521879E-23
v -1.961646 -0.1261939 -1.020924E-16
v -1.987157 -0.04866438 -2.790887E-16
v -1.855096 -0.04817162 -9.328859E-16
v -2.080302 -0.2124784 8.143093E-16
v -2.134026 -0.04920917 4.415739E-16
v -1.940872 -0.3129878 5.187713E-16
v -1.895436 -0.1739217 -2.424307E-16
v -1.855096 -0.04817162 -9.328859E-16
v -1.768992 -0.3123464 -3.321533E-16
v -1.813818 -0.1736171 -6.464995E-16
v -1.604025 -0.2107991 -1.29479E-15
v -1.747966 -0.1253965 -1.159957E-15
v -1.855096 -0.04817162 -9.328859E-16
v -1.723035 -0.04767859 -1.586683E-15
v -1.747966 -0.1253965 -1.159957E-15
v -1.855096 -0.04817162 -9.328859E-16
v -1.545073 -0.04713368 -2.590666E-15
v -1.604025 -0.2107991 -1.29479E-15
v -1.748546 0.02985092 -1.763679E-15
v -1.855096 -0.04817162 -9.328859E-16
v -1.607652 0.1161354 -2.56616E-15
v -1.770966 0.216645 -2.389279E-15
v -1.814755 0.07757856 -1.623341E-15
v -1.855096 -0.04817162 -9.328859E-16
v -1.942845 0.2160035 -1.538354E-15
v -1.896374 0.07727402 -1.219272E-15
v -2.081522 0.1144563 -4.570637E-16
v -1.962225 0.02905364 -7.058142E-16
v -1.855096 -0.04817162 -9.328859E-16
v -2.134026 -0.04920917 4.415739E-16
v -1.987157 -0.04866438 -2.790887E-16
v -1.855096 -0.04817162 -9.328859E-16
vt 0.7976819 0.4968013
vt 0.7961892 0.4978163
vt 0.8073181 0.9612686
vt 0.8082662 0.960624
vt 0.8114388 0.9900582
vt 0.802014 0.4958857
vt 0.8121852 0.9895507
vt 0.8110175 0.9600425
vt 0.8087615 0.4951591
vt 0.8143512 0.9890929
vt 0.8153028 0.959581
vt 0.8172636 0.4946925
vt 0.8177249 0.9887296
vt 0.8207026 0.9592847
vt 0.8266884 0.4945318
vt 0.821976 0.9884963
vt 0.8266884 0.9591826
vt 0.8361132 0.4946925
vt 0.8266884 0.988416
vt 0.8326742 0.9592847
vt 0.8446155 0.4951591
vt 0.8314008 0.9884963
vt 0.838074 0.959581
vt 0.8513628 0.4958857
vt 0.8356519 0.9887296
vt 0.8423593 0.9600425
vt 0.855695 0.4968013
vt 0.8390256 0.9890929
vt 0.8451107 0.960624
vt 0.8571876 0.4978163
vt 0.8411917 0.9895507
vt 0.8460587 0.9612686
vt 0.841938 0.9900582
vt 0.855695 0.4988312
vt 0.8571876 0.4978163
vt 0.8460587 0.9612686
vt 0.8451107 0.9619132
vt 0.841938 0.9900582
vt 0.8513628 0.4997469
vt 0.8411917 0.9905657
vt 0.8423593 0.9624948
vt 0.8446155 0.5004736
vt 0.8390256 0.9910235
vt 0.838074 0.9629562
vt 0.8361132 0.50094
vt 0.8356519 0.9913868
vt 0.8326742 0.9632525
vt 0.8266884 0.5011008
vt 0.8314008 0.9916201
vt 0.8266884 0.9633546
vt 0.8172636 0.50094
vt 0.8266884 0.9917005
vt 0.8207026 0.9632525
vt 0.8087614 0.5004736
vt 0.821976 0.9916201
vt 0.8153028 0.9629562
vt 0.802014 0.4997469
vt 0.8177249 0.9913868
vt 0.8110175 0.9624948
vt 0.7976819 0.4988312
vt 0.8143512 0.9910235
vt 0.8082662 0.9619132
vt 0.7961892 0.4978163
vt 0.8121852 0.9905657
vt 0.8073181 0.9612686
vt 0.8114388 0.9900582
vt 0.8311702 0.9603171
vt 0.83394 0.9600856
vt 0.8266884 0.9883691
vt 0.8356519 0.5564553
vt 0.8411917 0.5559921
vt 0.8266884 0.5566323
vt 0.8266884 0.9604057
vt 0.8266884 0.9883691
vt 0.8177249 0.5564553
vt 0.8222067 0.9603171
vt 0.8121852 0.5559921
vt 0.8194368 0.9600856
vt 0.8266884 0.9883691
vt 0.8194368 0.9597993
vt 0.8194368 0.9600856
vt 0.8266884 0.9883691
vt 0.8121852 0.5554196
vt 0.8121852 0.5559921
vt 0.8222066 0.9595677
vt 0.8266884 0.9883691
vt 0.8177249 0.5549562
vt 0.8266884 0.5547793
vt 0.8266884 0.9594792
vt 0.8266884 0.9883691
vt 0.8356519 0.5549562
vt 0.8311702 0.9595677
vt 0.8411917 0.5554196
vt 0.83394 0.9597993
vt 0.8266884 0.9883691
vt 0.8411917 0.5559921
vt 0.83394 0.9600856
vt 0.8266884 0.9883691
vn 0 0 1
vn 0 0 1
vn 0 0 1
vn 0 0 1
vn 0 0 1
vn 0 0 1
vn 0 0 1
vn 0 0 1
vn 0 0 1
vn 0 0 1
vn 0 0 1
vn 0 0 1
vn 0 0 1
vn 0 0 1
vn 0 0 1
vn 0 0 1
vn 0 0 1
vn 0 0 1
vn 0 0 1
vn 0 0 1
vn 0 0 1
vn 0 0 1
vn 0 0 1
vn 0 0 1
vn 0 0 1
vn 0 0 1
vn 0 0 1
vn 0 0 1
vn 0 0 1
vn 0 0 1
vn 0 0 1
vn 0 0 1
vn 0 0 1
vn 0 0 1
vn 0 0 1
vn 0 0 1
vn 0 0 1
vn 0 0 1
vn 0 0 1
vn 0 0 1
vn 0 0 1
vn 0 0 1
vn 0 0 1
vn 0 0 1
vn 0 0 1
vn 0 0 1
vn 0 0 1
vn 0 0 1
vn 0 0 1
vn 0 0 1
vn 0 0 1
vn 0 0 1
vn 0 0 1
vn 0 0 1
vn 0 0 1
vn 0 0 1
vn 0 0 1
vn 0 0 1
vn 0 0 1
vn 0 0 1
vn 0 0 1
vn 0 0 1
vn 0 0 1
vn 0 0 1
vn 0 0 1
vn 0 0 1
vn 0 0 1
vn 0 0 1
vn 0 0 1
vn 0 0 1
vn 0 0 1
vn 0 0 1
vn 0 0 1
vn 0 0 1
vn 0 0 1
vn 0 0 1
vn 0 0 1
vn 0 0 1
vn 0 0 1
vn 0 0 1
vn 0 0 1
vn 0 0 1
vn 0 0 1
vn 0 0 1
vn 0 0 1
vn 0 0 1
vn 0 0 1
vn 0 0 1
vn 0 0 1
vn 0 0 1
vn 0 0 1
vn 0 0 1
vn 0 0 1
vn 0 0 1
vn 0 0 1
vn 0 0 1
vn 0 0 1
vn 0 0 1
g WizSummonStaff17_mesh_0
f 3/3/3 2/2/2 1/1/1
f 4/4/4 3/3/3 1/1/1
f 5/5/5 3/3/3 4/4/4
f 4/4/4 1/1/1 6/6/6
f 7/7/7 5/5/5 4/4/4
f 8/8/8 4/4/4 6/6/6
f 7/7/7 4/4/4 8/8/8
f 8/8/8 6/6/6 9/9/9
f 10/10/10 7/7/7 8/8/8
f 11/11/11 8/8/8 9/9/9
f 10/10/10 8/8/8 11/11/11
f 11/11/11 9/9/9 12/12/12
f 13/13/13 10/10/10 11/11/11
f 14/14/14 11/11/11 12/12/12
f 13/13/13 11/11/11 14/14/14
f 14/14/14 12/12/12 15/15/15
f 16/16/16 13/13/13 14/14/14
f 17/17/17 14/14/14 15/15/15
f 16/16/16 14/14/14 17/17/17
f 17/17/17 15/15/15 18/18/18
f 19/19/19 16/16/16 17/17/17
f 20/20/20 17/17/17 18/18/18
f 19/19/19 17/17/17 20/20/20
f 20/20/20 18/18/18 21/21/21
f 22/22/22 19/19/19 20/20/20
f 23/23/23 20/20/20 21/21/21
f 22/22/22 20/20/20 23/23/23
f 23/23/23 21/21/21 24/24/24
f 25/25/25 22/22/22 23/23/23
f 26/26/26 23/23/23 24/24/24
f 25/25/25 23/23/23 26/26/26
f 26/26/26 24/24/24 27/27/27
f 28/28/28 25/25/25 26/26/26
f 29/29/29 26/26/26 27/27/27
f 28/28/28 26/26/26 29/29/29
f 29/29/29 27/27/27 30/30/30
f 31/31/31 28/28/28 29/29/29
f 32/32/32 29/29/29 30/30/30
f 31/31/31 29/29/29 32/32/32
f 33/33/33 31/31/31 32/32/32
f 36/36/36 35/35/35 34/34/34
f 37/37/37 36/36/36 34/34/34
f 38/38/38 36/36/36 37/37/37
f 37/37/37 34/34/34 39/39/39
f 40/40/40 38/38/38 37/37/37
f 41/41/41 37/37/37 39/39/39
f 40/40/40 37/37/37 41/41/41
f 41/41/41 39/39/39 42/42/42
f 43/43/43 40/40/40 41/41/41
f 44/44/44 41/41/41 42/42/42
f 43/43/43 41/41/41 44/44/44
f 44/44/44 42/42/42 45/45/45
f 46/46/46 43/43/43 44/44/44
f 47/47/47 44/44/44 45/45/45
f 46/46/46 44/44/44 47/47/47
f 47/47/47 45/45/45 48/48/48
f 49/49/49 46/46/46 47/47/47
f 50/50/50 47/47/47 48/48/48
f 49/49/49 47/47/47 50/50/50
f 50/50/50 48/48/48 51/51/51
f 52/52/52 49/49/49 50/50/50
f 53/53/53 50/50/50 51/51/51
f 52/52/52 50/50/50 53/53/53
f 53/53/53 51/51/51 54/54/54
f 55/55/55 52/52/52 53/53/53
f 56/56/56 53/53/53 54/54/54
f 55/55/55 53/53/53 56/56/56
f 56/56/56 54/54/54 57/57/57
f 58/58/58 55/55/55 56/56/56
f 59/59/59 56/56/56 57/57/57
f 58/58/58 56/56/56 59/59/59
f 59/59/59 57/57/57 60/60/60
f 61/61/61 58/58/58 59/59/59
f 62/62/62 59/59/59 60/60/60
f 61/61/61 59/59/59 62/62/62
f 62/62/62 60/60/60 63/63/63
f 64/64/64 61/61/61 62/62/62
f 65/65/65 62/62/62 63/63/63
f 64/64/64 62/62/62 65/65/65
f 66/66/66 64/64/64 65/65/65
f 69/69/69 68/68/68 67/67/67
f 67/67/67 68/68/68 70/70/70
f 68/68/68 71/71/71 70/70/70
f 67/67/67 70/70/70 72/72/72
f 73/73/73 67/67/67 72/72/72
f 74/74/74 67/67/67 73/73/73
f 73/73/73 72/72/72 75/75/75
f 74/74/74 73/73/73 76/76/76
f 76/76/76 73/73/73 75/75/75
f 76/76/76 75/75/75 77/77/77
f 78/78/78 76/76/76 77/77/77
f 79/79/79 76/76/76 78/78/78
f 82/82/82 81/81/81 80/80/80
f 80/80/80 81/81/81 83/83/83
f 81/81/81 84/84/84 83/83/83
f 80/80/80 83/83/83 85/85/85
f 86/86/86 80/80/80 85/85/85
f 85/85/85 83/83/83 87/87/87
f 85/85/85 87/87/87 88/88/88
f 89/89/89 85/85/85 88/88/88
f 90/90/90 85/85/85 89/89/89
f 89/89/89 88/88/88 91/91/91
f 90/90/90 89/89/89 92/92/92
f 92/92/92 89/89/89 91/91/91
f 92/92/92 91/91/91 93/93/93
f 94/94/94 92/92/92 93/93/93
f 95/95/95 92/92/92 94/94/94
f 94/94/94 93/93/93 96/96/96
f 97/97/97 94/94/94 96/96/96
f 98/98/98 94/94/94 97/97/97
