g WizSummonStaff16_mesh
v -1.886236 -0.1385961 1.203966E-16
v -1.915802 -0.04874269 -8.473432E-17
v -1.762749 -0.0481716 -8.424564E-16
v -2.009723 -0.2290206 1.08325E-15
v -2.068856 -0.04931361 6.729883E-16
v -1.856255 -0.3396493 7.579577E-16
v -1.809502 -0.1939104 -4.224937E-17
v -1.762749 -0.0481716 -8.424564E-16
v -1.66707 -0.3389434 -1.786372E-16
v -1.714909 -0.1935574 -5.105472E-16
v -1.485495 -0.2271723 -1.238192E-15
v -1.63859 -0.137672 -1.105622E-15
v -1.762749 -0.0481716 -8.424564E-16
v -1.609695 -0.04760024 -1.600179E-15
v -1.63859 -0.137672 -1.105622E-15
v -1.762749 -0.0481716 -8.424564E-16
v -1.313733 -0.04702923 -2.227302E-15
v -1.485495 -0.2271723 -1.238192E-15
v -1.639262 0.04225304 -1.805309E-15
v -1.762749 -0.0481716 -8.424564E-16
v -1.489486 0.1326778 -2.637563E-15
v -1.669243 0.2433065 -2.442873E-15
v -1.715996 0.09756729 -1.642664E-15
v -1.762749 -0.0481716 -8.424564E-16
v -1.858427 0.2426005 -1.506277E-15
v -1.810588 0.09721437 -1.174366E-15
v -2.011066 0.1308295 -3.161236E-16
v -1.886907 0.04132906 -5.792904E-16
v -1.762749 -0.0481716 -8.424564E-16
v -2.068856 -0.04931361 6.729883E-16
v -1.915802 -0.04874269 -8.473432E-17
v -1.762749 -0.0481716 -8.424564E-16
v -0.8801664 0.2859825 1.270018E-16
v -0.9254621 6.845339E-07 3.039941E-22
v -1.240941 1.362825E-07 6.052158E-23
v -1.180205 0.3834716 1.702956E-16
v -1.321507 -5.678767E-08 -2.521879E-23
v -0.7487072 0.5439603 2.415669E-16
v -1.256828 0.408368 1.813518E-16
v -1.003941 0.7294031 3.239201E-16
v -0.54396 0.7487075 3.324929E-16
v -1.069122 0.7767621 3.449517E-16
v -0.7294033 1.003941 4.458393E-16
v -0.2859822 0.8801666 3.908725E-16
v -0.7767623 1.069122 4.747854E-16
v -0.3834716 1.180206 5.241167E-16
v -4.561099E-07 0.9254612 4.109873E-16
v -0.4083681 1.256828 5.581438E-16
v -1.006301E-07 1.240941 5.510887E-16
v 0.2859811 0.8801669 3.908726E-16
v 2.461104E-08 1.321507 5.86867E-16
v 0.3834713 1.180206 5.241167E-16
v 0.5439588 0.7487075 3.324929E-16
v 0.4083681 1.256828 5.581438E-16
v 0.7294033 1.003941 4.458393E-16
v 0.7487061 0.5439603 2.415669E-16
v 0.7767628 1.069122 4.747854E-16
v 1.00394 0.7294033 3.239201E-16
v 0.8801653 0.2859825 1.270018E-16
v 1.069122 0.7767623 3.449518E-16
v 1.180205 0.3834718 1.702957E-16
v 0.9254609 6.845339E-07 3.039941E-22
v 1.256828 0.4083682 1.813519E-16
v 1.240941 1.362825E-07 6.052158E-23
v 1.321507 -5.678767E-08 -2.521879E-23
v 0.8801653 -0.2859811 -1.270011E-16
v 0.9254609 6.845339E-07 3.039941E-22
v 1.240941 1.362825E-07 6.052158E-23
v 1.180205 -0.3834713 -1.702955E-16
v 1.321507 -5.678767E-08 -2.521879E-23
v 0.7487061 -0.5439585 -2.415661E-16
v 1.256827 -0.4083681 -1.813519E-16
v 1.00394 -0.7294026 -3.239198E-16
v 0.5439588 -0.7487058 -3.324922E-16
v 1.069121 -0.776762 -3.449516E-16
v 0.7294026 -1.00394 -4.45839E-16
v 0.2859811 -0.880165 -3.908718E-16
v 0.7767619 -1.069121 -4.747853E-16
v 0.3834713 -1.180205 -5.241164E-16
v -4.836915E-07 -0.9254594 -4.109865E-16
v 0.4083681 -1.256828 -5.581436E-16
v -1.376133E-07 -1.240941 -5.510884E-16
v -0.2859822 -0.8801652 -3.908719E-16
v -1.477297E-08 -1.321507 -5.868669E-16
v -0.3834715 -1.180205 -5.241165E-16
v -0.54396 -0.7487058 -3.324922E-16
v -0.408368 -1.256828 -5.581437E-16
v -0.7294031 -1.00394 -4.45839E-16
v -0.7487072 -0.5439585 -2.415661E-16
v -0.7767621 -1.069121 -4.747853E-16
v -1.003941 -0.7294026 -3.239198E-16
v -0.8801664 -0.2859811 -1.270011E-16
v -1.069121 -0.776762 -3.449516E-16
v -1.180205 -0.3834713 -1.702955E-16
v -0.9254621 6.845339E-07 3.039941E-22
v -1.256828 -0.4083681 -1.813519E-16
v -1.240941 1.362825E-07 6.052158E-23
v -1.321507 -5.678767E-08 -2.521879E-23
v 1.803994 1.187801 8.230449E-16
v 1.800379 1.178851 8.259606E-16
v 1.788414 1.188888 8.267435E-16
v 1.865621 1.183498 8.091292E-16
v 1.847708 1.139146 8.235789E-16
v 1.854044 1.229909 8.016808E-16
v 1.801658 1.197166 8.215418E-16
v 1.788414 1.188888 8.267435E-16
v 1.817399 1.260651 8.040786E-16
v 1.794263 1.203369 8.220257E-16
v 1.769682 1.263982 8.154068E-16
v 1.784634 1.204041 8.243116E-16
v 1.788414 1.188888 8.267435E-16
v 1.776449 1.198926 8.275264E-16
v 1.784634 1.204041 8.243116E-16
v 1.788414 1.188888 8.267435E-16
v 1.72912 1.23863 8.313383E-16
v 1.769682 1.263982 8.154068E-16
v 1.701259 1.18806 8.666928E-16
v 1.772835 1.189976 8.304422E-16
v 1.788414 1.188888 8.267435E-16
v 1.696756 1.131599 8.51681E-16
v 1.775171 1.180611 8.319452E-16
v 1.788414 1.188888 8.267435E-16
v 1.749482 1.110908 8.717434E-16
v 1.782565 1.174407 8.314614E-16
v 1.807146 1.113794 8.395104E-16
v 1.792194 1.173735 8.291755E-16
v 1.788414 1.188888 8.267435E-16
v 1.847708 1.139146 8.235789E-16
v 1.800379 1.178851 8.259606E-16
v 1.788414 1.188888 8.267435E-16
v 0.3876323 -2.167378 -2.126335E-15
v 0.3719231 -2.164381 -2.224598E-15
v 0.384389 -2.141706 -1.946828E-15
v 0.3955829 -2.23031 -2.566373E-15
v 0.3413647 -2.219968 -2.905516E-15
v 0.4455254 -2.206808 -1.990589E-15
v 0.4021026 -2.160568 -1.959507E-15
v 0.384389 -2.141706 -1.946828E-15
v 0.4721158 -2.15844 -1.398089E-15
v 0.4098069 -2.146554 -1.787836E-15
v 0.4651975 -2.103679 -1.015187E-15
v 0.4078024 -2.130688 -1.676894E-15
v 0.384389 -2.141706 -1.946828E-15
v 0.3968548 -2.11903 -1.669058E-15
v 0.4078024 -2.130688 -1.676894E-15
v 0.384389 -2.141706 -1.946828E-15
v 0.4274131 -2.063443 -9.881403E-16
v 0.4651975 -2.103679 -1.015187E-15
v 0.3731949 -2.053101 -1.32728E-15
v 0.3811456 -2.116033 -1.767321E-15
v 0.384389 -2.141706 -1.946828E-15
v 0.3232524 -2.076603 -1.903067E-15
v 0.3666753 -2.122843 -1.934148E-15
v 0.384389 -2.141706 -1.946828E-15
v 0.296662 -2.124971 -2.495567E-15
v 0.358971 -2.136857 -2.10582E-15
v 0.3035804 -2.179732 -2.878467E-15
v 0.3609754 -2.152723 -2.216761E-15
v 0.384389 -2.141706 -1.946828E-15
v 0.3413647 -2.219968 -2.905516E-15
v 0.3719231 -2.164381 -2.224598E-15
v 0.384389 -2.141706 -1.946828E-15
vt 0.8311702 0.9603171
vt 0.83394 0.9600856
vt 0.8266884 0.9883691
vt 0.8356519 0.5564553
vt 0.8411917 0.5559921
vt 0.8266884 0.5566323
vt 0.8266884 0.9604057
vt 0.8266884 0.9883691
vt 0.8177249 0.5564553
vt 0.8222067 0.9603171
vt 0.8121852 0.5559921
vt 0.8194368 0.9600856
vt 0.8266884 0.9883691
vt 0.8194368 0.9597993
vt 0.8194368 0.9600856
vt 0.8266884 0.9883691
vt 0.8121852 0.5554196
vt 0.8121852 0.5559921
vt 0.8222066 0.9595677
vt 0.8266884 0.9883691
vt 0.8177249 0.5549562
vt 0.8266884 0.5547793
vt 0.8266884 0.9594792
vt 0.8266884 0.9883691
vt 0.8356519 0.5549562
vt 0.8311702 0.9595677
vt 0.8411917 0.5554196
vt 0.83394 0.9597993
vt 0.8266884 0.9883691
vt 0.8411917 0.5559921
vt 0.83394 0.9600856
vt 0.8266884 0.9883691
vt 0.7976819 0.4968013
vt 0.7961892 0.4978163
vt 0.8073181 0.9612686
vt 0.8082662 0.960624
vt 0.8114388 0.9900582
vt 0.802014 0.4958857
vt 0.8121852 0.9895507
vt 0.8110175 0.9600425
vt 0.8087615 0.4951591
vt 0.8143512 0.9890929
vt 0.8153028 0.959581
vt 0.8172636 0.4946925
vt 0.8177249 0.9887296
vt 0.8207026 0.9592847
vt 0.8266884 0.4945318
vt 0.821976 0.9884963
vt 0.8266884 0.9591826
vt 0.8361132 0.4946925
vt 0.8266884 0.988416
vt 0.8326742 0.9592847
vt 0.8446155 0.4951591
vt 0.8314008 0.9884963
vt 0.838074 0.959581
vt 0.8513628 0.4958857
vt 0.8356519 0.9887296
vt 0.8423593 0.9600425
vt 0.855695 0.4968013
vt 0.8390256 0.9890929
vt 0.8451107 0.960624
vt 0.8571876 0.4978163
vt 0.8411917 0.9895507
vt 0.8460587 0.9612686
vt 0.841938 0.9900582
vt 0.855695 0.4988312
vt 0.8571876 0.4978163
vt 0.8460587 0.9612686
vt 0.8451107 0.9619132
vt 0.841938 0.9900582
vt 0.8513628 0.4997469
vt 0.8411917 0.9905657
vt 0.8423593 0.9624948
vt 0.8446155 0.5004736
vt 0.8390256 0.9910235
vt 0.838074 0.9629562
vt 0.8361132 0.50094
vt 0.8356519 0.9913868
vt 0.8326742 0.9632525
vt 0.8266884 0.5011008
vt 0.8314008 0.9916201
vt 0.8266884 0.9633546
vt 0.8172636 0.50094
vt 0.8266884 0.9917005
vt 0.8207026 0.9632525
vt 0.8087614 0.5004736
vt 0.821976 0.9916201
vt 0.8153028 0.9629562
vt 0.802014 0.4997469
vt 0.8177249 0.9913868
vt 0.8110175 0.9624948
vt 0.7976819 0.4988312
vt 0.8143512 0.9910235
vt 0.8082662 0.9619132
vt 0.7961892 0.4978163
vt 0.8121852 0.9905657
vt 0.8073181 0.9612686
vt 0.8114388 0.9900582
vt 0.8311702 0.9603171
vt 0.83394 0.9600856
vt 0.8266884 0.9883691
vt 0.8356519 0.5564553
vt 0.8411917 0.5559921
vt 0.8266884 0.5566323
vt 0.8266884 0.9604057
vt 0.8266884 0.9883691
vt 0.8177249 0.5564553
vt 0.8222067 0.9603171
vt 0.8121852 0.5559921
vt 0.8194368 0.9600856
vt 0.8266884 0.9883691
vt 0.8194368 0.9597993
vt 0.8194368 0.9600856
vt 0.8266884 0.9883691
vt 0.8121852 0.5554196
vt 0.8121852 0.5559921
vt 0.8177249 0.5549562
vt 0.8222066 0.9595677
vt 0.8266884 0.9883691
vt 0.8266884 0.5547793
vt 0.8266884 0.9594792
vt 0.8266884 0.9883691
vt 0.8356519 0.5549562
vt 0.8311702 0.9595677
vt 0.8411917 0.5554196
vt 0.83394 0.9597993
vt 0.8266884 0.9883691
vt 0.8411917 0.5559921
vt 0.83394 0.9600856
vt 0.8266884 0.9883691
vt 0.8311702 0.9603171
vt 0.83394 0.9600856
vt 0.8266884 0.9883691
vt 0.8356519 0.5564553
vt 0.8411917 0.5559921
vt 0.8266884 0.5566323
vt 0.8266884 0.9604057
vt 0.8266884 0.9883691
vt 0.8177249 0.5564553
vt 0.8222067 0.9603171
vt 0.8121852 0.5559921
vt 0.8194368 0.9600856
vt 0.8266884 0.9883691
vt 0.8194368 0.9597993
vt 0.8194368 0.9600856
vt 0.8266884 0.9883691
vt 0.8121852 0.5554196
vt 0.8121852 0.5559921
vt 0.8177249 0.5549562
vt 0.8222066 0.9595677
vt 0.8266884 0.9883691
vt 0.8266884 0.5547793
vt 0.8266884 0.9594792
vt 0.8266884 0.9883691
vt 0.8356519 0.5549562
vt 0.8311702 0.9595677
vt 0.8411917 0.5554196
vt 0.83394 0.9597993
vt 0.8266884 0.9883691
vt 0.8411917 0.5559921
vt 0.83394 0.9600856
vt 0.8266884 0.9883691
vn 0 0 1
vn 0 0 1
vn 0 0 1
vn 0 0 1
vn 0 0 1
vn 0 0 1
vn 0 0 1
vn 0 0 1
vn 0 0 1
vn 0 0 1
vn 0 0 1
vn 0 0 1
vn 0 0 1
vn 0 0 1
vn 0 0 1
vn 0 0 1
vn 0 0 1
vn 0 0 1
vn 0 0 1
vn 0 0 1
vn 0 0 1
vn 0 0 1
vn 0 0 1
vn 0 0 1
vn 0 0 1
vn 0 0 1
vn 0 0 1
vn 0 0 1
vn 0 0 1
vn 0 0 1
vn 0 0 1
vn 0 0 1
vn 0 0 1
vn 0 0 1
vn 0 0 1
vn 0 0 1
vn 0 0 1
vn 0 0 1
vn 0 0 1
vn 0 0 1
vn 0 0 1
vn 0 0 1
vn 0 0 1
vn 0 0 1
vn 0 0 1
vn 0 0 1
vn 0 0 1
vn 0 0 1
vn 0 0 1
vn 0 0 1
vn 0 0 1
vn 0 0 1
vn 0 0 1
vn 0 0 1
vn 0 0 1
vn 0 0 1
vn 0 0 1
vn 0 0 1
vn 0 0 1
vn 0 0 1
vn 0 0 1
vn 0 0 1
vn 0 0 1
vn 0 0 1
vn 0 0 1
vn 0 0 1
vn 0 0 1
vn 0 0 1
vn 0 0 1
vn 0 0 1
vn 0 0 1
vn 0 0 1
vn 0 0 1
vn 0 0 1
vn 0 0 1
vn 0 0 1
vn 0 0 1
vn 0 0 1
vn 0 0 1
vn 0 0 1
vn 0 0 1
vn 0 0 1
vn 0 0 1
vn 0 0 1
vn 0 0 1
vn 0 0 1
vn 0 0 1
vn 0 0 1
vn 0 0 1
vn 0 0 1
vn 0 0 1
vn 0 0 1
vn 0 0 1
vn 0 0 1
vn 0 0 1
vn 0 0 1
vn 0 0 1
vn 0 0 1
vn 0 0 1
vn 0 0 1
vn 0 0 1
vn 0 0 1
vn 0 0 1
vn 0 0 1
vn 0 0 1
vn 0 0 1
vn 0 0 1
vn 0 0 1
vn 0 0 1
vn 0 0 1
vn 0 0 1
vn 0 0 1
vn 0 0 1
vn 0 0 1
vn 0 0 1
vn 0 0 1
vn 0 0 1
vn 0 0 1
vn 0 0 1
vn 0 0 1
vn 0 0 1
vn 0 0 1
vn 0 0 1
vn 0 0 1
vn 0 0 1
vn 0 0 1
vn 0 0 1
vn 0 0 1
vn 0 0 1
vn 0 0 1
vn 0 0 1
vn 0 0 1
vn 0 0 1
vn 0 0 1
vn 0 0 1
vn 0 0 1
vn 0 0 1
vn 0 0 1
vn 0 0 1
vn 0 0 1
vn 0 0 1
vn 0 0 1
vn 0 0 1
vn 0 0 1
vn 0 0 1
vn 0 0 1
vn 0 0 1
vn 0 0 1
vn 0 0 1
vn 0 0 1
vn 0 0 1
vn 0 0 1
vn 0 0 1
vn 0 0 1
vn 0 0 1
vn 0 0 1
vn 0 0 1
vn 0 0 1
vn 0 0 1
vn 0 0 1
vn 0 0 1
vn 0 0 1
g WizSummonStaff16_mesh_0
f 3/3/3 2/2/2 1/1/1
f 1/1/1 2/2/2 4/4/4
f 2/2/2 5/5/5 4/4/4
f 1/1/1 4/4/4 6/6/6
f 7/7/7 1/1/1 6/6/6
f 8/8/8 1/1/1 7/7/7
f 7/7/7 6/6/6 9/9/9
f 8/8/8 7/7/7 10/10/10
f 10/10/10 7/7/7 9/9/9
f 10/10/10 9/9/9 11/11/11
f 12/12/12 10/10/10 11/11/11
f 13/13/13 10/10/10 12/12/12
f 16/16/16 15/15/15 14/14/14
f 14/14/14 15/15/15 17/17/17
f 15/15/15 18/18/18 17/17/17
f 14/14/14 17/17/17 19/19/19
f 20/20/20 14/14/14 19/19/19
f 19/19/19 17/17/17 21/21/21
f 19/19/19 21/21/21 22/22/22
f 23/23/23 19/19/19 22/22/22
f 24/24/24 19/19/19 23/23/23
f 23/23/23 22/22/22 25/25/25
f 24/24/24 23/23/23 26/26/26
f 26/26/26 23/23/23 25/25/25
f 26/26/26 25/25/25 27/27/27
f 28/28/28 26/26/26 27/27/27
f 29/29/29 26/26/26 28/28/28
f 28/28/28 27/27/27 30/30/30
f 31/31/31 28/28/28 30/30/30
f 32/32/32 28/28/28 31/31/31
f 35/35/35 34/34/34 33/33/33
f 36/36/36 35/35/35 33/33/33
f 37/37/37 35/35/35 36/36/36
f 36/36/36 33/33/33 38/38/38
f 39/39/39 37/37/37 36/36/36
f 40/40/40 36/36/36 38/38/38
f 39/39/39 36/36/36 40/40/40
f 40/40/40 38/38/38 41/41/41
f 42/42/42 39/39/39 40/40/40
f 43/43/43 40/40/40 41/41/41
f 42/42/42 40/40/40 43/43/43
f 43/43/43 41/41/41 44/44/44
f 45/45/45 42/42/42 43/43/43
f 46/46/46 43/43/43 44/44/44
f 45/45/45 43/43/43 46/46/46
f 46/46/46 44/44/44 47/47/47
f 48/48/48 45/45/45 46/46/46
f 49/49/49 46/46/46 47/47/47
f 48/48/48 46/46/46 49/49/49
f 49/49/49 47/47/47 50/50/50
f 51/51/51 48/48/48 49/49/49
f 52/52/52 49/49/49 50/50/50
f 51/51/51 49/49/49 52/52/52
f 52/52/52 50/50/50 53/53/53
f 54/54/54 51/51/51 52/52/52
f 55/55/55 52/52/52 53/53/53
f 54/54/54 52/52/52 55/55/55
f 55/55/55 53/53/53 56/56/56
f 57/57/57 54/54/54 55/55/55
f 58/58/58 55/55/55 56/56/56
f 57/57/57 55/55/55 58/58/58
f 58/58/58 56/56/56 59/59/59
f 60/60/60 57/57/57 58/58/58
f 61/61/61 58/58/58 59/59/59
f 60/60/60 58/58/58 61/61/61
f 61/61/61 59/59/59 62/62/62
f 63/63/63 60/60/60 61/61/61
f 64/64/64 61/61/61 62/62/62
f 63/63/63 61/61/61 64/64/64
f 65/65/65 63/63/63 64/64/64
f 68/68/68 67/67/67 66/66/66
f 69/69/69 68/68/68 66/66/66
f 70/70/70 68/68/68 69/69/69
f 69/69/69 66/66/66 71/71/71
f 72/72/72 70/70/70 69/69/69
f 73/73/73 69/69/69 71/71/71
f 72/72/72 69/69/69 73/73/73
f 73/73/73 71/71/71 74/74/74
f 75/75/75 72/72/72 73/73/73
f 76/76/76 73/73/73 74/74/74
f 75/75/75 73/73/73 76/76/76
f 76/76/76 74/74/74 77/77/77
f 78/78/78 75/75/75 76/76/76
f 79/79/79 76/76/76 77/77/77
f 78/78/78 76/76/76 79/79/79
f 79/79/79 77/77/77 80/80/80
f 81/81/81 78/78/78 79/79/79
f 82/82/82 79/79/79 80/80/80
f 81/81/81 79/79/79 82/82/82
f 82/82/82 80/80/80 83/83/83
f 84/84/84 81/81/81 82/82/82
f 85/85/85 82/82/82 83/83/83
f 84/84/84 82/82/82 85/85/85
f 85/85/85 83/83/83 86/86/86
f 87/87/87 84/84/84 85/85/85
f 88/88/88 85/85/85 86/86/86
f 87/87/87 85/85/85 88/88/88
f 88/88/88 86/86/86 89/89/89
f 90/90/90 87/87/87 88/88/88
f 91/91/91 88/88/88 89/89/89
f 90/90/90 88/88/88 91/91/91
f 91/91/91 89/89/89 92/92/92
f 93/93/93 90/90/90 91/91/91
f 94/94/94 91/91/91 92/92/92
f 93/93/93 91/91/91 94/94/94
f 94/94/94 92/92/92 95/95/95
f 96/96/96 93/93/93 94/94/94
f 97/97/97 94/94/94 95/95/95
f 96/96/96 94/94/94 97/97/97
f 98/98/98 96/96/96 97/97/97
f 101/101/101 100/100/100 99/99/99
f 99/99/99 100/100/100 102/102/102
f 100/100/100 103/103/103 102/102/102
f 99/99/99 102/102/102 104/104/104
f 105/105/105 99/99/99 104/104/104
f 106/106/106 99/99/99 105/105/105
f 105/105/105 104/104/104 107/107/107
f 106/106/106 105/105/105 108/108/108
f 108/108/108 105/105/105 107/107/107
f 108/108/108 107/107/107 109/109/109
f 110/110/110 108/108/108 109/109/109
f 111/111/111 108/108/108 110/110/110
f 114/114/114 113/113/113 112/112/112
f 112/112/112 113/113/113 115/115/115
f 113/113/113 116/116/116 115/115/115
f 112/112/112 115/115/115 117/117/117
f 118/118/118 112/112/112 117/117/117
f 119/119/119 112/112/112 118/118/118
f 118/118/118 117/117/117 120/120/120
f 121/121/121 118/118/118 120/120/120
f 122/122/122 118/118/118 121/121/121
f 121/121/121 120/120/120 123/123/123
f 122/122/122 121/121/121 124/124/124
f 124/124/124 121/121/121 123/123/123
f 124/124/124 123/123/123 125/125/125
f 126/126/126 124/124/124 125/125/125
f 127/127/127 124/124/124 126/126/126
f 126/126/126 125/125/125 128/128/128
f 129/129/129 126/126/126 128/128/128
f 130/130/130 126/126/126 129/129/129
f 133/133/133 132/132/132 131/131/131
f 131/131/131 132/132/132 134/134/134
f 132/132/132 135/135/135 134/134/134
f 131/131/131 134/134/134 136/136/136
f 137/137/137 131/131/131 136/136/136
f 138/138/138 131/131/131 137/137/137
f 137/137/137 136/136/136 139/139/139
f 138/138/138 137/137/137 140/140/140
f 140/140/140 137/137/137 139/139/139
f 140/140/140 139/139/139 141/141/141
f 142/142/142 140/140/140 141/141/141
f 143/143/143 140/140/140 142/142/142
f 146/146/146 145/145/145 144/144/144
f 144/144/144 145/145/145 147/147/147
f 145/145/145 148/148/148 147/147/147
f 144/144/144 147/147/147 149/149/149
f 150/150/150 144/144/144 149/149/149
f 151/151/151 144/144/144 150/150/150
f 150/150/150 149/149/149 152/152/152
f 153/153/153 150/150/150 152/152/152
f 154/154/154 150/150/150 153/153/153
f 153/153/153 152/152/152 155/155/155
f 154/154/154 153/153/153 156/156/156
f 156/156/156 153/153/153 155/155/155
f 156/156/156 155/155/155 157/157/157
f 158/158/158 156/156/156 157/157/157
f 159/159/159 156/156/156 158/158/158
f 158/158/158 157/157/157 160/160/160
f 161/161/161 158/158/158 160/160/160
f 162/162/162 158/158/158 161/161/161
