g WizSummonStaff11_mesh
v 0.01381361 -0.06243241 1.95659E-15
v 0.4491135 -0.5843816 2.748843E-15
v 0.3498359 -0.9702107 1.102674E-15
v 0.1704528 -0.9490141 7.43779E-16
v 0.2275267 -1.235656 -5.624283E-16
v 0.01381361 -0.06243241 1.95659E-15
v 0.01287097 -1.037306 -1.140455E-16
v 0.2275267 -1.235656 -5.624283E-16
v -0.2248169 -0.7185676 3.154208E-16
v -0.3529683 -1.167062 -1.723838E-15
v -0.06272125 -1.201359 -1.143134E-15
v 0.2275267 -1.235656 -5.624283E-16
v -0.2824221 -1.521369 -3.338392E-15
v -0.02744764 -1.378512 -1.95041E-15
v -0.0170925 -1.766542 -3.89262E-15
v 0.1052163 -1.501098 -2.227521E-15
v 0.2275267 -1.235656 -5.624283E-16
v 0.3416722 -1.808936 -3.174834E-15
v 0.2845994 -1.522295 -1.868626E-15
v 0.2275267 -1.235656 -5.624283E-16
v 0.005026698 -0.003210193 -6.888784E-16
v -0.3647502 -0.3407941 -6.179981E-16
v -0.4919452 -0.1592598 -6.675961E-16
v -0.409534 -0.04982657 -1.026688E-15
v -0.6191401 0.02227441 -7.171942E-16
v 0.005026698 -0.003210193 -6.888784E-16
v -0.4071853 0.08714693 -1.267564E-15
v -0.6191401 0.02227441 -7.171942E-16
v -0.352452 0.3764082 -1.87924E-15
v 0.005026698 -0.003210193 -6.888784E-16
v -0.485796 0.1993413 -1.298217E-15
v -0.6191401 0.02227441 -7.171942E-16
v -0.6115391 0.4655299 -1.496685E-15
v -0.6153396 0.2439022 -1.10694E-15
v -0.8735298 0.3853436 -8.16392E-16
v -0.746335 0.203809 -7.667931E-16
v -0.6191401 0.02227441 -7.171942E-16
v -1.038352 0.1664771 -9.820807E-17
v -0.8287463 0.09437573 -4.077012E-16
v -0.6191401 0.02227441 -7.171942E-16
v -0.1100237 0.03574882 1.587567E-17
v -0.1156845 4.606092E-07 2.045516E-22
v -0.4338814 6.113269E-08 2.714837E-23
v -0.4126458 0.1340766 5.954199E-17
v -0.7564698 -3.250695E-08 -1.443599E-23
v -0.09359053 0.06799687 3.019667E-17
v -0.7194456 0.233762 1.038112E-16
v -0.3510172 0.2550289 1.132556E-16
v -0.0679967 0.09359068 4.156261E-17
v -0.6119971 0.4446417 1.974606E-16
v -0.2550289 0.3510173 1.55883E-16
v -0.03574866 0.1100239 4.886041E-17
v -0.4446419 0.6119971 2.717813E-16
v -0.1340767 0.412646 1.832516E-16
v -3.070726E-07 0.1156845 5.137425E-17
v -0.2337621 0.7194459 3.194982E-16
v -5.945789E-08 0.4338814 1.926821E-16
v 0.03574802 0.1100239 4.886041E-17
v 1.408809E-08 0.75647 3.359401E-16
v 0.1340765 0.412646 1.832516E-16
v 0.06799606 0.09359068 4.156261E-17
v 0.2337621 0.7194459 3.194982E-16
v 0.2550289 0.3510173 1.55883E-16
v 0.09358988 0.06799687 3.019667E-17
v 0.4446422 0.6119971 2.717813E-16
v 0.3510172 0.2550289 1.132556E-16
v 0.1100231 0.03574882 1.587567E-17
v 0.6119971 0.4446419 1.974607E-16
v 0.4126457 0.1340767 5.954203E-17
v 0.1156839 4.606092E-07 2.045516E-22
v 0.7194458 0.2337621 1.038112E-16
v 0.4338812 6.113269E-08 2.714837E-23
v 0.7564697 -3.250695E-08 -1.443599E-23
v 0.1100231 -0.03574794 -1.587527E-17
v 0.1156839 4.606092E-07 2.045516E-22
v 0.4338812 6.113269E-08 2.714837E-23
v 0.4126456 -0.1340765 -5.954194E-17
v 0.7564697 -3.250695E-08 -1.443599E-23
v 0.09358988 -0.06799591 -3.019625E-17
v 0.7194454 -0.2337621 -1.038112E-16
v 0.3510171 -0.2550287 -1.132555E-16
v 0.06799606 -0.09358972 -4.156219E-17
v 0.6119969 -0.4446417 -1.974606E-16
v 0.2550287 -0.351017 -1.558829E-16
v 0.03574802 -0.1100229 -4.885998E-17
v 0.4446416 -0.6119969 -2.717812E-16
v 0.1340765 -0.4126457 -1.832515E-16
v -3.105204E-07 -0.1156836 -5.137382E-17
v 0.233762 -0.7194456 -3.19498E-16
v -7.238857E-08 -0.4338812 -1.92682E-16
v -0.03574866 -0.1100229 -4.885998E-17
v -8.456487E-09 -0.7564698 -3.359401E-16
v -0.1340766 -0.4126457 -1.832515E-16
v -0.0679967 -0.09358972 -4.156219E-17
v -0.233762 -0.7194458 -3.194981E-16
v -0.2550289 -0.351017 -1.558829E-16
v -0.09359053 -0.06799591 -3.019625E-17
v -0.4446417 -0.6119969 -2.717812E-16
v -0.3510171 -0.2550287 -1.132555E-16
v -0.1100237 -0.03574794 -1.587527E-17
v -0.6119969 -0.4446417 -1.974606E-16
v -0.4126458 -0.1340765 -5.954194E-17
v -0.1156845 4.606092E-07 2.045516E-22
v -0.7194456 -0.2337621 -1.038112E-16
v -0.4338814 6.113269E-08 2.714837E-23
v -0.7564698 -3.250695E-08 -1.443599E-23
v 1.28867 0.6825285 -7.867807E-17
v 1.2429 0.5641062 -6.11528E-18
v 1.083552 0.6937509 2.532544E-17
v 1.493788 0.6713061 -1.826816E-16
v 1.402248 0.4344616 -3.7556E-17
v 1.428633 0.9167235 -2.483555E-16
v 1.256092 0.8052372 -1.11515E-16
v 1.083552 0.6937509 2.532544E-17
v 1.231668 1.076973 -2.094925E-16
v 1.15761 0.8853619 -9.208355E-17
v 0.9781277 1.090844 -8.093696E-17
v 1.03084 0.8922976 -2.780577E-17
v 1.083552 0.6937509 2.532544E-17
v 0.924204 0.8233952 5.676633E-17
v 1.03084 0.8922976 -2.780577E-17
v 1.083552 0.6937509 2.532544E-17
v 0.764856 0.9530396 8.820721E-17
v 0.9781277 1.090844 -8.093696E-17
v 0.5568594 0.6141967 3.203388E-16
v 0.8784336 0.7049729 1.293291E-16
v 0.27409 0.1584978 6.661339E-16
v 1.083552 0.6937509 2.532544E-17
v 0.9110115 0.5822643 1.62166E-16
v 1.083552 0.6937509 2.532544E-17
v 0.27409 0.1584978 6.661339E-16
v 1.009494 0.5021396 1.427346E-16
v 0.8057339 0.2290297 3.457949E-16
v 0.27409 0.1584978 6.661339E-16
v 1.188976 0.2966568 1.315882E-16
v 1.136264 0.4952039 7.845684E-17
v 1.083552 0.6937509 2.532544E-17
v 1.402248 0.4344616 -3.7556E-17
v 1.2429 0.5641062 -6.11528E-18
v 1.083552 0.6937509 2.532544E-17
v 0.4421819 -1.434006 -1.010812E-15
v 0.2845994 -1.522295 -1.868626E-15
v 0.2275267 -1.235656 -5.624283E-16
v 0.656838 -1.632355 -1.459193E-15
v 0.3416722 -1.808936 -3.174834E-15
v 0.8080211 -1.304249 5.989789E-16
v 0.5177734 -1.269952 1.827442E-17
v 0.2275267 -1.235656 -5.624283E-16
v 0.7374748 -0.9499428 2.213533E-15
v 0.4825004 -1.092799 8.255525E-16
v 0.4491135 -0.5843816 2.748843E-15
v 0.3498359 -0.9702107 1.102674E-15
v 0.2275267 -1.235656 -5.624283E-16
v -0.831095 -0.04259775 -1.668254E-16
v -0.8287463 0.09437573 -4.077012E-16
v -0.6191401 0.02227441 -7.171942E-16
v -1.04305 -0.10747 3.835437E-16
v -1.038352 0.1664771 -9.820807E-17
v -0.8858283 -0.3318587 4.448503E-16
v -0.7524843 -0.1547922 -1.361718E-16
v -0.6191401 0.02227441 -7.171942E-16
v -0.6267411 -0.4209807 6.22961E-17
v -0.6229405 -0.1993531 -3.274492E-16
v -0.3647502 -0.3407941 -6.179981E-16
v -0.4919452 -0.1592598 -6.675961E-16
v -0.6191401 0.02227441 -7.171942E-16
vt 0.8121852 0.5554196
vt 0.8121852 0.5559921
vt 0.8194368 0.9600856
vt 0.8194368 0.9597993
vt 0.8266884 0.9883691
vt 0.8121852 0.5554196
vt 0.8222066 0.9595677
vt 0.8266884 0.9883691
vt 0.8177249 0.5549562
vt 0.8266884 0.5547793
vt 0.8266884 0.9594792
vt 0.8266884 0.9883691
vt 0.8356519 0.5549562
vt 0.8311702 0.9595677
vt 0.8411917 0.5554196
vt 0.83394 0.9597993
vt 0.8266884 0.9883691
vt 0.8411917 0.5559921
vt 0.83394 0.9600856
vt 0.8266884 0.9883691
vt 0.814955 0.5551879
vt 0.8121852 0.5559921
vt 0.8194368 0.9600856
vt 0.8194368 0.9597993
vt 0.8266884 0.9883691
vt 0.814955 0.5551879
vt 0.8222066 0.9595677
vt 0.8266884 0.9883691
vt 0.8266884 0.5547793
vt 0.814955 0.5551879
vt 0.8266884 0.9594792
vt 0.8266884 0.9883691
vt 0.8356519 0.5549562
vt 0.8311702 0.9595677
vt 0.8411917 0.5554196
vt 0.83394 0.9597993
vt 0.8266884 0.9883691
vt 0.8411917 0.5559921
vt 0.83394 0.9600856
vt 0.8266884 0.9883691
vt 0.7976819 0.4968013
vt 0.7961892 0.4978163
vt 0.8095732 0.9796844
vt 0.8104109 0.9791148
vt 0.8114388 0.9900582
vt 0.802014 0.4958857
vt 0.8121852 0.9895507
vt 0.812842 0.978601
vt 0.8087615 0.4951591
vt 0.8143512 0.9890929
vt 0.8166284 0.9781933
vt 0.8172636 0.4946925
vt 0.8177249 0.9887296
vt 0.8213995 0.9779314
vt 0.8266884 0.4945318
vt 0.821976 0.9884963
vt 0.8266884 0.9778413
vt 0.8361132 0.4946925
vt 0.8266884 0.988416
vt 0.8319773 0.9779314
vt 0.8446155 0.4951591
vt 0.8314008 0.9884963
vt 0.8367485 0.9781933
vt 0.8513628 0.4958857
vt 0.8356519 0.9887296
vt 0.8405349 0.978601
vt 0.855695 0.4968013
vt 0.8390256 0.9890929
vt 0.842966 0.9791148
vt 0.8571876 0.4978163
vt 0.8411917 0.9895507
vt 0.8438036 0.9796844
vt 0.841938 0.9900582
vt 0.855695 0.4988312
vt 0.8571876 0.4978163
vt 0.8438036 0.9796844
vt 0.842966 0.980254
vt 0.841938 0.9900582
vt 0.8513628 0.4997469
vt 0.8411917 0.9905657
vt 0.8405349 0.9807678
vt 0.8446155 0.5004736
vt 0.8390256 0.9910235
vt 0.8367485 0.9811755
vt 0.8361132 0.50094
vt 0.8356519 0.9913868
vt 0.8319773 0.9814373
vt 0.8266884 0.5011008
vt 0.8314008 0.9916201
vt 0.8266884 0.9815276
vt 0.8172636 0.50094
vt 0.8266884 0.9917005
vt 0.8213995 0.9814373
vt 0.8087614 0.5004736
vt 0.821976 0.9916201
vt 0.8166283 0.9811755
vt 0.802014 0.4997469
vt 0.8177249 0.9913868
vt 0.812842 0.9807678
vt 0.7976819 0.4988312
vt 0.8143512 0.9910235
vt 0.8104109 0.980254
vt 0.7961892 0.4978163
vt 0.8121852 0.9905657
vt 0.8095732 0.9796844
vt 0.8114388 0.9900582
vt 0.8311702 0.9603171
vt 0.83394 0.9600856
vt 0.8266884 0.9883691
vt 0.8356519 0.5564553
vt 0.8411917 0.5559921
vt 0.8266884 0.5566323
vt 0.8266884 0.9604057
vt 0.8266884 0.9883691
vt 0.8177249 0.5564553
vt 0.8222067 0.9603171
vt 0.8121852 0.5559921
vt 0.8194368 0.9600856
vt 0.8266884 0.9883691
vt 0.8194368 0.9597993
vt 0.8194368 0.9600856
vt 0.8266884 0.9883691
vt 0.8121852 0.5554196
vt 0.8121852 0.5559921
vt 0.8177249 0.5549562
vt 0.8222066 0.9595677
vt 0.8266884 0.5547793
vt 0.8266884 0.9883691
vt 0.8266884 0.9594792
vt 0.8266884 0.9883691
vt 0.8266884 0.5547793
vt 0.8311702 0.9595677
vt 0.8356519 0.5549562
vt 0.8266884 0.5547793
vt 0.8411917 0.5554196
vt 0.83394 0.9597993
vt 0.8266884 0.9883691
vt 0.8411917 0.5559921
vt 0.83394 0.9600856
vt 0.8266884 0.9883691
vt 0.8311702 0.9603171
vt 0.83394 0.9600856
vt 0.8266884 0.9883691
vt 0.8356519 0.5564553
vt 0.8411917 0.5559921
vt 0.8266884 0.5566323
vt 0.8266884 0.9604057
vt 0.8266884 0.9883691
vt 0.8177249 0.5564553
vt 0.8222067 0.9603171
vt 0.8121852 0.5559921
vt 0.8194368 0.9600856
vt 0.8266884 0.9883691
vt 0.8311702 0.9603171
vt 0.83394 0.9600856
vt 0.8266884 0.9883691
vt 0.8356519 0.5564553
vt 0.8411917 0.5559921
vt 0.8266884 0.5566323
vt 0.8266884 0.9604057
vt 0.8266884 0.9883691
vt 0.8177249 0.5564553
vt 0.8222067 0.9603171
vt 0.8121852 0.5559921
vt 0.8194368 0.9600856
vt 0.8266884 0.9883691
vn 0 0 1
vn 0 0 1
vn 0 0 1
vn 0 0 1
vn 0 0 1
vn 0 0 1
vn 0 0 1
vn 0 0 1
vn 0 0 1
vn 0 0 1
vn 0 0 1
vn 0 0 1
vn 0 0 1
vn 0 0 1
vn 0 0 1
vn 0 0 1
vn 0 0 1
vn 0 0 1
vn 0 0 1
vn 0 0 1
vn 0 0 1
vn 0 0 1
vn 0 0 1
vn 0 0 1
vn 0 0 1
vn 0 0 1
vn 0 0 1
vn 0 0 1
vn 0 0 1
vn 0 0 1
vn 0 0 1
vn 0 0 1
vn 0 0 1
vn 0 0 1
vn 0 0 1
vn 0 0 1
vn 0 0 1
vn 0 0 1
vn 0 0 1
vn 0 0 1
vn 0 0 1
vn 0 0 1
vn 0 0 1
vn 0 0 1
vn 0 0 1
vn 0 0 1
vn 0 0 1
vn 0 0 1
vn 0 0 1
vn 0 0 1
vn 0 0 1
vn 0 0 1
vn 0 0 1
vn 0 0 1
vn 0 0 1
vn 0 0 1
vn 0 0 1
vn 0 0 1
vn 0 0 1
vn 0 0 1
vn 0 0 1
vn 0 0 1
vn 0 0 1
vn 0 0 1
vn 0 0 1
vn 0 0 1
vn 0 0 1
vn 0 0 1
vn 0 0 1
vn 0 0 1
vn 0 0 1
vn 0 0 1
vn 0 0 1
vn 0 0 1
vn 0 0 1
vn 0 0 1
vn 0 0 1
vn 0 0 1
vn 0 0 1
vn 0 0 1
vn 0 0 1
vn 0 0 1
vn 0 0 1
vn 0 0 1
vn 0 0 1
vn 0 0 1
vn 0 0 1
vn 0 0 1
vn 0 0 1
vn 0 0 1
vn 0 0 1
vn 0 0 1
vn 0 0 1
vn 0 0 1
vn 0 0 1
vn 0 0 1
vn 0 0 1
vn 0 0 1
vn 0 0 1
vn 0 0 1
vn 0 0 1
vn 0 0 1
vn 0 0 1
vn 0 0 1
vn 0 0 1
vn 0 0 1
vn 0 0 1
vn 0 0 1
vn 0 0 1
vn 0 0 1
vn 0 0 1
vn 0 0 1
vn 0 0 1
vn 0 0 1
vn 0 0 1
vn 0 0 1
vn 0 0 1
vn 0 0 1
vn 0 0 1
vn 0 0 1
vn 0 0 1
vn 0 0 1
vn 0 0 1
vn 0 0 1
vn 0 0 1
vn 0 0 1
vn 0 0 1
vn 0 0 1
vn 0 0 1
vn 0 0 1
vn 0 0 1
vn 0 0 1
vn 0 0 1
vn 0 0 1
vn 0 0 1
vn 0 0 1
vn 0 0 1
vn 0 0 1
vn 0 0 1
vn 0 0 1
vn 0 0 1
vn 0 0 1
vn 0 0 1
vn 0 0 1
vn 0 0 1
vn 0 0 1
vn 0 0 1
vn 0 0 1
vn 0 0 1
vn 0 0 1
vn 0 0 1
vn 0 0 1
vn 0 0 1
vn 0 0 1
vn 0 0 1
vn 0 0 1
vn 0 0 1
vn 0 0 1
vn 0 0 1
vn 0 0 1
vn 0 0 1
vn 0 0 1
vn 0 0 1
vn 0 0 1
vn 0 0 1
vn 0 0 1
g WizSummonStaff11_mesh_0
f 3/3/3 2/2/2 1/1/1
f 5/5/5 3/3/3 4/4/4
f 4/4/4 3/3/3 6/6/6
f 4/4/4 6/6/6 7/7/7
f 8/8/8 4/4/4 7/7/7
f 7/7/7 6/6/6 9/9/9
f 7/7/7 9/9/9 10/10/10
f 11/11/11 7/7/7 10/10/10
f 12/12/12 7/7/7 11/11/11
f 11/11/11 10/10/10 13/13/13
f 12/12/12 11/11/11 14/14/14
f 14/14/14 11/11/11 13/13/13
f 14/14/14 13/13/13 15/15/15
f 16/16/16 14/14/14 15/15/15
f 17/17/17 14/14/14 16/16/16
f 16/16/16 15/15/15 18/18/18
f 19/19/19 16/16/16 18/18/18
f 20/20/20 16/16/16 19/19/19
f 23/23/23 22/22/22 21/21/21
f 25/25/25 23/23/23 24/24/24
f 24/24/24 23/23/23 26/26/26
f 27/27/27 24/24/24 26/26/26
f 28/28/28 24/24/24 27/27/27
f 27/27/27 30/30/30 29/29/29
f 31/31/31 27/27/27 29/29/29
f 32/32/32 27/27/27 31/31/31
f 31/31/31 29/29/29 33/33/33
f 32/32/32 31/31/31 34/34/34
f 34/34/34 31/31/31 33/33/33
f 34/34/34 33/33/33 35/35/35
f 36/36/36 34/34/34 35/35/35
f 37/37/37 34/34/34 36/36/36
f 36/36/36 35/35/35 38/38/38
f 39/39/39 36/36/36 38/38/38
f 40/40/40 36/36/36 39/39/39
f 43/43/43 42/42/42 41/41/41
f 44/44/44 43/43/43 41/41/41
f 45/45/45 43/43/43 44/44/44
f 44/44/44 41/41/41 46/46/46
f 47/47/47 45/45/45 44/44/44
f 48/48/48 44/44/44 46/46/46
f 47/47/47 44/44/44 48/48/48
f 48/48/48 46/46/46 49/49/49
f 50/50/50 47/47/47 48/48/48
f 51/51/51 48/48/48 49/49/49
f 50/50/50 48/48/48 51/51/51
f 51/51/51 49/49/49 52/52/52
f 53/53/53 50/50/50 51/51/51
f 54/54/54 51/51/51 52/52/52
f 53/53/53 51/51/51 54/54/54
f 54/54/54 52/52/52 55/55/55
f 56/56/56 53/53/53 54/54/54
f 57/57/57 54/54/54 55/55/55
f 56/56/56 54/54/54 57/57/57
f 57/57/57 55/55/55 58/58/58
f 59/59/59 56/56/56 57/57/57
f 60/60/60 57/57/57 58/58/58
f 59/59/59 57/57/57 60/60/60
f 60/60/60 58/58/58 61/61/61
f 62/62/62 59/59/59 60/60/60
f 63/63/63 60/60/60 61/61/61
f 62/62/62 60/60/60 63/63/63
f 63/63/63 61/61/61 64/64/64
f 65/65/65 62/62/62 63/63/63
f 66/66/66 63/63/63 64/64/64
f 65/65/65 63/63/63 66/66/66
f 66/66/66 64/64/64 67/67/67
f 68/68/68 65/65/65 66/66/66
f 69/69/69 66/66/66 67/67/67
f 68/68/68 66/66/66 69/69/69
f 69/69/69 67/67/67 70/70/70
f 71/71/71 68/68/68 69/69/69
f 72/72/72 69/69/69 70/70/70
f 71/71/71 69/69/69 72/72/72
f 73/73/73 71/71/71 72/72/72
f 76/76/76 75/75/75 74/74/74
f 77/77/77 76/76/76 74/74/74
f 78/78/78 76/76/76 77/77/77
f 77/77/77 74/74/74 79/79/79
f 80/80/80 78/78/78 77/77/77
f 81/81/81 77/77/77 79/79/79
f 80/80/80 77/77/77 81/81/81
f 81/81/81 79/79/79 82/82/82
f 83/83/83 80/80/80 81/81/81
f 84/84/84 81/81/81 82/82/82
f 83/83/83 81/81/81 84/84/84
f 84/84/84 82/82/82 85/85/85
f 86/86/86 83/83/83 84/84/84
f 87/87/87 84/84/84 85/85/85
f 86/86/86 84/84/84 87/87/87
f 87/87/87 85/85/85 88/88/88
f 89/89/89 86/86/86 87/87/87
f 90/90/90 87/87/87 88/88/88
f 89/89/89 87/87/87 90/90/90
f 90/90/90 88/88/88 91/91/91
f 92/92/92 89/89/89 90/90/90
f 93/93/93 90/90/90 91/91/91
f 92/92/92 90/90/90 93/93/93
f 93/93/93 91/91/91 94/94/94
f 95/95/95 92/92/92 93/93/93
f 96/96/96 93/93/93 94/94/94
f 95/95/95 93/93/93 96/96/96
f 96/96/96 94/94/94 97/97/97
f 98/98/98 95/95/95 96/96/96
f 99/99/99 96/96/96 97/97/97
f 98/98/98 96/96/96 99/99/99
f 99/99/99 97/97/97 100/100/100
f 101/101/101 98/98/98 99/99/99
f 102/102/102 99/99/99 100/100/100
f 101/101/101 99/99/99 102/102/102
f 102/102/102 100/100/100 103/103/103
f 104/104/104 101/101/101 102/102/102
f 105/105/105 102/102/102 103/103/103
f 104/104/104 102/102/102 105/105/105
f 106/106/106 104/104/104 105/105/105
f 109/109/109 108/108/108 107/107/107
f 107/107/107 108/108/108 110/110/110
f 108/108/108 111/111/111 110/110/110
f 107/107/107 110/110/110 112/112/112
f 113/113/113 107/107/107 112/112/112
f 114/114/114 107/107/107 113/113/113
f 113/113/113 112/112/112 115/115/115
f 114/114/114 113/113/113 116/116/116
f 116/116/116 113/113/113 115/115/115
f 116/116/116 115/115/115 117/117/117
f 118/118/118 116/116/116 117/117/117
f 119/119/119 116/116/116 118/118/118
f 122/122/122 121/121/121 120/120/120
f 120/120/120 121/121/121 123/123/123
f 121/121/121 124/124/124 123/123/123
f 120/120/120 123/123/123 125/125/125
f 126/126/126 120/120/120 125/125/125
f 126/126/126 125/125/125 127/127/127
f 128/128/128 120/120/120 126/126/126
f 130/130/130 126/126/126 129/129/129
f 129/129/129 126/126/126 131/131/131
f 130/130/130 129/129/129 132/132/132
f 129/129/129 131/131/131 132/132/132
f 132/132/132 134/134/134 133/133/133
f 132/132/132 133/133/133 135/135/135
f 136/136/136 132/132/132 135/135/135
f 137/137/137 132/132/132 136/136/136
f 136/136/136 135/135/135 138/138/138
f 139/139/139 136/136/136 138/138/138
f 140/140/140 136/136/136 139/139/139
f 143/143/143 142/142/142 141/141/141
f 141/141/141 142/142/142 144/144/144
f 142/142/142 145/145/145 144/144/144
f 141/141/141 144/144/144 146/146/146
f 147/147/147 141/141/141 146/146/146
f 148/148/148 141/141/141 147/147/147
f 147/147/147 146/146/146 149/149/149
f 148/148/148 147/147/147 150/150/150
f 150/150/150 147/147/147 149/149/149
f 150/150/150 149/149/149 151/151/151
f 152/152/152 150/150/150 151/151/151
f 153/153/153 150/150/150 152/152/152
f 156/156/156 155/155/155 154/154/154
f 154/154/154 155/155/155 157/157/157
f 155/155/155 158/158/158 157/157/157
f 154/154/154 157/157/157 159/159/159
f 160/160/160 154/154/154 159/159/159
f 161/161/161 154/154/154 160/160/160
f 160/160/160 159/159/159 162/162/162
f 161/161/161 160/160/160 163/163/163
f 163/163/163 160/160/160 162/162/162
f 163/163/163 162/162/162 164/164/164
f 165/165/165 163/163/163 164/164/164
f 166/166/166 163/163/163 165/165/165
