g WizSummonStaff07_mesh
v 0.004458293 0.002364889 -5.819357E-16
v 0.01466687 -0.02068026 -6.865686E-16
v 0.006098196 -0.04373564 -7.714473E-16
v -0.04816687 -0.05963278 -5.642798E-16
v -0.05586879 -0.02826847 -4.039339E-16
v -0.04166985 0.001983345 -3.924241E-16
v -0.07113597 -0.02336593 -4.425343E-16
v -0.04816687 -0.05963278 -5.642798E-16
v -0.1756082 -0.1889724 -5.66421E-16
v -0.05586879 -0.02826847 -4.039339E-16
v -0.04816687 -0.05963278 -5.642798E-16
v -0.04922722 0.008272424 -3.4053E-16
v -0.04166985 0.001983345 -3.924241E-16
v 0.03925987 0.06583904 -5.915864E-16
v 0.0513152 0.03587727 -4.414179E-16
v 0.04153216 0.003923014 -4.311256E-16
v -0.004079491 -0.002970994 -6.023837E-16
v -0.01744118 0.01840097 -6.977299E-16
v -0.01221533 0.04243559 -7.807851E-16
v 0.06712183 0.03318061 -4.872006E-16
v 0.03925987 0.06583904 -5.915864E-16
v 0.147152 0.2118846 -6.150555E-16
v 0.0513152 0.03587727 -4.414179E-16
v 0.03925987 0.06583904 -5.915864E-16
v 0.04990216 -0.001235425 -3.836629E-16
v 0.04153216 0.003923014 -4.311256E-16
v -0.5798825 0.1884152 8.367316E-17
v -0.2382385 -4.821702E-08 -2.141266E-23
v -0.6097245 -1.657254E-08 -7.359684E-24
v -0.2265783 0.07361967 3.26937E-17
v -0.1453146 -6.244445E-09 -2.773091E-24
v -0.4932775 0.3583871 1.591558E-16
v -0.1382024 0.04490466 1.994168E-17
v -0.192739 0.140033 6.218716E-17
v -0.3583871 0.4932775 2.190592E-16
v -0.117562 0.08541375 3.793133E-17
v -0.1400331 0.192739 8.559331E-17
v -0.1884153 0.5798826 2.575196E-16
v -0.08541378 0.117562 5.220801E-17
v -0.07361973 0.2265783 1.00621E-16
v 1.104836E-08 0.6097246 2.707721E-16
v -0.04490468 0.1382024 6.137421E-17
v 2.388277E-08 0.2382385 1.057991E-16
v 0.1884153 0.5798826 2.575196E-16
v 2.706262E-09 0.1453146 6.453265E-17
v 0.07361978 0.2265783 1.00621E-16
v 0.3583872 0.4932776 2.190593E-16
v 0.04490468 0.1382024 6.137421E-17
v 0.1400332 0.192739 8.559331E-17
v 0.4932777 0.3583872 1.591559E-16
v 0.08541384 0.117562 5.220801E-17
v 0.1927391 0.1400331 6.218717E-17
v 0.5798827 0.1884153 8.36732E-17
v 0.117562 0.08541378 3.793134E-17
v 0.2265783 0.07361972 3.269372E-17
v 0.6097243 -1.657254E-08 -7.359684E-24
v 0.1382024 0.04490469 1.994169E-17
v 0.2382385 -4.821702E-08 -2.141266E-23
v 0.1453146 -6.244445E-09 -2.773091E-24
v 0.5798824 -0.1884152 -8.367316E-17
v 0.2382385 -4.821702E-08 -2.141266E-23
v 0.6097243 -1.657254E-08 -7.359684E-24
v 0.2265782 -0.07361978 -3.269375E-17
v 0.1453146 -6.244445E-09 -2.773091E-24
v 0.4932774 -0.3583871 -1.591558E-16
v 0.1382024 -0.04490468 -1.994168E-17
v 0.192739 -0.1400331 -6.218719E-17
v 0.358387 -0.4932774 -2.190592E-16
v 0.117562 -0.08541375 -3.793132E-17
v 0.140033 -0.192739 -8.559333E-17
v 0.1884152 -0.5798824 -2.575195E-16
v 0.08541373 -0.117562 -5.2208E-17
v 0.07361976 -0.2265783 -1.00621E-16
v -7.122845E-09 -0.6097244 -2.70772E-16
v 0.04490468 -0.1382024 -6.137419E-17
v 1.678269E-08 -0.2382386 -1.057992E-16
v -0.1884152 -0.5798824 -2.575195E-16
v -1.624455E-09 -0.1453146 -6.453264E-17
v -0.07361972 -0.2265784 -1.00621E-16
v -0.3583871 -0.4932775 -2.190592E-16
v -0.04490466 -0.1382024 -6.13742E-17
v -0.140033 -0.192739 -8.559333E-17
v -0.4932775 -0.3583871 -1.591558E-16
v -0.08541375 -0.117562 -5.2208E-17
v -0.192739 -0.1400331 -6.218719E-17
v -0.5798825 -0.1884152 -8.367318E-17
v -0.117562 -0.08541375 -3.793132E-17
v -0.2265783 -0.07361978 -3.269375E-17
v -0.6097245 -1.657254E-08 -7.359684E-24
v -0.1382024 -0.04490468 -1.994168E-17
v -0.2382385 -4.821702E-08 -2.141266E-23
v -0.1453146 -6.244445E-09 -2.773091E-24
v 0.006098196 -0.04373564 -7.714473E-16
v -0.01808225 -0.05905224 -7.088756E-16
v 0.004458293 0.002364889 -5.819357E-16
v -0.04816687 -0.05963278 -5.642798E-16
v -0.02059333 0.01354766 -4.682219E-16
v 0.01259252 0.01538567 -5.821984E-16
v -0.01511787 0.03095992 -4.70122E-16
v -0.04166985 0.001983345 -3.924241E-16
v -0.04922722 0.008272424 -3.4053E-16
v 0.02638428 -0.01147817 -6.60282E-16
v 0.01466687 -0.02068026 -6.865686E-16
v 0.01163194 -0.04920627 -8.220903E-16
v 0.006098196 -0.04373564 -7.714473E-16
v -0.04166985 0.001983345 -3.924241E-16
v -0.02059333 0.01354766 -4.682219E-16
v -0.01808225 -0.05905224 -7.088756E-16
v -0.1756082 -0.1889724 -5.66421E-16
v -0.04816687 -0.05963278 -5.642798E-16
v -0.01808225 -0.05905224 -7.088756E-16
v -0.02317867 -0.08024858 -6.735777E-16
v 0.006098196 -0.04373564 -7.714473E-16
v 0.01163194 -0.04920627 -8.220903E-16
v 0.04153216 0.003923014 -4.311256E-16
v 0.02230063 -0.0105027 -5.01167E-16
v 0.03925987 0.06583904 -5.915864E-16
v -0.004079491 -0.002970994 -6.023837E-16
v 0.009558931 0.06101443 -7.243527E-16
v 0.02230063 -0.0105027 -5.01167E-16
v 0.009558931 0.06101443 -7.243527E-16
v -0.01221533 0.04243559 -7.807851E-16
v -0.01029278 -0.01701027 -6.023661E-16
v -0.02774115 0.007635891 -6.688721E-16
v 0.0193398 -0.02851385 -5.048402E-16
v 0.04153216 0.003923014 -4.311256E-16
v 0.04990216 -0.001235425 -3.836629E-16
v -0.01744118 0.01840097 -6.977299E-16
v -0.0184664 0.04706962 -8.279869E-16
v -0.01221533 0.04243559 -7.807851E-16
v 0.147152 0.2118846 -6.150555E-16
v 0.03925987 0.06583904 -5.915864E-16
v 0.009558931 0.06101443 -7.243527E-16
v 0.01160996 0.08271816 -6.862724E-16
v -0.01221533 0.04243559 -7.807851E-16
v -0.0184664 0.04706962 -8.279869E-16
vt 0.8342358 0.9797207
vt 0.8412516 0.9798885
vt 0.8566569 0.980257
vt 0.8342358 0.9806209
vt 0.8188305 0.9803708
vt 0.8118148 0.980257
vt 0.8034251 0.5445448
vt 0.8342358 0.9806209
vt 0.8342358 0.5353661
vt 0.8188305 0.9803708
vt 0.8342358 0.9806209
vt 0.7893937 0.5487249
vt 0.8118148 0.980257
vt 0.8342358 0.9806209
vt 0.8188305 0.9803708
vt 0.8118148 0.980257
vt 0.8342358 0.9797207
vt 0.8412516 0.9798885
vt 0.8566569 0.980257
vt 0.8034251 0.5445448
vt 0.8342358 0.9806209
vt 0.8342358 0.5353661
vt 0.8188305 0.9803708
vt 0.8342358 0.9806209
vt 0.7893937 0.5487249
vt 0.8118148 0.980257
vt 0.7976819 0.4968013
vt 0.810266 0.9521996
vt 0.7961892 0.4978163
vt 0.8110697 0.9516531
vt 0.8114388 0.9900582
vt 0.802014 0.4958857
vt 0.8121852 0.9895507
vt 0.8134024 0.9511601
vt 0.8087615 0.4951591
vt 0.8143512 0.9890929
vt 0.8170356 0.9507689
vt 0.8172636 0.4946925
vt 0.8177249 0.9887296
vt 0.8216136 0.9505177
vt 0.8266884 0.4945318
vt 0.821976 0.9884963
vt 0.8266884 0.950431
vt 0.8361132 0.4946925
vt 0.8266884 0.988416
vt 0.8317633 0.9505177
vt 0.8446155 0.4951591
vt 0.8314008 0.9884963
vt 0.8363414 0.9507689
vt 0.8513628 0.4958857
vt 0.8356519 0.9887296
vt 0.8399745 0.9511601
vt 0.855695 0.4968013
vt 0.8390256 0.9890929
vt 0.8423072 0.9516531
vt 0.8571876 0.4978163
vt 0.8411917 0.9895507
vt 0.8431109 0.9521996
vt 0.841938 0.9900582
vt 0.855695 0.4988312
vt 0.8431109 0.9521996
vt 0.8571876 0.4978163
vt 0.8423072 0.9527462
vt 0.841938 0.9900582
vt 0.8513628 0.4997469
vt 0.8411917 0.9905657
vt 0.8399745 0.9532392
vt 0.8446155 0.5004736
vt 0.8390256 0.9910235
vt 0.8363414 0.9536304
vt 0.8361132 0.50094
vt 0.8356519 0.9913868
vt 0.8317633 0.9538816
vt 0.8266884 0.5011008
vt 0.8314008 0.9916201
vt 0.8266884 0.9539682
vt 0.8172636 0.50094
vt 0.8266884 0.9917005
vt 0.8216136 0.9538816
vt 0.8087614 0.5004736
vt 0.821976 0.9916201
vt 0.8170355 0.9536304
vt 0.802014 0.4997469
vt 0.8177249 0.9913868
vt 0.8134024 0.9532392
vt 0.7976819 0.4988312
vt 0.8143512 0.9910235
vt 0.8110697 0.9527462
vt 0.7961892 0.4978163
vt 0.8121852 0.9905657
vt 0.810266 0.9521996
vt 0.8114388 0.9900582
vt 0.8566569 0.980257
vt 0.8467922 0.980417
vt 0.8342358 0.9797207
vt 0.8342358 0.9806209
vt 0.8243712 0.9799566
vt 0.8342358 0.5481527
vt 0.8145065 0.5484045
vt 0.8118148 0.980257
vt 0.7893937 0.5487249
vt 0.8482673 0.5483317
vt 0.8412516 0.9798885
vt 0.879078 0.5487249
vt 0.8566569 0.980257
vt 0.8118148 0.980257
vt 0.8243712 0.9799566
vt 0.8467922 0.980417
vt 0.8342358 0.5353661
vt 0.8342358 0.9806209
vt 0.8467922 0.980417
vt 0.8593487 0.5428474
vt 0.8566569 0.980257
vt 0.879078 0.5487249
vt 0.8118148 0.980257
vt 0.8243712 0.9799566
vt 0.8342358 0.9806209
vt 0.8342358 0.9797207
vt 0.8467922 0.980417
vt 0.8243712 0.9799566
vt 0.8467922 0.980417
vt 0.8566569 0.980257
vt 0.8342358 0.5481527
vt 0.8482673 0.5483317
vt 0.8145065 0.5484045
vt 0.8118148 0.980257
vt 0.7893937 0.5487249
vt 0.8412516 0.9798885
vt 0.879078 0.5487249
vt 0.8566569 0.980257
vt 0.8342358 0.5353661
vt 0.8342358 0.9806209
vt 0.8467922 0.980417
vt 0.8593487 0.5428474
vt 0.8566569 0.980257
vt 0.879078 0.5487249
vn 0 0 1
vn 0 0 1
vn 0 0 1
vn 0 0 1
vn 0 0 1
vn 0 0 1
vn 0 0 1
vn 0 0 1
vn 0 0 1
vn 0 0 1
vn 0 0 1
vn 0 0 1
vn 0 0 1
vn 0 0 1
vn 0 0 1
vn 0 0 1
vn 0 0 1
vn 0 0 1
vn 0 0 1
vn 0 0 1
vn 0 0 1
vn 0 0 1
vn 0 0 1
vn 0 0 1
vn 0 0 1
vn 0 0 1
vn 0 0 1
vn 0 0 1
vn 0 0 1
vn 0 0 1
vn 0 0 1
vn 0 0 1
vn 0 0 1
vn 0 0 1
vn 0 0 1
vn 0 0 1
vn 0 0 1
vn 0 0 1
vn 0 0 1
vn 0 0 1
vn 0 0 1
vn 0 0 1
vn 0 0 1
vn 0 0 1
vn 0 0 1
vn 0 0 1
vn 0 0 1
vn 0 0 1
vn 0 0 1
vn 0 0 1
vn 0 0 1
vn 0 0 1
vn 0 0 1
vn 0 0 1
vn 0 0 1
vn 0 0 1
vn 0 0 1
vn 0 0 1
vn 0 0 1
vn 0 0 1
vn 0 0 1
vn 0 0 1
vn 0 0 1
vn 0 0 1
vn 0 0 1
vn 0 0 1
vn 0 0 1
vn 0 0 1
vn 0 0 1
vn 0 0 1
vn 0 0 1
vn 0 0 1
vn 0 0 1
vn 0 0 1
vn 0 0 1
vn 0 0 1
vn 0 0 1
vn 0 0 1
vn 0 0 1
vn 0 0 1
vn 0 0 1
vn 0 0 1
vn 0 0 1
vn 0 0 1
vn 0 0 1
vn 0 0 1
vn 0 0 1
vn 0 0 1
vn 0 0 1
vn 0 0 1
vn 0 0 1
vn 0 0 1
vn 0 0 1
vn 0 0 1
vn 0 0 1
vn 0 0 1
vn 0 0 1
vn 0 0 1
vn 0 0 1
vn 0 0 1
vn 0 0 1
vn 0 0 1
vn 0 0 1
vn 0 0 1
vn 0 0 1
vn 0 0 1
vn 0 0 1
vn 0 0 1
vn 0 0 1
vn 0 0 1
vn 0 0 1
vn 0 0 1
vn 0 0 1
vn 0 0 1
vn 0 0 1
vn 0 0 1
vn 0 0 1
vn 0 0 1
vn 0 0 1
vn 0 0 1
vn 0 0 1
vn 0 0 1
vn 0 0 1
vn 0 0 1
vn 0 0 1
vn 0 0 1
vn 0 0 1
vn 0 0 1
vn 0 0 1
vn 0 0 1
vn 0 0 1
vn 0 0 1
vn 0 0 1
vn 0 0 1
vn 0 0 1
vn 0 0 1
g WizSummonStaff07_mesh_0
f 3/3/3 2/2/2 1/1/1
f 6/6/6 5/5/5 4/4/4
f 9/9/9 8/8/8 7/7/7
f 11/11/11 10/10/10 7/7/7
f 7/7/7 10/10/10 12/12/12
f 10/10/10 13/13/13 12/12/12
f 16/16/16 15/15/15 14/14/14
f 19/19/19 18/18/18 17/17/17
f 22/22/22 21/21/21 20/20/20
f 24/24/24 23/23/23 20/20/20
f 20/20/20 23/23/23 25/25/25
f 23/23/23 26/26/26 25/25/25
f 29/29/29 28/28/28 27/27/27
f 28/28/28 30/30/30 27/27/27
f 28/28/28 31/31/31 30/30/30
f 27/27/27 30/30/30 32/32/32
f 31/31/31 33/33/33 30/30/30
f 30/30/30 34/34/34 32/32/32
f 30/30/30 33/33/33 34/34/34
f 32/32/32 34/34/34 35/35/35
f 33/33/33 36/36/36 34/34/34
f 34/34/34 37/37/37 35/35/35
f 34/34/34 36/36/36 37/37/37
f 35/35/35 37/37/37 38/38/38
f 36/36/36 39/39/39 37/37/37
f 37/37/37 40/40/40 38/38/38
f 37/37/37 39/39/39 40/40/40
f 38/38/38 40/40/40 41/41/41
f 39/39/39 42/42/42 40/40/40
f 40/40/40 43/43/43 41/41/41
f 40/40/40 42/42/42 43/43/43
f 41/41/41 43/43/43 44/44/44
f 42/42/42 45/45/45 43/43/43
f 43/43/43 46/46/46 44/44/44
f 43/43/43 45/45/45 46/46/46
f 44/44/44 46/46/46 47/47/47
f 45/45/45 48/48/48 46/46/46
f 46/46/46 49/49/49 47/47/47
f 46/46/46 48/48/48 49/49/49
f 47/47/47 49/49/49 50/50/50
f 48/48/48 51/51/51 49/49/49
f 49/49/49 52/52/52 50/50/50
f 49/49/49 51/51/51 52/52/52
f 50/50/50 52/52/52 53/53/53
f 51/51/51 54/54/54 52/52/52
f 52/52/52 55/55/55 53/53/53
f 52/52/52 54/54/54 55/55/55
f 53/53/53 55/55/55 56/56/56
f 54/54/54 57/57/57 55/55/55
f 55/55/55 58/58/58 56/56/56
f 55/55/55 57/57/57 58/58/58
f 57/57/57 59/59/59 58/58/58
f 62/62/62 61/61/61 60/60/60
f 61/61/61 63/63/63 60/60/60
f 61/61/61 64/64/64 63/63/63
f 60/60/60 63/63/63 65/65/65
f 64/64/64 66/66/66 63/63/63
f 63/63/63 67/67/67 65/65/65
f 63/63/63 66/66/66 67/67/67
f 65/65/65 67/67/67 68/68/68
f 66/66/66 69/69/69 67/67/67
f 67/67/67 70/70/70 68/68/68
f 67/67/67 69/69/69 70/70/70
f 68/68/68 70/70/70 71/71/71
f 69/69/69 72/72/72 70/70/70
f 70/70/70 73/73/73 71/71/71
f 70/70/70 72/72/72 73/73/73
f 71/71/71 73/73/73 74/74/74
f 72/72/72 75/75/75 73/73/73
f 73/73/73 76/76/76 74/74/74
f 73/73/73 75/75/75 76/76/76
f 74/74/74 76/76/76 77/77/77
f 75/75/75 78/78/78 76/76/76
f 76/76/76 79/79/79 77/77/77
f 76/76/76 78/78/78 79/79/79
f 77/77/77 79/79/79 80/80/80
f 78/78/78 81/81/81 79/79/79
f 79/79/79 82/82/82 80/80/80
f 79/79/79 81/81/81 82/82/82
f 80/80/80 82/82/82 83/83/83
f 81/81/81 84/84/84 82/82/82
f 82/82/82 85/85/85 83/83/83
f 82/82/82 84/84/84 85/85/85
f 83/83/83 85/85/85 86/86/86
f 84/84/84 87/87/87 85/85/85
f 85/85/85 88/88/88 86/86/86
f 85/85/85 87/87/87 88/88/88
f 86/86/86 88/88/88 89/89/89
f 87/87/87 90/90/90 88/88/88
f 88/88/88 91/91/91 89/89/89
f 88/88/88 90/90/90 91/91/91
f 90/90/90 92/92/92 91/91/91
f 95/95/95 94/94/94 93/93/93
f 97/97/97 96/96/96 94/94/94
f 97/97/97 95/95/95 98/98/98
f 99/99/99 97/97/97 98/98/98
f 100/100/100 97/97/97 99/99/99
f 101/101/101 100/100/100 99/99/99
f 98/98/98 95/95/95 102/102/102
f 95/95/95 103/103/103 102/102/102
f 102/102/102 103/103/103 104/104/104
f 103/103/103 105/105/105 104/104/104
f 107/107/107 106/106/106 96/96/96
f 95/95/95 107/107/107 108/108/108
f 111/111/111 110/110/110 109/109/109
f 112/112/112 111/111/111 109/109/109
f 113/113/113 111/111/111 112/112/112
f 114/114/114 113/113/113 112/112/112
f 117/117/117 116/116/116 115/115/115
f 119/119/119 118/118/118 116/116/116
f 117/117/117 121/121/121 120/120/120
f 121/121/121 122/122/122 118/118/118
f 120/120/120 118/118/118 123/123/123
f 123/123/123 118/118/118 124/124/124
f 125/125/125 120/120/120 123/123/123
f 126/126/126 120/120/120 125/125/125
f 127/127/127 126/126/126 125/125/125
f 118/118/118 128/128/128 124/124/124
f 124/124/124 128/128/128 129/129/129
f 128/128/128 130/130/130 129/129/129
f 133/133/133 132/132/132 131/131/131
f 134/134/134 133/133/133 131/131/131
f 135/135/135 133/133/133 134/134/134
f 136/136/136 135/135/135 134/134/134
