g wolf_arcane_extra
v -0.2329829 2.02477 1.140092
v -0.1576268 2.056118 1.209833
v -0.09596401 2.027408 1.244219
v -0.2097822 2.050398 1.175817
v -0.07217351 1.999318 1.265499
v -0.204351 2.115679 1.178769
v -0.1828537 2.046741 1.229797
v -0.2628146 2.05942 1.181434
v -0.3772094 2.179013 1.009807
v -0.1570662 2.015567 1.223517
v -0.06520612 1.968712 1.272534
v -0.2036337 2.026786 1.188113
v 0.2329829 2.02477 1.140092
v 0.1576268 2.056118 1.209833
v 0.09596401 2.027408 1.244219
v 0.2097822 2.050398 1.175817
v 0.07217351 1.999318 1.265499
v 0.204351 2.115679 1.178769
v 0.1828537 2.046741 1.229797
v 0.2628146 2.05942 1.181434
v 0.3772094 2.179013 1.009807
v 0.1570662 2.015567 1.223517
v 0.06520612 1.968712 1.272534
v 0.2036337 2.026786 1.188113
v -0.06575193 1.967312 1.24807
v 0.07357918 1.971304 1.243893
v -0.1576268 2.056118 1.209833
v -0.1828537 2.046741 1.229797
v -0.3772094 2.179013 1.009807
v -0.1828537 2.046741 1.229797
v -0.2329829 2.02477 1.140092
v -0.2628146 2.05942 1.181434
v -0.3772094 2.179013 1.009807
v -0.204351 2.115679 1.178769
v -0.09596401 2.027408 1.244219
v -0.06520612 1.968712 1.272534
v -0.07217351 1.999318 1.265499
v -0.06520612 1.968712 1.272534
v -0.1828537 2.046741 1.229797
v 0.1576268 2.056118 1.209833
v 0.1828537 2.046741 1.229797
v 0.3772094 2.179013 1.009807
v 0.1828537 2.046741 1.229797
v 0.2329829 2.02477 1.140092
v 0.2628146 2.05942 1.181434
v 0.3772094 2.179013 1.009807
v 0.204351 2.115679 1.178769
v 0.09596401 2.027408 1.244219
v 0.06520612 1.968712 1.272534
v 0.07217351 1.999318 1.265499
v 0.06520612 1.968712 1.272534
v 0.1828537 2.046741 1.229797
v 0.06520612 1.968712 1.272534
v -0.06520612 1.968712 1.272534
vt 0.7464615 0.9273365
vt 0.7491426 0.9772108
vt 0.751719 0.9772108
vt 0.7477379 0.9772108
vt 0.7512794 0.9444866
vt 0.7496903 0.9969605
vt 0.7494709 0.9444866
vt 0.7487767 0.9444866
vt 0.7500316 0.9950758
vt 0.7493696 0.9270796
vt 0.7504871 0.9343191
vt 0.7481841 0.9347628
vt 0.7464615 0.9270796
vt 0.7491426 0.9773766
vt 0.751719 0.9773766
vt 0.7477379 0.9773766
vt 0.7512794 0.9444866
vt 0.7496903 0.9969605
vt 0.7494709 0.9444866
vt 0.7487767 0.9444866
vt 0.7500316 0.9950758
vt 0.7493696 0.9270796
vt 0.7504871 0.9343191
vt 0.7481841 0.9270796
vt 0.7501308 0.9320104
vt 0.7500355 0.9313936
vt 0.7491426 0.9772108
vt 0.7494709 0.9444866
vt 0.7500316 0.9950758
vt 0.7494709 0.9444866
vt 0.7464615 0.9273365
vt 0.7487767 0.9444866
vt 0.7500316 0.9950758
vt 0.7496903 0.9969605
vt 0.751719 0.9772108
vt 0.7534109 0.9270796
vt 0.7512794 0.9444866
vt 0.7504871 0.9343191
vt 0.7494709 0.9444866
vt 0.7491426 0.9773766
vt 0.7494709 0.9444866
vt 0.7500316 0.9950758
vt 0.7494709 0.9444866
vt 0.7464615 0.9270796
vt 0.7487767 0.9444866
vt 0.7500316 0.9950758
vt 0.7496903 0.9969605
vt 0.751719 0.9773766
vt 0.7534109 0.9270796
vt 0.7512794 0.9444866
vt 0.7504871 0.9343191
vt 0.7494709 0.9444866
vt 0.7504871 0.9343191
vt 0.7504871 0.9343191
vn 0.7594696 0.1827881 -0.6243352
vn 0.05368303 0.8760139 0.4792886
vn 0.5494516 -0.07319561 -0.8323133
vn 0.6781672 -0.06234957 -0.732258
vn -0.07222135 0.475745 0.8766133
vn 0.06445166 -0.4212594 -0.9046472
vn -0.1299854 0.6167869 0.7763231
vn -0.5778947 -0.7525256 0.3158209
vn -0.1256811 0.7972637 0.5904022
vn -0.5702185 -0.7150024 0.4045027
vn -0.5414404 -0.5410622 0.6435013
vn -0.5080183 -0.7076651 0.4910474
vn -0.7594696 0.1827881 -0.6243352
vn -0.05368303 0.8760139 0.4792886
vn -0.5494516 -0.07319561 -0.8323133
vn -0.6781672 -0.06234957 -0.732258
vn 0.07222135 0.475745 0.8766133
vn -0.06445166 -0.4212594 -0.9046472
vn 0.1299854 0.6167869 0.7763231
vn 0.5778947 -0.7525256 0.3158209
vn 0.1256811 0.7972637 0.5904022
vn 0.5702183 -0.7150036 0.404501
vn 0.5414405 -0.5410637 0.6435
vn 0.5080183 -0.7076651 0.4910474
vn -0.4790883 -0.8756582 0.06080374
vn 0.4790861 -0.8756598 0.06079783
vn 0.2451738 -0.3901835 -0.8874945
vn -0.3274304 -0.6259946 -0.7077571
vn 0.6781672 -0.06234957 -0.732258
vn -0.5086401 -0.4724599 0.7197686
vn -0.6268436 -0.7574624 0.1825318
vn -0.2986707 0.6780769 0.671571
vn -0.7414217 -0.6704975 0.02696469
vn 0.01400412 0.6077343 0.794017
vn 0.03302271 0.6211331 0.7830091
vn 0.6483333 -0.02730522 -0.7608668
vn 0.6483333 -0.02730522 -0.7608668
vn -0.4706109 -0.2453551 0.8475413
vn -0.4159626 0.08449142 0.9054481
vn -0.2451738 -0.3901835 -0.8874945
vn 0.3274304 -0.6259946 -0.7077571
vn -0.6781672 -0.06234957 -0.732258
vn 0.5086401 -0.4724599 0.7197686
vn 0.6268436 -0.7574624 0.1825318
vn 0.2986707 0.6780769 0.671571
vn 0.7414217 -0.6704975 0.02696469
vn -0.01400412 0.6077343 0.794017
vn -0.03302271 0.6211331 0.7830091
vn -0.6483333 -0.02730522 -0.7608668
vn -0.6483333 -0.02730522 -0.7608668
vn 0.4706109 -0.2453551 0.8475413
vn 0.4159626 0.08449142 0.9054481
vn 0.5585859 -0.7684072 0.3123012
vn -0.5585865 -0.7684057 0.312304
g wolf_arcane_extra_0
f 3/3/3 37/37/37 36/36/36
f 3/3/3 27/27/27 6/6/6
f 6/6/6 27/27/27 28/28/28
f 29/29/29 27/27/27 4/4/4
f 4/4/4 1/1/1 29/29/29
f 5/5/5 39/39/39 38/38/38
f 5/5/5 35/35/35 34/34/34
f 7/7/7 5/5/5 34/34/34
f 7/7/7 2/2/2 9/9/9
f 7/7/7 9/9/9 32/32/32
f 50/50/50 15/15/15 49/49/49
f 40/40/40 15/15/15 18/18/18
f 40/40/40 18/18/18 41/41/41
f 40/40/40 42/42/42 16/16/16
f 13/13/13 16/16/16 42/42/42
f 52/52/52 17/17/17 51/51/51
f 48/48/48 17/17/17 47/47/47
f 17/17/17 19/19/19 47/47/47
f 14/14/14 19/19/19 21/21/21
f 21/21/21 19/19/19 45/45/45
f 53/53/53 26/26/26 22/22/22
f 43/43/43 23/23/23 22/22/22
f 22/22/22 24/24/24 43/43/43
f 43/43/43 24/24/24 20/20/20
f 44/44/44 20/20/20 24/24/24
f 44/44/44 46/46/46 20/20/20
f 25/25/25 54/54/54 10/10/10
f 11/11/11 30/30/30 10/10/10
f 12/12/12 10/10/10 30/30/30
f 12/12/12 30/30/30 8/8/8
f 8/8/8 31/31/31 12/12/12
f 33/33/33 31/31/31 8/8/8
