g wolf_fire_extra
v -0.2329829 2.013471 1.140092
v -0.1576268 2.056118 1.209833
v -0.09596401 2.025362 1.244219
v -0.2097822 2.041617 1.175817
v -0.1085738 2.013309 1.250432
v -0.1938568 2.081634 1.215166
v -0.175112 2.038646 1.236185
v -0.2335166 2.051641 1.185346
v -0.297323 2.130041 1.114483
v -0.2023543 2.009926 1.194148
v -0.0885856 1.939232 1.233225
v -0.1514992 1.984744 1.232373
v 0.2329829 2.013471 1.140092
v 0.1576268 2.056118 1.209833
v 0.09596401 2.025362 1.244219
v 0.2097822 2.041617 1.175817
v 0.1085738 2.013309 1.250432
v 0.1938568 2.081634 1.215166
v 0.175112 2.038646 1.236185
v 0.2335166 2.051641 1.185346
v 0.297323 2.130041 1.114483
v 0.2023543 2.009926 1.194148
v 0.0885856 1.939232 1.233225
v 0.1514992 1.984744 1.232373
v -0.3656152 2.43166 0.8317584
v -0.4310352 2.283718 0.7530303
v -0.4760045 2.58274 0.745073
v -0.3255344 2.417074 0.7789283
v -0.4285304 2.458114 0.7238874
v -0.2458716 2.227734 0.8504788
v -0.3574083 2.236601 0.7323376
v -0.4123494 2.394057 0.7715102
v -0.4523852 2.379729 0.718973
v 0.3656152 2.43166 0.8317584
v 0.4310352 2.283718 0.7530303
v 0.4760045 2.58274 0.745073
v 0.3255344 2.417074 0.7789283
v 0.4285304 2.458114 0.7238874
v 0.2458716 2.227734 0.8504788
v 0.3574083 2.236601 0.7323376
v 0.4123494 2.394057 0.7715102
v 0.4523852 2.379729 0.718973
v -0.1576268 2.056118 1.209833
v -0.175112 2.038646 1.236185
v -0.1576268 2.056118 1.209833
v -0.1938568 2.081634 1.215166
v -0.2097822 2.041617 1.175817
v -0.175112 2.038646 1.236185
v -0.2329829 2.013471 1.140092
v -0.297323 2.130041 1.114483
v -0.175112 2.038646 1.236185
v -0.1938568 2.081634 1.215166
v -0.175112 2.038646 1.236185
v -0.09596401 2.025362 1.244219
v -0.175112 2.038646 1.236185
v 0.1576268 2.056118 1.209833
v 0.175112 2.038646 1.236185
v 0.1938568 2.081634 1.215166
v 0.1576268 2.056118 1.209833
v 0.2097822 2.041617 1.175817
v 0.175112 2.038646 1.236185
v 0.2329829 2.013471 1.140092
v 0.175112 2.038646 1.236185
v 0.297323 2.130041 1.114483
v 0.1938568 2.081634 1.215166
v 0.175112 2.038646 1.236185
v 0.09596401 2.025362 1.244219
v 0.175112 2.038646 1.236185
v -0.4123494 2.394057 0.7715102
v -0.3255344 2.417074 0.7789283
v -0.3656152 2.43166 0.8317584
v -0.4760045 2.58274 0.745073
v -0.4760045 2.58274 0.745073
v -0.4310352 2.283718 0.7530303
v -0.4523852 2.379729 0.718973
v -0.4523852 2.379729 0.718973
v -0.3574083 2.236601 0.7323376
v -0.2458716 2.227734 0.8504788
v -0.4285304 2.458114 0.7238874
v -0.4123494 2.394057 0.7715102
v -0.4285304 2.458114 0.7238874
v -0.2458716 2.227734 0.8504788
v -0.4123494 2.394057 0.7715102
v -0.2458716 2.227734 0.8504788
v 0.4123494 2.394057 0.7715102
v 0.3255344 2.417074 0.7789283
v 0.4760045 2.58274 0.745073
v 0.3656152 2.43166 0.8317584
v 0.4760045 2.58274 0.745073
v 0.4310352 2.283718 0.7530303
v 0.4523852 2.379729 0.718973
v 0.3574083 2.236601 0.7323376
v 0.4523852 2.379729 0.718973
v 0.2458716 2.227734 0.8504788
v 0.4285304 2.458114 0.7238874
v 0.4123494 2.394057 0.7715102
v 0.4285304 2.458114 0.7238874
v 0.4123494 2.394057 0.7715102
v 0.2458716 2.227734 0.8504788
v 0.2458716 2.227734 0.8504788
v 0.175112 2.038646 1.236185
v -0.175112 2.038646 1.236185
vt 0.7724512 0.8422137
vt 0.7998461 0.8533971
vt 0.8261704 0.8528072
vt 0.7854934 0.8492431
vt 0.8235866 0.846062
vt 0.8077338 0.8488016
vt 0.8032007 0.8474301
vt 0.7961078 0.8380485
vt 0.7903813 0.8440881
vt 0.8021654 0.8287798
vt 0.8434588 0.8200136
vt 0.8197714 0.8212582
vt 0.7724512 0.8422137
vt 0.7998461 0.8533971
vt 0.8261704 0.8528072
vt 0.7854934 0.8492431
vt 0.8235866 0.846062
vt 0.8077338 0.8488016
vt 0.8032007 0.8474301
vt 0.7961078 0.8380485
vt 0.7903813 0.8440881
vt 0.8021654 0.8287798
vt 0.8434588 0.8200136
vt 0.8197714 0.8212582
vt 0.8870701 0.9646821
vt 0.8884296 0.9347922
vt 0.8830843 0.9936829
vt 0.8904065 0.9411689
vt 0.8915009 0.9918031
vt 0.8922626 0.9477473
vt 0.8885119 0.9347546
vt 0.8886023 0.9642636
vt 0.8947534 0.9856698
vt 0.8870701 0.9646821
vt 0.8884296 0.9347922
vt 0.8830843 0.9936829
vt 0.8904065 0.9411689
vt 0.8949047 0.9918031
vt 0.8922626 0.9477473
vt 0.8885119 0.9347546
vt 0.8886023 0.9642636
vt 0.8947534 0.9856698
vt 0.7998461 0.8533971
vt 0.8032007 0.8474301
vt 0.7998461 0.8533971
vt 0.8077338 0.8488016
vt 0.7854934 0.8492431
vt 0.8032007 0.8474301
vt 0.7724512 0.8422137
vt 0.7903813 0.8440881
vt 0.8032007 0.8474301
vt 0.8077338 0.8488016
vt 0.8032007 0.8474301
vt 0.8261704 0.8528072
vt 0.8032007 0.8474301
vt 0.7998461 0.8533971
vt 0.8032007 0.8474301
vt 0.8077338 0.8488016
vt 0.7998461 0.8533971
vt 0.7854934 0.8492431
vt 0.8032007 0.8474301
vt 0.7724512 0.8422137
vt 0.8032007 0.8474301
vt 0.7903813 0.8440881
vt 0.8077338 0.8488016
vt 0.8032007 0.8474301
vt 0.8261704 0.8528072
vt 0.8032007 0.8474301
vt 0.8908107 0.9837228
vt 0.8904065 0.9411689
vt 0.8922336 0.9478593
vt 0.8886309 0.9936829
vt 0.8887984 0.9936829
vt 0.8881411 0.9692832
vt 0.8915305 0.9886946
vt 0.8947534 0.9856698
vt 0.8885119 0.9347546
vt 0.8887334 0.9348817
vt 0.8912979 0.9792031
vt 0.8906144 0.9839831
vt 0.8915009 0.9918031
vt 0.8887334 0.9348817
vt 0.8910008 0.9839413
vt 0.8922626 0.9477473
vt 0.8908107 0.9837228
vt 0.8904065 0.9411689
vt 0.8886309 0.9936829
vt 0.8922336 0.9478593
vt 0.8887984 0.9936829
vt 0.8881411 0.9692832
vt 0.8915305 0.9886946
vt 0.8885119 0.9347546
vt 0.8947534 0.9856698
vt 0.8887334 0.9348817
vt 0.8947017 0.9920095
vt 0.8906144 0.9839831
vt 0.8949047 0.9918031
vt 0.8910008 0.9839413
vt 0.8887334 0.9348817
vt 0.8922626 0.9477473
vt 0.8032007 0.8474301
vt 0.8032007 0.8474301
vn 0.7113836 0.2481916 -0.6575213
vn -0.4256035 0.858299 0.2866782
vn 0.5360115 0.8104661 -0.2362971
vn -0.4256035 0.858299 0.2866782
vn -0.004840269 0.07836284 0.9969132
vn 0.5360115 0.8104661 -0.2362971
vn -0.4039041 0.5500835 0.7309376
vn -0.7703782 -0.2809854 0.5723326
vn 0.7529452 0.3661087 -0.5468436
vn -0.7067045 -0.3981042 0.5848774
vn 0.151272 -0.1847438 0.9710749
vn -0.3962016 -0.2754009 0.8758873
vn -0.7113836 0.2481916 -0.6575213
vn 0.4256036 0.858299 0.2866782
vn -0.5360115 0.8104661 -0.2362971
vn 0.4256036 0.858299 0.2866782
vn 0.004840269 0.07836284 0.9969132
vn -0.5360115 0.8104661 -0.2362971
vn 0.4039041 0.5500835 0.7309376
vn 0.7703782 -0.2809854 0.5723326
vn -0.7529452 0.3661087 -0.5468436
vn 0.7067045 -0.3981042 0.5848774
vn -0.151272 -0.1847438 0.9710749
vn 0.3962016 -0.2754009 0.8758873
vn -0.7703627 -0.05967111 0.6348075
vn -0.4701284 -0.3860797 -0.793676
vn -0.7319056 -0.1539123 0.663796
vn 0.1351177 -0.1966591 -0.9711171
vn 0.7192593 0.2056206 -0.663616
vn 0.4783778 -0.04622584 -0.8769367
vn -0.78324 -0.3833678 -0.489453
vn -0.8751148 -0.1044468 0.4725093
vn -0.4701284 -0.3860797 -0.793676
vn 0.7703627 -0.05967111 0.6348075
vn 0.4701284 -0.3860797 -0.793676
vn 0.7319056 -0.1539123 0.663796
vn -0.1351177 -0.1966591 -0.9711171
vn -0.7192593 0.2056206 -0.663616
vn -0.4783778 -0.04622584 -0.8769367
vn 0.78324 -0.3833678 -0.489453
vn 0.8751148 -0.1044468 0.4725093
vn 0.4701284 -0.3860797 -0.793676
vn 0.5360115 0.8104661 -0.2362971
vn -0.4848883 -0.5456321 -0.6834976
vn -0.4848883 -0.5456321 -0.6834976
vn -0.4848883 -0.5456321 -0.6834976
vn 0.7529452 0.3661087 -0.5468436
vn -0.5805703 -0.1816557 0.7936872
vn -0.8157871 -0.4468007 0.3672335
vn -0.7994461 -0.1182752 0.5889795
vn -0.531373 0.1175604 0.8389412
vn -0.01512259 0.4434896 0.896152
vn -0.3925222 0.3724231 0.8409681
vn 0.2642205 0.2090177 0.9415408
vn -0.4952814 -0.05860385 0.8667536
vn -0.5360115 0.8104661 -0.2362971
vn 0.4848883 -0.5456321 -0.6834976
vn 0.4848883 -0.5456321 -0.6834976
vn 0.4848883 -0.5456321 -0.6834976
vn -0.7529452 0.3661087 -0.5468436
vn 0.5805703 -0.1816557 0.7936872
vn 0.8157871 -0.4468007 0.3672335
vn 0.531373 0.1175604 0.8389412
vn 0.7994461 -0.1182752 0.5889795
vn 0.01512259 0.4434896 0.896152
vn 0.3925222 0.3724231 0.8409681
vn -0.2642205 0.2090177 0.9415408
vn 0.4952814 -0.05860385 0.8667536
vn 0.3472507 0 -0.9377723
vn 0.7169922 0.5823176 0.383182
vn 0.7169922 0.5823176 0.383182
vn 0.6675243 0.6718771 0.3209242
vn 0.1112521 -0.1009914 -0.9886474
vn -0.7998272 0.03509396 0.5992034
vn -0.799463 0.03494947 0.5996979
vn 0.6773723 0.3913284 -0.6229197
vn 0.7016476 0.2998986 -0.646337
vn 0.4783778 -0.04622584 -0.8769367
vn -0.9470676 -0.3075868 -0.09194133
vn -0.8751148 -0.1044468 0.4725093
vn 0.2657757 0.6175095 0.7403008
vn 0.5347982 0.576644 0.6176347
vn 0.2657757 0.6175095 0.7403008
vn 0.5347982 0.576644 0.6176347
vn -0.3472507 0 -0.9377723
vn -0.7169922 0.5823176 0.383182
vn -0.6675243 0.6718771 0.3209242
vn -0.7169922 0.5823176 0.383182
vn -0.1112521 -0.1009914 -0.9886474
vn 0.7998272 0.03509396 0.5992034
vn 0.799463 0.03494947 0.5996979
vn -0.7016476 0.2998986 -0.646337
vn -0.6773723 0.3913284 -0.6229197
vn -0.4783778 -0.04622584 -0.8769367
vn 0.9470676 -0.3075868 -0.09194133
vn 0.8751148 -0.1044468 0.4725093
vn -0.2657757 0.6175095 0.7403008
vn -0.2657757 0.6175095 0.7403008
vn -0.5347982 0.576644 0.6176347
vn -0.5347982 0.576644 0.6176347
vn -0.7735136 0.4738183 -0.4209193
vn 0.7735136 0.4738183 -0.4209193
g wolf_fire_extra_0
f 7/7/7 2/2/2 4/4/4
f 3/3/3 43/43/43 6/6/6
f 46/46/46 45/45/45 44/44/44
f 16/16/16 14/14/14 19/19/19
f 56/56/56 15/15/15 18/18/18
f 59/59/59 58/58/58 57/57/57
f 33/33/33 31/31/31 26/26/26
f 31/31/31 80/80/80 79/79/79
f 77/77/77 29/29/29 78/78/78
f 77/77/77 76/76/76 69/69/69
f 28/28/28 30/30/30 69/69/69
f 28/28/28 69/69/69 73/73/73
f 83/83/83 82/82/82 81/81/81
f 40/40/40 42/42/42 35/35/35
f 96/96/96 40/40/40 95/95/95
f 38/38/38 92/92/92 94/94/94
f 93/93/93 92/92/92 85/85/85
f 39/39/39 37/37/37 85/85/85
f 85/85/85 37/37/37 89/89/89
f 99/99/99 98/98/98 97/97/97
f 47/47/47 1/1/1 9/9/9
f 102/102/102 47/47/47 9/9/9
f 51/51/51 50/50/50 8/8/8
f 50/50/50 49/49/49 8/8/8
f 8/8/8 49/49/49 10/10/10
f 48/48/48 8/8/8 10/10/10
f 12/12/12 48/48/48 10/10/10
f 5/5/5 55/55/55 12/12/12
f 11/11/11 5/5/5 12/12/12
f 54/54/54 5/5/5 11/11/11
f 5/5/5 54/54/54 52/52/52
f 53/53/53 5/5/5 52/52/52
f 13/13/13 60/60/60 21/21/21
f 60/60/60 101/101/101 21/21/21
f 64/64/64 63/63/63 20/20/20
f 62/62/62 64/64/64 20/20/20
f 62/62/62 20/20/20 22/22/22
f 20/20/20 61/61/61 22/22/22
f 61/61/61 24/24/24 22/22/22
f 68/68/68 17/17/17 24/24/24
f 17/17/17 23/23/23 24/24/24
f 17/17/17 67/67/67 23/23/23
f 67/67/67 17/17/17 65/65/65
f 17/17/17 66/66/66 65/65/65
f 27/27/27 32/32/32 25/25/25
f 32/32/32 74/74/74 25/25/25
f 32/32/32 75/75/75 74/74/74
f 72/72/72 71/71/71 70/70/70
f 70/70/70 71/71/71 84/84/84
f 41/41/41 36/36/36 34/34/34
f 90/90/90 41/41/41 34/34/34
f 91/91/91 41/41/41 90/90/90
f 88/88/88 87/87/87 86/86/86
f 88/88/88 86/86/86 100/100/100
