g wolf_eyes
v 0.6409438 0.1179438 -0.3961884
v 0.6441029 0.1734509 -0.3875524
v 0.7119028 0.2307913 -0.3425429
v 0.6855107 0.08455968 -0.3771927
v 0.707361 0.1628776 -0.3563495
v 0.7517642 0.2318242 -0.2860163
v 0.724931 0.05990148 -0.3285301
v 0.742845 0.1495571 -0.3097311
v 0.7687043 0.2133694 -0.2131827
v 0.7388545 0.04364288 -0.263422
v 0.7672899 0.1295021 -0.2587643
v 0.7713569 0.1835507 -0.1719683
v 0.7549763 0.06989515 -0.1917813
v 0.7645281 0.1166284 -0.1961062
v 0.5899456 0.184296 -0.4012216
v 0.7563327 0.114626 -0.1578826
v 0.6551593 0.2229834 0.3815897
v 0.6292053 0.1178945 0.3948427
v 0.6524165 0.1734856 0.3875502
v 0.7180168 0.2308168 0.3425406
v 0.6855121 0.08455956 0.3771904
v 0.7156748 0.1629125 0.3563471
v 0.7518324 0.2318246 0.2860138
v 0.7249322 0.0599016 0.3285276
v 0.7511583 0.149592 0.3097286
v 0.7633022 0.2133466 0.2131801
v 0.7388555 0.04364276 0.2634194
v 0.7672908 0.1295021 0.2587616
v 0.754977 0.06989503 0.1917787
v 0.7645287 0.1166283 0.1961036
v 0.589947 0.1842959 0.4012196
v 0.7563331 0.1146263 0.1578799
v 0.7599934 0.1491563 0.2480622
v 0.7607247 0.1596992 0.167096
vt 0.3268997 0.1091275
vt 0.324481 0.1469413
vt 0.2762353 0.2040382
vt 0.2857099 0.1017843
vt 0.2801276 0.1553766
vt 0.2373418 0.2105357
vt 0.2440785 0.09946788
vt 0.2423626 0.1585696
vt 0.1904772 0.2080408
vt 0.2023233 0.09920911
vt 0.2080373 0.1535698
vt 0.1626691 0.1949209
vt 0.162288 0.1243085
vt 0.1697647 0.1523242
vt 0.3594528 0.1408483
vt 0.1468824 0.1551664
vt 0.1074985 0.1788477
vt 0.1083606 0.1091275
vt 0.1107793 0.1469413
vt 0.159025 0.2040382
vt 0.1495504 0.1017843
vt 0.1551327 0.1553766
vt 0.1979186 0.2105357
vt 0.1911819 0.09946788
vt 0.1928977 0.1585696
vt 0.2447831 0.2080408
vt 0.2329371 0.09920911
vt 0.227223 0.1535698
vt 0.2729723 0.1243085
vt 0.2654956 0.1523242
vt 0.0758075 0.1408483
vt 0.2883779 0.1551664
vt 0.2313449 0.1663558
vt 0.2740541 0.1804484
vn 0.365163 0.1227909 -0.92281
vn 0.3954041 0.1181619 -0.9108751
vn 0.814103 0.07763626 -0.5755075
vn 0.570936 0.06013726 -0.8187891
vn 0.685299 0.01219318 -0.7281598
vn 0.9110894 0.0662018 -0.4068578
vn 0.856292 -0.1130223 -0.5039741
vn 0.8541485 -0.002347375 -0.5200239
vn 0.9957213 -0.001626448 -0.09239129
vn 0.9438665 -0.2836354 -0.1693131
vn 0.9666352 -0.09663733 -0.237229
vn 0.9920331 -0.1175592 0.04527972
vn 0.9712406 -0.2289776 0.06527628
vn 0.9879076 -0.1461886 0.05164641
vn 0.2675438 0.1332443 -0.9542884
vn 0.9646346 -0.1743517 0.1976906
vn 0.3607512 0.1153741 0.9254985
vn 0.2596919 0.01812023 0.9655215
vn 0.3394672 0.0662329 0.9382831
vn 0.7313005 0.121884 0.6710767
vn 0.512136 -0.01625139 0.8587506
vn 0.6691372 0.01461961 0.742995
vn 0.9770975 0.1181176 0.1769991
vn 0.8551971 -0.1756772 0.4876222
vn 0.8771085 0.003096857 0.4802823
vn 0.9885197 0.02956438 0.1481714
vn 0.9438678 -0.2836328 0.1693106
vn 0.9935997 -0.03096807 0.1086316
vn 0.9712409 -0.2289746 -0.06528202
vn 0.9960856 -0.02196699 -0.08562022
vn 0.2247874 0.07004436 0.9718869
vn 0.9723969 -0.1160715 -0.2024151
vn 0.9855137 0.1626839 -0.04792384
vn 0.9953405 0.02523262 -0.09306233
g wolf_eyes_0
f 3/3/3 6/6/6 8/8/8
f 8/8/8 6/6/6 11/11/11
f 11/11/11 6/6/6 9/9/9
f 11/11/11 7/7/7 8/8/8
f 5/5/5 8/8/8 7/7/7
f 5/5/5 7/7/7 4/4/4
f 2/2/2 5/5/5 4/4/4
f 2/2/2 4/4/4 1/1/1
f 1/1/1 15/15/15 2/2/2
f 10/10/10 7/7/7 11/11/11
f 9/9/9 14/14/14 11/11/11
f 11/11/11 14/14/14 10/10/10
f 9/9/9 12/12/12 14/14/14
f 14/14/14 13/13/13 10/10/10
f 12/12/12 16/16/16 14/14/14
f 14/14/14 16/16/16 13/13/13
f 23/23/23 33/33/33 26/26/26
f 23/23/23 28/28/28 33/33/33
f 33/33/33 28/28/28 30/30/30
f 33/33/33 30/30/30 34/34/34
f 32/32/32 34/34/34 30/30/30
f 32/32/32 30/30/30 29/29/29
f 29/29/29 30/30/30 27/27/27
f 30/30/30 28/28/28 27/27/27
f 24/24/24 27/27/27 28/28/28
f 23/23/23 25/25/25 28/28/28
f 24/24/24 28/28/28 25/25/25
f 23/23/23 20/20/20 25/25/25
f 25/25/25 22/22/22 24/24/24
f 22/22/22 25/25/25 20/20/20
f 24/24/24 22/22/22 21/21/21
f 22/22/22 20/20/20 17/17/17
f 21/21/21 22/22/22 19/19/19
f 19/19/19 22/22/22 17/17/17
f 21/21/21 19/19/19 18/18/18
f 31/31/31 19/19/19 17/17/17
f 31/31/31 18/18/18 19/19/19
